<?xml version="1.0" encoding="utf-8"?>
<!-- Generator: Adobe Illustrator 19.1.0, SVG Export Plug-In . SVG Version: 6.00 Build 0)  -->
<svg version="1.1" xmlns="http://www.w3.org/2000/svg" xmlns:xlink="http://www.w3.org/1999/xlink" x="0px" y="0px"
	 viewBox="0 0 145.1 171" style="enable-background:new 0 0 145.1 171;" xml:space="preserve">
<style type="text/css">
	.st0{fill:#561F1F;}
	.st1{fill:#B6D889;stroke:#4D7737;stroke-miterlimit:10;}
	.st2{fill:#6EBA72;}
	.st3{fill:#608D3D;}
	.st4{fill:#4E6637;}
	.st5{fill:#62774F;}
	.st6{fill:#739B50;}
	.st7{fill:#4D7737;}
	.st8{fill:#325226;}
	.st9{fill:none;}
	.st10{fill:#10140E;stroke:#59893D;stroke-miterlimit:10;}
	.st11{fill:#A4A450;stroke:#6E6B34;stroke-width:0.5;stroke-miterlimit:10;}
	.st12{fill:#C4E1B1;}
	.st13{fill:#AC842D;}
	.st14{fill:#122113;}
	.st15{fill:#466630;}
	.st16{fill:#9BBF62;}
	.st17{fill:#354928;}
	.st18{fill:#4E5940;}
	.st19{fill:#6E8952;}
	.st20{fill:#45612D;}
	.st21{fill:#D0E4A2;}
	.st22{fill:#3C3D3A;}
	.st23{fill:#2B2D29;}
	.st24{fill:none;stroke:#161716;stroke-width:0.5;stroke-miterlimit:10;}
	.st25{fill:#4BA2D8;}
	.st26{fill:#D7E69F;}
	.st27{fill:#777777;}
	.st28{fill:#9F9F9C;}
	.st29{fill:#C9C8C5;}
	.st30{fill:#4C4C4C;}
	.st31{fill:#787878;}
</style>
<g id="head">
</g>
<g id="sideburn2">
</g>
<g id="Layer_2">
</g>
<g id="Layer_14">
</g>
<g id="Layer_3">
</g>
<g id="Layer_5">
</g>
<g id="ear">
	<path class="st0" d="M0-135.3"/>
</g>
<g id="teeth">
</g>
<g id="Layer_8">
	<g id="Layer_14_1_">
	</g>
</g>
<g id="Layer_9">
</g>
<g id="hair">
</g>
<g id="Layer_10">
</g>
<g id="eye2">
</g>
<g id="jaaw">
</g>
<g id="outline">
</g>
<g id="nose">
</g>
<g id="eye1">
</g>
<g id="wrinkles">
</g>
<g id="Layer_4">
</g>
<g id="Layer_7">
</g>
<g id="hair_1_">
</g>
<g id="scars">
</g>
<g id="Layer_19">
</g>
<g id="Layer_12">
</g>
<g id="Layer_11">
</g>
<g id="Layer_15">
</g>
<g id="Layer_13">
</g>
<g id="Layer_16">
</g>
<g id="Layer_23">
</g>
<g id="Layer_17">
</g>
<g id="metal">
	<g>
		<polygon class="st1" points="4.5,165.2 89,165 122.5,133.6 126.6,36.8 122.5,6.1 100,6.1 36.8,6.1 21.7,34.2 18.1,98.8 
			21.7,114.7 21.7,125.1 11.2,133.6 		"/>
		<polygon class="st2" points="22,121.1 22.4,125.2 11.9,133.8 5.3,164.8 89,164.7 121.8,133.3 122,129.8 106.9,129.8 103.6,131.3 
			89,127.1 66.2,128.7 40.8,120.3 		"/>
		<polygon class="st3" points="126.1,43.4 126.6,36.8 122.1,6.6 99.6,6.6 102.7,9 102.9,12.8 105.6,14 106,17.2 110.6,20.6 
			111.5,25.6 120.2,31.3 		"/>
		<ellipse class="st4" cx="41.7" cy="153.5" rx="3.1" ry="2.6"/>
		<ellipse class="st3" cx="22.3" cy="153.5" rx="2.2" ry="1.8"/>
		<ellipse class="st4" cx="29.6" cy="145.9" rx="0.7" ry="0.6"/>
		<ellipse class="st3" cx="21.7" cy="140.5" rx="0.7" ry="0.6"/>
		<ellipse class="st3" cx="54.1" cy="144.7" rx="1.3" ry="1.1"/>
		<ellipse class="st5" cx="62.2" cy="155" rx="1.3" ry="1.1"/>
		<ellipse class="st6" cx="39.5" cy="139.1" rx="0.8" ry="0.7"/>
		<ellipse class="st4" cx="77.4" cy="152.5" rx="1.1" ry="0.9"/>
		<ellipse class="st5" cx="49.1" cy="133" rx="1.4" ry="1.2"/>
		<g>
			<path class="st7" d="M65.2,17c0,0-0.1,0-0.3,0c-0.2,0-0.5-0.1-0.9-0.2c-0.8-0.2-1.9-0.6-3.1-1.2c-0.6-0.3-1.3-0.6-2-0.8
				c-0.7-0.3-1.5-0.4-2.4-0.6c-1.7-0.3-3.5-0.3-5.3-0.2c-1.8,0.1-3.6,0.4-5.3,0.7c-1.7,0.3-3.3,0.5-4.5,1c-1.3,0.5-2.2,1.2-2.6,1.9
				c-0.2,0.3-0.3,0.6-0.4,0.8c0,0.2-0.1,0.3-0.1,0.3s0-0.1,0-0.3c0-0.2,0.1-0.5,0.3-0.9c0.4-0.7,1.2-1.6,2.5-2.1
				c1.3-0.6,2.9-0.9,4.6-1.2c1.7-0.3,3.5-0.6,5.4-0.7c1.8-0.1,3.7,0,5.4,0.3c1.7,0.3,3.2,1,4.4,1.6c1.2,0.6,2.2,1.1,3,1.4
				c0.4,0.1,0.7,0.2,0.9,0.2C65.1,16.9,65.2,17,65.2,17z"/>
		</g>
		<g>
			<path class="st7" d="M62.6,13.6c0,0,0,0.1-0.1,0.3c-0.1,0.2-0.3,0.4-0.5,0.6c-0.4,0.4-1,1-1.6,1.5c-0.6,0.5-1.2,1-1.7,1.3
				c-0.5,0.3-0.9,0.4-0.9,0.4s0.3-0.2,0.8-0.6c0.4-0.4,1-1,1.6-1.5c0.6-0.5,1.2-1,1.7-1.4c0.2-0.2,0.5-0.3,0.6-0.4
				C62.6,13.7,62.6,13.6,62.6,13.6z"/>
		</g>
		<g>
			<path class="st7" d="M55.8,16.1c0,0,0.2-0.3,0.4-0.6c0.3-0.3,0.7-0.8,1.1-1.2c0.4-0.4,0.9-0.7,1.2-1c0.2-0.1,0.3-0.2,0.4-0.3
				c0.1-0.1,0.1-0.2,0.1-0.2c0,0,0,0.1,0,0.2c-0.1,0.1-0.2,0.3-0.3,0.5c-0.3,0.3-0.7,0.8-1.1,1.2c-0.4,0.4-0.9,0.7-1.2,1
				C56.1,16,55.8,16.1,55.8,16.1z"/>
		</g>
		<g>
			<path class="st7" d="M55.2,11.5c0,0-0.3,0.3-0.7,0.8c-0.4,0.4-1,1-1.5,1.6c-0.6,0.6-1.1,1.1-1.6,1.5c-0.4,0.4-0.8,0.7-0.8,0.7
				s0.2-0.4,0.5-0.9c0.4-0.5,0.9-1.1,1.4-1.7c0.6-0.6,1.2-1.1,1.7-1.5C54.8,11.7,55.2,11.5,55.2,11.5z"/>
		</g>
		<g>
			<path class="st7" d="M48.4,16.3c0,0-0.1-0.2-0.3-0.6c-0.1-0.4-0.3-0.8-0.5-1.3c-0.2-0.5-0.3-0.9-0.5-1.3
				c-0.1-0.4-0.2-0.6-0.2-0.6s0.2,0.2,0.4,0.5c0.2,0.3,0.5,0.8,0.7,1.2c0.2,0.5,0.3,1,0.3,1.4C48.4,16.1,48.4,16.3,48.4,16.3z"/>
		</g>
		<g>
			<path class="st7" d="M43.7,12.5c0,0,0.1,0.3,0.2,0.6c0.1,0.4,0.2,0.9,0.3,1.4c0.1,0.5,0.2,1,0.2,1.4c0,0.2,0,0.4-0.1,0.5
				c0,0.1-0.1,0.2-0.1,0.2s0-0.1,0-0.2c0-0.1-0.1-0.3-0.1-0.4c-0.1-0.3-0.3-0.9-0.4-1.4c-0.1-0.5-0.1-1-0.1-1.4
				C43.7,12.7,43.7,12.5,43.7,12.5z"/>
		</g>
		<g>
			<path class="st7" d="M42.5,17.3c0,0-0.3-0.1-0.6-0.4c-0.4-0.2-0.9-0.5-1.4-0.8c-0.2-0.2-0.5-0.3-0.7-0.4
				c-0.2-0.1-0.4-0.3-0.6-0.4c-0.4-0.3-0.6-0.5-0.6-0.5s0.3,0.1,0.7,0.2c0.4,0.2,1,0.4,1.5,0.7c0.5,0.3,1,0.7,1.3,1.1
				C42.3,17.1,42.5,17.3,42.5,17.3z"/>
		</g>
		<g>
			<path class="st7" d="M35,42.7c0,0-0.4,0-1,0.2c-0.6,0.2-1.5,0.6-2.3,1.4c-0.8,0.8-1.5,1.9-2.1,3.2c-0.6,1.3-1.1,2.7-1.5,4.2
				c-0.5,1.4-0.8,2.9-1.1,4.3c-0.3,1.4-0.4,2.7-0.9,3.8c-0.4,1.1-1.2,1.8-1.8,2.1c-0.3,0.2-0.5,0.3-0.7,0.3
				c-0.2,0.1-0.3,0.1-0.3,0.1s0.4-0.1,0.9-0.5c0.5-0.4,1.2-1.1,1.5-2.2c0.4-1,0.5-2.4,0.7-3.8c0.2-1.4,0.6-2.9,1-4.4
				c0.5-1.5,1-2.9,1.6-4.2c0.6-1.3,1.4-2.5,2.3-3.2c0.9-0.8,1.8-1.1,2.5-1.3c0.3-0.1,0.6-0.1,0.8-0.1C34.9,42.7,35,42.7,35,42.7z"/>
		</g>
		<g>
			<path class="st7" d="M33,46.9c0,0-0.3-0.1-0.8-0.3c-0.5-0.2-1.1-0.5-1.7-0.8c-0.6-0.3-1.2-0.7-1.6-1c-0.4-0.3-0.7-0.5-0.7-0.5
				s0.3,0.1,0.8,0.3c0.5,0.2,1.1,0.5,1.7,0.8c0.6,0.3,1.2,0.7,1.6,1C32.7,46.7,33,46.9,33,46.9z"/>
		</g>
		<g>
			<path class="st7" d="M26.5,49.2c0,0,0.2,0.1,0.6,0.3c0.3,0.2,0.7,0.5,1.1,0.9c0.4,0.3,0.8,0.7,1,1c0.3,0.3,0.4,0.5,0.4,0.5
				s-0.3-0.1-0.6-0.3c-0.4-0.2-0.8-0.5-1.2-0.8c-0.4-0.3-0.8-0.7-1-1C26.6,49.5,26.5,49.2,26.5,49.2z"/>
		</g>
		<g>
			<path class="st7" d="M29.8,55.3c0,0-0.4-0.1-1-0.3c-0.6-0.2-1.3-0.5-2.1-0.8c-0.7-0.3-1.5-0.7-2-1c-0.5-0.3-0.9-0.6-0.9-0.6
				s0.4,0.1,1,0.3c0.6,0.2,1.3,0.5,2.1,0.8c0.7,0.3,1.5,0.7,2,1C29.4,55.1,29.8,55.3,29.8,55.3z"/>
		</g>
		<g>
			<path class="st7" d="M22.3,54.2c0,0,0.1,0.1,0.3,0.2c0.2,0.1,0.4,0.2,0.7,0.4c0.6,0.3,1.4,0.8,2.2,1.3c0.8,0.5,1.6,0.9,2.2,1.3
				c0.6,0.4,1,0.6,1,0.6s-0.5-0.1-1.1-0.4c-0.7-0.3-1.5-0.6-2.3-1.1c-0.8-0.5-1.6-1-2.1-1.5c-0.3-0.2-0.5-0.4-0.6-0.6
				C22.3,54.3,22.3,54.2,22.3,54.2z"/>
		</g>
		<g>
			<path class="st7" d="M26.9,61.7c0,0-0.2-0.2-0.5-0.5c-0.3-0.3-0.7-0.7-1.2-1c-0.4-0.4-0.9-0.7-1.2-1c-0.3-0.3-0.5-0.5-0.5-0.5
				s0.3,0.1,0.7,0.2c0.4,0.2,0.9,0.5,1.4,0.9c0.4,0.4,0.8,0.8,1.1,1.2C26.8,61.4,26.9,61.7,26.9,61.7z"/>
		</g>
		<g>
			<path class="st7" d="M120.2,84.5c0,0,0,0.1-0.1,0.3c-0.1,0.2-0.1,0.5-0.3,0.9c-0.4,0.8-1.1,1.8-2.3,2.6c-1.2,0.8-2.8,1.5-4.4,2.2
				c-1.7,0.7-3.4,1.5-4.9,2.6c-1.6,1.1-3,2.4-4,3.8c-1.1,1.4-1.8,2.9-2.1,4.3c-0.3,1.4-0.4,2.6-0.3,3.4c0,0.4,0.1,0.7,0.1,1
				c0,0.2,0.1,0.3,0.1,0.3s0-0.1-0.1-0.3c-0.1-0.2-0.1-0.5-0.2-1c-0.1-0.8-0.2-2.1,0.1-3.5c0.3-1.4,0.9-3.1,2-4.5
				c1.1-1.5,2.5-2.8,4.1-3.9c1.6-1.1,3.4-1.9,5.1-2.6c1.7-0.7,3.2-1.3,4.4-2.1c1.2-0.8,2-1.7,2.4-2.4c0.2-0.4,0.3-0.7,0.4-0.9
				C120.1,84.7,120.2,84.5,120.2,84.5z"/>
		</g>
		<g>
			<path class="st7" d="M115.4,86.3c0,0,0.3,0.3,0.7,0.8c0.4,0.5,0.9,1.1,1.4,1.8c0.5,0.7,0.9,1.4,1.2,1.9c0.3,0.5,0.5,0.9,0.5,0.9
				s-0.3-0.3-0.7-0.8c-0.4-0.5-0.9-1.1-1.4-1.8c-0.5-0.7-0.9-1.4-1.2-1.9C115.5,86.6,115.4,86.3,115.4,86.3z"/>
		</g>
		<g>
			<path class="st7" d="M111.6,87.8c0,0,0.2,0.4,0.4,1c0.2,0.6,0.4,1.5,0.6,2.3c0.2,0.9,0.3,1.7,0.4,2.4c0.1,0.7,0.1,1.1,0.1,1.1
				s-0.2-0.4-0.4-1c-0.2-0.6-0.4-1.5-0.6-2.3c-0.2-0.9-0.3-1.7-0.4-2.4C111.6,88.2,111.6,87.8,111.6,87.8z"/>
		</g>
		<g>
			<path class="st7" d="M105.1,91.9c0,0,0.3,0,0.8,0.1c0.5,0.2,1.1,0.5,1.5,1c0.5,0.5,0.9,0.9,1.2,1.3c0.3,0.4,0.5,0.7,0.5,0.7
				s-0.3-0.2-0.7-0.5c-0.4-0.3-0.9-0.7-1.4-1.2c-0.5-0.4-0.9-0.9-1.3-1.1C105.5,92,105.1,91.9,105.1,91.9z"/>
		</g>
		<g>
			<path class="st7" d="M107.8,97.4c0,0-0.4,0-1.1-0.1c-0.6-0.1-1.4-0.5-2.2-0.7c-0.8-0.3-1.5-0.6-2.1-0.8c-0.6-0.2-1-0.3-1-0.3
				s0.4,0,1,0.1c0.6,0.1,1.5,0.3,2.2,0.6c0.8,0.3,1.5,0.7,2.1,0.9C107.4,97.3,107.8,97.4,107.8,97.4z"/>
		</g>
		<g>
			<path class="st7" d="M100.4,98.4c0,0,0.3,0.1,0.7,0.3c0.4,0.2,1,0.5,1.5,0.8c0.5,0.3,1.1,0.6,1.5,0.9c0.4,0.3,0.6,0.5,0.6,0.5
				s-0.3-0.1-0.8-0.2c-0.4-0.2-1-0.4-1.6-0.7c-0.5-0.3-1.1-0.7-1.4-1C100.6,98.6,100.4,98.4,100.4,98.4z"/>
		</g>
		<g>
			<path class="st7" d="M103.7,103.2c0,0-0.3,0.1-0.7,0.2c-0.4,0.1-0.9,0.3-1.5,0.4c-0.5,0.1-1.1,0.2-1.5,0.2c-0.4,0-0.7,0-0.7,0
				s0.2-0.1,0.6-0.3c0.4-0.2,0.9-0.3,1.5-0.4c0.6-0.1,1.1-0.1,1.5-0.1C103.5,103.2,103.7,103.2,103.7,103.2z"/>
		</g>
		<g>
			<path class="st8" d="M126.1,43.4c-0.6-1-1.1-2-1.6-3l-1.6-3l-3.1-6l0.1,0.2l-8.7-5.6l-0.2-0.1l0-0.2c-0.3-1.7-0.6-3.3-0.9-5
				l0.2,0.3l-4.5-3.5l-0.1-0.1l0-0.2l-0.4-3.2l0.2,0.3l-2.7-1.2l-0.2-0.1l0-0.2c0-1.3-0.1-2.6-0.1-3.8l0.1,0.1c-1-0.8-2-1.7-3-2.5
				c1.1,0.7,2.1,1.5,3.2,2.3l0.1,0l0,0.1c0.1,1.3,0.2,2.6,0.3,3.8l-0.2-0.2l2.7,1.1l0.2,0.1l0,0.2l0.5,3.2l-0.2-0.3l4.6,3.4l0.1,0.1
				l0,0.2c0.3,1.7,0.7,3.3,1,5l-0.2-0.3l8.6,5.7l0.1,0.1l0,0.1l2.8,6.1l1.4,3.1C125.2,41.3,125.7,42.3,126.1,43.4z"/>
		</g>
		<g>
			<path class="st8" d="M123.4,35c0,0,0.1,0,0.1,0.2c0,0.1,0.1,0.3,0,0.5c-0.1,0.4-0.4,0.7-0.6,1c-0.3,0.3-0.6,0.5-0.9,0.7
				c-0.3,0.1-0.6,0.2-0.6,0.2s0-0.3,0.2-0.6c0.1-0.3,0.4-0.7,0.6-1c0.2-0.1,0.3-0.3,0.5-0.4c0.2-0.1,0.3-0.2,0.4-0.3
				c0.1-0.1,0.2-0.1,0.3-0.2C123.4,35,123.4,35,123.4,35z"/>
		</g>
		<g>
			<path class="st8" d="M120.3,34.9c0,0,0-0.3,0.2-0.6c0.2-0.3,0.4-0.7,0.7-1c0.3-0.3,0.7-0.5,1-0.6c0.3-0.1,0.6-0.1,0.6-0.1
				s0,0.3-0.2,0.6c-0.2,0.3-0.4,0.7-0.7,1c-0.3,0.3-0.7,0.5-1,0.6C120.6,34.9,120.3,34.9,120.3,34.9z"/>
		</g>
		<g>
			<path class="st8" d="M120.8,29.2c0,0-0.1,0.4-0.3,0.9c-0.2,0.5-0.6,1.1-1,1.6c-0.5,0.5-1,1-1.5,1.2c-0.5,0.3-0.8,0.4-0.8,0.4
				s0.1-0.4,0.4-0.8c0.3-0.4,0.7-1,1.1-1.5c0.4-0.5,0.9-1,1.3-1.3C120.5,29.3,120.8,29.2,120.8,29.2z"/>
		</g>
		<g>
			<path class="st8" d="M114.8,32.6c0,0,0.1-0.4,0.2-0.8c0.2-0.5,0.4-1.1,0.7-1.6c0.3-0.6,0.6-1.1,0.9-1.5c0.3-0.4,0.5-0.7,0.5-0.7
				s0.1,0.4,0,0.9c0,0.5-0.2,1.2-0.5,1.8c-0.3,0.6-0.7,1.2-1.1,1.5C115.2,32.4,114.8,32.6,114.8,32.6z"/>
		</g>
		<g>
			<path class="st8" d="M115.1,26c0,0-0.1,0.3-0.3,0.7c-0.2,0.4-0.5,0.9-0.9,1.3c-0.4,0.4-0.9,0.8-1.3,1c-0.4,0.2-0.7,0.3-0.7,0.3
				s0.1-0.3,0.3-0.7c0.2-0.4,0.5-0.9,0.9-1.3c0.4-0.4,0.9-0.8,1.3-1C114.8,26.1,115.1,26,115.1,26z"/>
		</g>
		<g>
			<path class="st8" d="M110.3,28.1c0,0,0.1-0.4,0.3-0.9c0.2-0.5,0.5-1.2,0.8-1.8c0.3-0.6,0.7-1.2,1-1.7c0.3-0.4,0.6-0.7,0.6-0.7
				s0,0.4-0.1,0.9c-0.1,0.6-0.3,1.3-0.7,1.9c-0.4,0.6-0.8,1.2-1.2,1.6C110.7,27.9,110.3,28.1,110.3,28.1z"/>
		</g>
		<g>
			<path class="st8" d="M111.4,20.4c0,0,0,0.3-0.2,0.7c-0.2,0.4-0.5,0.9-1,1.2c-0.4,0.4-1,0.6-1.4,0.8c-0.4,0.1-0.7,0.1-0.7,0.1
				s0.2-0.3,0.4-0.6c0.3-0.3,0.7-0.7,1.1-1c0.4-0.3,0.8-0.6,1.2-0.9C111.1,20.5,111.4,20.4,111.4,20.4z"/>
		</g>
		<g>
			<path class="st8" d="M105.5,23c0,0,0.3-0.4,0.7-0.9c0.4-0.6,0.9-1.3,1.5-2.1c0.5-0.8,1.1-1.5,1.6-2c0.5-0.5,0.9-0.8,0.9-0.8
				s-0.1,0.5-0.4,1.1c-0.3,0.7-0.8,1.5-1.3,2.3c-0.6,0.8-1.3,1.5-1.9,1.9C106,22.9,105.5,23,105.5,23z"/>
		</g>
		<g>
			<path class="st8" d="M108.5,16.4c0,0-0.2,0.2-0.4,0.5c-0.3,0.3-0.6,0.5-1.1,0.8c-0.4,0.2-0.9,0.4-1.2,0.4
				c-0.4,0.1-0.7,0.1-0.7,0.1s0.1-0.3,0.4-0.6c0.2-0.3,0.6-0.6,1.1-0.8c0.4-0.2,0.9-0.4,1.3-0.4C108.2,16.3,108.5,16.4,108.5,16.4z"
				/>
		</g>
		<g>
			<path class="st8" d="M103.1,17.5c0,0,0.2-0.3,0.4-0.7c0.3-0.4,0.7-0.8,1.1-1.2c0.4-0.4,0.9-0.8,1.3-1c0.4-0.3,0.7-0.4,0.7-0.4
				s0,0.3-0.3,0.8c-0.2,0.4-0.6,0.9-1,1.4c-0.4,0.4-1,0.8-1.4,1C103.5,17.4,103.1,17.5,103.1,17.5z"/>
		</g>
		<g>
			<path class="st8" d="M105.6,11.2c0,0-0.2,0.3-0.6,0.7c-0.4,0.4-0.9,0.8-1.4,1.1c-0.6,0.3-1.2,0.6-1.7,0.7
				c-0.5,0.2-0.9,0.2-0.9,0.2s0.2-0.3,0.6-0.7c0.4-0.4,0.9-0.8,1.4-1.1c0.6-0.3,1.2-0.6,1.7-0.7C105.3,11.2,105.6,11.2,105.6,11.2z"
				/>
		</g>
		<g>
			<path class="st8" d="M101.3,10.7c0,0,0.1-0.3,0.3-0.6c0.2-0.3,0.5-0.7,0.9-1c0.4-0.3,0.8-0.6,1.2-0.7c0.4-0.2,0.7-0.2,0.7-0.2
				s-0.1,0.3-0.3,0.6c-0.2,0.3-0.5,0.7-0.9,1c-0.4,0.3-0.8,0.6-1.2,0.7C101.6,10.7,101.3,10.7,101.3,10.7z"/>
		</g>
		<g>
			<path class="st8" d="M102.6,7.2c0,0-0.1,0.3-0.3,0.5c-0.2,0.3-0.6,0.6-1,0.8c-0.4,0.2-0.8,0.3-1.2,0.4c-0.4,0-0.6,0-0.6,0
				s0.1-0.2,0.4-0.5c0.2-0.2,0.6-0.5,1-0.7c0.4-0.2,0.8-0.3,1.1-0.4C102.3,7.2,102.6,7.2,102.6,7.2z"/>
		</g>
		<g>
			<path class="st8" d="M122.5,129.8c-1.3,0.1-2.5,0.1-3.8,0.2c-1.3,0-2.5,0.1-3.8,0.1c-2.5,0-5,0.1-7.6,0.2l0.1,0l-4,1.4l-0.1,0
				l-0.1,0l-14.4-4.1l0.2,0c-7.5,0.6-15,1-22.5,1.5l-0.1,0l-0.1,0l-13.1-4.2l-13.1-4.3l0.1,0l-9.3-0.1l-9.3-0.2l9.3-0.2l9.3-0.1l0,0
				l0,0l13.2,4l13.1,4.1l-0.2,0c7.5-0.5,15-1.1,22.5-1.6l0.1,0l0.1,0l14.4,4.2l-0.3,0l4.1-1.4l0.1,0l0.1,0c2.5,0,5,0.1,7.6,0.2
				c1.3,0,2.5,0.1,3.8,0.1C120,129.7,121.3,129.8,122.5,129.8z"/>
		</g>
		<g>
			<path class="st9" d="M137.2,132.5"/>
		</g>
		<g>
			<path class="st9" d="M133.9,125.1"/>
		</g>
		<g>
			<path class="st9" d="M126.6,132.5"/>
		</g>
		<g>
			<path class="st9" d="M120.5,132.5"/>
		</g>
		<g>
			<path class="st9" d="M126.6,125.1"/>
		</g>
		<g>
			<path class="st8" d="M118.3,125.1c0,0,0,0.1,0,0.4c0,0.2,0.1,0.6,0.1,1c0.1,0.8,0.2,1.9,0.2,3c0,1.1,0,2.2-0.1,3.1
				c-0.1,0.8-0.2,1.4-0.2,1.4s-0.2-0.5-0.4-1.4c-0.2-0.8-0.3-2-0.3-3.1c0-1.1,0.1-2.3,0.2-3.1c0.1-0.4,0.2-0.8,0.3-1
				C118.2,125.2,118.3,125.1,118.3,125.1z"/>
		</g>
		<g>
			<path class="st8" d="M113.2,125.1c0,0,0.1,0.6,0,1.4c0,0.9-0.2,2-0.4,3.1c-0.2,1.1-0.5,2.2-0.8,3c-0.3,0.8-0.6,1.3-0.6,1.3
				s-0.1-0.6,0-1.4c0-0.9,0.2-2,0.4-3.1c0.2-1.1,0.5-2.2,0.8-3C112.9,125.6,113.2,125.1,113.2,125.1z"/>
		</g>
		<g>
			<path class="st8" d="M108.4,134c0,0-0.3-0.5-0.7-1.3c-0.4-0.8-0.9-1.9-1.2-3c-0.4-1.1-0.7-2.3-0.8-3.1c-0.2-0.9-0.2-1.5-0.2-1.5
				s0.3,0.5,0.7,1.3c0.4,0.8,0.9,1.9,1.2,3c0.4,1.1,0.7,2.3,0.8,3.1C108.4,133.4,108.4,134,108.4,134z"/>
		</g>
		<g>
			<path class="st8" d="M99.1,132.5c0,0-0.4-0.2-1-0.6c-0.6-0.4-1.3-1-1.9-1.7c-0.6-0.7-1.2-1.4-1.6-2c-0.4-0.6-0.6-1-0.6-1
				s0.4,0.2,1,0.6c0.6,0.4,1.3,1,1.9,1.7c0.6,0.7,1.2,1.4,1.6,2C98.9,132.1,99.1,132.5,99.1,132.5z"/>
		</g>
		<g>
			<path class="st8" d="M89,129.6c0,0-0.4-0.1-1-0.5c-0.6-0.3-1.3-0.8-2-1.4c-0.7-0.6-1.3-1.2-1.7-1.7c-0.4-0.5-0.7-0.9-0.7-0.9
				s0.4,0.1,1,0.5c0.6,0.3,1.3,0.8,2,1.4c0.7,0.6,1.3,1.2,1.7,1.7C88.8,129.1,89,129.6,89,129.6z"/>
		</g>
		<g>
			<path class="st8" d="M80.4,130.5c0,0-0.3-0.2-0.7-0.6c-0.4-0.4-0.8-1-1.2-1.6c-0.4-0.6-0.7-1.3-0.9-1.8c-0.2-0.5-0.2-0.9-0.2-0.9
				s0.3,0.2,0.7,0.6c0.4,0.4,0.8,1,1.2,1.6c0.4,0.6,0.7,1.3,0.9,1.8C80.4,130.1,80.4,130.5,80.4,130.5z"/>
		</g>
		<g>
			<path class="st8" d="M72.4,126.5c0,0-0.2,0.4-0.6,0.9c-0.4,0.5-1,1.1-1.6,1.6c-0.6,0.5-1.3,0.9-1.9,1.2c-0.6,0.3-1,0.4-1,0.4
				s0.2-0.4,0.6-0.9c0.4-0.5,1-1.1,1.6-1.6c0.6-0.5,1.3-0.9,1.9-1.2C72,126.6,72.4,126.5,72.4,126.5z"/>
		</g>
		<g>
			<path class="st8" d="M62.8,129.7c0,0-0.2-0.3-0.3-0.7c-0.1-0.4-0.2-1-0.2-1.6c0-0.6,0.1-1.2,0.2-1.6c0.1-0.4,0.3-0.7,0.3-0.7
				s0.2,0.3,0.3,0.7c0.1,0.4,0.2,1,0.2,1.6c0,0.6-0.1,1.2-0.2,1.6C62.9,129.4,62.8,129.7,62.8,129.7z"/>
		</g>
		<g>
			<path class="st8" d="M57.4,128.5c0,0-0.1-0.1-0.2-0.3c-0.1-0.2-0.3-0.4-0.6-0.8c-0.5-0.6-1.1-1.5-1.6-2.4c-0.5-0.9-1-1.9-1.3-2.6
				c-0.3-0.7-0.4-1.3-0.4-1.3s0.4,0.4,0.9,1c0.5,0.6,1.1,1.5,1.6,2.4c0.5,0.9,1,1.9,1.2,2.7c0.1,0.4,0.2,0.7,0.3,1
				C57.4,128.4,57.4,128.5,57.4,128.5z"/>
		</g>
		<g>
			<path class="st8" d="M44.8,126.8c0,0,0.1-0.1,0.2-0.4c0.1-0.2,0.2-0.6,0.4-0.9c0.4-0.8,0.9-1.8,1.5-2.7c0.6-1,1.2-1.9,1.8-2.5
				c0.5-0.7,1-1.1,1-1.1s-0.1,0.6-0.5,1.4c-0.3,0.8-0.8,1.8-1.4,2.8c-0.6,1-1.3,1.9-1.8,2.5c-0.3,0.3-0.5,0.6-0.7,0.8
				C44.9,126.8,44.8,126.8,44.8,126.8z"/>
		</g>
		<g>
			<path class="st8" d="M37.7,125.5c0,0-0.2-0.5-0.4-1.2c-0.3-0.7-0.6-1.6-0.9-2.6c-0.3-1-0.6-1.9-0.7-2.7c-0.2-0.8-0.2-1.3-0.2-1.3
				s0.4,0.4,0.7,1.1c0.4,0.7,0.8,1.6,1.1,2.6c0.1,0.5,0.3,1,0.4,1.5c0.1,0.5,0.1,0.9,0.2,1.3C37.9,125,37.7,125.5,37.7,125.5z"/>
		</g>
		<g>
			<path class="st8" d="M31.5,124.1C31.5,124.1,31.5,124,31.5,124.1c-0.1-0.1-0.1-0.2-0.1-0.2c-0.1-0.2-0.1-0.4-0.1-0.7
				c0-0.3,0-0.7,0-1c0-0.4,0.1-0.7,0.2-1.1c0.2-0.8,0.5-1.5,0.7-2c0.3-0.5,0.5-0.8,0.5-0.8s0.1,0.4,0,1c0,0.6-0.1,1.3-0.3,2.1
				c-0.2,0.7-0.4,1.5-0.6,2c-0.1,0.3-0.2,0.5-0.2,0.6C31.6,124,31.5,124.1,31.5,124.1z"/>
		</g>
		<path class="st10" d="M22.4,119.9c4.1-2.2,26.1-10.9,83.3,9.3c0.2,0.1-1.6,1.8-1.7,1.7c-10.7-2.3-63.7-14.3-81.3-10.1
			C22.5,120.9,22.3,120,22.4,119.9z"/>
		<path class="st11" d="M78.5,131.7c0,0,8.2,2,8.4,0c0.2-2,0.5-8.3,0.5-8.3l-7.9-1.7L78.5,131.7z"/>
		<path class="st11" d="M74.2,134.3c0,0-9.4,1.9-8.6,0c3.7-8.6,0-15.2,0-15.2l8.6,1.7V134.3z"/>
		<path class="st11" d="M50.5,123.6c0,0,7.9-0.9,11.1,0c1.3,0.4,0-5.4,0-5.4s-6.4-1.4-8.4-1.1C51.4,117.3,50.5,123.6,50.5,123.6z"/>
		<path class="st11" d="M37.6,126.4c0,0,10.3,2.1,9.3,0c-1.3-2.8,0-9.3,0-9.3s-7.1-0.7-9.3,0C35.3,117.8,37.6,126.4,37.6,126.4z"/>
		<g>
			<path class="st12" d="M28,31.4c0,0,4.7,5.2,11.9,6.7c7.2,1.5,14.1-1.4,14.1-1.4s-4.7-5.2-11.9-6.7S28,31.4,28,31.4z"/>
			<path class="st13" d="M37.8,32.2c0.5-1.9,2.9-3.1,5.1-2.7s3.7,2.4,3.2,4.4c-0.5,1.9-2.9,3.1-5.1,2.7S37.3,34.1,37.8,32.2z"/>
			<path d="M39.9,33.7c0.2-0.8,1.2-1.3,2.2-1.1s1.6,1,1.3,1.8c-0.2,0.8-1.2,1.3-2.2,1.1C40.3,35.3,39.7,34.5,39.9,33.7z"/>
			<path class="st14" d="M25.1,25.4c0,0,0.1-0.1,0.2-0.1c0,0,0.1,0,0.1,0l0.3-0.3l0.8,0.2l-2.1-1.2l3.5,1.4L27,24.7l0.6,0.3
				l-1.5-0.9l2.9,1.2l-0.6-0.4l1,0.4l-1-0.6l3.6,1.4c0,0,0,0,0,0l-1.4-0.8l1.7,0.7l-1.6-1l3.6,1.4c0.1,0,0.1,0,0.2,0.1L33,25.6
				l3.3,1.3L35,26l2.5,1.2L36,26.3l3,1.2l-0.8-0.5l2.8,1.4L38.9,27l2.5,1l-0.9-0.6l3.1,1.5l0.3,0.1l-2.3-1.4l2.1,0.8l-1.2-0.8
				l3.2,1.6c0.1,0.1,0.5,0.2,0.7,0.4l0.3,0.1l-2.3-1.4l2.6,1l-1.4-1l3.1,1.5l-1.7-1l2.6,1l-0.7-0.5l2.6,1.3l-2.2-1.3l2.3,0.9
				l-0.7-0.5l2.2,1.1c0,0,0,0,0,0l-1.7-1l2.8,1.1l-1.3-0.9l3,1.5l-2-1.1l3.1,1.2l1.4-0.1l-1.1,0.2l0.1,0c0.1,0,0.2,0.1,0.3,0.1
				l1.6-0.1L58,31.8c0.1,0.1,0.2,0.1,0.3,0.2l1.6,0.1l-1.4,0.1l0,0.2l1.3,0.1l-1.3,0.1l0.1,0.3l1.2,0.8l-0.8-0.4l1,0.6l-1.3-0.6
				l0,0.1l0.8,0.6l-0.8-0.4l0,0.2l0.6,0.4L58.7,34l0,0.3l1.2,0.8l-1.1-0.5l0,0.3l1,0.7l-1-0.4l0,0.1l0.5,0.7L59,35.5l0,0.1l0.1,0.3
				l0-0.1l0,0.1l-0.2,0.2l0.3,0.1l0.1,0.4l-0.4,0.1l0,0l-0.6-0.1l1,0.8l-1.6-0.9l-0.7-0.1l-3.9,0.1l1.1-0.2l-2.7,0l2.7-0.4l-0.5-0.1
				l-3.9,0.1l2.2-0.4l-0.6-0.1l-3.7,0.1l2.1-0.4L48.8,35L45.5,35l1.8-0.3l-4,0.1l2.3-0.4l-0.3-0.1l-4.4,0.1l2.5-0.4l-0.6-0.1
				l-3.7,0.1l2.1-0.4l-0.7-0.1L37,33.5l1.9-0.3L38.2,33l-2.9,0l1.6-0.3l-0.7-0.1l-3.6,0.1l2-0.3L34,32.3l-3.7,0.1l2.1-0.4l-0.7-0.1
				l-3.4,0.1l1.9-0.3l-0.3-0.1l-3.4,0.1l1.9-0.3l-0.2,0l-1.8,0l1-0.2l-0.2,0l-2.7,0.4l1.8-0.5l-0.8-0.1l-2.5,0.9l1.1-0.7l-1,0.2
				l-0.2-0.3c0,0,0.4,0.1,0.4,0c0-0.1-0.3-0.3-0.3-0.3l0.5,0l-0.2-0.2l0.4-0.1L23.4,30l0.4,0l-0.2-0.3c0.5-0.1,0.5-0.1,0.5-0.1
				l-0.6,0l0.6-0.4l-0.7,0.1c0,0,0.1-0.3,0.4-0.4s0.3-0.3,0.2-0.3c-0.1,0-0.1,0-0.1,0l0.3-0.2l-0.4-0.1l0.4-0.2L23.9,28
				c0.9-0.3,0.9-0.3,0.9-0.3L24,27.6l0.2,0l0.4-0.1c0,0-0.7,0-0.5-0.1c0.2-0.1,0.4-0.1,0.4-0.1l-0.8-0.1l0.4-0.1l0.3-0.1l0.5-0.2
				l-0.6-0.1l0.4-0.1l-0.6-0.2l0.4-0.1l-0.3-0.2L24.2,26l0.3-0.1l-0.4-0.1l0.6,0c0,0-0.8-0.4-0.6-0.3c0.1,0,0.4,0.1,0.6,0.1
				c0.2,0,0.4,0.1,0.4,0.1L25.1,25.4z"/>
		</g>
		<g>
			<path class="st15" d="M22.5,120.1c0,0-0.1,0.1-0.2-0.1c0-0.1,0.1-0.1,0.2-0.2c0.1-0.1,0.2-0.1,0.4-0.2c0.3-0.2,0.6-0.3,1-0.5
				c0.4-0.2,0.9-0.4,1.5-0.6c1.1-0.4,2.5-0.9,4.1-1.3c0.8-0.2,1.7-0.4,2.6-0.6c0.9-0.2,1.9-0.3,2.9-0.5c1-0.2,2.1-0.2,3.1-0.4
				c1.1-0.1,2.2-0.2,3.4-0.2c1.2,0,2.4-0.1,3.6-0.1c1.2,0,2.5,0,3.7,0.1c1.3,0,2.5,0.2,3.8,0.2c1.3,0.1,2.6,0.1,3.9,0.3
				c2.6,0.3,5.3,0.6,8,1.1c2.7,0.5,5.3,0.9,7.9,1.5c2.6,0.6,5.1,1.1,7.6,1.8c2.4,0.7,4.8,1.3,7,2c2.2,0.7,4.3,1.4,6.2,2
				c1,0.3,1.9,0.6,2.7,0.9c0.9,0.3,1.7,0.6,2.4,0.9c1.5,0.6,2.9,1.1,4,1.5c2.2,0.8,3.4,1.4,3.4,1.4s-1.3-0.3-3.6-1
				c-1.1-0.3-2.5-0.7-4.1-1.2c-1.6-0.5-3.3-1-5.3-1.5c-1.9-0.5-4-1.1-6.3-1.7c-2.2-0.6-4.6-1.1-7-1.7c-2.4-0.6-5-1.1-7.5-1.7
				c-2.6-0.6-5.2-1-7.8-1.5c-2.6-0.5-5.3-0.8-7.9-1.2c-1.3-0.2-2.6-0.3-3.9-0.4c-1.3-0.1-2.5-0.3-3.8-0.3c-2.5-0.1-4.9-0.3-7.2-0.2
				c-0.6,0-1.1,0-1.7,0c-0.6,0-1.1,0.1-1.6,0.1c-1.1,0.1-2.1,0.1-3.1,0.2c-1,0.1-1.9,0.2-2.8,0.3c-0.9,0.1-1.8,0.3-2.6,0.4
				c-1.6,0.3-3,0.6-4.1,0.9c-0.6,0.1-1.1,0.3-1.5,0.5c-0.4,0.1-0.8,0.3-1.1,0.4c-0.3,0.1-0.6,0.2-0.6,0.3
				C22.4,120.2,22.6,120.1,22.5,120.1z"/>
		</g>
		<path class="st16" d="M61.8,26.9c0,0-54,48.2-41.4,79.4c0,0,57-3.9,53.5-30.2s-18.1-3.9-18.1-3.9l0.7-2l-1.4,0.1l1.5-1.5l-2-5.2
			l6.4-4.8l-4.4-6.8l3.9-3.5L56,44.2l4.5-3l-2.2-2.6l2.2-5.2L59.9,32L61.8,26.9z"/>
		<g>
			<path class="st7" d="M61.8,26.9c-2.9,2.7-5.6,5.4-8.3,8.3c-2.7,2.8-5.3,5.7-7.9,8.7c-5.1,5.9-9.9,12.1-14.2,18.7
				c-4.2,6.6-8,13.5-10.4,20.9c-1.2,3.7-2,7.5-2.1,11.4c-0.1,3.9,0.4,7.7,1.9,11.3l-0.5-0.3c4-0.3,8.1-0.8,12.1-1.5
				c4-0.7,8-1.5,11.9-2.5c3.9-1,7.8-2.3,11.5-3.9c3.7-1.6,7.3-3.5,10.5-6c1.6-1.2,3-2.7,4.2-4.3c1.2-1.6,2.1-3.4,2.6-5.3
				c0.5-1.9,0.6-4,0.4-5.9c-0.2-2-0.6-4-1.1-6c-0.5-1.9-1.2-3.9-2.6-5.4c-0.7-0.7-1.5-1.3-2.5-1.5c-1-0.2-2,0-2.9,0.4
				c-1.9,0.8-3.4,2.1-4.9,3.6c-1.4,1.5-2.7,3-3.9,4.7c1.1-1.7,2.4-3.3,3.8-4.8c1.4-1.5,3-2.9,4.9-3.7c0.9-0.4,2-0.6,3.1-0.5
				c1.1,0.2,2,0.8,2.7,1.5c1.4,1.6,2.2,3.5,2.8,5.5c0.6,2,0.9,4,1.2,6c0.2,2.1,0.2,4.2-0.4,6.2c-0.5,2-1.5,3.9-2.7,5.6
				c-1.2,1.7-2.7,3.2-4.3,4.5c-3.2,2.6-6.9,4.6-10.6,6.2c-3.8,1.6-7.7,2.9-11.6,3.9c-4,1.1-8,1.9-12,2.6c-4,0.7-8.1,1.2-12.2,1.6
				l-0.4,0l-0.1-0.3c-1.5-3.7-2.1-7.8-1.9-11.7c0.2-4,1-7.9,2.2-11.6c2.4-7.5,6.2-14.5,10.6-21c4.4-6.5,9.2-12.7,14.4-18.6
				c2.6-2.9,5.3-5.8,8.1-8.6C56.1,32.3,58.9,29.5,61.8,26.9z"/>
		</g>
		<g>
			<polygon class="st17" points="56,71.9 56.5,70.2 56.6,70.3 55.4,70.3 55.3,70.3 55.4,70.2 56.6,68.8 56.6,68.9 54.5,63.8 
				54.5,63.7 54.6,63.6 61.1,58.6 61.1,58.9 56.7,52.2 56.6,52 56.7,51.9 60.6,48.3 60.6,48.7 56.1,44.2 56,44 56.2,43.8 60.7,40.8 
				60.6,41.1 58.5,38.5 58.4,38.4 58.5,38.3 60.7,33.1 60.7,33.2 60.1,32 60,31.9 60,31.9 62.1,26.8 60.2,32 60.2,31.9 60.9,33.1 
				60.9,33.1 60.9,33.2 58.8,38.4 58.7,38.3 60.9,40.9 61.1,41 60.9,41.2 56.4,44.2 56.5,43.9 60.9,48.4 61.1,48.5 60.9,48.7 
				57,52.2 57.1,51.9 61.5,58.7 61.6,58.9 61.4,59 54.7,63.8 54.8,63.7 56.8,68.9 56.8,68.9 56.7,69 55.5,70.3 55.4,70.2 56.6,70.2 
				56.6,70.2 56.6,70.2 			"/>
		</g>
		<ellipse class="st18" cx="41.2" cy="69.9" rx="3.6" ry="2"/>
		<ellipse class="st19" cx="32.8" cy="94.7" rx="1.6" ry="1.4"/>
		<ellipse class="st4" cx="37.7" cy="84.5" rx="3.1" ry="2.6"/>
		<ellipse class="st20" cx="52" cy="83.8" rx="2.4" ry="2"/>
		<g>
			<path class="st17" d="M61.1,38.9c0,0.1,0,0.3-0.1,0.4l0,0l-0.1,0c-0.3,0.2-0.6,0.3-1,0.4c-0.3,0.1-0.7,0.2-1.1,0.2
				c0.3-0.3,0.6-0.5,0.9-0.6c0.3-0.1,0.7-0.2,1.1-0.2l-0.1,0.1C60.9,39.1,61,39,61.1,38.9z"/>
		</g>
		<g>
			<path class="st17" d="M59.8,37c0,0-0.4,0.2-0.7,0.1c-0.3,0-0.7-0.3-0.7-0.4c0,0,0.4-0.2,0.7-0.1C59.5,36.6,59.9,36.9,59.8,37z"/>
		</g>
		<g>
			<path class="st17" d="M60.9,42.5c0,0-0.3,0.1-0.7,0.1c-0.4,0-1,0.1-1.5,0c-0.5-0.1-1.1-0.2-1.5-0.4c-0.4-0.1-0.6-0.3-0.6-0.3
				s0.3,0,0.7,0c0.4,0,0.9,0.1,1.5,0.1c0.5,0.1,1.1,0.2,1.5,0.2C60.6,42.5,60.9,42.5,60.9,42.5z"/>
		</g>
		<g>
			<path class="st17" d="M58.9,44.5c0,0,0,0.1,0,0.2c0,0.1-0.1,0.3-0.2,0.5c-0.3,0.4-0.8,0.7-1.3,0.9c-0.5,0.2-1.1,0.2-1.5,0.3
				c-0.4,0.1-0.7,0.1-0.7,0.1s0.2-0.2,0.6-0.4c0.4-0.2,0.9-0.4,1.4-0.5c0.5-0.2,1-0.4,1.3-0.6C58.8,44.8,58.9,44.5,58.9,44.5z"/>
		</g>
		<g>
			<path class="st17" d="M57.9,49.1c0,0,0.3,0.1,0.6,0.4c0.4,0.3,0.8,0.6,1.3,1c0.4,0.4,0.9,0.8,1.2,1.1c0.3,0.3,0.5,0.6,0.5,0.6
				s-0.3-0.1-0.7-0.3c-0.4-0.2-0.9-0.5-1.3-0.9c-0.5-0.4-0.9-0.8-1.1-1.1C58.1,49.3,57.9,49.1,57.9,49.1z"/>
		</g>
		<g>
			<path class="st17" d="M59.6,53.1c0,0,0,0.1-0.1,0.1c-0.1,0.1-0.1,0.2-0.3,0.3c-0.3,0.2-0.6,0.4-1,0.5c-0.4,0.1-0.8,0.2-1.1,0.3
				c-0.3,0-0.5,0-0.5,0s0.2-0.1,0.4-0.3c0.3-0.2,0.6-0.3,1-0.5c0.4-0.1,0.8-0.2,1.1-0.3C59.4,53.2,59.6,53.1,59.6,53.1z"/>
		</g>
		<g>
			<path class="st17" d="M57.1,57.2c0,0,0.3-0.1,0.7-0.2c0.4-0.1,0.9-0.2,1.5-0.3c0.5-0.1,1.1-0.3,1.5-0.4c0.4-0.1,0.7-0.2,0.7-0.2
				s-0.2,0.2-0.6,0.4c-0.4,0.2-0.9,0.5-1.5,0.6c-0.6,0.1-1.1,0.2-1.6,0.1C57.4,57.2,57.1,57.2,57.1,57.2z"/>
		</g>
		<g>
			<path class="st17" d="M60.9,61.6c0,0-0.3,0-0.7-0.1c-0.2-0.1-0.4-0.2-0.7-0.3c-0.2-0.1-0.5-0.2-0.7-0.3c-0.9-0.4-2.1-0.3-2.1-0.3
				s0.2-0.2,0.7-0.3c0.4-0.1,1-0.1,1.6,0.1c0.3,0.1,0.5,0.3,0.7,0.4c0.2,0.1,0.4,0.3,0.6,0.4C60.7,61.4,60.9,61.6,60.9,61.6z"/>
		</g>
		<g>
			<path class="st17" d="M57.4,63.2c0,0-0.2,0.1-0.5,0.1c-0.2,0-0.3,0-0.5-0.1c-0.2,0-0.4-0.1-0.6-0.2c-0.3-0.2-0.6-0.4-0.9-0.6
				c-0.2-0.2-0.4-0.3-0.4-0.3s0.2-0.1,0.5,0c0.3,0,0.7,0.2,1,0.4c0.2,0.1,0.3,0.2,0.5,0.2c0.1,0.1,0.3,0.1,0.4,0.2
				C57.2,63.2,57.4,63.2,57.4,63.2z"/>
		</g>
		<g>
			<path class="st17" d="M56.1,65c0,0-0.1,0.1-0.3,0.2c-0.2,0.1-0.4,0.2-0.6,0.2c-0.2,0-0.5,0-0.7-0.1c-0.2-0.1-0.3-0.1-0.3-0.1
				c0,0,0.5-0.3,0.9-0.3C55.6,64.8,56.1,65,56.1,65z"/>
		</g>
		<g>
			<path class="st17" d="M57.1,67.4c0,0-0.1,0.1-0.4,0.3c-0.3,0.1-0.6,0.3-1,0.4c-0.4,0.1-0.8,0.1-1.1,0c-0.3,0-0.5-0.1-0.5-0.1
				s0.2-0.1,0.5-0.2c0.3-0.1,0.6-0.2,1-0.2c0.4-0.1,0.7-0.1,1-0.2C56.9,67.4,57.1,67.4,57.1,67.4z"/>
		</g>
		<ellipse class="st21" cx="111.2" cy="30.2" rx="5.4" ry="4.7"/>
		<ellipse class="st22" cx="112" cy="30.1" rx="5.4" ry="4.7"/>
		<ellipse class="st23" cx="113" cy="30.1" rx="5.4" ry="6.8"/>
		<path class="st23" d="M120.5,30.1c0-3.7-2.4-6.6-5.4-6.8c-3-0.1-5.4,3-5.4,6.8s2.4,6.8,5.4,6.8S120.5,33.8,120.5,30.1z"/>
		<polygon class="st23" points="115.1,23.4 113,23.4 112.5,25.6 		"/>
		<rect x="113" y="35.8" class="st23" width="2.1" height="1"/>
		<path class="st24" d="M120.5,30.1c0-3.7-2.4-6.3-5.4-6.4c-3-0.1-5.4,2.7-5.4,6.4s2.4,6.4,5.4,6.4S120.5,33.8,120.5,30.1z"/>
		<g>
			<line class="st14" x1="104.6" y1="27.3" x2="105" y2="27.7"/>
			<path class="st12" d="M99.2,32c0,0-6.1,5.8-14.7,7c-8.6,1.2-16.6-2.7-16.6-2.7s6.1-5.8,14.7-7S99.2,32,99.2,32z"/>
			<path class="st25" d="M87.6,32.2c-0.4-2.3-3-3.9-5.8-3.6c-2.8,0.4-4.6,2.6-4.2,4.9c0.4,2.3,3,3.9,5.8,3.6
				C86.1,36.7,88,34.5,87.6,32.2z"/>
			<path d="M84.9,33.8c-0.2-1-1.3-1.6-2.4-1.5s-1.9,1.1-1.8,2.1c0.2,1,1.3,1.6,2.4,1.5C84.3,35.7,85.1,34.8,84.9,33.8z"/>
			<path class="st14" d="M103.3,25.1c0,0-0.1-0.1-0.2-0.1c0,0-0.1,0-0.1,0l-0.4-0.3l-0.9,0.1l2.6-1.3l-4.3,1.4l1.2-0.6l-0.8,0.3
				l1.9-0.9l-3.6,1.1l0.8-0.4l-1.2,0.4l1.2-0.6l-4.4,1.4c0,0,0,0,0,0l1.7-0.9l-2.1,0.7l2-1l-4.4,1.4c-0.1,0-0.2,0-0.3,0.1l1.9-1
				l-4,1.3l1.6-1l-3.1,1.3l1.9-1l-3.7,1.2l1-0.6l-3.5,1.4l2.8-1.4l-3.1,1l1.1-0.7L81,27.9l-0.4,0.1l2.9-1.4l-2.5,0.8l1.5-0.9l-4,1.6
				c-0.2,0.1-0.6,0.2-0.8,0.4l-0.4,0.1l2.9-1.4l-3.2,1l1.8-1.1L75,28.5l2.1-1.1l-3.2,1l0.9-0.6l-3.1,1.3l2.7-1.3l-2.8,0.9l0.9-0.5
				l-2.7,1.1c0,0,0,0,0,0l2.2-1.1l-3.4,1.1l1.7-1l-3.7,1.5l2.4-1.2l-3.8,1.2l-1.7-0.2l1.2,0.3l-0.1,0c-0.1,0-0.2,0-0.3,0.1l-1.9-0.2
				l1.4,0.4c-0.2,0.1-0.3,0.1-0.4,0.2l-1.9,0l1.7,0.3l-0.1,0.2l-1.6,0l1.5,0.2L63,31.5l-1.5,0.9l1-0.4l-1.2,0.7l1.6-0.6l0,0.1
				l-1,0.6l1-0.4l-0.1,0.3L62,33.1l0.7-0.2l-0.1,0.3L61.1,34l1.4-0.5l-0.1,0.3l-1.3,0.7l1.2-0.5l0,0.1l-1.8,1l1.7-0.7l0,0.1
				l-1.3,0.7l1.2-0.5l0,0.1l-1.8,1l1.7-0.7l-0.1,0.5l-1.5,0.9l2-0.7L63,36l-1.2,0.8l2-0.9l0.9-0.1l4.6,0.4L68,35.8l3.2,0.3l-3.1-0.7
				l0.6-0.1l4.6,0.4l-2.6-0.6l0.7-0.1l4.4,0.4l-2.5-0.6l0.9-0.1l3.9,0.3l-2-0.5l4.7,0.4l-2.7-0.6l0.4,0l5.2,0.4l-2.9-0.7l0.7-0.1
				l4.4,0.4l-2.4-0.6l0.9-0.1l4.1,0.3l-2.3-0.5l0.9-0.1l3.4,0.3L88.5,33l0.9-0.1l4.3,0.3l-2.4-0.6l0.8-0.1l4.4,0.4l-2.4-0.6l0.9-0.1
				l4,0.3l-2.2-0.5l0.4,0l4,0.3l-2.2-0.5l0.2,0l2.1,0.2l-1.2-0.3l0.2,0l3.2,0.6l-2.1-0.8l0.9-0.1l2.8,1.3l-1.3-0.9l1.1,0.3l0.3-0.4
				c0,0-0.5,0.1-0.4,0c0.1-0.1,0.3-0.3,0.3-0.3l-0.6,0l0.3-0.2l-0.5-0.2l0.5-0.3l-0.5-0.1l0.3-0.4c-0.6-0.2-0.6-0.2-0.6-0.2l0.8,0
				l-0.6-0.5l0.8,0.2c0,0-0.1-0.3-0.4-0.5c-0.3-0.2-0.3-0.4-0.2-0.4c0.1,0,0.1,0,0.1,0l-0.4-0.3l0.4-0.1l-0.5-0.3l0.4-0.1
				c-1-0.4-1-0.4-1-0.4l0.9-0.1l-0.3-0.1l-0.5-0.1c0,0,0.9,0,0.6-0.1c-0.3-0.1-0.5-0.2-0.5-0.2l1,0l-0.5-0.2l-0.3-0.1l-0.5-0.3
				l0.7-0.1l-0.5-0.1l0.7-0.1l-0.5-0.1l0.4-0.2l0.2-0.1l-0.4-0.1l0.5-0.1l-0.7,0c0,0,0.9-0.4,0.7-0.3c-0.1,0-0.4,0-0.7,0.1
				c-0.3,0-0.5,0-0.5,0L103.3,25.1z"/>
		</g>
		<path class="st26" d="M102.2,85.6l11.2-11.7c0.1-0.1,0.2-0.3,0.3-0.5L124.7,51c0.5-1.1-0.3-2.3-1.6-2.5l-0.5-0.1
			c-1.2-0.2-2.5,0-3.6,0.5l-2.8,1.2c-0.7,0.3-1.4,0.3-2.1,0l-2.8-1.3c0,0-0.1,0-0.1-0.1l-3.8-2.1c-0.3-0.1-0.5-0.2-0.8-0.3l0,0
			c-0.9-0.1-1.8,0.2-2.2,0.9l-7.3,10.6c-0.3,0.4-1.1,0.9-1,1.3l0.5,3c0.2,0.9,0.6,1.8-0.4,2.1l-4,1.3c-0.5,0.1-0.9,0.4-1.1,0.8
			L75.9,88.5l0.9,0.5l1.9,3.2c0.4,0.6,0.3,1.3-0.1,1.9l-3.4,4.3c-0.2,0.3-0.5,0.5-0.8,0.6l-7.3,3.2c-0.4,0.2-0.7,0.4-0.9,0.7l-2.1,3
			c-0.6,0.9-0.2,2.1,0.9,2.6l11.9,4.8c0.6,0.2,1.3,0.2,1.9,0l1.2-0.5c1.4-0.6,3,0.2,3.1,1.5l0.1,0.6c0.1,0.6,0.5,1.2,1.2,1.5l2.4,1
			c1.1,0.4,2.3,0.1,2.9-0.8l9.6-16.4c0.1-0.2,0.2-0.4,0.2-0.5l2.3-12.9C101.8,86.2,102,85.9,102.2,85.6z"/>
		<polygon class="st27" points="100.8,85.6 112.1,73.4 124.9,49.4 119.9,48.8 114.5,51.2 110.8,49.5 106.6,47.3 104.7,47 96.5,59.1 
			98,64.1 91.7,66.2 76.4,88.7 77.2,89.2 79.7,93.2 76.1,99.5 67.2,102.3 63.7,107.4 78.4,112.9 83.2,110.8 83.7,114.9 89.1,116.9 
			98.6,99 		"/>
		<polygon class="st28" points="99.5,85.9 110.8,73.2 123.5,51 118.8,50.4 113.8,52.7 110.2,51 106.3,49 104.5,48.8 97.6,59.5 
			99.3,65.1 92.3,67.3 77.5,88.7 78.3,89.2 80.4,93.5 76.9,100.4 68.1,103 65.4,106.9 79.2,112.1 83.8,110.1 84.2,114 88.6,115.6 
			97.3,99.4 		"/>
		<path class="st29" d="M71.7,105.9c-0.5-0.7-1.5-1-2.4-0.6s-1.2,1.3-0.8,2c0.5,0.7,1.5,1,2.4,0.6C71.8,107.5,72.2,106.6,71.7,105.9
			z"/>
		<g>
			<path class="st30" d="M70.8,107.7c0,0-0.2-0.1-0.3-0.3c-0.2-0.2-0.4-0.4-0.6-0.7c-0.2-0.3-0.3-0.6-0.4-0.8
				c-0.1-0.2-0.1-0.4-0.1-0.4s0.2,0.1,0.3,0.3c0.2,0.2,0.4,0.4,0.6,0.7c0.2,0.3,0.3,0.6,0.4,0.8C70.8,107.5,70.8,107.7,70.8,107.7z"
				/>
		</g>
		<g>
			<path class="st30" d="M71.2,106.1c0,0-0.1,0.1-0.3,0.3c-0.2,0.1-0.5,0.3-0.7,0.4c-0.3,0.1-0.6,0.2-0.8,0.2c-0.2,0-0.4,0-0.4,0
				s0.1-0.1,0.3-0.3c0.2-0.1,0.5-0.3,0.7-0.4c0.3-0.1,0.6-0.2,0.8-0.2C71.1,106.1,71.2,106.1,71.2,106.1z"/>
		</g>
		<path class="st29" d="M83.1,86.4c-0.5-0.7-1.5-1-2.4-0.6c-0.9,0.4-1.2,1.3-0.8,2c0.5,0.7,1.5,1,2.4,0.6S83.5,87.2,83.1,86.4z"/>
		<g>
			<path class="st30" d="M82.2,88.3c0,0-0.2-0.1-0.3-0.3c-0.2-0.2-0.4-0.4-0.6-0.7c-0.2-0.3-0.3-0.6-0.4-0.8
				c-0.1-0.2-0.1-0.4-0.1-0.4s0.2,0.1,0.3,0.3c0.2,0.2,0.4,0.4,0.6,0.7c0.2,0.3,0.3,0.6,0.4,0.8C82.2,88.1,82.2,88.3,82.2,88.3z"/>
		</g>
		<g>
			<path class="st30" d="M82.6,86.7c0,0-0.1,0.1-0.3,0.3c-0.2,0.1-0.5,0.3-0.7,0.4c-0.3,0.1-0.6,0.2-0.8,0.2c-0.2,0-0.4,0-0.4,0
				s0.1-0.1,0.3-0.3c0.2-0.1,0.5-0.3,0.7-0.4c0.3-0.1,0.6-0.2,0.8-0.2C82.4,86.6,82.6,86.7,82.6,86.7z"/>
		</g>
		<path class="st29" d="M88.6,108.2c-0.5-0.7-1.5-1-2.4-0.6c-0.9,0.4-1.2,1.3-0.8,2c0.5,0.7,1.5,1,2.4,0.6
			C88.8,109.9,89.1,109,88.6,108.2z"/>
		<g>
			<path class="st30" d="M87.8,110c0,0-0.2-0.1-0.3-0.3c-0.2-0.2-0.4-0.4-0.6-0.7c-0.2-0.3-0.3-0.6-0.4-0.8
				c-0.1-0.2-0.1-0.4-0.1-0.4s0.2,0.1,0.3,0.3c0.2,0.2,0.4,0.4,0.6,0.7c0.2,0.3,0.3,0.6,0.4,0.8C87.8,109.9,87.8,110,87.8,110z"/>
		</g>
		<g>
			<path class="st30" d="M88.2,108.4c0,0-0.1,0.1-0.3,0.3c-0.2,0.1-0.5,0.3-0.7,0.4c-0.3,0.1-0.6,0.2-0.8,0.2c-0.2,0-0.4,0-0.4,0
				s0.1-0.1,0.3-0.3c0.2-0.1,0.5-0.3,0.7-0.4c0.3-0.1,0.6-0.2,0.8-0.2C88,108.4,88.2,108.4,88.2,108.4z"/>
		</g>
		<path class="st29" d="M102.7,77.8c-0.5-0.7-1.5-1-2.4-0.6c-0.9,0.4-1.2,1.3-0.8,2c0.5,0.7,1.5,1,2.4,0.6
			C102.9,79.4,103.2,78.5,102.7,77.8z"/>
		<g>
			<path class="st30" d="M101.9,79.6c0,0-0.2-0.1-0.3-0.3c-0.2-0.2-0.4-0.4-0.6-0.7c-0.2-0.3-0.3-0.6-0.4-0.8
				c-0.1-0.2-0.1-0.4-0.1-0.4s0.2,0.1,0.3,0.3c0.2,0.2,0.4,0.4,0.6,0.7c0.2,0.3,0.3,0.6,0.4,0.8C101.9,79.4,101.9,79.6,101.9,79.6z"
				/>
		</g>
		<g>
			<path class="st30" d="M102.3,78c0,0-0.1,0.1-0.3,0.3c-0.2,0.1-0.5,0.3-0.7,0.4c-0.3,0.1-0.6,0.2-0.8,0.2c-0.2,0-0.4,0-0.4,0
				s0.1-0.1,0.3-0.3c0.2-0.1,0.5-0.3,0.7-0.4c0.3-0.1,0.6-0.2,0.8-0.2C102.1,77.9,102.3,78,102.3,78z"/>
		</g>
		<path class="st29" d="M115.9,59.7c-0.5-0.7-1.5-1-2.4-0.6c-0.9,0.4-1.2,1.3-0.8,2c0.5,0.7,1.5,1,2.4,0.6
			C116,61.4,116.4,60.5,115.9,59.7z"/>
		<g>
			<path class="st30" d="M115.1,61.6c0,0-0.2-0.1-0.3-0.3c-0.2-0.2-0.4-0.4-0.6-0.7c-0.2-0.3-0.3-0.6-0.4-0.8
				c-0.1-0.2-0.1-0.4-0.1-0.4s0.2,0.1,0.3,0.3c0.2,0.2,0.4,0.4,0.6,0.7c0.2,0.3,0.3,0.6,0.4,0.8C115,61.4,115.1,61.6,115.1,61.6z"/>
		</g>
		<g>
			<path class="st30" d="M115.5,59.9c0,0-0.1,0.1-0.3,0.3c-0.2,0.1-0.5,0.3-0.7,0.4c-0.3,0.1-0.6,0.2-0.8,0.2c-0.2,0-0.4,0-0.4,0
				s0.1-0.1,0.3-0.3c0.2-0.1,0.5-0.3,0.7-0.4c0.3-0.1,0.6-0.2,0.8-0.2C115.3,59.9,115.5,59.9,115.5,59.9z"/>
		</g>
		<path class="st29" d="M106.1,56.1c-0.5-0.7-1.5-1-2.4-0.6c-0.9,0.4-1.2,1.3-0.8,2c0.5,0.7,1.5,1,2.4,0.6
			C106.2,57.8,106.5,56.9,106.1,56.1z"/>
		<g>
			<path class="st30" d="M105.2,58c0,0-0.2-0.1-0.3-0.3c-0.2-0.2-0.4-0.4-0.6-0.7c-0.2-0.3-0.3-0.6-0.4-0.8
				c-0.1-0.2-0.1-0.4-0.1-0.4s0.2,0.1,0.3,0.3c0.2,0.2,0.4,0.4,0.6,0.7c0.2,0.3,0.3,0.6,0.4,0.8C105.2,57.8,105.2,58,105.2,58z"/>
		</g>
		<g>
			<path class="st30" d="M105.6,56.3c0,0-0.1,0.1-0.3,0.3c-0.2,0.1-0.5,0.3-0.7,0.4c-0.3,0.1-0.6,0.2-0.8,0.2c-0.2,0-0.4,0-0.4,0
				s0.1-0.1,0.3-0.3c0.2-0.1,0.5-0.3,0.7-0.4c0.3-0.1,0.6-0.2,0.8-0.2C105.5,56.3,105.6,56.3,105.6,56.3z"/>
		</g>
		<g>
			<path class="st31" d="M94.4,84.2l1-2.1l0.2,0.4l-4.4-0.7l-0.2,0l0-0.2l0.3-3l0.3,0.3l-2.1,0.5l0,0l-0.1,0l-3-0.5l-0.2,0l0-0.2
				l-0.1-0.9c-0.1-0.3-0.1-0.6-0.1-1c0-0.6-0.1-1.3-0.1-1.9c0.2,0.6,0.3,1.2,0.5,1.9c0.1,0.3,0.1,0.6,0.2,0.9l0.1,0.9l-0.2-0.2
				l3,0.5l-0.1,0l2.1-0.5l0.3-0.1l0,0.4l-0.3,3l-0.2-0.3l4.4,0.7l0.4,0.1l-0.2,0.3L94.4,84.2z"/>
		</g>
	</g>
</g>
</svg>
