<?xml version="1.0" encoding="utf-8"?>
<!-- Generator: Adobe Illustrator 19.1.0, SVG Export Plug-In . SVG Version: 6.00 Build 0)  -->
<svg version="1.1" xmlns="http://www.w3.org/2000/svg" xmlns:xlink="http://www.w3.org/1999/xlink" x="0px" y="0px"
	 viewBox="0 0 145.1 171" style="enable-background:new 0 0 145.1 171;" xml:space="preserve">
<style type="text/css">
	.st0{fill:#561F1F;}
	.st1{fill:#608C91;}
	.st2{fill:#C6C470;stroke:#969659;stroke-miterlimit:10;}
	.st3{fill:#A1DCE9;}
	.st4{fill:#4E8282;}
	.st5{fill:#A1DCE9;stroke:#4E8282;stroke-miterlimit:10;}
	.st6{fill:#86C0C6;}
	.st7{fill:#FDFDFE;}
	.st8{fill:#7CD0DF;}
	.st9{fill:#020202;}
	.st10{fill:none;stroke:#79A6A8;stroke-width:2;stroke-miterlimit:10;}
	.st11{fill:#446568;}
	.st12{fill:#79B2B1;}
	.st13{fill:#1D8782;}
	.st14{fill:#3C7982;}
	.st15{fill:#425C5F;}
	.st16{fill:#4B7A77;stroke:#182D2C;stroke-width:0.5;stroke-miterlimit:10;}
	.st17{fill:#182D2C;}
	.st18{fill:#4B7A77;}
	.st19{fill:#5E9691;}
	.st20{fill:#425453;}
</style>
<g id="head">
</g>
<g id="sideburn2">
</g>
<g id="Layer_2">
</g>
<g id="Layer_14">
</g>
<g id="Layer_3">
</g>
<g id="Layer_5">
</g>
<g id="ear">
	<path class="st0" d="M0-135.3"/>
</g>
<g id="teeth">
</g>
<g id="Layer_8">
	<g id="Layer_14_1_">
	</g>
</g>
<g id="Layer_9">
</g>
<g id="hair">
</g>
<g id="Layer_10">
</g>
<g id="eye2">
</g>
<g id="jaaw">
</g>
<g id="outline">
</g>
<g id="nose">
</g>
<g id="eye1">
</g>
<g id="wrinkles">
</g>
<g id="Layer_4">
</g>
<g id="Layer_7">
</g>
<g id="hair_1_">
</g>
<g id="scars">
</g>
<g id="Layer_19">
</g>
<g id="Layer_12">
</g>
<g id="Layer_11">
</g>
<g id="Layer_15">
</g>
<g id="Layer_13">
</g>
<g id="Layer_16">
</g>
<g id="Layer_21">
	<path class="st1" d="M12.7,67.4C8.3,173,138.6,186.4,122.5,140.5c-1.5-4.2-2.9-11.2-4.3-11.1c-1,0.1-2.2-3.8-1-5.5
		c0.1-0.1,0.1-0.2,0-0.3c-14.2-47.9,5.6-34.9,13.9-56.3c0.8-2,4.1-6.2,5.2-12c0.9-5.1,1.5-5.1,1.4-8.4c-1.4-38.5-20.8-42-57.4-42
		S14.9,17.2,12.7,67.4z"/>
</g>
<g id="Layer_24">
	<path d="M116.8,125.2c0,0-41.7-9.9-52.3,1.6c-8.6,9.3,53.7,2.6,53.7,2.6l-0.8-2.4L116.8,125.2z"/>
	<g id="Layer_26">
		<path class="st2" d="M75.3,138.9c0,0,0.7-8.7,0-11.3c-0.7-2.6,7.9,0,7.9,0s-1.1,11.8-0.7,12.4C82.9,140.6,75.8,142.3,75.3,138.9z"
			/>
		<path class="st2" d="M107.9,140.6c0,0,0.7-8.7,0-11.3s7-2.6,7-2.6s-0.1,14.4,0.3,15C115.6,142.2,108.5,143.9,107.9,140.6z"/>
		<path class="st2" d="M88.5,140.2c0,0-1.2-11.3,0.9-12c4.9-1.6,8.5,1.2,8.5,1.2s-2.1,12.4-1.7,13.1
			C96.5,143.2,88.8,143.8,88.5,140.2z"/>
		<path class="st2" d="M109.3,113.2c0,0,5,10.9,1,11.9c-2.8,0.7-5.1,2.2-6.6,2.3c-1,0.1-1.8-0.9-1.8-2.3c0-3.7-0.1-11.5-0.4-11.9
			C101.1,112.8,108.4,109.8,109.3,113.2z"/>
		<path class="st2" d="M87.9,116.1c0,0,2.8,11.9-0.8,10.7c-2.6-0.9-4.4-1.6-5.7-2.3c-0.8-0.4-3.4-1-3-2.1c1-3.1,3.1-9.8,2.9-10.3
			C81,111.5,88.1,112.8,87.9,116.1z"/>
		<path class="st2" d="M98.7,117.5c0,0,1.1,10.2-2.1,9.1c-2.2-0.7-4.2-0.7-5.4-1.2c-0.7-0.4-1.1-1.5-0.8-2.5
			c0.9-2.7,2.7-8.4,2.5-8.9C92.8,113.5,98.9,114.6,98.7,117.5z"/>
	</g>
	<path class="st3" d="M79.8,7.4C44.6,7.4,17.1,20.7,15,68.3c-4.3,99.9,121.1,112.6,105.6,69.2c-0.9-2.4-2.4-4.3-3.2-6.5
		c-0.1-0.4-0.8-0.6-0.9-1l1.3-0.6c0,0-62,7.1-53.4-2.2c10.6-11.4,52-2,52-2l0.1,0.4c-0.2-0.6,0.6-1.4,0.4-2
		c-14.4-46.8,3.8-34.9,11.9-55.4c1-2.5,3.5-3.5,4.6-10.4c0.5-3.1,2.8-3.2,2.8-5.3C136.3,4.9,115.1,7.4,79.8,7.4z"/>
	<g>
		<path class="st3" d="M75.1,138.1c-1-1.6-2.8-1.8-4.4-1.5c-1.6,0.2-3.2,0.7-4.6-0.1c-0.4-0.2-0.7-0.5-1.1-0.7
			c-1-0.5-2.1-0.2-3.2-0.2c-1.1,0-2.3-0.5-2.6-1.9c-0.2-1,0-2,0-3s-0.5-2.3-1.3-2"/>
		<path class="st4" d="M75.1,138.1c0,0-0.1-0.1-0.2-0.2c-0.1-0.1-0.3-0.3-0.5-0.5c-0.5-0.4-1.3-0.7-2.4-0.6c-0.5,0-1.1,0.1-1.7,0.3
			c-0.6,0.1-1.3,0.3-2,0.3c-0.7,0.1-1.6,0-2.3-0.4c-0.7-0.4-1.2-0.9-1.8-0.9c-0.6-0.1-1.3,0-2.1,0c-0.8,0-1.6-0.2-2.3-0.7
			c-0.7-0.5-1-1.3-1.1-2c-0.1-0.7,0-1.3,0.1-1.8c0.1-0.5,0.2-1,0.1-1.4c0-0.4-0.1-0.8-0.3-1.1c-0.1-0.3-0.3-0.4-0.5-0.5
			c-0.2,0-0.3,0-0.3,0c0,0,0.1-0.1,0.3-0.1c0.2,0,0.4,0.1,0.7,0.4c0.2,0.3,0.4,0.6,0.5,1.1c0.1,0.5,0.1,1,0.1,1.5
			c0,0.5,0,1.1,0.1,1.7c0.1,0.6,0.4,1,0.8,1.4c0.5,0.3,1.1,0.5,1.7,0.4c0.7,0,1.4-0.2,2.3,0c0.9,0.1,1.5,0.8,2.1,1
			c0.5,0.3,1.2,0.4,1.8,0.4c0.6,0,1.3-0.1,1.9-0.2c0.6-0.1,1.3-0.1,1.8-0.1c1.2,0.1,2.1,0.6,2.5,1.1c0.2,0.2,0.4,0.5,0.5,0.6
			C75,138,75.1,138.1,75.1,138.1z"/>
	</g>
</g>
<g id="Layer_22">
	<g>
		<path class="st3" d="M114,76.2c4.2,2,6.5,8.4,7.4,14.5c0.2,1.7,2.2,5.1,2,6.9c-0.5,4-3.3,8.8-6.2,10c-2.9,1.2-6.2-0.8-9.2-1.4
			c-1.2-0.3-2.2-1.8-3.2-2.7c-1-0.9-0.4-2.4-0.1-4c-0.9,2.2-2.8,2.4-4.6,2.3c-1.8-0.1-3.2,0-4-2.2c-0.7-2.1-1.6-4.5-1.1-6.7
			c1.2-5.1,1.9-1.6,3.2-3.3c1-1.3,2.7-1.7,4.1-1.8"/>
		<path class="st4" d="M114,76.2c2.1,0.9,3.6,2.8,4.7,4.8c1.1,2,1.8,4.2,2.4,6.4c0.3,1.1,0.5,2.2,0.7,3.3c0.2,1,0.7,2.1,1.1,3.1
			c0.4,1.1,0.9,2.1,0.9,3.4c-0.1,1.2-0.4,2.3-0.7,3.4c-0.8,2.2-1.9,4.2-3.6,5.9c-0.4,0.4-0.9,0.8-1.4,1.1c-0.3,0.1-0.5,0.3-0.8,0.4
			c-0.2,0.1-0.6,0.2-0.9,0.2c-1.2,0.2-2.4,0-3.5-0.2c-1.1-0.3-2.2-0.7-3.3-1c-0.5-0.2-1-0.3-1.6-0.4c-0.7-0.2-1.2-0.6-1.6-1
			c-0.4-0.4-0.8-0.9-1.2-1.3c-0.2-0.2-0.3-0.4-0.6-0.6c-0.1-0.1-0.2-0.2-0.3-0.4c-0.1-0.2-0.2-0.3-0.2-0.5c-0.2-0.7-0.1-1.3,0-1.9
			c0.1-0.6,0.3-1.1,0.4-1.7l0.9,0.3c-0.2,0.6-0.6,1.1-1.1,1.6c-0.5,0.4-1.1,0.7-1.7,0.8c-0.6,0.1-1.2,0.2-1.8,0.2
			c-0.6,0-1.1,0-1.7-0.1c-0.6-0.1-1.2-0.2-1.8-0.6c-0.6-0.4-0.9-1-1.1-1.5c-0.2-0.6-0.4-1.1-0.6-1.7c-0.2-0.6-0.3-1.1-0.5-1.7
			c-0.3-1.1-0.4-2.3-0.2-3.5c0.1-0.6,0.3-1.1,0.4-1.7c0.2-0.5,0.4-1.1,0.9-1.6c0.3-0.3,0.7-0.2,1-0.1c0.3,0.1,0.5,0.1,0.7,0
			c0.2-0.1,0.4-0.4,0.6-0.6c0.2-0.2,0.4-0.4,0.7-0.6c1-0.7,2.2-0.9,3.3-0.9c-1.1,0.1-2.3,0.4-3.2,1.1c-0.2,0.2-0.4,0.4-0.6,0.6
			c-0.2,0.2-0.3,0.5-0.6,0.7c-0.3,0.2-0.7,0.2-1,0.1c-0.3-0.1-0.5-0.1-0.6,0c-0.3,0.3-0.5,0.9-0.7,1.4c-0.2,0.5-0.3,1.1-0.4,1.6
			c-0.2,1.1,0,2.2,0.2,3.3c0.1,0.5,0.3,1.1,0.5,1.6c0.2,0.5,0.4,1.1,0.6,1.6c0.2,0.5,0.5,0.9,0.9,1.2c0.4,0.3,0.9,0.4,1.4,0.4
			c0.5,0,1.1,0.1,1.7,0.1c0.6,0,1.1,0,1.6-0.2c0.5-0.1,1-0.3,1.3-0.7c0.4-0.3,0.6-0.8,0.8-1.2l0.9,0.3c-0.2,1.1-0.6,2.2-0.4,3.1
			c0.1,0.4,0.5,0.7,0.9,1.1c0.4,0.4,0.8,0.8,1.1,1.2c0.4,0.4,0.8,0.7,1.2,0.8c0.5,0.1,1.1,0.3,1.6,0.4c1.1,0.3,2.1,0.7,3.2,1
			c1.1,0.3,2.1,0.4,3.1,0.3l0.4-0.1c0.1,0,0.3-0.1,0.4-0.1c0.2-0.1,0.5-0.2,0.7-0.3c0.4-0.3,0.9-0.6,1.3-1c1.6-1.5,2.7-3.5,3.4-5.5
			c0.4-1,0.7-2.1,0.8-3.1c0-1-0.5-2.1-0.8-3.1c-0.4-1.1-0.8-2.1-1.1-3.3c-0.2-1.1-0.3-2.2-0.6-3.3c-0.5-2.2-1.1-4.3-2.1-6.3
			C117.4,79.1,116,77.2,114,76.2z"/>
	</g>
</g>
<g id="Layer_23">
	<path class="st5" d="M133.6,33.2"/>
	<path class="st6" d="M133.6,55.1c0,0-13.5,4.7-34.2-1.9c-1.3-0.4-2.7-0.4-3.9,0.5c-6,4.5-16.2,10.7-48.2,3.4
		c0,0,23.4,34.5,46.3,16.9c3-2.3,6.1-3.9,10.1-1.5C112.8,77.8,123.6,65.1,133.6,55.1z"/>
	<g id="Layer_25">
		<g>
			<path class="st1" d="M100.7,54.4c0,0,7.1,16,13.5,16s12.5-13.6,12.5-13.6s-6.2-2.7-12.6-2.7S100.7,54.4,100.7,54.4z"/>
			<path class="st7" d="M104.8,56.8c0,0,3.9,5.4,8.8,5.4s10-4.4,10-4.4s-5.1-1.5-10-1.5S104.8,56.8,104.8,56.8z"/>
			<ellipse class="st8" cx="113.6" cy="57.2" rx="1.5" ry="2.8"/>
			<ellipse class="st9" cx="113.6" cy="57.2" rx="0.5" ry="1"/>
			<path class="st10" d="M102.3,55.4c0,0,5,7.8,11.4,7.8s11.6-5.9,11.6-5.9s-5.2-1.9-11.6-1.9S102.3,55.4,102.3,55.4z"/>
		</g>
		<g>
			<path class="st1" d="M95.3,54.4c0,0-8.1,22.7-15,22.7c-7,0-14.2-14.6-14.2-14.6s7.4-1.4,14.3-3.1C87.3,57.7,95.3,54.4,95.3,54.4z
				"/>
			<path class="st7" d="M90.2,59.8c0,0-4.1,8.5-9.3,8.5s-10.8-4.8-10.8-4.8s5.5-1.6,10.8-1.6S90.2,59.8,90.2,59.8z"/>
			<ellipse class="st8" cx="80.9" cy="62.8" rx="1.7" ry="3.1"/>
			<ellipse class="st9" cx="80.9" cy="62.8" rx="0.6" ry="1.1"/>
			<path class="st10" d="M93.2,56.3c0,0-5.4,13-12.3,13c-7,0-12.6-6.4-12.6-6.4s5.6-2,12.6-2C87.9,60.8,93.2,56.3,93.2,56.3z"/>
		</g>
	</g>
	<g>
		<path class="st4" d="M133.5,55.5c0,0-1.3,0.6-3.7,1.2c-2.4,0.5-6,1.1-10.3,1c-4.3-0.1-9.3-0.8-14.5-2.4c-1.3-0.4-2.6-0.9-3.9-1.4
			c-0.6-0.3-1.3-0.5-1.9-0.8c-0.5-0.2-1-0.3-1.5-0.2c-0.5,0.1-1,0.3-1.5,0.7c-0.6,0.4-1.2,0.8-1.8,1.2c-1.2,0.8-2.4,1.6-3.7,2.3
			c-2.5,1.4-5.2,2.6-7.8,3.6c-2.7,1-5.4,1.6-8.1,2.1c-2.7,0.4-5.3,0.6-7.8,0.5c-2.5-0.1-4.8-0.4-6.9-0.9c-1.1-0.2-2.1-0.5-3-0.8
			c-0.9-0.3-1.8-0.6-2.6-0.9c-0.8-0.3-1.6-0.6-2.2-1c-0.7-0.3-1.3-0.6-1.9-0.9c-1.1-0.6-1.9-1.1-2.5-1.4C47.3,57,47,56.9,47,56.9
			s0.3,0.2,0.9,0.4c0.3,0.1,0.7,0.3,1.1,0.5c0.4,0.2,1,0.4,1.5,0.7c0.6,0.3,1.2,0.5,1.9,0.7c0.7,0.3,1.5,0.5,2.3,0.8
			c1.6,0.5,3.5,1,5.6,1.3c2.1,0.3,4.3,0.5,6.7,0.5c2.4,0,4.9-0.3,7.5-0.7c5.1-1,10.4-2.9,15.3-5.7c1.2-0.7,2.4-1.4,3.6-2.2
			c0.6-0.4,1.1-0.8,1.7-1.2c0.6-0.5,1.5-0.9,2.3-1c0.9-0.1,1.8,0,2.5,0.3c0.6,0.3,1.3,0.6,1.9,0.8c1.2,0.5,2.5,1,3.7,1.4
			c5,1.7,9.8,2.6,14,2.9c4.2,0.3,7.7,0.1,10.2-0.3C132.1,55.9,133.5,55.5,133.5,55.5z"/>
	</g>
	<path class="st3" d="M46.7,52.7l37.7-26.5l48.9,29.4c0,0-22.3,5-34-6.6c-1.1-1.1-2.7-0.4-3.9,0.5c-6,4.5-26.2,22.5-48.7,4.1"/>
	<g>
		<path class="st11" d="M116.5,125.2c0,0-1.7-0.4-4.7-0.9c-3-0.5-7.3-1.2-12.5-1.8c-5.2-0.6-11.3-1-17.7-0.8
			c-3.2,0.1-6.6,0.5-9.8,1.4c-1.6,0.5-3.2,1-4.6,1.9c-0.4,0.2-0.7,0.5-1,0.7c-0.2,0.1-0.3,0.2-0.5,0.4l-0.5,0.4l-0.5,0.4
			c-0.1,0.1-0.3,0.3-0.4,0.5c-0.2,0.3-0.4,0.6-0.4,0.9c0,0.5,0.7,1,1.4,1.3c0.7,0.3,1.6,0.5,2.4,0.7c1.7,0.3,3.4,0.5,5.1,0.6
			c3.4,0.2,6.8,0.3,10,0.2c6.5-0.1,12.6-0.3,17.8-0.7c5.2-0.3,9.5-0.6,12.6-0.8c3-0.2,4.8-0.4,4.8-0.4s-1.7,0.2-4.8,0.6
			c-3,0.3-7.4,0.8-12.6,1.2c-5.2,0.4-11.3,0.8-17.8,1c-3.3,0.1-6.7,0-10.1-0.2c-1.7-0.1-3.5-0.3-5.2-0.6c-0.9-0.2-1.7-0.4-2.6-0.7
			c-0.4-0.2-0.9-0.4-1.3-0.7c-0.4-0.3-0.8-0.9-0.8-1.5c0-0.6,0.3-1.1,0.6-1.5c0.2-0.2,0.2-0.3,0.5-0.5l0.5-0.5l0.5-0.5
			c0.2-0.1,0.4-0.3,0.5-0.4c0.4-0.3,0.7-0.5,1.1-0.7c1.5-0.9,3.2-1.5,4.9-2c3.4-0.9,6.8-1.3,10-1.4c3.3-0.1,6.5,0,9.4,0.2
			c3,0.2,5.8,0.5,8.4,0.9c5.2,0.7,9.5,1.5,12.4,2.2C114.8,124.8,116.5,125.2,116.5,125.2z"/>
	</g>
	<g>
		<path class="st3" d="M121.4,140.1c0,0,0-25.4-26.5,2.4"/>
		<path class="st4" d="M121.4,140.1c0,0,0-0.6-0.2-1.6c-0.2-1-0.5-2.5-1.1-4.1c-0.3-0.8-0.8-1.6-1.4-2.4c-0.6-0.7-1.4-1.4-2.4-1.7
			c-1-0.3-2.1-0.4-3.2-0.2c-1.1,0.2-2.2,0.5-3.2,1c-0.5,0.2-1.1,0.5-1.6,0.8c-0.5,0.3-1,0.6-1.5,0.9c-1,0.6-1.9,1.3-2.8,1.9
			c-0.9,0.7-1.7,1.3-2.5,2c-0.8,0.7-1.5,1.2-2.2,1.9c-0.7,0.6-1.3,1.1-1.8,1.6c-0.5,0.5-1,0.9-1.4,1.3c-0.8,0.7-1.2,1.1-1.2,1.1
			s0.4-0.4,1.1-1.2c0.7-0.8,1.7-1.9,2.9-3.2c0.6-0.6,1.3-1.3,2.1-2c0.7-0.7,1.6-1.4,2.4-2.1c0.9-0.7,1.8-1.4,2.8-2
			c0.5-0.3,1-0.6,1.5-0.9c0.5-0.3,1.1-0.6,1.6-0.8c1.1-0.5,2.3-0.9,3.5-1.1c1.2-0.2,2.5-0.1,3.6,0.4c1.1,0.4,2,1.2,2.7,2.1
			c0.6,0.9,1.1,1.8,1.4,2.6c0.6,1.7,0.7,3.2,0.8,4.3C121.4,139.5,121.4,140.1,121.4,140.1z"/>
	</g>
	<ellipse class="st12" cx="104.1" cy="143" rx="0.9" ry="1.2"/>
	<ellipse class="st13" cx="110.7" cy="148.6" rx="1.1" ry="1.5"/>
	<ellipse class="st14" cx="112.1" cy="141" rx="1.3" ry="1.7"/>
	<ellipse class="st15" cx="116.5" cy="143" rx="0.6" ry="0.8"/>
	<g>
		<path class="st4" d="M54.7,49.2c0,0,0.2,0.2,0.7,0.5c0.5,0.3,1.2,0.7,2.2,1c1,0.4,2.2,0.7,3.6,0.9c1.4,0.3,3,0.6,4.7,0.9
			c1.7,0.2,3.6,0.4,5.6,0.1c2-0.3,4-0.9,6-1.6c4.1-1.5,8.3-3.8,12.9-5.2c2.3-0.6,4.8-1,7.2-0.7c0.3,0,0.6,0.1,0.9,0.1
			c0.3,0.1,0.6,0.1,0.9,0.2c0.6,0.1,1.1,0.3,1.7,0.5c1.1,0.4,2.1,0.8,3.2,1.3c2,1,3.9,2,5.7,2.8c1.8,0.8,3.7,1.3,5.4,1.6
			c1.7,0.3,3.3,0.4,4.8,0.4c1.4,0,2.7-0.3,3.6-0.7c0.9-0.4,1.6-0.9,2-1.2c0.2-0.2,0.4-0.3,0.5-0.4c0.1-0.1,0.2-0.2,0.2-0.2
			s0,0.1-0.1,0.2c-0.1,0.1-0.2,0.3-0.4,0.5c-0.4,0.4-1,0.9-2,1.4c-1,0.4-2.2,0.8-3.7,0.9c-1.4,0.1-3.1,0.1-4.9-0.2
			c-1.8-0.3-3.7-0.8-5.6-1.5c-1.9-0.8-3.8-1.7-5.8-2.7c-2-0.9-4.1-1.8-6.3-2c-2.2-0.3-4.6,0.1-6.8,0.7c-4.5,1.2-8.7,3.5-12.9,5
			c-2.1,0.8-4.2,1.3-6.3,1.6c-2,0.3-4,0-5.8-0.3c-1.8-0.3-3.3-0.7-4.7-1.1c-1.4-0.4-2.6-0.7-3.6-1.1c-1-0.4-1.7-0.8-2.1-1.2
			C55,49.4,54.7,49.2,54.7,49.2z"/>
	</g>
	<g>
		<path class="st4" d="M56.8,43.9c0,0,0.2,0.2,0.7,0.5c0.2,0.1,0.5,0.4,0.8,0.5c0.3,0.2,0.7,0.4,1.1,0.6c0.4,0.2,0.9,0.4,1.5,0.6
			c0.6,0.2,1.2,0.4,1.8,0.5c1.3,0.3,2.9,0.4,4.5,0.3c3.3-0.2,7.1-1.3,11-2.9c3.9-1.6,7.9-3.7,12.3-5.1c2.2-0.7,4.5-1.2,6.7-1.2
			c2.3-0.1,4.5,0.3,6.6,1.1c2,0.8,3.8,1.9,5.5,2.9c1.7,1,3.3,1.8,4.9,2.3c1.6,0.5,3.1,0.6,4.4,0.4c1.3-0.2,2.4-0.7,3.2-1.3
			c0.8-0.6,1.3-1.2,1.6-1.6c0.3-0.4,0.5-0.7,0.5-0.7s-0.1,0.2-0.4,0.7c-0.3,0.4-0.8,1.1-1.6,1.7c-0.8,0.6-1.9,1.2-3.3,1.5
			c-1.4,0.3-3,0.2-4.7-0.2c-1.7-0.5-3.3-1.3-5-2.2c-1.7-0.9-3.5-1.9-5.4-2.7c-2-0.7-4.1-1.1-6.2-1c-2.2,0.1-4.3,0.6-6.5,1.2
			c-4.3,1.3-8.3,3.3-12.2,4.9c-3.9,1.6-7.9,2.6-11.3,2.7c-1.7,0-3.3-0.1-4.6-0.5c-0.7-0.1-1.3-0.4-1.8-0.6c-0.5-0.2-1-0.5-1.5-0.7
			c-0.4-0.3-0.8-0.5-1.1-0.7c-0.3-0.2-0.6-0.4-0.8-0.6C57,44.1,56.8,43.9,56.8,43.9z"/>
	</g>
	<g>
		<path class="st4" d="M120.3,35.5c0,0,0,0.1,0,0.2c0,0.1,0,0.3-0.1,0.6c-0.1,0.5-0.5,1.3-1.3,1.9c-0.8,0.6-2,1-3.4,0.9
			c-0.7,0-1.4-0.2-2.2-0.4c-0.7-0.2-1.5-0.5-2.3-0.8c-3.2-1.1-6.7-2.9-10.7-4c-2-0.5-4.1-0.7-6.3-0.5c-2.2,0.2-4.3,0.7-6.4,1.4
			c-4.2,1.3-8.3,3.1-12.4,4.3c-4,1.3-8.1,1.7-11.5,1.2c-1.7-0.2-3.2-0.7-4.4-1.3c-0.6-0.3-1.2-0.6-1.7-0.9c-0.5-0.3-0.9-0.7-1.3-1
			c-0.4-0.3-0.7-0.6-1-0.9c-0.3-0.3-0.5-0.5-0.7-0.7c-0.4-0.4-0.5-0.6-0.5-0.6s0.2,0.2,0.6,0.6c0.2,0.2,0.4,0.4,0.7,0.7
			c0.3,0.2,0.6,0.5,1,0.8c0.4,0.3,0.9,0.6,1.4,0.9c0.5,0.2,1.1,0.6,1.7,0.8c1.2,0.5,2.7,0.9,4.4,1.1c1.6,0.2,3.4,0.2,5.3-0.1
			c1.9-0.3,3.8-0.7,5.8-1.3c4-1.3,8-3.1,12.4-4.5c2.2-0.6,4.4-1.1,6.6-1.3c2.3-0.2,4.5,0,6.6,0.6c2.1,0.5,4,1.4,5.7,2.1
			c1.8,0.8,3.4,1.5,5,2.2c0.8,0.3,1.5,0.6,2.2,0.8c0.7,0.2,1.4,0.4,2.1,0.5c1.3,0.1,2.5-0.1,3.3-0.7c0.8-0.6,1.2-1.3,1.3-1.7
			c0.1-0.2,0.1-0.4,0.2-0.6C120.3,35.5,120.3,35.5,120.3,35.5z"/>
	</g>
</g>
<g id="Layer_17">
</g>
<g id="metal">
</g>
<g id="Layer_27">
	<path class="st16" d="M50.6,78.5c5.8,2.3,11.5,4.8,17,7.6c2.2,1.1,4.3,2.2,6.1,3.8c2.7,2.4,4,5.7,5.3,8.9c0.2,0.5,0.4,1.1,0.1,1.6
		c-0.3,0.5-11.7,1.1-12.2,1.3c-9.9,3.2-9.1,5.9-19,9.1c-2.1,0.7-4.3,1.3-6.4,0.9c-3-0.6-5-3.1-6.4-5.4c-2-3.2-3.5-6.6-4.6-10.2
		c-0.5-1.6-0.9-3.2-0.6-4.8s1.7-3.1,3.5-3.3c2.2-0.3,4.8,1.1,6.3-0.3c0.5-0.4,0.7-1,0.9-1.6c0.8-1.9,2-3.9,3.6-5.4
		C45.9,79.2,48.2,78.5,50.6,78.5L50.6,78.5z"/>
	<g>
		<path class="st17" d="M56.3,78.7c0,0-0.2,0.4-0.5,1c-0.3,0.6-0.8,1.3-1.4,1.9c-0.6,0.7-1.2,1.2-1.8,1.6c-0.5,0.4-0.9,0.6-0.9,0.6
			s0.3-0.3,0.7-0.8c0.4-0.5,1-1.1,1.6-1.8c0.6-0.6,1.1-1.3,1.6-1.8C56,79,56.3,78.7,56.3,78.7z"/>
	</g>
	<g>
		<path class="st17" d="M56.6,83.1c0,0,0.3-0.3,0.7-0.7c0.5-0.4,1.1-0.8,1.8-1.2c0.7-0.4,1.4-0.7,1.9-0.9c0.5-0.2,0.9-0.3,0.9-0.3
			s-0.3,0.2-0.8,0.5c-0.5,0.3-1.1,0.7-1.8,1.1c-0.7,0.4-1.3,0.7-1.9,1C57,83,56.6,83.1,56.6,83.1z"/>
	</g>
	<g>
		<path class="st17" d="M65.8,81.3c0,0,0,0.1,0,0.3c0,0.2-0.1,0.5-0.3,0.7c-0.4,0.5-0.9,1.2-1.5,1.8c-0.6,0.6-1.3,1.1-1.8,1.5
			c-0.5,0.4-0.9,0.6-0.9,0.6s0.3-0.3,0.7-0.8c0.5-0.4,1.1-1,1.7-1.6c0.6-0.6,1.2-1.2,1.7-1.6c0.2-0.2,0.4-0.4,0.4-0.6
			C65.7,81.4,65.8,81.3,65.8,81.3z"/>
	</g>
	<g>
		<path class="st17" d="M65.4,87.4c0,0,0.2-0.2,0.6-0.6c0.4-0.3,0.9-0.7,1.5-1.1c0.6-0.4,1.1-0.7,1.6-0.9c0.4-0.2,0.8-0.3,0.8-0.3
			s-0.2,0.2-0.6,0.6c-0.4,0.3-0.9,0.7-1.5,1.1c-0.6,0.4-1.1,0.7-1.6,0.9C65.7,87.3,65.4,87.4,65.4,87.4z"/>
	</g>
	<g>
		<path class="st17" d="M74.4,85.8c0,0,0.1,0.1,0.1,0.3c0,0.2,0,0.5-0.2,0.8c-0.3,0.6-0.9,1.2-1.5,1.7c-0.6,0.6-1.3,1.1-1.8,1.4
			c-0.5,0.3-0.9,0.5-0.9,0.5s0.3-0.3,0.7-0.7c0.4-0.4,1-1,1.6-1.5c0.3-0.3,0.6-0.5,0.9-0.8c0.3-0.3,0.6-0.5,0.7-0.7
			c0.2-0.2,0.3-0.4,0.3-0.6C74.4,85.9,74.4,85.8,74.4,85.8z"/>
	</g>
	<g>
		<path class="st17" d="M71.2,91.4c0,0,0.6-0.1,1.4-0.2c0.9-0.1,2-0.2,3.2-0.3c1.2-0.1,2.3-0.1,3.2-0.1c0.9,0,1.5,0.1,1.5,0.1
			s-0.6,0.1-1.4,0.2c-0.9,0.1-2,0.2-3.2,0.3c-1.2,0.1-2.3,0.1-3.2,0.1C71.8,91.4,71.2,91.4,71.2,91.4z"/>
	</g>
	<g>
		<path class="st17" d="M79.4,93c0,0-0.1,0.1-0.2,0.3c-0.2,0.2-0.5,0.4-0.9,0.6c-0.8,0.3-1.9,0.8-3,1.2c-1.1,0.4-2.2,0.9-3,1.2
			c-0.8,0.3-1.4,0.5-1.4,0.5s0.5-0.4,1.2-0.8c0.8-0.4,1.8-1,2.9-1.4c1.1-0.5,2.2-0.8,3.1-1c0.4-0.1,0.8-0.2,1-0.4
			C79.3,93.1,79.4,93,79.4,93z"/>
	</g>
	<g>
		<path class="st17" d="M73.2,97.4c0,0,0.5,0.2,1.3,0.3c0.8,0.1,1.8,0,2.9,0.1c1,0,2.1,0.1,2.9,0.2c0.8,0.1,1.3,0.2,1.3,0.2
			s-0.5,0.1-1.3,0.1c-0.8,0-1.8,0-2.9,0c-1,0-2.1-0.1-2.9-0.3C73.6,97.8,73.2,97.4,73.2,97.4z"/>
	</g>
	<g>
		<path class="st17" d="M74.1,99c0,0,0.2,0.2,0.5,0.4c0.3,0.2,0.8,0.4,1.3,0.6c0.5,0.2,1,0.6,1.3,0.9c0.3,0.4,0.2,0.7,0.2,0.7
			s-0.1-0.3-0.4-0.5c-0.3-0.2-0.8-0.5-1.3-0.7c-0.5-0.2-1-0.5-1.3-0.9C74.1,99.3,74.1,99,74.1,99z"/>
	</g>
	<g>
		<path class="st17" d="M73.4,104.2c0,0-0.1,0.1-0.4,0.1c-0.2,0-0.6,0-1-0.2c-0.4-0.2-0.8-0.4-1.2-0.7c-0.4-0.3-0.8-0.6-1.2-1
			c-0.8-0.7-1.6-1.3-2.3-1.7c-0.3-0.2-0.6-0.3-0.8-0.4c-0.2-0.1-0.3-0.1-0.3-0.1s0.5,0,1.3,0.3c0.4,0.2,0.8,0.4,1.2,0.6
			c0.4,0.3,0.9,0.6,1.3,0.9c0.4,0.3,0.8,0.7,1.2,1c0.4,0.3,0.7,0.6,1,0.8c0.3,0.2,0.6,0.3,0.8,0.4C73.2,104.2,73.4,104.2,73.4,104.2
			z"/>
	</g>
	<g>
		<path class="st17" d="M62.3,100.9c0,0,0.3,0.2,0.6,0.6c0.4,0.4,0.8,0.9,1.3,1.4c0.4,0.5,0.8,1.1,1.1,1.6c0.3,0.4,0.4,0.8,0.4,0.8
			s-0.3-0.2-0.6-0.6c-0.4-0.4-0.8-0.9-1.3-1.4c-0.4-0.5-0.8-1.1-1.1-1.6C62.4,101.3,62.3,100.9,62.3,100.9z"/>
	</g>
	<g>
		<path class="st17" d="M62.4,106.8c0,0-0.5,0.2-1.2,0.2c-0.7,0-1.7-0.1-2.6-0.5c-0.9-0.3-1.7-0.8-2.3-1.2c-0.6-0.4-1-0.7-1-0.7
			s0.4,0.2,1.1,0.5c0.6,0.3,1.5,0.7,2.4,1c0.9,0.3,1.7,0.6,2.4,0.6C62,106.8,62.4,106.8,62.4,106.8z"/>
	</g>
	<g>
		<path class="st17" d="M51.2,106.2c0,0,0,0.1,0.1,0.3c0.1,0.2,0.2,0.4,0.3,0.7c0.3,0.6,0.7,1.3,1.2,2c0.5,0.7,1.1,1.3,1.6,1.8
			c0.5,0.4,0.8,0.7,0.8,0.7s-0.1,0-0.3-0.1c-0.2-0.1-0.4-0.2-0.7-0.4c-0.6-0.4-1.3-1-1.8-1.7c-0.5-0.7-0.9-1.6-1.1-2.2
			C51.2,106.7,51.2,106.2,51.2,106.2z"/>
	</g>
	<g>
		<path class="st17" d="M48,112.7c0,0-0.2-0.2-0.6-0.5c-0.3-0.3-0.7-0.8-1.1-1.3c-0.4-0.5-0.7-1-0.9-1.4c-0.2-0.4-0.3-0.7-0.3-0.7
			s0.2,0.2,0.6,0.5c0.3,0.3,0.7,0.8,1.1,1.3c0.4,0.5,0.7,1,0.9,1.4C47.9,112.4,48,112.7,48,112.7z"/>
	</g>
	<g>
		<path class="st17" d="M42.1,109.2c0,0-0.2,0.3-0.6,0.6c-0.4,0.3-1,0.7-1.6,1c-0.6,0.3-1.3,0.5-1.8,0.5c-0.5,0.1-0.9,0.1-0.9,0.1
			s0.3-0.1,0.8-0.3c0.5-0.2,1.1-0.5,1.7-0.7c0.6-0.3,1.2-0.6,1.6-0.8C41.8,109.3,42.1,109.2,42.1,109.2z"/>
	</g>
	<g>
		<path class="st17" d="M32.3,108.3c0,0,0.3-0.3,0.9-0.7c0.6-0.4,1.3-0.8,2.1-1.2c0.8-0.4,1.6-0.7,2.3-0.9c0.6-0.2,1.1-0.3,1.1-0.3
			s-0.4,0.2-1,0.6c-0.6,0.3-1.4,0.7-2.1,1.1c-0.8,0.4-1.6,0.7-2.2,1C32.8,108.2,32.3,108.3,32.3,108.3z"/>
	</g>
	<g>
		<path class="st17" d="M35.3,102.5c0,0-0.5,0.2-1.2,0.3c-0.7,0.1-1.6,0.3-2.6,0.3c-1,0-1.9,0-2.6-0.1c-0.7-0.1-1.2-0.2-1.2-0.2
			s0.5,0,1.2-0.1c0.7,0,1.6-0.1,2.6-0.1c0.9,0,1.9-0.1,2.6-0.1C34.8,102.5,35.3,102.5,35.3,102.5z"/>
	</g>
	<g>
		<path class="st17" d="M28,98.7c0,0,0.4-0.3,1-0.8c0.6-0.4,1.6-0.9,2.5-1.4c0.9-0.4,1.8-0.9,2.5-1.2c0.3-0.2,0.6-0.3,0.8-0.5
			c0.2-0.1,0.3-0.2,0.3-0.2s-0.3,0.4-0.9,0.9c-0.6,0.5-1.5,1-2.4,1.5c-0.9,0.4-1.9,0.8-2.6,1.2C28.5,98.5,28,98.7,28,98.7z"/>
	</g>
	<g>
		<path class="st17" d="M33.6,92.9c0,0-0.3,0.1-0.9,0.1c-0.5,0-1.2,0-1.9-0.1c-0.7-0.1-1.3-0.4-1.8-0.6c-0.5-0.2-0.7-0.5-0.7-0.5
			s0.3,0.1,0.8,0.2c0.5,0.1,1.2,0.3,1.8,0.4c0.7,0.1,1.3,0.2,1.8,0.3C33.2,92.8,33.6,92.9,33.6,92.9z"/>
	</g>
	<g>
		<path class="st17" d="M28,88.4c0,0,0.5-0.1,1.3-0.1c0.8,0,1.8,0,2.8,0.1c1,0.1,2,0.3,2.7,0.5c0.7,0.2,1.2,0.4,1.2,0.4
			s-0.5,0-1.3-0.1C34,89.1,33,89,32,88.9c-1-0.1-2-0.2-2.7-0.3C28.5,88.5,28,88.4,28,88.4z"/>
	</g>
	<g>
		<path class="st17" d="M38.2,84.6c0,0,0.2,0.3,0.4,0.7c0.2,0.4,0.5,1,0.7,1.6c0.2,0.6,0.4,1.2,0.5,1.7c0.1,0.5,0.2,0.8,0.2,0.8
			s-0.2-0.3-0.4-0.7c-0.2-0.4-0.5-1-0.7-1.6c-0.2-0.6-0.4-1.2-0.5-1.7C38.2,85,38.2,84.6,38.2,84.6z"/>
	</g>
	<g>
		<path class="st17" d="M43.7,87.5c0,0-0.3-0.4-0.6-0.9c-0.4-0.6-0.8-1.3-1.2-2.1c-0.4-0.8-0.8-1.6-1-2.2c-0.3-0.6-0.4-1-0.4-1
			s0.3,0.4,0.6,0.9c0.4,0.6,0.8,1.3,1.2,2.1c0.4,0.8,0.8,1.6,1,2.2C43.5,87.1,43.7,87.5,43.7,87.5z"/>
	</g>
	<g>
		<path class="st17" d="M42.5,79.4c0,0,0.1,0,0.3,0c0.2,0,0.4,0.1,0.7,0.3c0.5,0.3,1.1,0.7,1.7,1.2c0.6,0.5,1.2,1,1.6,1.4
			c0.4,0.4,0.7,0.7,0.7,0.7s-0.3-0.2-0.8-0.5c-0.5-0.3-1.1-0.7-1.7-1.2c-0.6-0.5-1.2-1-1.6-1.4c-0.2-0.2-0.4-0.3-0.5-0.4
			C42.6,79.4,42.5,79.4,42.5,79.4z"/>
	</g>
	<g>
		<path class="st17" d="M50.4,81.5c0,0-0.1-0.3-0.1-0.8c-0.1-0.5-0.1-1.1-0.2-1.8C50.1,78.2,50,77.5,50,77c-0.1-0.5-0.1-0.8-0.1-0.8
			s0.2,0.3,0.3,0.8c0.2,0.5,0.3,1.1,0.4,1.8c0.1,0.7,0,1.4,0,1.9C50.6,81.1,50.4,81.5,50.4,81.5z"/>
	</g>
	<ellipse class="st18" cx="115.2" cy="89.8" rx="3.4" ry="4.6"/>
	<ellipse class="st19" cx="116" cy="89" rx="2.3" ry="3.2"/>
	<g>
		<path class="st4" d="M116,88.7c0,0,0.1-0.1,0.2-0.3c0.2-0.2,0.5-0.3,0.8-0.5c0.3-0.2,0.7-0.6,0.7-1.1c0-0.2-0.1-0.5-0.2-0.7
			c-0.1-0.1-0.2-0.2-0.3-0.2c-0.1,0-0.1,0-0.1,0c0,0.1,0,0.1,0,0.2c0,0.3-0.1,0.5-0.1,0.8c0,0.1,0.2,0.1,0.3,0.1
			c0.1,0,0.2,0,0.4-0.1c0.4-0.2,0.8-0.5,1.1-0.8c0.6-0.6,0.8-1.1,0.8-1.1s-0.2,0.5-0.8,1.1c-0.3,0.3-0.6,0.6-1.1,0.9
			c-0.1,0.1-0.2,0.1-0.4,0.1c-0.1,0-0.1,0-0.2,0c-0.1,0-0.2-0.1-0.1-0.2c0-0.3,0-0.5,0-0.8c0-0.1,0-0.2,0-0.2
			c0.1-0.1,0.2-0.1,0.2-0.1c0.1,0,0.3,0.1,0.4,0.2c0.2,0.2,0.3,0.5,0.3,0.8c0,0.6-0.4,1-0.7,1.2c-0.4,0.2-0.6,0.4-0.8,0.5
			c-0.2,0.2-0.2,0.3-0.2,0.3L116,88.7z"/>
	</g>
	<g>
		<path class="st4" d="M116.3,88.7c0,0,0.2,0.1,0.5,0.1c0.3,0.1,0.8,0.1,1.1-0.1c0.4-0.2,0.7-0.5,0.8-0.8c0.1-0.3,0.1-0.5,0.1-0.5
			s0,0.2-0.1,0.5c-0.1,0.3-0.4,0.7-0.8,0.9c-0.4,0.2-0.9,0.2-1.2,0.2c-0.3,0-0.5-0.1-0.5-0.1L116.3,88.7z"/>
	</g>
	<g>
		<path class="st17" d="M34.9,49.9c0,0,0.5-1.3,1.3-3.5c0.8-2.2,2-5.4,3.9-9c1-1.8,2.1-3.7,3.5-5.5c1.5-1.8,3.3-3.6,5.5-4.8
			c2.3-1.2,4.8-2,7.4-2.6c1.3-0.3,2.6-0.6,3.9-1c1.3-0.4,2.6-0.8,3.9-1.2c2.6-0.8,5.3-1.5,8-1.4c2.7,0.1,5.2,1.2,7.5,2.3
			c1.1,0.5,2.3,1.1,3.4,1.5c1.1,0.4,2.3,0.7,3.4,1c2.3,0.4,4.5,0.3,6.5-0.1c2-0.4,3.7-1,5.2-1.8c1.5-0.7,2.7-1.5,3.6-2.3
			c0.9-0.7,1.6-1.3,2.1-1.8c0.5-0.4,0.7-0.7,0.7-0.7s-0.2,0.2-0.7,0.7c-0.4,0.5-1.1,1.1-2,1.8c-0.9,0.8-2.1,1.6-3.6,2.3
			c-1.5,0.8-3.2,1.5-5.2,1.9c-2,0.4-4.2,0.5-6.6,0.1c-1.2-0.2-2.3-0.5-3.5-0.9c-1.1-0.4-2.3-1-3.4-1.5c-2.3-1.1-4.7-2.2-7.3-2.2
			c-2.6-0.1-5.3,0.7-7.8,1.5c-1.3,0.4-2.6,0.8-3.9,1.2c-1.3,0.4-2.6,0.7-3.9,1c-2.6,0.6-5.1,1.3-7.3,2.5c-2.2,1.2-4,2.9-5.5,4.7
			c-1.5,1.8-2.6,3.7-3.6,5.4c-1.9,3.6-3.2,6.7-4.1,8.9C35.4,48.7,34.9,49.9,34.9,49.9z"/>
	</g>
	<g>
		<path class="st17" d="M40.3,48.1c0,0-0.4-0.5-1-1.3c-0.6-0.8-1.4-1.9-2.1-3.1c-0.7-1.1-1.4-2.3-1.9-3.2c-0.5-0.9-0.8-1.5-0.8-1.5
			s0.4,0.5,1,1.3c0.6,0.8,1.4,1.9,2.1,3.1c0.7,1.1,1.4,2.3,1.9,3.2C40,47.5,40.3,48.1,40.3,48.1z"/>
	</g>
	<g>
		<path class="st17" d="M37.5,36.9c0,0,0.1-0.2,0.4-0.1c0.3,0.1,0.5,0.3,0.8,0.6c0.5,0.6,1.3,1.3,2,2c0.8,0.7,1.6,1.4,2.2,1.9
			c0.6,0.5,1,0.8,1,0.8s-0.5-0.2-1.2-0.6c-0.7-0.4-1.6-1-2.3-1.7c-0.8-0.7-1.5-1.5-1.9-2.2c-0.2-0.3-0.4-0.6-0.6-0.7
			C37.7,36.8,37.5,36.9,37.5,36.9z"/>
	</g>
	<g>
		<path class="st17" d="M45.8,39.3c0,0-0.4-0.6-1.1-1.4c-0.6-0.9-1.4-2-2.2-3.2c-0.8-1.2-1.5-2.4-2-3.4c-0.5-0.9-0.8-1.6-0.8-1.6
			s0.4,0.6,1.1,1.4c0.6,0.9,1.4,2,2.2,3.2c0.8,1.2,1.5,2.4,2,3.4C45.5,38.6,45.8,39.3,45.8,39.3z"/>
	</g>
	<g>
		<path class="st17" d="M43.7,27.6c0,0,0.1,0,0.3,0.1c0.2,0.1,0.5,0.3,0.8,0.6c0.6,0.6,1.2,1.3,1.9,2.1c0.7,0.8,1.4,1.5,1.9,2.1
			c0.5,0.6,0.9,0.9,0.9,0.9s-0.5-0.3-1.1-0.7c-0.6-0.5-1.4-1.2-2.1-1.9c-0.3-0.4-0.7-0.8-1-1.2c-0.3-0.4-0.5-0.8-0.8-1.1
			c-0.2-0.3-0.4-0.5-0.6-0.7C43.8,27.7,43.7,27.6,43.7,27.6z"/>
	</g>
	<g>
		<path class="st17" d="M51.7,32.9c0,0,0.3-0.6,0.6-1.6c0.2-0.5,0.4-1,0.5-1.6c0.1-0.6,0.2-1.3,0.2-1.9c0-1.3-0.2-2.7-0.2-3.8
			c0-1,0.2-1.7,0.2-1.7s0,0.7,0.1,1.7c0.1,1,0.4,2.4,0.4,3.8c0,0.7-0.1,1.4-0.3,2.1c-0.2,0.6-0.4,1.2-0.7,1.7
			C52.1,32.4,51.7,32.9,51.7,32.9z"/>
	</g>
	<g>
		<path class="st17" d="M55.2,19.9c0,0,0.3,0.3,0.8,0.9c0.4,0.5,1,1.3,1.5,2c0.5,0.8,1,1.5,1.3,2.1c0.3,0.6,0.5,1,0.5,1
			s-0.3-0.3-0.8-0.9c-0.4-0.5-1-1.3-1.5-2c-0.5-0.8-1-1.5-1.3-2.1C55.4,20.3,55.2,19.9,55.2,19.9z"/>
	</g>
	<g>
		<path class="st17" d="M64,28c0,0-0.2-0.6-0.4-1.4c-0.2-0.9-0.5-2-0.6-3.2c-0.2-1.2-0.3-2.3-0.4-3.2c-0.1-0.9-0.1-1.5-0.1-1.5
			s0.2,0.6,0.4,1.4c0.2,0.9,0.5,2,0.6,3.2c0.2,1.2,0.3,2.3,0.4,3.2C64,27.4,64,28,64,28z"/>
	</g>
	<g>
		<path class="st17" d="M66,18.1c0,0,0.3,0.5,0.8,1.3c0.4,0.8,1,1.8,1.5,2.9c0.5,1.1,1,2.2,1.3,3c0.3,0.8,0.5,1.4,0.5,1.4
			s-0.3-0.5-0.8-1.3c-0.4-0.8-1-1.8-1.5-2.9c-0.5-1.1-1-2.2-1.3-3C66.2,18.7,66,18.1,66,18.1z"/>
	</g>
	<g>
		<path class="st17" d="M77.2,17.8c0,0-0.2,0.4-0.5,1.1c-0.3,0.6-0.7,1.5-1.2,2.3c-0.4,0.8-0.9,1.7-1.2,2.3c-0.3,0.6-0.6,1-0.6,1
			s0.1-0.5,0.3-1.2c0.2-0.7,0.6-1.6,1-2.4c0.4-0.9,1-1.7,1.4-2.2C76.8,18.2,77.2,17.8,77.2,17.8z"/>
	</g>
	<g>
		<path class="st17" d="M77,29c0,0,0.1-0.1,0.4-0.3c0.3-0.2,0.6-0.5,1-0.9c0.8-0.8,1.8-1.9,2.7-3.1c0.9-1.2,1.6-2.6,2.1-3.6
			c0.2-0.5,0.5-0.9,0.6-1.2c0.1-0.3,0.2-0.5,0.2-0.5s0,0.2-0.1,0.5c-0.1,0.3-0.2,0.8-0.4,1.3c-0.2,0.5-0.4,1.2-0.8,1.8
			c-0.3,0.6-0.7,1.3-1.1,1.9c-0.4,0.6-0.9,1.2-1.4,1.8c-0.5,0.5-1,1-1.5,1.3C77.7,28.7,77,29,77,29z"/>
	</g>
	<g>
		<path class="st17" d="M86.5,20.5c0,0,0.2,0.5,0.4,1.2c0.1,0.7,0.1,1.8-0.1,2.8c-0.2,1-0.5,1.9-0.8,2.6c-0.3,0.7-0.6,1.1-0.6,1.1
			s0.1-0.5,0.3-1.2c0.2-0.7,0.4-1.7,0.6-2.6c0.2-0.9,0.3-1.9,0.3-2.6C86.5,21,86.5,20.5,86.5,20.5z"/>
	</g>
	<g>
		<path class="st17" d="M95,27.4c0,0-0.2-0.5-0.4-1.2c-0.2-0.7-0.6-1.6-0.9-2.6c-0.3-0.9-0.6-1.9-0.8-2.6c-0.2-0.7-0.3-1.2-0.3-1.2
			s0.3,0.4,0.6,1.1c0.3,0.7,0.7,1.6,1,2.6c0.3,1,0.5,1.9,0.7,2.7C94.9,26.9,95,27.4,95,27.4z"/>
	</g>
	<g>
		<path class="st17" d="M97.4,18.4c0,0,0.4,0.5,0.9,1.3c0.5,0.8,1.2,1.9,1.9,2.9c0.7,1.1,1.4,2.1,1.9,2.9c0.5,0.8,0.9,1.3,0.9,1.3
			s-0.5-0.4-1.1-1.2c-0.6-0.7-1.4-1.7-2.1-2.8c-0.7-1.1-1.3-2.2-1.8-3.1C97.6,19,97.4,18.4,97.4,18.4z"/>
	</g>
	<g>
		<path class="st17" d="M90.2,28.7c0,0-0.2-0.4-0.3-1c-0.2-0.6-0.4-1.4-0.5-2.2c-0.1-0.8-0.2-1.6-0.3-2.2c0-0.6,0-1,0-1
			s0.2,0.4,0.3,1c0.2,0.6,0.4,1.4,0.5,2.2c0.1,0.8,0.2,1.6,0.3,2.2C90.2,28.3,90.2,28.7,90.2,28.7z"/>
	</g>
</g>
<g id="Layer_28">
	<g>
		<path class="st20" d="M59.5,8.3c0,0,0.2,0.6,0.5,1.7c0.3,1.1,0.8,2.7,1.3,4.8c0.2,1,0.5,2.2,0.8,3.5c0.3,1.3,0.5,2.7,0.8,4.1
			c0.5,3,1,6.3,1.2,10c0.5,7.4,0.5,16.1-0.9,25.3c-0.7,4.6-1.6,9.3-2.9,14c-1.3,4.7-2.7,9.4-4,14.1c-0.7,2.3-1.3,4.7-1.8,7
			c-0.3,1.2-0.5,2.4-0.8,3.6c-0.2,1.2-0.4,2.3-0.7,3.5c-0.8,4.7-1.4,9.4-1.8,13.9c-0.4,4.5-0.6,9-0.8,13.2
			c-0.1,4.2-0.2,8.2-0.2,11.8c0,7.3,0.1,13.5,0.2,17.8c0.1,4.3,0.1,6.7,0.1,6.7s-0.1-0.6-0.2-1.8c-0.1-1.1-0.3-2.8-0.5-5
			c-0.2-2.1-0.4-4.7-0.6-7.7c-0.2-3-0.5-6.4-0.6-10c-0.4-7.4-0.5-16,0.1-25.2c0.3-4.6,0.8-9.4,1.6-14.2c0.2-1.2,0.4-2.4,0.6-3.6
			c0.3-1.2,0.5-2.4,0.8-3.6c0.5-2.5,1.2-4.8,1.8-7.2c1.3-4.7,2.8-9.4,4.1-14c1.3-4.6,2.4-9.2,3.1-13.7c0.7-4.5,1.3-8.9,1.5-13
			c0.2-4.2,0.3-8.1,0.2-11.8c-0.1-3.7-0.3-7-0.6-10c-0.2-1.5-0.3-2.9-0.5-4.1c-0.2-1.3-0.3-2.5-0.5-3.5c-0.2-1.1-0.3-2-0.5-2.8
			c-0.1-0.8-0.3-1.5-0.4-2.1C59.6,8.9,59.5,8.3,59.5,8.3z"/>
	</g>
	<g>
		<path class="st20" d="M53.9,8.8c0,0-0.1,0.5-0.2,1.5c-0.1,0.5-0.2,1.1-0.3,1.8c-0.1,0.7-0.2,1.5-0.3,2.4c-0.1,0.9-0.2,1.9-0.3,3
			c-0.1,1.1-0.2,2.3-0.3,3.6c-0.1,1.3-0.2,2.6-0.2,4.1c-0.1,1.4-0.1,3-0.1,4.5c0,3.2,0.1,6.6,0.2,10.2c0.1,3.6,0.3,7.4,0.5,11.4
			c0.2,4,0.4,8.1,0.4,12.3c0,1,0,2.1,0,3.2c0,1.1,0,2.1,0,3.2c0,1.1,0,2.1,0,3.2l-0.1,3.2c-0.2,4.3-0.5,8.5-0.9,12.7
			c-0.4,4.2-0.9,8.3-1.5,12.2c-0.6,3.9-1.2,7.7-1.8,11.3c-0.6,3.6-1.3,7-1.9,10.1c-1.3,6.2-2.4,11.4-3.3,15
			c-0.8,3.6-1.4,5.7-1.4,5.7s0.3-2.1,0.8-5.8c0.5-3.7,1.3-8.9,2.2-15.2c0.4-3.1,0.9-6.5,1.4-10.1c0.5-3.6,0.9-7.4,1.4-11.3
			c0.4-3.9,0.8-8,1.2-12.1c0.4-4.1,0.6-8.3,0.8-12.5l0.1-3.1c0-1.1,0-2.1,0.1-3.2c0-1.1,0-2.1,0-3.1c0-1,0-2.1,0-3.1
			c0-4.1-0.1-8.2-0.2-12.2c-0.1-4-0.1-7.8-0.1-11.5c0-3.7,0.1-7.1,0.3-10.3c0.2-3.2,0.5-6.1,0.9-8.7c0.2-1.3,0.4-2.5,0.6-3.6
			c0.2-1.1,0.4-2.1,0.6-3c0.4-1.8,0.8-3.2,1-4.2C53.7,9.3,53.9,8.8,53.9,8.8z"/>
	</g>
	<g>
		<path class="st20" d="M47.2,11.5c0,0,0,0.6,0,1.8c0,1.2,0,2.8,0,5c0,2.1-0.1,4.8-0.2,7.7c-0.1,3-0.2,6.4-0.4,10
			c-0.2,3.7-0.4,7.7-0.7,11.9c-0.3,4.2-0.7,8.6-1.1,13.2c-0.5,4.6-0.9,9.3-1.5,14.1c-0.6,4.8-1.3,9.7-2,14.5
			c-0.7,4.9-1.6,9.7-2.3,14.5c-0.7,4.8-1.5,9.4-1.8,13.9c-0.4,4.5-0.4,8.9-0.1,13c0.3,4.1,1,8,1.7,11.6c1.5,7.1,3.2,13,4.5,17.1
			c1.2,4.1,2,6.5,2,6.5s-0.2-0.6-0.7-1.6c-0.4-1.1-1.1-2.6-1.8-4.6c-0.8-2-1.7-4.4-2.7-7.3c-1-2.8-2-6.1-2.9-9.7
			c-0.9-3.6-1.8-7.5-2.2-11.8c-0.1-1.1-0.2-2.2-0.3-3.2c-0.1-1.1-0.1-2.2-0.2-3.3c-0.1-2.2,0-4.5,0.1-6.9c0.3-4.6,0.8-9.4,1.6-14.2
			c0.7-4.8,1.5-9.6,2.2-14.5c0.7-4.8,1.4-9.7,2.1-14.5c0.6-4.8,1.3-9.5,1.8-14c0.5-4.6,1-9,1.5-13.1c0.4-4.2,0.9-8.1,1.2-11.8
			c0.4-3.7,0.7-7,1-10c0.3-3,0.5-5.6,0.7-7.7C46.9,13.9,47.2,11.5,47.2,11.5z"/>
	</g>
	<g>
		<path class="st20" d="M42.7,14c0,0,0.1,0.5,0.2,1.4c0.1,0.9,0.2,2.2,0.3,3.9c0,1.7,0,3.8-0.2,6.1c-0.2,2.4-0.5,5-1,7.9
			c-0.5,2.9-1.1,5.9-1.8,9.2c-0.7,3.2-1.4,6.6-2.1,10.1c-0.7,3.6-1.2,7.2-1.7,10.9c-0.5,3.7-0.9,7.5-1.2,11.3
			c-0.2,1.9-0.3,3.8-0.5,5.7c-0.1,1.9-0.2,3.8-0.4,5.7c-0.2,3.8-0.4,7.5-0.6,11.1c-0.4,7.2-0.7,13.9-1,19.7
			c-0.2,2.9-0.4,5.5-0.6,7.9c-0.2,2.3-0.4,4.4-0.6,6c-0.2,1.7-0.5,3-1,3.8c-0.2,0.4-0.4,0.7-0.6,0.9c-0.2,0.2-0.3,0.2-0.3,0.2
			s0.1-0.1,0.2-0.3c0.1-0.2,0.3-0.5,0.5-0.9c0.3-0.8,0.5-2.1,0.5-3.8c0-3.4,0-8.2,0-13.9c0-2.9,0-6,0-9.3c0-3.3,0-6.8,0.1-10.4
			c0.1-3.6,0.2-7.3,0.4-11.1c0.2-3.8,0.4-7.6,0.8-11.5c0.4-3.8,0.8-7.7,1.4-11.5c0.1-0.9,0.3-1.9,0.4-2.8c0.2-0.9,0.3-1.9,0.5-2.8
			c0.3-1.9,0.7-3.6,1.1-5.4c0.7-3.6,1.7-6.9,2.5-10.1c0.8-3.2,1.6-6.2,2.3-9c0.6-2.8,1.2-5.4,1.5-7.7c0.4-2.3,0.6-4.3,0.7-6
			c0.1-1.7,0.2-3,0.1-3.9C42.7,14.5,42.7,14,42.7,14z"/>
	</g>
	<g>
		<path class="st20" d="M37.7,16.7c0,0-0.3,0.3-0.8,0.9c-0.5,0.6-1.3,1.4-2.2,2.5c-1.8,2.2-4.1,5.7-6.5,10c-1.2,2.1-2.4,4.5-3.8,7
			c-1.3,2.5-2.7,5.2-4.1,7.9c-1.4,2.7-2.7,5.6-3.9,8.6c-1.2,3-2.1,6.1-3,9.2c-0.9,3.1-1.6,6.3-2.3,9.5c-0.6,3.2-1.3,6.3-1.9,9.3
			c-0.6,3-1.1,6-1.6,8.8c-0.5,2.8-0.9,5.4-1.4,7.9c-0.4,2.5-0.9,4.7-1.7,6.7c-0.7,2-1.7,3.5-2.8,4.6c-1,1.1-2.1,1.6-2.9,1.8
			c-0.4,0.1-0.7,0.1-0.9,0.1c-0.2,0-0.3,0-0.3,0s0.1,0,0.3,0c0.2,0,0.5-0.1,0.8-0.2c0.7-0.3,1.6-0.9,2.5-2c0.9-1.1,1.6-2.7,2.1-4.5
			c0.5-1.9,0.8-4.1,1.1-6.6c0.2-2.5,0.5-5.2,0.9-8c0.3-2.8,0.7-5.8,1.2-8.9c0.5-3.1,1-6.2,1.6-9.5c0.6-3.2,1.4-6.5,2.2-9.7
			c0.9-3.2,1.9-6.4,3.2-9.5c1.2-3.1,2.7-6,4.2-8.7c1.5-2.8,3.1-5.3,4.5-7.8c1.5-2.4,2.9-4.7,4.3-6.8c2.7-4.2,5.4-7.4,7.5-9.5
			c1-1,1.9-1.8,2.5-2.3C37.4,16.9,37.7,16.7,37.7,16.7z"/>
	</g>
	<g>
		<path class="st20" d="M63,7.4c0,0,0.4,0.5,1,1.5c0.6,1,1.5,2.4,2.4,4.4c1.8,4,3.7,10,4.6,17.4c0.5,3.7,0.8,7.7,1,12
			c0.2,4.3,0.4,8.7,0.7,13.3c0.3,4.6,0.8,9.4,0.9,14.3c0.2,4.9,0.1,9.9-0.4,14.9c-0.5,5-1.2,9.9-1.9,14.7c-0.4,2.4-0.7,4.8-1.1,7.1
			c-0.4,2.4-0.7,4.7-1,7c-0.6,4.6-1.1,9-1.6,13.2c-0.4,4.2-0.8,8.2-1.1,11.9c-0.3,3.7-0.5,7.1-0.8,10.1c-0.2,3-0.3,5.6-0.5,7.8
			c-0.2,4.3-0.3,6.8-0.3,6.8s0-0.6-0.1-1.8c0-1.2-0.1-2.9-0.2-5c-0.1-4.3-0.2-10.5,0.1-17.9c0.2-7.4,0.8-16.1,1.8-25.3
			c0.5-4.6,1.1-9.4,1.8-14.2c0.7-4.8,1.4-9.7,1.8-14.5c0.5-4.9,0.6-9.7,0.5-14.5c-0.2-4.8-0.5-9.6-0.7-14.2
			c-0.2-4.6-0.2-9.1-0.3-13.4c-0.1-4.2-0.2-8.2-0.5-11.9c-0.3-3.7-0.7-7-1.3-9.9c-0.6-2.9-1.3-5.4-2.1-7.4c-0.8-2-1.5-3.5-2-4.6
			C63.3,7.9,63,7.4,63,7.4z"/>
	</g>
	<g>
		<path class="st20" d="M67.3,7.1c0,0,0.1,0.1,0.4,0.2C68,7.5,68.4,7.7,68.9,8c1,0.6,2.4,1.5,4,3.1c1.6,1.5,3.3,3.6,4.8,6.2
			c1.5,2.6,2.9,5.8,3.9,9.4c0.5,1.8,1,3.7,1.5,5.6c0.5,2,0.8,4,1.3,6c0.4,2.1,0.8,4.3,1.2,6.5c0.4,2.2,0.6,4.5,1,6.8
			c0.2,2.3,0.5,4.7,0.7,7c0.2,2.4,0.4,4.8,0.5,7.2c0.1,2.4,0.2,4.9,0.3,7.3c0,1.2,0.1,2.5,0.1,3.7l0,3.7c0,4.9-0.2,9.9-0.4,14.7
			c-0.2,4.9-0.6,9.6-1,14.2c-0.8,9.2-1.9,17.8-3,25.1c-0.5,3.6-0.9,7-1.1,10c-0.2,3-0.1,5.6,0.1,7.7c0.2,2.1,0.6,3.8,0.9,4.9
			c0.3,1.1,0.5,1.7,0.5,1.7s-0.2-0.6-0.7-1.6c-0.4-1.1-0.9-2.7-1.3-4.9c-0.4-2.1-0.6-4.8-0.6-7.8c0-3,0.2-6.4,0.5-10.1
			c0.3-3.7,0.7-7.7,1-11.9c0.4-4.2,0.7-8.6,1-13.2c0.2-2.3,0.3-4.6,0.4-7c0.1-2.4,0.2-4.8,0.3-7.2c0.2-4.8,0.3-9.7,0.3-14.6l0-3.7
			c0-1.2,0-2.4-0.1-3.7c0-2.4-0.1-4.9-0.2-7.3c-0.1-2.4-0.3-4.8-0.4-7.1c-0.2-2.4-0.4-4.7-0.6-7c-0.3-2.3-0.5-4.5-0.8-6.7
			c-0.3-2.2-0.6-4.3-0.9-6.4c-0.7-4.2-1.4-8.1-2.3-11.6c-0.9-3.5-2-6.7-3.3-9.4c-1.3-2.6-2.8-4.8-4.2-6.3c-1.4-1.6-2.7-2.7-3.7-3.3
			c-0.5-0.3-0.8-0.6-1.1-0.7C67.5,7.2,67.3,7.1,67.3,7.1z"/>
	</g>
</g>
</svg>
