<?xml version="1.0" encoding="utf-8"?>
<!-- Generator: Adobe Illustrator 19.1.0, SVG Export Plug-In . SVG Version: 6.00 Build 0)  -->
<svg version="1.1" xmlns="http://www.w3.org/2000/svg" xmlns:xlink="http://www.w3.org/1999/xlink" x="0px" y="0px"
	 viewBox="0 0 145.1 171" style="enable-background:new 0 0 145.1 171;" xml:space="preserve">
<style type="text/css">
	.st0{fill:#561F1F;}
	.st1{fill:#73292A;}
	.st2{fill:#C65D5D;}
	.st3{fill:#AB3D3D;}
	.st4{fill:#854041;}
	.st5{fill:#B04F4F;}
	.st6{fill:#5E2B2E;}
	.st7{fill:#631C1F;}
	.st8{fill:#844548;}
	.st9{fill:#883B43;}
	.st10{fill:#9F3242;}
	.st11{fill:#D18282;}
	.st12{fill:#F9F2F2;}
	.st13{fill:#EF414A;}
	.st14{fill:#BC2026;}
	.st15{fill:#080708;}
	.st16{fill:#353434;}
	.st17{fill:#D3D19F;}
	.st18{fill:#A29F86;}
	.st19{fill:#B0A8A8;}
	.st20{fill:#8E8D8D;}
	.st21{fill:#9F9B9C;}
	.st22{fill:#C9C8C5;}
	.st23{fill:#4C4C4C;}
</style>
<g id="head">
</g>
<g id="sideburn2">
</g>
<g id="Layer_2">
</g>
<g id="Layer_14">
</g>
<g id="Layer_3">
</g>
<g id="Layer_5">
</g>
<g id="ear">
	<path class="st0" d="M0-135.3"/>
</g>
<g id="teeth">
</g>
<g id="Layer_8">
	<g id="Layer_14_1_">
	</g>
</g>
<g id="Layer_9">
</g>
<g id="hair">
</g>
<g id="Layer_10">
</g>
<g id="eye2">
</g>
<g id="jaaw">
</g>
<g id="outline">
</g>
<g id="nose">
</g>
<g id="eye1">
	<g>
		<path class="st1" d="M139.4,58.3c-0.7-2.3,0.1-3.4-0.1-5.1c-0.6-3.3-1.3-7.6-2.8-10.4c-1.1-2-4.1-4.9-5.7-6.3
			c-2.3-2.1-6.5-4-8.2-6.2c-2.6-3.2-2.6-5.7-4.9-9.5c-1-1.7-4-1-5.4-2.1c-2.2-1.7-1.9-5.8-5.5-6.2c-2.4-0.3-4.1-0.4-6.3-1.5
			c-2.6-1.2-4.4-5.6-7.1-6.5c-2.9-1-6.5,1.7-9.6,1.2c-1.6-0.3-3.4-1-5.1-1.7c-1.8-0.7-3.2-1.7-4.9-1.7c-1.1,0-3,1.5-4.1,1.7
			c-1.9,0.4-1.9,1.5-3.8,2.2c-1,0.4-3.6-0.8-4.5-0.4c-1.3,0.5-2.7,1-4,1.4c-1.8,0.5-3.7,0.5-5.5,0.6c-2,0.1-4,0.3-5.8,1.1
			c-1.1,0.6-2.2,1.4-3.2,2.3c-1,0.9-2,2-2.9,3.1c-1.5,1.7-5.7,2.7-7.3,3.9c-2.4,1.8-2.1,3.9-4.4,5.4c-2.9,1.9-2.5,3.5-4.9,6.6
			c-0.9,1.2-5.9,3.6-6.9,4.7c-2.6,2.8-0.9,2.4-2.7,6c-1.8,3.6-4.2,8.3-5.6,12.2c-1.4,3.9-1.5,7.9-2.4,12c-1.5,7-5.7,7.1-2.1,13.3
			c40.6,68.9,31.2,97.3,68.8,81c9.2-4,20.8-25.9,69.4-83.3c1.8-2.2,2.4-5.5,1.3-8.3L139.4,58.3z"/>
		<path class="st2" d="M136,58.1c-0.7-2.2,0.1-3.3-0.1-4.8c-0.5-3.1-1.2-7.2-2.6-9.9c-1-1.9-3.9-4.6-5.4-6c-2.2-2-6.2-3.8-7.8-5.8
			c-2.4-3.1-2.4-5.4-4.6-9c-1-1.6-3.8-0.9-5.1-2c-2-1.6-1.8-5.5-5.2-5.9c-2.3-0.2-3.9-0.4-6-1.4c-2.4-1.2-4.1-5.3-6.7-6.2
			c-2.8-0.9-6.2,1.6-9.1,1.1c-1.5-0.2-3.2-0.9-4.8-1.6c-1.7-0.6-3.1-1.6-4.7-1.6c-1.1,0-2.8,1.5-3.9,1.7c-1.8,0.4-1.8,1.4-3.6,2.1
			C65.4,9.2,63,8.1,62,8.5c-1.3,0.5-2.5,0.9-3.8,1.3c-1.7,0.5-3.5,0.5-5.3,0.6c-1.9,0.1-3.8,0.2-5.5,1.1c-1.1,0.5-2.1,1.3-3,2.2
			c-1,0.9-1.9,1.9-2.8,2.9c-1.4,1.6-5.4,2.5-6.9,3.7c-2.3,1.7-2,3.7-4.2,5.1c-2.8,1.8-2.4,3.3-4.6,6.2c-0.9,1.1-5.6,3.5-6.5,4.5
			c-2.5,2.6-0.8,2.3-2.5,5.7c-1.7,3.4-4,7.9-5.3,11.6c-1.3,3.7-1.5,7.5-2.3,11.4C7.8,71.4,4,71.4,7.4,77.3
			c38.5,65.3,29.3,91.4,65,76c8.6-3.7,19.5-24.3,65-78c2.2-2.6,2.8-6.6,1.4-9.9L136,58.1z"/>
		<path class="st3" d="M79.2,6.9c1.7,0.6,3.3,1.3,4.8,1.6c2.9,0.5,6.3-2,9.1-1.1c2.6,0.8,4.3,5,6.7,6.2c2.1,1,3.8,1.1,6,1.4
			c3.3,0.4,3.1,4.3,5.2,5.9c1.4,1.1,4.2,0.4,5.1,2c2.2,3.6,2.2,6,4.6,9c1.6,2,5.6,3.9,7.8,5.8c1.5,1.4,4.4,4.1,5.4,6
			c1.4,2.6,2.1,6.8,2.6,9.9c0.3,1.6-0.6,2.7,0.1,4.8l2.9,7.2c1.4,3.3,0.8,7.3-1.4,9.9c0,0-17.6,3.9-22.1-1.8
			c-4.5-5.7-4.5-17.7-4.5-17.7s-7.4,6-13.2-0.3c-5.8-6.3,1.1-12.3,1.1-12.3s-5.5,2.2-10.5-3.5s0.1-11.4,0.1-11.4s-8.3-1.3-10-4.9
			c-1.6-3.6,3.1-9.5,3.1-9.5s-9.3,1.6-10.3-0.9S79.2,6.9,79.2,6.9z"/>
		<g>
			<path class="st1" d="M138.3,75.5c-3.4,0.8-6.8,1.4-10.3,1.6c-1.7,0.1-3.5,0.1-5.2,0c-1.7-0.2-3.5-0.5-5.2-1.4
				c-0.8-0.4-1.6-1.1-2.1-1.8c-0.5-0.7-1-1.5-1.4-2.3c-0.8-1.6-1.4-3.3-1.8-5c-0.4-1.7-0.8-3.4-1-5.2c-0.2-1.7-0.4-3.5-0.4-5.3
				l1.4,0.7c-0.5,0.4-1,0.8-1.6,1.1c-0.5,0.3-1.1,0.6-1.7,0.8c-1.2,0.5-2.4,0.8-3.8,0.9c-1.3,0.1-2.7-0.1-3.9-0.7
				c-0.6-0.2-1.2-0.6-1.7-1c-0.5-0.4-1-0.8-1.5-1.3c-0.1-0.1-0.2-0.2-0.4-0.4l-0.3-0.3c-0.2-0.2-0.4-0.5-0.6-0.8
				c-0.4-0.5-0.7-1.1-1-1.7c-0.5-1.2-0.7-2.6-0.6-4c0.1-1.3,0.6-2.6,1.3-3.7c0.3-0.6,0.7-1.1,1.1-1.6c0.4-0.5,0.8-1,1.3-1.4l1,1.7
				c-0.6,0.2-1.1,0.3-1.7,0.4c-0.6,0.1-1.1,0.1-1.7,0.1c-1.1,0-2.2-0.3-3.3-0.7c-1-0.4-2-0.9-2.9-1.6c-0.4-0.3-0.8-0.7-1.2-1.1
				c-0.4-0.4-0.7-0.8-1.1-1.2c-0.3-0.4-0.7-0.9-0.9-1.4c-0.3-0.5-0.5-1-0.7-1.5c-0.4-1.1-0.5-2.2-0.4-3.3c0.1-1.1,0.4-2.2,0.8-3.2
				c0.2-0.5,0.5-1,0.8-1.4c0.3-0.5,0.6-0.9,1-1.3l0.5,1.3c-0.9-0.2-1.8-0.4-2.7-0.6c-0.9-0.3-1.8-0.5-2.7-0.9
				c-0.9-0.4-1.7-0.8-2.6-1.3c-0.8-0.5-1.6-1.2-2.2-2.1c-0.1-0.2-0.3-0.5-0.4-0.7c-0.1-0.2-0.2-0.5-0.2-0.8c-0.1-0.5-0.1-1-0.1-1.5
				c0.1-1,0.4-1.9,0.8-2.8c0.4-0.9,0.8-1.7,1.3-2.5c0.5-0.8,1-1.5,1.6-2.3l0.3,0.6c-1.9,0.3-3.8,0.4-5.7,0.3c-0.9,0-1.9-0.1-2.8-0.4
				c-0.5-0.1-0.9-0.3-1.3-0.6c-0.4-0.3-0.7-0.7-0.6-1.2c0,0.5,0.3,0.9,0.7,1.1c0.4,0.3,0.8,0.4,1.3,0.5c0.9,0.2,1.8,0.2,2.8,0.2
				c1.9,0,3.7-0.3,5.5-0.6l0.9-0.2l-0.6,0.8c-1,1.4-2,3-2.6,4.6c-0.3,0.8-0.5,1.7-0.6,2.5c0,0.4,0,0.8,0.1,1.2
				c0,0.2,0.1,0.3,0.2,0.6c0.1,0.2,0.2,0.3,0.3,0.5c0.4,0.6,1.1,1.2,1.8,1.6c0.7,0.4,1.5,0.8,2.4,1.1c0.8,0.3,1.7,0.6,2.5,0.8
				c0.9,0.2,1.7,0.4,2.6,0.5l1.4,0.2l-0.9,1.1c-0.3,0.3-0.5,0.7-0.8,1.1c-0.2,0.4-0.4,0.8-0.6,1.3c-0.4,0.9-0.6,1.8-0.6,2.6
				c-0.1,0.9,0.1,1.8,0.4,2.6c0.1,0.4,0.4,0.8,0.6,1.2c0.3,0.4,0.5,0.7,0.8,1.1c0.3,0.4,0.6,0.7,1,1c0.3,0.3,0.7,0.6,1.1,0.9
				c0.7,0.6,1.5,1,2.4,1.3c0.9,0.3,1.8,0.5,2.7,0.5c0.5,0,0.9,0,1.3-0.1c0.4-0.1,0.9-0.2,1.2-0.3l4.7-1.7l-3.7,3.4
				c-0.4,0.3-0.7,0.8-1.1,1.2c-0.3,0.4-0.6,0.9-0.9,1.4c-0.5,0.9-0.9,2-1,3c-0.1,1,0,2,0.4,3c0.2,0.5,0.5,0.9,0.8,1.4
				c0.2,0.2,0.3,0.4,0.5,0.6l0.3,0.3c0.1,0.1,0.2,0.2,0.3,0.3c0.4,0.4,0.8,0.7,1.2,1.1c0.4,0.3,0.9,0.6,1.4,0.8c1,0.4,2,0.6,3.1,0.5
				c1.1,0,2.1-0.3,3.2-0.7c0.5-0.2,1-0.4,1.5-0.7c0.5-0.3,1-0.6,1.4-0.9l1.4-1.1l0,1.8c0,1.7,0.1,3.4,0.3,5.1c0.2,1.7,0.4,3.4,0.8,5
				c0.4,1.6,0.9,3.3,1.6,4.8c0.4,0.8,0.7,1.5,1.2,2.1c0.4,0.7,1,1.2,1.7,1.6c1.4,0.8,3,1.2,4.7,1.5c1.7,0.3,3.4,0.3,5.1,0.3
				c1.7,0,3.4-0.1,5.2-0.3C134.9,76,136.6,75.8,138.3,75.5z"/>
		</g>
		<g>
			<path class="st4" d="M57,73.4c0,0,0.1-0.3,0.2-0.9c0.1-0.6,0.3-1.4,0.4-2.4c0.1-0.5,0.1-1,0.2-1.6c0-0.6,0.1-1.2,0.1-1.8
				c0-0.6,0-1.2,0-1.9c0-0.6-0.1-1.3-0.2-1.9c-0.1-0.7-0.2-1.3-0.3-1.9c-0.1-0.6-0.3-1.2-0.4-1.8c-0.2-0.6-0.4-1.2-0.5-1.7
				c-0.1-0.5-0.4-1-0.5-1.5c-0.2-0.5-0.3-0.9-0.5-1.3c-0.2-0.4-0.3-0.7-0.4-1c-0.2-0.5-0.4-0.8-0.4-0.8s0.2,0.3,0.5,0.8
				c0.2,0.2,0.4,0.5,0.6,0.9c0.2,0.3,0.4,0.8,0.7,1.2c0.2,0.5,0.5,0.9,0.7,1.5c0.2,0.5,0.5,1.1,0.7,1.7c0.2,0.6,0.4,1.2,0.5,1.9
				c0.1,0.7,0.3,1.3,0.4,2c0.1,0.7,0.2,1.4,0.1,2c0,0.7,0,1.3,0,2c0,0.6-0.1,1.2-0.2,1.8c-0.1,0.6-0.2,1.1-0.4,1.6
				c-0.2,1-0.6,1.8-0.8,2.3C57.2,73.1,57,73.4,57,73.4z"/>
		</g>
		<path class="st5" d="M93.4,65.1c0,0-13.1,25.4-21.4,1.7C72,66.8,84.8,104.2,93.4,65.1z"/>
		<path class="st5" d="M56.5,62.4c0,0-15.4,41.8-30.2,0c-0.6-1.6-0.8,0-0.8,0s15.5,55.2,31-1.6"/>
		<g>
			<path class="st6" d="M93.4,47.1c0,0-0.3,0.2-1,0.5c-0.6,0.3-1.5,0.7-2.6,1.2c-1.1,0.4-2.4,0.9-3.8,1.3c-1.4,0.4-2.9,0.8-4.4,1.2
				c-0.7,0.2-1.4,0.3-2.1,0.5c-0.3,0.1-0.6,0.2-0.9,0.3c-0.1,0-0.3,0.1-0.5,0.2l-0.4,0.2c-1.2,0.6-2.3,1.3-3.4,1.8
				c-0.5,0.3-1.1,0.5-1.5,0.7c-0.5,0.2-0.9,0.3-1.2,0.4c-0.7,0.2-1.1,0.1-1.1,0.1s0.3-0.2,0.9-0.7c0.5-0.4,1.2-1.1,2-1.9
				c0.8-0.8,1.8-1.8,3.1-2.7c0.2-0.1,0.4-0.3,0.5-0.3c0.2-0.1,0.3-0.2,0.5-0.3c0.4-0.2,0.8-0.4,1.2-0.5c0.8-0.3,1.6-0.5,2.4-0.7
				c1.5-0.3,3-0.6,4.5-0.8c1.4-0.2,2.8-0.4,4-0.4c1.2-0.1,2.2-0.1,2.9-0.1C93,47,93.4,47.1,93.4,47.1z"/>
		</g>
		<g>
			<path class="st6" d="M34.2,43.2c0,0-0.9,0.5-2.6,1.4c-0.8,0.4-1.8,1-3,1.6c-1.2,0.6-2.4,1.3-3.8,2.1c-1.4,0.8-2.8,1.8-4.1,3
				c-0.6,0.6-1.2,1.3-1.6,2.1c-0.3,0.8-0.5,1.8-0.6,2.7c-0.2,1.9-0.1,4,0.3,6c0.4,2,1.3,3.9,2.3,5.7c2.1,3.6,5.1,6.7,7.4,10
				c1.2,1.6,2.2,3.3,2.9,5.1c0.7,1.7,1.2,3.5,1.2,5.1c0,0.8-0.1,1.6-0.3,2.3c-0.3,0.7-0.7,1.3-1.1,1.8c-0.5,0.5-1,0.8-1.4,1.2
				c-0.5,0.3-0.9,0.6-1.3,0.9c-0.8,0.5-1.5,0.7-2,0.8c-0.5,0.1-0.8,0-0.8,0s0.3,0,0.8-0.1c0.5-0.1,1.2-0.4,1.9-0.9
				c0.7-0.5,1.7-1.2,2.6-2.1c0.9-0.9,1.3-2.3,1.2-3.9c-0.1-1.6-0.6-3.2-1.3-4.8c-0.7-1.6-1.7-3.3-2.9-4.9c-2.3-3.2-5.4-6.2-7.6-10
				c-1.1-1.9-1.9-3.9-2.4-6c-0.4-2.1-0.5-4.2-0.3-6.3c0.1-1,0.3-2,0.7-3c0.4-0.9,1.1-1.7,1.8-2.3c1.4-1.2,2.9-2.2,4.3-2.9
				c1.4-0.8,2.7-1.4,3.9-2c1.2-0.6,2.2-1,3-1.4C33.3,43.6,34.2,43.2,34.2,43.2z"/>
		</g>
		<g>
			<path class="st6" d="M34.1,94.5c0,0-0.1,0-0.3,0.1c-0.2,0-0.5,0.1-0.9,0c-0.4,0-0.8-0.2-1.2-0.4c-0.4-0.2-0.8-0.5-1.1-0.8
				c-0.2-0.1-0.3-0.3-0.5-0.4c-0.2-0.1-0.3-0.2-0.5-0.3c-0.3-0.2-0.7-0.4-1-0.7c-0.6-0.4-0.8-0.9-0.8-0.9s0.4,0.2,1,0.4
				c0.3,0.1,0.7,0.2,1.1,0.4c0.2,0.1,0.5,0.2,0.6,0.3c0.2,0.2,0.4,0.3,0.6,0.4c0.3,0.3,0.6,0.6,0.9,0.8c0.3,0.2,0.6,0.4,0.9,0.6
				C33.7,94.4,34.1,94.5,34.1,94.5z"/>
		</g>
		<g>
			<path class="st6" d="M28.4,87.3c0,0,0.5-0.2,1.2-0.3c0.7-0.1,1.7-0.2,2.6-0.1c0.9,0.1,1.9,0.3,2.5,0.6c0.7,0.2,1.1,0.5,1.1,0.5
				s-0.5,0.1-1.2,0c-0.7,0-1.6-0.1-2.5-0.1c-0.9-0.1-1.8-0.2-2.5-0.3C28.9,87.5,28.4,87.3,28.4,87.3z"/>
		</g>
		<g>
			<path class="st6" d="M34.7,84.9c0,0-0.4,0.1-1,0.2c-0.6,0-1.3,0-2.1-0.2c-0.7-0.2-1.5-0.5-1.9-0.9c-0.5-0.3-0.7-0.7-0.7-0.7
				s0.4,0,0.9,0.1c0.5,0.1,1.2,0.3,1.9,0.4c0.7,0.2,1.4,0.4,1.9,0.6C34.3,84.7,34.7,84.9,34.7,84.9z"/>
		</g>
		<g>
			<path class="st6" d="M25.9,81c0,0,0.2-0.4,0.6-0.8c0.4-0.5,0.9-1,1.4-1.6c0.5-0.5,1.1-1,1.6-1.4c0.2-0.1,0.4-0.3,0.5-0.4
				c0.1-0.1,0.1-0.2,0.1-0.2c0,0,0.1,0.1,0.1,0.3c0,0.2-0.1,0.5-0.2,0.8c-0.3,0.5-0.8,1.1-1.3,1.7c-0.6,0.5-1.2,1-1.7,1.3
				C26.4,80.9,25.9,81,25.9,81z"/>
		</g>
		<g>
			<path class="st6" d="M28.5,73.4c0,0-0.4,0.3-1,0.6c-0.6,0.4-1.4,0.9-2.2,1.4c-0.9,0.5-1.8,0.9-2.6,1c-0.4,0.1-0.7,0.1-0.9,0.1
				c-0.2,0-0.3,0-0.3,0s0.1-0.1,0.3-0.2c0.2-0.1,0.5-0.2,0.8-0.4c0.6-0.3,1.4-0.8,2.3-1.3c0.8-0.5,1.8-0.9,2.5-1.1
				C28,73.4,28.5,73.4,28.5,73.4z"/>
		</g>
		<g>
			<path class="st6" d="M20.4,73.3c0,0,0.1-0.5,0.4-1.2c0.3-0.7,0.7-1.5,1.2-2.4c0.5-0.8,1.1-1.6,1.6-2.1c0.5-0.6,0.9-0.9,0.9-0.9
				s-0.1,0.5-0.4,1.2c-0.3,0.7-0.7,1.5-1.2,2.4c-0.5,0.8-1.1,1.6-1.6,2.1C20.8,72.9,20.4,73.3,20.4,73.3z"/>
		</g>
		<g>
			<path class="st6" d="M23.3,63.7c0,0-0.5,0.2-1.2,0.5c-0.7,0.3-1.6,0.7-2.6,1.1c-1,0.4-2,0.7-2.8,0.8c-0.8,0.1-1.4,0-1.4,0
				s0.5-0.2,1.2-0.6c0.7-0.3,1.6-0.8,2.6-1.2c1-0.4,2-0.7,2.8-0.7C22.7,63.6,23.3,63.7,23.3,63.7z"/>
		</g>
		<g>
			<path class="st6" d="M15,58.7c0,0,0.3-0.2,0.8-0.3c0.5-0.1,1.2-0.3,1.8-0.4c0.7-0.1,1.3-0.1,1.8-0.1c0.5,0,0.9,0.1,0.9,0.1
				s-0.3,0.3-0.8,0.5c-0.5,0.2-1.2,0.5-1.8,0.6c-0.7,0.1-1.4,0-1.9-0.1C15.4,58.8,15,58.7,15,58.7z"/>
		</g>
		<g>
			<path class="st6" d="M21.4,55.3c0,0-0.4,0-0.9-0.1c-0.5-0.1-1.2-0.4-1.8-0.7c-0.6-0.4-1.2-0.8-1.5-1.2c-0.4-0.4-0.6-0.7-0.6-0.7
				s0.4,0.1,0.9,0.2c0.5,0.2,1.1,0.5,1.7,0.8c0.6,0.3,1.2,0.7,1.6,1.1C21.1,55,21.4,55.3,21.4,55.3z"/>
		</g>
		<g>
			<path class="st6" d="M18.6,49.4c0,0,0.1-0.1,0.3-0.2c0.2-0.1,0.5,0,0.9,0c0.7,0.1,1.5,0.3,2.3,0.5c0.8,0.2,1.7,0.4,2.3,0.6
				c0.6,0.2,1.1,0.4,1.1,0.4s-0.4,0.1-1.1,0.2c-0.7,0.1-1.6,0-2.5-0.2c-0.9-0.2-1.7-0.5-2.3-0.9c-0.3-0.2-0.5-0.3-0.7-0.4
				C18.7,49.4,18.6,49.4,18.6,49.4z"/>
		</g>
		<g>
			<path class="st6" d="M26.9,49.4c0,0-0.1-0.3-0.4-0.7c-0.2-0.2-0.3-0.4-0.5-0.6c-0.2-0.2-0.4-0.5-0.6-0.8
				c-0.2-0.3-0.4-0.5-0.5-0.8c-0.1-0.1-0.2-0.3-0.2-0.4c-0.1-0.1-0.1-0.2-0.2-0.4c-0.2-0.5-0.3-0.8-0.3-0.8s0.3,0.1,0.8,0.5
				c0.1,0.1,0.2,0.2,0.3,0.3c0.1,0.1,0.2,0.2,0.3,0.3c0.2,0.2,0.4,0.5,0.6,0.8c0.2,0.3,0.4,0.6,0.5,0.9c0.1,0.3,0.3,0.6,0.3,0.8
				c0.1,0.3,0.1,0.5,0,0.7C26.9,49.4,26.9,49.4,26.9,49.4z"/>
		</g>
		<g>
			<path class="st6" d="M27.5,43.5c0,0,0.3,0,0.8,0.1c0.5,0.1,1,0.1,1.7,0.3c0.1,0,0.3,0.1,0.5,0.2c0.2,0.1,0.3,0.2,0.4,0.2
				c0.3,0.2,0.5,0.4,0.7,0.6c0.3,0.4,0.3,0.8,0.3,0.8s-0.3-0.2-0.7-0.4c-0.2-0.1-0.4-0.2-0.7-0.3c-0.1,0-0.3-0.1-0.4-0.1
				c-0.1,0-0.3-0.1-0.4-0.1c-0.6-0.2-1.2-0.4-1.6-0.7C27.6,43.9,27.5,43.5,27.5,43.5z"/>
		</g>
		<g>
			<path class="st6" d="M61.2,7.8c0,0,0.4,1.4,1.2,3.7c0.7,2.4,1.8,5.8,2.5,10c0.2,1.1,0.4,2.2,0.5,3.3c0.1,1.2,0.2,2.3,0.3,3.6
				c0.1,2.5,0.1,5.1-0.1,7.7c-0.3,5.3-1.2,11-2.1,16.6c-0.4,2.8-0.9,5.6-1.2,8.4c-0.4,2.8-0.6,5.5-0.7,8.1c0,1.3-0.1,2.6-0.1,3.9
				c0,1.3,0,2.5,0.1,3.7c0.2,2.4,0.5,4.7,0.9,6.8c0.8,4.2,1.9,7.5,2.8,9.8c0.5,1.2,0.8,2.1,1.1,2.7c0.3,0.6,0.4,0.9,0.4,0.9
				s-0.2-0.3-0.5-0.9c-0.3-0.6-0.7-1.5-1.2-2.6c-1-2.3-2.3-5.6-3.2-9.8c-0.5-2.1-0.8-4.4-1.1-6.8c-0.1-1.2-0.2-2.5-0.2-3.8
				c-0.1-1.3,0-2.6,0-3.9c0.1-2.7,0.3-5.4,0.7-8.2c0.3-2.8,0.7-5.6,1.2-8.4c0.9-5.6,1.8-11.2,2.2-16.5c0.2-2.6,0.2-5.2,0.2-7.6
				c-0.1-1.2-0.1-2.4-0.2-3.5c-0.1-1.1-0.3-2.2-0.4-3.3c-0.7-4.2-1.5-7.6-2.2-10C61.6,9.2,61.2,7.8,61.2,7.8z"/>
		</g>
		<g>
			<path class="st6" d="M67.3,90.5c0,0-0.4,0.3-1,0.5c-0.6,0.2-1.5,0.4-2.4,0.4c-0.9,0-1.7-0.1-2.4-0.3c-0.6-0.2-1-0.4-1-0.4
				s0.4-0.1,1.1-0.1c0.6,0,1.5-0.1,2.3-0.1c0.8,0,1.6,0,2.3,0C66.9,90.4,67.3,90.5,67.3,90.5z"/>
		</g>
		<g>
			<path class="st6" d="M60,88.2c0,0,0.3-0.4,0.9-0.8c0.6-0.4,1.5-0.8,2.4-1.2c0.9-0.4,1.7-0.7,2.3-1.1c0.3-0.2,0.6-0.3,0.7-0.4
				c0.2-0.1,0.3-0.2,0.3-0.2s0,0.1-0.1,0.3c-0.1,0.2-0.3,0.5-0.5,0.8c-0.2,0.3-0.6,0.6-1,0.9c-0.4,0.3-0.8,0.5-1.3,0.7
				c-0.9,0.4-1.8,0.6-2.5,0.8C60.5,88,60,88.2,60,88.2z"/>
		</g>
		<g>
			<path class="st6" d="M64.8,80c0,0-0.2,0.3-0.7,0.6c-0.5,0.3-1.2,0.6-1.9,0.6c-0.7,0.1-1.5,0-2-0.3c-0.5-0.2-0.8-0.4-0.8-0.4
				s0.4-0.1,0.9-0.1c0.5-0.1,1.2-0.1,1.9-0.2c0.7-0.1,1.3-0.1,1.9-0.2C64.4,80,64.8,80,64.8,80z"/>
		</g>
		<g>
			<path class="st6" d="M59.3,77.3c0,0,0.2-0.3,0.6-0.7c0.4-0.4,1-0.8,1.6-1.1c0.6-0.3,1.2-0.6,1.7-0.8c0.5-0.2,0.9-0.2,0.9-0.2
				s-0.2,0.3-0.6,0.7c-0.4,0.4-0.9,0.8-1.5,1.2c-0.6,0.4-1.3,0.6-1.8,0.8C59.6,77.3,59.3,77.3,59.3,77.3z"/>
		</g>
		<g>
			<path class="st6" d="M63.7,70.6c0,0-0.4-0.2-0.8-0.5c-0.5-0.3-1-0.8-1.5-1.3c-0.5-0.5-1-1.1-1.3-1.6c-0.3-0.5-0.5-0.8-0.5-0.8
				s0.4,0.1,0.9,0.4c0.5,0.3,1.1,0.8,1.6,1.3c0.5,0.5,1,1.2,1.2,1.7C63.6,70.2,63.7,70.6,63.7,70.6z"/>
		</g>
		<g>
			<path class="st6" d="M60.3,61.3c0,0,0.2-0.2,0.5-0.4c0.3-0.2,0.7-0.3,1.2-0.3c0.4,0,0.9,0.1,1.2,0.3c0.3,0.2,0.5,0.4,0.5,0.4
				s-0.2,0.1-0.6,0.2c-0.3,0.1-0.7,0.1-1.1,0.1c-0.4,0-0.8,0-1.1-0.1C60.6,61.4,60.3,61.3,60.3,61.3z"/>
		</g>
		<g>
			<path class="st6" d="M65.6,57.6c0,0-0.4-0.1-0.8-0.3c-0.5-0.2-1-0.5-1.5-0.9c-0.5-0.4-0.9-0.9-1.2-1.3c-0.3-0.4-0.4-0.7-0.4-0.7
				s0.4,0.1,0.8,0.3c0.5,0.2,1,0.5,1.5,0.9c0.5,0.4,0.9,0.9,1.2,1.3C65.5,57.2,65.6,57.6,65.6,57.6z"/>
		</g>
		<g>
			<path class="st6" d="M60.9,49.2c0,0,0.4-0.1,0.9-0.2c0.6-0.1,1.3,0,2,0.2c0.7,0.2,1.4,0.5,1.9,0.8c0.5,0.3,0.7,0.6,0.7,0.6
				s-0.4,0-0.9-0.1c-0.5-0.1-1.2-0.2-1.9-0.4c-0.7-0.2-1.3-0.4-1.8-0.6C61.2,49.4,60.9,49.2,60.9,49.2z"/>
		</g>
		<g>
			<path class="st6" d="M66.8,46.5c0,0-0.4,0-0.9-0.1c-0.5-0.1-1.1-0.3-1.8-0.6c-0.6-0.2-1.2-0.5-1.7-0.8c-0.4-0.3-0.7-0.5-0.7-0.5
				s0.4-0.1,0.9-0.1c0.5,0,1.2,0.2,1.9,0.4c0.6,0.3,1.2,0.6,1.6,1C66.6,46.2,66.8,46.5,66.8,46.5z"/>
		</g>
		<g>
			<path class="st6" d="M62.3,41.7c0,0,0.3-0.2,0.8-0.4c0.5-0.2,1.1-0.4,1.7-0.6c0.6-0.2,1.2-0.3,1.7-0.4c0.5-0.1,0.9-0.1,0.9-0.1
				s-0.2,0.3-0.6,0.6c-0.4,0.3-1,0.6-1.7,0.8c-0.7,0.2-1.3,0.3-1.9,0.2C62.6,41.8,62.3,41.7,62.3,41.7z"/>
		</g>
		<g>
			<path class="st6" d="M67.7,36.3c0,0-0.3,0.2-0.7,0.4c-0.4,0.2-1.1,0.4-1.7,0.5c-0.6,0.1-1.3,0.1-1.7,0C63,37.2,62.7,37,62.7,37
				s0.3-0.2,0.7-0.4c0.4-0.2,1.1-0.4,1.7-0.5c0.6-0.1,1.3-0.1,1.7,0C67.4,36.2,67.7,36.3,67.7,36.3z"/>
		</g>
		<g>
			<path class="st6" d="M62.8,34c0,0,0.3-0.3,0.8-0.7c0.5-0.4,1.2-0.8,1.9-1.1c0.7-0.3,1.5-0.6,2.1-0.8c0.6-0.1,1-0.2,1-0.2
				s-0.3,0.3-0.8,0.7c-0.5,0.4-1.2,0.8-1.9,1.1c-0.7,0.3-1.5,0.6-2.1,0.7C63.3,34,62.8,34,62.8,34z"/>
		</g>
		<g>
			<path class="st6" d="M67.3,26c0,0-0.4,0.2-0.9,0.4c-0.5,0.2-1.3,0.4-2,0.5c-0.7,0.1-1.5,0.2-2,0.2c-0.6,0-1,0-1,0
				s0.3-0.3,0.8-0.5c0.5-0.3,1.3-0.5,2-0.6c0.8-0.1,1.5-0.1,2.1-0.1C66.9,25.9,67.3,26,67.3,26z"/>
		</g>
		<g>
			<path class="st6" d="M61.9,24.5c0,0,0.4-0.3,0.9-0.6c0.6-0.3,1.4-0.7,2.2-1c0.4-0.1,0.8-0.3,1.2-0.3c0.4-0.1,0.8-0.2,1.1-0.2
				c0.3,0,0.5-0.1,0.7-0.2c0.1-0.1,0.2-0.2,0.2-0.2c0,0,0,0.1-0.1,0.3c-0.1,0.2-0.3,0.5-0.6,0.6c-0.3,0.2-0.6,0.3-1,0.5
				c-0.4,0.2-0.8,0.3-1.2,0.5c-0.8,0.3-1.6,0.5-2.3,0.5C62.3,24.5,61.9,24.5,61.9,24.5z"/>
		</g>
		<g>
			<path class="st6" d="M66,17.5c0,0-0.4,0.1-1,0.2c-0.6,0.1-1.3,0.1-2.1,0.1c-0.8,0-1.5-0.2-2.1-0.3c-0.6-0.2-0.9-0.3-0.9-0.3
				s0.4-0.1,1-0.2c0.6-0.1,1.3-0.1,2.1-0.1c0.8,0,1.5,0.2,2.1,0.3C65.6,17.3,66,17.5,66,17.5z"/>
		</g>
		<g>
			<path class="st6" d="M59.1,14.1c0,0,0.3-0.2,0.8-0.4c0.5-0.2,1.1-0.4,1.7-0.5c0.6-0.1,1.3-0.1,1.8-0.1c0.5,0,0.8,0.1,0.8,0.1
				s-0.3,0.2-0.8,0.4c-0.5,0.2-1.1,0.4-1.7,0.5c-0.6,0.1-1.3,0.1-1.8,0.1C59.5,14.2,59.1,14.1,59.1,14.1z"/>
		</g>
		<g>
			<path class="st6" d="M68.5,28.6c0,0-0.3,0.3-1,0.6c-0.6,0.3-1.5,0.5-2.3,0.6c-0.9,0.1-1.8,0-2.4-0.2c-0.6-0.2-1-0.4-1-0.4
				s0.4-0.1,1.1-0.2c0.6-0.1,1.5-0.2,2.3-0.2c0.8-0.1,1.6-0.1,2.3-0.2C68.1,28.5,68.5,28.6,68.5,28.6z"/>
		</g>
		<ellipse class="st7" cx="37" cy="30.1" rx="2.2" ry="2.6"/>
		<ellipse class="st8" cx="48.5" cy="36.3" rx="2" ry="2.3"/>
		<ellipse class="st9" cx="46.6" cy="21.9" rx="3.6" ry="4.4"/>
		<ellipse class="st10" cx="99" cy="83.4" rx="3.6" ry="4.4"/>
		<ellipse class="st9" cx="89.1" cy="93.9" rx="2.3" ry="2.8"/>
		<path class="st3" d="M93.4,64.5c0,0-2.3-13.2-11-13.2c-7.9,0-11,13.2-11,13.2s3.3,13.2,11,13.2C91.1,77.8,93.4,64.5,93.4,64.5z"/>
		<path class="st11" d="M92.1,64.5c0,0-2-11.7-9.7-11.7c-7,0-9.7,11.7-9.7,11.7s2.9,11.7,9.7,11.7C90.1,76.2,92.1,64.5,92.1,64.5z"
			/>
		<path class="st12" d="M90.4,66.9c0.5-1.5,0.5-3.2,0-4.8c-1-3-3.3-7.9-8-7.9c-4.1,0-6.5,4.5-7.7,7.5c-0.7,1.8-0.7,3.8,0,5.6
			c1.2,3.1,3.7,7.5,7.7,7.5C87.1,74.9,89.4,70,90.4,66.9z"/>
		<g>
			<path class="st13" d="M88.4,58c-0.4,0.2-0.8,0.4-1.3,0.6l0.1-0.2l0.7,0.8l0.2,0.2l-0.2,0.1c-1,0.4-2,0.9-3,1.2l0.1-0.3
				c0.3,0.5,0.6,1.1,0.9,1.6l0.1,0.3l-0.3,0c-0.7-0.1-1.4-0.1-2.1-0.3C84.3,62,85,62,85.7,62l-0.2,0.3c-0.3-0.5-0.7-1-1-1.5
				l-0.1-0.2l0.3-0.1c1-0.4,2-0.8,3.1-1.2l-0.1,0.3L87,58.6l-0.1-0.2l0.2,0C87.5,58.2,88,58.1,88.4,58z"/>
		</g>
		<g>
			<path class="st13" d="M86.7,63.4c0.1-0.4,0.3-0.8,0.5-1.2l0.1,0.3c-0.3-0.2-0.6-0.5-0.9-0.7l-0.1-0.1l0,0
				c-0.1-0.5-0.2-0.9-0.3-1.4c0.3,0.4,0.5,0.8,0.7,1.3l-0.1-0.1c0.3,0.2,0.6,0.5,0.9,0.7l0.2,0.1l-0.1,0.1
				C87.3,62.8,87.1,63.1,86.7,63.4z"/>
		</g>
		<g>
			<path class="st13" d="M82.1,54.2c-0.8,1.2-1.6,2.3-2.4,3.4l-0.2-0.3c0.9-0.1,1.7-0.2,2.6-0.3l0.7-0.1l-0.5,0.5
				c-0.7,0.7-1.3,1.3-2,2l0-0.3c0.2,0.4,0.4,0.8,0.5,1.2l-0.1-0.1c0.8,0.6,1.7,1.2,2.5,1.9c-0.9-0.5-1.8-1-2.7-1.6l0,0l0,0
				c-0.2-0.4-0.4-0.8-0.6-1.2l-0.1-0.1l0.1-0.1c0.7-0.7,1.3-1.4,2-2l0.2,0.4c-0.9,0.1-1.7,0.2-2.6,0.2l-0.5,0l0.3-0.4
				C80.3,56.3,81.2,55.3,82.1,54.2z"/>
		</g>
		<g>
			<path class="st13" d="M78.6,60.9c0.1-0.2,0.3-0.5,0.4-0.7l0,0.1c-0.3-0.5-0.7-1.1-1-1.6l-0.1-0.2l0.3-0.1c0.5-0.2,1-0.3,1.5-0.4
				l-0.1,0.4c-0.4-0.4-0.8-0.8-1.2-1.1L78.1,57l0.3-0.1c0.8-0.3,1.6-0.6,2.4-0.9c-0.7,0.5-1.4,0.9-2.2,1.2l0.1-0.4
				c0.4,0.4,0.8,0.7,1.3,1.1l0.3,0.3l-0.4,0.1c-0.5,0.1-1,0.3-1.5,0.4l0.1-0.3c0.3,0.6,0.5,1.1,0.8,1.7l0,0.1l0,0
				C79,60.5,78.8,60.7,78.6,60.9z"/>
		</g>
		<g>
			<path class="st13" d="M90.6,66.2c-0.8-0.3-1.7-0.6-2.5-0.9l0.3-0.1c-0.2,0.4-0.5,0.7-0.7,1.1l-0.1,0.2l-0.2-0.1
				c-0.4-0.2-0.7-0.4-1.1-0.5l0.3-0.2c-0.1,0.4-0.2,0.9-0.3,1.3l-0.1,0.2l-0.2-0.1c-0.6-0.4-1.3-0.7-1.9-1.1c0.7,0.2,1.4,0.5,2,0.8
				L85.8,67c0.1-0.5,0.2-0.9,0.3-1.4l0.1-0.3l0.3,0.1c0.4,0.2,0.7,0.4,1.1,0.5l-0.3,0.1c0.3-0.4,0.5-0.7,0.8-1.1l0.1-0.1l0.2,0.1
				C89,65.3,89.8,65.7,90.6,66.2z"/>
		</g>
		<g>
			<path class="st13" d="M87.1,68.4c0.2-0.1,0.4-0.3,0.6-0.4l-0.1,0.1c0-0.2-0.1-0.4-0.1-0.6l0-0.1l0.1-0.1c0.2-0.3,0.4-0.6,0.7-0.9
				l-0.1,0.1c0-0.5,0.1-0.9,0.2-1.4c0.1,0.5,0.2,0.9,0.2,1.4l0,0.1l-0.1,0.1c-0.2,0.3-0.4,0.6-0.7,0.8l0-0.1c0,0.2,0,0.4-0.1,0.6
				l0,0.1l-0.1,0C87.6,68.3,87.3,68.4,87.1,68.4z"/>
		</g>
		<g>
			<path class="st13" d="M79.6,74.1c-0.1-0.4-0.2-0.8-0.2-1.2l0-0.1l0.1,0c0.5-0.2,0.9-0.4,1.4-0.6l-0.1,0.3c-0.3-0.4-0.7-0.8-1-1.3
				L79.7,71l0-0.1c0.1-0.5,0.2-1,0.3-1.4l0,0.2c-0.3-0.4-0.6-0.8-0.8-1.2l-0.1-0.2l0.2-0.1c0.5-0.2,1-0.4,1.5-0.5
				c-0.5,0.3-0.9,0.6-1.4,0.8l0.1-0.2c0.3,0.4,0.6,0.7,1,1.1l0.1,0.1l0,0.1c-0.1,0.5-0.1,1-0.2,1.4l0-0.2c0.3,0.4,0.6,0.9,0.9,1.3
				l0.2,0.2L81,72.5c-0.5,0.2-1,0.3-1.5,0.5l0.1-0.1C79.6,73.2,79.6,73.6,79.6,74.1z"/>
		</g>
		<g>
			<path class="st13" d="M82.2,69.7c-0.1,0.4-0.2,0.9-0.3,1.3l-0.1,0.4L81.5,71c-0.3-0.3-0.5-0.6-0.7-1l0.3,0
				c-0.3,0.2-0.6,0.4-0.9,0.6c0.2-0.3,0.4-0.6,0.7-0.9l0.1-0.2l0.2,0.2c0.3,0.3,0.5,0.6,0.8,1l-0.4,0C81.6,70.4,81.9,70,82.2,69.7z"
				/>
		</g>
		<g>
			<path class="st13" d="M79.3,65.7c-0.1,0.3-0.2,0.4-0.3,0.6l0.1-0.5c0.3,0.2,0.6,0.4,0.8,0.7l0.3,0.3l-0.2,0.3
				c-0.1,0.2-0.3,0.4-0.4,0.5l0-0.4c0.1,0.3,0.1,0.6,0.1,1c-0.4-0.2-0.6-0.4-0.8-0.6l-0.1-0.1l0.1-0.3c0.1-0.2,0.2-0.4,0.3-0.6
				l0,0.6c-0.2-0.3-0.4-0.6-0.6-0.9l-0.2-0.4l0.2-0.1C78.8,65.7,79,65.7,79.3,65.7z"/>
		</g>
		<g>
			<path class="st13" d="M86.4,73.4c-0.2-0.6-0.3-1.2-0.5-1.8l0.2,0.2c-0.6-0.1-1.2-0.2-1.8-0.3l-0.2,0l0-0.2c0-0.8,0.1-1.6,0.2-2.4
				c0.1,0.8,0.2,1.6,0.2,2.4L84.4,71c0.6,0.1,1.2,0.2,1.8,0.4l0.2,0l0,0.1C86.5,72.1,86.5,72.7,86.4,73.4z"/>
		</g>
		<g>
			<path class="st13" d="M83,69.3c0.2,0.3,0.3,0.7,0.4,1l-0.3-0.2c0.1-0.1,0.3-0.2,0.4-0.2l0.2-0.1l0.1,0.2c0.3,0.4,0.5,0.8,0.6,1.3
				c-0.4-0.3-0.7-0.6-1-1l0.3,0.1c-0.1,0.1-0.3,0.1-0.4,0.2L83,70.6l0-0.3C82.9,70,82.9,69.6,83,69.3z"/>
		</g>
		<g>
			<path class="st13" d="M74.3,63.1c0.5-0.1,1-0.2,1.5-0.2l0.2,0l0.1,0.2c0.1,0.5,0.2,0.9,0.3,1.4L76,64.3c0.5-0.3,1-0.5,1.6-0.7
				c-0.4,0.4-0.9,0.8-1.4,1.1L76,64.9l-0.1-0.3c-0.1-0.5-0.2-0.9-0.3-1.4l0.2,0.2C75.3,63.3,74.8,63.3,74.3,63.1z"/>
		</g>
		<g>
			<path class="st13" d="M77.6,61.1c-0.4-0.1-0.7-0.3-1.1-0.5l0.3-0.1c-0.1,0.5-0.1,0.9-0.3,1.4l0,0.2l-0.2,0c-0.3,0-0.5,0-0.8,0
				l0.2-0.2c-0.1,0.4-0.2,0.8-0.4,1.2c-0.1-0.4-0.1-0.9-0.1-1.3l0-0.2l0.2,0c0.3,0,0.5,0,0.8,0l-0.2,0.2c0.1-0.5,0.2-0.9,0.4-1.4
				l0.1-0.3l0.2,0.2C77.1,60.6,77.4,60.8,77.6,61.1z"/>
		</g>
		<path class="st14" d="M84.7,65.8l0.9,1.5c0.4-0.8,0.7-1.8,0.7-2.8c0-1.9-0.8-3.5-2.1-4.4L83.1,61c0,0,0-0.7,0.1-1.4
			c-0.4-0.1-0.7-0.2-1.1-0.2c-1.8,0-3.3,1.3-4,3.2l1,1.9L78,65.8c0.5,2.2,2.1,3.8,4.1,3.8c1.3,0,2.4-0.7,3.2-1.7L84.7,65.8z"/>
		<ellipse class="st15" cx="82.2" cy="64.5" rx="1.9" ry="2.2"/>
		<path class="st3" d="M56.5,62.4c0,0-3.2-18.6-15.5-18.6c-11.1,0-15.5,18.6-15.5,18.6S30.1,81,41,81C53.2,81,56.5,62.4,56.5,62.4z"
			/>
		<path class="st11" d="M54.6,62.4c0,0-3.1-16.4-13.9-16.4c-9.8,0-13.4,16.4-13.4,16.4s3.8,17.2,13.4,17.2
			C51.5,79.6,54.6,62.4,54.6,62.4z"/>
		<path class="st12" d="M52.2,65.7c0.7-2.2,0.7-4.5,0-6.7c-1.4-4.3-4.9-11.9-11.5-11.9c-5.7,0-8.8,7-10.5,11.3c-1,2.5-1,5.4,0,7.9
			c1.7,4.3,5.2,12.4,10.8,12.4C47.5,78.8,50.8,70,52.2,65.7z"/>
		<g>
			<path class="st13" d="M49.5,53.2c-0.6,0.3-1.2,0.6-1.8,0.8l0.1-0.2l1,1.2l0.2,0.2l-0.2,0.1c-1.4,0.6-2.8,1.2-4.3,1.7l0.1-0.3
				c0.4,0.7,0.8,1.5,1.2,2.2l0.2,0.3l-0.3,0c-1-0.1-2-0.2-2.9-0.3c1,0,2-0.1,3,0l-0.2,0.3c-0.5-0.7-0.9-1.4-1.4-2.2l-0.1-0.2
				l0.3-0.1c1.4-0.6,2.8-1.1,4.3-1.6l-0.1,0.3L47.5,54l-0.1-0.2l0.2-0.1C48.2,53.6,48.9,53.4,49.5,53.2z"/>
		</g>
		<g>
			<path class="st13" d="M47.1,60.9c0.2-0.6,0.4-1.1,0.7-1.7l0.1,0.3c-0.4-0.3-0.9-0.7-1.3-1l-0.1,0l0-0.1c-0.2-0.6-0.4-1.3-0.5-2
				c0.4,0.6,0.6,1.2,0.9,1.8l-0.1-0.1c0.4,0.3,0.9,0.7,1.3,1l0.1,0.1l-0.1,0.1C47.9,59.9,47.5,60.4,47.1,60.9z"/>
		</g>
		<g>
			<path class="st13" d="M40.6,47.9c-1.1,1.6-2.3,3.2-3.4,4.8L37,52.3l3.6-0.4l0.7-0.1l-0.5,0.5c-0.9,0.9-1.9,1.9-2.8,2.8l0-0.2
				c0.3,0.6,0.5,1.1,0.8,1.7l-0.1-0.1c1.2,0.8,2.4,1.7,3.5,2.5c-1.3-0.7-2.5-1.5-3.7-2.2l0,0l0,0c-0.3-0.5-0.6-1.1-0.9-1.6l-0.1-0.1
				l0.1-0.1c0.9-0.9,1.9-1.9,2.8-2.8l0.2,0.4L37,52.7l-0.5,0l0.3-0.4C38.1,50.9,39.3,49.4,40.6,47.9z"/>
		</g>
		<g>
			<path class="st13" d="M35.6,57.3c0.2-0.3,0.4-0.7,0.7-1l0,0.1c-0.5-0.8-0.9-1.5-1.4-2.3l-0.1-0.2l0.3-0.1
				c0.7-0.2,1.4-0.4,2.1-0.6L37,53.7c-0.6-0.5-1.1-1.1-1.7-1.6l-0.2-0.2l0.3-0.1c1.1-0.4,2.2-0.9,3.3-1.3c-1,0.6-2.1,1.1-3.1,1.7
				l0.1-0.4c0.6,0.5,1.2,1,1.8,1.5l0.3,0.3l-0.4,0.1c-0.7,0.2-1.4,0.4-2.1,0.5l0.1-0.3c0.4,0.8,0.8,1.6,1.2,2.4l0,0.1l0,0
				C36.2,56.7,35.9,57,35.6,57.3z"/>
		</g>
		<g>
			<path class="st13" d="M52.5,64.7c-1.2-0.4-2.3-0.9-3.5-1.3l0.3-0.1c-0.3,0.5-0.7,1-1.1,1.5L48.1,65l-0.2-0.1l-1.5-0.8l0.3-0.2
				c-0.2,0.6-0.3,1.3-0.5,1.9l-0.1,0.2L46,66c-0.9-0.5-1.8-1-2.7-1.5c1,0.3,1.9,0.7,2.8,1.2l-0.3,0.1c0.1-0.6,0.2-1.3,0.4-1.9
				l0.1-0.3l0.3,0.1l1.5,0.8l-0.3,0.1c0.4-0.5,0.7-1,1.1-1.5l0.1-0.1l0.2,0.1C50.3,63.5,51.4,64.1,52.5,64.7z"/>
		</g>
		<g>
			<path class="st13" d="M47.6,67.8c0.3-0.2,0.6-0.3,0.9-0.5l-0.1,0.1c0-0.3-0.1-0.6-0.1-0.8l0-0.1l0.1-0.1c0.3-0.4,0.6-0.8,1-1.2
				l-0.1,0.1c0-0.6,0.1-1.3,0.2-1.9c0.1,0.6,0.2,1.3,0.2,1.9l0,0.1l-0.1,0.1c-0.3,0.4-0.6,0.8-1,1.2l0-0.1c0,0.3,0,0.6-0.1,0.8
				l0,0.1l-0.1,0C48.3,67.7,47.9,67.7,47.6,67.8z"/>
		</g>
		<g>
			<path class="st13" d="M37,75.8c-0.1-0.6-0.2-1.2-0.3-1.7l0-0.1l0.1,0c0.7-0.3,1.3-0.6,2-0.9l-0.1,0.3c-0.5-0.6-0.9-1.2-1.4-1.8
				l-0.1-0.1l0-0.1l0.4-2l0,0.2c-0.4-0.5-0.8-1.1-1.2-1.7l-0.1-0.2l0.2-0.1c0.7-0.3,1.4-0.5,2.1-0.8c-0.6,0.4-1.3,0.7-2,1.1l0.1-0.2
				c0.4,0.5,0.9,1,1.3,1.6l0.1,0.1l0,0.1l-0.3,2l0-0.2c0.4,0.6,0.9,1.2,1.3,1.8l0.2,0.2L39,73.4c-0.7,0.2-1.4,0.5-2,0.7L37,74
				C37,74.6,37,75.2,37,75.8z"/>
		</g>
		<g>
			<path class="st13" d="M40.7,69.6c-0.1,0.6-0.3,1.2-0.5,1.7L40,71.8l-0.3-0.3c-0.4-0.5-0.7-0.9-1-1.4l0.3,0
				c-0.4,0.3-0.8,0.6-1.3,0.9c0.3-0.4,0.6-0.8,1-1.2l0.2-0.2l0.2,0.2c0.4,0.4,0.7,0.9,1.1,1.4l-0.4,0C40,70.7,40.3,70.1,40.7,69.6z"
				/>
		</g>
		<g>
			<path class="st13" d="M36.6,64c-0.2,0.3-0.4,0.5-0.6,0.8l0.1-0.5c0.4,0.3,0.8,0.6,1.1,1l0.3,0.3l-0.2,0.3
				c-0.2,0.3-0.4,0.5-0.6,0.7l0-0.4c0.1,0.4,0.3,0.9,0.3,1.4c-0.4-0.3-0.7-0.6-1-1l-0.1-0.1l0.1-0.3c0.1-0.3,0.3-0.6,0.4-0.8l0,0.6
				c-0.3-0.4-0.6-0.8-0.9-1.2l-0.2-0.4l0.3-0.1C36,64.1,36.3,64.1,36.6,64z"/>
		</g>
		<g>
			<path class="st13" d="M46.7,74.8c-0.2-0.8-0.4-1.7-0.5-2.5l0.2,0.2c-0.9-0.1-1.7-0.3-2.6-0.4l-0.2,0l0-0.2c0-1.1,0.1-2.3,0.2-3.4
				c0.1,1.1,0.2,2.3,0.2,3.4l-0.2-0.2c0.9,0.1,1.7,0.3,2.6,0.5l0.2,0l0,0.1C46.6,73.1,46.7,73.9,46.7,74.8z"/>
		</g>
		<g>
			<path class="st13" d="M41.8,69c0.2,0.5,0.4,0.9,0.5,1.4L42,70.3c0.2-0.1,0.4-0.2,0.5-0.3l0.2-0.1l0.1,0.2
				c0.4,0.5,0.7,1.1,0.9,1.8c-0.5-0.4-1-0.9-1.4-1.5l0.3,0.1c-0.2,0.1-0.4,0.2-0.6,0.3l-0.3,0.1l0-0.3C41.8,70,41.8,69.5,41.8,69z"
				/>
		</g>
		<g>
			<path class="st13" d="M29.6,60.4c0.7-0.1,1.5-0.2,2.2-0.2l0.2,0l0,0.2c0.2,0.7,0.3,1.3,0.4,2l-0.3-0.2c0.7-0.4,1.4-0.7,2.2-1
				c-0.6,0.5-1.3,1-2,1.4l-0.3,0.2L32,62.4c-0.2-0.7-0.3-1.3-0.4-2l0.2,0.2C31.1,60.6,30.3,60.5,29.6,60.4z"/>
		</g>
		<g>
			<path class="st13" d="M34.3,57.6c-0.5-0.2-1-0.5-1.4-0.7l0.3-0.1c-0.1,0.7-0.2,1.3-0.4,1.9l0,0.2l-0.2,0c-0.4,0-0.7,0-1.1,0
				l0.2-0.2c-0.1,0.6-0.2,1.2-0.4,1.8c0-0.6,0-1.2,0-1.8l0-0.2l0.2,0c0.4,0,0.7,0,1.1,0l-0.2,0.2c0.1-0.6,0.3-1.3,0.5-1.9l0.1-0.3
				l0.2,0.2C33.5,56.9,33.9,57.2,34.3,57.6z"/>
		</g>
		<path class="st14" d="M44.3,64.2l1.3,2.2c0.6-1.1,1-2.5,1-4c0-2.6-1.2-4.9-2.9-6.2L42,57.4c0,0,0.1-1,0.1-2
			c-0.5-0.2-1-0.3-1.6-0.3c-2.5,0-4.7,1.9-5.6,4.5l1.4,2.7l-1.6,1.8c0.7,3.1,3,5.4,5.8,5.4c1.8,0,3.4-0.9,4.5-2.4L44.3,64.2z"/>
		<ellipse class="st15" cx="40.7" cy="62.4" rx="2.6" ry="3.1"/>
		<g>
			<path class="st4" d="M68,73.4c0,0-0.4-1.4-0.6-3.5c-0.1-1.1-0.1-2.3,0.1-3.6c0.1-0.7,0.2-1.4,0.3-2c0.2-0.7,0.3-1.4,0.6-2.1
				c0.2-0.7,0.5-1.4,0.8-2c0.2-0.3,0.3-0.6,0.5-0.9c0.2-0.3,0.4-0.6,0.6-0.9c0.2-0.3,0.4-0.6,0.5-0.8c0.2-0.2,0.4-0.5,0.6-0.7
				c0.2-0.2,0.4-0.5,0.6-0.7c0.2-0.2,0.4-0.4,0.6-0.6c0.4-0.4,0.8-0.7,1.1-0.9c0.4-0.2,0.7-0.4,0.9-0.6c0.5-0.3,0.8-0.5,0.8-0.5
				s-0.3,0.2-0.7,0.7c-0.2,0.2-0.5,0.4-0.8,0.7c-0.3,0.3-0.6,0.7-0.9,1.1c-0.2,0.2-0.4,0.4-0.5,0.6c-0.2,0.2-0.3,0.5-0.5,0.7
				c-0.2,0.2-0.3,0.5-0.5,0.7c-0.2,0.3-0.3,0.5-0.5,0.8c-0.2,0.3-0.3,0.6-0.5,0.8c-0.1,0.3-0.3,0.6-0.4,0.9
				c-0.3,0.6-0.5,1.3-0.7,1.9c-0.2,0.6-0.4,1.3-0.6,2c-0.1,0.7-0.3,1.3-0.4,2c-0.1,0.6-0.2,1.3-0.2,1.9C68,68.8,68,69.4,68,69.9
				c0,1-0.1,1.9,0,2.5C67.9,73,68,73.4,68,73.4z"/>
		</g>
		<g>
			<path class="st1" d="M120.3,83.2c0,0,0.2-0.7,0.6-1.8c0.4-1.1,0.9-2.5,1.4-3.9c0.5-1.4,1-2.8,1.5-3.8c0.4-1,0.8-1.7,0.8-1.7
				s0,0.8-0.2,1.9c-0.2,1.1-0.6,2.6-1.1,4c-0.5,1.4-1.2,2.8-1.8,3.8C120.8,82.6,120.3,83.2,120.3,83.2z"/>
		</g>
		<g>
			<path class="st1" d="M110.6,81.2c0,0,0.4-0.9,1.1-2.3c0.7-1.3,1.9-3.1,3.1-4.6c0.3-0.4,0.7-0.8,1-1.1c0.3-0.4,0.7-0.7,1-1
				c0.7-0.7,1.3-1.3,1.9-1.8c0.6-0.5,1-0.9,1.4-1.2c0.3-0.3,0.5-0.4,0.5-0.4s-0.1,0.2-0.4,0.6c-0.3,0.4-0.6,0.9-1.1,1.5
				c-0.5,0.6-1,1.3-1.6,2c-0.3,0.4-0.6,0.7-1,1.1c-0.3,0.4-0.7,0.7-1,1.1c-1.3,1.5-2.5,3.1-3.4,4.3c-0.5,0.6-0.9,1.1-1.1,1.4
				C110.8,81,110.6,81.2,110.6,81.2z"/>
		</g>
		<g>
			<path class="st1" d="M118.7,64c0,0-0.5,0.5-1.4,1.1c-0.8,0.6-2,1.5-3.2,2.2c-1.2,0.7-2.4,1.4-3.4,1.9c-0.9,0.5-1.6,0.7-1.6,0.7
				s0.5-0.5,1.3-1.2c0.8-0.7,2-1.5,3.2-2.3c1.2-0.8,2.5-1.4,3.4-1.9C118,64.3,118.7,64,118.7,64z"/>
		</g>
		<g>
			<path class="st1" d="M104.6,67.7c0,0,0.2-0.2,0.4-0.5c0.3-0.3,0.7-0.7,1.2-1.2c1-1,2.4-2.3,3.8-3.5c1.4-1.2,2.9-2.4,4.1-3.2
				c0.6-0.4,1.1-0.7,1.3-1c0.2-0.3,0.3-0.6,0.3-0.6c0,0,0,0.2-0.1,0.7c-0.2,0.4-0.6,0.9-1.1,1.4c-1,1-2.4,2.3-3.8,3.5
				c-1.4,1.2-2.9,2.3-4.1,3.2c-0.6,0.4-1.1,0.7-1.4,1C104.8,67.6,104.6,67.7,104.6,67.7z"/>
		</g>
		<g>
			<path class="st1" d="M109.8,52c0,0-0.4,0.7-1,1.7c-0.7,1-1.6,2.3-2.6,3.6c-1,1.2-2.1,2.4-2.9,3.3c-0.8,0.9-1.5,1.4-1.5,1.4
				s0.4-0.7,1-1.7c0.7-1,1.6-2.3,2.6-3.6c1-1.2,2.1-2.4,2.9-3.3C109.2,52.6,109.8,52,109.8,52z"/>
		</g>
		<g>
			<path class="st1" d="M97.3,57.8c0,0,0.1-0.5,0.2-1.2c0.2-0.7,0.4-1.6,0.7-2.5c0.1-0.2,0.2-0.5,0.3-0.7c0.1-0.2,0.3-0.4,0.4-0.6
				c0.3-0.4,0.6-0.7,0.9-1c0.5-0.5,1-0.8,1-0.8s-0.2,0.5-0.5,1.1c-0.2,0.3-0.4,0.7-0.6,1.1c-0.1,0.2-0.2,0.4-0.3,0.6
				c-0.1,0.2-0.2,0.4-0.2,0.6c-0.1,0.4-0.3,0.9-0.5,1.3c-0.2,0.4-0.4,0.8-0.6,1.1C97.7,57.4,97.3,57.8,97.3,57.8z"/>
		</g>
		<g>
			<path class="st1" d="M101.4,47.4c0,0-0.5,0.3-1.4,0.6c-0.9,0.3-2,0.5-3.2,0.6c-1.2,0.1-2.4,0.1-3.3,0c-0.9-0.1-1.5-0.3-1.5-0.3
				s0.6-0.2,1.5-0.3c0.9-0.1,2.1-0.3,3.2-0.4c1.2-0.1,2.3-0.2,3.2-0.2C100.8,47.4,101.4,47.4,101.4,47.4z"/>
		</g>
		<g>
			<path class="st1" d="M90.2,46.5c0,0,0.3-0.6,0.9-1.5c0.3-0.4,0.6-0.9,1-1.5c0.2-0.2,0.4-0.5,0.6-0.8l0.1-0.1l0-0.1l0,0l0,0
				c0,0-0.1,0.1,0,0.1l0,0l0,0l0.1-0.2l0.2-0.5c0.1-0.2,0.2-0.6,0.4-0.9c0.1-0.3,0.3-0.6,0.4-0.9c0.3-0.6,0.6-1.1,1-1.5
				c0.6-0.8,1.2-1.3,1.2-1.3s-0.3,0.7-0.7,1.6c-0.2,0.5-0.4,1-0.7,1.6c-0.1,0.3-0.2,0.6-0.4,0.9c-0.1,0.3-0.2,0.6-0.4,1l-0.2,0.5
				L93.6,43l0,0l-0.1,0.1l0,0l0,0l0,0l-0.1,0.1c-0.2,0.3-0.4,0.5-0.7,0.8c-0.4,0.5-0.9,0.9-1.2,1.3C90.8,46.1,90.2,46.5,90.2,46.5z"
				/>
		</g>
		<g>
			<path class="st1" d="M90.2,33.3c0,0,0.1,0.6-0.2,1.5c-0.1,0.5-0.3,1-0.5,1.5c-0.2,0.5-0.5,1.1-0.8,1.6c-0.2,0.3-0.3,0.5-0.5,0.8
				c-0.2,0.2-0.4,0.5-0.6,0.7c-0.4,0.4-0.9,0.7-1.4,0.9c-0.5,0.2-0.9,0.2-1.1,0.2c-0.3,0-0.4-0.1-0.4-0.1s0.6-0.1,1.3-0.7
				c0.3-0.3,0.7-0.6,1-1c0.3-0.4,0.6-0.9,0.9-1.4c0.3-0.5,0.6-1,0.9-1.5c0.3-0.5,0.6-0.9,0.8-1.3C89.9,33.9,90.2,33.3,90.2,33.3z"/>
		</g>
		<g>
			<path class="st1" d="M84.9,30.7c0,0,0.1,0,0.4-0.1c0.2,0,0.5-0.1,0.9-0.2c0.7-0.2,1.6-0.5,2.6-0.8c1-0.3,2-0.5,2.9-0.4
				c0.4,0,0.7,0.1,1,0.2c0.2,0.1,0.3,0.1,0.3,0.1s-0.1,0-0.4,0.1c-0.2,0-0.5,0.1-0.9,0.2C90.9,30,90,30.3,89,30.6
				c-1,0.3-2,0.5-2.8,0.4c-0.4,0-0.8-0.1-1-0.2C85,30.8,84.9,30.7,84.9,30.7z"/>
		</g>
		<g>
			<path class="st1" d="M89.1,23.5c0,0-0.3,0.5-0.8,1.3c-0.5,0.7-1.3,1.6-2.2,2.4c-0.9,0.8-1.8,1.5-2.6,2c-0.4,0.2-0.8,0.4-1,0.4
				c-0.3,0.1-0.4,0-0.4,0s0.5-0.3,1.1-0.9c0.6-0.6,1.4-1.5,2.3-2.3c0.9-0.8,1.8-1.6,2.5-2.1C88.5,23.8,89.1,23.5,89.1,23.5z"/>
		</g>
		<g>
			<path class="st1" d="M78,28c0,0,0.3-0.5,0.7-1.1c0.5-0.6,1.1-1.5,1.9-2.2c0.7-0.8,1.5-1.5,2.1-2c0.6-0.5,1.1-0.8,1.1-0.8
				s-0.2,0.5-0.7,1.2c-0.4,0.7-1.1,1.5-1.8,2.3c-0.7,0.8-1.5,1.5-2.2,1.9C78.5,27.8,78,28,78,28z"/>
		</g>
		<g>
			<path class="st1" d="M82.3,19.3c0,0-0.2,0.4-0.8,0.9c-0.3,0.2-0.6,0.4-1,0.6c-0.2,0.1-0.4,0.2-0.6,0.3c-0.2,0.1-0.4,0.1-0.7,0.2
				c-0.9,0.2-1.9,0.1-2.6-0.1c-0.7-0.2-1.1-0.5-1.1-0.5s0.5,0,1.1-0.1c0.7-0.1,1.5-0.2,2.3-0.3c0.8-0.2,1.6-0.4,2.3-0.6
				c0.3-0.1,0.6-0.2,0.8-0.3C82.2,19.3,82.3,19.3,82.3,19.3z"/>
		</g>
		<g>
			<path class="st1" d="M76.2,17.6c0,0,0.5-0.3,1.2-0.6c0.8-0.3,1.8-0.7,2.8-1c1-0.3,2.1-0.6,2.9-0.8c0.8-0.2,1.4-0.2,1.4-0.2
				s-0.4,0.4-1.2,0.8c-0.7,0.4-1.7,0.9-2.8,1.2c-1,0.3-2.1,0.6-2.9,0.6C76.8,17.6,76.2,17.6,76.2,17.6z"/>
		</g>
		<g>
			<path class="st1" d="M79,11.6c0,0-0.3,0.5-0.9,1.2c-0.6,0.7-1.4,1.5-2.4,2.1c-0.9,0.7-2,1.3-2.8,1.6c-0.8,0.4-1.4,0.5-1.4,0.5
				s0.4-0.4,1.1-1c0.7-0.6,1.6-1.3,2.5-2c0.9-0.7,1.9-1.3,2.6-1.8C78.4,11.8,79,11.6,79,11.6z"/>
		</g>
		<polygon class="st4" points="129.9,84.2 89.5,108.2 85.7,111.5 125.2,90 		"/>
		<polygon class="st4" points="18,97.5 16.3,93.9 36.7,107.1 41,111.3 		"/>
		<polygon class="st4" points="81.6,111.4 68,73.4 78.4,111.4 		"/>
		<polygon class="st4" points="44.2,111.4 47.5,111.4 57,73.4 		"/>
		<polygon class="st16" points="109.3,100.6 75.5,116.4 42.4,115.9 24.4,104.3 35.8,123.6 52.2,144.8 69.3,138.1 82.4,125 		"/>
		<g>
			<path class="st17" d="M41.7,141.2c0,0-0.1-14.2,2.9-16.5c0,0,2,2.3-0.5,16.8L41.7,141.2z"/>
			<path class="st18" d="M41.7,141.2c-0.1-1.4-0.1-2.8-0.1-4.3c0-1.4,0.1-2.9,0.2-4.3c0.1-1.4,0.3-2.9,0.6-4.3
				c0.2-0.7,0.3-1.4,0.6-2.1c0.3-0.7,0.6-1.4,1.3-2l0.4-0.3l0.3,0.4c0.2,0.3,0.2,0.4,0.3,0.6c0.1,0.2,0.1,0.4,0.2,0.6
				c0.1,0.4,0.2,0.7,0.2,1.1c0.1,0.7,0.1,1.4,0.2,2.2c0,0.7,0,1.4,0,2.1c0,0.7-0.1,1.4-0.2,2.1c-0.1,0.7-0.2,1.4-0.3,2.1
				c-0.1,0.7-0.2,1.4-0.3,2.1c-0.1,0.7-0.2,1.4-0.4,2.1l-0.4,2.1l0,0.1l-0.1,0C43.3,141.5,42.5,141.4,41.7,141.2z M41.7,141.2
				c0.8,0,1.6,0.1,2.4,0.1l-0.2,0.1l0.5-4.2c0.2-1.4,0.3-2.8,0.3-4.2c0.1-1.4,0.1-2.8,0.1-4.2c0-0.7-0.1-1.4-0.2-2.1
				c0-0.3-0.1-0.7-0.2-1c0-0.2-0.1-0.3-0.1-0.5c0-0.1-0.1-0.3-0.1-0.3l0.7,0.1c-0.2,0.2-0.4,0.4-0.6,0.7c-0.2,0.3-0.3,0.6-0.4,0.9
				c-0.2,0.6-0.4,1.3-0.6,2c-0.3,1.4-0.6,2.7-0.8,4.1c-0.2,1.4-0.3,2.8-0.5,4.2C41.9,138.4,41.8,139.8,41.7,141.2z"/>
		</g>
		<g>
			<path class="st17" d="M46,141.6c0,0-2.5-13.8-0.1-17c0,0,2.4,1.7,2.4,16.5L46,141.6z"/>
			<path class="st18" d="M46,141.6c-0.4-1.4-0.6-2.8-0.9-4.2c-0.1-0.7-0.2-1.4-0.3-2.1c-0.1-0.7-0.2-1.4-0.2-2.2
				c-0.1-0.7-0.1-1.4-0.1-2.2c0-0.7,0-1.5,0-2.2c0-0.4,0.1-0.7,0.1-1.1c0-0.4,0.1-0.7,0.2-1.1c0-0.4,0.2-0.7,0.3-1.1
				c0.1-0.4,0.4-0.7,0.6-1.1l0.2-0.5l0.4,0.4c0.2,0.1,0.2,0.2,0.3,0.3c0.1,0.1,0.1,0.2,0.2,0.3c0.1,0.2,0.2,0.3,0.3,0.5
				c0.2,0.3,0.3,0.7,0.4,1c0.2,0.7,0.4,1.4,0.5,2.1c0.1,0.7,0.2,1.4,0.3,2.1c0.1,0.7,0.2,1.4,0.2,2.1c0.1,1.4,0.1,2.8,0.2,4.2
				c0,0.7,0,1.4,0,2.1l-0.1,2.1l0,0.1l-0.1,0C47.6,141.4,46.8,141.5,46,141.6z M46,141.6c0.8-0.2,1.6-0.4,2.3-0.6l-0.1,0.1l-0.3-4.2
				c0-0.7-0.1-1.4-0.2-2.1c-0.1-0.7-0.2-1.4-0.2-2.1c-0.2-1.4-0.4-2.8-0.6-4.1c-0.1-0.7-0.3-1.3-0.5-2c-0.1-0.3-0.2-0.6-0.4-0.9
				c-0.1-0.1-0.1-0.3-0.2-0.4c0-0.1-0.1-0.1-0.1-0.2c0,0-0.1-0.1-0.1-0.1l0.7-0.1c-0.1,0.3-0.3,0.5-0.4,0.8c-0.1,0.3-0.2,0.6-0.3,1
				c-0.1,0.3-0.1,0.7-0.2,1c0,0.3-0.1,0.7-0.1,1c-0.1,1.4-0.1,2.8,0,4.3c0,1.4,0.2,2.9,0.3,4.3C45.7,138.8,45.9,140.2,46,141.6z"/>
		</g>
		<g>
			<path class="st17" d="M47.7,141.5c0,0-1.1-14.1,1.6-16.9c0,0,2.2,2,0.8,16.8L47.7,141.5z"/>
			<path class="st18" d="M47.7,141.5c-0.2-1.4-0.3-2.9-0.4-4.3c-0.1-0.7-0.1-1.4-0.1-2.2c0-0.7,0-1.4,0-2.2c0-0.7,0-1.4,0.1-2.2
				c0-0.7,0.1-1.4,0.2-2.2c0-0.4,0.1-0.7,0.2-1.1c0.1-0.4,0.2-0.7,0.3-1.1c0.1-0.4,0.3-0.7,0.4-1.1c0.1-0.4,0.4-0.7,0.7-1l0.3-0.4
				l0.4,0.4c0.1,0.2,0.2,0.2,0.2,0.3c0.1,0.1,0.1,0.2,0.1,0.3c0.1,0.2,0.2,0.4,0.2,0.5c0.1,0.4,0.2,0.7,0.3,1.1
				c0.1,0.7,0.2,1.4,0.3,2.2c0.1,0.7,0.1,1.4,0.1,2.1c0,0.7,0,1.4,0,2.1c0,0.7,0,1.4-0.1,2.1c-0.1,0.7-0.1,1.4-0.2,2.1
				c-0.1,0.7-0.1,1.4-0.2,2.1l-0.3,2.1l0,0.1l-0.1,0C49.4,141.5,48.6,141.5,47.7,141.5z M47.7,141.5c0.8-0.1,1.6-0.2,2.4-0.3
				l-0.1,0.1l0.2-4.2c0-1.4,0-2.8,0-4.2c0-1.4-0.1-2.8-0.2-4.2c-0.1-0.7-0.2-1.4-0.3-2c-0.1-0.3-0.2-0.7-0.3-1
				c-0.1-0.1-0.1-0.3-0.2-0.4c0-0.1-0.2-0.3-0.2-0.3l0.7,0c-0.2,0.3-0.4,0.4-0.5,0.8c-0.1,0.3-0.3,0.6-0.4,0.9
				c-0.1,0.3-0.2,0.6-0.3,1c-0.1,0.3-0.2,0.7-0.2,1c-0.1,0.7-0.2,1.4-0.3,2.1c-0.1,0.7-0.1,1.4-0.2,2.1c-0.1,1.4-0.1,2.9-0.2,4.3
				C47.7,138.6,47.7,140,47.7,141.5z"/>
		</g>
		<g>
			<path class="st17" d="M49.5,141.3c0,0-0.3-14.2,2.6-16.6c0,0,2.1,2.3-0.3,16.8L49.5,141.3z"/>
			<path class="st18" d="M49.5,141.3c-0.1-1.4-0.2-2.9-0.2-4.3c0-1.4,0-2.9,0.1-4.3c0.1-1.4,0.2-2.9,0.5-4.3
				c0.1-0.7,0.3-1.4,0.6-2.1c0.3-0.7,0.6-1.4,1.3-2l0.4-0.3l0.3,0.4c0.2,0.3,0.2,0.4,0.3,0.6c0.1,0.2,0.1,0.4,0.2,0.6
				c0.1,0.4,0.2,0.7,0.2,1.1c0.1,0.7,0.2,1.4,0.2,2.2c0,0.7,0,1.4,0,2.2c0,0.7-0.1,1.4-0.1,2.1c-0.1,0.7-0.1,1.4-0.2,2.1
				c-0.1,0.7-0.2,1.4-0.3,2.1c-0.1,0.7-0.2,1.4-0.3,2.1l-0.4,2.1l0,0.1l-0.1,0C51.1,141.5,50.3,141.4,49.5,141.3z M49.5,141.3
				c0.8,0,1.6,0,2.4,0l-0.1,0.1l0.4-4.2c0.1-1.4,0.2-2.8,0.3-4.2c0.1-1.4,0.1-2.8,0-4.2c0-0.7-0.1-1.4-0.2-2.1
				c-0.1-0.3-0.1-0.7-0.2-1c-0.1-0.1-0.1-0.3-0.1-0.5c0-0.1-0.1-0.1-0.1-0.2c0-0.1-0.1-0.1-0.1-0.1l0.7,0.1
				c-0.2,0.2-0.4,0.4-0.6,0.7c-0.2,0.3-0.3,0.6-0.4,0.9c-0.2,0.6-0.4,1.3-0.6,2c-0.3,1.4-0.5,2.8-0.7,4.2c-0.2,1.4-0.3,2.8-0.4,4.2
				C49.6,138.5,49.5,139.9,49.5,141.3z"/>
		</g>
		<g>
			<path class="st17" d="M52.3,141.5c0,0-1.3-14.1,1.4-16.9c0,0,2.2,2,1,16.7L52.3,141.5z"/>
			<path class="st18" d="M52.3,141.5c-0.2-1.4-0.4-2.9-0.5-4.3c-0.1-0.7-0.1-1.4-0.1-2.2c0-0.7,0-1.4-0.1-2.2c0-0.7,0-1.4,0-2.2
				c0-0.7,0.1-1.5,0.2-2.2c0-0.4,0.1-0.7,0.2-1.1c0-0.4,0.2-0.7,0.3-1.1c0.1-0.4,0.2-0.7,0.4-1.1c0.1-0.4,0.4-0.7,0.7-1l0.3-0.4
				l0.4,0.4c0.2,0.2,0.2,0.2,0.2,0.3c0.1,0.1,0.1,0.2,0.1,0.3c0.1,0.2,0.2,0.4,0.2,0.5c0.1,0.4,0.2,0.7,0.3,1.1
				c0.2,0.7,0.3,1.4,0.3,2.1c0.1,0.7,0.1,1.4,0.2,2.1c0,0.7,0,1.4,0,2.1c0,0.7,0,1.4-0.1,2.1c0,0.7-0.1,1.4-0.1,2.1
				c-0.1,0.7-0.1,1.4-0.2,2.1l-0.3,2.1l0,0.1l-0.1,0C53.9,141.5,53.1,141.5,52.3,141.5z M52.3,141.5c0.8-0.1,1.6-0.2,2.4-0.3
				l-0.1,0.1l0.1-4.2c0-0.7,0-1.4,0-2.1c0-0.7,0-1.4,0-2.1c0-1.4-0.1-2.8-0.3-4.2c-0.1-0.7-0.2-1.4-0.3-2c-0.1-0.3-0.2-0.7-0.3-1
				c-0.1-0.1-0.1-0.3-0.2-0.4c0-0.1-0.2-0.3-0.2-0.3l0.7,0l-0.3,0.4c-0.1,0.1-0.2,0.2-0.2,0.4c-0.1,0.3-0.3,0.6-0.4,0.9
				c-0.1,0.3-0.2,0.7-0.3,1c-0.1,0.3-0.2,0.7-0.2,1c-0.2,1.4-0.3,2.8-0.4,4.2c-0.1,1.4-0.1,2.9-0.1,4.3
				C52.2,138.6,52.3,140.1,52.3,141.5z"/>
		</g>
		<g>
			<path class="st17" d="M54.3,141.2c0,0,0-14.2,2.9-16.5c0,0,2,2.4-0.5,16.8L54.3,141.2z"/>
			<path class="st18" d="M54.3,141.2c-0.1-1.4-0.1-2.8-0.1-4.3c0-1.4,0.1-2.9,0.2-4.3c0.1-1.4,0.3-2.9,0.6-4.3
				c0.2-0.7,0.3-1.4,0.6-2.1c0.3-0.7,0.6-1.4,1.3-2l0.4-0.3l0.3,0.4c0.2,0.3,0.2,0.4,0.3,0.6c0.1,0.2,0.1,0.4,0.2,0.6
				c0.1,0.4,0.2,0.7,0.2,1.1c0.1,0.7,0.1,1.4,0.2,2.2c0,0.7,0,1.4,0,2.1c0,0.7-0.1,1.4-0.2,2.1c-0.1,0.7-0.2,1.4-0.3,2.1
				c-0.1,0.7-0.2,1.4-0.3,2.1c-0.1,0.7-0.2,1.4-0.4,2.1l-0.5,2.1l0,0.1l-0.1,0C55.9,141.5,55.1,141.4,54.3,141.2z M54.3,141.2
				c0.8,0,1.6,0.1,2.4,0.1l-0.2,0.1l0.5-4.2c0.2-1.4,0.3-2.8,0.4-4.2c0.1-1.4,0.1-2.8,0.1-4.2c0-0.7-0.1-1.4-0.2-2.1
				c0-0.3-0.1-0.7-0.2-1c0-0.2-0.1-0.3-0.1-0.5c0-0.1-0.1-0.3-0.1-0.3l0.7,0.1c-0.2,0.2-0.4,0.4-0.6,0.7c-0.2,0.3-0.3,0.6-0.4,0.9
				c-0.3,0.6-0.5,1.3-0.6,2c-0.3,1.3-0.6,2.7-0.8,4.1c-0.2,1.4-0.3,2.8-0.5,4.2C54.5,138.4,54.4,139.8,54.3,141.2z"/>
		</g>
		<g>
			<path class="st17" d="M58.7,141.2c0,0,0.1-14.2,3.1-16.5c0,0,2,2.4-0.7,16.8L58.7,141.2z"/>
			<path class="st18" d="M58.7,141.2c-0.1-1.4-0.1-2.8-0.1-4.3c0-1.4,0.1-2.8,0.2-4.3c0.1-1.4,0.3-2.8,0.6-4.3
				c0.2-0.7,0.4-1.4,0.6-2.1c0.3-0.7,0.6-1.4,1.3-2l0.4-0.3l0.3,0.4c0.2,0.3,0.2,0.4,0.3,0.6c0.1,0.2,0.1,0.4,0.2,0.6
				c0.1,0.4,0.1,0.7,0.2,1.1c0.1,0.7,0.1,1.5,0.1,2.2c0,0.7,0,1.4-0.1,2.1c0,0.7-0.1,1.4-0.2,2.1c-0.1,0.7-0.2,1.4-0.3,2.1
				c-0.1,0.7-0.2,1.4-0.3,2.1c-0.1,0.7-0.2,1.4-0.4,2.1l-0.5,2.1l0,0.1l-0.1,0C60.3,141.5,59.5,141.4,58.7,141.2z M58.7,141.2
				c0.8,0,1.6,0.1,2.4,0.2l-0.2,0.1l0.5-4.2c0.2-1.4,0.3-2.8,0.4-4.2c0.1-1.4,0.2-2.8,0.1-4.2c0-0.7-0.1-1.4-0.2-2.1
				c0-0.3-0.1-0.7-0.2-1c0-0.2-0.1-0.3-0.1-0.5c0-0.1-0.1-0.3-0.1-0.3l0.7,0.1c-0.4,0.3-0.8,0.9-1,1.5c-0.3,0.6-0.5,1.3-0.6,2
				c-0.3,1.3-0.6,2.7-0.8,4.1c-0.2,1.4-0.4,2.8-0.5,4.2C58.9,138.4,58.8,139.8,58.7,141.2z"/>
		</g>
		<g>
			<path class="st17" d="M60.7,139.4c0,0,2.2-14,5.5-15.6c0,0,1.6,2.8-3.1,16.4L60.7,139.4z"/>
			<path class="st18" d="M60.7,139.4c0.1-1.4,0.3-2.8,0.6-4.2c0.2-1.4,0.5-2.8,0.9-4.1c0.3-1.4,0.7-2.7,1.3-4.1
				c0.3-0.7,0.6-1.3,0.9-2c0.4-0.6,0.8-1.3,1.6-1.7l0.4-0.2l0.2,0.4c0.2,0.5,0.2,0.8,0.3,1.2c0,0.4,0,0.7,0,1.1
				c0,0.7-0.1,1.4-0.2,2.2c-0.1,0.7-0.2,1.4-0.4,2.1c-0.1,0.7-0.3,1.4-0.5,2.1c-0.4,1.4-0.8,2.7-1.2,4c-0.2,0.7-0.4,1.3-0.7,2
				l-0.8,2l-0.1,0.1l-0.1,0C62.2,140,61.5,139.7,60.7,139.4z M60.7,139.4c0.8,0.2,1.6,0.4,2.4,0.6l-0.2,0.1l1.1-4
				c0.4-1.3,0.7-2.7,1-4.1c0.3-1.4,0.6-2.7,0.7-4.1c0.1-0.7,0.1-1.4,0.2-2c0-0.3,0-0.7,0-1c0-0.3-0.1-0.7-0.2-0.8l0.6,0.2
				c-0.5,0.2-0.9,0.8-1.2,1.3c-0.3,0.6-0.6,1.2-0.9,1.8c-0.5,1.3-1,2.6-1.4,3.9c-0.4,1.3-0.8,2.7-1.1,4
				C61.3,136.7,61,138,60.7,139.4z"/>
		</g>
		<g>
			<path class="st17" d="M67.6,140.2c0,0-1.1-14.1,1.6-16.9c0,0,2.2,2,0.8,16.8L67.6,140.2z"/>
			<path class="st18" d="M67.6,140.2c-0.2-1.4-0.3-2.9-0.4-4.3c-0.1-0.7-0.1-1.4-0.1-2.2c0-0.7,0-1.4,0-2.2c0-0.7,0-1.4,0.1-2.2
				c0-0.7,0.1-1.4,0.2-2.2c0-0.4,0.1-0.7,0.2-1.1c0.1-0.4,0.2-0.7,0.3-1.1c0.1-0.4,0.3-0.7,0.4-1.1c0.1-0.4,0.4-0.7,0.7-1l0.3-0.4
				l0.4,0.4c0.1,0.2,0.2,0.2,0.2,0.3c0.1,0.1,0.1,0.2,0.1,0.3c0.1,0.2,0.2,0.4,0.2,0.5c0.1,0.4,0.2,0.7,0.3,1.1
				c0.1,0.7,0.2,1.4,0.3,2.2c0.1,0.7,0.1,1.4,0.1,2.1c0,0.7,0,1.4,0,2.1c0,0.7,0,1.4-0.1,2.1c-0.1,0.7-0.1,1.4-0.2,2.1
				c-0.1,0.7-0.1,1.4-0.2,2.1l-0.3,2.1l0,0.1l-0.1,0C69.2,140.2,68.4,140.2,67.6,140.2z M67.6,140.2c0.8-0.1,1.6-0.2,2.4-0.3
				l-0.1,0.1l0.2-4.2c0-1.4,0-2.8,0-4.2c0-1.4-0.1-2.8-0.2-4.2c-0.1-0.7-0.2-1.4-0.3-2c-0.1-0.3-0.2-0.7-0.3-1
				c-0.1-0.1-0.1-0.3-0.2-0.4c0-0.1-0.2-0.3-0.2-0.3l0.7,0c-0.2,0.3-0.4,0.4-0.5,0.8c-0.1,0.3-0.3,0.6-0.4,0.9
				c-0.1,0.3-0.2,0.6-0.3,1c-0.1,0.3-0.2,0.7-0.2,1c-0.1,0.7-0.2,1.4-0.3,2.1c-0.1,0.7-0.1,1.4-0.2,2.1c-0.1,1.4-0.1,2.9-0.2,4.3
				C67.5,137.3,67.6,138.8,67.6,140.2z"/>
		</g>
		<g>
			<path class="st17" d="M69.3,140c0,0-0.3-14.2,2.6-16.6c0,0,2.1,2.3-0.3,16.8L69.3,140z"/>
			<path class="st18" d="M69.3,140c-0.1-1.4-0.2-2.9-0.2-4.3c0-1.4,0-2.9,0.1-4.3c0.1-1.4,0.2-2.9,0.5-4.3c0.1-0.7,0.3-1.4,0.6-2.1
				c0.3-0.7,0.6-1.4,1.3-2l0.4-0.3l0.3,0.4c0.2,0.3,0.2,0.4,0.3,0.6c0.1,0.2,0.1,0.4,0.2,0.6c0.1,0.4,0.2,0.7,0.2,1.1
				c0.1,0.7,0.2,1.4,0.2,2.2c0,0.7,0,1.4,0,2.2c0,0.7-0.1,1.4-0.1,2.1c-0.1,0.7-0.1,1.4-0.2,2.1c-0.1,0.7-0.2,1.4-0.3,2.1
				c-0.1,0.7-0.2,1.4-0.3,2.1l-0.4,2.1l0,0.1l-0.1,0C70.9,140.3,70.1,140.1,69.3,140z M69.3,140c0.8,0,1.6,0,2.4,0l-0.1,0.1l0.4-4.2
				c0.1-1.4,0.2-2.8,0.3-4.2c0.1-1.4,0.1-2.8,0-4.2c0-0.7-0.1-1.4-0.2-2.1c-0.1-0.3-0.1-0.7-0.2-1c-0.1-0.1-0.1-0.3-0.1-0.5
				c0-0.1-0.1-0.1-0.1-0.2c0-0.1-0.1-0.1-0.1-0.1l0.7,0.1c-0.2,0.2-0.4,0.4-0.6,0.7c-0.2,0.3-0.3,0.6-0.4,0.9
				c-0.2,0.6-0.4,1.3-0.6,2c-0.3,1.4-0.5,2.8-0.7,4.2c-0.2,1.4-0.3,2.8-0.4,4.2C69.4,137.2,69.4,138.6,69.3,140z"/>
		</g>
		<g>
			<path class="st17" d="M72.1,140.2c0,0-1.3-14.1,1.4-16.9c0,0,2.2,2,1,16.7L72.1,140.2z"/>
			<path class="st18" d="M72.1,140.2c-0.2-1.4-0.4-2.9-0.5-4.3c-0.1-0.7-0.1-1.4-0.1-2.2c0-0.7,0-1.4-0.1-2.2c0-0.7,0-1.4,0-2.2
				c0-0.7,0.1-1.5,0.2-2.2c0-0.4,0.1-0.7,0.2-1.1c0-0.4,0.2-0.7,0.3-1.1c0.1-0.4,0.2-0.7,0.4-1.1c0.1-0.4,0.4-0.7,0.7-1l0.3-0.4
				l0.4,0.4c0.2,0.2,0.2,0.2,0.2,0.3c0.1,0.1,0.1,0.2,0.1,0.3c0.1,0.2,0.2,0.4,0.2,0.5c0.1,0.4,0.2,0.7,0.3,1.1
				c0.2,0.7,0.3,1.4,0.3,2.1c0.1,0.7,0.1,1.4,0.2,2.1c0,0.7,0,1.4,0,2.1c0,0.7,0,1.4-0.1,2.1c0,0.7-0.1,1.4-0.1,2.1
				c-0.1,0.7-0.1,1.4-0.2,2.1l-0.3,2.1l0,0.1l-0.1,0C73.7,140.2,72.9,140.2,72.1,140.2z M72.1,140.2c0.8-0.1,1.6-0.2,2.4-0.3
				l-0.1,0.1l0.1-4.2c0-0.7,0-1.4,0-2.1c0-0.7,0-1.4,0-2.1c0-1.4-0.1-2.8-0.3-4.2c-0.1-0.7-0.2-1.4-0.3-2c-0.1-0.3-0.2-0.7-0.3-1
				c-0.1-0.1-0.1-0.3-0.2-0.4c0-0.1-0.2-0.3-0.2-0.3l0.7,0l-0.3,0.4c-0.1,0.1-0.2,0.2-0.2,0.4c-0.1,0.3-0.3,0.6-0.4,0.9
				c-0.1,0.3-0.2,0.7-0.3,1c-0.1,0.3-0.2,0.7-0.2,1c-0.2,1.4-0.3,2.8-0.4,4.2c-0.1,1.4-0.1,2.9-0.1,4.3
				C72.1,137.4,72.1,138.8,72.1,140.2z"/>
		</g>
		<g>
			<path class="st17" d="M76.1,140.3c0,0-3.3-13.6-1-16.8c0,0,2.5,1.6,3.3,16.3L76.1,140.3z"/>
			<path class="st18" d="M76.1,140.3c-0.4-1.4-0.8-2.8-1.1-4.2c-0.2-0.7-0.3-1.4-0.4-2.1c-0.1-0.7-0.2-1.4-0.4-2.1
				c-0.1-0.7-0.2-1.4-0.3-2.1c-0.1-0.7-0.1-1.4-0.1-2.2c0-0.4,0-0.7,0-1.1c0-0.4,0.1-0.7,0.1-1.1c0-0.4,0.1-0.7,0.2-1.1
				c0.1-0.4,0.3-0.7,0.5-1.1l0.2-0.5l0.5,0.3c0.2,0.1,0.2,0.2,0.3,0.3c0.1,0.1,0.1,0.2,0.2,0.2c0.1,0.2,0.2,0.3,0.3,0.5
				c0.2,0.3,0.3,0.7,0.5,1c0.3,0.7,0.5,1.4,0.6,2.1c0.2,0.7,0.3,1.4,0.5,2.1c0.1,0.7,0.2,1.4,0.3,2.1c0.1,0.7,0.2,1.4,0.2,2.1
				c0.1,0.7,0.1,1.4,0.2,2.1c0.1,1.4,0.1,2.8,0.2,4.2l0,0.1l-0.1,0C77.7,140,76.9,140.2,76.1,140.3z M76.1,140.3
				c0.8-0.2,1.5-0.5,2.3-0.7l-0.1,0.1l-0.5-4.2c-0.1-0.7-0.2-1.4-0.3-2.1c-0.1-0.7-0.2-1.4-0.3-2.1c-0.2-1.4-0.5-2.7-0.9-4.1
				c-0.2-0.7-0.4-1.3-0.6-1.9c-0.1-0.3-0.3-0.6-0.4-0.9c-0.1-0.1-0.2-0.3-0.2-0.4c-0.1-0.1-0.2-0.3-0.2-0.3l0.7-0.1
				c-0.1,0.3-0.3,0.5-0.4,0.8c-0.1,0.3-0.2,0.6-0.2,1c0,0.3-0.1,0.7-0.1,1c0,0.3-0.1,0.7-0.1,1c0,1.4,0.1,2.8,0.2,4.2
				c0.1,1.4,0.3,2.8,0.5,4.2C75.6,137.5,75.8,138.9,76.1,140.3z"/>
		</g>
		<g>
			<path class="st17" d="M78.5,139.9c0,0,0.1-14.2,3.1-16.5c0,0,2,2.4-0.7,16.8L78.5,139.9z"/>
			<path class="st18" d="M78.5,139.9c-0.1-1.4-0.1-2.8-0.1-4.3c0-1.4,0.1-2.8,0.2-4.3c0.1-1.4,0.3-2.8,0.6-4.3
				c0.2-0.7,0.4-1.4,0.6-2.1c0.3-0.7,0.6-1.4,1.3-2l0.4-0.3l0.3,0.4c0.2,0.3,0.2,0.4,0.3,0.6c0.1,0.2,0.1,0.4,0.2,0.6
				c0.1,0.4,0.1,0.7,0.2,1.1c0.1,0.7,0.1,1.5,0.1,2.2c0,0.7,0,1.4-0.1,2.1c0,0.7-0.1,1.4-0.2,2.1c-0.1,0.7-0.2,1.4-0.3,2.1
				c-0.1,0.7-0.2,1.4-0.3,2.1c-0.1,0.7-0.2,1.4-0.4,2.1l-0.5,2.1l0,0.1l-0.1,0C80.1,140.2,79.3,140.1,78.5,139.9z M78.5,139.9
				c0.8,0,1.6,0.1,2.4,0.2l-0.2,0.1l0.5-4.2c0.2-1.4,0.3-2.8,0.4-4.2c0.1-1.4,0.2-2.8,0.1-4.2c0-0.7-0.1-1.4-0.2-2.1
				c0-0.3-0.1-0.7-0.2-1c0-0.2-0.1-0.3-0.1-0.5c0-0.1-0.1-0.3-0.1-0.3l0.7,0.1c-0.4,0.3-0.8,0.9-1,1.5c-0.3,0.6-0.5,1.3-0.6,2
				c-0.3,1.3-0.6,2.7-0.8,4.1c-0.2,1.4-0.4,2.8-0.5,4.2C78.7,137.1,78.6,138.5,78.5,139.9z"/>
		</g>
		<g>
			<path class="st17" d="M76.6,139.9c0,0,0.1-14.2,3.1-16.5c0,0,2,2.4-0.7,16.8L76.6,139.9z"/>
			<path class="st18" d="M76.6,139.9c-0.1-1.4-0.1-2.8-0.1-4.3c0-1.4,0.1-2.8,0.2-4.3c0.1-1.4,0.3-2.8,0.6-4.3
				c0.2-0.7,0.4-1.4,0.6-2.1c0.3-0.7,0.6-1.4,1.3-2l0.4-0.3l0.3,0.4c0.2,0.3,0.2,0.4,0.3,0.6c0.1,0.2,0.1,0.4,0.2,0.6
				c0.1,0.4,0.1,0.7,0.2,1.1c0.1,0.7,0.1,1.5,0.1,2.2c0,0.7,0,1.4-0.1,2.1c0,0.7-0.1,1.4-0.2,2.1c-0.1,0.7-0.2,1.4-0.3,2.1
				c-0.1,0.7-0.2,1.4-0.3,2.1c-0.1,0.7-0.2,1.4-0.4,2.1l-0.5,2.1l0,0.1l-0.1,0C78.2,140.2,77.4,140.1,76.6,139.9z M76.6,139.9
				c0.8,0,1.6,0.1,2.4,0.2l-0.2,0.1l0.5-4.2c0.2-1.4,0.3-2.8,0.4-4.2c0.1-1.4,0.2-2.8,0.1-4.2c0-0.7-0.1-1.4-0.2-2.1
				c0-0.3-0.1-0.7-0.2-1c0-0.2-0.1-0.3-0.1-0.5c0-0.1-0.1-0.3-0.1-0.3l0.7,0.1c-0.4,0.3-0.8,0.9-1,1.5c-0.3,0.6-0.5,1.3-0.6,2
				c-0.3,1.3-0.6,2.7-0.8,4.1c-0.2,1.4-0.4,2.8-0.5,4.2C76.8,137.1,76.7,138.5,76.6,139.9z"/>
		</g>
		<g>
			<path class="st17" d="M42.6,114.2c0,0-1.2,14.1,1.5,16.9c0,0,2.2-2,0.9-16.7L42.6,114.2z"/>
			<path class="st18" d="M42.6,114.2c0,1.4,0,2.9,0,4.3c0,1.4,0,2.9,0.1,4.3c0.1,1.4,0.2,2.8,0.4,4.2c0.1,0.3,0.1,0.7,0.2,1
				c0.1,0.3,0.2,0.7,0.3,1c0.1,0.3,0.2,0.6,0.4,0.9c0.1,0.3,0.3,0.5,0.5,0.8l-0.7,0c0,0,0.1-0.2,0.2-0.3c0.1-0.1,0.1-0.3,0.2-0.4
				c0.1-0.3,0.2-0.6,0.3-1c0.1-0.7,0.3-1.3,0.3-2c0.2-1.4,0.2-2.8,0.3-4.2c0-0.7,0-1.4,0-2.1c0-0.7,0-1.4,0-2.1l-0.1-4.2l0.1,0.1
				C44.2,114.4,43.4,114.3,42.6,114.2z M42.6,114.2c0.8,0,1.6,0,2.4,0l0.1,0l0,0.1l0.3,2.1c0.1,0.7,0.1,1.4,0.2,2.1
				c0.1,0.7,0.1,1.4,0.2,2.1c0.1,0.7,0.1,1.4,0.1,2.1c0,0.7,0,1.4,0,2.1c0,0.7-0.1,1.4-0.1,2.1c-0.1,0.7-0.2,1.4-0.3,2.1
				c-0.1,0.4-0.2,0.7-0.3,1.1c-0.1,0.2-0.1,0.4-0.2,0.5c0,0.1-0.1,0.2-0.1,0.3c-0.1,0.1-0.1,0.2-0.2,0.3l-0.4,0.4l-0.3-0.4
				c-0.2-0.3-0.6-0.7-0.7-1c-0.2-0.4-0.3-0.7-0.4-1.1c-0.1-0.4-0.2-0.7-0.3-1.1c-0.1-0.4-0.1-0.7-0.2-1.1c-0.1-0.7-0.2-1.5-0.2-2.2
				c-0.1-0.7,0-1.4-0.1-2.2c0-0.7,0-1.4,0-2.2c0-0.7,0.1-1.4,0.1-2.2C42.3,117.1,42.4,115.6,42.6,114.2z"/>
		</g>
		<g>
			<path class="st17" d="M48.2,114.1c0,0-1.5,14,1.2,16.9c0,0,2.2-1.9,1.2-16.7L48.2,114.1z"/>
			<path class="st18" d="M48.2,114.1c0,1.4-0.1,2.9-0.1,4.3c0,1.4,0,2.9,0,4.3c0.1,1.4,0.1,2.9,0.3,4.2c0,0.3,0.1,0.7,0.2,1
				c0,0.3,0.2,0.7,0.2,1c0.1,0.3,0.2,0.6,0.3,0.9c0.1,0.3,0.3,0.5,0.5,0.8l-0.7,0c0,0,0-0.1,0.1-0.1c0,0,0.1-0.1,0.1-0.2
				c0.1-0.1,0.1-0.3,0.2-0.4c0.1-0.3,0.2-0.6,0.3-1c0.2-0.7,0.3-1.3,0.4-2c0.2-1.4,0.3-2.8,0.3-4.2c0-0.7,0.1-1.4,0.1-2.1
				c0-0.7,0-1.4,0-2.1l0-4.2l0.1,0.1C49.8,114.4,49,114.3,48.2,114.1z M48.2,114.1c0.8,0,1.6,0.1,2.4,0.1l0.1,0l0,0.1l0.2,2.1
				c0.1,0.7,0.1,1.4,0.2,2.1c0.1,1.4,0.2,2.8,0.1,4.3c0,0.7,0,1.4-0.1,2.1c0,0.7-0.1,1.4-0.2,2.1c-0.1,0.7-0.2,1.4-0.4,2.1
				c-0.1,0.4-0.2,0.7-0.3,1.1c-0.1,0.2-0.1,0.4-0.2,0.5c-0.1,0.1-0.1,0.2-0.2,0.3c-0.1,0.1-0.1,0.2-0.3,0.3l-0.4,0.4l-0.3-0.4
				c-0.2-0.3-0.5-0.7-0.6-1c-0.1-0.4-0.3-0.7-0.4-1.1c-0.1-0.4-0.2-0.7-0.2-1.1c-0.1-0.4-0.1-0.7-0.2-1.1c-0.1-0.7-0.1-1.5-0.2-2.2
				c0-0.7,0-1.5,0-2.2c0-0.7,0-1.4,0.1-2.2c0-0.7,0.1-1.4,0.2-2.2C47.8,117,48,115.6,48.2,114.1z"/>
		</g>
		<g>
			<path class="st17" d="M50.3,114.2c0,0-1.3,14.1,1.4,16.9c0,0,2.2-2,1-16.7L50.3,114.2z"/>
			<path class="st18" d="M50.3,114.2c0,1.4-0.1,2.9,0,4.3c0,1.4,0,2.9,0.1,4.3c0.1,1.4,0.2,2.8,0.4,4.2c0,0.3,0.1,0.7,0.2,1
				c0.1,0.3,0.2,0.7,0.3,1c0.1,0.3,0.2,0.6,0.4,0.9c0.1,0.2,0.1,0.3,0.2,0.4l0.3,0.4l-0.7,0c0,0,0.1-0.2,0.2-0.3
				c0.1-0.1,0.1-0.3,0.2-0.4c0.1-0.3,0.2-0.6,0.3-1c0.2-0.7,0.3-1.3,0.3-2c0.2-1.4,0.2-2.8,0.3-4.2c0-0.7,0-1.4,0-2.1
				c0-0.7,0-1.4,0-2.1l-0.1-4.2l0.1,0.1C51.9,114.4,51.1,114.3,50.3,114.2z M50.3,114.2c0.8,0,1.6,0,2.4,0l0.1,0l0,0.1l0.3,2.1
				c0.1,0.7,0.1,1.4,0.2,2.1c0.1,0.7,0.1,1.4,0.1,2.1c0,0.7,0.1,1.4,0.1,2.1c0,0.7,0,1.4,0,2.1c0,0.7-0.1,1.4-0.2,2.1
				c-0.1,0.7-0.2,1.4-0.3,2.1c-0.1,0.4-0.2,0.7-0.3,1.1c-0.1,0.2-0.1,0.4-0.2,0.5c0,0.1-0.1,0.2-0.1,0.3c-0.1,0.1-0.1,0.2-0.2,0.3
				l-0.4,0.4l-0.3-0.4c-0.2-0.3-0.5-0.7-0.7-1c-0.2-0.4-0.3-0.7-0.4-1.1c-0.1-0.4-0.2-0.7-0.3-1.1c-0.1-0.4-0.1-0.7-0.2-1.1
				c-0.1-0.7-0.2-1.5-0.2-2.2c0-0.7,0-1.4,0-2.2c0-0.7,0-1.4,0.1-2.2c0-0.7,0.1-1.4,0.1-2.2C50,117,50.1,115.6,50.3,114.2z"/>
		</g>
		<g>
			<path class="st17" d="M51.1,114.7c0,0,1.2,14.1,4.3,16.1c0,0,1.8-2.5-2-16.6L51.1,114.7z"/>
			<path class="st18" d="M51.1,114.7c0.2,1.4,0.4,2.8,0.7,4.2c0.3,1.4,0.5,2.8,0.8,4.1c0.3,1.4,0.7,2.7,1.1,4
				c0.2,0.7,0.5,1.3,0.8,1.9c0.3,0.6,0.7,1.2,1.1,1.5l-0.7,0.1c0,0,0.1-0.2,0.1-0.3c0-0.1,0.1-0.3,0.1-0.5c0-0.3,0.1-0.7,0.1-1
				c0-0.7,0-1.4,0-2.1c-0.1-1.4-0.2-2.8-0.5-4.2c-0.2-1.4-0.4-2.8-0.7-4.1l-0.9-4.1l0.2,0.1C52.7,114.5,51.9,114.6,51.1,114.7z
				 M51.1,114.7c0.8-0.2,1.6-0.4,2.3-0.6l0.1,0l0,0.1l0.6,2c0.2,0.7,0.4,1.4,0.6,2c0.2,0.7,0.3,1.4,0.5,2.1c0.2,0.7,0.3,1.4,0.4,2.1
				c0.1,0.7,0.2,1.4,0.3,2.1c0.1,0.7,0.2,1.4,0.2,2.1c0,0.7,0.1,1.4,0,2.2c0,0.4,0,0.7-0.1,1.1c0,0.2-0.1,0.4-0.1,0.6
				c-0.1,0.2-0.1,0.4-0.3,0.6l-0.3,0.4l-0.4-0.3c-0.7-0.5-1.1-1.2-1.5-1.8c-0.3-0.7-0.6-1.4-0.8-2c-0.4-1.4-0.7-2.8-1-4.2
				c-0.2-1.4-0.4-2.8-0.6-4.2C51.2,117.5,51.1,116.1,51.1,114.7z"/>
		</g>
		<g>
			<path class="st17" d="M56.9,114.4c0,0-0.3,14.2,2.6,16.6c0,0,2.1-2.3-0.2-16.8L56.9,114.4z"/>
			<path class="st18" d="M56.9,114.4c0.1,1.4,0.1,2.8,0.3,4.3c0.1,1.4,0.2,2.8,0.4,4.2c0.2,1.4,0.4,2.8,0.7,4.2
				c0.2,0.7,0.3,1.3,0.6,2c0.1,0.3,0.3,0.6,0.4,0.9c0.2,0.3,0.4,0.5,0.6,0.7l-0.7,0c0,0,0-0.1,0.1-0.1c0-0.1,0.1-0.1,0.1-0.2
				c0.1-0.1,0.1-0.3,0.1-0.5c0.1-0.3,0.2-0.6,0.2-1c0.1-0.7,0.2-1.4,0.2-2.1c0.1-1.4,0.1-2.8,0-4.2c-0.1-1.4-0.1-2.8-0.3-4.2
				l-0.4-4.2l0.1,0.1C58.5,114.4,57.7,114.4,56.9,114.4z M56.9,114.4c0.8-0.1,1.6-0.2,2.4-0.3l0.1,0l0,0.1l0.4,2.1
				c0.1,0.7,0.2,1.4,0.3,2.1c0.1,0.7,0.2,1.4,0.3,2.1c0.1,0.7,0.2,1.4,0.2,2.1c0.1,0.7,0.1,1.4,0.1,2.1c0,0.7,0,1.4,0,2.2
				c0,0.7-0.1,1.4-0.2,2.2c-0.1,0.4-0.1,0.7-0.2,1.1c-0.1,0.2-0.1,0.4-0.2,0.6c-0.1,0.2-0.1,0.3-0.3,0.6l-0.3,0.4l-0.4-0.3
				c-0.7-0.6-1-1.3-1.2-2c-0.3-0.7-0.4-1.4-0.6-2.1c-0.3-1.4-0.4-2.9-0.5-4.3c-0.1-1.4-0.1-2.9-0.1-4.3
				C56.7,117.2,56.7,115.8,56.9,114.4z"/>
		</g>
		<g>
			<path class="st17" d="M59.8,114.2c0,0-1.4,14.1,1.3,16.9c0,0,2.2-1.9,1.1-16.7L59.8,114.2z"/>
			<path class="st18" d="M59.8,114.2c0,1.4-0.1,2.9-0.1,4.3c0,1.4,0,2.9,0.1,4.3c0.1,1.4,0.2,2.8,0.4,4.2c0,0.3,0.1,0.7,0.2,1
				c0.1,0.3,0.2,0.7,0.2,1c0.1,0.3,0.2,0.6,0.3,0.9c0.1,0.2,0.1,0.3,0.2,0.4l0.3,0.4l-0.7,0c0,0,0.1-0.2,0.2-0.3
				c0.1-0.1,0.1-0.3,0.2-0.4c0.1-0.3,0.2-0.6,0.3-1c0.2-0.7,0.3-1.3,0.4-2c0.2-1.4,0.3-2.8,0.3-4.2c0-0.7,0.1-1.4,0.1-2.1
				c0-0.7,0-1.4,0-2.1l-0.1-4.2l0.1,0.1C61.4,114.4,60.6,114.3,59.8,114.2z M59.8,114.2c0.8,0,1.6,0,2.4,0.1l0.1,0l0,0.1l0.2,2.1
				c0.1,0.7,0.1,1.4,0.2,2.1c0.1,1.4,0.2,2.8,0.2,4.3c0,0.7,0,1.4,0,2.1c0,0.7-0.1,1.4-0.2,2.1c-0.1,0.7-0.2,1.4-0.4,2.1
				c-0.1,0.4-0.2,0.7-0.3,1.1c-0.1,0.2-0.1,0.4-0.2,0.5c0,0.1-0.1,0.2-0.2,0.3c-0.1,0.1-0.1,0.2-0.3,0.3l-0.4,0.4l-0.3-0.4
				c-0.2-0.3-0.5-0.7-0.6-1c-0.1-0.4-0.3-0.7-0.4-1.1c-0.1-0.4-0.2-0.7-0.3-1.1c-0.1-0.4-0.1-0.7-0.2-1.1c-0.1-0.7-0.1-1.5-0.2-2.2
				c0-0.7,0-1.5,0-2.2c0-0.7,0-1.4,0.1-2.2c0-0.7,0.1-1.4,0.1-2.2C59.4,117,59.6,115.6,59.8,114.2z"/>
		</g>
		<g>
			<path class="st17" d="M62.4,112.9c0,0-1.2,14.1,1.5,16.9c0,0,2.2-2,0.9-16.7L62.4,112.9z"/>
			<path class="st18" d="M62.4,112.9c0,1.4,0,2.9,0,4.3c0,1.4,0,2.9,0.1,4.3c0.1,1.4,0.2,2.8,0.4,4.2c0.1,0.3,0.1,0.7,0.2,1
				c0.1,0.3,0.2,0.7,0.3,1c0.1,0.3,0.2,0.6,0.4,0.9c0.1,0.3,0.3,0.5,0.5,0.8l-0.7,0c0,0,0.1-0.2,0.2-0.3c0.1-0.1,0.1-0.3,0.2-0.4
				c0.1-0.3,0.2-0.6,0.3-1c0.1-0.7,0.3-1.3,0.3-2c0.2-1.4,0.2-2.8,0.3-4.2c0-0.7,0-1.4,0-2.1c0-0.7,0-1.4,0-2.1l-0.1-4.2l0.1,0.1
				C64,113.1,63.2,113,62.4,112.9z M62.4,112.9c0.8,0,1.6,0,2.4,0l0.1,0l0,0.1l0.3,2.1c0.1,0.7,0.1,1.4,0.2,2.1
				c0.1,0.7,0.1,1.4,0.2,2.1c0.1,0.7,0.1,1.4,0.1,2.1c0,0.7,0,1.4,0,2.1c0,0.7-0.1,1.4-0.1,2.1c-0.1,0.7-0.2,1.4-0.3,2.1
				c-0.1,0.4-0.2,0.7-0.3,1.1c-0.1,0.2-0.1,0.4-0.2,0.5c0,0.1-0.1,0.2-0.1,0.3c-0.1,0.1-0.1,0.2-0.2,0.3l-0.4,0.4l-0.3-0.4
				c-0.2-0.3-0.6-0.7-0.7-1c-0.2-0.4-0.3-0.7-0.4-1.1c-0.1-0.4-0.2-0.7-0.3-1.1c-0.1-0.4-0.1-0.7-0.2-1.1c-0.1-0.7-0.2-1.5-0.2-2.2
				c-0.1-0.7,0-1.4-0.1-2.2c0-0.7,0-1.4,0-2.2c0-0.7,0.1-1.4,0.1-2.2C62.1,115.8,62.2,114.4,62.4,112.9z"/>
		</g>
		<g>
			<path class="st17" d="M68,112.9c0,0-1.5,14,1.2,16.9c0,0,2.2-1.9,1.2-16.7L68,112.9z"/>
			<path class="st18" d="M68,112.9c0,1.4-0.1,2.9-0.1,4.3c0,1.4,0,2.9,0,4.3c0.1,1.4,0.1,2.9,0.3,4.2c0,0.3,0.1,0.7,0.2,1
				c0,0.3,0.2,0.7,0.2,1c0.1,0.3,0.2,0.6,0.3,0.9c0.1,0.3,0.3,0.5,0.5,0.8l-0.7,0c0,0,0-0.1,0.1-0.1c0,0,0.1-0.1,0.1-0.2
				c0.1-0.1,0.1-0.3,0.2-0.4c0.1-0.3,0.2-0.6,0.3-1c0.2-0.7,0.3-1.3,0.4-2c0.2-1.4,0.3-2.8,0.3-4.2c0-0.7,0.1-1.4,0.1-2.1
				c0-0.7,0-1.4,0-2.1l0-4.2l0.1,0.1C69.6,113.1,68.8,113,68,112.9z M68,112.9c0.8,0,1.6,0.1,2.4,0.1l0.1,0l0,0.1l0.2,2.1
				c0.1,0.7,0.1,1.4,0.2,2.1c0.1,1.4,0.2,2.8,0.1,4.3c0,0.7,0,1.4-0.1,2.1c0,0.7-0.1,1.4-0.2,2.1c-0.1,0.7-0.2,1.4-0.4,2.1
				c-0.1,0.4-0.2,0.7-0.3,1.1c-0.1,0.2-0.1,0.4-0.2,0.5c-0.1,0.1-0.1,0.2-0.2,0.3c-0.1,0.1-0.1,0.2-0.3,0.3l-0.4,0.4l-0.3-0.4
				c-0.2-0.3-0.5-0.7-0.6-1c-0.1-0.4-0.3-0.7-0.4-1.1c-0.1-0.4-0.2-0.7-0.2-1.1c-0.1-0.4-0.1-0.7-0.2-1.1c-0.1-0.7-0.1-1.5-0.2-2.2
				c0-0.7,0-1.5,0-2.2c0-0.7,0-1.4,0.1-2.2c0-0.7,0.1-1.4,0.2-2.2C67.6,115.7,67.8,114.3,68,112.9z"/>
		</g>
		<g>
			<path class="st17" d="M70.1,112.9c0,0-1.3,14.1,1.4,16.9c0,0,2.2-2,1-16.7L70.1,112.9z"/>
			<path class="st18" d="M70.1,112.9c0,1.4-0.1,2.9,0,4.3c0,1.4,0,2.9,0.1,4.3c0.1,1.4,0.2,2.8,0.4,4.2c0,0.3,0.1,0.7,0.2,1
				c0.1,0.3,0.2,0.7,0.3,1c0.1,0.3,0.2,0.6,0.4,0.9c0.1,0.2,0.1,0.3,0.2,0.4l0.3,0.4l-0.7,0c0,0,0.1-0.2,0.2-0.3
				c0.1-0.1,0.1-0.3,0.2-0.4c0.1-0.3,0.2-0.6,0.3-1c0.2-0.7,0.3-1.3,0.3-2c0.2-1.4,0.2-2.8,0.3-4.2c0-0.7,0-1.4,0-2.1
				c0-0.7,0-1.4,0-2.1l-0.1-4.2l0.1,0.1C71.7,113.1,70.9,113,70.1,112.9z M70.1,112.9c0.8,0,1.6,0,2.4,0l0.1,0l0,0.1l0.3,2.1
				c0.1,0.7,0.1,1.4,0.2,2.1c0.1,0.7,0.1,1.4,0.1,2.1c0,0.7,0.1,1.4,0.1,2.1c0,0.7,0,1.4,0,2.1c0,0.7-0.1,1.4-0.2,2.1
				c-0.1,0.7-0.2,1.4-0.3,2.1c-0.1,0.4-0.2,0.7-0.3,1.1c-0.1,0.2-0.1,0.4-0.2,0.5c0,0.1-0.1,0.2-0.1,0.3c-0.1,0.1-0.1,0.2-0.2,0.3
				l-0.4,0.4l-0.3-0.4c-0.2-0.3-0.5-0.7-0.7-1c-0.2-0.4-0.3-0.7-0.4-1.1c-0.1-0.4-0.2-0.7-0.3-1.1c-0.1-0.4-0.1-0.7-0.2-1.1
				c-0.1-0.7-0.2-1.5-0.2-2.2c0-0.7,0-1.4,0-2.2c0-0.7,0-1.4,0.1-2.2c0-0.7,0.1-1.4,0.1-2.2C69.8,115.8,69.9,114.3,70.1,112.9z"/>
		</g>
		<g>
			<path class="st17" d="M71.9,113c0,0-0.6,14.2,2.2,16.7c0,0,2.1-2.2,0.2-16.8L71.9,113z"/>
			<path class="st18" d="M71.9,113c0.1,1.4,0.1,2.9,0.2,4.3c0.1,1.4,0.2,2.8,0.3,4.3c0.2,1.4,0.3,2.8,0.6,4.2c0.1,0.7,0.3,1.4,0.5,2
				c0.1,0.3,0.2,0.6,0.4,0.9c0.1,0.3,0.3,0.5,0.5,0.7l-0.7,0c0,0,0.1-0.2,0.2-0.3c0.1-0.1,0.1-0.3,0.2-0.4c0.1-0.3,0.2-0.6,0.2-1
				c0.1-0.7,0.2-1.4,0.2-2c0.1-1.4,0.1-2.8,0.1-4.2c0-1.4-0.1-2.8-0.2-4.2l-0.3-4.2l0.1,0.1C73.5,113.1,72.7,113.1,71.9,113z
				 M71.9,113c0.8-0.1,1.6-0.1,2.4-0.2l0.1,0l0,0.1l0.4,2.1c0.1,0.7,0.2,1.4,0.3,2.1c0.1,0.7,0.2,1.4,0.2,2.1
				c0.1,0.7,0.1,1.4,0.2,2.1c0,0.7,0.1,1.4,0.1,2.1c0,0.7,0,1.4,0,2.2c0,0.7-0.1,1.4-0.2,2.2c-0.1,0.4-0.1,0.7-0.2,1.1
				c-0.1,0.2-0.1,0.4-0.2,0.5c-0.1,0.2-0.1,0.3-0.4,0.6l-0.3,0.4l-0.4-0.4c-0.3-0.3-0.6-0.6-0.7-1c-0.2-0.3-0.3-0.7-0.5-1.1
				c-0.2-0.7-0.4-1.4-0.5-2.1c-0.3-1.4-0.4-2.9-0.4-4.3c-0.1-1.4-0.1-2.9,0-4.3C71.7,115.9,71.8,114.5,71.9,113z"/>
		</g>
		<g>
			<path class="st17" d="M76.7,113.1c0,0-0.3,14.2,2.6,16.6c0,0,2.1-2.3-0.2-16.8L76.7,113.1z"/>
			<path class="st18" d="M76.7,113.1c0.1,1.4,0.1,2.8,0.3,4.3c0.1,1.4,0.2,2.8,0.4,4.2c0.2,1.4,0.4,2.8,0.7,4.2
				c0.2,0.7,0.3,1.3,0.6,2c0.1,0.3,0.3,0.6,0.4,0.9c0.2,0.3,0.4,0.5,0.6,0.7l-0.7,0c0,0,0-0.1,0.1-0.1c0-0.1,0.1-0.1,0.1-0.2
				c0.1-0.1,0.1-0.3,0.1-0.5c0.1-0.3,0.2-0.6,0.2-1c0.1-0.7,0.2-1.4,0.2-2.1c0.1-1.4,0.1-2.8,0-4.2c-0.1-1.4-0.1-2.8-0.3-4.2
				l-0.4-4.2l0.1,0.1C78.3,113.1,77.5,113.1,76.7,113.1z M76.7,113.1c0.8-0.1,1.6-0.2,2.4-0.3l0.1,0l0,0.1l0.4,2.1
				c0.1,0.7,0.2,1.4,0.3,2.1c0.1,0.7,0.2,1.4,0.3,2.1c0.1,0.7,0.2,1.4,0.2,2.1c0.1,0.7,0.1,1.4,0.1,2.1c0,0.7,0,1.4,0,2.2
				c0,0.7-0.1,1.4-0.2,2.2c-0.1,0.4-0.1,0.7-0.2,1.1c-0.1,0.2-0.1,0.4-0.2,0.6c-0.1,0.2-0.1,0.3-0.3,0.6l-0.3,0.4l-0.4-0.3
				c-0.7-0.6-1-1.3-1.2-2c-0.3-0.7-0.4-1.4-0.6-2.1c-0.3-1.4-0.4-2.9-0.5-4.3c-0.1-1.4-0.1-2.9-0.1-4.3
				C76.5,116,76.5,114.5,76.7,113.1z"/>
		</g>
		<g>
			<path class="st17" d="M79.6,112.9c0,0-1.4,14.1,1.3,16.9c0,0,2.2-1.9,1.1-16.7L79.6,112.9z"/>
			<path class="st18" d="M79.6,112.9c0,1.4-0.1,2.9-0.1,4.3c0,1.4,0,2.9,0.1,4.3c0.1,1.4,0.2,2.8,0.4,4.2c0,0.3,0.1,0.7,0.2,1
				c0.1,0.3,0.2,0.7,0.2,1c0.1,0.3,0.2,0.6,0.3,0.9c0.1,0.2,0.1,0.3,0.2,0.4l0.3,0.4l-0.7,0c0,0,0.1-0.2,0.2-0.3
				c0.1-0.1,0.1-0.3,0.2-0.4c0.1-0.3,0.2-0.6,0.3-1c0.2-0.7,0.3-1.3,0.4-2c0.2-1.4,0.3-2.8,0.3-4.2c0-0.7,0.1-1.4,0.1-2.1
				c0-0.7,0-1.4,0-2.1l-0.1-4.2l0.1,0.1C81.2,113.1,80.4,113,79.6,112.9z M79.6,112.9c0.8,0,1.6,0,2.4,0.1l0.1,0l0,0.1l0.2,2.1
				c0.1,0.7,0.1,1.4,0.2,2.1c0.1,1.4,0.2,2.8,0.2,4.3c0,0.7,0,1.4,0,2.1c0,0.7-0.1,1.4-0.2,2.1c-0.1,0.7-0.2,1.4-0.4,2.1
				c-0.1,0.4-0.2,0.7-0.3,1.1c-0.1,0.2-0.1,0.4-0.2,0.5c0,0.1-0.1,0.2-0.2,0.3c-0.1,0.1-0.1,0.2-0.3,0.3l-0.4,0.4l-0.3-0.4
				c-0.2-0.3-0.5-0.7-0.6-1c-0.1-0.4-0.3-0.7-0.4-1.1c-0.1-0.4-0.2-0.7-0.3-1.1c-0.1-0.4-0.1-0.7-0.2-1.1c-0.1-0.7-0.1-1.5-0.2-2.2
				c0-0.7,0-1.5,0-2.2c0-0.7,0-1.4,0.1-2.2c0-0.7,0.1-1.4,0.1-2.2C79.2,115.7,79.4,114.3,79.6,112.9z"/>
		</g>
		<g>
			<path class="st16" d="M86.2,112h-7.3L59.3,92.5l-12,19.5h-6.5L12.6,94.2l11,30.3L47,168.6l34.2-11.1l53.1-72.4L86.2,112z
				 M47.7,135.6h-5.3v-16h5.3V135.6z M58.6,136.5h-5.9v-17.7h5.9V136.5z M70.3,137.2H64v-19.1h6.3V137.2z M81.6,138.1h-6.9v-20.8
				h6.9V138.1z"/>
			<path class="st19" d="M85.6,111.4h-7.2L59.3,92.5l-11.7,18.9h-6.4L12.6,94.2l11.7,29.4l23,42.8l33.6-10.7l53.1-70.3L85.6,111.4z
				 M47.3,135.8H42v-16h5.3V135.8z M58.2,136.7h-5.9V119h5.9V136.7z M69.9,137.4h-6.3v-19.1h6.3V137.4z M81.1,138.3h-6.9v-20.8h6.9
				V138.3z"/>
			<path class="st20" d="M12.6,94.3l11.9,30.4l23,42.8l33.6-10.7l52.9-71.4l-6,3.3l-50,61.7l-28.8,9.8l-19.9-38.6L18,97.5L12.6,94.3
				z"/>
			<path class="st21" d="M18,97.5l9.4,20l2.2,4.8l19.6,37.9l28.8-9.8l49.9-61.6l-4.9,2.6l-46.4,55.8l-26.1,8.8l-20.7-40.3l-7.3-15.5
				L18,97.5z"/>
			<path class="st21" d="M82.2,114.7H45.6l-6.2,4.6l-0.8,13.8l6.1,8.5l32.2,1.1l7-6.2l3.5-17.2L82.2,114.7z M47.5,135.5h-4.9v-15.8
				h4.9V135.5z M58.5,136.4H53l-0.4-17.5h5.9V136.4z M70.1,137.1l-5.9,0v-18.9h5.9V137.1z M81.4,138.2l-6.5-0.2v-20.6h6.5V138.2z"/>
			<polygon class="st21" points="74.6,111.3 59.3,94.5 49.4,110.7 59.6,98.1 			"/>
			<g>
				<path class="st22" d="M56.8,161.1c-0.3-0.7-1.1-1-1.7-0.6c-0.6,0.4-0.9,1.3-0.5,2c0.3,0.7,1.1,1,1.7,0.6
					C56.9,162.7,57.2,161.8,56.8,161.1z"/>
				<g>
					<path class="st23" d="M56.2,162.9c0,0-0.1-0.1-0.3-0.3c-0.1-0.2-0.3-0.4-0.4-0.7c-0.1-0.3-0.2-0.6-0.2-0.8c0-0.2,0-0.4,0-0.4
						s0.1,0.1,0.3,0.3c0.1,0.2,0.3,0.4,0.4,0.7c0.1,0.3,0.2,0.6,0.2,0.8C56.2,162.7,56.2,162.9,56.2,162.9z"/>
				</g>
				<g>
					<path class="st23" d="M56.5,161.3c0,0-0.1,0.1-0.2,0.3c-0.1,0.1-0.3,0.3-0.5,0.4c-0.4,0.3-0.9,0.3-0.9,0.3c0,0,0.3-0.5,0.7-0.7
						c0.2-0.1,0.4-0.2,0.6-0.3C56.4,161.3,56.5,161.3,56.5,161.3z"/>
				</g>
			</g>
			<g>
				<path class="st22" d="M46.2,158.1c-0.3-0.7-1.1-1-1.7-0.6c-0.6,0.4-0.9,1.3-0.5,2c0.3,0.7,1.1,1,1.7,0.6
					C46.3,159.7,46.5,158.8,46.2,158.1z"/>
				<g>
					<path class="st23" d="M45.6,159.9c0,0-0.1-0.1-0.3-0.3c-0.1-0.2-0.3-0.4-0.4-0.7c-0.1-0.3-0.2-0.6-0.2-0.8c0-0.2,0-0.4,0-0.4
						s0.1,0.1,0.3,0.3c0.1,0.2,0.3,0.4,0.4,0.7c0.1,0.3,0.2,0.6,0.2,0.8C45.6,159.7,45.6,159.9,45.6,159.9z"/>
				</g>
				<g>
					<path class="st23" d="M45.8,158.3c0,0-0.1,0.1-0.2,0.3c-0.1,0.1-0.3,0.3-0.5,0.4c-0.4,0.3-0.9,0.3-0.9,0.3c0,0,0.3-0.5,0.7-0.7
						c0.2-0.1,0.4-0.2,0.6-0.3C45.7,158.3,45.8,158.3,45.8,158.3z"/>
				</g>
			</g>
			<g>
				<path class="st22" d="M38.4,141.7c-0.3-0.7-1.1-1-1.7-0.6c-0.6,0.4-0.9,1.3-0.5,2c0.3,0.7,1.1,1,1.7,0.6S38.7,142.4,38.4,141.7z
					"/>
				<g>
					<path class="st23" d="M37.8,143.5c0,0-0.1-0.1-0.3-0.3c-0.1-0.2-0.3-0.4-0.4-0.7c-0.1-0.3-0.2-0.6-0.2-0.8c0-0.2,0-0.4,0-0.4
						s0.1,0.1,0.3,0.3c0.1,0.2,0.3,0.4,0.4,0.7c0.1,0.3,0.2,0.6,0.2,0.8C37.8,143.3,37.8,143.5,37.8,143.5z"/>
				</g>
				<g>
					<path class="st23" d="M38.1,141.9c0,0-0.1,0.1-0.2,0.3c-0.1,0.1-0.3,0.3-0.5,0.4c-0.4,0.3-0.9,0.3-0.9,0.3s0.3-0.5,0.7-0.7
						c0.2-0.1,0.4-0.2,0.6-0.3C37.9,141.9,38.1,141.9,38.1,141.9z"/>
				</g>
			</g>
			<g>
				<path class="st22" d="M30.7,128.5c-0.3-0.7-1.1-1-1.7-0.6c-0.6,0.4-0.9,1.3-0.5,2c0.3,0.7,1.1,1,1.7,0.6
					C30.7,130.1,31,129.2,30.7,128.5z"/>
				<g>
					<path class="st23" d="M30,130.3c0,0-0.1-0.1-0.3-0.3c-0.1-0.2-0.3-0.4-0.4-0.7c-0.1-0.3-0.2-0.6-0.2-0.8c0-0.2,0-0.4,0-0.4
						s0.1,0.1,0.3,0.3c0.1,0.2,0.3,0.4,0.4,0.7c0.1,0.3,0.2,0.6,0.2,0.8C30.1,130.1,30,130.3,30,130.3z"/>
				</g>
				<g>
					<path class="st23" d="M30.3,128.7c0,0-0.1,0.1-0.2,0.3c-0.1,0.1-0.3,0.3-0.5,0.4c-0.4,0.3-0.9,0.3-0.9,0.3s0.3-0.5,0.7-0.7
						c0.2-0.1,0.4-0.2,0.6-0.3C30.2,128.7,30.3,128.7,30.3,128.7z"/>
				</g>
			</g>
			<g>
				<path class="st22" d="M21.5,108.5c-0.3-0.7-1.1-1-1.7-0.6c-0.6,0.4-0.9,1.3-0.5,2c0.3,0.7,1.1,1,1.7,0.6
					C21.6,110.1,21.8,109.2,21.5,108.5z"/>
				<g>
					<path class="st23" d="M20.9,110.3c0,0-0.1-0.1-0.3-0.3c-0.1-0.2-0.3-0.4-0.4-0.7c-0.1-0.3-0.2-0.6-0.2-0.8c0-0.2,0-0.4,0-0.4
						s0.1,0.1,0.3,0.3c0.1,0.2,0.3,0.4,0.4,0.7c0.1,0.3,0.2,0.6,0.2,0.8C20.9,110.1,20.9,110.3,20.9,110.3z"/>
				</g>
				<g>
					<path class="st23" d="M21.1,108.7c0,0-0.1,0.1-0.2,0.3c-0.1,0.1-0.3,0.3-0.5,0.4c-0.4,0.3-0.9,0.3-0.9,0.3s0.3-0.5,0.7-0.7
						c0.2-0.1,0.4-0.2,0.6-0.3C21,108.7,21.1,108.7,21.1,108.7z"/>
				</g>
			</g>
			<g>
				<path class="st22" d="M79.2,153.7c-0.3-0.7-1.1-1-1.7-0.6c-0.6,0.4-0.9,1.3-0.5,2c0.3,0.7,1.1,1,1.7,0.6
					C79.3,155.4,79.5,154.5,79.2,153.7z"/>
				<g>
					<path class="st23" d="M78.6,155.5c0,0-0.1-0.1-0.3-0.3c-0.1-0.2-0.3-0.4-0.4-0.7c-0.1-0.3-0.2-0.6-0.2-0.8c0-0.2,0-0.4,0-0.4
						s0.1,0.1,0.3,0.3c0.1,0.2,0.3,0.4,0.4,0.7c0.1,0.3,0.2,0.6,0.2,0.8C78.6,155.4,78.6,155.5,78.6,155.5z"/>
				</g>
				<g>
					<path class="st23" d="M78.9,153.9c0,0-0.1,0.1-0.2,0.3c-0.1,0.1-0.3,0.3-0.5,0.4c-0.4,0.3-0.9,0.3-0.9,0.3c0,0,0.3-0.5,0.7-0.7
						c0.2-0.1,0.4-0.2,0.6-0.3C78.7,153.9,78.9,153.9,78.9,153.9z"/>
				</g>
			</g>
			<g>
				<path class="st22" d="M93.2,136c-0.3-0.7-1.1-1-1.7-0.6c-0.6,0.4-0.9,1.3-0.5,2c0.3,0.7,1.1,1,1.7,0.6
					C93.3,137.6,93.5,136.7,93.2,136z"/>
				<g>
					<path class="st23" d="M92.6,137.8c0,0-0.1-0.1-0.3-0.3c-0.1-0.2-0.3-0.4-0.4-0.7c-0.1-0.3-0.2-0.6-0.2-0.8c0-0.2,0-0.4,0-0.4
						s0.1,0.1,0.3,0.3c0.1,0.2,0.3,0.4,0.4,0.7c0.1,0.3,0.2,0.6,0.2,0.8C92.6,137.6,92.6,137.8,92.6,137.8z"/>
				</g>
				<g>
					<path class="st23" d="M92.9,136.2c0,0-0.1,0.1-0.2,0.3c-0.1,0.1-0.3,0.3-0.5,0.4c-0.4,0.3-0.9,0.3-0.9,0.3c0,0,0.3-0.5,0.7-0.7
						c0.2-0.1,0.4-0.2,0.6-0.3C92.7,136.2,92.9,136.2,92.9,136.2z"/>
				</g>
			</g>
			<g>
				<path class="st22" d="M109.5,115.2c-0.3-0.7-1.1-1-1.7-0.6c-0.6,0.4-0.9,1.3-0.5,2c0.3,0.7,1.1,1,1.7,0.6
					C109.6,116.9,109.8,116,109.5,115.2z"/>
				<g>
					<path class="st23" d="M108.9,117c0,0-0.1-0.1-0.3-0.3c-0.1-0.2-0.3-0.4-0.4-0.7c-0.1-0.3-0.2-0.6-0.2-0.8c0-0.2,0-0.4,0-0.4
						s0.1,0.1,0.3,0.3c0.1,0.2,0.3,0.4,0.4,0.7c0.1,0.3,0.2,0.6,0.2,0.8C108.9,116.9,108.9,117,108.9,117z"/>
				</g>
				<g>
					<path class="st23" d="M109.1,115.4c0,0-0.1,0.1-0.2,0.3c-0.1,0.1-0.3,0.3-0.5,0.4c-0.4,0.3-0.9,0.3-0.9,0.3
						c0,0,0.3-0.5,0.7-0.7c0.2-0.1,0.4-0.2,0.6-0.3C109,115.4,109.1,115.4,109.1,115.4z"/>
				</g>
			</g>
			<g>
				<path class="st22" d="M125.1,95.4c-0.3-0.7-1.1-1-1.7-0.6c-0.6,0.4-0.9,1.3-0.5,2s1.1,1,1.7,0.6C125.2,97,125.4,96.1,125.1,95.4
					z"/>
				<g>
					<path class="st23" d="M124.5,97.2c0,0-0.1-0.1-0.3-0.3c-0.1-0.2-0.3-0.4-0.4-0.7c-0.1-0.3-0.2-0.6-0.2-0.8c0-0.2,0-0.4,0-0.4
						s0.1,0.1,0.3,0.3c0.1,0.2,0.3,0.4,0.4,0.7c0.1,0.3,0.2,0.6,0.2,0.8C124.5,97,124.5,97.2,124.5,97.2z"/>
				</g>
				<g>
					<path class="st23" d="M124.7,95.6c0,0-0.1,0.1-0.2,0.3c-0.1,0.1-0.3,0.3-0.5,0.4c-0.4,0.3-0.9,0.3-0.9,0.3c0,0,0.3-0.5,0.7-0.7
						c0.2-0.1,0.4-0.2,0.6-0.3C124.6,95.6,124.7,95.6,124.7,95.6z"/>
				</g>
			</g>
		</g>
		<g>
			<path class="st6" d="M31.9,38.5c0,0,0.1,0.1,0.3,0.1c0.2,0.1,0.5,0.2,0.9,0.3c0.4,0.1,0.9,0.2,1.4,0.3c0.6,0.1,1.2,0.1,2,0.3
				c0.8,0.2,1.7,0.6,2.4,1.1c0.7,0.4,1.5,1,2.1,1.4c0.6,0.4,1.5,0.8,2.3,1.3c0.4,0.2,0.8,0.5,1.2,0.7c0.4,0.2,0.8,0.4,1.2,0.6
				c1.7,0.8,3.5,1.4,5.2,2.5c0.8,0.5,1.6,1.2,2.2,1.9c0.6,0.7,1,1.4,1.4,2c0.4,0.6,0.8,1.1,1.1,1.5c0.4,0.4,0.7,0.8,1,1
				c0.3,0.3,0.6,0.5,0.8,0.6c0.2,0.1,0.3,0.2,0.3,0.2s-0.1,0-0.4,0c-0.2,0-0.6-0.1-1-0.2c-0.4-0.1-1-0.3-1.5-0.7
				c-0.6-0.3-1.1-0.8-1.7-1.3c-0.6-0.5-1.2-1.1-1.7-1.5c-0.6-0.5-1.2-0.9-1.9-1.3c-1.4-0.7-3.2-1.3-5.1-2.1
				c-0.5-0.2-0.9-0.4-1.4-0.7c-0.5-0.3-0.9-0.5-1.3-0.7c-0.9-0.6-1.6-1-2.4-1.7c-0.8-0.7-1.3-1.3-1.9-1.9c-0.5-0.6-1-1-1.6-1.3
				c-0.6-0.3-1.2-0.6-1.8-0.8c-0.6-0.2-1-0.5-1.4-0.8c-0.4-0.3-0.6-0.5-0.8-0.7C32,38.6,31.9,38.5,31.9,38.5z"/>
		</g>
	</g>
</g>
<g id="wrinkles">
</g>
<g id="Layer_4">
</g>
<g id="Layer_7">
</g>
<g id="hair_1_">
</g>
<g id="scars">
</g>
<g id="Layer_19">
</g>
<g id="Layer_12">
</g>
<g id="Layer_11">
</g>
<g id="Layer_15">
</g>
<g id="Layer_13">
</g>
<g id="Layer_16">
</g>
<g id="Layer_23">
</g>
<g id="Layer_17">
</g>
</svg>
