<?xml version="1.0" encoding="utf-8"?>
<!-- Generator: Adobe Illustrator 19.1.0, SVG Export Plug-In . SVG Version: 6.00 Build 0)  -->
<svg version="1.1" id="intro" xmlns="http://www.w3.org/2000/svg" xmlns:xlink="http://www.w3.org/1999/xlink" x="0px" y="0px"
	 viewBox="744 -104 2100 1000" style="enable-background:new 744 -104 2100 1000;" xml:space="preserve">
<style type="text/css">
	.st0{fill:#353434;}
	.st1{fill:#B7B3B3;}
	.st2{fill:#9D9A9A;stroke:#000000;stroke-miterlimit:10;}
	.st3{fill:#898989;}
	.st4{fill:#B5B1B2;stroke:#474546;stroke-width:3;stroke-miterlimit:10;}
	.st5{fill:#B7B3B3;stroke:#353535;stroke-miterlimit:10;}
	.st6{fill:none;}
	.st7{fill:#353535;}
	.st8{fill:#FFFFFF;stroke:#000000;stroke-miterlimit:10;}
	.st9{fill:#8E8E8E;}
	.st10{font-family:'CharlemagneStd-Bold';}
	.st11{font-size:87.9564px;}
	.st12{fill:none;stroke:#3D3D3D;stroke-width:2;stroke-miterlimit:10;}
	.st13{font-size:91.3057px;}
	.st14{font-size:87.9565px;}
	.st15{fill:#666665;stroke:#666765;stroke-width:5;stroke-miterlimit:10;}
	.st16{fill:#686868;}
	.st17{fill:#666665;stroke:#666765;stroke-width:3;stroke-miterlimit:10;}
	.st18{fill:#3F3F3F;}
	.st19{fill:#B5B1B2;}
	.st20{fill:#474546;}
</style>
<defs>
	
	
		<animateTransform  type="rotate" fill="remove" to="0 620 540" from="360 620 540" restart="always" accumulate="none" repeatCount="indefinite" calcMode="linear" attributeName="transform" additive="replace" dur="4s" id="armRotate">
		</animateTransform>
</defs>
<polygon class="st0" points="1345.3,329.8 890.6,329.8 890.6,721.3 1018.1,860.9 918.4,939.4 1322.8,939.4 1223.1,860.5 
	1345.3,721.3 "/>
<polygon class="st1" points="1337.4,340.2 898.5,340.2 898.5,723 1021.6,859.6 925.3,936.4 1310.6,936.4 1214.2,859.6 1337.4,723 
	"/>
<rect x="943.2" y="414.2" class="st2" width="349.5" height="164.2"/>
<rect x="1049.7" y="632.8" class="st3" width="136.5" height="147.5"/>
<path class="st4" d="M1118.2,643.9c-81,2.1-47.1,86.5-47.1,86.5l4.6,10.5v28.4h14.6v-29.4h16.5v29.4h18.5l0.5-29.6h16.2l-0.5,29.6
	h16.8v-28.4l7-10.5C1194,637.5,1118.2,643.9,1118.2,643.9z M1096.4,693.1c-7.6,0-13.7-6.1-13.7-13.7c0-7.6,6.1-13.7,13.7-13.7
	s13.7,6.1,13.7,13.7C1110.1,686.9,1104,693.1,1096.4,693.1z M1139.4,693.1c-7.6,0-13.7-6.1-13.7-13.7c0-7.6,6.1-13.7,13.7-13.7
	s13.7,6.1,13.7,13.7C1153.1,686.9,1147,693.1,1139.4,693.1z"/>
<rect x="992.4" y="428.7" class="st5" width="251" height="107"/>
<g>
	<line class="st6" x1="943.2" y1="578.3" x2="992.4" y2="535.7"/>
	<polygon class="st7" points="942.9,578 992.4,535.7 943.5,578.7 	"/>
</g>
<g>
	<line class="st6" x1="940.6" y1="414.2" x2="992.4" y2="428.7"/>
	<polygon class="st7" points="940.7,413.7 992.4,428.7 940.4,414.6 	"/>
</g>
<path class="st8" d="M1292.7,414.2"/>
<g>
	<line class="st6" x1="1292.7" y1="578.3" x2="1243.4" y2="535.7"/>
	<polygon class="st7" points="1292.4,578.7 1243.4,535.7 1293,578 	"/>
</g>
<g>
	<line class="st6" x1="1243.4" y1="428.7" x2="1292.7" y2="414.2"/>
	<polygon class="st7" points="1243.3,428.2 1292.7,414.2 1243.6,429.2 	"/>
</g>
<g>
	<line class="st6" x1="1158.2" y1="428.7" x2="1158.2" y2="535.7"/>
	<path class="st7" d="M1158.2,428.7c0,0,0.1,1.7,0.1,4.6c0.1,2.9,0.2,7.1,0.3,12.1s0.2,10.9,0.2,17.1c0,6.3,0.1,13,0.1,19.6
		c0,6.7-0.1,13.4-0.1,19.6c0,6.3-0.2,12.1-0.2,17.1c-0.1,5-0.2,9.2-0.3,12.1c-0.1,2.9-0.1,4.6-0.1,4.6s-0.1-1.7-0.1-4.6
		c-0.1-2.9-0.2-7.1-0.3-12.1c-0.1-5-0.2-10.9-0.2-17.1c0-6.3-0.1-13-0.1-19.6c0-6.7,0.1-13.4,0.1-19.6c0-6.3,0.2-12.1,0.2-17.1
		c0.1-5,0.2-9.2,0.3-12.1C1158.1,430.4,1158.2,428.7,1158.2,428.7z"/>
</g>
<g>
	<line class="st6" x1="1074.7" y1="428.7" x2="1074.7" y2="535.7"/>
	<path class="st7" d="M1074.7,428.7c0,0,0.1,1.7,0.1,4.6c0.1,2.9,0.2,7.1,0.3,12.1s0.2,10.9,0.2,17.1c0,6.3,0.1,13,0.1,19.6
		c0,6.7-0.1,13.4-0.1,19.6c0,6.3-0.2,12.1-0.2,17.1c-0.1,5-0.2,9.2-0.3,12.1c-0.1,2.9-0.1,4.6-0.1,4.6s-0.1-1.7-0.1-4.6
		c-0.1-2.9-0.2-7.1-0.3-12.1c-0.1-5-0.2-10.9-0.2-17.1c0-6.3-0.1-13-0.1-19.6c0-6.7,0.1-13.4,0.1-19.6c0-6.3,0.2-12.1,0.2-17.1
		c0.1-5,0.2-9.2,0.3-12.1C1074.6,430.4,1074.7,428.7,1074.7,428.7z"/>
</g>
<text transform="matrix(1 0 0 1 997.5892 506.8835)" class="st9 st10 st11">R</text>
<text transform="matrix(1 0 0 1 997.5892 506.8835)" class="st12 st10 st11">R</text>
<text transform="matrix(1 0 0 1 1096.556 509.9309)" class="st9 st10 st13">I</text>
<text transform="matrix(1 0 0 1 1096.556 509.9309)" class="st12 st10 st13">I</text>
<text transform="matrix(0.7208 0 0 1 1184.9893 508.0322)" class="st9 st10 st14">P</text>
<text transform="matrix(0.7208 0 0 1 1184.9893 508.0322)" class="st12 st10 st14">P</text>
<circle class="st0" cx="1372.9" cy="185.4" r="38.4"/>
<rect x="1357.5" y="197.6" class="st0" width="30.8" height="378.9"/>
<path class="st0" d="M1376.6,524.4c11.3,18.6,24.6,50.9,7.2,82.6c-7.5,13.6-20.8,23.1-36,26.2l-10.4,2.1V493l15.5,8.7
	C1362.6,507.1,1370.8,514.9,1376.6,524.4z"/>
<g>
	<g>
		<path class="st15" d="M1276.7,671c10.3-2.2,11.4-15.1,10.1-23.8c-1.2-8.2-9.2-10.8-16.5-11.2c-19.7-1-32.9,15.8-33.6,34.5
			c-0.4,10.1,2.5,19.4,12.1,24c7.3,3.6,16.4,4.6,24.5,4.7c21,0.2,32.5-17.7,39.1-35.6c6.4-17.6,5.8-43.7-14-52.7
			c-8.2-3.7-17.2-1.6-25.6,0.4c-10.2,2.4-21.1,4.9-30.5,9.7c-18.5,9.5-23.4,33.9-24.8,52.9c-0.8,10.5-0.1,21.2,3,31.3
			c1.4,4.5,3.2,8.8,5.5,12.8c2.6,4.6,6.2,8.5,8.8,13.1c6.1,11.1-1.1,24-5.7,34.4c-4.7,10.5-10.5,20.9-19.5,28.3
			c-10.3,8.5-23.4,11.2-36.5,11.5c-12.5,0.3-28,0.7-37.3-9.1c-0.9-0.9-4.9-0.1-4.8-0.1c10.2,10.8,28.6,10.3,42.3,10.2
			c16.7-0.1,33.5-3.5,45.4-16.1c5.6-5.9,9.8-13,13.4-20.3c3.9-8,8.5-17,9.9-25.8c1.6-9.7-4.6-15.8-9.4-23.3
			c-5.1-7.8-8.1-16.8-9.5-26c-2.6-17.6,0.1-37,6.8-53.4c3.7-9.1,9.7-16.2,18.7-20.5c9.5-4.5,20.3-6.9,30.5-9.3
			c2.7-0.6,6-1.8,8.8-1.7c4.4,0,8.3,1.8,11.6,4.6c3.6,3,6.4,7,8.4,11.2c3.8,8.3,4.4,17.6,2.7,26.5c-1.7,9.5-5.7,18.7-10.7,26.9
			c-4.8,8-11.5,15.8-20.9,18.2c-12.2,3.1-31.1-0.9-35.6-14.2c-3.2-9.5-1.5-21.3,3.1-30.1c5.2-9.9,22.3-23.4,32.9-12.4
			c3.9,4,3.3,11.4,2.8,16.6c-0.6,5.7-3.3,11.5-9.4,12.8C1271.7,670.4,1275.6,671.3,1276.7,671L1276.7,671z"/>
	</g>
</g>
<g>
	<g>
		<path class="st15" d="M956.5,670.3c-4.9-1.1-7.5-6.2-8.3-10.8c-0.8-4.5-1.3-11.4,0.7-15.6c5.8-12.3,22.9-5.5,29.9,2
			c11.8,12.7,15.2,41-3.5,48.9c-4.4,1.9-9.3,2.7-14.1,3.1c-8.7,0.9-15.8-1.2-22.1-7c-6.7-6.2-11.3-14.8-14.8-23.2
			c-7.3-16.7-9.3-39,5.7-52.3c1.6-1.4,3.4-2.7,5.3-3.7c4.5-2.2,9.5-1.6,14.3-0.6c6,1.3,11.9,2.8,17.7,4.6
			c9.2,2.7,18.9,5.7,25.5,13.2c6.4,7.2,9.4,16.9,11.6,26.1c2.1,8.8,3.4,17.9,3.4,27c0,8.9-1.3,17.8-4.3,26.2
			c-3.1,8.7-9,15-13.3,22.9c-5.1,9.2-0.9,18.4,2.7,27.3c3.1,7.6,6.5,15.2,11,22.1c10.3,16,25.7,23.7,44.3,25.4
			c9.1,0.8,18.4,0.7,27.5-0.2c8.5-0.8,17.2-2.8,23.3-9.2c0.2-0.2-4-1.5-4.8-0.6c-7.7,8.2-19.2,9-29.8,9.3
			c-13.1,0.5-26.8-0.2-38.4-7.1c-8.9-5.3-15.3-13.7-20.3-22.6c-5-9-10.1-19.5-12.4-29.5c-2.6-11.6,5.3-18.4,10.6-27.6
			c5.2-9.1,7.9-19.4,8.6-29.8c0.7-10.4-0.3-20.8-2.6-31c-2.1-9.5-5-19.7-11.3-27.5c-6.1-7.6-15.2-11.1-24.2-13.8
			c-10.3-3.2-21.5-6.9-32.3-7.5c-20.5-1-30.1,21.6-28.3,39.1c1.2,11.3,5.8,22.3,11.7,31.9c4.6,7.4,10.7,14.4,19.1,17.4
			c8.2,2.9,17.7,2.2,26.1,0.7c8.6-1.6,17.3-5.2,20.6-13.9c7.8-20.5-6.2-45.7-28.2-47.8c-7.7-0.7-18.3,0.8-20.1,9.8
			c-1.8,9.6-0.3,22.5,10.8,24.9C954.9,671.2,959.5,671,956.5,670.3L956.5,670.3z"/>
	</g>
</g>
<path class="st1" d="M1371.6,529.4c9.8,16.2,21.5,44.5,6.3,72.2c-6.5,11.9-18.1,20.2-31.5,22.9l-9.1,1.8V501.9l13.6,7.6
	C1359.4,514.3,1366.6,521.1,1371.6,529.4z"/>
<polygon class="st1" points="1361.3,199.6 1385.2,199.6 1385.2,574.9 1361.3,572.6 "/>
<circle class="st16" cx="1372.9" cy="185.4" r="34.1"/>
<path class="st17" d="M1183.6,630.2h-132.3c-1.4,0-2.6,1.2-2.6,2.6v0.1c0,1.4,1.2,2.6,2.6,2.6l132.3,0c1.4,0,2.6-1.2,2.6-2.6v-0.1
	C1186.2,631.3,1185,630.2,1183.6,630.2z"/>
<path class="st17" d="M1185.8,630.2L1185.8,630.2c1.6,0,2.9,1.3,2.9,2.8v144.5c0,1.5-1.3,2.8-2.8,2.8h-0.1c-1.5,0-2.8-1.3-2.8-2.8
	V633C1183,631.4,1184.3,630.2,1185.8,630.2z"/>
<path class="st17" d="M1180,777h-126c-1.7,0-3,1.3-3,3l0,0c0,1.7,1.3,3,3,3h126c1.7,0,3-1.3,3-3l0,0C1183,778.3,1181.7,777,1180,777
	z"/>
<path class="st17" d="M1048.8,780L1048.8,780c2,0,3.6-1.6,3.6-3.5V636.3c0-2-1.6-3.5-3.6-3.5l0,0c-2,0-3.6,1.6-3.6,3.5v140.1
	C1045.2,778.4,1046.8,780,1048.8,780z"/>
<g id="Layer_2">
	<g>
		<polygon class="st18" points="941.1,339.5 959.2,358.8 959.6,359.2 959.3,359.7 950,374.9 949.7,374.2 979.4,386.9 979.5,386.9 
			979.5,387.1 979.3,402.7 979.2,387.1 979.3,387.2 949.3,375.1 948.8,374.9 949.1,374.4 958.1,359 958.2,359.8 939.7,340.9 		"/>
	</g>
	<g>
		<polygon class="st18" points="950.2,375.4 932.4,390.5 932.6,389.6 940.8,402.4 941,402.8 940.6,403.1 920.7,413.8 920.8,413.7 
			924,421.7 920.6,413.7 920.5,413.6 920.6,413.6 940.2,402.3 940,402.9 931.4,390.4 931.1,389.9 931.6,389.5 948.9,373.9 		"/>
	</g>
	<g>
		<path class="st18" d="M1220,362.7c5.2,2.6,10.4,5.3,15.5,8l7.7,4l7.7,4.1l-1,0.3c3-5.6,6.1-11.2,9.2-16.8l0.5-1l0.8,0.7l15.4,12.7
			l-1.4,0.1c0.8-1.1,1.7-2.1,2.5-3.2l2.5-3.2c1.7-2.1,3.3-4.2,5-6.3l0.7-0.9l0.7,0.8l5.3,6.1l5.2,6.1l-0.9,0
			c2.2-1.9,4.3-3.9,6.5-5.8c2.2-1.9,4.4-3.9,6.6-5.7c-2,2.1-4,4.2-6.1,6.3c-2,2.1-4.1,4.1-6.1,6.2l-0.5,0.5l-0.5-0.5l-5.5-5.9
			l-5.4-5.9l1.4,0c-1.6,2.1-3.3,4.3-5,6.4l-2.5,3.2c-0.8,1.1-1.6,2.1-2.5,3.2l-0.6,0.8l-0.7-0.6l-15.3-12.8l1.4-0.3
			c-3.1,5.5-6.3,11.1-9.5,16.6l-0.4,0.6l-0.6-0.3l-7.6-4.3l-7.6-4.3C1230.1,368.5,1225,365.6,1220,362.7z"/>
	</g>
	<g>
		<polygon class="st18" points="1276,374.6 1301.1,395.5 1301.2,395.7 1301.3,395.9 1303.8,409.9 1303.6,409.6 1318.8,421.5 
			1319,421.6 1318.9,421.8 1308.7,440.7 1318.5,421.6 1318.5,421.9 1303.1,410.4 1302.9,410.3 1302.9,410.1 1300.1,396.1 
			1300.3,396.5 1274.7,376.2 		"/>
	</g>
	<g>
		<path class="st18" d="M1220,407.9l13.9-5.7l-0.2,0.8l-7.2-9.2l-0.6-0.8l0.9-0.4l8.1-3.2c1.3-0.6,2.7-1.1,4-1.6
			c1.3-0.5,2.7-1,4.1-1.5l-0.7,0.9c0.1-2.6,0.2-5.3,0.3-7.9l0-0.7l0.7,0c1.2,0.1,2.5,0.2,3.7,0.2c1.2,0.1,2.5,0.2,3.7,0.4v0.2
			c-1.2,0.2-2.5,0.2-3.7,0.4c-1.2,0.1-2.5,0.2-3.7,0.2l0.7-0.7c0.2,2.6,0.2,5.3,0.3,7.9l0,0.7l-0.7,0.3c-1.4,0.5-2.7,1.1-4.1,1.5
			c-1.4,0.5-2.7,1-4.1,1.4l-8.2,2.9l0.3-1.1l6.8,9.5l0.4,0.6l-0.6,0.2l-14.1,5L1220,407.9z"/>
	</g>
</g>
<g>
	<polyline class="st19" points="1021.6,859.6 1052.3,846 1064.1,852.8 1082.7,840 1074,823 1096.4,823 	"/>
	<polygon class="st20" points="1021,858.2 1051.9,845 1052.4,844.8 1052.9,845.1 1064.5,852.1 1063.6,852.1 1082.4,839.5 
		1082.2,840.3 1073.7,823.1 1073.5,822.7 1074,822.7 1096.4,823 1074,823.3 1074.3,822.9 1083.2,839.7 1083.4,840.2 1083,840.5 
		1064.6,853.5 1064.1,853.8 1063.6,853.5 1051.8,846.9 1052.8,847 1022.2,861 	"/>
</g>
<g>
	<polyline class="st19" points="1065.9,879.3 1065.9,863.3 1044.9,867.9 1045.2,849.1 1028.8,856.4 	"/>
	<path class="st20" d="M1065.9,879.3c-0.3-2.7-0.5-5.3-0.7-8l-0.2-4c-0.1-1.3-0.1-2.7-0.2-4l1.4,1.1c-1.7,0.5-3.5,0.9-5.2,1.3
		c-1.7,0.4-3.5,0.9-5.2,1.3l-5.2,1.2c-1.7,0.4-3.5,0.7-5.3,1.1l-1.8,0.4l0.1-1.8c0-1.6,0.1-3.1,0.1-4.7l0.2-4.7
		c0.1-3.1,0.3-6.3,0.5-9.4l1.5,1l-4.2,1.6c-1.4,0.5-2.8,1.1-4.2,1.6c-2.8,1.1-5.6,2.1-8.5,3.1c2.6-1.5,5.3-2.9,8-4.2
		c1.3-0.7,2.7-1.4,4-2l4-2l1.5-0.7l0,1.7c0,3.1,0.1,6.3,0.1,9.4l0,4.7c0,1.6,0,3.1,0,4.7l-1.8-1.5c1.7-0.4,3.5-0.8,5.2-1.2l5.3-1.1
		c1.8-0.4,3.5-0.7,5.3-1c1.8-0.3,3.5-0.7,5.3-1l1.5-0.2l-0.1,1.4c-0.1,1.3-0.1,2.7-0.2,4l-0.2,4
		C1066.4,874,1066.2,876.7,1065.9,879.3z"/>
</g>
</svg>
