<?xml version="1.0" encoding="utf-8"?>
<!-- Generator: Adobe Illustrator 19.1.0, SVG Export Plug-In . SVG Version: 6.00 Build 0)  -->
<svg version="1.1" xmlns="http://www.w3.org/2000/svg" xmlns:xlink="http://www.w3.org/1999/xlink" x="0px" y="0px"
	 viewBox="0 0 145.1 171" style="enable-background:new 0 0 145.1 171;" xml:space="preserve">
<style type="text/css">
	.st0{fill:#561F1F;}
	.st1{fill:none;stroke:#7A732F;stroke-width:5;stroke-miterlimit:10;}
	.st2{fill:#B8B15B;}
	.st3{fill:#E5DE85;}
	.st4{fill:#E8DE2F;stroke:#7A732F;stroke-miterlimit:10;}
	.st5{fill:#A39D37;}
	.st6{fill:#7A732F;}
	.st7{fill:#E8DE2F;}
	.st8{fill:#CCC72C;stroke:#7A732F;stroke-miterlimit:10;}
	.st9{fill:#CCC72C;}
	.st10{fill:#524E20;}
	.st11{fill:#E22F2D;stroke:#F04D4D;stroke-width:0.5;stroke-miterlimit:10;}
	.st12{fill:#F04D4D;}
	.st13{fill:#010101;}
	.st14{fill:none;stroke:#7A732F;stroke-width:2;stroke-miterlimit:10;}
</style>
<g id="head">
</g>
<g id="sideburn2">
</g>
<g id="Layer_2">
</g>
<g id="Layer_14">
</g>
<g id="Layer_3">
</g>
<g id="Layer_5">
</g>
<g id="ear">
	<path class="st0" d="M0-135.3"/>
</g>
<g id="teeth">
</g>
<g id="Layer_8">
	<g id="Layer_14_1_">
	</g>
</g>
<g id="Layer_9">
</g>
<g id="hair">
</g>
<g id="Layer_10">
</g>
<g id="eye2">
</g>
<g id="jaaw">
</g>
<g id="outline">
</g>
<g id="nose">
</g>
<g id="eye1">
</g>
<g id="wrinkles">
</g>
<g id="Layer_4">
</g>
<g id="Layer_7">
	<g>
		<path class="st1" d="M79.7,87.3c0,0,13.5,19.1,0,27.5s-27.1-12.8-13.1-29.5"/>
		<polygon class="st2" points="100.2,136.5 97.7,130.1 96.1,139.4 92.5,131.6 90.8,142.3 86.6,130.1 83.6,144.4 80,131.5 
			78.2,145.9 73.2,131.8 70.2,145.9 65.3,133 62,144.5 60.7,131.3 55.2,141.6 55.2,128.7 51.9,140.7 51.9,129.5 48.2,138.8 
			47.5,130.6 44.8,138.1 48.2,145.2 75.3,151.4 		"/>
		<polygon class="st3" points="100.2,136.9 97.7,130.4 96.7,142.5 92.5,132 91.1,146.4 86.6,130.4 83.7,147.3 80,131.8 78.6,149.8 
			73.2,132.1 70.4,149.5 65.3,133.3 61.6,148 60.7,131.6 54.2,146.1 55.2,129 51.3,145 51.9,129.9 47.6,142.3 47.5,131 44.8,138.4 
			48.2,145.6 75.3,151.7 		"/>
		<polygon class="st2" points="97.7,125.8 94.3,133.4 92,125.8 89.1,135.1 86.6,124.8 83.1,135.1 79.6,124.8 76.4,136.5 72.8,125.3 
			68.2,135.7 66.4,125.6 62.8,134.5 60.7,124 57.4,133.4 55.6,123.4 53,132 50.9,123.6 49.5,130.6 48.2,123.6 60.4,120.5 
			96.1,122.7 		"/>
		<polygon class="st3" points="96.7,125 98.5,124.6 97.5,127.2 94.5,132.3 91.9,123.8 89.1,135.1 86.3,122.1 83.1,135.1 78.7,125.6 
			76.4,136.5 72.2,125 68.2,135.7 66.4,123.1 62.8,134.3 61.1,122.4 57.5,132.5 55.8,122.1 53,131.9 51.9,125.1 65.8,121.9 
			96.2,124.2 		"/>
		<polygon class="st3" points="50.4,123.7 49.5,129.5 48.6,123.9 		"/>
		<path class="st4" d="M118.8,110c-2.1,0.6-4.6,1.8-9.5,1.8c-0.8,0-1.7,3-1.7,3.6c0.1,3.5-0.6,13.9-9.9,20.8
			c-0.1,0.1-0.2,0.2-0.3,0.3c-0.4,0.6-1.8,2.6-4.3,3.2c0,0-0.8,0.2-1.2,0.5c-0.3,0.2-0.6,0.3-0.9,0.3c-0.4,0-0.9,0.1-1.2,0.3
			c-0.2,0.1-0.4,0.2-0.6,0.3c-0.1,0-0.1,0-0.2,0c-0.3,0.1-0.6,0.2-0.7,0.4c-0.4,0.5-1.5,1.6-2.8,1.8c-0.2,0-0.4,0-0.6,0
			c-0.6-0.1-2.1-0.3-2.9,0c0,0-0.6,0.3-1.2,0.6c-0.4,0.2-0.8,0.3-1.3,0.1c-0.9-0.2-2.5-0.5-3.1,0.1c-0.1,0.1-0.3,0.2-0.5,0.3
			c-0.5,0.2-1.5,0.4-2.2-0.1c-0.3-0.3-0.8-0.3-1.3-0.3c-0.3,0.1-0.6,0.1-0.8,0.2c-0.4,0.2-0.9,0.3-1.4,0.2c-0.2-0.1-0.5-0.2-0.6-0.4
			c-0.2-0.2-0.4-0.4-0.7-0.5c-0.9-0.2-2.5-0.6-3.5-0.2c-0.1,0.1-0.3,0.1-0.4,0.1c-0.4,0-1.2,0.1-1.6-0.2c-0.3-0.2-0.6-0.3-1-0.3
			c-0.8,0-1.9-0.2-2.4-0.9c-0.1-0.2-0.4-0.4-0.6-0.5c-0.3-0.1-0.6-0.2-1-0.1c-0.5,0.1-1-0.1-1.3-0.4c-0.7-0.7-1.9-1.6-2.3-1.2
			c0,0-2.5-0.6-3-1.5c-0.1-0.3-0.4-0.5-0.7-0.6c-0.6-0.2-1.5-0.6-1.9-1c-0.2-0.2-0.6-0.4-0.9-0.4c-0.7-0.1-1.5-0.3-1.6-0.7
			c0,0-1.8-0.9-1.9-2.4c0-0.2,0.1-0.4,0.2-0.6c0.3-0.5,0.9-1.5,0.5-2.5c0-0.1-0.1-0.2-0.2-0.2c-0.9-0.9-7.5-9.4-8.6-19
			c-1-8.8-10.1-4.6-12.5-2.9c-0.4,0.3-1.2-2.6-1.1-2.2c0.9,3.9,6.5,30.2,2.2,34.9c-0.3,0.4-0.4,0.8-0.2,1.2c1,1.7,6.8,7,7,7
			c1.2,0.1,18.6,10.1,18.7,10.2c1.7,1.1,11.1,7.1,14.7,6.2c0,0,10.8-1.7,15.2-0.4c0.2,0.1,12.7-4.4,12.9-4.4c1-0.5,6.6-2.2,6.9-2.4
			c0.7-0.5,2.2-1.6,4.1-3.9c0.1-0.1,7-4.6,9.2-5.1c0.4-0.1,0.7-0.3,0.9-0.6c0.6-1,1.1-5,1.1-5.2c0.3-1.4,0.8-11.7,0.8-11.8
			c0-0.8-0.8-5.1,4.6-17.3C121.6,113.6,119.9,109.7,118.8,110z"/>
		<path class="st5" d="M36.9,113.2c0,0,1,7.2,8.6,17.5c0,0,0.2,0.5-0.3,1.4c-0.3,0.7-1,1.2-0.2,2.5c0,0-9.5-10.2-11.3-21.2
			L36.9,113.2z"/>
		<path class="st5" d="M113.9,148.4c0,0-8,3.6-12.6,8.5c-0.5,0.5-1.2,1-2,1.2c-4.1,1.3-17.3,5.5-17.9,6.4c0,0,10.1-5.6,16.7-7.1
			c1.2-0.3,2.3-0.9,3.2-1.7C103.9,153.4,109.5,148.7,113.9,148.4z"/>
		<g>
			<path class="st6" d="M110,114.6c0,0,0.2,1.3,0.2,3.1c0,0.9-0.1,2-0.2,3.2c-0.1,1.2-0.3,2.4-0.6,3.6c-0.3,1.2-0.6,2.4-1,3.6
				c-0.4,1.1-0.9,2.1-1.4,3c-0.5,0.8-1.1,1.5-1.5,1.8c-0.5,0.4-0.8,0.4-0.8,0.5c0,0,0-0.1,0.1-0.2c0.1-0.1,0.2-0.3,0.3-0.5
				c0.2-0.5,0.5-1.2,0.8-2c0.1-0.4,0.2-0.9,0.4-1.4c0.1-0.5,0.2-1,0.4-1.6c0.2-1.1,0.5-2.3,0.7-3.5c0.3-1.2,0.5-2.4,0.8-3.5
				c0.3-1.1,0.5-2.2,0.8-3.1C109.5,115.8,110,114.6,110,114.6z"/>
		</g>
		<g>
			<path class="st6" d="M111.8,116.8c0,0,0.5,1.7,0.7,4.3c0,0.6,0.1,1.4,0.1,2.1c0,0.7,0,1.5,0,2.3c0,0.8-0.1,1.7-0.2,2.5
				c-0.1,0.9-0.3,1.7-0.4,2.6c-0.2,0.9-0.4,1.7-0.7,2.5c-0.2,0.8-0.6,1.6-0.9,2.4c-0.4,0.7-0.7,1.5-1.1,2.1
				c-0.4,0.6-0.8,1.2-1.2,1.8c-0.4,0.5-0.9,0.9-1.2,1.3c-0.3,0.4-0.8,0.6-1.1,0.9c-0.6,0.5-1,0.7-1,0.7s0.2-0.4,0.7-1
				c0.2-0.3,0.5-0.6,0.8-1.1c0.3-0.4,0.5-0.9,0.9-1.5c0.3-0.6,0.5-1.2,0.8-1.8c0.3-0.7,0.5-1.4,0.8-2.1c0.2-0.7,0.4-1.5,0.7-2.3
				c0.2-0.8,0.4-1.6,0.6-2.4c0.2-0.8,0.4-1.6,0.5-2.4c0.1-0.8,0.3-1.6,0.4-2.4c0.2-1.6,0.4-3,0.5-4.3
				C111.6,118.5,111.8,116.8,111.8,116.8z"/>
		</g>
		<path class="st5" d="M26.8,140.7c0,0-1.9,1.9,6.1,7.9c0,0,29.9,18.7,33.5,15.9C66.4,164.6,37.4,153.9,26.8,140.7z"/>
		<g>
			<path class="st6" d="M33.7,113.8c0,0,0.1,0.4,0.4,1c0.1,0.3,0.3,0.7,0.5,1.1c0.2,0.4,0.4,0.9,0.6,1.4c0.2,0.5,0.5,1,0.8,1.6
				c0.3,0.6,0.6,1.1,0.9,1.8c0.3,0.6,0.7,1.2,1,1.9c0.3,0.6,0.7,1.3,1,1.9c0.4,0.6,0.7,1.3,1.1,1.9c0.4,0.6,0.7,1.2,1.1,1.8
				c0.4,0.6,0.7,1.2,1,1.7c0.3,0.5,0.6,1,0.9,1.5c0.5,1,1,1.8,1.4,2.3c0.3,0.6,0.5,0.9,0.5,0.9s-0.3-0.2-0.8-0.7
				c-0.5-0.4-1.2-1.1-2-1.9c-0.8-0.8-1.6-1.8-2.5-3c-0.4-0.6-0.8-1.2-1.2-1.8c-0.4-0.6-0.8-1.3-1.2-1.9c-0.4-0.7-0.7-1.3-1-2
				c-0.3-0.7-0.6-1.4-0.9-2c-0.5-1.3-0.9-2.6-1.1-3.7c-0.2-1.1-0.4-2.1-0.4-2.7C33.7,114.1,33.7,113.8,33.7,113.8z"/>
		</g>
		<g>
			<path class="st6" d="M33.7,114.4c0,0,0.5,2,1.3,4.9c0.4,1.5,0.8,3.2,1.2,5c0.2,0.9,0.5,1.8,0.7,2.8c0.2,1,0.5,1.9,0.8,2.9
				c0.3,1,0.6,1.9,0.9,2.8c0.3,0.9,0.6,1.8,0.9,2.7c0.3,0.9,0.7,1.7,1,2.5c0.4,0.8,0.7,1.5,1.1,2.1c0.4,0.6,0.7,1.2,1.1,1.7
				c0.4,0.5,0.7,0.9,1,1.2c0.3,0.3,0.6,0.5,0.8,0.7c0.2,0.1,0.3,0.2,0.3,0.2s-0.1,0-0.3-0.1c-0.2-0.1-0.6-0.2-1-0.4
				c-0.4-0.2-0.9-0.5-1.4-0.9c-0.5-0.4-1-0.9-1.5-1.5c-0.5-0.6-1-1.3-1.4-2.1c-0.5-0.8-0.9-1.6-1.3-2.5c-0.4-0.9-0.8-1.8-1.1-2.8
				c-0.3-1-0.7-1.9-1-2.9c-0.3-1-0.5-2-0.8-3c-0.2-1-0.4-2-0.6-2.9c-0.2-0.9-0.3-1.9-0.4-2.7c-0.1-0.9-0.2-1.7-0.3-2.5
				C33.6,116.4,33.7,114.4,33.7,114.4z"/>
		</g>
		<path class="st5" d="M110,114.2c0,0-1.6,15.5-5.2,19.1c0,0-4.2,1.4-7.1,3.2c0.8-1.1,10.6-6.5,9.9-22.4L110,114.2z"/>
		<path class="st4" d="M98.9,124.2c0,0-3.8-7.6,7.5-10c0,0,7.3,0.2,18.3-5.6c2.2-1.2,4.3-2.2,5.3-4.2l2.6-3.3c0.3-0.6,0.4-1.3,0.1-2
			l-2.1-5.3c0,0,19.1-40.8-0.8-66.3s-68-30-95.4-15.3S-1.4,56,15.8,91.1c0,0-7,6.4-0.5,13.1c0,0,6.2,7.1,17.9,9.4
			c0,0,14.9-6.1,12.1,10L98.9,124.2z"/>
		<g>
			<path class="st7" d="M122,76.2c3.9,4.8,8,12,9.9,17.2c1.2,3.3,1.2,6.9,1.1,7.1l0,0c-3.9,7.2-11.9,12.4-21.4,13.6
				c-3.3,0.4-5.2,0.2-5.2,0.2c-11.3,2.4-7.5,10-7.5,10s-0.4,2.5-3,1.4c0,0-2,0.6-2.1,1.2l-0.9-0.4c0,0-1.2,0.7-1.6,0.8
				c0,0-2.6-1.3-5.6-0.4c0,0-3-0.8-4,0.4c0,0-1.4,2.3-4.4,1.2c-3-1.1-3.5,0.3-3.5,0.3s-1.5,0.2-2.6-1.3c0,0-3.9,0-4.6,1.3
				c0,0-1.3-2.3-3.8-1.6l-1.3,1.1c0,0-2.5-4.1-4.9-1.6c0,0-1.8-2.2-2.5-0.4c0,0-2.1,0.6-2.8-0.6c0,0-1.9-0.7-2.7,0.4
				c0,0-4-0.7-3-3.1c0,0,2.3-13.9-12.5-9.4c0,0-26.6-7.3-20.2-18.5c0,0,1.1-1.9,2.6-5c1.7-3.5,3.8-8.6,5.1-14"/>
			<path class="st6" d="M122,76.2c2.9,3.5,5.4,7.3,7.6,11.3c1.1,2,2.1,4,2.9,6.2c0.2,0.5,0.4,1.1,0.5,1.7c0.1,0.6,0.3,1.1,0.4,1.7
				c0.1,0.6,0.2,1.1,0.2,1.7c0,0.3,0,0.6,0,0.9l0,0.4l0,0.2c0,0.1,0,0.1-0.1,0.4l-0.9-0.5l0.9,0.5c-0.3,0.6-0.7,1.2-1,1.7
				c-0.4,0.6-0.8,1.1-1.2,1.6c-0.4,0.5-0.9,1-1.3,1.5c-0.5,0.5-0.9,1-1.4,1.4c-0.5,0.4-1,0.9-1.5,1.3c-0.5,0.4-1.1,0.8-1.6,1.2
				c-0.5,0.4-1.1,0.7-1.7,1.1c-0.6,0.4-1.2,0.6-1.8,1c-1.2,0.6-2.4,1.1-3.7,1.5c-0.6,0.2-1.3,0.4-1.9,0.6c-0.6,0.2-1.3,0.3-1.9,0.5
				c-0.7,0.1-1.3,0.3-2,0.3c-0.7,0.1-1.3,0.2-2,0.2c-0.7,0.1-1.3,0.1-2,0.1c-0.7,0-1.3,0-2-0.1l0.2,0l-1.7,0.5
				c-0.3,0.1-0.6,0.2-0.8,0.3l-0.8,0.3c-0.3,0.1-0.5,0.3-0.8,0.4c-0.3,0.1-0.5,0.3-0.8,0.4l-0.7,0.5c-0.2,0.2-0.4,0.4-0.6,0.6
				c-0.2,0.2-0.4,0.4-0.5,0.7l-0.2,0.3l-0.2,0.4l-0.2,0.4l-0.1,0.4c-0.1,0.3-0.1,0.5-0.2,0.8c-0.1,0.6,0,1.1,0,1.7
				c0.1,0.3,0.1,0.6,0.2,0.8c0.1,0.3,0.2,0.6,0.3,0.8l0.1,0.2l0,0.1c0,0.2-0.1,0.4-0.2,0.6c-0.1,0.2-0.2,0.4-0.3,0.5
				c-0.2,0.3-0.5,0.6-0.9,0.8c-0.4,0.2-0.8,0.2-1.2,0.2c-0.4,0-0.7-0.2-1.1-0.3l0.3,0c-0.4,0.1-0.7,0.3-1.1,0.4
				c-0.2,0.1-0.3,0.2-0.5,0.3c-0.1,0-0.1,0.1-0.2,0.1c0,0,0,0,0,0c0,0,0,0,0-0.1l-0.7,0.4l-0.9-0.4l0.4,0l-1.7,0.9l-0.2,0.1
				l-0.2-0.1c-0.2-0.1-0.4-0.2-0.6-0.2c-0.2-0.1-0.4-0.1-0.6-0.2c-0.4-0.1-0.9-0.2-1.3-0.2c-0.9-0.1-1.8,0-2.6,0.3l-0.1,0l-0.1,0
				c-0.6-0.1-1.3-0.2-2-0.2c-0.3,0-0.6,0-0.9,0.1c-0.1,0-0.3,0.1-0.4,0.1c-0.1,0.1-0.2,0.1-0.3,0.2l0-0.1c-0.1,0.2-0.3,0.4-0.4,0.5
				c-0.1,0.1-0.3,0.3-0.5,0.4c-0.3,0.2-0.7,0.4-1.1,0.6c-0.4,0.1-0.8,0.2-1.2,0.2c-0.4,0-0.8-0.1-1.2-0.2l-0.6-0.2l-0.5-0.2
				c-0.3-0.1-0.6-0.2-1-0.2c-0.3,0-0.6,0-0.9,0c-0.1,0-0.2,0.1-0.3,0.2c-0.1,0.1-0.2,0.2-0.2,0.2l-0.4,0.3c-0.2,0-0.3,0-0.5,0
				c-0.1,0-0.3,0-0.4-0.1c-0.3-0.1-0.6-0.2-0.8-0.3c-0.5-0.3-1-0.7-1.3-1.2l0.4,0.2c-0.8,0-1.6,0.1-2.3,0.2
				c-0.4,0.1-0.7,0.2-1.1,0.3c-0.2,0.1-0.3,0.1-0.4,0.2c-0.1,0.1-0.2,0.2-0.3,0.3l-0.5,0.7l-0.4-0.7c-0.1-0.1-0.2-0.3-0.3-0.4
				c-0.1-0.1-0.2-0.2-0.3-0.3c-0.2-0.2-0.5-0.4-0.8-0.5c-0.6-0.3-1.2-0.3-1.9-0.1l0.2-0.1l-1.3,1.1l-0.4,0.4l-0.3-0.5
				c-0.2-0.4-0.6-0.8-0.9-1.1c-0.3-0.3-0.7-0.6-1.1-0.8c-0.2-0.1-0.4-0.2-0.6-0.2c-0.1,0-0.2,0-0.3,0c-0.1,0-0.2,0-0.3,0l-0.3,0.1
				l-0.3,0.1c-0.2,0.1-0.3,0.3-0.5,0.4l-0.4,0.3l-0.3-0.4c-0.3-0.3-0.7-0.7-1-0.9c-0.1,0-0.2-0.1-0.2-0.1c-0.1,0-0.1,0-0.1,0
				c0,0-0.1,0-0.1,0.1c0,0-0.1,0.2-0.1,0.2l-0.2,0.3l-0.2,0c-0.3,0.1-0.5,0.1-0.8,0.1c-0.3,0-0.6,0-0.9,0c-0.3,0-0.6-0.1-0.9-0.2
				c-0.3-0.1-0.6-0.4-0.8-0.7l0.3,0.2c-0.2-0.1-0.4-0.1-0.6-0.1c-0.2,0-0.4,0-0.6,0c-0.4,0-0.7,0.2-0.9,0.4l-0.2,0.3l-0.3-0.1
				c-0.5-0.1-0.9-0.2-1.3-0.4c-0.4-0.2-0.8-0.4-1.2-0.6c-0.2-0.1-0.4-0.3-0.6-0.5l-0.2-0.3c-0.1-0.1-0.1-0.3-0.2-0.4
				c0-0.1-0.1-0.3-0.1-0.4c0-0.1,0-0.3,0-0.4c0-0.3,0.1-0.5,0.2-0.8l0,0.1c0.1-0.8,0.1-1.6,0.1-2.4c0-0.8-0.1-1.6-0.3-2.4
				c-0.2-0.8-0.5-1.5-0.9-2.2c-0.4-0.7-0.9-1.2-1.5-1.7c-0.3-0.2-0.6-0.4-1-0.5c-0.3-0.2-0.7-0.3-1.1-0.4c-0.4-0.1-0.8-0.1-1.2-0.2
				c-0.4-0.1-0.8,0-1.2,0c-0.8,0-1.6,0.1-2.4,0.3c-0.8,0.2-1.6,0.4-2.4,0.6l-0.1,0l-0.1,0c-2.1-0.6-4.1-1.3-6.1-2.1
				c-2-0.8-4-1.7-5.9-2.7c-1-0.5-1.9-1.1-2.8-1.6c-0.9-0.6-1.8-1.2-2.6-2c-0.8-0.7-1.6-1.5-2.3-2.4c-0.7-0.9-1.2-1.9-1.5-3
				c-0.3-1.1-0.2-2.3,0.1-3.4l0.3-0.8c0.1-0.3,0.3-0.5,0.4-0.8c0.3-0.5,0.5-0.9,0.8-1.4c1.1-1.9,2-3.8,2.9-5.7
				c1.8-3.9,3.4-7.9,4.5-12c-0.9,4.2-2.3,8.3-4,12.2c-0.8,2-1.7,3.9-2.7,5.8c-0.5,1-1.1,1.9-1.3,2.8c-0.2,1-0.2,2,0,2.9
				c0.2,1,0.8,1.8,1.4,2.7c0.6,0.8,1.4,1.6,2.1,2.2c0.8,0.7,1.7,1.3,2.5,1.9c0.9,0.6,1.8,1.1,2.7,1.6c1.9,1,3.8,1.9,5.8,2.6
				c2,0.8,4,1.5,6,2.1l-0.3,0c0.8-0.2,1.6-0.5,2.5-0.6c0.8-0.2,1.7-0.3,2.6-0.3c0.4,0,0.9,0,1.3,0c0.4,0,0.9,0.1,1.3,0.2
				c0.4,0.1,0.9,0.2,1.3,0.4c0.4,0.2,0.8,0.4,1.2,0.6c0.7,0.5,1.4,1.2,1.8,2c0.5,0.8,0.8,1.6,1,2.4c0.2,0.8,0.3,1.7,0.4,2.6
				c0,0.9,0,1.7-0.1,2.6l0,0.1c0,0.2-0.1,0.3-0.1,0.5c0,0.1,0,0.1,0,0.2c0,0.1,0,0.1,0,0.2l0.1,0.2l0.1,0.2c0.1,0.1,0.2,0.2,0.4,0.3
				c0.3,0.2,0.6,0.4,1,0.5c0.4,0.1,0.8,0.2,1.1,0.3l-0.5,0.2c0.2-0.3,0.5-0.5,0.8-0.6c0.3-0.1,0.6-0.2,0.9-0.2c0.3,0,0.6,0,0.8,0
				c0.3,0,0.5,0.1,0.8,0.2l0.2,0.1l0.1,0.2c0.2,0.3,0.5,0.4,0.9,0.5c0.2,0,0.4,0,0.7,0c0.2,0,0.5-0.1,0.7-0.1l-0.3,0.3
				c0.1-0.2,0.1-0.3,0.2-0.5c0.1-0.2,0.3-0.3,0.5-0.4c0.2-0.1,0.4-0.1,0.7-0.1c0.2,0,0.4,0.1,0.5,0.2c0.3,0.1,0.6,0.3,0.8,0.5
				c0.2,0.2,0.4,0.4,0.6,0.6l-0.7,0c0.2-0.2,0.4-0.4,0.7-0.5c0.1-0.1,0.3-0.2,0.4-0.2l0.5-0.1c0.2,0,0.3,0,0.5,0c0.2,0,0.3,0,0.5,0
				c0.3,0,0.6,0.2,0.9,0.3c0.5,0.3,1,0.6,1.3,1c0.4,0.4,0.7,0.8,1,1.3l-0.7-0.1l1.3-1.1l0.1-0.1l0.1,0c0.2,0,0.4-0.1,0.6-0.1
				c0.2,0,0.4,0,0.6,0c0.4,0,0.9,0.1,1.2,0.3c0.4,0.2,0.8,0.4,1.1,0.7c0.2,0.1,0.3,0.3,0.4,0.4c0.1,0.2,0.3,0.3,0.4,0.5l-0.9,0
				c0.2-0.3,0.4-0.5,0.6-0.6c0.2-0.1,0.4-0.3,0.6-0.3c0.4-0.2,0.8-0.3,1.3-0.4c0.8-0.2,1.7-0.2,2.5-0.3l0.3,0l0.2,0.2
				c0.3,0.4,0.6,0.6,1,0.8c0.2,0.1,0.4,0.2,0.6,0.2c0.1,0,0.2,0,0.3,0c0.1,0,0.2,0,0.3,0l-0.4,0.3c0.2-0.3,0.3-0.5,0.5-0.6
				c0.2-0.2,0.4-0.2,0.6-0.3c0.4-0.1,0.9-0.1,1.3-0.1c0.4,0,0.8,0.1,1.2,0.2l0.5,0.2l0.5,0.1c0.3,0.1,0.6,0.1,0.9,0.1
				c0.3,0,0.6-0.1,0.9-0.1c0.3-0.1,0.6-0.2,0.8-0.4c0.1-0.1,0.2-0.2,0.4-0.3c0.1-0.1,0.2-0.2,0.3-0.3l0,0l0,0
				c0.2-0.2,0.4-0.3,0.6-0.4c0.2-0.1,0.4-0.2,0.6-0.2c0.4-0.1,0.8-0.1,1.2-0.1c0.8,0,1.5,0.1,2.2,0.3l-0.3,0c1-0.3,2-0.4,3-0.3
				c0.5,0,1,0.1,1.5,0.2c0.2,0.1,0.5,0.1,0.7,0.2c0.2,0.1,0.5,0.2,0.7,0.3l-0.4,0l1.6-0.8l0.2-0.1l0.2,0.1l0.9,0.4l-0.7,0.4
				c0-0.1,0.1-0.3,0.1-0.3c0.1-0.1,0.1-0.2,0.2-0.2c0.1-0.1,0.2-0.2,0.3-0.3c0.2-0.1,0.4-0.2,0.6-0.3c0.4-0.2,0.8-0.3,1.2-0.5
				l0.2-0.1l0.2,0.1c0.3,0.1,0.5,0.2,0.8,0.2c0.3,0,0.5,0,0.7-0.1c0.2-0.1,0.4-0.2,0.5-0.5c0.1-0.1,0.1-0.2,0.2-0.3
				c0-0.1,0.1-0.3,0.1-0.4l0,0.3c-0.2-0.3-0.3-0.6-0.3-0.9c-0.1-0.3-0.2-0.6-0.2-1c-0.1-0.6-0.1-1.3,0-2c0-0.3,0.1-0.7,0.2-1
				l0.1-0.5l0.2-0.5l0.2-0.4l0.3-0.4c0.2-0.3,0.4-0.6,0.6-0.8c0.2-0.2,0.5-0.5,0.7-0.7l0.8-0.6c0.3-0.2,0.6-0.3,0.8-0.5
				c0.3-0.1,0.6-0.3,0.9-0.4l0.9-0.3c0.3-0.1,0.6-0.2,0.9-0.3l1.8-0.5l0.1,0l0.1,0c0.6,0.1,1.3,0.1,1.9,0.1c0.6,0,1.3,0,1.9-0.1
				c0.6-0.1,1.3-0.1,1.9-0.2c0.6-0.1,1.3-0.2,1.9-0.3c0.6-0.1,1.3-0.3,1.9-0.5c0.6-0.2,1.2-0.4,1.9-0.6c1.2-0.4,2.4-0.9,3.6-1.5
				c0.6-0.3,1.2-0.6,1.7-0.9c0.6-0.3,1.1-0.7,1.6-1c0.5-0.4,1.1-0.7,1.6-1.1c0.5-0.4,1-0.8,1.5-1.2c0.5-0.5,0.9-0.9,1.4-1.4
				c0.4-0.5,0.9-0.9,1.3-1.5c0.4-0.5,0.8-1,1.1-1.6c0.4-0.5,0.7-1.1,1-1.6l0.9,0.5l-0.9-0.5c-0.1,0.2,0,0,0,0l0-0.2l0-0.4
				c0-0.3,0-0.5,0-0.8c0-0.6-0.1-1.1-0.1-1.7c-0.1-0.5-0.2-1.1-0.3-1.6c-0.1-0.5-0.2-1.1-0.4-1.6c-0.7-2.1-1.6-4.2-2.6-6.2
				C127.1,83.7,124.8,79.8,122,76.2z"/>
		</g>
		<path class="st8" d="M77.3,81.1"/>
		<g>
			<path class="st5" d="M46,123.8c0.1-0.9,0.1-1.8,0-2.7c-0.1-0.9-0.2-1.8-0.5-2.6c-0.2-0.8-0.6-1.6-1-2.2c-0.4-0.7-1-1.2-1.6-1.6
				c-0.3-0.2-0.6-0.4-1-0.5c-0.2-0.1-0.3-0.1-0.5-0.2c-0.2,0-0.4-0.1-0.5-0.1l-0.6-0.1l-0.6,0c-0.4,0-0.8,0-1.2,0
				c-0.8,0-1.6,0.1-2.5,0.3c-0.8,0.1-1.7,0.4-2.5,0.6l-0.4,0.1l-0.6-0.1c-0.7-0.2-1.3-0.3-1.9-0.5l-1.8-0.5
				c-1.2-0.4-2.4-0.8-3.6-1.3c-2.4-0.9-4.7-2-7-3.5c-1.1-0.7-2.2-1.5-3.3-2.5c-1.1-0.9-2.1-2-2.8-3.4c-0.8-1.4-1.3-3.1-1.2-4.9
				c0.1-1.8,0.9-3.3,1.8-4.5l-0.2,0.3c0.7-1.5,1.5-2.9,2.2-4.3l0.6-1.1l0.3-0.5l0.3-0.5c0.2-0.3,0.3-0.6,0.5-1
				c0.2-0.3,0.3-0.7,0.5-1c0.6-1.4,1.2-2.9,1.8-4.4c0.3-0.8,0.6-1.5,0.9-2.3c0.3-0.8,0.7-1.5,1-2.2c0,0.8,0,1.6-0.1,2.5
				c0,0.8-0.1,1.6-0.1,2.4c-0.1,1.6-0.3,3.3-0.6,5c-0.1,0.4-0.2,0.8-0.3,1.3c-0.1,0.4-0.3,0.9-0.4,1.3l-0.2,0.6L18.6,90l-0.4,1.1
				c-0.6,1.5-1.2,3-1.8,4.5l0,0.1l-0.2,0.3c-0.5,0.8-0.7,1.6-0.7,2.3c0,0.7,0.2,1.4,0.7,2.2c0.5,0.7,1.2,1.5,2,2.2
				c0.8,0.7,1.7,1.3,2.7,2c1.9,1.2,4,2.3,6.2,3.3c1.1,0.5,2.2,1,3.3,1.4L32,110l1.7,0.6l-1,0c1-0.1,1.9-0.3,2.9-0.4c1-0.1,2,0,3,0
				c0.5,0.1,1,0.1,1.5,0.2l0.8,0.2l0.8,0.3c0.5,0.2,1,0.4,1.5,0.7c0.5,0.3,0.9,0.6,1.3,1c0.8,0.7,1.5,1.7,1.9,2.7
				c0.2,0.5,0.4,1,0.5,1.5c0.1,0.5,0.2,1,0.2,1.5C47.1,120.2,46.7,122.1,46,123.8z"/>
		</g>
		<g>
			<path class="st5" d="M122.1,76.3c1.8,1.5,3.4,3.4,4.8,5.4c1.4,2,2.6,4.1,3.7,6.2c0.5,1.1,1.1,2.1,1.6,3.2l0.7,1.6l0.1,0.2
				l0.1,0.2l0.2,0.5c0.1,0.3,0.2,0.6,0.3,1c0.3,1.3,0.5,2.5,0.6,3.8c0,0.3,0,0.7,0,1.1c0,0.2,0,0.4,0,0.7c0,0.1,0,0.1,0,0.3
				c0,0.1,0,0.2-0.1,0.4c0,0.1-0.2,0.4-0.3,0.6l-0.1,0.1l-0.9,1.5c-0.7,1.1-1.4,2.1-2.3,3.1c-0.9,1-1.8,1.9-2.9,2.7
				c-1,0.8-2.1,1.5-3.2,2.1c-1.1,0.6-2.3,1.2-3.4,1.7c-1.1,0.5-2.3,0.9-3.5,1.3l-1.8,0.5c-0.6,0.2-1.2,0.3-1.8,0.4l-0.9,0.2l-0.2,0
				l-0.3,0.1l-0.4,0.1c-0.7,0.1-1.4,0.2-2.1,0.2c-0.7,0-1.3,0-2-0.1c-0.7-0.1-1.3-0.2-2.1-0.4l0.9,0c-1.2,0.2-2.4,0.5-3.5,0.9
				c-1.1,0.4-2.2,0.9-3,1.6c-0.2,0.2-0.4,0.4-0.6,0.6c-0.2,0.2-0.4,0.4-0.5,0.7c-0.3,0.5-0.5,1-0.7,1.6c-0.3,1.2-0.3,2.5,0.1,3.8
				c-0.8-1.1-1.3-2.5-1.4-3.9c0-0.4,0-0.7,0.1-1.1c0.1-0.4,0.2-0.7,0.3-1.1c0.1-0.4,0.3-0.7,0.5-1.1c0.2-0.3,0.4-0.7,0.6-1
				c0.9-1.3,2.1-2.2,3.4-2.9c1.3-0.7,2.6-1.3,4-1.7l0.2-0.1l0.7,0.1c0.4,0,0.9,0.1,1.4,0.1c0.5,0,1,0,1.5-0.1c0.5-0.1,1-0.2,1.4-0.2
				l0.4-0.1c0,0,0.2,0,0.2,0l0.2-0.1l0.8-0.3c1.1-0.3,2.1-0.7,3.2-1.1c0.5-0.2,1-0.4,1.5-0.6c0.5-0.2,1-0.4,1.5-0.7
				c1-0.4,1.9-1,2.9-1.5c0.9-0.5,1.8-1.1,2.6-1.8c1.7-1.3,3-2.8,4.2-4.6l1-1.4l0.1-0.1c-0.1,0.1-0.2,0.4-0.2,0.4c0,0.1,0,0.1,0,0.2
				l0,0c0,0,0-0.1,0-0.2c0-0.2,0-0.4,0-0.7c0-1-0.1-2.1-0.3-3.1c0-0.3-0.1-0.5-0.1-0.7l-0.1-0.3c0,0,0-0.1,0-0.2l-0.1-0.2l-0.5-1.7
				l-1-3.3c-0.7-2.2-1.5-4.4-2.3-6.5c-0.4-1.1-0.9-2.1-1.4-3.2C123.2,78.4,122.6,77.4,122.1,76.3z"/>
		</g>
		<g>
			<path class="st9" d="M78.7,83.8c0,0,17.7,24.8,0,33"/>
			<path class="st6" d="M78.7,83.8c0,0,0.5,0.4,1.2,1.2c0.7,0.8,1.7,2,2.7,3.5c1,1.5,2.1,3.3,3.1,5.4c0.5,1,0.9,2.2,1.3,3.3
				c0.4,1.2,0.7,2.4,0.9,3.6c0.2,1.2,0.3,2.5,0.3,3.8l0,0.9c0,0.3-0.1,0.6-0.1,0.9c-0.1,0.6-0.2,1.2-0.4,1.8
				c-0.2,0.6-0.4,1.2-0.6,1.7c-0.3,0.5-0.5,1.1-0.8,1.5c-0.6,1-1.3,1.8-2,2.4c-0.4,0.3-0.7,0.6-1.1,0.9c-0.4,0.2-0.7,0.5-1,0.7
				c-0.7,0.4-1.3,0.6-1.8,0.8c-1,0.3-1.6,0.5-1.6,0.5s0.5-0.4,1.3-1c0.4-0.3,0.8-0.8,1.4-1.2c0.5-0.5,1-1.1,1.5-1.8
				c0.3-0.3,0.5-0.7,0.7-1.1c0.2-0.4,0.4-0.8,0.6-1.2c0.2-0.4,0.3-0.9,0.5-1.3c0.1-0.5,0.2-0.9,0.3-1.4c0.1-1,0.2-2,0.2-3.1
				c0-1.1-0.1-2.2-0.3-3.3c-0.2-1.1-0.4-2.2-0.7-3.3c-0.3-1.1-0.6-2.1-1-3.2c-0.4-1-0.7-2-1.1-2.9c-0.4-0.9-0.7-1.8-1-2.6
				c-0.7-1.6-1.3-3-1.7-4C78.9,84.4,78.7,83.8,78.7,83.8z"/>
		</g>
		<g>
			<path class="st5" d="M66.4,83.8c0,0-0.3,0.5-0.7,1.4c-0.5,0.9-1.1,2.2-1.8,3.7c-0.3,0.8-0.7,1.6-1,2.5c-0.3,0.9-0.6,1.8-0.9,2.8
				c-0.3,1-0.5,2-0.7,3c-0.2,1-0.4,2.1-0.4,3.2c-0.1,1.1-0.1,2.1,0,3.2c0.1,1,0.2,2.1,0.4,3c0.2,1,0.4,1.9,0.8,2.8
				c0.3,0.9,0.6,1.7,1,2.5c0.4,0.7,0.7,1.4,1,2c0.3,0.6,0.6,1.1,0.9,1.6c0.5,0.8,0.8,1.4,0.8,1.4s-0.5-0.3-1.3-1
				c-0.4-0.3-0.8-0.8-1.3-1.3c-0.5-0.5-1-1.1-1.6-1.8c-0.3-0.4-0.5-0.8-0.8-1.1c-0.3-0.4-0.5-0.9-0.7-1.3c-0.5-0.9-0.9-1.9-1.3-3
				c-0.4-1.1-0.6-2.2-0.7-3.4c-0.1-1.2-0.2-2.4-0.1-3.6c0.2-2.4,0.8-4.8,1.6-6.9c0.4-1,0.9-2,1.4-2.9c0.5-0.9,1-1.7,1.5-2.4
				c1-1.4,2-2.5,2.8-3.2C65.9,84.1,66.4,83.8,66.4,83.8z"/>
		</g>
		<g>
			<path class="st6" d="M66.4,83.8c0,0-0.2,0.5-0.5,1.5c-0.2,0.5-0.4,1-0.6,1.7c-0.1,0.3-0.3,0.7-0.4,1c-0.1,0.4-0.2,0.7-0.4,1.1
				c-0.2,0.8-0.5,1.6-0.8,2.5c-0.3,0.9-0.5,1.8-0.7,2.8c-0.3,1-0.4,2-0.6,3l-0.2,0.8l-0.1,0.8l-0.2,1.6c-0.1,0.5,0,1-0.1,1.6
				c0,0.5,0,1,0,1.5c0.1,1,0.1,2,0.3,3c0.1,0.5,0.1,1,0.2,1.4c0.1,0.5,0.2,0.9,0.3,1.4c0.1,0.5,0.2,0.9,0.4,1.3
				c0.1,0.4,0.2,0.8,0.4,1.2c0.3,0.8,0.5,1.5,0.8,2.1c0.3,0.6,0.5,1.1,0.7,1.6c0.2,0.4,0.4,0.8,0.5,1c0.1,0.2,0.2,0.3,0.2,0.3
				s-0.5-0.3-1.2-1c-0.3-0.4-0.8-0.8-1.2-1.3c-0.2-0.3-0.5-0.6-0.7-0.9c-0.2-0.3-0.4-0.7-0.7-1c-0.4-0.7-0.9-1.6-1.3-2.5
				c-0.2-0.5-0.4-0.9-0.6-1.4c-0.2-0.5-0.3-1-0.4-1.6c-0.2-0.5-0.3-1.1-0.3-1.6c-0.1-0.6-0.2-1.1-0.2-1.7c0-0.6,0-1.2,0-1.7
				c0-0.6,0-1.2,0.1-1.8l0.2-1.7l0.1-0.9l0.2-0.8c0.1-0.6,0.3-1.1,0.4-1.6c0.1-0.3,0.1-0.5,0.2-0.8c0.1-0.3,0.2-0.5,0.3-0.8
				c0.4-1,0.8-2,1.2-2.9c0.5-0.9,0.9-1.7,1.4-2.4c0.2-0.4,0.4-0.7,0.6-1c0.2-0.3,0.5-0.6,0.7-0.9c0.4-0.5,0.8-1,1.1-1.4
				C66,84.2,66.4,83.8,66.4,83.8z"/>
		</g>
		<path class="st5" d="M118.6,86.3c0,0-10.1,19.7-32,0C86.6,86.3,105.6,113,118.6,86.3z"/>
		<path class="st5" d="M62.1,86.6c0,0-22.3,15.5-33.7,0.6C28.5,87.2,37.4,109.1,62.1,86.6z"/>
		<g>
			<path class="st5" d="M78.7,83.8c0,0,0.5,0.4,1.3,1.1c0.8,0.8,1.8,1.9,2.9,3.4c1.1,1.5,2.3,3.3,3.4,5.4c0.5,1.1,1,2.2,1.4,3.4
				c0.4,1.2,0.7,2.4,0.9,3.7c0.2,1.3,0.3,2.6,0.2,3.9c-0.1,1.3-0.3,2.6-0.7,3.8c-0.2,0.6-0.4,1.2-0.7,1.7c-0.3,0.5-0.6,1-0.9,1.5
				c-0.6,0.9-1.4,1.7-2.1,2.3c-0.4,0.3-0.7,0.6-1.1,0.8c-0.4,0.2-0.7,0.5-1,0.7c-0.7,0.3-1.3,0.7-1.8,0.8c-1,0.4-1.6,0.5-1.6,0.5
				s0.5-0.4,1.3-1.1c0.4-0.3,0.9-0.8,1.4-1.3c0.3-0.2,0.5-0.5,0.8-0.8c0.1-0.1,0.3-0.3,0.4-0.4c0.1-0.2,0.3-0.3,0.4-0.5
				c0.3-0.3,0.5-0.7,0.8-1.1c0.2-0.4,0.5-0.8,0.7-1.2c0.2-0.4,0.4-0.9,0.6-1.3c0.1-0.2,0.2-0.5,0.2-0.7c0.1-0.2,0.1-0.5,0.2-0.7
				c0.1-0.5,0.2-1,0.3-1.5c0-0.5,0.1-1.1,0.1-1.6c0-1.1-0.1-2.2-0.3-3.3c-0.4-2.2-1.1-4.4-1.8-6.5c-0.4-1-0.8-2-1.2-2.9
				c-0.4-0.9-0.8-1.8-1.2-2.6c-0.8-1.6-1.5-3-1.9-3.9C79,84.4,78.7,83.8,78.7,83.8z"/>
		</g>
		<path class="st8" d="M21.7,79.5"/>
		<path class="st5" d="M131.4,91.3c0,0,4-10.1,5-14.8c0,0-6.4,2.3-14.3-0.1C122.1,76.3,129.7,87.1,131.4,91.3z"/>
		<path class="st5" d="M7.8,46.6c0,0,4.2-36.2,54.4-42.1C62.1,4.5,24.8,13.3,7.8,46.6z"/>
		<g>
			<polygon class="st10" points="115.6,17 103.3,21 104.6,19.6 101.9,28.2 101.6,29.1 100.8,29.4 87.9,34.1 88.7,32.9 88.5,39.8 
				88.5,41 87.3,40.9 72.1,39.5 72.4,39.4 55.1,44.6 72,38.3 72.1,38.3 72.2,38.3 87.5,38.7 86.3,39.8 86.1,32.9 86,32 86.9,31.6 
				99.5,26.1 98.5,27.3 100.6,18.5 100.9,17.6 101.9,17.1 113.9,12.3 			"/>
		</g>
		<g>
			<polygon class="st10" points="101.9,26 106.2,30.7 107.6,32.3 106.3,33.5 97.3,42.7 97.4,41.4 100.7,48.6 100.9,49.1 100.5,49.3 
				93.6,52.9 99.9,48.4 99.7,49.1 95.5,42.5 95.1,41.9 95.6,41.3 103.2,30.9 103.4,33.7 98.4,29.6 			"/>
		</g>
		<g>
			<polygon class="st10" points="101.8,21.5 93,17.7 94.8,17.3 88.2,22.6 87.8,22.9 87.5,22.9 72.2,23.1 87.3,20.6 86.6,20.9 
				92.4,14.7 93.1,14 94.2,14.3 103.4,16.7 			"/>
		</g>
		<g>
			<polygon class="st11" points="66.7,63 66.2,59.1 69.1,56 73.9,55.6 77.6,58 78.2,61.9 75.2,65 70.5,65.5 			"/>
			<polygon class="st12" points="70,61.4 69.7,59.8 70.9,58.5 72.9,58.3 74.4,59.3 74.6,60.9 73.4,62.2 71.5,62.3 			"/>
			<g>
				<polygon class="st12" points="71.8,58.2 73.9,55.6 73.7,58.9 				"/>
			</g>
			<g>
				<polygon class="st12" points="70.2,59.2 69.1,56 71.8,58.1 				"/>
			</g>
			<g>
				<polygon class="st12" points="69.9,60.8 66.2,59.1 70.2,58.8 				"/>
			</g>
			<g>
				<polygon class="st12" points="70.7,62.1 66.7,63 69.8,60.3 				"/>
			</g>
			<g>
				<polygon class="st12" points="72.5,62.3 70.5,65.5 70.6,61.7 				"/>
			</g>
			<g>
				<polygon class="st12" points="74,61.4 75.2,65 72.4,62.5 				"/>
			</g>
			<g>
				<polygon class="st12" points="74.9,60 78.2,61.9 74.3,61.9 				"/>
			</g>
			<g>
				<polygon class="st12" points="73.7,58.5 77.6,58 74.5,60.4 				"/>
			</g>
		</g>
		<g>
			<polygon class="st11" points="121.8,73.1 121.3,69.2 124.2,66.1 129,65.6 132.7,68.1 133.3,72 130.3,75.1 125.6,75.5 			"/>
			<polygon class="st12" points="125.1,71.4 124.8,69.8 126,68.6 128,68.4 129.5,69.4 129.7,71 128.5,72.2 126.6,72.4 			"/>
			<g>
				<polygon class="st12" points="126.9,68.2 129,65.6 128.8,68.9 				"/>
			</g>
			<g>
				<polygon class="st12" points="125.3,69.3 124.2,66.1 126.9,68.2 				"/>
			</g>
			<g>
				<polygon class="st12" points="125,70.8 121.3,69.2 125.3,68.9 				"/>
			</g>
			<g>
				<polygon class="st12" points="125.8,72.2 121.8,73.1 124.9,70.4 				"/>
			</g>
			<g>
				<polygon class="st12" points="127.6,72.4 125.6,75.5 125.7,71.8 				"/>
			</g>
			<g>
				<polygon class="st12" points="129.1,71.5 130.3,75.1 127.5,72.5 				"/>
			</g>
			<g>
				<polygon class="st12" points="130,70 133.3,72 129.4,71.9 				"/>
			</g>
			<g>
				<polygon class="st12" points="128.8,68.6 132.7,68.1 129.6,70.4 				"/>
			</g>
		</g>
		<g>
			<polygon class="st11" points="12.5,72.3 12,68.4 14.9,65.3 19.7,64.9 23.4,67.3 24,71.3 21,74.3 16.3,74.8 			"/>
			<polygon class="st12" points="15.8,70.7 15.5,69.1 16.7,67.8 18.7,67.7 20.2,68.6 20.4,70.2 19.2,71.5 17.3,71.7 			"/>
			<g>
				<polygon class="st12" points="17.6,67.5 19.7,64.9 19.5,68.2 				"/>
			</g>
			<g>
				<polygon class="st12" points="16,68.6 14.9,65.3 17.6,67.4 				"/>
			</g>
			<g>
				<polygon class="st12" points="15.7,70.1 12,68.4 16,68.1 				"/>
			</g>
			<g>
				<polygon class="st12" points="16.6,71.4 12.5,72.3 15.6,69.6 				"/>
			</g>
			<g>
				<polygon class="st12" points="18.3,71.7 16.3,74.8 16.4,71 				"/>
			</g>
			<g>
				<polygon class="st12" points="19.9,70.7 21,74.3 18.2,71.8 				"/>
			</g>
			<g>
				<polygon class="st12" points="20.7,69.3 24,71.3 20.1,71.2 				"/>
			</g>
			<g>
				<polygon class="st12" points="19.6,67.8 23.4,67.3 20.3,69.7 				"/>
			</g>
		</g>
		<g>
			<polygon class="st11" points="66.1,157.2 65.6,153.3 68.5,150.2 73.3,149.8 77,152.2 77.6,156.1 74.6,159.2 69.9,159.7 			"/>
			<polygon class="st12" points="69.4,155.6 69.1,154 70.3,152.7 72.3,152.5 73.8,153.5 74,155.1 72.8,156.4 70.9,156.6 			"/>
			<g>
				<polygon class="st12" points="71.2,152.4 73.3,149.8 73.1,153.1 				"/>
			</g>
			<g>
				<polygon class="st12" points="69.6,153.5 68.5,150.2 71.2,152.3 				"/>
			</g>
			<g>
				<polygon class="st12" points="69.3,155 65.6,153.3 69.7,153 				"/>
			</g>
			<g>
				<polygon class="st12" points="70.2,156.3 66.1,157.2 69.2,154.5 				"/>
			</g>
			<g>
				<polygon class="st12" points="71.9,156.5 69.9,159.7 70,155.9 				"/>
			</g>
			<g>
				<polygon class="st12" points="73.5,155.6 74.6,159.2 71.8,156.7 				"/>
			</g>
			<g>
				<polygon class="st12" points="74.3,154.2 77.6,156.1 73.7,156.1 				"/>
			</g>
			<g>
				<polygon class="st12" points="73.2,152.7 77,152.2 73.9,154.6 				"/>
			</g>
		</g>
		<path class="st13" d="M118.6,81.5c0-0.1-0.4-0.3-0.4-0.4c0-0.1,0.2-0.3,0.1-0.4c-1.1-1.6-9.3-12.9-25.1-9.4
			c-12.6,2.7-9.2,15.6,1.6,21.9C105.5,99.3,120.7,91.7,118.6,81.5z"/>
		<path class="st14" d="M118.5,85.1c0-0.2,0-0.3,0.1-0.5c0.3-2.6-0.8-5.2-2.8-7.2c-3.7-3.6-11.3-8.9-22.8-6.4
			c-13.6,2.9-8.8,17.6,4.3,23.1C106.3,97.8,117.2,93.3,118.5,85.1z"/>
		<path class="st13" d="M35.4,93.1c0,0,12,2.9,23.4-4c3.6-2.2,5.4-5.8,4.9-9.4c-0.9-5.9-4.5-13.8-18-10.5
			c-19.6,4.9-18.1,10-17.1,15.2c0.1,0.4,0.1,0.9,0.2,1.3C28.8,87.3,29.5,91.9,35.4,93.1z"/>
		<g>
			<path class="st9" d="M78.7,72.6c0,0,0.8-12.8,29.8-11.2"/>
			<path class="st6" d="M78.7,72.6c0,0,0-0.1-0.1-0.4c0-0.3-0.1-0.7,0-1.2c0-0.5,0.2-1.1,0.4-1.9c0.1-0.3,0.3-0.7,0.4-1.1
				c0.2-0.4,0.4-0.7,0.6-1.1c0.2-0.4,0.5-0.8,0.8-1.1c0.3-0.4,0.6-0.8,1-1.1c0.4-0.4,0.8-0.7,1.2-1.1c0.4-0.3,0.9-0.6,1.4-0.9
				c0.5-0.3,1-0.6,1.5-0.8c0.5-0.2,1-0.5,1.6-0.7c1.1-0.4,2.2-0.7,3.3-1.1c1.1-0.2,2.2-0.4,3.4-0.6c0.6-0.1,1.1-0.1,1.6-0.1
				c0.5,0,1.1,0,1.6,0c1.1,0,2.1,0,3,0.1c1,0.1,1.9,0.2,2.7,0.3c1.6,0.3,3,0.7,3.9,1c0.9,0.3,1.5,0.5,1.5,0.5s-0.6,0.2-1.5,0.5
				c-0.5,0.1-1,0.3-1.7,0.4c-0.6,0.1-1.4,0.3-2.2,0.4c-0.8,0.2-1.6,0.4-2.5,0.5c-0.9,0.1-1.8,0.3-2.8,0.5C96.9,64,96,64.2,95,64.4
				c-1,0.2-2,0.4-2.9,0.6c-0.9,0.3-1.9,0.5-2.8,0.8c-0.9,0.3-1.8,0.5-2.6,0.9c-0.4,0.2-0.8,0.3-1.2,0.5c-0.4,0.2-0.7,0.4-1.1,0.6
				c-0.4,0.2-0.7,0.4-1,0.6c-0.3,0.2-0.7,0.4-0.9,0.6c-0.6,0.4-1.1,0.9-1.6,1.3c-0.4,0.4-0.8,0.8-1.1,1.2c-0.3,0.4-0.5,0.7-0.6,0.9
				C78.8,72.5,78.7,72.6,78.7,72.6z"/>
		</g>
		<g>
			<path class="st9" d="M67.8,70.3c0,0-6-13.2-28.2-9"/>
			<path class="st6" d="M67.8,70.3c0,0-0.1-0.1-0.3-0.2c-0.2-0.2-0.5-0.4-0.8-0.6c-0.4-0.3-0.8-0.6-1.3-0.9c-0.5-0.3-1.1-0.7-1.6-1
				c-0.6-0.3-1.2-0.7-2-1.1c-0.4-0.2-0.7-0.4-1.1-0.5c-0.4-0.1-0.8-0.3-1.1-0.5c-0.8-0.3-1.6-0.6-2.4-0.9c-0.4-0.1-0.9-0.2-1.3-0.4
				L55.3,64l-0.7-0.1c-0.9-0.2-1.7-0.5-2.6-0.6c-0.9-0.1-1.7-0.4-2.6-0.5c-0.9-0.1-1.7-0.3-2.5-0.4c-0.8-0.1-1.6-0.2-2.3-0.3
				c-0.7-0.1-1.4-0.2-2-0.3c-0.6-0.1-1.1-0.2-1.6-0.2c-0.9-0.2-1.4-0.3-1.4-0.3s0.4-0.3,1.3-0.7c0.4-0.2,0.9-0.4,1.5-0.7
				c0.3-0.1,0.6-0.2,0.9-0.4c0.3-0.1,0.7-0.2,1.1-0.3c0.8-0.2,1.6-0.4,2.5-0.6c0.9-0.2,1.8-0.2,2.8-0.3c1-0.1,2,0,3.1,0.1
				c1.1,0,2.1,0.3,3.2,0.5c1.1,0.2,2.1,0.7,3.1,1c0.5,0.2,1,0.5,1.4,0.7c0.5,0.3,0.9,0.5,1.3,0.8c0.4,0.3,0.8,0.6,1.2,0.9
				c0.4,0.3,0.7,0.6,1.1,1c0.7,0.6,1.2,1.4,1.7,2c0.5,0.7,0.9,1.3,1.1,1.9c0.3,0.6,0.5,1.1,0.6,1.6C67.8,69.8,67.8,70.3,67.8,70.3z"
				/>
		</g>
		<path class="st13" d="M76.7,87.3c0,0,0.2,5.5,3.2,5.5c2.4,0,1,4.4,0.3,6.4c-0.2,0.5,0,1.1,0.5,1.5c1.1,0.9,2.9,2.7,2,4.4
			c0,0-0.9,7-8.9,9.4c-8,2.4-11-11-10-13.3l1.9-3.7c0.2-0.5,0.4-0.9,0.3-1.4c0-1.4,0.2-4.2,2.2-4.8c0,0,2.5-1.8,2-3.1
			c-0.2-0.5-0.2-1,0.2-1.4c0.4-0.4,0.9-0.8,1.5-0.5c0.8,0.4,1.7,0.6,2.5,0.3C75.7,86.4,76.9,86.4,76.7,87.3z"/>
		<path class="st14" d="M76.7,87.3c0,0,0.2,5.5,3.2,5.5c2.4,0,1,4.4,0.3,6.4c-0.2,0.5,0,1.1,0.5,1.5c1.1,0.9,2.9,2.7,2,4.4
			c0,0-0.9,7-8.9,9.4c-8,2.4-11-11-10-13.3l1.9-3.7c0.2-0.5,0.4-0.9,0.3-1.4c0-1.4,0.2-4.2,2.2-4.8c0,0,2.5-1.8,2-3.1
			c-0.2-0.5-0.2-1,0.2-1.4c0.4-0.4,0.9-0.8,1.5-0.5c0.8,0.4,1.7,0.6,2.5,0.3C75.7,86.4,76.9,86.4,76.7,87.3z"/>
		<path class="st14" d="M35.4,93.1c0,0,12,2.9,23.4-4c3.6-2.2,5.4-5.8,4.9-9.4c-0.9-5.9-4.5-13.8-18-10.5
			c-19.6,4.9-18.1,10-17.1,15.2c0.1,0.4,0.1,0.9,0.2,1.3C28.8,87.3,29.5,91.9,35.4,93.1z"/>
	</g>
</g>
<g id="hair_1_">
</g>
<g id="scars">
</g>
<g id="Layer_19">
</g>
<g id="Layer_12">
</g>
<g id="Layer_11">
</g>
<g id="Layer_15">
</g>
<g id="Layer_13">
</g>
<g id="Layer_16">
</g>
<g id="Layer_23">
</g>
<g id="Layer_17">
</g>
</svg>
