<svg id="intro" xmlns="http://www.w3.org/2000/svg" viewBox="0 0 2376.1 3185.56"><defs><style>.cls-1{fill:none;}.cls-2{fill:#b7b3b3;stroke-width:8px;}.cls-2,.cls-3,.cls-7{stroke:#000;}.cls-2,.cls-3,.cls-6,.cls-7,.cls-8{stroke-miterlimit:10;}.cls-3,.cls-9{fill:#9d9a9a;}.cls-4{fill:#727272;}.cls-5{fill:#282828;}.cls-6{stroke:#353535;}.cls-7{fill:#fff;}.cls-8{fill:#666665;stroke:#282828;}.cls-10{fill:#7c7c7c;}</style></defs><title>slotsss</title><polygon class="cls-1" points="2376.1 0 0 0 0 2045.84 666.27 2775.34 145.27 3185.56 2258.53 3185.56 1737.53 2773.25 2376.1 2045.84 2376.1 0"/><polygon class="cls-2" points="2334.82 54.35 41.28 54.35 41.28 2054.73 684.56 2768.55 181.33 3169.88 2194.77 3169.88 1691.02 2768.55 2334.82 2054.73 2334.82 54.35"/><rect class="cls-3" x="450.45" y="441.05" width="1468.41" height="699.19"/><rect class="cls-4" x="670.47" y="1321.8" width="1011.11" height="580.64"/><path class="cls-5" d="M785.37,1400.08l126.69-.89,126.39-.66,126.39-.43,126.39-.28,126.39-.14L1544,1397.8l63.19,0.17,63.19,0.27,126.39,0.54h1.6v1.59l-0.54,145.16-0.14,145.16,0.21,145.16,0.51,145.16v1.64h-1.65l-126.39.51-126.39.37-252.78.46-126.39.19-126.39,0-126.39-.12-126.39-.24h-2.85V1981l0.4-145.16,0.2-72.58,0.32-72.58,0.68-145.16Zm0.6,0.6,0.95,144.86,0.68,145.16,0.32,72.58,0.2,72.58,0.4,145.16-2.85-2.85,126.39-.24,126.39-.12,126.39,0,126.39,0.19,252.78,0.46,126.39,0.37,126.39,0.51-1.64,1.64,0.51-145.16,0.21-145.16-0.14-145.16-0.54-145.16,1.6,1.6-126.39.54-63.19.27L1544,1403l-126.39.11-126.39-.14-126.39-.28-126.39-.43-126.39-.66Z" transform="translate(-115.21 -78.59)"/><rect class="cls-6" x="531.97" y="516.82" width="1311.64" height="559.14"/><path class="cls-7" d="M2216.44,519.63" transform="translate(-115.21 -78.59)"/><circle class="cls-1" cx="1814.07" cy="414.15" r="83.52"/><path class="cls-8" d="M2132.83,1861.58c53.82-11.5,59.57-78.91,52.78-124.37-6.27-42.85-48.08-56.44-86.22-58.53-102.95-5.23-171.92,82.57-175.58,180.29-2.09,52.78,13.06,101.38,63.23,125.42,38.15,18.81,85.7,24,128,24.56,109.74,1,169.83-92.49,204.32-186,33.44-92,30.31-228.36-73.16-275.39-42.85-19.33-89.88-8.36-133.78,2.09-53.3,12.54-110.26,25.61-159.38,50.69-96.67,49.64-122.28,177.15-129.6,276.44-4.18,54.87-.52,110.78,15.68,163.56a331.06,331.06,0,0,0,28.74,66.89c13.59,24,32.4,44.42,46,68.46,31.88,58-5.75,125.42-29.79,179.76-24.56,54.87-54.87,109.22-101.9,147.89-53.82,44.42-122.28,58.53-190.74,60.1-65.32,1.57-146.32,3.66-194.92-47.55-4.7-4.7-25.61-.52-25.08-0.52,53.3,56.44,149.45,53.82,221,53.3,87.27-.52,175.06-18.29,237.24-84.13,29.26-30.83,51.21-67.93,70-106.08,20.38-41.81,44.42-88.84,51.73-134.82,8.36-50.69-24-82.57-49.12-121.76-26.65-40.76-42.33-87.79-49.64-135.87-13.59-92,.52-193.35,35.53-279,19.33-47.55,50.69-84.66,97.72-107.13,49.64-23.52,106.08-36.06,159.38-48.6,14.11-3.14,31.35-9.41,46-8.88,23,0,43.37,9.41,60.62,24,18.81,15.68,33.44,36.58,43.9,58.53,19.86,43.37,23,92,14.11,138.48-8.88,49.64-29.79,97.72-55.91,140.57-25.08,41.81-60.1,82.57-109.22,95.11-63.75,16.2-162.52-4.7-186-74.2-16.72-49.64-7.84-111.31,16.2-157.29,27.17-51.73,116.53-122.28,171.92-64.8,20.38,20.9,17.24,59.57,14.63,86.75-3.14,29.79-17.24,60.1-49.12,66.89-5.75,2.09,14.63,6.79,20.38,5.23h0Z" transform="translate(-115.21 -78.59)"/><path class="cls-8" d="M459.58,1857.92c-25.61-5.75-39.19-32.4-43.37-56.44-4.18-23.52-6.79-59.57,3.66-81.52,30.31-64.28,119.67-28.74,156.25,10.45,61.66,66.37,79.43,214.25-18.29,255.53-23,9.93-48.6,14.11-73.68,16.2-45.46,4.7-82.57-6.27-115.49-36.58-35-32.4-59-77.34-77.34-121.24-38.15-87.27-48.6-203.8,29.79-273.3a146.13,146.13,0,0,1,27.7-19.33c23.52-11.5,49.64-8.36,74.73-3.14,31.35,6.79,62.19,14.63,92.49,24,48.08,14.11,98.76,29.79,133.25,69,33.44,37.62,49.12,88.31,60.62,136.39,11,46,17.77,93.54,17.77,141.09,0,46.51-6.79,93-22.47,136.91-16.2,45.46-47,78.38-69.5,119.67-26.65,48.08-4.7,96.15,14.11,142.66,16.2,39.71,34,79.43,57.48,115.49,53.82,83.61,134.3,123.85,231.5,132.73a776.6,776.6,0,0,0,143.71-1c44.42-4.18,89.88-14.63,121.76-48.08,1-1-20.9-7.84-25.08-3.14-40.24,42.85-100.33,47-155.72,48.6-68.46,2.61-140-1-200.67-37.1-46.51-27.7-80-71.59-106.08-118.1-26.13-47-52.78-101.9-64.8-154.16-13.59-60.62,27.7-96.15,55.39-144.23,27.17-47.55,41.28-101.38,44.94-155.72s-1.57-108.69-13.59-162c-11-49.64-26.13-102.95-59-143.71-31.88-39.71-79.43-58-126.46-72.11-53.82-16.72-112.35-36.06-168.79-39.19C277.2,1531.32,227,1649.42,236.44,1740.87c6.27,59,30.31,116.53,61.14,166.7,24,38.67,55.91,75.25,99.81,90.93,42.85,15.15,92.49,11.5,136.39,3.66,44.94-8.36,90.4-27.17,107.65-72.64,40.76-107.13-32.4-238.81-147.36-249.79-40.24-3.66-95.63,4.18-105,51.21-9.41,50.17-1.57,117.58,56.44,130.12,5.75,1.57,29.79.52,14.11-3.14h0Z" transform="translate(-115.21 -78.59)"/><line class="cls-9" x1="531.97" y1="516.82" x2="450.45" y2="441.05"/><polygon points="531.63 517.18 450.45 441.05 532.31 516.45 531.63 517.18"/><path class="cls-9" d="M647.18,1154.55" transform="translate(-115.21 -78.59)"/><line class="cls-9" x1="531.97" y1="1075.96" x2="450.45" y2="1140.24"/><polygon points="532.28 1076.36 450.45 1140.24 531.66 1075.57 532.28 1076.36"/><line class="cls-9" x1="1843.61" y1="516.82" x2="1918.86" y2="441.05"/><polygon points="1843.26 516.47 1918.86 441.05 1843.96 517.17 1843.26 516.47"/><line class="cls-9" x1="1843.61" y1="1075.96" x2="1918.86" y2="1140.24"/><polygon points="1843.93 1075.58 1918.86 1140.24 1843.29 1076.34 1843.93 1075.58"/><rect class="cls-10" x="450.45" y="1174.2" width="1468.41" height="114.96"/><path class="cls-5" d="M2034.26,1368l-183.75.81-183.55.49-183.55.21-183.55,0-367.1-1-183.55-.18-183.55.21h-0.82v-0.82l-0.27-115v-1.09h1.1l183.55-.47,183.55-.29,367.1-.29,183.55,0.11,183.55,0.3,183.55,0.41,183.55,0.6h0.71v0.71Zm-0.4-.4-0.51-114.76,0.71,0.71-183.55.6-183.55.41-183.55.3-183.55.11-367.1-.29-183.55-.29-183.55-.47,1.09-1.09-0.27,115-0.82-.82,183.55,0.21,183.55-.18,367.1-1,183.55,0,183.55,0.21,183.55,0.49Z" transform="translate(-115.21 -78.59)"/></svg>