<?xml version="1.0" encoding="utf-8"?>
<!-- Generator: Adobe Illustrator 19.1.0, SVG Export Plug-In . SVG Version: 6.00 Build 0)  -->
<svg version="1.1" xmlns="http://www.w3.org/2000/svg" xmlns:xlink="http://www.w3.org/1999/xlink" x="0px" y="0px"
	 viewBox="0 0 145.1 171" style="enable-background:new 0 0 145.1 171;" xml:space="preserve">
<style type="text/css">
	.st0{fill:#561F1F;}
	.st1{fill:#2C3D3B;}
	.st2{fill:#7E9B97;}
	.st3{fill:#455451;}
	.st4{fill:#1E4922;}
	.st5{fill:#AECECA;}
	.st6{fill:#214C46;}
	.st7{fill:none;stroke:#2C3D3B;stroke-width:2;stroke-miterlimit:10;}
	.st8{fill:#05938C;}
	.st9{fill:#70888C;}
	.st10{fill:#85A3AA;}
	.st11{fill:#1C2322;}
	.st12{fill:#435451;}
	.st13{fill:#D1D1A6;}
	.st14{fill:#527F79;}
</style>
<g id="head">
</g>
<g id="sideburn2">
</g>
<g id="Layer_2">
</g>
<g id="Layer_14">
</g>
<g id="Layer_3">
</g>
<g id="Layer_5">
</g>
<g id="ear">
	<path class="st0" d="M0-135.3"/>
</g>
<g id="teeth">
</g>
<g id="Layer_8">
</g>
<g id="Layer_9">
</g>
<g id="hair">
</g>
<g id="Layer_10">
</g>
<g id="eye2">
</g>
<g id="jaaw">
</g>
<g id="outline">
</g>
<g id="nose">
</g>
<g id="eye1">
</g>
<g id="wrinkles">
</g>
<g id="Layer_4">
</g>
<g id="Layer_7">
	<g>
		<path class="st1" d="M142.4,25.1c-23.2,12.4-28.8,34.2-33.2,58.8c-0.1,0.5-0.2,1-0.2,1.4c0,0,0,0,0,0l0,0
			c-0.1,1.7,0.5,1.7,1.6,0.4l5.7,1.6C147.2,66.9,142.4,25.1,142.4,25.1z"/>
		<path class="st1" d="M2.8,25.1C26,37.5,31.6,59.3,36,83.9c0.1,0.5,0.2,1,0.2,1.4c0,0,0,0,0,0l0,0c0.1,1.7-0.5,1.7-1.6,0.4
			l-5.7,1.6C-2,66.9,2.8,25.1,2.8,25.1z"/>
		<path class="st2" d="M37,87c0,0-24.9-55.2-33.4-60.2c0,0-3.9,37.4,26.1,62.2"/>
		<g>
			<path class="st3" d="M30.2,88.7c0,0-0.3-0.9-0.8-2.6c-0.5-1.7-1.3-4-2.3-6.8c-1-2.8-2.3-6-4-9.3c-0.8-1.6-1.8-3.3-2.9-4.8
				c-1.2-1.5-2.5-2.9-4.3-3.4c-1.1-0.4-2-1.3-2.4-2.3c-0.1-0.3-0.2-0.5-0.3-0.8l-0.2-0.7c-0.1-0.5-0.2-1-0.4-1.4
				c-0.5-1.9-0.9-3.7-1.4-5.5c-1-3.6-1.8-6.9-2.8-9.7c-0.2-0.7-0.5-1.4-0.7-2c-0.3-0.6-0.5-1.2-0.9-1.6c-0.1-0.1-0.2-0.1-0.2-0.1
				c-0.1,0-0.1,0.1-0.2,0.2c-0.1,0.2-0.2,0.5-0.2,0.7C6,39.2,6,39.7,6,40.1c-0.1,1.7-0.1,2.7-0.1,2.7s0-0.2,0-0.7
				c0-0.5-0.1-1.1-0.1-2c0-0.4,0-0.9,0.1-1.4c0-0.3,0.1-0.5,0.2-0.8c0.1-0.1,0.1-0.3,0.3-0.4c0.2-0.1,0.5,0,0.6,0.1
				C7.5,38,7.7,38.6,8,39.2c0.3,0.6,0.6,1.3,0.8,2c1,2.8,2.1,6.1,3.1,9.7c0.5,1.8,1,3.6,1.5,5.5c0.1,0.5,0.2,0.9,0.4,1.4l0.2,0.7
				c0.1,0.2,0.1,0.4,0.2,0.6c0.3,0.8,1,1.5,1.8,1.7c1,0.3,2,0.8,2.8,1.5c0.8,0.7,1.4,1.5,2,2.2c1.2,1.6,2.1,3.3,3,5
				c1.7,3.4,2.8,6.7,3.8,9.5c0.9,2.8,1.6,5.2,2,6.9C30,87.7,30.2,88.7,30.2,88.7z"/>
		</g>
		<path class="st3" d="M11.7,55c-0.5-1.8-1.8-8.8-3.5-12.3C7.8,42,7,42.5,7.1,43.3c0.3,1.9-0.1,7.5,3.4,12.5
			C11,56.7,12,56.1,11.7,55z"/>
		<path class="st3" d="M26.4,81.5c-1.7-5.7-5.8-17.8-10.9-17.6c-0.6,0-1,0.8-0.7,1.5c1,3.2,4.3,11.6,10.4,17.3
			C25.8,83.4,26.7,82.5,26.4,81.5z"/>
		<path class="st4" d="M3.6,26.9"/>
		<path class="st5" d="M36.8,85.6C32.4,61.1,24.7,38.8,3.6,26.9C3.6,26.9,40,103.7,36.8,85.6z"/>
		<path class="st2" d="M108.2,87c0,0,24.9-55.2,33.4-60.2c0,0,3.9,37.4-26.1,62.2"/>
		<g>
			<path class="st3" d="M115,88.7c0,0,0.2-1,0.6-2.7c0.4-1.7,1.1-4.1,2-6.9c0.9-2.8,2.1-6.1,3.8-9.5c0.8-1.7,1.8-3.4,3-5
				c0.6-0.8,1.3-1.6,2-2.2c0.8-0.7,1.8-1.3,2.8-1.5c0.8-0.2,1.4-0.9,1.8-1.7c0.1-0.2,0.2-0.4,0.2-0.6l0.2-0.7c0.1-0.5,0.2-1,0.4-1.4
				c0.5-1.9,1-3.7,1.5-5.5c1-3.6,2.1-6.9,3.1-9.7c0.3-0.7,0.5-1.4,0.8-2c0.3-0.6,0.6-1.2,1.1-1.7c0.1-0.1,0.4-0.2,0.6-0.1
				c0.2,0.1,0.3,0.3,0.3,0.4c0.1,0.3,0.1,0.6,0.2,0.8c0.1,0.5,0.1,1,0.1,1.4c0,0.9,0,1.6-0.1,2c0,0.5,0,0.7,0,0.7s0-1-0.1-2.7
				c0-0.4-0.1-0.9-0.2-1.4c-0.1-0.2-0.1-0.5-0.2-0.7c0-0.1-0.1-0.2-0.2-0.2c0,0-0.1,0-0.2,0.1c-0.4,0.4-0.6,1-0.9,1.6
				c-0.3,0.6-0.5,1.3-0.7,2c-1,2.8-1.8,6.1-2.8,9.7c-0.5,1.8-1,3.6-1.4,5.5c-0.1,0.5-0.2,0.9-0.4,1.4l-0.2,0.7
				c-0.1,0.3-0.1,0.5-0.3,0.8c-0.4,1-1.2,1.9-2.4,2.3c-1.8,0.4-3.2,1.9-4.3,3.4c-1.2,1.5-2.1,3.2-2.9,4.8c-1.7,3.3-3,6.5-4,9.3
				c-1,2.8-1.8,5.1-2.3,6.8C115.3,87.7,115,88.7,115,88.7z"/>
		</g>
		<path class="st3" d="M133.4,55c0.5-1.8,1.8-8.8,3.5-12.3c0.4-0.8,1.3-0.3,1.1,0.6c-0.3,1.9,0.1,7.5-3.4,12.5
			C134.1,56.7,133.2,56.1,133.4,55z"/>
		<path class="st3" d="M118.8,81.5c1.7-5.7,5.8-17.8,10.9-17.6c0.6,0,1,0.8,0.7,1.5c-1,3.2-4.3,11.6-10.4,17.3
			C119.4,83.4,118.5,82.5,118.8,81.5z"/>
		<path class="st4" d="M141.6,26.9"/>
		<path class="st5" d="M108.4,85.6c4.4-24.6,12.1-46.8,33.2-58.8C141.6,26.9,105.1,103.7,108.4,85.6z"/>
		<path class="st1" d="M20.2,83.4c0,0.1,0,0.2,0,0.2c17.4,27.2,18.1,41.2,28.2,70.9c5.8,17.1,37.9,16.9,43.2-0.5
			c9.2-30.5,11.6-31,33.3-70.3c0.1-0.1,0-0.3,0-0.4c0-60.3-23.4-78.4-52.4-78.4S20.2,23.1,20.2,83.4z"/>
		<path class="st5" d="M22,82.2c0,0.1,0,0.2,0,0.2c16.8,26.2,17.5,39.8,27.2,68.5c5.6,16.5,36.7,16.3,41.7-0.4
			c8.9-29.5,11.2-30,32.2-67.9c0.1-0.1,0-0.3,0-0.4c0-58.3-22.6-75.7-50.6-75.7S22,23.9,22,82.2z"/>
		<g>
			<path class="st6" d="M73.7,158.9c0,0,0.4-1.4,1.3-3.4c0.9-2,2.5-4.5,4.5-6.6c0.5-0.5,1.1-1,1.7-1.5c0.6-0.5,1.2-0.8,1.8-1.2
				c0.3-0.2,0.6-0.3,0.9-0.5c0.3-0.1,0.6-0.2,0.9-0.3c0.6-0.2,1.2-0.3,1.8-0.4c0.3,0,0.5,0,0.8-0.1c0.3,0,0.5,0,0.7,0
				c0.4,0,0.8,0.1,1.2,0.1c0.6,0.2,1,0.3,1,0.3s-0.4,0-1-0.1c-0.3,0-0.7,0-1.1,0c-0.4,0-0.9,0.1-1.4,0.2c-0.5,0.1-1.1,0.3-1.6,0.5
				c-0.6,0.2-1.1,0.5-1.7,0.9c-1.1,0.7-2.2,1.6-3.2,2.6c-2,2-3.6,4.4-4.7,6.2c-0.6,0.9-1,1.7-1.3,2.2
				C73.9,158.6,73.7,158.9,73.7,158.9z"/>
		</g>
		<path class="st2" d="M73.8,158.7c0,0,6.5-14.2,16.5-13.2"/>
		<g>
			<path class="st6" d="M67.5,158.4c0,0-0.2-0.3-0.5-0.9c-0.3-0.5-0.8-1.3-1.3-2.2c-1.1-1.8-2.7-4.1-4.7-6c-0.5-0.5-1-1-1.5-1.4
				c-0.5-0.4-1.1-0.8-1.6-1.1c-0.6-0.3-1.1-0.6-1.7-0.8c-0.5-0.2-1.1-0.4-1.6-0.5c-0.5-0.1-1-0.2-1.4-0.2c-0.4,0-0.8,0-1.1,0
				c-0.6,0.1-1,0.1-1,0.1s0.3-0.1,0.9-0.3c0.3,0,0.7-0.1,1.1-0.2c0.2,0,0.5,0,0.7,0c0.2,0,0.5,0,0.8,0c0.5,0.1,1.1,0.2,1.7,0.3
				c0.6,0.2,1.2,0.4,1.8,0.7c0.6,0.3,1.2,0.7,1.8,1.1c0.6,0.4,1.1,0.9,1.6,1.4c2.1,2,3.6,4.5,4.5,6.5
				C67.2,157,67.5,158.4,67.5,158.4z"/>
		</g>
		<path class="st2" d="M67.5,158.4c0,0-5.8-13.8-16.2-13"/>
		<g>
			<path class="st1" d="M53.3,120.2c0,0-0.5-1.3-1.2-3.5c-0.7-2.2-1.8-5.4-3.1-9.2c-0.6-1.9-1.3-4-2-6.2c-0.3-1.1-0.7-2.2-1.1-3.4
				l-0.1-0.4l-0.1-0.4c-0.1-0.3-0.2-0.5-0.3-0.7c-0.2-0.5-0.6-0.9-0.9-1.3c-0.4-0.4-0.8-0.7-1.3-0.8c-0.2-0.1-0.5-0.2-0.7-0.2
				c-0.1,0-0.2,0-0.4,0l-0.5,0c-1.3,0-2.6,0-3.9,0c-1.3,0-2.6,0-4,0l-2,0l-0.3,0l-0.3,0l-0.5,0c-0.4,0-0.8-0.1-1.2-0.2
				c-1.5-0.3-2.9-1.2-3.9-2.3c-1-1.1-1.7-2.4-2.3-3.7c-1.1-2.6-1.5-5.3-1.7-7.8c-0.2-2.5-0.2-5-0.1-7.3c0.1-2.3,0.3-4.5,0.5-6.5
				c0.5-4,1.1-7.3,1.6-9.6c0.5-2.3,0.8-3.6,0.8-3.6s-0.2,1.3-0.4,3.7c-0.3,2.3-0.6,5.7-0.8,9.6c-0.2,4-0.3,8.7,0.2,13.6
				c0.3,2.4,0.8,4.9,1.7,7.2c0.5,1.1,1.1,2.2,1.9,3c0.8,0.8,1.8,1.4,2.9,1.7c0.3,0.1,0.5,0.1,0.8,0.1l0.5,0l0.2,0l0.3,0l2,0
				c1.3,0,2.7,0,4,0c1.3,0,2.6,0,3.9,0l0.5,0c0.2,0,0.4,0,0.6,0c0.4,0.1,0.8,0.2,1.1,0.3c0.7,0.3,1.3,0.8,1.8,1.3
				c0.5,0.5,0.9,1.1,1.2,1.7c0.1,0.3,0.3,0.6,0.4,1l0.1,0.5l0.1,0.4c0.3,1.2,0.6,2.3,0.9,3.4c0.6,2.2,1.1,4.3,1.7,6.3
				c1,3.9,1.8,7.1,2.4,9.4C53,118.9,53.3,120.2,53.3,120.2z"/>
		</g>
		<path class="st7" d="M90.4,120.2l6.7-22.9c0.7-2.5,2.5-4.1,4.5-4.1h12.5c15.2,0,6.8-39.9,6.8-39.9"/>
		<g>
			<path class="st6" d="M79.5,62.6c0,0,1.7,2,3.7,5.3c1,1.7,2.1,3.7,3,5.9c0.5,1.1,1,2.3,1.3,3.5c0.4,1.2,0.7,2.5,1,3.8
				c0.2,1.3,0.3,2.7,0.3,4c0,1.3-0.3,2.7-0.8,3.9c-0.2,0.6-0.6,1.2-0.9,1.7c-0.2,0.3-0.4,0.5-0.6,0.7c-0.2,0.2-0.4,0.5-0.7,0.6
				c-0.2,0.2-0.5,0.4-0.7,0.6c-0.2,0.2-0.5,0.3-0.7,0.4c-0.2,0.1-0.5,0.3-0.7,0.4c-0.2,0.1-0.5,0.2-0.7,0.3
				c-0.2,0.1-0.5,0.2-0.7,0.2c-0.2,0.1-0.5,0.1-0.7,0.1c-0.4,0.1-0.9,0.2-1.3,0.2c-0.8,0.1-1.5,0.1-2.1,0.1
				c-1.1-0.1-1.8-0.1-1.8-0.1s0.6-0.1,1.7-0.3c0.6-0.1,1.2-0.3,1.9-0.5c0.4-0.1,0.7-0.3,1.1-0.4c0.2-0.1,0.4-0.1,0.6-0.2
				c0.2-0.1,0.4-0.2,0.6-0.3c0.2-0.1,0.4-0.2,0.6-0.3c0.2-0.1,0.4-0.3,0.6-0.4c0.2-0.1,0.4-0.3,0.6-0.4c0.2-0.2,0.4-0.3,0.5-0.5
				c0.2-0.2,0.3-0.4,0.5-0.6c0.1-0.2,0.3-0.4,0.4-0.6c0.2-0.5,0.5-0.9,0.7-1.4c0.2-0.5,0.3-1.1,0.4-1.6c0-0.3,0.1-0.6,0.1-0.9
				c0-0.3,0.1-0.6,0.1-0.9c0.1-1.2-0.1-2.4-0.3-3.6c-0.2-1.2-0.5-2.4-0.8-3.6c-0.3-1.2-0.7-2.3-1.1-3.5c-0.4-1.1-0.8-2.2-1.2-3.2
				c-0.4-1-0.8-2-1.2-2.8C80.6,64.9,79.5,62.6,79.5,62.6z"/>
		</g>
		<path class="st6" d="M78.1,91.7c14,0.4,0-13.1,0-13.1V91.7z"/>
		<g>
			<path class="st6" d="M67,62.6c0,0-1.1,2.3-2.7,5.8c-0.4,0.9-0.8,1.8-1.2,2.8c-0.4,1-0.8,2.1-1.2,3.2c-0.4,1.1-0.8,2.3-1.1,3.5
				c-0.4,1.2-0.6,2.4-0.8,3.6c-0.2,1.2-0.4,2.4-0.3,3.6c0,0.3,0,0.6,0.1,0.9c0,0.3,0,0.6,0.1,0.9c0.1,0.5,0.2,1.1,0.4,1.6
				c0.1,0.5,0.4,1,0.7,1.4c0.1,0.2,0.3,0.4,0.4,0.6c0.1,0.2,0.3,0.4,0.5,0.6c0.2,0.2,0.4,0.3,0.5,0.5c0.2,0.2,0.4,0.3,0.6,0.4
				c0.2,0.1,0.4,0.3,0.6,0.4c0.2,0.1,0.4,0.2,0.6,0.3c0.2,0.1,0.4,0.2,0.6,0.3c0.2,0.1,0.4,0.1,0.6,0.2c0.4,0.1,0.8,0.3,1.1,0.4
				c0.7,0.2,1.4,0.4,1.9,0.5c1.1,0.2,1.7,0.3,1.7,0.3s-0.6,0-1.8,0.1c-0.6,0-1.3,0-2.1-0.1c-0.4,0-0.8-0.1-1.3-0.2
				c-0.2,0-0.5-0.1-0.7-0.1c-0.2-0.1-0.5-0.2-0.7-0.2c-0.2-0.1-0.5-0.2-0.7-0.3c-0.2-0.1-0.5-0.3-0.7-0.4c-0.2-0.1-0.5-0.3-0.7-0.4
				c-0.2-0.2-0.5-0.4-0.7-0.6c-0.2-0.2-0.5-0.4-0.7-0.6c-0.2-0.2-0.4-0.5-0.6-0.7c-0.3-0.5-0.7-1.1-0.9-1.7
				c-0.5-1.2-0.8-2.6-0.8-3.9c-0.1-1.4,0.1-2.7,0.3-4c0.3-1.3,0.6-2.6,1-3.8c0.4-1.2,0.9-2.4,1.3-3.5c1-2.2,2-4.2,3-5.9
				C65.3,64.5,67,62.6,67,62.6z"/>
		</g>
		<path class="st6" d="M68.5,91.7c-14,0.4,0-13.1,0-13.1V91.7z"/>
		<path d="M113,58.2c0,0-7.4,8.7-16.6,8.7s-16.6-8.7-16.6-8.7s7.4-8.7,16.6-8.7S113,58.2,113,58.2z"/>
		<path class="st8" d="M98.3,56.9l1.7,1.3c0.1-0.4,0.1-0.8,0.1-1.3c0-0.6-0.1-1.2-0.2-1.8l-1.4,0.8l1.2-1.3
			c-0.3-0.9-0.8-1.7-1.4-2.4l-0.7,0.8l0.4-1.1c-0.7-0.7-1.6-1-2.6-1c-1.2,0-2.3,0.6-3.1,1.6l0.5,1.8l-1.1-1c-0.6,1-0.9,2.2-0.9,3.5
			c0,0.4,0,0.8,0.1,1.2l0.9-0.1l-0.8,0.7c0.3,1.1,0.7,2,1.4,2.7l0.3-1.7c0,0,0,1.2,0,2c0.7,0.7,1.7,1.1,2.7,1.1
			c1.9,0,3.5-1.5,4.2-3.7L98.3,56.9z M96.7,56c0.2,0,0.7,0.2,0.7,0.2l-0.7,0.2c0,0,0,0,0,0l0.7,0.2l-0.7,0.1c0,0,0,0,0,0l0.5,0.1
			l-0.4,0.2l0.4,0.3l-0.5,0.2l0.5,0.2L96.7,58c0,0,0,0.1,0,0.1l0.4,0.3l-0.5,0.1l0.6,0.3l-0.5,0l0.5,0.2l-0.5,0.1l0.5,0.1l-0.5,0.1
			l0.4,0.3l-0.5,0.1l0.5,0.3l-0.7,0.1c0,0,0,0,0,0l0.4,0.4h-0.6l0.5,0.5l-0.5-0.2v0.7l-0.3-0.4l-0.4,0.6l0.2-0.7l-0.5,0.3l0.3-0.4
			c0,0,0,0-0.1-0.1h-0.5l0.4-0.3c0,0,0,0,0,0l-0.6,0.1l0.4-0.5l-0.6,0.2l0.4-0.6l-0.4,0.1l0.4-0.3c0,0,0,0,0,0h-0.4l0.3-0.3h-0.4
			l0.4-0.2h-0.5l0.4-0.5H94l0.5-0.3c0,0,0,0,0,0L94,58l0.5-0.2c0,0,0,0,0,0l-0.4-0.2l0.4-0.2c0,0,0,0,0-0.1l-0.4-0.1l0.4-0.2
			c0,0,0-0.1,0-0.1l-0.3-0.3l0.3-0.2l-0.4-0.2l0.4-0.2c0,0,0,0,0,0l-0.3-0.2l0.3-0.2l-0.4-0.2l0.5-0.2c0,0,0,0,0,0l-0.5-0.2l0.5-0.2
			c0,0,0,0,0,0l-0.4-0.2l0.5-0.2c0,0,0,0,0-0.1l-0.4-0.4h0.5c0,0,0,0,0,0l-0.5-0.4h0.6l-0.5-0.5H95l-0.5-0.4H95h0.1l0-0.9l0.3,0.9
			c0,0,0,0,0,0l0-0.9l0.2,0.9c0,0,0,0,0,0l0.3-0.7l-0.2,0.8c0,0,0,0,0,0l0.5-0.4l-0.3,0.5l0.5-0.1l-0.3,0.3h0.7l-0.6,0.5l0.4,0
			l-0.4,0.3c0,0,0,0.1,0,0.1l0.5-0.1l-0.4,0.3c0,0,0,0,0,0l0.6,0.1l-0.6,0.2c0,0,0,0,0,0l0.6,0.2c0,0-0.5,0.4-0.4,0.4
			c0,0,0.5,0,0.5,0l-0.5,0.2c0,0,0,0,0,0l0.5,0.1l-0.5,0.1c0,0,0,0,0,0l0.7,0.1C97.4,55.8,96.9,56,96.7,56C96.7,56,96.7,56,96.7,56z
			"/>
		<path class="st9" d="M33.6,58c0,0,15.8,24,33.1,0C66.7,58,52,78.5,33.6,58z"/>
		<path class="st10" d="M113,58.2c0,0-16.3-17-33.1,0C79.8,58.2,94.3,36.5,113,58.2z"/>
		<path class="st9" d="M113,58.2c0,0-21.2,4.2-33.1,0C79.8,58.2,94.5,83.5,113,58.2z"/>
		<path class="st10" d="M113,58.2c0,0-20.6,4.6-32.5,0.4C80.4,58.6,94.5,78.7,113,58.2z"/>
		<path d="M33.6,58c0,0,7.4,8.7,16.6,8.7S66.7,58,66.7,58s-7.4-8.7-16.6-8.7S33.6,58,33.6,58z"/>
		<path class="st10" d="M33.6,58c0,0,16.3-17,33.1,0C66.7,58,52.3,36.3,33.6,58z"/>
		<path class="st10" d="M33.6,58c0,0,16.1,15.5,33.1,0C66.7,58,52,78.5,33.6,58z"/>
		<path class="st8" d="M46.8,58.9c0.7,2.2,2.3,3.7,4.2,3.7c1,0,1.9-0.4,2.7-1.1c0-0.8,0-2,0-2l0.3,1.7c0.6-0.7,1.1-1.7,1.4-2.7
			l-0.8-0.7l0.9,0.1c0.1-0.4,0.1-0.8,0.1-1.2c0-1.3-0.3-2.5-0.9-3.5l-1.1,1l0.5-1.8c-0.8-1-1.9-1.6-3.1-1.6c-1,0-1.8,0.4-2.6,1
			l0.4,1.1L48.2,52c-0.6,0.6-1.1,1.4-1.4,2.4l1.2,1.3l-1.4-0.8c-0.1,0.6-0.2,1.2-0.2,1.8c0,0.4,0,0.9,0.1,1.3l1.7-1.3L46.8,58.9z
			 M49.9,55.8c-0.2-0.1-0.7-0.3-0.7-0.3l0.7-0.1c0,0,0,0,0,0l-0.5-0.1l0.5-0.1c0,0,0,0,0,0L49.4,55c0,0,0.5-0.1,0.5,0
			c0,0-0.4-0.4-0.4-0.4l0.6-0.2c0,0,0,0,0,0l-0.6-0.2l0.6-0.1c0,0,0,0,0,0l-0.4-0.3l0.5,0.1c0,0,0-0.1,0-0.1l-0.4-0.3l0.4,0
			l-0.6-0.5h0.7L50,52.6l0.5,0.1l-0.3-0.5l0.5,0.4c0,0,0,0,0,0l-0.2-0.8l0.3,0.7c0,0,0,0,0,0l0.2-0.9l0,0.9c0,0,0,0,0,0l0.3-0.9
			l0,0.9h0.1h0.5L51.5,53h0.7l-0.5,0.5h0.6l-0.5,0.4c0,0,0,0,0,0h0.5l-0.4,0.4c0,0,0,0,0,0.1l0.5,0.2L52,54.8c0,0,0,0,0,0l0.5,0.2
			L52,55.2c0,0,0,0,0,0l0.5,0.2l-0.4,0.2l0.3,0.2l-0.3,0.2c0,0,0,0,0,0l0.4,0.2l-0.4,0.2l0.3,0.2l-0.3,0.3c0,0,0,0.1,0,0.1l0.4,0.2
			l-0.4,0.1c0,0,0,0,0,0.1l0.4,0.2L52,57.6c0,0,0,0,0,0l0.5,0.2L52,58c0,0,0,0,0,0l0.5,0.3H52l0.4,0.5h-0.5l0.4,0.2h-0.4l0.3,0.3
			h-0.4c0,0,0,0,0,0l0.4,0.3l-0.4-0.1l0.4,0.6L51.6,60l0.4,0.5l-0.6-0.1c0,0,0,0,0,0l0.4,0.3h-0.5c0,0,0,0-0.1,0.1l0.3,0.4L51,60.9
			l0.2,0.7L50.8,61l-0.3,0.4v-0.7L50,60.9l0.5-0.5h-0.6l0.4-0.4c0,0,0,0,0,0l-0.7-0.1l0.5-0.3l-0.5-0.1l0.4-0.3l-0.5-0.1l0.5-0.1
			l-0.5-0.1l0.5-0.2l-0.5,0l0.6-0.3l-0.5-0.1l0.4-0.3c0,0,0-0.1,0-0.1l-0.5-0.1l0.5-0.2l-0.5-0.2l0.4-0.3l-0.4-0.2l0.5-0.1
			c0,0,0,0,0,0l-0.7-0.1l0.7-0.2c0,0,0,0,0,0L49.2,56C49.2,56,49.7,55.9,49.9,55.8C49.9,55.8,49.9,55.8,49.9,55.8z"/>
		<g>
			<path class="st6" d="M61.3,86.8c0,0,0-0.9,0.3-2.1c0.2-1.3,0.7-2.9,1.3-4.5c0.7-1.6,1.6-3.1,2.6-4c0.3-0.2,0.5-0.4,0.8-0.5
				c0.2-0.1,0.5-0.2,0.7-0.2c0.4-0.1,0.6,0,0.6,0c0,0-0.2,0-0.5,0.2c-0.2,0.1-0.3,0.2-0.5,0.4c-0.2,0.2-0.4,0.4-0.6,0.6
				c-0.4,0.5-0.7,1.1-1.1,1.8c-0.3,0.7-0.7,1.4-1,2.2c-0.6,1.5-1.2,3.1-1.7,4.3C61.7,86,61.3,86.8,61.3,86.8z"/>
		</g>
		<g>
			<path class="st6" d="M85.2,86.8c0,0-0.3-0.8-0.8-2c-0.5-1.2-1-2.8-1.7-4.3c-0.3-0.8-0.7-1.5-1-2.2c-0.3-0.7-0.7-1.3-1.1-1.8
				c-0.2-0.2-0.4-0.4-0.6-0.6c-0.2-0.2-0.4-0.3-0.5-0.4c-0.3-0.2-0.5-0.2-0.5-0.2c0,0,0.2-0.1,0.6,0c0.2,0,0.4,0.1,0.7,0.2
				c0.3,0.1,0.5,0.3,0.8,0.5c1,0.9,1.9,2.4,2.6,4c0.7,1.6,1.1,3.3,1.3,4.5C85.2,85.9,85.2,86.8,85.2,86.8z"/>
		</g>
		<g>
			<path class="st6" d="M79.5,62.6c0,0-0.1-0.6-0.2-1.6c-0.1-1-0.3-2.5-0.5-4.3c-0.2-1.8-0.4-3.9-0.7-6.1c-0.2-2.2-0.4-4.6-0.6-7
				c-0.2-2.4-0.4-4.8-0.5-7c-0.2-2.2-0.2-4.3-0.3-6.1c-0.1-1.8-0.1-3.3-0.2-4.4c0-1.1,0-1.7,0-1.7s0.1,0.6,0.2,1.6
				c0.1,1,0.3,2.5,0.5,4.3c0.2,1.8,0.4,3.9,0.7,6.1c0.2,2.2,0.4,4.6,0.6,7c0.2,2.4,0.4,4.8,0.5,7c0.2,2.2,0.2,4.3,0.3,6.1
				c0.1,1.8,0.1,3.3,0.2,4.4C79.5,62,79.5,62.6,79.5,62.6z"/>
		</g>
		<g>
			<path class="st6" d="M67,62.6c0,0,0-0.6,0-1.6c0-1,0.1-2.5,0.2-4.3c0.1-1.8,0.2-3.8,0.3-6c0.1-2.2,0.3-4.5,0.5-6.9
				c0.2-2.3,0.4-4.7,0.6-6.9c0.2-2.2,0.5-4.2,0.7-6c0.2-1.7,0.4-3.2,0.5-4.2c0.1-1,0.2-1.6,0.2-1.6s0,0.6,0,1.6c0,1-0.1,2.5-0.2,4.3
				c-0.1,1.8-0.2,3.8-0.3,6c-0.1,2.2-0.3,4.5-0.5,6.9c-0.2,2.3-0.4,4.7-0.6,6.9c-0.2,2.2-0.5,4.2-0.7,6c-0.2,1.7-0.4,3.2-0.5,4.2
				C67.1,62,67,62.6,67,62.6z"/>
		</g>
		<path class="st2" d="M90.5,119.9c0,0,4.5-14.1,7.6-23.2c1.4-4,4.6-2.2,5.1-2.7h13l0.8-0.3l-3.6,6.4l-6,10.9l-10.2,8.3L90.5,119.9z
			"/>
		<path class="st2" d="M53.3,120.2c0,0-4-11.7-7.5-23c-1.4-4.6-4.6-2.6-4.9-2.9l-10.2,0.1l-2-0.3l3.4,6.8l4.7,11.2l9.8,8L53.3,120.2
			z"/>
		<ellipse class="st10" cx="47.5" cy="22.5" rx="1" ry="1.3"/>
		<ellipse class="st10" cx="44.3" cy="32.9" rx="2.4" ry="3.1"/>
		<ellipse class="st10" cx="55.2" cy="29.4" rx="1.6" ry="2.1"/>
		<g>
			<path class="st6" d="M79,6.5c0.4,1.1,0.7,2.3,1.1,3.4c0.3,1.1,0.7,2.3,1,3.4l2,6.8l-0.2-0.3l5.3,2.6c1.8,0.9,3.5,1.7,5.3,2.7
				l-0.4,0l6.8-2.2l0.4-0.1l0.1,0.4c0.7,2,1.3,4.1,2,6.1c0.6,2,1.3,4.1,1.8,6.1c-0.8-2-1.6-4-2.4-5.9c-0.7-2-1.5-4-2.2-6l0.5,0.3
				L93.4,26L93.2,26L93,25.9c-1.8-0.9-3.5-1.8-5.3-2.7l-5.2-2.7l-0.2-0.1l0-0.2l-1.7-6.9c-0.3-1.1-0.5-2.3-0.8-3.5
				C79.5,8.8,79.3,7.6,79,6.5z"/>
		</g>
		<g>
			<path class="st6" d="M89.9,23.3c-0.5,0.7-0.9,1.4-1.4,2c-0.5,0.7-1,1.4-1.4,2c-1,1.3-2,2.7-3,4l0-0.6c1.1,1,2.2,2,3.3,3l0.3,0.3
				l-0.2,0.3c-1,1.6-2.1,3.2-3.1,4.8c-0.5,0.8-1.1,1.6-1.6,2.4c-0.6,0.8-1.1,1.6-1.7,2.3c0.4-0.9,0.9-1.7,1.3-2.6
				c0.5-0.8,0.9-1.7,1.4-2.5c0.9-1.7,1.9-3.3,2.9-5l0.1,0.6c-1.1-1-2.2-2-3.3-3.1l-0.3-0.3l0.3-0.3c1-1.3,2.1-2.5,3.2-3.8
				c0.5-0.6,1.1-1.2,1.6-1.9C88.7,24.5,89.3,23.9,89.9,23.3z"/>
		</g>
		<path class="st11" d="M89.5,121.1c-0.3,6.9-2.1,6.7-13.5,11.8c-13.8,6.2-21.1,1.5-21.1,1.5s5.7-23.9,20.6-12.2
			C86.5,130.8,91.4,77.5,89.5,121.1z"/>
		<path class="st12" d="M54.9,134.4c0,0,4.8-28.2,23.2-11.3c0,0,2.1-1.2,5.2-6.6c1.8-3,3.2-6.7,4.5-10.7c0.6-1.8,1.2-3.2,1.6-2
			c0,0-6,18.8-11.3,21C78.2,124.8,62.5,111.4,54.9,134.4z"/>
		<path class="st12" d="M54.9,134.4c0,0,8.1,7.7,24.9-3.2c0,0,11.3,0.7,9.7-12.3c0,0,1.6-17.1,0-15.1c0,0,0.6,5.7-0.7,15.1
			c0,0,2.4,9.4-8.9,11.2C68.3,132,80.7,137.2,54.9,134.4z"/>
		<path class="st13" d="M67.2,121c0,0-8.5,16.3,0.7,30.2c0,0-9.1-4.8-6.5-27.4c0-0.1,0-0.3,0-0.3C62.1,122.6,65.2,121,67.2,121z"/>
		<path class="st13" d="M83.2,118.9c0,0,7.2,11.2-2.1,25.1c0,0,9.1-4.8,6.5-27.4c0-0.1-0.4-6.4-0.5-6.3
			C86.8,111.2,84.5,117.3,83.2,118.9z"/>
		<g>
			<path class="st14" d="M81.3,52.2c0.3-1.9,0.7-3.8,1.2-5.6c0.5-1.9,1.1-3.7,2-5.4c0.9-1.7,2-3.4,3.7-4.6c0.8-0.6,1.8-1,2.9-1
				c1-0.1,2.1,0.1,3,0.4c1.9,0.7,3.5,1.9,4.9,3.3c1.4,1.4,2.6,2.9,3.7,4.5c0.5,0.8,1.1,1.6,1.6,2.5c0.5,0.8,0.9,1.7,1.4,2.5
				c1,1.6,2.1,3.2,3.2,4.8l0,0c1.4,1.6,2.8,3.1,4.1,4.7c-1.5-1.5-3-2.9-4.5-4.4l0,0l0,0c-1.1-1.5-2.3-3.1-3.4-4.6
				c-0.5-0.8-1.1-1.6-1.6-2.4c-0.5-0.8-1-1.6-1.5-2.4c-1.1-1.5-2.3-3-3.6-4.3c-1.4-1.3-2.8-2.5-4.5-3.1c-0.8-0.3-1.7-0.5-2.6-0.4
				c-0.9,0.1-1.7,0.4-2.5,0.9c-1.5,1-2.6,2.6-3.5,4.2c-0.9,1.6-1.6,3.4-2.2,5.2C82.3,48.5,81.8,50.4,81.3,52.2z"/>
		</g>
		<g>
			<path class="st14" d="M65.2,52c-2.7-1-5.1-2.5-7.6-3.9c-2.5-1.4-4.9-2.8-7.6-3.7c-0.7-0.2-1.3-0.3-2-0.4c-0.7-0.1-1.3,0-2,0.1
				c-0.6,0.2-1.2,0.4-1.7,0.9c-0.5,0.4-1,0.9-1.3,1.5c-0.4,0.6-0.8,1.2-1.2,1.8c-0.4,0.6-0.8,1.2-1.2,1.8l-2.5,3.4l0,0l0,0
				c-1.5,1.5-3,3-4.5,4.4c1.4-1.6,2.8-3.2,4.1-4.7l0,0l2.4-3.6c0.4-0.6,0.8-1.2,1.1-1.8c0.4-0.6,0.7-1.2,1.1-1.8
				c0.4-0.7,0.9-1.2,1.4-1.8c0.6-0.5,1.3-0.9,2.1-1.1c0.8-0.2,1.5-0.3,2.3-0.2c0.8,0.1,1.5,0.2,2.2,0.5c1.4,0.4,2.7,1.1,4,1.8
				c1.3,0.7,2.5,1.4,3.7,2.2C60.4,49,62.7,50.6,65.2,52z"/>
		</g>
	</g>
</g>
<g id="hair_1_">
</g>
<g id="scars">
</g>
<g id="Layer_19">
</g>
<g id="Layer_12">
</g>
<g id="Layer_11">
</g>
<g id="Layer_15">
</g>
<g id="Layer_13">
</g>
<g id="Layer_16">
</g>
</svg>
