<?xml version="1.0" encoding="utf-8"?>
<!-- Generator: Adobe Illustrator 19.1.0, SVG Export Plug-In . SVG Version: 6.00 Build 0)  -->
<svg version="1.1" xmlns="http://www.w3.org/2000/svg" xmlns:xlink="http://www.w3.org/1999/xlink" x="0px" y="0px"
	 viewBox="0 0 145.1 171" style="enable-background:new 0 0 145.1 171;" xml:space="preserve">
<style type="text/css">
	.st0{fill:#561F1F;}
	.st1{fill:#2D1A1A;}
	.st2{fill:#7A4142;}
	.st3{fill:#663738;}
	.st4{fill:#1E4922;}
	.st5{fill:#B26060;}
	.st6{fill:#371518;}
	.st7{fill:#F8F6C3;}
	.st8{fill:#D1CDA6;}
	.st9{fill:#683838;}
	.st10{fill:#4C1D1F;}
	.st11{fill:#1B1111;}
	.st12{fill:#A71E22;}
	.st13{fill:#934142;}
	.st14{fill:#441F1F;}
	.st15{fill:#1E1111;}
</style>
<g id="head">
</g>
<g id="sideburn2">
</g>
<g id="Layer_2">
</g>
<g id="Layer_14">
</g>
<g id="Layer_3">
</g>
<g id="Layer_5">
</g>
<g id="ear">
	<path class="st0" d="M0-135.3"/>
</g>
<g id="teeth">
</g>
<g id="Layer_8">
</g>
<g id="Layer_9">
</g>
<g id="hair">
</g>
<g id="Layer_10">
</g>
<g id="eye2">
</g>
<g id="jaaw">
</g>
<g id="outline">
</g>
<g id="nose">
</g>
<g id="eye1">
</g>
<g id="wrinkles">
</g>
<g id="Layer_4">
</g>
<g id="Layer_7">
</g>
<g id="hair_1_">
</g>
<g id="scars">
</g>
<g id="Layer_19">
</g>
<g id="Layer_12">
</g>
<g id="Layer_11">
</g>
<g id="Layer_15">
	<path class="st1" d="M142.8,23.7c-23,10.3-28.6,28.5-32.9,49c-0.1,0.5-0.2,0.8-0.2,1.1c0,0,0,0,0,0l0,0c-0.1,1.4,0.5,1.4,1.6,0.4
		l5.7,1.3C147.6,58.5,142.8,23.7,142.8,23.7z"/>
	<path class="st2" d="M108.9,75.3c0,0,24.6-46,33.1-50.1c0,0,3.9,31.2-25.9,51.8"/>
	<g>
		<path class="st3" d="M115.7,76.6c0,0,0.2-0.8,0.6-2.3c0.4-1.4,1.1-3.5,2-5.9c1-2.4,2.1-5.2,3.8-8c0.8-1.4,1.8-2.8,2.9-4.1
			c1.2-1.3,2.6-2.5,4.4-3c0.8-0.1,1.4-0.5,1.8-1.1c0.2-0.3,0.3-0.6,0.5-1l0.4-1.2c0.5-1.6,1-3.2,1.5-4.7c1-3.1,2.1-5.9,3.1-8.2
			c0.6-1.2,1-2.3,1.9-3.1c0.1-0.1,0.3-0.2,0.5-0.2c0.2,0,0.4,0.1,0.4,0.3c0.2,0.3,0.2,0.5,0.2,0.7c0.1,0.5,0.1,0.9,0.1,1.3
			c0,0.8,0,1.3,0,1.7c0,0.4,0,0.6,0,0.6s0-0.9-0.1-2.3c0-0.4-0.1-0.8-0.2-1.2c-0.1-0.2-0.1-0.4-0.2-0.6c-0.1-0.2-0.2-0.1-0.4,0
			c-0.6,0.7-1.1,1.8-1.6,3c-1,2.4-1.8,5.2-2.8,8.3c-0.5,1.5-1,3.1-1.4,4.7l-0.4,1.2c-0.1,0.4-0.3,0.9-0.6,1.3
			c-0.5,0.8-1.5,1.4-2.4,1.6c-1.5,0.3-2.8,1.4-3.9,2.6c-1.1,1.2-2.1,2.6-2.9,3.9c-1.7,2.7-3,5.4-4,7.7c-1,2.3-1.8,4.3-2.4,5.7
			C116,75.8,115.7,76.6,115.7,76.6z"/>
	</g>
	<path class="st3" d="M133.9,48.6c0.5-1.5,1.8-7.3,3.5-10.2c0.4-0.6,1.2-0.3,1.1,0.5c-0.3,1.5,0.1,6.2-3.4,10.4
		C134.6,50,133.7,49.5,133.9,48.6z"/>
	<path class="st3" d="M119.4,70.7c1.7-4.8,5.8-14.8,10.9-14.6c0.6,0,1,0.7,0.7,1.2c-1,2.6-4.2,9.7-10.3,14.4
		C120,72.2,119.1,71.5,119.4,70.7z"/>
	<path class="st4" d="M142,25.2"/>
	<path class="st5" d="M109.1,74.1c4.4-20.5,12-39,32.9-49C142,25.2,105.9,89.2,109.1,74.1z"/>
	<path class="st1" d="M2.3,34c23,10.3,28.6,28.5,32.9,49c0.1,0.5,0.2,0.8,0.2,1.1c0,0,0,0,0,0l0,0c0.1,1.4-0.5,1.4-1.6,0.4l-5.7,1.3
		C-2.5,68.8,2.3,34,2.3,34z"/>
	<path class="st2" d="M36.2,85.6c0,0-24.6-46-33.1-50.1c0,0-3.9,31.2,25.9,51.8"/>
	<g>
		<path class="st3" d="M29.4,86.9c0,0-0.3-0.8-0.8-2.2c-0.5-1.4-1.3-3.4-2.4-5.7c-1-2.3-2.4-5-4-7.7c-0.8-1.3-1.8-2.7-2.9-3.9
			c-1.1-1.2-2.4-2.3-3.9-2.6c-0.9-0.2-1.9-0.8-2.4-1.6c-0.3-0.4-0.5-0.9-0.6-1.3l-0.4-1.2c-0.5-1.6-1-3.2-1.4-4.7
			c-1-3.1-1.9-5.9-2.8-8.3c-0.5-1.2-0.9-2.3-1.6-3c-0.2-0.2-0.3-0.2-0.4,0c-0.1,0.2-0.2,0.4-0.2,0.6c-0.1,0.4-0.1,0.8-0.2,1.2
			c-0.1,1.5-0.1,2.3-0.1,2.3s0-0.2,0-0.6c0-0.4-0.1-1,0-1.7c0-0.4,0-0.8,0.1-1.3c0-0.2,0.1-0.5,0.2-0.7c0.1-0.1,0.2-0.3,0.4-0.3
			c0.2,0,0.3,0.1,0.5,0.2c0.8,0.8,1.3,1.9,1.9,3.1c1.1,2.4,2.1,5.2,3.1,8.2c0.5,1.5,1,3.1,1.5,4.7l0.4,1.2c0.1,0.4,0.2,0.7,0.5,1
			c0.4,0.6,1,1,1.8,1.1c1.9,0.5,3.3,1.7,4.4,3c1.2,1.3,2.1,2.7,2.9,4.1c1.7,2.8,2.8,5.6,3.8,8c1,2.4,1.6,4.4,2,5.9
			C29.2,86.1,29.4,86.9,29.4,86.9z"/>
	</g>
	<path class="st3" d="M9.9,56.6c-0.5-1.5-1.8-7.3-3.5-10.2c-0.4-0.6-1.2-0.3-1.1,0.5c0.3,1.5-0.1,6.2,3.4,10.4
		C9.2,57.9,10.2,57.4,9.9,56.6z"/>
	<path class="st3" d="M25.7,81c-1.7-4.8-5.8-14.8-10.9-14.6c-0.6,0-1,0.7-0.7,1.2c1,2.6,4.2,9.7,10.3,14.4
		C25.1,82.5,26,81.8,25.7,81z"/>
	<path class="st5" d="M36,84.4c-4.4-20.5-12-39-32.9-49C3.1,35.5,39.2,99.5,36,84.4z"/>
</g>
<g id="Layer_13">
</g>
<g id="Layer_16">
</g>
<g id="Layer_23">
	<g>
		<path class="st6" d="M122,60.7l-3.8-4.4c0-0.9,0-0.9,0-1.8c0,0,0,0,0,0c0,0,1.7-26-16.1-41.2c0,0-5.9-6.3-19.5-9.5
			c-14.2-3.3-29.1-2-41.4,6.9c-1.8,1.2-3.5,2.5-4.8,4.1c-4.6,4.4-8.8,10.2-12.1,17.4C20.3,41,16.7,50.6,16.6,58c0,0-0.1-0.2,0.1-0.8
			c-0.1,0.8-0.1,0.3-0.2,1.2l-0.8,1.2l0.6,2.8c1.4,3.7,2,7.1,3.4,10.9c2.2,6.2,4,13.4,6.8,21l3.6,11.4c2.9,11.1,7.1,33.2,7.1,33.2
			l1.2,1.2l0.2,0.8l52.2-0.8c0,0,13.9-25.7,15.8-33c3.7-13.7,10.1-23.4,11.7-32.1c0.3-1.8,0.6-3.6,0.9-5.4L122,60.7z M64.3,121.9
			l-25.5-12.2c0,0,24.8-0.1,31.6-4.7c13.1-8.8,33.6-19.6,33.6-19.6L64.3,121.9z"/>
		<g>
			<polygon class="st7" points="46.4,100.7 45.7,123.2 39.4,102.6 			"/>
			<path class="st8" d="M46.4,100.7c0,3.8-0.1,7.5-0.2,11.3c-0.1,3.8-0.2,7.5-0.3,11.3l0,1.4l-0.4-1.4c-1.1-3.4-2.1-6.9-3.1-10.3
				c-1-3.4-2-6.9-3.1-10.3l0-0.1l0.1,0L46.4,100.7z M46.4,100.7l-6.9,2.1l0.1-0.2c1.1,3.4,2.2,6.8,3.2,10.3
				c1.1,3.4,2.1,6.9,3.2,10.3l-0.5,0.1c0.1-3.8,0.2-7.5,0.4-11.3C46,108.2,46.2,104.5,46.4,100.7z"/>
		</g>
		<g>
			<polygon class="st7" points="51.7,99.1 51.9,121.5 45.9,100.9 			"/>
			<path class="st8" d="M51.7,99.1c0.1,3.7,0.2,7.5,0.3,11.2c0.1,3.7,0.1,7.5,0.2,11.2l0,1.7l-0.5-1.7c-1-3.4-2-6.9-3-10.3
				c-1-3.4-2-6.9-2.9-10.3l0-0.1l0.1,0L51.7,99.1z M51.7,99.1l-5.8,1.8l0.1-0.1c1,3.4,2.1,6.9,3.1,10.3c1,3.4,2.1,6.9,3,10.3
				l-0.5,0.1c0-3.7-0.1-7.5-0.1-11.2C51.6,106.6,51.7,102.9,51.7,99.1z"/>
		</g>
		<g>
			<polygon class="st7" points="63.3,95.7 63.6,118.1 57.5,97.4 			"/>
			<path class="st8" d="M63.3,95.7c0.1,3.7,0.2,7.5,0.3,11.2c0.1,3.7,0.1,7.5,0.2,11.2l0,1.7l-0.5-1.7c-1-3.4-2-6.9-3-10.3
				c-1-3.4-2-6.9-2.9-10.3l0-0.1l0.1,0L63.3,95.7z M63.3,95.7l-5.8,1.8l0.1-0.1c1,3.4,2.1,6.9,3.1,10.3c1,3.4,2.1,6.9,3,10.3
				l-0.5,0.1c0-3.7-0.1-7.5-0.1-11.2C63.2,103.2,63.3,99.4,63.3,95.7z"/>
		</g>
		<g>
			<polygon class="st7" points="69.1,94 69.4,116.4 63.3,95.7 			"/>
			<path class="st8" d="M69.1,94c0.1,3.7,0.2,7.5,0.3,11.2c0.1,3.7,0.1,7.5,0.2,11.2l0,1.7l-0.5-1.7c-1-3.4-2-6.9-3-10.3
				c-1-3.4-2-6.9-2.9-10.3l0-0.1l0.1,0L69.1,94z M69.1,94l-5.8,1.8l0.1-0.1c1,3.4,2.1,6.9,3.1,10.3c1,3.4,2.1,6.9,3,10.3l-0.5,0.1
				c0-3.7-0.1-7.5-0.1-11.2C69.1,101.5,69.1,97.7,69.1,94z"/>
		</g>
		<g>
			<polygon class="st7" points="74.9,92.3 75.2,114.6 69.1,94 			"/>
			<path class="st8" d="M74.9,92.3c0.1,3.7,0.2,7.5,0.3,11.2c0.1,3.7,0.1,7.5,0.2,11.2l0,1.7l-0.5-1.7c-1-3.4-2-6.9-3-10.3
				c-1-3.4-2-6.9-2.9-10.3l0-0.1l0.1,0L74.9,92.3z M74.9,92.3l-5.8,1.8l0.1-0.1c1,3.4,2.1,6.9,3.1,10.3c1,3.4,2.1,6.9,3,10.3
				l-0.5,0.1c0-3.7-0.1-7.5-0.1-11.2C74.9,99.7,74.9,96,74.9,92.3z"/>
		</g>
		<g>
			<polygon class="st7" points="86.5,88.9 86.8,111.2 80.7,90.6 			"/>
			<path class="st8" d="M86.5,88.9c0.1,3.7,0.2,7.5,0.3,11.2c0.1,3.7,0.1,7.5,0.2,11.2l0,1.7l-0.5-1.7c-1-3.4-2-6.9-3-10.3
				c-1-3.4-2-6.9-2.9-10.3l0-0.1l0.1,0L86.5,88.9z M86.5,88.9l-5.8,1.8l0.1-0.1c1,3.4,2.1,6.9,3.1,10.3c1,3.4,2.1,6.9,3,10.3
				l-0.5,0.1c0-3.7-0.1-7.5-0.1-11.2C86.5,96.3,86.5,92.6,86.5,88.9z"/>
		</g>
		<g>
			<polygon class="st7" points="92.4,87.2 92.6,109.5 86.5,88.9 			"/>
			<path class="st8" d="M92.4,87.2c0.1,3.7,0.2,7.5,0.3,11.2c0.1,3.7,0.1,7.5,0.2,11.2l0,1.7l-0.5-1.7c-1-3.4-2-6.9-3-10.3
				c-1-3.4-2-6.9-2.9-10.3l0-0.1l0.1,0L92.4,87.2z M92.4,87.2L86.6,89l0.1-0.1c1,3.4,2.1,6.9,3.1,10.3c1,3.4,2.1,6.9,3,10.3
				l-0.5,0.1c0-3.7-0.1-7.5-0.1-11.2C92.3,94.6,92.3,90.9,92.4,87.2z"/>
		</g>
		<g>
			<polygon class="st7" points="100.8,84 99,106.7 92.4,86.2 			"/>
			<path class="st8" d="M100.8,84c-0.2,3.8-0.5,7.6-0.7,11.4c-0.3,3.8-0.6,7.6-0.8,11.4l-0.1,1.2l-0.4-1.1
				c-1.1-3.4-2.2-6.8-3.3-10.3c-1.1-3.4-2.2-6.9-3.2-10.3l0-0.1l0.1,0L100.8,84z M100.8,84l-8.4,2.3l0.1-0.2
				c1.1,3.4,2.3,6.8,3.4,10.2c1.1,3.4,2.2,6.8,3.3,10.3l-0.5,0.1c0.3-3.8,0.6-7.6,1-11.4C100,91.5,100.4,87.7,100.8,84z"/>
		</g>
		<g>
			<polygon class="st7" points="104.5,84.5 103.9,105.6 98.6,86.2 			"/>
			<path class="st8" d="M104.5,84.5c0,3.5,0,7.1-0.1,10.6c0,3.5-0.1,7.1-0.2,10.6l0,1.6l-0.4-1.6c-0.9-3.2-1.7-6.5-2.6-9.7
				c-0.9-3.2-1.7-6.5-2.5-9.7l0-0.1l0.1,0L104.5,84.5z M104.5,84.5l-5.8,1.8l0.1-0.2c0.9,3.2,1.8,6.5,2.7,9.7
				c0.9,3.2,1.8,6.5,2.6,9.7l-0.5,0.1c0.1-3.5,0.2-7.1,0.3-10.6C104.1,91.5,104.3,88,104.5,84.5z"/>
		</g>
		<g>
			<polygon class="st7" points="75.4,116.3 75.2,94 81.2,114.6 			"/>
			<path class="st8" d="M75.4,116.3c-0.1-3.7-0.2-7.5-0.3-11.2C75,101.4,75,97.7,74.9,94l0-1.7l0.5,1.7c1,3.4,2,6.9,3,10.3
				c1,3.4,2,6.9,2.9,10.3l0,0.1l-0.1,0L75.4,116.3z M75.4,116.3l5.8-1.8l-0.1,0.1c-1-3.4-2.1-6.9-3.1-10.3c-1-3.4-2.1-6.9-3-10.3
				l0.5-0.1c0,3.7,0.1,7.5,0.1,11.2C75.5,108.9,75.4,112.6,75.4,116.3z"/>
		</g>
		<g>
			<polygon class="st7" points="81.2,114.6 81,92.2 87,112.9 			"/>
			<path class="st8" d="M81.2,114.6c-0.1-3.7-0.2-7.5-0.3-11.2c-0.1-3.7-0.1-7.5-0.2-11.2l0-1.7l0.5,1.7c1,3.4,2,6.9,3,10.3
				c1,3.4,2,6.9,2.9,10.3l0,0.1l-0.1,0L81.2,114.6z M81.2,114.6l5.8-1.8l-0.1,0.1c-1-3.4-2.1-6.9-3.1-10.3c-1-3.4-2.1-6.9-3-10.3
				l0.5-0.1c0,3.7,0.1,7.5,0.1,11.2C81.3,107.1,81.3,110.9,81.2,114.6z"/>
		</g>
		<g>
			<polygon class="st7" points="87,112.9 86.8,90.5 92.8,111.2 			"/>
			<path class="st8" d="M87,112.9c-0.1-3.7-0.2-7.5-0.3-11.2c-0.1-3.7-0.1-7.5-0.2-11.2l0-1.7l0.5,1.7c1,3.4,2,6.9,3,10.3
				c1,3.4,2,6.9,2.9,10.3l0,0.1l-0.1,0L87,112.9z M87,112.9l5.8-1.8l-0.1,0.1c-1-3.4-2.1-6.9-3.1-10.3c-1-3.4-2.1-6.9-3-10.3
				l0.5-0.1c0,3.7,0.1,7.5,0.1,11.2C87.1,105.4,87.1,109.2,87,112.9z"/>
		</g>
		<g>
			<polygon class="st7" points="92.8,111.2 92.6,88.8 98.6,109.5 			"/>
			<path class="st8" d="M92.8,111.2c-0.1-3.7-0.2-7.5-0.3-11.2c-0.1-3.7-0.1-7.5-0.2-11.2l0-1.7l0.5,1.7c1,3.4,2,6.9,3,10.3
				c1,3.4,2,6.9,2.9,10.3l0,0.1l-0.1,0L92.8,111.2z M92.8,111.2l5.8-1.8l-0.1,0.1c-1-3.4-2.1-6.9-3.1-10.3c-1-3.4-2.1-6.9-3-10.3
				l0.5-0.1c0,3.7,0.1,7.5,0.1,11.2C92.9,103.7,92.9,107.4,92.8,111.2z"/>
		</g>
		<g>
			<polygon class="st7" points="98.9,109.5 98.6,87.2 104.7,107.8 			"/>
			<path class="st8" d="M98.9,109.5c-0.1-3.7-0.2-7.5-0.3-11.2c-0.1-3.7-0.1-7.5-0.2-11.2l0-1.7l0.5,1.7c1,3.4,2,6.9,3,10.3
				c1,3.4,2,6.9,2.9,10.3l0,0.1l-0.1,0L98.9,109.5z M98.9,109.5l5.8-1.8l-0.1,0.1c-1-3.4-2.1-6.9-3.1-10.3c-1-3.4-2.1-6.9-3-10.3
				l0.5-0.1c0,3.7,0.1,7.5,0.1,11.2C99,102.1,98.9,105.8,98.9,109.5z"/>
		</g>
		<g>
			<polygon class="st7" points="69.6,118 69.4,95.7 75.4,116.3 			"/>
			<path class="st8" d="M69.6,118c-0.1-3.7-0.2-7.5-0.3-11.2c-0.1-3.7-0.1-7.5-0.2-11.2l0-1.7l0.5,1.7c1,3.4,2,6.9,3,10.3
				c1,3.4,2,6.9,2.9,10.3l0,0.1l-0.1,0L69.6,118z M69.6,118l5.8-1.8l-0.1,0.1c-1-3.4-2.1-6.9-3.1-10.3c-1-3.4-2.1-6.9-3-10.3
				l0.5-0.1c0,3.7,0.1,7.5,0.1,11.2C69.7,110.6,69.6,114.3,69.6,118z"/>
		</g>
		<g>
			<polygon class="st7" points="63.8,119.7 63.6,97.4 69.6,118 			"/>
			<path class="st8" d="M63.8,119.7c-0.1-3.7-0.2-7.5-0.3-11.2c-0.1-3.7-0.1-7.5-0.2-11.2l0-1.7l0.5,1.7c1,3.4,2,6.9,3,10.3
				c1,3.4,2,6.9,2.9,10.3l0,0.1l-0.1,0L63.8,119.7z M63.8,119.7l5.8-1.8l-0.1,0.1c-1-3.4-2.1-6.9-3.1-10.3c-1-3.4-2.1-6.9-3-10.3
				l0.5-0.1c0,3.7,0.1,7.5,0.1,11.2C63.9,112.3,63.8,116,63.8,119.7z"/>
		</g>
		<g>
			<polygon class="st7" points="58,121.4 57.7,99.1 63.8,119.7 			"/>
			<path class="st8" d="M58,121.4c-0.1-3.7-0.2-7.5-0.3-11.2c-0.1-3.7-0.1-7.5-0.2-11.2l0-1.7L58,99c1,3.4,2,6.9,3,10.3
				c1,3.4,2,6.9,2.9,10.3l0,0.1l-0.1,0L58,121.4z M58,121.4l5.8-1.8l-0.1,0.1c-1-3.4-2.1-6.9-3.1-10.3c-1-3.4-2.1-6.9-3-10.3
				l0.5-0.1c0,3.7,0.1,7.5,0.1,11.2C58.1,114,58,117.7,58,121.4z"/>
		</g>
		<g>
			<polygon class="st7" points="52.2,123.2 51.9,100.8 58,121.4 			"/>
			<path class="st8" d="M52.2,123.2c-0.1-3.7-0.2-7.5-0.3-11.2c-0.1-3.7-0.1-7.5-0.2-11.2l0-1.7l0.5,1.7c1,3.4,2,6.9,3,10.3
				c1,3.4,2,6.9,2.9,10.3l0,0.1l-0.1,0L52.2,123.2z M52.2,123.2l5.8-1.8l-0.1,0.1c-1-3.4-2.1-6.9-3.1-10.3c-1-3.4-2.1-6.9-3-10.3
				l0.5-0.1c0,3.7,0.1,7.5,0.1,11.2C52.2,115.7,52.2,119.4,52.2,123.2z"/>
		</g>
		<g>
			<polygon class="st7" points="46.5,124.8 46.5,102.4 52.7,123 			"/>
			<path class="st8" d="M46.5,124.8c-0.1-3.7-0.1-7.5-0.1-11.2c0-3.7,0-7.5,0-11.2l0-1.6l0.5,1.5c1,3.4,2,6.9,3.1,10.3
				c1,3.4,2,6.9,3,10.3l0,0.1l-0.1,0L46.5,124.8z M46.5,124.8l6.2-1.9l-0.1,0.2c-1.1-3.4-2.1-6.8-3.2-10.3c-1-3.4-2.1-6.9-3.1-10.3
				l0.5-0.1c0,3.7,0,7.5-0.1,11.2C46.6,117.3,46.5,121.1,46.5,124.8z"/>
		</g>
		<path class="st5" d="M100.3,16.1C92.5,9.5,82.5,4.8,70,4.8c-15,0-29.4,4.3-34.6,14.1C25,38.4,14.3,54.3,20.7,72.5
			c3.1,8.8,8,19.3,11.1,31.2c3.2,12.6,6.5,35.3,6.5,35.3l51.4,0.4c0,0,14.7-26.9,16.5-34c3.4-13.3,7-23,8.6-31.5
			C118.5,52.7,117.4,30.5,100.3,16.1z M64.3,119.4l-23.8-11.9c0,0,23.1-0.1,29.4-4.5c12.2-8.5,31.3-19,31.3-19L64.3,119.4z"/>
		<g>
			<path class="st9" d="M31.8,103.6c-0.7-1.8-1.3-3.6-2-5.4c-0.7-1.8-1.3-3.6-1.9-5.4c-1.3-3.6-2.5-7.2-3.7-10.9
				c-1.2-3.6-2.3-7.3-3.5-10.9c-0.6-1.8-1.1-3.6-1.7-5.5c-0.5-1.8-1.1-3.7-1.6-5.5l-0.1-0.5l0.3-0.4c1.2-1.3,2.4-2.7,3.6-4
				c1.2-1.3,2.4-2.7,3.7-4l0.1-0.2l0.2,0c2.3-0.5,4.7-1.1,7.1-1.6c2.4-0.5,4.7-1,7.1-1.5c-2.3,0.8-4.6,1.5-6.9,2.2
				c-2.3,0.7-4.6,1.4-6.9,2.1l0.3-0.2c-1.1,1.4-2.2,2.8-3.3,4.2c-1.1,1.4-2.3,2.8-3.4,4.2l0.2-0.9c0.6,1.8,1.2,3.6,1.7,5.5
				c0.6,1.8,1.2,3.6,1.7,5.5c1.1,3.7,2.2,7.3,3.3,11c1.1,3.7,2.1,7.3,3.1,11c0.5,1.8,1,3.7,1.4,5.5C30.9,99.9,31.3,101.7,31.8,103.6
				z"/>
		</g>
		<polyline class="st5" points="33.8,103.6 20.7,60.4 28.2,52.6 39.3,52 		"/>
		<g>
			<path class="st9" d="M106.4,104.2c0.4-1.9,0.8-3.7,1.3-5.6c0.4-1.8,0.9-3.7,1.3-5.5c0.9-3.7,1.9-7.4,2.9-11c1-3.7,2-7.3,3.1-11
				c0.5-1.8,1.1-3.6,1.6-5.5c0.5-1.8,1.1-3.6,1.6-5.5l0.2,0.9c-1.2-1.5-2.5-3-3.7-4.5c-1.2-1.5-2.4-3-3.6-4.6l0.3,0.2
				c-1.7-0.7-3.4-1.4-5.1-2.1c-1.7-0.7-3.4-1.4-5.1-2.2c1.8,0.5,3.6,1,5.3,1.5c1.8,0.5,3.6,1,5.3,1.6l0.1,0l0.1,0.1
				c1.3,1.4,2.6,2.9,3.9,4.3c1.3,1.4,2.6,2.9,3.9,4.4l0.3,0.4l-0.1,0.5c-0.5,1.8-1,3.7-1.5,5.5c-0.5,1.8-1,3.7-1.6,5.5
				c-1.1,3.6-2.1,7.3-3.3,10.9c-1.1,3.6-2.3,7.2-3.4,10.8c-0.6,1.8-1.2,3.6-1.8,5.4C107.7,100.6,107.1,102.4,106.4,104.2z"/>
		</g>
		<polyline class="st5" points="103.7,103.6 118.1,60.9 110.6,52 97.5,52 		"/>
		<g>
			<path class="st9" d="M101.2,84c-1.4,1.6-2.9,3.1-4.4,4.7c-1.5,1.5-2.9,3.1-4.4,4.6c-3,3.1-6,6.1-9,9.1c-3,3-6.1,6-9.2,8.9
				l-4.6,4.4c-1.5,1.5-3.1,2.9-4.7,4.4l-0.5,0.4l-0.6-0.3c-2-1-3.9-2-5.9-3.1c-2-1-3.9-2.1-5.9-3.1c-2-1-3.9-2.1-5.8-3.2
				c-1.9-1.1-3.9-2.2-5.8-3.3c2,0.9,4.1,1.8,6.1,2.7c2,0.9,4,1.8,6.1,2.7c2,0.9,4,1.9,6,2.8c2,0.9,4,1.9,6,2.9l-1,0.2
				c1.5-1.5,3-3,4.6-4.5l4.6-4.4c3.1-2.9,6.2-5.9,9.3-8.8c3.1-2.9,6.3-5.8,9.4-8.6c1.6-1.4,3.2-2.8,4.8-4.2
				C98,86.8,99.6,85.4,101.2,84z"/>
		</g>
		<g>
			<path class="st10" d="M92.8,136.3c0,0-2,4.6-3.7,5.7c-7.8,5.2-34.2,6.7-49.9,27.1c0,0,14.9-23.1-0.5-28c-1.5-0.5-1.9-4.1-1.9-4.1
				l11.3,3.2l35.6-0.8L92.8,136.3z"/>
			<path class="st10" d="M79.7,141.8l-13.1-4.2c-1.1-0.4-2.1-1.3-2.5-2.5l-2.6-7.7l-2.3,7.1c-0.5,1.6-1.7,2.9-3.1,3.4l-10.2,3.9
				H79.7z"/>
		</g>
		<g>
			<g>
				<path class="st7" d="M58.9,106.2l2.1,31.8c0,0-6.1-22.3-7.7-31.2C53.1,105.6,58.9,106.2,58.9,106.2z"/>
				<path class="st8" d="M58.9,106.2c0.4,5.3,0.9,10.6,1.2,15.9l1.1,15.9l-0.5,0.1c-1.7-6.1-3.2-12.3-4.8-18.4
					c-0.7-3.1-1.5-6.2-2.1-9.3c-0.2-0.8-0.3-1.6-0.5-2.3l-0.2-1.2c0-0.1,0-0.1,0-0.2c0-0.1,0-0.2,0.1-0.2c0.1-0.1,0.2-0.2,0.3-0.2
					c0.2-0.1,0.4-0.2,0.6-0.2c0.8-0.1,1.6-0.1,2.4-0.1C57.3,106.1,58.1,106.1,58.9,106.2z M58.9,106.2c-0.8-0.1-1.6-0.1-2.4-0.1
					c-0.8,0-1.6,0-2.3,0.2c-0.3,0.1-0.8,0.2-0.7,0.6l0.2,1.2c0.1,0.8,0.3,1.5,0.5,2.3c0.7,3.1,1.5,6.2,2.2,9.2
					c1.5,6.1,3.2,12.3,4.8,18.4l-0.5,0.1l-1-15.9C59.5,116.8,59.2,111.5,58.9,106.2z"/>
			</g>
			<g>
				<path class="st7" d="M76.5,97.4l9.5,30.7c0,0-2.3-22.9-4-31.7C81.7,95.1,76.5,97.4,76.5,97.4z"/>
				<path class="st8" d="M76.5,97.4c1.7,5.1,3.3,10.2,4.9,15.3l4.8,15.3l-0.5,0.1c-0.7-6.3-1.3-12.6-2.1-18.8
					c-0.4-3.1-0.8-6.3-1.2-9.4c-0.1-0.8-0.2-1.6-0.4-2.3l-0.2-1.2c0-0.3-0.5-0.4-0.9-0.3c-0.8,0.1-1.5,0.3-2.3,0.5
					C78,96.9,77.2,97.1,76.5,97.4z M76.5,97.4c0.7-0.3,1.4-0.6,2.2-0.9c0.7-0.3,1.5-0.5,2.3-0.6c0.2,0,0.4,0,0.6,0
					c0.1,0,0.2,0.1,0.3,0.1c0,0,0.1,0.1,0.1,0.2c0,0,0,0.1,0,0.2l0.2,1.2c0.2,0.8,0.3,1.6,0.4,2.3c0.5,3.1,0.9,6.2,1.3,9.4
					c0.8,6.3,1.5,12.5,2.1,18.8l-0.5,0.1l-4.7-15.4C79.5,107.7,78,102.6,76.5,97.4z"/>
			</g>
		</g>
		<g>
			<path class="st11" d="M75.5,55.2c0,0,6.9-0.3,14-2.2s11.9-5.2,11.4-7.7c-0.6-2.7-6.5-3.3-13.6-1.4S75.5,55.2,75.5,55.2z"/>
			<path class="st12" d="M89.5,49l1.2,0.7c0-0.2,0.1-0.5,0.1-0.7c0-0.4-0.1-0.7-0.1-1l-1,0.4l0.9-0.7c-0.2-0.5-0.5-1-1-1.3l-0.5,0.5
				l0.3-0.6c-0.5-0.4-1.1-0.6-1.8-0.6c-0.8,0-1.6,0.3-2.2,0.9l0.4,1L85,47c-0.4,0.6-0.6,1.3-0.6,2c0,0.2,0,0.4,0.1,0.7l0.6-0.1
				L84.5,50c0.2,0.6,0.5,1.1,1,1.6l0.2-1c0,0,0,0.7,0,1.2c0.5,0.4,1.2,0.7,1.9,0.7c1.3,0,2.5-0.9,3-2.1L89.5,49z M88.4,48.5
				c0.2,0,0.5,0.1,0.5,0.1l-0.5,0.1c0,0,0,0,0,0l0.5,0.1L88.4,49c0,0,0,0,0,0l0.4,0.1l-0.3,0.1l0.3,0.2l-0.4,0.1l0.4,0.1l-0.4,0.1
				c0,0,0,0,0,0l0.3,0.2l-0.3,0.1l0.4,0.2l-0.4,0l0.3,0.1l-0.4,0l0.4,0.1l-0.4,0.1l0.3,0.2l-0.3,0.1l0.3,0.2l-0.5,0.1c0,0,0,0,0,0
				l0.3,0.2H88l0.3,0.3l-0.4-0.1v0.4l-0.2-0.2l-0.3,0.3l0.1-0.4l-0.3,0.2l0.2-0.2c0,0,0,0,0,0H87l0.3-0.1c0,0,0,0,0,0l-0.4,0.1
				l0.3-0.3L86.7,51l0.3-0.3l-0.3,0.1l0.3-0.2c0,0,0,0,0,0h-0.3l0.2-0.2h-0.3l0.3-0.1h-0.3l0.3-0.3h-0.4l0.4-0.2c0,0,0,0,0,0
				l-0.4-0.1l0.4-0.1c0,0,0,0,0,0l-0.3-0.1l0.3-0.1c0,0,0,0,0,0l-0.3-0.1l0.3-0.1c0,0,0,0,0,0l-0.2-0.1l0.2-0.1l-0.3-0.1l0.3-0.1
				c0,0,0,0,0,0l-0.2-0.1l0.2-0.1l-0.3-0.1l0.3-0.1l0,0L86.5,48l0.4-0.1l0,0l-0.3-0.1l0.3-0.1c0,0,0,0,0,0l-0.3-0.2H87c0,0,0,0,0,0
				l-0.4-0.3H87l-0.3-0.3h0.5l-0.4-0.2h0.4h0.1l0-0.5l0.2,0.5c0,0,0,0,0,0l0-0.5l0.1,0.5c0,0,0,0,0,0l0.2-0.4l-0.1,0.5c0,0,0,0,0,0
				l0.3-0.2l-0.2,0.3l0.4-0.1L88,46.9h0.5l-0.4,0.3l0.3,0l-0.3,0.2c0,0,0,0,0,0l0.3,0l-0.3,0.2c0,0,0,0,0,0l0.4,0.1l-0.4,0.1l0,0
				l0.4,0.1c0,0-0.3,0.3-0.3,0.2c0,0,0.4,0,0.4,0l-0.4,0.1c0,0,0,0,0,0l0.4,0l-0.4,0.1c0,0,0,0,0,0l0.5,0
				C88.9,48.4,88.5,48.5,88.4,48.5C88.4,48.5,88.4,48.5,88.4,48.5z"/>
			<path class="st13" d="M75.5,55.2c0,0,6-20.5,24.3-11.4C99.8,43.8,83.9,39.5,75.5,55.2z"/>
			<path class="st13" d="M75.5,55.2c0,0,23.3-2.1,24.3-11.4c0,0,9.6,6.5-19.8,11.3c-0.3,0.1-0.7,0.1-1,0.1H75.5z"/>
			<path class="st11" d="M59.8,54.5c0,0-6.9-0.3-14-2.2c-7.1-1.9-11.9-5.2-11.4-7.7c0.6-2.7,6.5-3.3,13.6-1.4S59.8,54.5,59.8,54.5z"
				/>
			<path class="st12" d="M44.7,49.6c0.5,1.2,1.6,2.1,3,2.1c0.7,0,1.4-0.2,1.9-0.7c0-0.5,0-1.2,0-1.2l0.2,1c0.4-0.4,0.8-0.9,1-1.6
				l-0.6-0.4l0.6,0.1c0-0.2,0.1-0.4,0.1-0.7c0-0.8-0.2-1.5-0.6-2l-0.8,0.6l0.4-1c-0.6-0.6-1.3-0.9-2.2-0.9c-0.7,0-1.3,0.2-1.8,0.6
				l0.3,0.6l-0.5-0.5c-0.4,0.4-0.8,0.8-1,1.3l0.9,0.7l-1-0.4c-0.1,0.3-0.1,0.7-0.1,1c0,0.2,0,0.5,0.1,0.7l1.2-0.7L44.7,49.6z
				 M46.9,47.9c-0.2,0-0.5-0.1-0.5-0.1l0.5,0c0,0,0,0,0,0l-0.4-0.1l0.4,0c0,0,0,0,0,0l-0.4-0.1c0,0,0.3,0,0.4,0c0,0-0.3-0.2-0.3-0.2
				L47,47c0,0,0,0,0,0l-0.4-0.1l0.4-0.1c0,0,0,0,0,0l-0.3-0.2l0.3,0c0,0,0,0,0,0l-0.3-0.2l0.3,0l-0.4-0.3h0.5L47,46.1l0.4,0.1
				l-0.2-0.3l0.3,0.2c0,0,0,0,0,0l-0.1-0.5l0.2,0.4c0,0,0,0,0,0l0.1-0.5l0,0.5c0,0,0,0,0,0l0.2-0.5l0,0.5h0.1h0.4l-0.4,0.2h0.5
				l-0.3,0.3h0.4l-0.4,0.3c0,0,0,0,0,0h0.4L48.3,47c0,0,0,0,0,0l0.3,0.1l-0.3,0.1l0,0l0.4,0.1l-0.3,0.1l0,0l0.3,0.1l-0.3,0.1
				l0.2,0.1l-0.2,0.1c0,0,0,0,0,0l0.3,0.1l-0.3,0.1l0.2,0.1l-0.2,0.1c0,0,0,0,0,0l0.3,0.1l-0.3,0.1c0,0,0,0,0,0l0.3,0.1l-0.3,0.1
				c0,0,0,0,0,0l0.4,0.1l-0.4,0.1c0,0,0,0,0,0l0.4,0.2h-0.4l0.3,0.3h-0.3l0.3,0.1h-0.3l0.2,0.2h-0.3c0,0,0,0,0,0l0.3,0.2L48.3,50
				l0.3,0.3l-0.4-0.1l0.3,0.3l-0.4-0.1c0,0,0,0,0,0l0.3,0.1h-0.4c0,0,0,0,0,0l0.2,0.2l-0.3-0.2l0.1,0.4l-0.3-0.3L47.4,51v-0.4
				L47,50.8l0.3-0.3h-0.4l0.3-0.2c0,0,0,0,0,0l-0.5-0.1L47,50L46.7,50l0.3-0.2l-0.4-0.1l0.4-0.1l-0.4,0l0.3-0.1l-0.4,0l0.4-0.2
				l-0.3-0.1l0.3-0.2c0,0,0,0,0,0l-0.4-0.1l0.4-0.1l-0.4-0.1l0.3-0.2l-0.3-0.1l0.4-0.1c0,0,0,0,0,0l-0.5-0.1l0.5-0.1c0,0,0,0,0,0
				L46.4,48C46.4,48,46.8,47.9,46.9,47.9C46.9,47.9,46.9,47.9,46.9,47.9z"/>
			<path class="st13" d="M59.8,54.5c0,0-6-20.5-24.3-11.4C35.5,43.2,51.4,38.8,59.8,54.5z"/>
			<path class="st13" d="M59.8,54.5c0,0-23.3-2.1-24.3-11.4c0,0-9.6,6.5,19.8,11.3c0.3,0.1,0.7,0.1,1,0.1H59.8z"/>
			<path class="st14" d="M38.1,36.1C41.5,41.4,61,48.5,61,48.5s-16.5-9.3-21.2-17.6C39,29.5,37.2,34.8,38.1,36.1z"/>
			<path class="st14" d="M95.3,38.4C91.9,43.6,71,45.5,71,45.5s17.9-3.9,22.6-12.3C94.4,31.8,96.2,37,95.3,38.4z"/>
			<g>
				<path class="st3" d="M42.9,106.1c0,0,0.1-0.4,0.3-1.2c0.2-0.8,0.4-1.8,0.7-3.1c0.3-1.3,0.7-2.8,1.1-4.4c0.4-1.6,0.9-3.3,1.4-5
					c0.5-1.7,1-3.4,1.5-5c0.5-1.6,1-3,1.4-4.3c0.4-1.3,0.8-2.3,1.1-3c0.3-0.7,0.4-1.1,0.4-1.1s-0.1,0.4-0.3,1.2
					c-0.2,0.8-0.4,1.8-0.7,3.1c-0.3,1.3-0.7,2.8-1.1,4.4c-0.4,1.6-0.9,3.3-1.4,5c-0.5,1.7-1,3.4-1.5,5c-0.5,1.6-1,3-1.4,4.3
					c-0.4,1.3-0.8,2.3-1.1,3C43,105.6,42.9,106.1,42.9,106.1z"/>
			</g>
		</g>
		<path class="st5" d="M62.9,55.2L39.3,86.4c0,0,33.2-16.2,35.3-3.7"/>
		<g>
			<path class="st9" d="M62.9,55.2c-1.7,2.7-3.5,5.4-5.3,8c-1.7,2.7-3.6,5.3-5.3,8l-5.4,7.9L41.3,87l-1.1-1.5
				c4.3-1.7,8.6-3.3,13-4.7c2.2-0.7,4.4-1.4,6.6-2c1.1-0.3,2.2-0.6,3.4-0.8c1.1-0.3,2.3-0.5,3.4-0.7c1.2-0.2,2.3-0.4,3.5-0.4l0.9,0
				c0.2,0,0.5,0,0.7-0.1c0.5-0.1,0.9-0.3,1.2-0.6c0.2-0.1,0.3-0.3,0.5-0.5c0.1-0.2,0.3-0.5,0.5-0.7c0.3-0.5,0.6-0.9,0.9-1.4
				c0.5-1,1-2,1.2-3c0.2-1,0.1-2-0.8-2.5c-0.9-0.5-2-0.5-3.2-0.4c-1.1,0.1-2.2,0.3-3.4,0.6c-1.1,0.3-2.2,0.6-3.3,0.9
				c2.1-0.9,4.3-1.7,6.6-2.1c1.2-0.2,2.4-0.3,3.6,0.2c0.6,0.3,1.2,0.8,1.4,1.5c0.2,0.7,0.2,1.3,0.1,2C77,72,76.5,73.1,76,74.2
				c-0.3,0.5-0.5,1.1-0.8,1.6c-0.2,0.3-0.3,0.5-0.5,0.8c-0.2,0.3-0.4,0.6-0.7,0.8c-0.5,0.5-1.1,0.8-1.8,1c-0.3,0.1-0.7,0.2-1,0.2
				l-0.9,0.1c-1.1,0.1-2.2,0.3-3.3,0.5c-1.1,0.2-2.2,0.5-3.3,0.8c-1.1,0.3-2.2,0.6-3.3,0.9c-2.2,0.7-4.4,1.3-6.5,2
				c-2.2,0.7-4.3,1.5-6.5,2.2c-2.2,0.8-4.3,1.6-6.4,2.4l-3.1,1.2l1.9-2.6l5.7-7.7l5.7-7.7c1.9-2.5,3.8-5.1,5.8-7.6
				C58.9,60.3,60.9,57.7,62.9,55.2z"/>
		</g>
		<path class="st15" d="M64.3,79.6c0,0,4.3,1.2,8.3-0.8C76.7,76.8,64.3,79.6,64.3,79.6z"/>
		<g>
			<path class="st9" d="M41,107.1c0,0,1-0.1,2.9-0.3c1.8-0.1,4.4-0.4,7.5-0.8c3.1-0.4,6.7-0.8,10.5-1.6c1.9-0.4,3.8-0.9,5.6-1.6
				c0.9-0.4,1.8-0.7,2.5-1.3c0.9-0.6,1.7-1.2,2.6-1.8c3.5-2.3,7-4.5,10.4-6.5c3.4-2,6.6-3.7,9.3-5.2c2.8-1.5,5.1-2.6,6.7-3.4
				c1.6-0.8,2.6-1.2,2.6-1.2s-0.9,0.6-2.4,1.6c-1.5,1-3.7,2.4-6.4,4.1c-2.6,1.7-5.7,3.6-9,5.7c-1.6,1-3.3,2.1-5.1,3.2
				c-1.7,1.1-3.5,2.2-5.2,3.4c-0.9,0.6-1.7,1.2-2.6,1.7c-0.9,0.6-2,1.1-3,1.5c-2,0.7-4,1.1-6,1.5c-2,0.3-3.8,0.5-5.6,0.7
				c-1.8,0.2-3.5,0.2-5.1,0.3c-3.1,0.1-5.7,0-7.6,0C42,107.2,41,107.1,41,107.1z"/>
		</g>
		<ellipse class="st3" cx="35.5" cy="66.1" rx="2.4" ry="2.7"/>
		<ellipse class="st3" cx="104.1" cy="58.6" rx="1.1" ry="1.2"/>
		<g>
			<path class="st3" d="M103,102.4l-3.9,8.4l-4,8.4l-4,8.4l-4,8.4l-0.1,0.1l-0.1,0c-3.5,0.2-7.1,0.3-10.6,0.5
				c-3.5,0.2-7.1,0.3-10.6,0.4c3.5-0.2,7.1-0.5,10.6-0.7c3.5-0.2,7.1-0.4,10.6-0.6l-0.2,0.1l4-8.4l4-8.4l4.1-8.3L103,102.4z"/>
		</g>
		<g>
			<path class="st3" d="M76.7,74.8c0,0,0.4,0.1,1,0.3c0.6,0.2,1.5,0.5,2.6,0.8c2.1,0.7,4.9,1.7,7.6,2.8c2.7,1.1,5.4,2.3,7.5,3.2
				c1,0.5,1.8,0.9,2.4,1.2c0.6,0.3,0.9,0.5,0.9,0.5s-0.4-0.1-1-0.3c-0.6-0.2-1.5-0.5-2.6-0.8c-2.1-0.7-4.9-1.7-7.6-2.8
				c-2.7-1.1-5.4-2.3-7.5-3.2c-1-0.5-1.8-0.9-2.4-1.2C77.1,74.9,76.7,74.8,76.7,74.8z"/>
		</g>
		<g>
			<path class="st3" d="M36.8,123.2c0.4,1.1,0.7,2.2,1,3.4c0.3,1.1,0.5,2.3,0.7,3.4c0.4,2.3,0.8,4.6,1.1,6.9l-0.2-0.2
				c1.7,0,3.4,0,5.1,0.1c1.7,0,3.4,0.1,5.1,0.2c-1.7,0.1-3.4,0.1-5.1,0.2c-1.7,0-3.4,0.1-5.1,0.1l-0.2,0l0-0.2l-1.1-6.9
				c-0.2-1.1-0.4-2.3-0.6-3.4C37.3,125.5,37.1,124.4,36.8,123.2z"/>
		</g>
		<path class="st10" d="M65.7,37.1c0,0-0.3-12.8,18.8-19c1.3-0.4,2.7-0.4,4,0.1c5.5,2.3,20.9,10.3,28,37.4c0,0,2.3-27.3-16-41.8
			c0,0-6.6-5.9-19.4-9C60.5,0,38.4,5.6,26.3,32.4c-3.8,8.5-7.1,17.3-7.2,24.4c0,0,10.6-27.1,21.5-37.4c1.3-1.3,3.2-1.8,4.9-1.2
			C50.5,19.7,61.2,24.5,65.7,37.1z"/>
	</g>
</g>
</svg>
