<?xml version="1.0" encoding="utf-8"?>
<!-- Generator: Adobe Illustrator 19.1.0, SVG Export Plug-In . SVG Version: 6.00 Build 0)  -->
<svg version="1.1" xmlns="http://www.w3.org/2000/svg" xmlns:xlink="http://www.w3.org/1999/xlink" x="0px" y="0px"
	 viewBox="0 0 145.1 171" style="enable-background:new 0 0 145.1 171;" xml:space="preserve">
<style type="text/css">
	.st0{fill:#561F1F;}
	.st1{fill:#2F3F2E;}
	.st2{fill:#8BC18D;}
	.st3{fill:#1E4922;}
	.st4{fill:#618463;}
	.st5{fill:#243F25;}
	.st6{fill:#D1D1A6;}
	.st7{fill:#2B6130;}
	.st8{fill:#122013;}
	.st9{fill:#182B18;}
	.st10{fill:#1C9246;}
	.st11{fill:#7FAC7F;}
	.st12{fill:#1B261A;}
</style>
<g id="head">
</g>
<g id="sideburn2">
</g>
<g id="Layer_2">
</g>
<g id="Layer_14">
</g>
<g id="Layer_3">
</g>
<g id="Layer_5">
</g>
<g id="ear">
	<path class="st0" d="M0-135.3"/>
</g>
<g id="teeth">
</g>
<g id="Layer_8">
	<path class="st1" d="M22.7,89.2c-9.6,68.4,8,70.9,45.9,72.3c41,1.5,79.4-1.3,58.3-79.4c-0.1-0.5-14.3-68.1-52.2-69.4
		c-0.2,0-8.6,0.3-8.9,0.3C26.3,13.7,22.8,88.7,22.7,89.2z"/>
	<g id="Layer_14_1_">
		<path class="st2" d="M24.1,87.1c-9.7,66.3,7,66.3,44.6,66.3c37.6,0,79.1,0.6,56-73.4c-0.1-0.5-12.9-66-51-66
			c-0.2,0-8.3,0.3-8.5,0.3C27.5,15,24.2,86.6,24.1,87.1z"/>
		<path class="st2" d="M26.7,95.4c-9.4,64.7,6.8,64.7,43.6,64.7c36.7,0,77.2,0.6,54.7-71.7c-0.1-0.4-12.6-64.4-49.8-64.4
			c-0.2,0-8.1,0.3-8.3,0.3C30.1,25,26.8,95,26.7,95.4z"/>
	</g>
	<g>
		<path class="st3" d="M64.8,68.1c0,0-0.3,0.6-0.8,1.5c-0.6,0.9-1.4,2.2-2.7,3.5c-1.3,1.3-2.9,2.8-5,3.9c-1,0.5-2.2,1-3.4,1.3
			c-1.2,0.3-2.5,0.4-3.7,0.3c-0.6,0-1.3-0.1-1.9-0.2c-0.6-0.2-1.2-0.2-1.8-0.5c-0.6-0.2-1.2-0.4-1.7-0.7c-0.3-0.1-0.5-0.2-0.8-0.4
			c-0.3-0.1-0.5-0.3-0.8-0.4c-0.5-0.3-1-0.6-1.4-0.9c-0.4-0.3-0.9-0.6-1.3-1c-0.4-0.3-0.8-0.7-1.2-1c-0.4-0.3-0.7-0.7-1-1
			c-0.7-0.6-1.2-1.3-1.7-1.8c-0.5-0.5-0.9-1-1.2-1.5c-0.7-0.8-1-1.3-1-1.3s0.4,0.4,1.2,1.2c0.4,0.4,0.8,0.8,1.4,1.3
			c0.5,0.5,1.1,1.1,1.8,1.6c0.3,0.3,0.7,0.6,1.1,0.9c0.4,0.3,0.8,0.6,1.2,0.9c0.4,0.3,0.9,0.6,1.3,0.9c0.4,0.3,0.9,0.6,1.4,0.8
			c0.2,0.1,0.5,0.3,0.7,0.4c0.3,0.1,0.5,0.2,0.8,0.3c0.5,0.2,1.1,0.4,1.6,0.6c0.5,0.2,1.1,0.3,1.7,0.4c0.6,0.1,1.2,0.2,1.7,0.2
			c1.2,0.1,2.3-0.1,3.5-0.3c1.1-0.3,2.2-0.6,3.2-1.1c2-1,3.7-2.2,5-3.5c1.3-1.2,2.3-2.4,3-3.2C64.5,68.6,64.8,68.1,64.8,68.1z"/>
	</g>
	<g>
		<path class="st3" d="M110.6,65.5c0,0-0.2,0.7-0.7,1.8c-0.5,1.1-1.2,2.7-2.2,4.5c-1.1,1.8-2.5,3.8-4.4,5.6c-1,0.9-2,1.7-3.3,2.4
			c-1.2,0.7-2.6,1.1-4,1.4c-1.4,0.2-2.9,0.1-4.2-0.2c-1.3-0.4-2.6-0.9-3.8-1.6c-0.6-0.3-1.1-0.6-1.6-1c-0.5-0.4-1-0.7-1.4-1.1
			c-0.4-0.4-0.9-0.8-1.3-1.2c-0.4-0.4-0.8-0.8-1.1-1.2c-0.7-0.7-1.3-1.5-1.8-2.1c-0.5-0.6-1-1.2-1.3-1.7c-0.7-1-1.1-1.5-1.1-1.5
			s0.4,0.5,1.2,1.4c0.4,0.5,0.8,1,1.4,1.6c0.6,0.6,1.2,1.3,2,2c0.4,0.3,0.8,0.7,1.2,1.1c0.4,0.3,0.9,0.7,1.3,1.1
			c0.4,0.4,1,0.7,1.5,1c0.5,0.4,1,0.7,1.6,1c1.1,0.6,2.3,1,3.5,1.4c1.3,0.2,2.6,0.4,3.9,0.2c1.3-0.2,2.5-0.6,3.7-1.2
			c1.1-0.6,2.2-1.4,3.1-2.2c0.9-0.9,1.8-1.7,2.5-2.6c0.7-0.9,1.4-1.8,2-2.6c1.1-1.7,2-3.2,2.5-4.2C110.4,66.1,110.6,65.5,110.6,65.5
			z"/>
	</g>
	<ellipse class="st2" cx="36.8" cy="102.2" rx="0.8" ry="1"/>
</g>
<g id="Layer_9">
</g>
<g id="hair">
</g>
<g id="Layer_10">
</g>
<g id="eye2">
</g>
<g id="jaaw">
</g>
<g id="outline">
</g>
<g id="nose">
</g>
<g id="eye1">
</g>
<g id="wrinkles">
</g>
<g id="Layer_4">
</g>
<g id="Layer_7">
</g>
<g id="hair_1_">
</g>
<g id="scars">
</g>
<g id="Layer_19">
	<path class="st1" d="M144,43.1c-25.5,6.6-31.7,18.2-36.5,31.3c-0.1,0.3-0.2,0.5-0.2,0.7c0,0,0,0,0,0l0,0c-0.1,0.9,0.5,0.9,1.7,0.2
		l6.3,0.9C149.2,65.3,144,43.1,144,43.1z"/>
	<path class="st4" d="M106.3,76.1c0,0,27.3-29.4,36.8-32.1c0,0,4.3,19.9-28.7,33.2"/>
	<g>
		<path class="st3" d="M113.8,76.9c0,0,0.3-0.6,0.8-1.6c0.6-1,1.4-2.5,2.5-4.1c0.6-0.8,1.2-1.7,2-2.6c0.7-0.9,1.5-1.8,2.5-2.6
			c0.5-0.4,1-0.8,1.5-1.3c0.5-0.4,1.1-0.8,1.6-1.1c1.2-0.7,2.4-1.3,3.8-1.5c0.3-0.1,0.7-0.1,1-0.2c0.3,0,0.6-0.1,0.9-0.2
			c0.6-0.2,1.1-0.5,1.3-0.9c0.6-1.1,1.2-2.3,1.8-3.3c1.2-2.2,2.5-4.1,3.7-5.7c0.6-0.8,1.2-1.5,1.9-2c0.2-0.1,0.4-0.2,0.6-0.3
			c0.2-0.1,0.5,0,0.6,0.2c0.3,0.3,0.3,0.7,0.4,1c0.1,0.6,0,1,0,1.4c0,0.3,0,0.5,0,0.5s0-0.2,0-0.5c0-0.3,0-0.8-0.1-1.3
			c-0.1-0.3-0.1-0.6-0.3-0.8c-0.2-0.2-0.5,0-0.8,0.2c-0.6,0.5-1.1,1.2-1.7,2c-1.1,1.6-2.2,3.6-3.4,5.8c-0.6,1.1-1.2,2.2-1.8,3.4
			c-0.5,0.7-1.2,1.1-1.8,1.3c-0.3,0.1-0.7,0.2-1,0.2c-0.3,0.1-0.6,0.1-0.9,0.2c-1.2,0.2-2.4,0.8-3.5,1.4c-0.5,0.3-1,0.7-1.6,1
			c-0.5,0.4-1,0.8-1.4,1.2c-0.9,0.8-1.7,1.6-2.5,2.5c-0.8,0.8-1.4,1.6-2.1,2.4c-0.6,0.8-1.1,1.5-1.6,2.1c-0.5,0.7-0.9,1.2-1.2,1.7
			C114.2,76.4,113.8,76.9,113.8,76.9z"/>
	</g>
	<path class="st3" d="M134.1,59c0.5-1,2-4.7,3.9-6.5c0.4-0.4,1.4-0.2,1.2,0.3c-0.3,1,0.1,4-3.7,6.7C134.9,59.9,133.8,59.6,134.1,59z
		"/>
	<path class="st3" d="M118,73.1c1.8-3.1,6.4-9.5,12-9.4c0.6,0,1.1,0.4,0.8,0.8c-1.1,1.7-4.7,6.2-11.5,9.2
		C118.7,74.1,117.7,73.6,118,73.1z"/>
	<path class="st3" d="M143.1,44"/>
	<path class="st2" d="M106.6,75.3c4.8-13.1,13.3-25,36.5-31.3C143.1,44,103,85,106.6,75.3z"/>
	<path class="st1" d="M2.8,53.8C28.2,60.4,34.4,72,39.3,85.1c0.1,0.3,0.2,0.5,0.2,0.7c0,0,0,0,0,0l0,0c0.1,0.9-0.5,0.9-1.7,0.2
		L31.5,87C-2.5,76.1,2.8,53.8,2.8,53.8z"/>
	<path class="st4" d="M40.4,86.8c0,0-27.3-29.4-36.8-32.1c0,0-4.3,19.9,28.7,33.2"/>
	<g>
		<path class="st3" d="M32.9,87.7c0,0-0.3-0.6-1-1.5c-0.3-0.5-0.7-1.1-1.2-1.7c-0.5-0.6-1-1.4-1.6-2.1c-0.6-0.8-1.3-1.6-2.1-2.4
			c-0.8-0.8-1.6-1.6-2.5-2.5c-0.5-0.4-0.9-0.8-1.4-1.2c-0.5-0.3-1-0.7-1.6-1c-1.1-0.6-2.2-1.2-3.5-1.4c-0.3-0.1-0.6-0.1-0.9-0.2
			c-0.3,0-0.7-0.1-1-0.2c-0.7-0.2-1.4-0.6-1.8-1.3c-0.6-1.2-1.2-2.3-1.8-3.4c-1.2-2.2-2.3-4.2-3.4-5.8c-0.6-0.8-1.1-1.5-1.7-2
			c-0.3-0.2-0.6-0.4-0.8-0.2c-0.2,0.2-0.3,0.5-0.3,0.8c-0.1,0.6-0.1,1-0.1,1.3c0,0.3,0,0.5,0,0.5s0-0.2,0-0.5c0-0.3-0.1-0.8,0-1.4
			c0.1-0.3,0.1-0.6,0.4-1c0.1-0.2,0.4-0.2,0.6-0.2c0.2,0,0.4,0.1,0.6,0.3c0.7,0.5,1.3,1.2,1.9,2c1.2,1.6,2.5,3.6,3.7,5.7
			c0.6,1.1,1.2,2.2,1.8,3.3c0.2,0.4,0.8,0.7,1.3,0.9c0.3,0.1,0.6,0.2,0.9,0.2c0.3,0,0.7,0.1,1,0.2c1.4,0.3,2.6,0.9,3.8,1.5
			c0.6,0.4,1.1,0.7,1.6,1.1c0.5,0.4,1,0.8,1.5,1.3c0.9,0.9,1.7,1.8,2.5,2.6c0.7,0.9,1.4,1.7,2,2.6c1.1,1.6,1.9,3.1,2.5,4.1
			C32.6,87.1,32.9,87.7,32.9,87.7z"/>
	</g>
	<path class="st3" d="M12.6,69.8c-0.5-1-2-4.7-3.9-6.5c-0.4-0.4-1.4-0.2-1.2,0.3c0.3,1-0.1,4,3.7,6.7C11.8,70.6,12.9,70.3,12.6,69.8
		z"/>
	<path class="st3" d="M28.7,83.9c-1.8-3.1-6.4-9.5-12-9.4c-0.6,0-1.1,0.4-0.8,0.8c1.1,1.7,4.7,6.2,11.5,9.2
		C28.1,84.9,29,84.4,28.7,83.9z"/>
	<path class="st3" d="M3.6,54.7"/>
	<path class="st2" d="M40.2,86.1C35.3,73,26.8,61.1,3.6,54.7C3.6,54.7,43.7,95.7,40.2,86.1z"/>
</g>
<g id="Layer_12">
	<g>
		<path class="st5" d="M88.6,116.7c0,0-1.3-9.4-10.7-4.5c-3.9,2.1-8.5,3.6-12.7,2.7c-7.7-1.5-16,5.2-12.4,9.5c0,0,1.6-9,14.2-7.5
			c3.5,0.4,7.5,0.3,10.5-2.1C80.2,112.7,84.5,112.7,88.6,116.7z"/>
		<path class="st5" d="M88.6,116.7c0,0,8.8,17.9-20.5,12.6c-2.4-0.4-4.8-0.6-7.2-0.6c-3.6,0.1-8.9-0.3-7.9-4c0,0,3.5,3.1,9.2,2.4
			c1.4-0.2,2.8-0.1,4.1,0.1C72.1,128.3,86.9,129.5,88.6,116.7"/>
		<path class="st6" d="M78.4,114.3c0,0,4.2,3.9,0.2,24.5c0,0,5.6-6.7,3.2-22.1c-0.1-0.5-1-3.2-1.5-3.2
			C79.4,113.7,78.4,114.3,78.4,114.3z"/>
		<path class="st6" d="M63.7,116.9c0,0-3.8,1.3,0.2,22c0,0-4.4-9.4-3.3-21.6c0,0,0.1,0,0.2,0C61.6,117,63.7,116.9,63.7,116.9z"/>
	</g>
	<g>
		<path class="st3" d="M42,144.5c0,0-0.7,0-1.9-0.1c-0.6-0.1-1.3-0.2-2.2-0.5c-0.4-0.1-0.8-0.3-1.3-0.5c-0.4-0.2-0.9-0.4-1.4-0.7
			c-0.5-0.3-0.9-0.6-1.4-0.9c-0.5-0.3-0.9-0.7-1.4-1.1c-0.5-0.4-0.9-0.8-1.4-1.3c-0.2-0.2-0.4-0.5-0.7-0.7l-0.3-0.4l-0.3-0.4
			c-0.4-0.5-0.8-1.1-1.2-1.7c-0.4-0.6-0.7-1.2-1-1.8c-0.3-0.6-0.7-1.2-0.9-1.9c-0.2-0.7-0.5-1.3-0.7-2l-0.3-1
			c-0.1-0.3-0.2-0.7-0.2-1c-0.1-0.7-0.3-1.4-0.4-2.1c-0.4-1.3-0.4-2.7-0.5-4c-0.1-0.7-0.1-1.3-0.2-1.9c0-0.6,0-1.3,0-1.9
			c0-1.2,0-2.3,0-3.4c0-1,0.2-2,0.2-2.9c0.1-0.8,0.2-1.6,0.2-2.2c0.1-1.2,0.2-1.9,0.2-1.9s0,0.7,0,1.9c0,0.6,0,1.3-0.1,2.2
			c0,0.8-0.1,1.8-0.1,2.8c0,1,0.1,2.2,0.1,3.4c0,0.6,0,1.2,0.1,1.8c0.1,0.6,0.2,1.3,0.2,1.9c0.2,1.3,0.2,2.6,0.6,3.9
			c0.1,0.7,0.3,1.3,0.4,2c0.1,0.3,0.1,0.7,0.2,1l0.3,1c0.2,0.6,0.4,1.3,0.7,1.9c0.2,0.7,0.6,1.2,0.8,1.8c0.3,0.6,0.5,1.2,0.9,1.8
			c0.4,0.5,0.7,1.1,1.1,1.6l0.3,0.4l0.3,0.4c0.2,0.2,0.4,0.5,0.6,0.7c0.4,0.5,0.8,0.9,1.2,1.3c0.4,0.4,0.9,0.8,1.3,1.1
			c0.5,0.3,0.9,0.6,1.3,0.9c0.4,0.3,0.9,0.5,1.3,0.7c0.4,0.2,0.8,0.4,1.2,0.6c0.8,0.3,1.5,0.5,2.1,0.7c0.6,0.1,1.1,0.2,1.4,0.3
			C41.9,144.5,42,144.5,42,144.5z"/>
	</g>
	<g>
		<path class="st3" d="M88.6,146.2c0,0-0.5,0.2-1.3,0.5c-0.8,0.3-2,0.7-3.5,1c-1.4,0.3-3.1,0.7-5,1c-0.9,0.1-1.9,0.2-2.9,0.3
			c-1,0.1-2,0.1-3,0.2c-1,0-2,0-3,0c-1,0-1.9-0.1-2.9-0.2c-0.9-0.1-1.8-0.2-2.7-0.4c-0.8-0.2-1.6-0.3-2.4-0.5
			c-0.7-0.2-1.4-0.4-1.9-0.6c-0.6-0.2-1.1-0.4-1.5-0.6c-0.8-0.3-1.3-0.5-1.3-0.5s0.5,0.1,1.3,0.4c0.4,0.1,0.9,0.3,1.5,0.4
			c0.6,0.1,1.3,0.2,2,0.4c0.7,0.2,1.5,0.2,2.3,0.4c0.8,0.1,1.7,0.2,2.6,0.3c0.9,0.1,1.9,0.1,2.8,0.1c1,0.1,1.9,0,2.9,0
			c1,0,2-0.1,2.9-0.1c1-0.1,1.9-0.1,2.8-0.2c1.8-0.2,3.5-0.4,5-0.7c1.5-0.3,2.7-0.5,3.5-0.6C88.1,146.3,88.6,146.2,88.6,146.2z"/>
	</g>
	<g>
		<path class="st3" d="M126.5,108.4c0,0,0.2,0.7,0.4,1.9c0.2,1.2,0.4,2.9,0.5,5c0,1.1,0.1,2.2,0,3.4c0,1.2-0.1,2.5-0.3,3.8
			c-0.2,1.3-0.4,2.7-0.7,4c-0.3,1.4-0.7,2.7-1.2,4c-0.2,0.7-0.5,1.3-0.8,2c-0.3,0.6-0.6,1.3-1,1.9c-0.4,0.6-0.7,1.2-1.1,1.7
			c-0.4,0.6-0.8,1.1-1.3,1.6c-0.9,1-1.8,1.9-2.8,2.7c-1,0.7-1.9,1.4-2.9,1.9c-0.5,0.3-0.9,0.5-1.4,0.7c-0.4,0.2-0.9,0.4-1.3,0.5
			c-0.8,0.3-1.5,0.5-2.1,0.7c-1.2,0.3-1.9,0.4-1.9,0.4s0.7-0.2,1.8-0.6c0.6-0.2,1.2-0.5,2-0.8c0.4-0.2,0.8-0.4,1.2-0.6
			c0.2-0.1,0.4-0.2,0.6-0.3c0.2-0.1,0.4-0.3,0.6-0.4c1.8-1.1,3.6-2.6,5.2-4.6c0.4-0.5,0.8-1,1.2-1.6c0.4-0.5,0.7-1.1,1.1-1.7
			c0.4-0.6,0.6-1.2,0.9-1.8c0.3-0.6,0.6-1.3,0.8-1.9c0.5-1.3,0.9-2.6,1.2-3.9c0.3-1.3,0.6-2.6,0.8-3.9c0.4-2.6,0.5-5,0.5-7.1
			c0-2.1,0-3.8-0.1-5C126.6,109.1,126.5,108.4,126.5,108.4z"/>
	</g>
	<ellipse class="st7" cx="36.8" cy="93" rx="3.8" ry="4.7"/>
	<ellipse class="st3" cx="36.5" cy="93" rx="2.8" ry="3.4"/>
	<g>
		<path class="st8" d="M30.3,88.4c0.2,0.3,0.3,0.6,0.5,0.8c0.2,0.3,0.4,0.5,0.5,0.7c0.3,0.5,0.7,1,1.2,1.3c0.5,0.4,1,0.7,1.5,1
			c0.5,0.3,1.1,0.5,1.7,0.6l0.9,0.2l-0.9,0.3c-0.9,0.3-1.7,0.7-2.5,1.1c-0.2,0.1-0.4,0.2-0.6,0.3c-0.2,0.1-0.4,0.3-0.6,0.4
			c-0.4,0.2-0.8,0.4-1.2,0.7c0.3-0.4,0.6-0.7,1-1c0.2-0.2,0.4-0.3,0.6-0.4c0.2-0.1,0.4-0.2,0.6-0.4c0.8-0.5,1.7-0.9,2.6-1.2l0,0.5
			c-0.7-0.1-1.3-0.3-1.9-0.6c-0.6-0.3-1.1-0.6-1.6-1c-0.5-0.4-1-0.9-1.3-1.4c-0.2-0.3-0.3-0.6-0.4-0.9C30.4,89,30.4,88.7,30.3,88.4z
			"/>
	</g>
	<path class="st3" d="M120.4,126.8c0.1-0.1,0.2-0.4,0.1-0.5c-0.1-0.2-0.3-0.2-0.4-0.1c-0.1,0.1-0.2,0.4-0.1,0.5
		C120.1,126.9,120.3,126.9,120.4,126.8z"/>
	<path class="st3" d="M120.7,128.2c0.1-0.1,0.2-0.4,0.1-0.5s-0.3-0.2-0.4-0.1s-0.2,0.4-0.1,0.5C120.4,128.3,120.6,128.3,120.7,128.2
		z"/>
	<path class="st3" d="M119.5,128.5c0.1-0.1,0.2-0.4,0.1-0.5s-0.3-0.2-0.4-0.1s-0.2,0.4-0.1,0.5C119.2,128.6,119.4,128.6,119.5,128.5
		z"/>
	<path class="st3" d="M118.7,129.9c0.1-0.1,0.2-0.4,0.1-0.5c-0.1-0.2-0.3-0.2-0.4-0.1c-0.1,0.1-0.2,0.4-0.1,0.5
		C118.4,130,118.6,130,118.7,129.9z"/>
	<path class="st3" d="M119.8,130.3c0.1-0.1,0.2-0.4,0.1-0.5c-0.1-0.2-0.3-0.2-0.4-0.1s-0.2,0.4-0.1,0.5
		C119.5,130.4,119.7,130.4,119.8,130.3z"/>
	<path class="st3" d="M121.1,129.7c0.1-0.1,0.2-0.4,0.1-0.5c-0.1-0.2-0.3-0.2-0.4-0.1s-0.2,0.4-0.1,0.5
		C120.8,129.8,121,129.8,121.1,129.7z"/>
	<path class="st3" d="M121.4,126.4c0.1-0.1,0.2-0.4,0.1-0.5c-0.1-0.2-0.3-0.2-0.4-0.1c-0.1,0.1-0.2,0.4-0.1,0.5
		C121.1,126.5,121.3,126.5,121.4,126.4z"/>
	<path class="st3" d="M121,123.7c0.1-0.1,0.2-0.4,0.1-0.5s-0.3-0.2-0.4-0.1s-0.2,0.4-0.1,0.5C120.7,123.7,120.9,123.8,121,123.7z"/>
	<path class="st3" d="M119.8,123.6c0.1-0.1,0.2-0.4,0.1-0.5s-0.3-0.2-0.4-0.1s-0.2,0.4-0.1,0.5S119.7,123.7,119.8,123.6z"/>
	<ellipse class="st3" cx="118.1" cy="132.7" rx="0.3" ry="0.4"/>
	<ellipse class="st3" cx="121.2" cy="122.6" rx="0.3" ry="0.4"/>
	<ellipse class="st3" cx="119.8" cy="121.4" rx="0.3" ry="0.4"/>
	<path class="st3" d="M119.6,125.1c0.1-0.1,0.2-0.4,0.1-0.5s-0.3-0.2-0.4-0.1s-0.2,0.4-0.1,0.5C119.3,125.2,119.5,125.2,119.6,125.1
		z"/>
	<path class="st3" d="M117.8,125.5c0.1-0.1,0.2-0.4,0.1-0.5s-0.3-0.2-0.4-0.1s-0.2,0.4-0.1,0.5S117.7,125.6,117.8,125.5z"/>
	<path class="st3" d="M117.4,129.5c0.1-0.1,0.2-0.4,0.1-0.5c-0.1-0.2-0.3-0.2-0.4-0.1s-0.2,0.4-0.1,0.5
		C117.1,129.6,117.3,129.6,117.4,129.5z"/>
	<path class="st3" d="M117.3,131.6c0.1-0.1,0.2-0.4,0.1-0.5c-0.1-0.2-0.3-0.2-0.4-0.1s-0.2,0.4-0.1,0.5
		C117,131.7,117.2,131.7,117.3,131.6z"/>
	<path class="st3" d="M117.2,133.4c0.1-0.1,0.2-0.4,0.1-0.5c-0.1-0.2-0.3-0.2-0.4-0.1s-0.2,0.4-0.1,0.5
		C116.8,133.5,117,133.6,117.2,133.4z"/>
	<path class="st3" d="M119.2,131.9c0.1-0.1,0.2-0.4,0.1-0.5c-0.1-0.2-0.3-0.2-0.4-0.1c-0.1,0.1-0.2,0.4-0.1,0.5
		C118.9,132,119,132,119.2,131.9z"/>
	<path class="st3" d="M118.9,135c0.1-0.1,0.2-0.4,0.1-0.5c-0.1-0.2-0.3-0.2-0.4-0.1s-0.2,0.4-0.1,0.5
		C118.5,135.1,118.7,135.1,118.9,135z"/>
	<path class="st3" d="M117.8,135.8c0.1-0.1,0.2-0.4,0.1-0.5c-0.1-0.2-0.3-0.2-0.4-0.1s-0.2,0.4-0.1,0.5
		C117.5,135.9,117.7,135.9,117.8,135.8z"/>
	<path class="st3" d="M116.7,136.2c0.1-0.1,0.2-0.4,0.1-0.5c-0.1-0.2-0.3-0.2-0.4-0.1s-0.2,0.4-0.1,0.5
		C116.3,136.2,116.5,136.3,116.7,136.2z"/>
	<ellipse class="st3" cx="118.4" cy="126.3" rx="0.3" ry="0.4"/>
	<ellipse class="st3" cx="122.4" cy="120.7" rx="0.3" ry="0.4"/>
	<ellipse class="st3" cx="120.8" cy="119.6" rx="0.3" ry="0.4"/>
	<ellipse class="st3" cx="121" cy="116.7" rx="0.3" ry="0.4"/>
	<ellipse class="st3" cx="119.7" cy="115.6" rx="0.3" ry="0.4"/>
	<ellipse class="st3" cx="118.2" cy="118.2" rx="0.3" ry="0.4"/>
	<ellipse class="st3" cx="118.2" cy="122.9" rx="0.3" ry="0.4"/>
	<ellipse class="st3" cx="122.2" cy="114.9" rx="0.3" ry="0.4"/>
	<path class="st3" d="M31.3,130.2c-0.2-0.1-0.2-0.3-0.2-0.5s0.2-0.3,0.4-0.2c0.2,0.1,0.2,0.3,0.2,0.5
		C31.6,130.1,31.4,130.2,31.3,130.2z"/>
	<path class="st3" d="M31.2,131.6c-0.2-0.1-0.2-0.3-0.2-0.5c0.1-0.2,0.2-0.3,0.4-0.2c0.2,0.1,0.2,0.3,0.2,0.5
		C31.6,131.6,31.4,131.7,31.2,131.6z"/>
	<path class="st3" d="M32.5,131.5c-0.2-0.1-0.2-0.3-0.2-0.5c0.1-0.2,0.2-0.3,0.4-0.2c0.2,0.1,0.2,0.3,0.2,0.5
		C32.8,131.5,32.6,131.6,32.5,131.5z"/>
	<path class="st3" d="M33.5,132.6c-0.2-0.1-0.2-0.3-0.2-0.5c0.1-0.2,0.2-0.3,0.4-0.2c0.2,0.1,0.2,0.3,0.2,0.5S33.7,132.7,33.5,132.6
		z"/>
	<path class="st3" d="M32.5,133.4c-0.2-0.1-0.2-0.3-0.2-0.5c0.1-0.2,0.2-0.3,0.4-0.2c0.2,0.1,0.2,0.3,0.2,0.5
		C32.9,133.3,32.7,133.4,32.5,133.4z"/>
	<path class="st3" d="M31.1,133.2c-0.2-0.1-0.2-0.3-0.2-0.5c0.1-0.2,0.2-0.3,0.4-0.2c0.2,0.1,0.2,0.3,0.2,0.5
		C31.5,133.2,31.3,133.3,31.1,133.2z"/>
	<path class="st3" d="M30.2,130.1c-0.2-0.1-0.2-0.3-0.2-0.5s0.2-0.3,0.4-0.2c0.2,0.1,0.2,0.3,0.2,0.5
		C30.5,130.1,30.3,130.2,30.2,130.1z"/>
	<path class="st3" d="M30,127.3c-0.2-0.1-0.2-0.3-0.2-0.5c0.1-0.2,0.2-0.3,0.4-0.2c0.2,0.1,0.2,0.3,0.2,0.5
		C30.4,127.3,30.2,127.4,30,127.3z"/>
	<path class="st3" d="M31.2,126.9c-0.2-0.1-0.2-0.3-0.2-0.5c0.1-0.2,0.2-0.3,0.4-0.2c0.2,0.1,0.2,0.3,0.2,0.5S31.4,127,31.2,126.9z"
		/>
	<path class="st3" d="M34.4,135.2c0-0.2,0.1-0.4,0.2-0.5c0.2-0.1,0.3,0.1,0.4,0.3c0,0.2-0.1,0.4-0.2,0.5
		C34.6,135.6,34.4,135.4,34.4,135.2z"/>
	<path class="st3" d="M29.4,126.4c0-0.2,0.1-0.4,0.2-0.5c0.2-0.1,0.3,0.1,0.4,0.3c0,0.2-0.1,0.4-0.2,0.5
		C29.6,126.8,29.4,126.6,29.4,126.4z"/>
	<path class="st3" d="M30.5,124.9c0-0.2,0.1-0.4,0.2-0.5c0.2-0.1,0.3,0.1,0.4,0.3c0,0.2-0.1,0.4-0.2,0.5
		C30.7,125.2,30.5,125.1,30.5,124.9z"/>
	<path class="st3" d="M31.7,128.3c-0.2-0.1-0.2-0.3-0.2-0.5s0.2-0.3,0.4-0.2c0.2,0.1,0.2,0.3,0.2,0.5
		C32,128.3,31.8,128.4,31.7,128.3z"/>
	<path class="st3" d="M33.5,128.1c-0.2-0.1-0.2-0.3-0.2-0.5c0.1-0.2,0.2-0.3,0.4-0.2c0.2,0.1,0.2,0.3,0.2,0.5
		C33.9,128.1,33.7,128.2,33.5,128.1z"/>
	<path class="st3" d="M34.7,131.9c-0.2-0.1-0.2-0.3-0.2-0.5c0.1-0.2,0.2-0.3,0.4-0.2c0.2,0.1,0.2,0.3,0.2,0.5
		C35,131.8,34.9,131.9,34.7,131.9z"/>
	<path class="st3" d="M35.2,133.9c-0.2-0.1-0.2-0.3-0.2-0.5c0.1-0.2,0.2-0.3,0.4-0.2c0.2,0.1,0.2,0.3,0.2,0.5
		C35.6,133.9,35.4,134,35.2,133.9z"/>
	<path class="st3" d="M35.7,135.6c-0.2-0.1-0.2-0.3-0.2-0.5c0.1-0.2,0.2-0.3,0.4-0.2c0.2,0.1,0.2,0.3,0.2,0.5
		C36,135.6,35.9,135.7,35.7,135.6z"/>
	<path class="st3" d="M33.4,134.7c-0.2-0.1-0.2-0.3-0.2-0.5s0.2-0.3,0.4-0.2c0.2,0.1,0.2,0.3,0.2,0.5
		C33.8,134.7,33.6,134.8,33.4,134.7z"/>
	<path class="st3" d="M74,146c-0.1,0.2-0.2,0.3-0.4,0.2c-0.2-0.1-0.2-0.3-0.2-0.5c0.1-0.2,0.2-0.3,0.4-0.2
		C74,145.6,74.1,145.8,74,146z"/>
	<path class="st3" d="M76.1,144.9c-0.2,0.1-0.3-0.1-0.4-0.3c0-0.2,0.1-0.4,0.2-0.5c0.2-0.1,0.3,0.1,0.4,0.3S76.2,144.8,76.1,144.9z"
		/>
	<path class="st3" d="M73.4,144.5c-0.1,0.2-0.2,0.3-0.4,0.2c-0.2-0.1-0.2-0.3-0.2-0.5c0.1-0.2,0.2-0.3,0.4-0.2
		S73.4,144.3,73.4,144.5z"/>
	<path class="st3" d="M75,143.9c-0.1,0.2-0.2,0.3-0.4,0.2c-0.2-0.1-0.2-0.3-0.2-0.5c0.1-0.2,0.2-0.3,0.4-0.2
		C74.9,143.4,75,143.7,75,143.9z"/>
	<path class="st3" d="M76.4,143.2c-0.1,0.2-0.2,0.3-0.4,0.2c-0.2-0.1-0.2-0.3-0.2-0.5c0.1-0.2,0.2-0.3,0.4-0.2S76.4,143,76.4,143.2z
		"/>
	<path class="st3" d="M75.7,146.1c-0.1,0.2-0.2,0.3-0.4,0.2c-0.2-0.1-0.2-0.3-0.2-0.5c0.1-0.2,0.2-0.3,0.4-0.2
		C75.6,145.7,75.7,145.9,75.7,146.1z"/>
	<path class="st3" d="M70.3,147.1c-0.1,0.2-0.2,0.3-0.4,0.2c-0.2-0.1-0.2-0.3-0.2-0.5c0.1-0.2,0.2-0.3,0.4-0.2
		C70.3,146.6,70.4,146.9,70.3,147.1z"/>
	<path class="st3" d="M72.3,145.9c-0.2,0.1-0.3-0.1-0.4-0.3s0.1-0.4,0.2-0.5c0.2-0.1,0.3,0.1,0.4,0.3S72.5,145.9,72.3,145.9z"/>
	<path class="st3" d="M69.7,145.6c-0.1,0.2-0.2,0.3-0.4,0.2c-0.2-0.1-0.2-0.3-0.2-0.5c0.1-0.2,0.2-0.3,0.4-0.2
		C69.6,145.2,69.7,145.4,69.7,145.6z"/>
	<path class="st3" d="M71.3,144.9c-0.1,0.2-0.2,0.3-0.4,0.2c-0.2-0.1-0.2-0.3-0.2-0.5c0.1-0.2,0.2-0.3,0.4-0.2
		S71.3,144.7,71.3,144.9z"/>
	<path class="st3" d="M72.6,144.3c-0.1,0.2-0.2,0.3-0.4,0.2c-0.2-0.1-0.2-0.3-0.2-0.5c0.1-0.2,0.2-0.3,0.4-0.2
		C72.6,143.8,72.7,144.1,72.6,144.3z"/>
	<path class="st3" d="M72,147.1c-0.1,0.2-0.2,0.3-0.4,0.2c-0.2-0.1-0.2-0.3-0.2-0.5c0.1-0.2,0.2-0.3,0.4-0.2
		C71.9,146.7,72,146.9,72,147.1z"/>
	<path class="st3" d="M66.7,146.7c-0.1,0.2-0.2,0.3-0.4,0.2s-0.2-0.3-0.2-0.5c0.1-0.2,0.2-0.3,0.4-0.2S66.7,146.5,66.7,146.7z"/>
	<path class="st3" d="M68.7,145.5c-0.2,0.1-0.3-0.1-0.4-0.3c0-0.2,0.1-0.4,0.2-0.5c0.2-0.1,0.3,0.1,0.4,0.3
		C69,145.3,68.9,145.5,68.7,145.5z"/>
	<path class="st3" d="M66,145.2c-0.1,0.2-0.2,0.3-0.4,0.2c-0.2-0.1-0.2-0.3-0.2-0.5c0.1-0.2,0.2-0.3,0.4-0.2
		C66,144.8,66.1,145,66,145.2z"/>
	<path class="st3" d="M67.6,144.5c-0.1,0.2-0.2,0.3-0.4,0.2c-0.2-0.1-0.2-0.3-0.2-0.5c0.1-0.2,0.2-0.3,0.4-0.2
		C67.6,144.1,67.7,144.3,67.6,144.5z"/>
	<path class="st3" d="M69,143.9c-0.1,0.2-0.2,0.3-0.4,0.2c-0.2-0.1-0.2-0.3-0.2-0.5c0.1-0.2,0.2-0.3,0.4-0.2
		C69,143.4,69.1,143.7,69,143.9z"/>
	<path class="st3" d="M68.3,146.7c-0.1,0.2-0.2,0.3-0.4,0.2c-0.2-0.1-0.2-0.3-0.2-0.5c0.1-0.2,0.2-0.3,0.4-0.2
		C68.3,146.3,68.4,146.5,68.3,146.7z"/>
	<path class="st3" d="M62.7,146.3c-0.1,0.2-0.2,0.3-0.4,0.2c-0.2-0.1-0.2-0.3-0.2-0.5c0.1-0.2,0.2-0.3,0.4-0.2
		C62.6,145.9,62.7,146.1,62.7,146.3z"/>
	<path class="st3" d="M64.7,145.2c-0.2,0.1-0.3-0.1-0.4-0.3c0-0.2,0.1-0.4,0.2-0.5c0.2-0.1,0.3,0.1,0.4,0.3
		C65,144.9,64.9,145.1,64.7,145.2z"/>
	<path class="st3" d="M62,144.8c-0.1,0.2-0.2,0.3-0.4,0.2c-0.2-0.1-0.2-0.3-0.2-0.5c0.1-0.2,0.2-0.3,0.4-0.2
		C62,144.4,62.1,144.6,62,144.8z"/>
	<path class="st3" d="M63.6,144.1c-0.1,0.2-0.2,0.3-0.4,0.2c-0.2-0.1-0.2-0.3-0.2-0.5c0.1-0.2,0.2-0.3,0.4-0.2
		C63.6,143.7,63.7,143.9,63.6,144.1z"/>
	<path class="st3" d="M65,143.5c-0.1,0.2-0.2,0.3-0.4,0.2c-0.2-0.1-0.2-0.3-0.2-0.5c0.1-0.2,0.2-0.3,0.4-0.2
		C65,143.1,65.1,143.3,65,143.5z"/>
	<path class="st3" d="M64.3,146.4c-0.1,0.2-0.2,0.3-0.4,0.2s-0.2-0.3-0.2-0.5s0.2-0.3,0.4-0.2S64.4,146.2,64.3,146.4z"/>
	<path class="st3" d="M78.7,145.9c-0.1,0.2-0.2,0.3-0.4,0.2c-0.2-0.1-0.2-0.3-0.2-0.5c0.1-0.2,0.2-0.3,0.4-0.2
		C78.7,145.5,78.8,145.7,78.7,145.9z"/>
	<path class="st3" d="M80.8,144.8c-0.2,0.1-0.3-0.1-0.4-0.3s0.1-0.4,0.2-0.5c0.2-0.1,0.3,0.1,0.4,0.3
		C81,144.5,80.9,144.7,80.8,144.8z"/>
	<path class="st3" d="M78.1,144.4c-0.1,0.2-0.2,0.3-0.4,0.2c-0.2-0.1-0.2-0.3-0.2-0.5c0.1-0.2,0.2-0.3,0.4-0.2
		C78,144,78.1,144.2,78.1,144.4z"/>
	<path class="st3" d="M79.7,143.8c-0.1,0.2-0.2,0.3-0.4,0.2c-0.2-0.1-0.2-0.3-0.2-0.5c0.1-0.2,0.2-0.3,0.4-0.2
		C79.7,143.3,79.7,143.6,79.7,143.8z"/>
	<path class="st3" d="M81.1,143.1c-0.1,0.2-0.2,0.3-0.4,0.2c-0.2-0.1-0.2-0.3-0.2-0.5c0.1-0.2,0.2-0.3,0.4-0.2
		C81,142.7,81.1,142.9,81.1,143.1z"/>
	<path class="st3" d="M80.4,146c-0.1,0.2-0.2,0.3-0.4,0.2c-0.2-0.1-0.2-0.3-0.2-0.5c0.1-0.2,0.2-0.3,0.4-0.2
		C80.3,145.5,80.4,145.8,80.4,146z"/>
	<path class="st3" d="M34.4,137.6c-0.2-0.1-0.2-0.3-0.2-0.5c0.1-0.2,0.2-0.3,0.4-0.2c0.2,0.1,0.2,0.3,0.2,0.5
		C34.7,137.6,34.5,137.7,34.4,137.6z"/>
	<path class="st3" d="M35.6,138.1c-0.2-0.1-0.2-0.3-0.2-0.5c0.1-0.2,0.2-0.3,0.4-0.2c0.2,0.1,0.2,0.3,0.2,0.5
		C35.9,138,35.7,138.1,35.6,138.1z"/>
	<path class="st3" d="M36.7,138.1c-0.2-0.1-0.2-0.3-0.2-0.5c0.1-0.2,0.2-0.3,0.4-0.2c0.2,0.1,0.2,0.3,0.2,0.5
		C37.1,138.1,36.9,138.2,36.7,138.1z"/>
	<path class="st3" d="M32.8,129.1c0-0.2,0.1-0.4,0.2-0.5c0.2-0.1,0.3,0.1,0.4,0.3s-0.1,0.4-0.2,0.5C33,129.5,32.9,129.3,32.8,129.1z
		"/>
	<path class="st3" d="M27.9,125c0-0.2,0.1-0.4,0.2-0.5c0.2-0.1,0.3,0.1,0.4,0.3c0,0.2-0.1,0.4-0.2,0.5
		C28.1,125.4,27.9,125.2,27.9,125z"/>
	<path class="st3" d="M29.2,123.4c0-0.2,0.1-0.4,0.2-0.5c0.2-0.1,0.3,0.1,0.4,0.3c0,0.2-0.1,0.4-0.2,0.5S29.2,123.6,29.2,123.4z"/>
	<path class="st3" d="M28.4,120.7c0-0.2,0.1-0.4,0.2-0.5c0.2-0.1,0.3,0.1,0.4,0.3c0,0.2-0.1,0.4-0.2,0.5
		C28.6,121.1,28.4,120.9,28.4,120.7z"/>
	<path class="st3" d="M29.4,119.2c0-0.2,0.1-0.4,0.2-0.5c0.2-0.1,0.3,0.1,0.4,0.3c0,0.2-0.1,0.4-0.2,0.5
		C29.7,119.5,29.5,119.4,29.4,119.2z"/>
	<path class="st3" d="M31.4,121.3c0-0.2,0.1-0.4,0.2-0.5s0.3,0.1,0.4,0.3c0,0.2-0.1,0.4-0.2,0.5S31.4,121.5,31.4,121.3z"/>
	<path class="st3" d="M32.3,125.8c0-0.2,0.1-0.4,0.2-0.5c0.2-0.1,0.3,0.1,0.4,0.3c0,0.2-0.1,0.4-0.2,0.5
		C32.5,126.2,32.3,126.1,32.3,125.8z"/>
	<path class="st3" d="M26.8,119.3c0-0.2,0.1-0.4,0.2-0.5c0.2-0.1,0.3,0.1,0.4,0.3c0,0.2-0.1,0.4-0.2,0.5
		C27.1,119.7,26.9,119.5,26.8,119.3z"/>
	<ellipse class="st3" cx="104" cy="88.4" rx="1.4" ry="1.8"/>
	<ellipse class="st3" cx="105.5" cy="97.7" rx="1.9" ry="2.4"/>
	<ellipse class="st3" cx="113.9" cy="99.2" rx="0.7" ry="0.9"/>
	<g>
		<path class="st9" d="M107.1,28.1c0.1,0.1,0.2,0.2,0.4,0.3C107.3,28.3,107.2,28.2,107.1,28.1z"/>
		<path class="st9" d="M107.1,28.1c-5.5-4.8-22.9-18.9-29.9-12.7c0,0,6.7-11,12.2-9.6c5.5,1.4-15.6-7.8-15,7.1
			c0,0-9.7-14.5-16.3-8.6c0,0,9,4,10.6,9.7c0,0-13.3-8.5-21-4.3c0,0,10.9,2.5,16.7,8.9c0,0-18.3-7.5-24.8,0.7c0,0,18.1,0.4,24.4,3.9
			c0,0-17.5-0.1-20.5,8.9c0,0,15.7-5.7,20.1-4.3c-2.3,3.2-4.2,12.6-4.2,12.6c1.7-4.7,4.8-8.4,6.5-10.2c2.3,2.5,7,8.2,6.7,12.5
			c0,0,4.4-4.2,0.7-14.5c0,0,11.5-2.6,11,3.8c0,0,1-10.3-9.7-9.6C74.9,22.5,90.3,13.9,107.1,28.1z"/>
		<path class="st9" d="M107.4,28.4c0.5,0.4,0.9,0.8,1.4,1.2C108.8,29.6,108.3,29.2,107.4,28.4z"/>
	</g>
	<g>
		<path class="st3" d="M103.1,26c0.1,0.1,0.2,0.2,0.3,0.3C103.3,26.2,103.2,26.1,103.1,26z"/>
		<path class="st3" d="M103.1,24.8c-4.9-4.3-20.5-15.7-26.6-10.1c0,0,6.5-11,11.4-9.7c4.9,1.3-14.4-5.8-13.9,7.5
			c0,0-9-14.1-14.9-8.9c0,0,8.3,4.8,9.8,9.9c0,0-13.9-7.8-20.7-4c0,0,11.7,2.4,16.9,8.1c0,0-17.7-7.3-23.5,0c0,0,17.6,0.9,23.2,4.1
			c0,0-17.1,0-19.8,8c0,0,15.6-5.1,19.5-3.9c-2,2.9-4.7,13.8-4.7,13.8c1.5-4.2,5.3-10.1,6.8-11.7c2.1,2.3,6.5,11.1,6.2,14.9
			c0,0,4.6-4.3,0.4-16.6c0,0,11.5-2.9,11,2.8c0,0-0.3-8.6-9.9-8C74.4,21,88.2,12.2,103.1,24.8z"/>
		<path class="st3" d="M103.4,26.3c0.4,0.4,0.8,0.7,1.2,1.1C104.7,27.4,104.2,26.9,103.4,26.3z"/>
	</g>
</g>
<g id="Layer_11">
	<path d="M109.7,56.7c0,0,0.6,14.7-16.8,10.5c-16.5-4-16.8-10.5-16.8-10.5s7.5-7,16.8-7S109.7,56.7,109.7,56.7z"/>
	<path class="st10" d="M94.3,61.4l-1.4,2.4c0.5,0.1,0.9,0.1,1.4,0.1c0.7,0,1.4-0.1,2-0.3l-0.9-1.9l1.5,1.7c1.1-0.4,2-1.1,2.7-1.9
		l-0.9-0.9l1.2,0.6c0.7-1,1.2-2.3,1.2-3.6c0-1.6-0.7-3.1-1.8-4.3l-2,0.7l1.1-1.5c-1.1-0.8-2.5-1.2-4-1.2c-0.4,0-0.9,0-1.3,0.1
		l0.2,1.2l-0.8-1.1c-1.2,0.4-2.3,1-3.1,1.9l1.9,0.4c0,0-1.4,0-2.3,0c-0.8,1-1.3,2.3-1.3,3.7c0,2.6,1.7,4.9,4.2,5.8L94.3,61.4z
		 M95.2,59.1c-0.1,0.3-0.2,1-0.2,1l-0.3-1c0,0,0,0,0,0l-0.2,1l-0.1-0.9c0,0,0,0,0,0l-0.1,0.7l-0.2-0.6l-0.3,0.6l-0.2-0.7l-0.3,0.7
		l-0.2-0.8c0,0-0.1,0-0.1,0l-0.3,0.6l-0.1-0.6l-0.3,0.8l0-0.7l-0.3,0.6L91.7,59l-0.2,0.8L91.4,59l-0.3,0.5l-0.1-0.6l-0.3,0.6l-0.1-1
		c0,0,0,0,0,0L90,59.2l0-0.8L89.5,59l0.2-0.7l-0.8,0l0.4-0.4l-0.7-0.6l0.8,0.2l-0.3-0.6l0.5,0.4c0,0,0-0.1,0.1-0.1l0-0.8L90,57
		c0,0,0,0,0,0l-0.1-0.8l0.5,0.6l-0.2-0.8l0.7,0.6l-0.1-0.6l0.4,0.6c0,0,0,0,0,0l0-0.6l0.3,0.4l0-0.5l0.3,0.5l0-0.6l0.5,0.5l0-0.7
		l0.4,0.7c0,0,0,0,0,0l0.2-0.7l0.2,0.7c0,0,0,0,0,0l0.2-0.6l0.3,0.6c0,0,0,0,0.1,0l0.1-0.6l0.2,0.5c0,0,0.1,0,0.1,0l0.3-0.5l0.2,0.5
		l0.3-0.5l0.2,0.6c0,0,0,0,0.1,0l0.2-0.5l0.2,0.5l0.2-0.5l0.2,0.6c0,0,0,0,0,0l0.2-0.6l0.2,0.7c0,0,0,0,0,0l0.3-0.6l0.2,0.7
		c0,0,0,0,0.1,0l0.4-0.6l0,0.7c0,0,0,0,0,0l0.5-0.7l0,0.8l0.5-0.7l0,1l0.5-0.7l0,0.7l0,0.2l1.1,0l-1,0.4c0,0,0,0,0,0.1l1,0l-1,0.2
		c0,0,0,0,0,0l0.8,0.4L98.9,58c0,0,0,0,0,0l0.5,0.7l-0.6-0.4l0.1,0.7l-0.3-0.5l0,1L98,58.6l0,0.6l-0.4-0.5c0,0-0.1,0-0.1,0l0.1,0.7
		l-0.3-0.6c0,0,0,0,0,0l-0.1,0.9l-0.3-0.8c0,0,0,0,0,0l-0.2,0.8c0,0-0.5-0.7-0.5-0.6c0,0.1,0,0.7,0,0.7l-0.3-0.7c0,0,0,0,0,0
		l-0.1,0.7l-0.1-0.7c0,0,0,0,0,0l-0.1,1C95.5,60.1,95.3,59.4,95.2,59.1C95.2,59.1,95.2,59.1,95.2,59.1z"/>
	<path class="st11" d="M109.7,56.7c0,0-4.4,18.1-33.6,0c0,0,2.5,20.8,18.2,20.2C94.4,76.9,112.5,76.3,109.7,56.7z"/>
	<path class="st4" d="M109.7,56.7c0,0-4.4,18.1-33.6,0c0,0,0.9,9.2,21.1,11.3c0.2,0,0.4,0,0.6,0.1C99.5,68.2,109.7,69.1,109.7,56.7z
		"/>
	<path class="st4" d="M76.1,56.7c0,0,15.7-18.3,33.6,0C109.7,56.7,93.4,45.2,76.1,56.7z"/>
	<path class="st12" d="M110.4,41.1l0.7-1.1l-0.7,0.4l0.3-0.6l-0.7,0.4l0,0l0.7-1.1l-1.5,1l-0.3,0.1l0.5-0.7l-1.8,1.2l0.4-0.6
		l-1.7,1.1l0.3-0.5l-1.6,1.1l0.3-0.5l-1.4,0.9l-0.1,0l0.3-0.4l-1.2,0.8l0,0l0.3-0.5l-1.5,1l-0.3,0.1l0.3-0.5l-1.5,1l-0.1,0.1
		l0.3-0.5l-1.4,0.9l-0.3,0.1l0.2-0.4l-1.1,0.7l-0.4,0.1l0.2-0.4L96.4,45l-0.4,0.2l0.3-0.4l-1.2,0.8l0.3-0.5l-1.5,1l0.3-0.5l-1.4,0.9
		l-0.1,0.1l0.3-0.5l-1.3,0.8l-0.2,0.1l0.2-0.4l-1,0.6l0.3-0.4l-1.1,0.7l0.2-0.2L89,47.7l0,0l0.3-0.4l-1.2,0.8l-0.1,0l0.2-0.4
		l-0.6,0.4l0.3-0.5l-1.5,1l0-0.3l-0.2,0.5L86,48.9l-0.1,0l0-0.6L85.7,49c0,0,0,0,0,0l0-0.5l-0.3,0.7c0,0-0.1,0-0.1,0.1l0-0.5
		l-0.4,0.8c0,0,0,0,0,0l0-0.3l-0.3,0.6c-0.1,0.1-0.1,0.2-0.2,0.2l-8.4,6.7l6.4-2.2c0.8-0.3,1.5-0.7,2.3-1.1c0.8-0.5,1.7-0.9,2.6-1.1
		l1.5,0.3l-0.6-0.5l0.4-0.1l1.4,0.3l-0.6-0.5l0,0l1.3,0.3l-0.5-0.4l0.2,0l1.2,0.3l-0.5-0.4l0.4-0.1l1.1,0.2l-0.4-0.4l0,0l1.1,0.2
		l-0.4-0.4l1,0.2l-0.4-0.3l0.4-0.1l0.9,0.2l-0.4-0.3l0.3-0.1l1.1,0.2l-0.5-0.4l0.1,0l1.1,0.2l-0.4-0.4l0.1,0l1,0.2l-0.4-0.3l0.2,0
		l1.1,0.2L97.7,50l0.2,0l1.3,0.3l-0.5-0.4l0.1,0l1.2,0.2l-0.4-0.4l1.5,0.3l-0.3-0.3l0.6,0.1l-0.4-0.4l1.5,0.3l-0.4-0.3l0.6,0.1
		l-0.6-0.5l0.1,0l1.3,0.3l-0.5-0.4l1.7,0.4l-0.7-0.6l0,0l1.6,0.3l-0.6-0.5l0.1,0l1.3,0.3l-0.5-0.4l1.2,0.2l-0.5-0.4l0.2,0l1.1,0.2
		l-0.5-0.4l0.1,0l1.3,0.3l-0.3-0.3L109,48l-0.3-0.3l0.6,0.1l-0.2-0.2l0.6,0.1l-0.4-0.3l0,0l0.9,0.2l-0.4-0.3l0,0l1-1.7l-0.7,0.4
		l0.8-1.4l-1,0.7l1-1.7l-0.7,0.5l0.9-1.5l-0.8,0.5l0.7-1.1l-1.1,0.7l1-1.6l-0.6,0.4l0.5-0.8L110.4,41.1z"/>
	<path d="M33.3,55.4c0,0-0.6,14.7,16.9,10.5C66.7,62,67,55.4,67,55.4s-7.6-7-16.9-7S33.3,55.4,33.3,55.4z"/>
	<path class="st10" d="M51.3,62.1c2.5-0.9,4.2-3.2,4.2-5.8c0-1.4-0.5-2.7-1.3-3.7c-0.9,0-2.3,0-2.3,0l2-0.4
		c-0.8-0.9-1.9-1.6-3.1-1.9l-0.8,1.1l0.2-1.2C49.7,50,49.2,50,48.8,50c-1.5,0-2.9,0.5-4,1.2l1.1,1.5l-2-0.7
		c-1.1,1.1-1.8,2.6-1.8,4.3c0,1.3,0.4,2.6,1.2,3.6l1.2-0.6l-0.9,0.9c0.7,0.8,1.6,1.5,2.7,1.9l1.5-1.7l-0.9,1.9
		c0.6,0.2,1.3,0.3,2,0.3c0.5,0,1,0,1.4-0.1l-1.4-2.4L51.3,62.1z M47.8,57.8c-0.1,0.3-0.3,1-0.3,1l-0.1-1c0,0,0,0,0,0l-0.1,0.7
		l-0.1-0.7c0,0,0,0,0,0l-0.3,0.7c0,0-0.1-0.6,0-0.7c0-0.1-0.5,0.6-0.5,0.6l-0.2-0.8c0,0,0,0,0,0l-0.3,0.8l-0.1-0.9c0,0,0,0,0,0
		l-0.3,0.6l0.1-0.7c0,0-0.1,0-0.1,0L45,57.9l0-0.6l-0.5,0.8l0-1l-0.3,0.5l0.1-0.7l-0.6,0.4l0.5-0.7c0,0,0,0,0,0l-0.9,0.3l0.8-0.4
		c0,0,0,0,0,0l-1-0.2l1,0c0,0,0,0,0-0.1l-1-0.4l1.1,0l0-0.2l0-0.7l0.5,0.7l0-1l0.5,0.7l0-0.8l0.5,0.7c0,0,0,0,0,0l0-0.7L46,55
		c0,0,0,0,0.1,0l0.2-0.7l0.3,0.6c0,0,0,0,0,0l0.2-0.7l0.2,0.6c0,0,0,0,0,0l0.2-0.6l0.2,0.5l0.2-0.5l0.2,0.5c0,0,0,0,0.1,0l0.2-0.6
		l0.3,0.5l0.2-0.5l0.3,0.5c0,0,0.1,0,0.1,0l0.2-0.5l0.1,0.6c0,0,0,0,0.1,0l0.3-0.6l0.2,0.6c0,0,0,0,0,0l0.2-0.7l0.2,0.7c0,0,0,0,0,0
		l0.4-0.7l0,0.7l0.5-0.5l0,0.6l0.3-0.5l0,0.5l0.3-0.4l0,0.6c0,0,0,0,0,0l0.4-0.6l-0.1,0.6l0.7-0.6l-0.2,0.8l0.5-0.6L53,55.6
		c0,0,0,0,0,0l0.3-0.5l0,0.8c0,0,0.1,0.1,0.1,0.1l0.5-0.4l-0.3,0.6l0.8-0.2l-0.7,0.6l0.4,0.4l-0.8,0l0.2,0.7L53,57l0,0.8l-0.5-0.6
		c0,0,0,0,0,0l-0.1,1l-0.3-0.6L52,58.2l-0.3-0.5l-0.1,0.7l-0.2-0.8l-0.1,0.7L51,57.8l0,0.7l-0.3-0.8l-0.1,0.6l-0.3-0.6
		c0,0-0.1,0-0.1,0l-0.2,0.8l-0.3-0.7l-0.2,0.7l-0.3-0.6l-0.2,0.6l-0.1-0.7c0,0,0,0,0,0l-0.1,0.9l-0.2-1c0,0,0,0,0,0l-0.3,1
		C48,58.8,47.9,58.1,47.8,57.8C47.8,57.8,47.8,57.8,47.8,57.8z"/>
	<path class="st11" d="M33.3,55.4c0,0,4.4,18.1,33.7,0c0,0-2.5,20.8-18.2,20.2C48.6,75.5,30.4,74.9,33.3,55.4z"/>
	<path class="st4" d="M33.3,55.4c0,0,4.4,18.1,33.7,0c0,0-0.9,9.2-21.1,11.3c-0.2,0-0.4,0-0.6,0.1C43.5,66.9,33.3,67.7,33.3,55.4z"
		/>
	<path class="st4" d="M67,55.4c0,0-15.8-18.3-33.7,0C33.3,55.4,49.6,43.8,67,55.4z"/>
	<path class="st12" d="M32.5,39.7l-0.7-1.1l0.7,0.4l-0.3-0.6l0.7,0.4l0,0l-0.7-1.1l1.5,1l0.3,0.1l-0.5-0.7l1.8,1.2l-0.4-0.6l1.7,1.1
		l-0.3-0.5l1.6,1.1L37.8,40l1.4,0.9l0.1,0l-0.3-0.4l1.2,0.8l0,0l-0.3-0.5l1.5,1l0.3,0.1l-0.3-0.5l1.6,1l0.1,0.1l-0.3-0.5l1.4,0.9
		l0.3,0.1l-0.2-0.4l1.1,0.7l0.4,0.1l-0.2-0.4l1.1,0.7l0.4,0.2l-0.3-0.4l1.2,0.8l-0.3-0.5l1.5,1l-0.3-0.5l1.4,0.9l0.1,0.1l-0.3-0.5
		l1.3,0.8l0.2,0.1l-0.2-0.4l1,0.6l-0.3-0.4l1.1,0.7l-0.2-0.2l0.9,0.6l0,0L53.8,46l1.2,0.8l0.1,0l-0.3-0.4l0.6,0.4l-0.3-0.5l1.5,1
		l0-0.3l0.2,0.5l0.1,0.1l0.1,0l0-0.6l0.3,0.7c0,0,0,0,0,0l0-0.5l0.3,0.7c0,0,0.1,0,0.1,0.1l0-0.5l0.4,0.8c0,0,0,0,0,0l0-0.3l0.3,0.6
		c0.1,0.1,0.1,0.2,0.2,0.2l8.4,6.7l-6.4-2.2c-0.8-0.3-1.5-0.7-2.3-1.1c-0.8-0.5-1.7-0.9-2.6-1.1l-1.5,0.3l0.6-0.5l-0.4-0.1L53,51
		l0.6-0.5l0,0l-1.3,0.3l0.5-0.4l-0.2,0l-1.2,0.3l0.5-0.4L51.5,50l-1.1,0.2l0.5-0.4l0,0l-1.1,0.2l0.4-0.4l-1,0.2l0.4-0.3l-0.4-0.1
		l-0.9,0.2l0.4-0.3l-0.3-0.1l-1.1,0.2l0.5-0.4l-0.1,0l-1.1,0.2l0.4-0.4l-0.1,0l-1,0.2l0.4-0.3l-0.2,0l-1.2,0.2l0.5-0.4l-0.2,0
		l-1.3,0.3l0.5-0.4l-0.1,0l-1.2,0.2l0.4-0.4l-1.5,0.3l0.3-0.3l-0.6,0.1l0.5-0.4l-1.5,0.3l0.4-0.3l-0.6,0.1l0.6-0.5l-0.1,0L39.7,48
		l0.5-0.4l-1.7,0.4l0.7-0.6l0,0l-1.6,0.3l0.6-0.5l-0.1,0l-1.3,0.3l0.5-0.4l-1.2,0.2l0.5-0.4l-0.2,0L35.2,47l0.5-0.4l-0.1,0l-1.3,0.3
		l0.3-0.3l-0.7,0.1l0.3-0.3l-0.6,0.1l0.2-0.2l-0.6,0.1l0.4-0.3l0,0l-0.9,0.2l0.4-0.3l0,0l-1-1.7l0.7,0.4l-0.9-1.4l1,0.7l-1-1.7
		l0.7,0.5l-0.9-1.5l0.8,0.5l-0.7-1.1l1.1,0.7l-1-1.6l0.6,0.4L32,39.4L32.5,39.7z"/>
</g>
<g id="Layer_15">
	<path class="st5" d="M144.3,70.9"/>
	<path class="st5" d="M2.5,81.6"/>
	<path class="st3" d="M133.4,57.4"/>
</g>
<g id="Layer_13">
	<g>
		<g>
			<path class="st3" d="M77.5,73.1c0,0,0.6,0.3,1.5,0.9c1,0.6,2.3,1.5,3.8,2.7c0.8,0.6,1.6,1.3,2.4,2.1c0.8,0.8,1.7,1.6,2.4,2.6
				c0.8,1,1.6,2,2.2,3.2c0.6,1.2,1.2,2.4,1.4,3.9c0.2,1.4-0.1,3-0.8,4.3c-0.3,0.7-0.9,1.2-1.3,1.7c-0.3,0.2-0.5,0.4-0.8,0.6
				c-0.3,0.2-0.5,0.4-0.8,0.5c-0.6,0.3-1.1,0.6-1.7,0.8c-0.6,0.2-1.1,0.5-1.7,0.6c-0.5,0.2-1.1,0.3-1.6,0.4c-0.5,0.1-1,0.2-1.5,0.3
				c-1,0.2-1.9,0.2-2.6,0.3c-0.8,0.1-1.5,0.1-2,0.1c-1.1,0-1.8,0-1.8,0s0.6-0.2,1.7-0.4c0.5-0.1,1.2-0.3,2-0.5
				c0.7-0.2,1.6-0.4,2.5-0.7c0.4-0.1,0.9-0.3,1.4-0.4c0.5-0.2,1-0.4,1.5-0.6c0.5-0.2,1-0.4,1.5-0.7c0.5-0.2,1-0.5,1.4-0.8
				c0.2-0.1,0.5-0.3,0.7-0.5l0.6-0.5c0.3-0.4,0.7-0.8,0.9-1.3c0.5-0.9,0.7-2,0.5-3.1c-0.1-1.1-0.6-2.2-1.1-3.3c-0.5-1-1.2-2.1-1.9-3
				c-1.4-1.9-2.9-3.5-4.2-4.9c-1.3-1.4-2.5-2.5-3.3-3.3C77.9,73.6,77.5,73.1,77.5,73.1z"/>
		</g>
		<path class="st3" d="M76.4,95.2c15.4,0.4,0-13.8,0-13.8V95.2z"/>
		<g>
			<path class="st3" d="M66.6,73.1c0,0-0.5,0.4-1.4,1.1c-0.9,0.7-2.2,1.7-3.7,2.9c-1.5,1.2-3.2,2.7-4.8,4.4
				c-0.8,0.9-1.6,1.8-2.2,2.8c-0.6,1-1.2,2.1-1.3,3.2c-0.2,1.1,0,2.2,0.5,3.1c0.6,0.9,1.3,1.8,2.3,2.4c0.2,0.2,0.4,0.3,0.7,0.5
				c0.2,0.1,0.5,0.3,0.7,0.4c0.2,0.1,0.5,0.3,0.7,0.4c0.2,0.1,0.5,0.2,0.7,0.4c1,0.5,1.9,0.9,2.8,1.2c0.9,0.4,1.7,0.6,2.5,0.9
				c0.7,0.3,1.4,0.5,1.9,0.7c1.1,0.4,1.7,0.6,1.7,0.6s-0.6-0.1-1.8-0.2c-0.6-0.1-1.3-0.1-2-0.3c-0.8-0.2-1.7-0.3-2.6-0.6
				c-0.5-0.1-1-0.3-1.5-0.4c-0.5-0.1-1-0.4-1.6-0.6c-0.3-0.1-0.5-0.2-0.8-0.3c-0.3-0.1-0.5-0.3-0.8-0.4c-0.3-0.1-0.6-0.3-0.8-0.4
				c-0.3-0.2-0.5-0.3-0.8-0.5c-1.1-0.7-2.2-1.6-2.9-2.9c-0.8-1.2-1.1-2.9-0.8-4.4c0.3-1.5,0.9-2.8,1.7-3.9c0.7-1.2,1.7-2.1,2.6-3
				c0.9-0.9,1.8-1.6,2.7-2.3c0.9-0.7,1.8-1.3,2.6-1.8c1.7-1.1,3.1-1.8,4.1-2.3C66,73.4,66.6,73.1,66.6,73.1z"/>
		</g>
		<path class="st3" d="M65.9,95.2c-15.4,0.4,0-13.8,0-13.8V95.2z"/>
		<g>
			<path class="st3" d="M58,90.1c0,0-0.1-1,0-2.3c0.1-1.4,0.6-3.2,1.3-4.9c0.7-1.7,1.8-3.3,3.1-4.2c0.3-0.2,0.6-0.4,0.9-0.5
				c0.3-0.1,0.6-0.2,0.8-0.2c0.4,0,0.7,0.1,0.7,0.1c0,0-0.2,0.1-0.6,0.3c-0.2,0.1-0.3,0.2-0.5,0.4c-0.2,0.2-0.3,0.4-0.5,0.7
				c-0.7,1-1.4,2.6-2.1,4.2c-0.7,1.6-1.4,3.2-2,4.4C58.5,89.3,58,90.1,58,90.1z"/>
		</g>
		<g>
			<path class="st3" d="M84.3,90.1c0,0-0.5-0.8-1.1-2c-0.6-1.2-1.3-2.8-2-4.4c-0.7-1.6-1.4-3.1-2.1-4.2c-0.2-0.3-0.3-0.5-0.5-0.7
				c-0.2-0.2-0.3-0.3-0.5-0.4c-0.3-0.2-0.6-0.3-0.6-0.3c0,0,0.2-0.1,0.7-0.1c0.2,0,0.5,0,0.8,0.2c0.3,0.1,0.6,0.3,0.9,0.5
				c1.3,0.9,2.4,2.5,3.1,4.2c0.7,1.7,1.2,3.5,1.3,4.9C84.4,89.2,84.3,90.1,84.3,90.1z"/>
		</g>
		<g>
			<path class="st3" d="M77.5,73.1c0,0-0.1-0.3-0.2-0.9c-0.1-0.5-0.2-1.3-0.4-2.3c-0.3-1.9-0.6-4.4-0.8-6.9c-0.2-2.5-0.3-5-0.4-6.9
				c0-0.9,0-1.7,0-2.3c0-0.6,0-0.9,0-0.9s0.1,0.3,0.2,0.9c0.1,0.5,0.2,1.3,0.4,2.3c0.3,1.9,0.6,4.4,0.8,6.9c0.2,2.5,0.3,5,0.4,6.9
				c0,0.9,0,1.7,0,2.3C77.5,72.8,77.5,73.1,77.5,73.1z"/>
		</g>
		<g>
			<path class="st3" d="M66.6,73.1c0,0,0-0.3-0.1-0.9c0-0.6-0.1-1.3-0.1-2.3c0-1.9,0-4.4,0.1-6.9c0.1-2.5,0.3-5,0.5-6.9
				c0.1-0.9,0.2-1.7,0.3-2.3c0.1-0.5,0.1-0.9,0.1-0.9s0,0.3,0.1,0.9c0,0.6,0.1,1.3,0.1,2.3c0,1.9,0,4.4-0.1,6.9
				c-0.1,2.5-0.3,5-0.5,6.9c-0.1,0.9-0.2,1.7-0.3,2.3C66.6,72.8,66.6,73.1,66.6,73.1z"/>
		</g>
	</g>
	<path class="st8" d="M56.7,118.3c0,0,5.4-2.8,14.9-2.2c4.9,0.3,16.8-11.3,17.3,4.5c0.4,12.7-20.3,8.3-33.4,7
		c-2.9-0.3-1.7-1.3-2.9-2.9C51.3,122.8,51.4,120.4,56.7,118.3z"/>
</g>
<g id="Layer_16">
</g>
<g id="Layer_23">
</g>
<g id="Layer_17">
	<polygon class="st12" points="41.1,114.4 43.4,114 42.3,114.7 45.5,113.9 44.3,114.7 47.8,113.9 47,114.4 50.1,113.7 48.9,114.4 
		51.8,113.7 50.7,114.4 52.5,114 52.1,114.7 53.9,113.9 53.5,114.9 55.1,113.8 54.7,115 56.7,113.7 56.3,114.9 58.5,113.4 58,114.7 
		60.1,113.3 59.6,114.7 62.5,112.8 61.8,114.7 64.4,113 63.8,114.9 68.3,111.4 68.9,114.1 70.8,110 70.9,110 70.9,98.1 	"/>
	<polygon class="st12" points="102.8,114.4 100.5,114 101.6,114.7 98.3,113.9 99.5,114.7 96.1,113.9 96.9,114.4 93.8,113.7 
		95,114.4 92.1,113.7 93.2,114.4 91.4,114 91.8,114.7 90,113.9 90.4,114.9 88.7,113.8 89.2,115 87.2,113.7 87.6,114.9 85.4,113.4 
		85.9,114.7 83.7,113.3 84.2,114.7 81.4,112.8 82.1,114.7 79.5,113 80.1,114.9 75.6,111.4 75,114.1 73,110 73,110 73,98.1 	"/>
</g>
</svg>
