<?xml version="1.0" encoding="utf-8"?>
<!-- Generator: Adobe Illustrator 19.1.0, SVG Export Plug-In . SVG Version: 6.00 Build 0)  -->
<svg version="1.1" xmlns="http://www.w3.org/2000/svg" xmlns:xlink="http://www.w3.org/1999/xlink" x="0px" y="0px"
	 viewBox="0 0 145.1 171" style="enable-background:new 0 0 145.1 171;" xml:space="preserve">
<style type="text/css">
	.st0{fill:#561F1F;}
	.st1{fill:#471111;}
	.st2{fill:#9E352A;}
	.st3{fill:#280E0E;}
	.st4{fill:#E2E09A;}
	.st5{fill:#F9F4AA;}
	.st6{fill:#5E1511;}
	.st7{fill:#010101;}
	.st8{fill:#F4EC4C;stroke:#010101;stroke-miterlimit:10;}
	.st9{fill:#3F1312;}
	.st10{fill:#351C23;stroke:#351C23;stroke-miterlimit:10;}
	.st11{fill:#220E0E;}
	.st12{fill:#2A0F0F;}
	.st13{fill:#351C23;}
	.st14{fill:#561818;}
	.st15{fill:#994746;}
	.st16{fill:#F6CBCB;}
</style>
<g id="head">
</g>
<g id="sideburn2">
</g>
<g id="Layer_2">
</g>
<g id="Layer_3">
</g>
<g id="Layer_5">
</g>
<g id="ear">
	<path class="st0" d="M0-135.3"/>
</g>
<g id="teeth">
</g>
<g id="Layer_8">
</g>
<g id="Layer_9">
</g>
<g id="hair">
</g>
<g id="Layer_10">
</g>
<g id="eye2">
</g>
<g id="jaaw">
</g>
<g id="outline">
</g>
<g id="nose">
</g>
<g id="eye1">
</g>
<g id="wrinkles">
</g>
<g id="Layer_4">
</g>
<g id="Layer_7">
</g>
<g id="hair_1_">
</g>
<g id="scars">
	<path class="st1" d="M16.2,67.5c-0.6,0.7-1,1.1-1,1.1l1.5-2.4l0.6-1.5c-0.9,1-1.6,1.8-1.6,1.8l2.3-3.7l0.4-1.2l0.2-0.5
		c-1.2,1.6-2.5,3-2.5,3l3.1-5c-1,1.3-2,2.3-2,2.3l3-4.8l0.1-0.4c-1.3,1.8-3.1,3.8-3.1,3.8l4.1-6.6l0-0.1c-1.3,1.8-3,3.5-3,3.5
		l3.5-5.6c-1.2,1.5-2.4,2.8-2.4,2.8l2.1-3.5c-1,1.2-1.8,2.1-1.8,2.1l4-6.4l0.3-1l0.3,0.2c0.5-0.7,1-1.3,1-1.3l-0.3,0.8
		c0.4-0.4,0.6-0.8,0.6-0.8l-0.5,1.4c0.5-0.6,0.9-1.1,0.9-1.1L25.6,46c0.5-0.7,1-1.2,1-1.2l-0.6,1.7l0.1,0.1c0.5-0.8,1.1-1.4,1.1-1.4
		l-0.6,1.7c0.5-0.8,1.1-1.4,1.1-1.4l-0.6,1.8l0,0c0.5-0.7,1-1.2,1-1.2l-0.5,1.5l0.1,0c0.5-0.7,1-1.2,1-1.2L28.3,48l0.2,0.1
		c0.5-0.6,0.9-1.1,0.9-1.1l-0.5,1.4l0.1,0c0.5-0.6,0.9-1.1,0.9-1.1l-0.5,1.4l0.2,0.1c0.5-0.7,1-1.2,1-1.2L30,49.3l0.2,0.1
		c0.5-0.7,1-1.3,1-1.3l-0.5,1.6l0.1,0.1c0.5-0.7,1.1-1.3,1.1-1.3l-0.6,1.6l0.2,0.2c0.5-0.7,1-1.2,1-1.2l-0.5,1.6l0.2,0.1
		c0.5-0.6,0.9-1.1,0.9-1.1l-0.5,1.4l0.2,0.1c0.5-0.7,1-1.2,1-1.2l-0.5,1.6l0.3,0.2c0.5-0.8,1.1-1.4,1.1-1.4l-0.6,1.8l0,0
		c0.5-0.8,1.1-1.4,1.1-1.4l-0.6,1.7l0,0c0.5-0.8,1.2-1.5,1.2-1.5L35.3,53c0.5-0.6,0.9-1.1,0.9-1.1L36,52.7c0.3-0.4,0.6-0.7,0.6-0.7
		l-0.5,1.6l0.2,0.2c0.5-0.6,0.9-1.1,0.9-1.1L36.8,54l0.2,0.1c0.4-0.4,0.7-0.8,0.7-0.8l-0.3,1l0.1,0.1c0.4-0.6,0.9-1,0.9-1l-0.4,1.3
		l0.1,0c0.5-0.8,1.1-1.4,1.1-1.4l-0.6,1.7l0.1,0.1c0.5-0.7,1-1.2,1-1.2L39,55.3c0.4-0.6,0.8-1,0.8-1l-0.5,1.5l0,0
		c0.5-0.7,1-1.3,1-1.3L40,56.1c0.5-0.6,0.9-1.1,0.9-1.1l-0.3,1c0.3-0.4,0.6-0.7,0.6-0.7l-0.4,1.3l0.1,0c0.5-0.8,1.1-1.4,1.1-1.4
		l-0.3,1c0.3-0.4,0.6-0.6,0.6-0.6l-0.1,0.4C42,56.1,42,56,42,56l-0.5,1.4l0.2,0.2l0.1,0.2c0.5-0.3,0.9-0.5,0.9-0.5l-0.6,0.8
		c0.4-0.2,0.6-0.3,0.6-0.3l-0.5,0.6l0.1,0.2c0.4-0.2,0.8-0.4,0.8-0.4L42.7,59l0.2,0.4c0.4-0.2,0.7-0.4,0.7-0.4l-0.5,0.7l0.3,0.5
		c0.4-0.2,0.8-0.4,0.8-0.4l-0.6,0.7l0.2,0.3c0.5-0.3,0.8-0.4,0.8-0.4L44.1,61c0.6-0.4,1.2-0.6,1.2-0.6l-0.9,1.2l0.1,0.2
		c0.5-0.3,0.9-0.5,0.9-0.5l-0.6,0.8c0.4-0.2,0.8-0.4,0.8-0.4l-0.6,0.7c0.6-0.3,1-0.5,1-0.5l-0.6,0.7c0.3-0.2,0.6-0.3,0.6-0.3
		l-0.2,0.3c0.4-0.2,0.6-0.3,0.6-0.3l-0.7,0.9c0.4-0.2,0.7-0.3,0.7-0.3l-0.6,0.8l0.1,0.2c0.6-0.3,1.1-0.6,1.1-0.6L46.5,64
		c0.3-0.2,0.6-0.3,0.6-0.3l-0.4,0.5c0.4-0.2,0.6-0.3,0.6-0.3l-0.1,0.1c0.2-0.1,0.2-0.1,0.2-0.1L46.7,65l0.1,0.2
		c0.6-0.4,1.1-0.6,1.1-0.6l-0.8,1l0.1,0.1c0.5-0.3,1-0.5,1-0.5l-0.5,0.6c0.5-0.3,0.8-0.4,0.8-0.4l-0.8,1l0.2,0.3
		c0.6-0.3,1.1-0.6,1.1-0.6l-0.8,1l0,0c0.4-0.2,0.8-0.4,0.8-0.4l-0.6,0.7l0.3,0.4c0.4-0.2,0.7-0.3,0.7-0.3l-0.5,0.6l0.2,0.3
		c0.5-0.3,0.8-0.4,0.8-0.4l-0.6,0.7c0.6-0.4,1.2-0.6,1.2-0.6l-0.9,1.2l0.2,0.3l0,0.1c0.5,0,0.9,0,0.9,0l-0.8,0.5l0,0.1
		c0.6-0.1,1.1,0,1.1,0l-1,0.6c0.6-0.1,1,0,1,0l-0.8,0.5c0.5,0,0.8,0,0.8,0l-1,0.6l0,0.4c0.5,0,0.9,0,0.9,0L50,72.8l0,0.1
		c0.5,0,1,0,1,0l-0.6,0.4c0.4,0,0.6,0,0.6,0l-0.9,0.5l0,0.1c0.6-0.1,1,0,1,0l-1,0.6l0,0.4c0.6-0.1,1.1-0.1,1.1-0.1l-1.1,0.6l0,0.2
		c0.4,0,0.8,0,0.8,0l-0.7,0.4l0,0.1c0.4,0,0.7,0,0.7,0l-0.7,0.4l0,0.4c0.6-0.1,1,0,1,0l-1,0.6l0,0.2c0.5,0,0.8,0,0.8,0L50.4,78
		l0,0.1c0.6-0.1,1.2-0.1,1.2-0.1l-1.1,0.7l0,0.1c0.6-0.1,1,0,1,0l-1,0.6l0,0.2c0.6-0.1,1.1,0,1.1,0l-1,0.6l0,0.1
		c0.7-0.1,1.3-0.1,1.3-0.1l-0.6,0.4c0.1,0,0.2,0,0.2,0L50.6,81l0,0.1c0.5,0,1,0,1,0l-0.9,0.5l0,0.6c0.6-0.1,1.1,0,1.1,0l-1,0.6
		l0,0.3C51.4,83,52,83,52,83l-1.2,0.7l0,0.3c0.7-0.1,1.4-0.1,1.4-0.1l-1.3,0.8l0,0.4c0.7-0.1,1.3-0.1,1.3-0.1l-1.3,0.7l0,0.3
		c0.7-0.1,1.2-0.1,1.2-0.1L51,86.7l0,0.3c0.6-0.1,1.2-0.1,1.2-0.1l-1.1,0.6l0,0.4c0.7-0.1,1.3-0.1,1.3-0.1l-1.3,0.7l0,0.3
		c0.8-0.1,1.6-0.1,1.6-0.1l-0.9,0.5c0.2,0,0.3,0,0.3,0l-1,0.6l0,0.4c0.5,0,0.9,0,0.9,0l-0.9,0.5l0,0.2c0.8-0.1,1.5-0.1,1.5-0.1
		l-1.4,0.8l0,0.1c0.6-0.1,1,0,1,0l-1,0.6l0,0.5c0.8-0.1,1.6-0.1,1.6-0.1l-1.6,0.9l0,0.1c0.8-0.1,1.6-0.1,1.6-0.1l-1.5,0.8
		c0.5,0,0.8,0,0.8,0L51.7,95c0.4,0,0.7,0,0.7,0l-0.8,0.4l0,0.2c0.4,0,0.8,0,0.8,0L52,95.8c0.3,0,0.4,0,0.4,0l-0.7,0.4l0,0.3
		c0.4,0,0.7,0,0.7,0L52,96.8c0.3,0,0.4,0,0.4,0l-0.7,0.4l0,0.2c0.4,0,0.6,0,0.6,0l-0.3,0.2c0.4,0,0.7,0,0.7,0l-0.9,0.5l0,0.2
		c0.3,0,0.6,0,0.6,0l-0.6,0.3l0,0.2c0.3,0,0.5,0,0.5,0l0,0c0.4,0,0.7,0,0.7,0l-1.2,0.7l0,0.3c0.5,0,0.9,0,0.9,0l0,0
		c0.2,0,0.3,0,0.3,0l-1.1,0.6l0,0.4c0,0,0.1,0,0.1,0c0.4-0.2,0.7-0.3,0.7-0.3l-0.2,0.3c0.3,0,0.5,0,0.5,0l-1,0.6l-0.1,0.1l0,0.4
		c0.7-0.4,1.4-0.6,1.4-0.6l-1.1,1.2l0.4,0.4c0.4-0.5,0.7-0.8,0.7-0.8L53,103l0.3,0.3c0.4-0.4,0.6-0.7,0.6-0.7l-0.2,0.6
		c0.3-0.4,0.6-0.6,0.6-0.6l-0.5,1.2l0.3,0.3c0.4-0.4,0.7-0.7,0.7-0.7l-0.4,1c0.4-0.5,0.7-0.8,0.7-0.8l-0.4,1.1l0.2,0.2
		c0.5-0.6,0.9-1,0.9-1l-0.5,1.4l0.2,0.2c0.5-0.5,0.9-0.9,0.9-0.9l-0.5,1.3l0.4,0.4c0.5-0.6,0.9-1,0.9-1L57,106
		c0.2-0.2,0.3-0.3,0.3-0.3l-0.5,1.2L57,107c0.5-0.7,1.1-1.2,1.1-1.2l-0.6,1.5c0.5-0.5,0.9-0.9,0.9-0.9l-0.6,1.4l0.5,0.5
		c0.5-0.7,1.1-1.2,1.1-1.2l-0.6,1.6l0.4,0.4c0.5-0.6,0.9-1,0.9-1l-0.5,1.3l0.2,0.2c0.5-0.5,0.9-0.9,0.9-0.9l-0.5,1.3l0,0
		c0.6-0.5,1.1-0.8,1.1-0.8l-0.7,1.2l0.2,0.2c0.5-0.4,0.8-0.6,0.8-0.6l-0.5,0.9L61,111c0.5-0.5,1-0.8,1-0.8l-0.7,1.1l0.7,0.7l0.1,0.3
		c0.4-0.1,0.8-0.2,0.8-0.2l-0.6,0.5l0.3,0.9c0.7-0.2,1.3-0.3,1.3-0.3l-1.1,0.9l0.3,0.9c0.7-0.2,1.4-0.3,1.4-0.3l-1.2,1l0.1,0.5
		c0.5-0.1,0.9-0.2,0.9-0.2l-0.8,0.6l0.1,0.4c0.7-0.2,1.4-0.3,1.4-0.3l-0.8,0.6c0.1,0,0.2,0,0.2,0l-0.6,0.5l0.1,0.3
		c0.7-0.2,1.4-0.3,1.4-0.3l-1.1,0.9c0.4-0.1,0.6-0.1,0.6-0.1l-0.6,0.5l0.2,0.7c0.2,0,0.4-0.1,0.4-0.1l-0.3,0.3l0,0.1
		c0.7-0.2,1.4-0.3,1.4-0.3l-1.1,0.9c0.5-0.1,0.9-0.2,0.9-0.2l-0.9,0.7l0.1,0.2c0.8-0.3,1.5-0.4,1.5-0.4l-0.9,0.8
		c0.2-0.1,0.4-0.1,0.4-0.1l-0.4,0.3c0.7-0.2,1.2-0.3,1.2-0.3l-1.4,1.2l0.1,0.3c0.5-0.1,0.9-0.2,0.9-0.2l-0.4,0.3
		c0.5-0.1,0.9-0.2,0.9-0.2l-1.1,0.9l0.1,0.3c0.3-0.1,0.5-0.1,0.5-0.1l-0.5,0.4l0,0.1c0.7-0.2,1.4-0.4,1.4-0.4l-0.9,0.7
		c0.2-0.1,0.4-0.1,0.4-0.1l-0.7,0.6l0.1,0.3c0.7-0.2,1.2-0.3,1.2-0.3l-0.5,0.4c0.2,0,0.3-0.1,0.3-0.1l-0.2,0.2
		c0.4-0.1,0.8-0.2,0.8-0.2l-1.3,1.1l0,0c0.4-0.1,0.7-0.2,0.7-0.2l-0.6,0.5l0.1,0.3c0.6-0.2,1.1-0.3,1.1-0.3l-0.9,0.8l0.1,0.2
		c0.8-0.3,1.5-0.4,1.5-0.4l-0.2,0.1c0.1,0,0.2,0,0.2,0l-1.2,1l0.1,0.4c0.6-0.2,1.1-0.3,1.1-0.3l-0.7,0.6c0.9-0.3,1.8-0.5,1.8-0.5
		l-1,0.8c0.6-0.2,1.2-0.3,1.2-0.3l-1.7,1.4l0.1,0.2c0.8-0.3,1.5-0.4,1.5-0.4l-1.3,1.1l0.8,2.6l-1.7-0.5c-0.3,2.3-1,4.8-1,4.8l0.3-5
		l-0.6-0.2c-0.3,2.2-0.9,4.3-0.9,4.3l0.3-4.5l0,0c-0.3,2.1-0.9,4.2-0.9,4.2l0.3-4.4l-0.1,0c-0.3,1.9-0.8,3.7-0.8,3.7l0.3-3.9
		c-0.3,1.8-0.7,3.4-0.7,3.4l0.2-3.5l0,0c-0.3,1.6-0.6,3-0.6,3l0.2-3.1l-0.1,0c-0.3,1.5-0.6,2.8-0.6,2.8l0.2-2.9l0,0
		c-0.3,1.5-0.6,2.6-0.6,2.6l0.2-2.7l-0.3-0.1l-0.1-0.1c-0.4,1.2-0.7,2.2-0.7,2.2l0.4-2.6l-0.1-0.2c-0.4,1.4-0.8,2.4-0.8,2.4l0.4-2.5
		c-0.3,1-0.6,1.7-0.6,1.7L61,131l0,0c-0.5,1.7-1,3.1-1,3.1l0.6-3.7l-0.1-0.2c-0.5,2-1.2,4-1.2,4l0.8-4.7l-0.1-0.1
		c-0.5,2.2-1.3,4.4-1.3,4.4l0.8-5c-0.5,2.2-1.4,4.7-1.4,4.7l0.9-5.3c-0.5,2.5-1.6,5.7-1.6,5.7l0.5-3l-0.8,2.3l-0.2-1.3
		c-0.3,1.6-0.6,2.8-0.6,2.8l0.2-3c-0.2,1.2-0.5,2.1-0.5,2.1l0.4-5.7l0,0c-0.3,2.3-0.9,4.8-0.9,4.8l0.3-4.1c-0.3,2.1-0.8,4.1-0.8,4.1
		l0.2-2.6c-0.3,1.9-0.7,3.5-0.7,3.5l0.2-2.6l-0.2,0.4c-0.3,1.7-0.6,3.1-0.6,3.1l0.1-2l-0.6,1.2l-0.2-1.3c-0.2,1.2-0.3,2.1-0.3,2.1
		l0-4.2l0,0c-0.2,2-0.5,3.8-0.5,3.8l0-3.6c-0.2,1.3-0.3,2.2-0.3,2.2l0-5.5l0,0.1c0,2.6-0.6,6.4-0.6,6.4l0-4.2l-0.3,1.1
		c-0.2,2.1-0.5,4-0.5,4l0-2.3l-0.7,2.3l-1-4.7c0,1.2,0,2.1,0,2.1l-0.8-6.3l-0.1-0.3l0,0l0,0l-0.1-0.1c0.1,2.1,0,4.2,0,4.2l-0.5-4.1
		c0,1.4,0,2.4,0,2.4l-0.5-4.1c0,1.6,0,2.9,0,2.9l-0.6-4.5l-0.3-0.5c0,1.7,0,3.2,0,3.2l-0.6-4.3l-0.2-0.4c0,1.8,0,3.4,0,3.4l-0.5-4.1
		c0,1.6,0,2.9,0,2.9l-0.5-4.1c0,1.7,0,3.3,0,3.3l-0.6-4.6l-0.2-0.4c0.1,2.1,0,4.1,0,4.1l-0.7-5.4l-0.1-0.2c-0.2,2.2-0.7,4.5-0.7,4.5
		l0.1-5.6l-0.1-0.2c-0.2,2.4-0.8,5.2-0.8,5.2l0.1-3.6l-0.1,0.4c-0.3,2-0.6,3.9-0.6,3.9l0-1.8c-0.2,1.5-0.5,2.7-0.5,2.7l0-1.7
		l-0.6,1.9l0.1-4c-0.2,1.4-0.4,2.4-0.4,2.4l0.1-4.6c-0.4,2-0.9,3.8-0.9,3.8l0.4-3.9c-0.4,2.2-1.1,4.6-1.1,4.6l0.3-3.3
		c-0.4,1.9-0.9,3.6-0.9,3.6l0.3-2.7l-0.4,0.7c-0.3,1.2-0.5,2.1-0.5,2.1L36,118l-0.3,0.5c-0.1,0.8-0.2,1.3-0.2,1.3l0-1l-0.2,0.4
		l-0.1-1.4c-0.1,0.7-0.2,1.2-0.2,1.2l0-2.3c-0.1,0.7-0.2,1.1-0.2,1.1l0.1-3.2l0-0.2c-0.2,1.4-0.4,2.6-0.4,2.6l0.1-4.1
		c-0.2,1-0.3,1.8-0.3,1.8l0-1.8c-0.2,1.1-0.4,1.9-0.4,1.9l0.2-3c-0.4,2-0.8,3.9-0.8,3.9l0.2-3l0,0.1c-0.4,1.9-0.8,3.7-0.8,3.7
		l0.2-2.4l-0.1,0.2c-0.3,1.7-0.7,3.1-0.7,3.1l0.2-2l-0.9,1.8l-0.1-1.8c-0.3,0.9-0.6,1.4-0.6,1.4l0.5-2.5l0-0.3
		c-0.4,1.2-0.8,2.2-0.8,2.2l0.8-3.6l0-0.6c-0.5,1.4-0.9,2.5-0.9,2.5l0.9-4.1l0-0.1c-0.5,1.3-0.9,2.3-0.9,2.3l0.8-3.9l0-0.2l0-0.6
		c-0.5,1.6-1.1,2.9-1.1,2.9l0.9-4.1c-0.5,1.3-0.9,2.3-0.9,2.3l1-4.7c-0.6,1.7-1.2,3.2-1.2,3.2l1-4.5c-0.5,1.4-1,2.6-1,2.6l1-4.5
		c-0.4,1.2-0.8,2-0.8,2l1.1-5.1l0-0.1c-0.6,1.9-1.3,3.5-1.3,3.5l1-4.6l-0.2,0.2c-0.6,1.7-1.2,3.2-1.2,3.2l0.6-2.6L29.4,98
		c-1.1,1.7-2.3,3.2-2.3,3.2l1-2l-1.9,1.9l1.3-4.1c-1,1.5-2,2.8-2,2.8l2.7-5.3c-1.3,1.9-3.3,3.9-3.3,3.9l2.7-4.2l-3.8,4.2l0.4-1.6
		c-0.4,0.6-0.7,0.9-0.7,0.9l0.9-1.9l0.6-2.4c-1,1.8-2.2,3.4-2.2,3.4l2.5-5.5c-1.1,1.9-2.6,3.9-2.6,3.9l1.7-3.4l-3,3.9l0.7-3.4
		c-0.5,0.7-0.8,1.1-0.8,1.1l1-2l0.5-2.5c-0.6,0.8-1,1.3-1,1.3l1.2-2.4l0.3-1.5c-0.4,0.6-0.7,1-0.7,1l0.9-1.8l0.2-1.2
		c-0.8,1.2-1.4,2.1-1.4,2.1l1.8-3.8l0.2-0.9c-0.8,1.1-1.5,1.9-1.5,1.9l1.7-3.3l0.2-1.1c-0.9,1.2-1.6,2.2-1.6,2.2l1.9-3.7l0.3-1.5
		c-1.3,1.4-2.6,2.7-2.6,2.7l2.9-4.2l0-0.1c-1.2,1.4-2.5,2.6-2.5,2.6l2.7-3.9l0.1-0.6c-1.2,1.4-2.5,2.6-2.5,2.6l2.3-3.4
		c-1.7,1.5-4,3.1-4,3.1l3-3l-4.3,3.3l2-3.8c-1.1,1.2-2.2,2.2-2.2,2.2l3.7-5.4l-0.7,0.5c-1.4,1.8-4.6,4.2-4.6,4.2l1.7-2l-2.9,2.3
		l2.5-5.6c-1.2,1.5-2.3,2.7-2.3,2.7l3.2-5.2l-1.7,1.4c-1.3,1.7-2.7,3.2-2.7,3.2l1.2-2l-2.8,2.3L16.2,67.5z"/>
	<path d="M48.5,92c0,0,2.9,20.4-9.4,31.5c-0.6,0.5,2.6,1.6,2.6,1.6l6.3,3.6l-5.6-1.6l-5.7,12.2l29.6,1.1l43.4-69.4
		c0,0,15.7-15.8,15.6-22.7c-0.5-36.2-0.6-39-0.6-39s-12.2,1.9-21,18.7c-0.7,1.3-5.8-1-5.8-1l-15.8-2.8l-19.2,4.8l-15.1-4.1
		c0,0-8.7,6.2-11.1,5.1c-14.1-6.4-17.4-12.6-17.4-12.6s-2.1,19.3,0.5,27.1c2,6.1,10.9,23,10.9,23"/>
	<polygon class="st2" points="44.1,136.3 66.3,140.3 106.7,108.5 122.6,15.6 107.3,31.5 101.8,29.5 82.6,25.8 63.4,30.7 48.5,26.5 
		32.2,33.2 19.8,20.7 23.3,41.1 29.3,63.4 29.5,68 60.8,55.3 74.2,102.4 63.9,123.7 	"/>
	<path class="st2" d="M20.2,100.1"/>
	<path class="st3" d="M59.6,126l-2.1,2.5l-1-3.3l-2.5,3.4l-1.5-6.1l-2.4,5.2l-8.5-17.5l-1.9,2.8l-1.8-3.2l-1.3,4.5l-1-5.6l-2.8,2.4
		l-0.7-16L29.1,96v-3.7h-2.2v-2.9l-3,1.3l3.7-21l-3.7,1.4l2.2-4l0.6-1.6l-5.2,3.6l1.6-6.1l-4.6,2.8l6.5-21.4
		c-0.2,0.2-0.5,0.6-0.7,0.9L24,45l-0.3,1l-4,6.4c0,0,0.8-0.9,1.8-2.1l-2.1,3.5c0,0,1.2-1.3,2.4-2.8l-3.5,5.6c0,0,1.7-1.8,3-3.5
		l0,0.1l-4.1,6.6c0,0,1.8-1.9,3.1-3.8l-0.1,0.4l-3,4.8c0,0,1-1,2-2.3l-3.1,5c0,0,1.3-1.4,2.5-3l-0.2,0.5l-0.4,1.2l-2.3,3.7
		c0,0,0.7-0.8,1.6-1.8l-0.6,1.5l-1.5,2.4c0,0,0.4-0.5,1-1.1l-1,2.8l2.8-2.3l-1.2,2c0,0,1.5-1.6,2.7-3.2l1.7-1.4l-3.2,5.2
		c0,0,1.2-1.3,2.3-2.7l-2.5,5.6l2.9-2.3l-1.7,2c0,0,3.1-2.4,4.6-4.2l0.7-0.5l-3.7,5.4c0,0,1.1-1,2.2-2.2l-2,3.8l4.3-3.3l-3,3
		c0,0,2.4-1.6,4-3.1l-2.3,3.4c0,0,1.3-1.2,2.5-2.6L26,73.2l-2.7,3.9c0,0,1.2-1.2,2.5-2.6l0,0.1l-2.9,4.2c0,0,1.3-1.3,2.6-2.7
		l-0.3,1.5l-1.9,3.7c0,0,0.8-0.9,1.6-2.2l-0.2,1.1l-1.7,3.3c0,0,0.7-0.8,1.5-1.9l-0.2,0.9l-1.8,3.8c0,0,0.7-0.9,1.4-2.1l-0.2,1.2
		l-0.9,1.8c0,0,0.3-0.4,0.7-1l-0.3,1.5l-1.2,2.4c0,0,0.4-0.5,1-1.3l-0.5,2.5l-1,2c0,0,0.3-0.4,0.8-1.1l-0.7,3.4l3-3.9l-1.7,3.4
		c0,0,1.5-1.9,2.6-3.9l-2.5,5.5c0,0,1.2-1.6,2.2-3.4l-0.6,2.4l-0.9,1.9c0,0,0.3-0.4,0.7-0.9l-0.4,1.6l3.8-4.2l-2.7,4.2
		c0,0,1.9-2,3.3-3.9l-2.7,5.3c0,0,1-1.3,2-2.8l-1.3,4.1l1.9-1.9l-1,2c0,0,1.2-1.5,2.3-3.2l0.3-0.3l-0.6,2.6c0,0,0.6-1.5,1.2-3.2
		l0.2-0.2l-1,4.6c0,0,0.7-1.7,1.3-3.5l0,0.1l-1.1,5.1c0,0,0.4-0.9,0.8-2l-1,4.5c0,0,0.5-1.1,1-2.6l-1,4.5c0,0,0.6-1.5,1.2-3.2
		l-1,4.7c0,0,0.4-1,0.9-2.3l-0.9,4.1c0,0,0.5-1.3,1.1-2.9l0,0.6l0,0.2l-0.8,3.9c0,0,0.4-1,0.9-2.3l0,0.1l-0.9,4.1
		c0,0,0.5-1.1,0.9-2.5l0,0.6l-0.8,3.6c0,0,0.4-0.9,0.8-2.2l0,0.3l-0.5,2.5c0,0,0.2-0.6,0.6-1.4l0.1,1.8l0.9-1.8l-0.2,2
		c0,0,0.4-1.4,0.7-3.1l0.1-0.2l-0.2,2.4c0,0,0.5-1.8,0.8-3.7l0-0.1l-0.2,3c0,0,0.5-1.9,0.8-3.9l-0.2,3c0,0,0.2-0.8,0.4-1.9l0,1.8
		c0,0,0.1-0.7,0.3-1.8l-0.1,4.1c0,0,0.2-1.1,0.4-2.6l0,0.2l-0.1,3.2c0,0,0.1-0.4,0.2-1.1l0,2.3c0,0,0.1-0.5,0.2-1.2l0.1,1.4l0.2-0.4
		l0,1c0,0,0.1-0.5,0.2-1.3L36,118l-0.1,1.4c0,0,0.3-0.9,0.5-2.1l0.4-0.7l-0.3,2.7c0,0,0.5-1.7,0.9-3.6L37,119c0,0,0.7-2.4,1.1-4.6
		l-0.4,3.9c0,0,0.5-1.8,0.9-3.8l-0.1,4.6c0,0,0.2-1,0.4-2.4l-0.1,4l0.6-1.9l0,1.7c0,0,0.2-1.2,0.5-2.7l0,1.8c0,0,0.4-1.9,0.6-3.9
		l0.1-0.4l-0.1,3.6c0,0,0.6-2.8,0.8-5.2l0.1,0.2l-0.1,5.6c0,0,0.5-2.3,0.7-4.5l0.1,0.2l0.7,5.4c0,0,0.1-2,0-4.1l0.2,0.4l0.6,4.6
		c0,0,0.1-1.5,0-3.3l0.5,4.1c0,0,0.1-1.3,0-2.9l0.5,4.1c0,0,0.1-1.6,0-3.4l0.2,0.4l0.6,4.3c0,0,0.1-1.5,0-3.2l0.3,0.5l0.6,4.5
		c0,0,0.1-1.3,0-2.9l0.5,4.1c0,0,0-1.1,0-2.4l0.5,4.1c0,0,0.1-2.1,0-4.2l0.1,0.1l0,0l0,0l0.1,0.3l0.8,6.3c0,0,0-0.9,0-2.1l1,4.7
		l0.7-2.3l0,2.3c0,0,0.3-2,0.5-4l0.3-1.1l0,4.2c0,0,0.6-3.8,0.6-6.4l0-0.1l0,5.5c0,0,0.2-1,0.3-2.2l0,3.6c0,0,0.3-1.8,0.5-3.8l0,0
		l0,4.2c0,0,0.1-0.9,0.3-2.1l0.2,1.3l0.6-1.2l-0.1,2c0,0,0.3-1.4,0.6-3.1l0.2-0.4l-0.2,2.6c0,0,0.4-1.7,0.7-3.5l-0.2,2.6
		c0,0,0.5-2,0.8-4.1l-0.3,4.1c0,0,0.6-2.5,0.9-4.8l0,0l-0.4,5.7c0,0,0.2-0.9,0.5-2.1l-0.2,3c0,0,0.3-1.3,0.6-2.8l0.2,1.3l0.8-2.3
		l-0.5,3c0,0,1.1-3.2,1.6-5.7l-0.9,5.3c0,0,0.8-2.4,1.4-4.7l-0.8,5c0,0,0.8-2.2,1.3-4.4l0.1,0.1l-0.8,4.7c0,0,0.7-2,1.2-4l0.1,0.2
		l-0.6,3.7c0,0,0.5-1.4,1-3.1l0,0l-0.4,2.5c0,0,0.2-0.7,0.6-1.7l-0.4,2.5c0,0,0.4-1.1,0.8-2.4l0.1,0.2l-0.4,2.6c0,0,0.3-0.9,0.7-2.2
		l0.1,0.1l0.3,0.1l-0.2,2.7c0,0,0.3-1.1,0.6-2.6l0,0l-0.2,2.9c0,0,0.3-1.2,0.6-2.8l0.1,0l-0.2,3.1c0,0,0.3-1.4,0.6-3l0,0l-0.2,3.5
		c0,0,0.4-1.6,0.7-3.4l-0.3,3.9c0,0,0.4-1.8,0.8-3.7l0.1,0l-0.3,4.4c0,0,0.5-2.1,0.9-4.2l0,0l-0.3,4.5c0,0,0.5-2.2,0.9-4.3l0.6,0.2
		l-0.3,5c0,0,0.6-2.5,1-4.8l1.7,0.5l0,0L59.6,126z"/>
	<path class="st0" d="M27.3,34.3l-6.7-11.8c0,0,0.6,9.4,2.9,14c0.6,1.3,2.5,1.8,3.9,1.5h0C28,36.8,27.9,35.4,27.3,34.3z"/>
	<g>
		<path d="M27.4,38c0,0,0-0.3,0-0.8c0-0.5-0.2-1.1-0.5-1.7c-0.1-0.1-0.2-0.3-0.3-0.4c-0.1-0.1-0.2-0.3-0.4-0.4
			c-0.3-0.4-0.6-0.8-0.9-1.2c-0.6-0.8-1.2-1.8-1.7-2.7c-1.1-1.9-1.9-3.9-2.4-5.5c-0.2-0.8-0.4-1.5-0.5-2c-0.1-0.5-0.1-0.8-0.1-0.8
			s0.2,0.2,0.6,0.5c0.4,0.3,0.9,0.8,1.5,1.4c1.1,1.2,2.4,3,3.5,4.9c0.5,1,1,1.9,1.4,2.9c0.2,0.5,0.4,0.9,0.5,1.4
			c0.1,0.2,0.2,0.5,0.3,0.8c0.1,0.3,0.1,0.5,0.1,0.8c0,1-0.3,1.8-0.6,2.2C27.6,37.8,27.4,38,27.4,38z"/>
	</g>
	<g>
		<path d="M110,39.6c0,0-0.1-0.1-0.2-0.3c-0.1-0.2-0.3-0.5-0.4-0.8c-0.3-0.7-0.5-1.9-0.1-3.4c0.1-0.4,0.2-0.7,0.4-1.1
			c0.2-0.4,0.4-0.8,0.6-1c0.4-0.6,0.8-1.3,1.2-1.9c0.9-1.3,1.9-2.7,2.9-4.1c2.1-2.7,4.3-5.2,6.2-7c0.9-0.9,1.7-1.6,2.3-2.1
			c0.6-0.5,0.9-0.7,0.9-0.7s-0.2,0.4-0.5,1.1c-0.3,0.7-0.8,1.7-1.4,2.8c-1.2,2.3-3.1,5.1-5.2,7.8c-1,1.3-2.1,2.7-3.2,3.9
			c-0.5,0.6-1.1,1.2-1.6,1.7c-0.3,0.3-0.4,0.5-0.6,0.7c-0.2,0.2-0.4,0.5-0.5,0.7c-0.6,1-0.8,2-0.9,2.7c0,0.4,0,0.7,0,0.9
			C110,39.5,110,39.6,110,39.6z"/>
	</g>
	<g>
		<path class="st4" d="M53.4,92.7c0,0,3.5,9.6-3,18.2c-0.8,1.1,5.3-14.3-2.9-15.5c-1.4-0.2,0.4-4,3.3-4h0
			C52.5,91.5,52.5,91.7,53.4,92.7z"/>
		<path class="st5" d="M53.1,95.1c0,0,1.5,11.3-2.8,15.8c-0.9,1-0.1-10.8-3.2-15.5c-1.2-1.7,1.3-4,3.3-4h0
			C52.2,91.5,53,93.2,53.1,95.1z"/>
	</g>
	<g>
		<path class="st4" d="M38.7,132.2c0,0-1.6-9.6,2-18.2c0.5-1.1-3.1,14.3,1.2,15.5c0.7,0.2-0.3,4-1.9,4h0
			C39.1,133.5,39.1,133.2,38.7,132.2z"/>
		<path class="st5" d="M38.9,129.8c0,0-0.5-11.3,1.8-15.8c0.5-1-0.2,10.8,1.4,15.5c0.6,1.8-0.8,4-1.9,4h0
			C39.3,133.5,38.9,131.8,38.9,129.8z"/>
	</g>
	<g>
		<path class="st4" d="M51.4,132.2c0,0,1.6-9.6-2-18.2c-0.5-1.1,3.1,14.3-1.2,15.5c-0.7,0.2,0.3,4,1.9,4h0
			C51,133.5,51,133.2,51.4,132.2z"/>
		<path class="st5" d="M51.3,129.8c0,0,0.5-11.3-1.8-15.8c-0.5-1,0.2,10.8-1.4,15.5c-0.6,1.8,0.8,4,1.9,4h0
			C50.9,133.5,51.2,131.8,51.3,129.8z"/>
	</g>
	<g>
		<path class="st4" d="M27.6,93.4c0,0-3.5,9.2,3,17.5c0.8,1-5.3-13.7,2.9-14.9c1.4-0.2-0.4-3.8-3.3-3.8h0
			C28.5,92.2,28.5,92.5,27.6,93.4z"/>
		<path class="st5" d="M27.8,95.7c0,0-1.5,10.8,2.8,15.2c0.9,1,0.1-10.4,3.2-14.9c1.2-1.7-1.3-3.8-3.3-3.8h0
			C28.7,92.2,28,93.9,27.8,95.7z"/>
	</g>
	<g>
		<path class="st4" d="M36,94.7c0,0,1.4,1.1-0.9,6.8c-0.4,0.9,2.2-5.9-1-6.2c0,0,0,0,1-0.9h0C35.8,94.4,35.7,94.4,36,94.7z"/>
		<path class="st5" d="M36.2,95.7c0,0-0.4,3.6-1,5.8c-0.1,0.5-1.5-4.2-1.1-6.2c0.1-0.5,0.8-0.8,1-0.9h0C35.8,94.4,36.1,95,36.2,95.7
			z"/>
	</g>
	<g>
		<path class="st4" d="M41.7,125.5c0,0-1-0.7,0.5-4.7c0.2-0.6-1.4,4,0.8,4.2c0,0,0,0-0.6,0.6h0C41.8,125.7,41.9,125.7,41.7,125.5z"
			/>
		<path class="st5" d="M41.6,124.8c0,0,0.2-2.5,0.6-4c0.1-0.3,1.1,2.8,0.8,4.2c-0.1,0.3-0.5,0.6-0.6,0.6h0
			C41.8,125.7,41.6,125.3,41.6,124.8z"/>
	</g>
	<g>
		<path class="st4" d="M43.3,126.4c0,0-1-0.7,0.5-4.7c0.2-0.6-1.4,4,0.8,4.2c0,0,0,0-0.6,0.6h0C43.5,126.6,43.6,126.6,43.3,126.4z"
			/>
		<path class="st5" d="M43.2,125.7c0,0,0.2-2.5,0.6-4c0.1-0.3,1.1,2.8,0.8,4.2c-0.1,0.3-0.5,0.6-0.6,0.6h0
			C43.5,126.6,43.3,126.2,43.2,125.7z"/>
	</g>
	<g>
		<path class="st4" d="M46.3,126.4c0,0,1-0.7-0.5-4.7c-0.2-0.6,1.4,4-0.8,4.2c0,0,0,0,0.6,0.6l0,0C46.1,126.7,46.1,126.6,46.3,126.4
			z"/>
		<path class="st5" d="M46.4,125.8c0,0-0.2-2.5-0.6-4c-0.1-0.3-1.1,2.8-0.8,4.2c0.1,0.3,0.5,0.6,0.6,0.6l0,0
			C46.1,126.7,46.3,126.2,46.4,125.8z"/>
	</g>
	<g>
		<path class="st4" d="M48.5,126.4c0,0,1-0.7-0.5-4.7c-0.2-0.6,1.4,4-0.8,4.2c0,0,0,0,0.6,0.6h0C48.3,126.6,48.2,126.6,48.5,126.4z"
			/>
		<path class="st5" d="M48.6,125.7c0,0-0.2-2.5-0.6-4c-0.1-0.3-1.1,2.8-0.8,4.2c0.1,0.3,0.5,0.6,0.6,0.6h0
			C48.3,126.6,48.5,126.2,48.6,125.7z"/>
	</g>
	<path class="st4" d="M39.1,94.7c0,0,1.4,1.1-0.9,6.8c-0.4,0.9,2.2-5.9-1-6.2c0,0,0,0,1-0.9h0C38.9,94.4,38.8,94.4,39.1,94.7z"/>
	<path class="st5" d="M39.2,95.7c0,0-0.4,3.6-1,5.8c-0.1,0.5-1.5-4.2-1.1-6.2c0.1-0.5,0.8-0.8,1-0.9h0C38.9,94.4,39.2,95,39.2,95.7z
		"/>
	<path class="st4" d="M44.9,95.7c0,0-1.4,1.1,0.9,6.8c0.4,0.9-2.2-5.9,1-6.2c0,0,0,0-1-0.9h0C45.1,95.3,45.2,95.3,44.9,95.7z"/>
	<path class="st5" d="M44.7,96.7c0,0,0.4,3.6,1,5.8c0.1,0.5,1.5-4.2,1.1-6.2c-0.1-0.5-0.8-0.8-1-0.9h0
		C45.1,95.3,44.8,95.9,44.7,96.7z"/>
	<path class="st4" d="M41.4,95.6c0,0-1.4,1.1,0.9,6.8c0.4,0.9-2.2-5.9,1-6.2c0,0,0,0-1-0.9l0,0C41.7,95.3,41.8,95.3,41.4,95.6z"/>
	<path class="st5" d="M41.3,96.6c0,0,0.4,3.6,1,5.8c0.1,0.5,1.5-4.2,1.1-6.2c-0.1-0.5-0.8-0.8-1-0.9h0
		C41.7,95.3,41.4,95.9,41.3,96.6z"/>
	<path class="st1" d="M16.4,64.1l1.6-0.9l-3.9,4.1c0,0,1.2-0.9,2.5-2l-3.5,4.6l2.7-1.4L14,69.9c0,0,2.9-1.5,4.5-2.8l0.6-0.3
		l-4.2,4.1c0,0,1-0.7,2.2-1.6l-2.6,3l4-2.1l-3,2.1c0,0,2.1-0.9,3.7-1.9L16.6,73c0,0,1.3-0.8,2.5-1.8l-0.3,0.5l-2.8,2.7l0.4-0.2
		c0.5-0.3,1.1-0.8,1.7-1.2l0,0.1l-0.8,0.8l18.3-8.3l0.3-0.2c0,0-0.3,0.1-0.8,0.2l0-0.2l1-0.9c0,0-0.5,0.1-1,0.3l0.6-0.5
		c0,0-0.3,0.1-0.7,0.2l0-0.3l0.6-0.5c0,0-0.3,0.1-0.7,0.2l-0.1-0.5l0.6-0.5c0,0-0.2,0.1-0.6,0.2l0-0.4l0.6-0.5c0,0-0.3,0.1-0.7,0.2
		l0-0.2l0.5-0.4c0,0-0.2,0-0.5,0.1l0.7-0.6c0,0-0.3,0.1-0.7,0.2l0-0.2l-0.1-0.2l0.7-1.2c0,0,0,0-0.1,0.1l0.2-0.3
		c0,0-0.2,0.2-0.6,0.5l0.5-0.8c0,0-0.6,0.4-1.2,1l0-0.1l0.7-1.1c0,0-0.3,0.2-0.6,0.5l0.6-0.9c0,0-0.4,0.3-0.9,0.8l0.8-1.3
		c0,0-0.5,0.4-1.1,0.9l0,0l0.8-1.3c0,0-0.4,0.3-0.9,0.7l0.7-1.1c0,0-0.5,0.4-1.1,0.9l-0.1-0.1l0.9-1.5c0,0-0.6,0.4-1.2,1l0,0
		l0.7-1.1c0,0-0.4,0.3-0.9,0.8l0-0.1L33,56c0,0-0.3,0.2-0.7,0.5l-0.1-0.1l0.8-1.2c0,0-0.5,0.3-1,0.8l-0.1-0.2l0.9-1.4
		c0,0-0.3,0.2-0.6,0.5l0.4-0.7c0,0-0.5,0.3-1,0.8l1-1.5c0,0-0.6,0.5-1.3,1.1l0,0l0.9-1.5c0,0-0.6,0.4-1.2,1l0,0l1-1.5
		c0,0-0.6,0.4-1.2,1l-0.1-0.2l0.9-1.3c0,0-0.5,0.4-1.1,0.9l-0.1-0.2l0.8-1.2c0,0-0.5,0.3-1,0.8l-0.1-0.2l0.9-1.3
		c0,0-0.5,0.4-1.1,0.9l-0.1-0.2l0.9-1.4c0,0-0.6,0.4-1.1,0.9L29.4,51l0.9-1.4c0,0-0.5,0.4-1.1,0.9l-0.1-0.2l0.8-1.3
		c0,0-0.5,0.4-1.1,0.9l-0.1-0.2l0.8-1.2c0,0-0.5,0.3-1,0.8l0-0.1l0.8-1.2c0,0-0.4,0.3-1,0.8l-0.1-0.1l0.8-1.3c0,0-0.5,0.4-1,0.9
		l0-0.1l0.8-1.3c0,0-0.5,0.4-1.1,0.9l0,0l1-1.5c0,0-0.6,0.4-1.2,1l0.9-1.5c0,0-0.6,0.4-1.2,1l-0.1-0.1l0.9-1.5c0,0-0.5,0.4-1.1,0.9
		L28,45c0,0-0.4,0.3-0.9,0.8l0.8-1.2c0,0-0.3,0.2-0.7,0.5l0.5-0.7c0,0-0.5,0.4-1.1,0.9l-0.1-0.3l-0.5,0.8L21,51c0,0,0.9-0.6,1.9-1.5
		l-2.6,2.7c0,0,1.2-0.9,2.5-2l-4.1,4.4c0,0,1.7-1.2,3.1-2.6l0,0.1l-4.9,5.2c0,0,1.8-1.3,3.3-2.7l-0.2,0.3l-3.6,3.8
		c0,0,1-0.7,2.1-1.7l-3.7,3.9c0,0,1.3-1,2.7-2.2l-0.3,0.4l-0.7,1L13.8,63c0,0,0.7-0.5,1.7-1.3L14.6,63l-1.8,1.9c0,0,0.4-0.3,1.1-0.8
		l-1.6,2.3l2.6-1.5l-1.5,1.6C13.5,66.4,15,65.3,16.4,64.1z"/>
	<g>
		<path class="st3" d="M35.2,59.4l0.1-0.1C35.3,59.3,35.2,59.3,35.2,59.4L35.2,59.4z"/>
		<path class="st3" d="M35.1,59.1l0.1-0.2C35.2,58.9,35.2,58.9,35.1,59.1L35.1,59.1z"/>
		<path class="st3" d="M35.6,65.4l0.3-0.2c0,0-0.3,0.1-0.8,0.2l0-0.2l1-0.9c0,0-0.5,0.1-1,0.3l0.6-0.5c0,0-0.3,0.1-0.7,0.2l0-0.1"/>
		<path class="st3" d="M21.5,70.9l-2,1l0.7-2.7h-2.4l2.8-4l-4.1,1.5l3-5.4l-3.4,0.7l11.3-16.8c-0.2,0.1-0.3,0.3-0.5,0.5l0.8-1.2
			c0,0-0.3,0.2-0.7,0.5l0.5-0.7c0,0-0.5,0.4-1.1,0.9l-0.1-0.3l-0.5,0.8L21,51c0,0,0.9-0.6,1.9-1.5l-2.6,2.7c0,0,1.2-0.9,2.5-2
			l-4.1,4.4c0,0,1.7-1.2,3.1-2.6l0,0.1l-4.9,5.2c0,0,1.8-1.3,3.3-2.7l-0.2,0.3l-3.6,3.8c0,0,1-0.7,2.1-1.7l-3.7,3.9
			c0,0,1.3-1,2.7-2.2l-0.3,0.4l-0.7,1L13.8,63c0,0,0.7-0.5,1.7-1.3L14.6,63l-1.8,1.9c0,0,0.4-0.3,1.1-0.8l-1.6,2.3l2.6-1.5l-1.5,1.6
			c0,0,1.5-1.1,2.9-2.4l1.6-0.9l-3.9,4.1c0,0,1.2-0.9,2.5-2l-3.5,4.6l2.7-1.4L14,69.9c0,0,2.9-1.5,4.5-2.8l0.6-0.3l-4.2,4.1
			c0,0,1-0.7,2.2-1.6l-2.6,3l4-2.1l-3,2.1c0,0,2.1-0.9,3.7-1.9L16.6,73c0,0,1.3-0.8,2.5-1.8l-0.3,0.5l-2.8,2.7l0.4-0.2
			c0.5-0.3,1.1-0.8,1.7-1.2l0,0.1l-0.8,0.8l4.6-2.1L21.5,70.9z"/>
		<polygon class="st3" points="34.6,57.8 34.6,57.8 34.5,57.8 		"/>
	</g>
	<g>
		<path class="st6" d="M55,57.7c0,0,1.6-4,3.1-8.1c0.8-2,1.5-4,2.1-5.6c0.3-0.8,0.5-1.4,0.6-1.8c0.2-0.4,0.2-0.7,0.2-0.7
			s0.1,0.3,0.1,0.7c0,0.5,0.1,1.2,0.1,2c0.1,1.6,0.2,3.8,0.3,6c0.2,4.3,0.3,8.7,0.3,8.7L55,57.7z"/>
	</g>
	<path class="st6" d="M58.8,57.7c0,0-4.9,10.9-15.2,3.6c0,0-4.5-4.3-2.4-10l2.2-2.2l15,8.1l0.2,0.3L58.8,57.7z"/>
	<path class="st7" d="M40.8,49l17.8,9.8C58.6,58.8,38.3,67.7,40.8,49z"/>
	<path class="st8" d="M43.5,51.5l10.9,5.4c1.4,0.7,1,2.5-0.5,2.8c-4.9,0.8-12.5,0.8-12.5-7.1C41.5,51.6,42.6,51,43.5,51.5z"/>
	<path class="st9" d="M64,58.6l-1-0.4l0-0.2l1.1,0.2L63,57.9c0-0.1-0.1-0.2-0.2-0.2l1,0.1l-1.2-0.3c-0.1-0.1-0.1-0.1-0.2-0.1l-0.1,0
		l0.8,0.1L62.1,57l-2-1.7l1.1,1.4l-1.8-1.9l0.7,1.1l-1.7-1.5l1,1.2c0,0,0,0,0,0l-1.3-1.4l0.4,0.6l-1.4-1.2l1.2,1.5l-1.5-1.6l0.4,0.6
		l-1.6-1.4l1,1.2l-1.9-2l0.8,1.2l-1.6-1.4l1.3,1.7L55,53.2c-0.1-0.2-0.3-0.4-0.4-0.5l-1.9-2l0.6,1L52,50.5l1.3,1.7l-0.2-0.1
		l-1.8-1.9l0.5,0.7l-1.6-1.4l1.3,1.6l-1.7-1.8l0.4,0.6l-1.9-1.7l0.9,1.1l-1.5-1.6l0.7,1L46.3,47l0.9,1.1C47.1,48,47.1,48,47,47.9
		l-2.2-2l0.9,1.2l-1.1-1l0.8,1c0,0,0,0,0,0l-2.2-2l0.6,0.7l-0.6-0.5l0.4,0.5l-1.8-1.6l0.9,1.1l-0.4-0.4l0.5,0.7l-2.2-1.9l1.2,1.5
		l-0.5-0.3L40.9,45c0,0,0,0-0.1,0c-0.1,0-0.1,0-0.2,0L39,45.5l0.7,0l-0.3,0.1L38,46l0.5,0l-1.5,0.4l0.3,0l-1.5,0.4l0.9-0.1l0,0
		l-2.5,0.7l0.9-0.1l-1.3,0.3l0.3,0l-1.4,0.4l0.7,0l-0.2,0.1c0,0-0.1-0.1-0.1-0.1c-0.1,0-0.1,0-0.2,0l-1.6,0.4l0.8,0l-1.2,0.5l1,0
		l-0.7,0.2l1.5-0.2l0.6,0l-1.1,0.3l2.3-0.3l0.2,0l-1,0.3l2.1-0.2l0.4,0l-1.3,0.4l2.9-0.3l0.8,0l-1,0.3l2-0.2l0.5,0.3l-1.5,0l2.1,0.3
		l0.1,0.1l-0.8-0.1l1.3,0.4l0.1,0.1L40,50.5l2.5,0.7l0.2,0.1l-1.5-0.2l2.5,0.7l0.5,0.3L42.6,52l2.7,0.8l0.4,0.2l-1.6-0.2l2.6,0.8
		l0.5,0.3l-1.3-0.1l2.1,0.6l0.5,0.3l-1.5-0.2l2.5,0.7l0.5,0.3l-1.6-0.2l2.7,0.8l0.4,0.2l-1.9-0.2l3.2,0.9l0.2,0.1l-1.8-0.2l2.9,0.8
		l-1.4-0.1l2.4,0.7l0.5,0.3l-1.6-0.2l2.7,0.8l0.4,0.2l-1.7-0.2l2.8,0.8l0.3,0.2l-2-0.2l2,0.6l-0.8-0.1l2.9,0.8l0.5,0.3l1,1.1
		l-0.5-0.8l0.4,0.2l1,1L62.4,62l0.1-0.4l0.8,0.8l-0.8-1.1l0-0.1l0.6,0.6l-0.6-0.8l0-0.1l0.8,0.8l-0.8-1.1l0-0.1l0.6,0.6l-0.6-0.8
		l0-0.2l0.7,0.7L62.7,60l0-0.2l0.3,0.3l-0.3-0.4l0-0.2l0.5,0.5l-0.5-0.7l0-0.1l0.8,0.8l-0.5-0.8l0.5,0.5l-0.7-0.9l0-0.3L64,58.6z
		 M47.7,48.7l0.2,0.2l-0.2-0.1C47.7,48.7,47.7,48.7,47.7,48.7z"/>
	<circle class="st7" cx="48.9" cy="56.1" r="0.8"/>
	<path class="st10" d="M59.6,56"/>
	<g>
		<path class="st9" d="M39,52.7c0,0,0,0.3,0.1,0.8c0,0.2,0.1,0.6,0.2,0.9c0.1,0.3,0.2,0.7,0.3,1.1c0.1,0.4,0.3,0.9,0.4,1.3
			c0.2,0.5,0.4,0.9,0.6,1.4c0.2,0.5,0.6,0.9,0.8,1.4c0.4,0.4,0.7,0.9,1.1,1.2c0.2,0.2,0.4,0.4,0.6,0.5l0.7,0.4l0.3,0.2l0.4,0.1
			c0.2,0.1,0.5,0.2,0.7,0.3c0.5,0.2,1,0.2,1.5,0.3c0.5,0.1,0.9,0,1.4,0.1c0.4,0,0.8,0,1.2,0c0.3,0,0.7-0.1,0.9-0.1
			c0.5,0,0.8-0.1,0.8-0.1s-0.3,0.1-0.8,0.3c-0.2,0.1-0.5,0.2-0.9,0.3c-0.3,0.1-0.7,0.2-1.2,0.2c-0.4,0-0.9,0.2-1.4,0.1
			c-0.5-0.1-1.1,0-1.6-0.2c-0.3-0.1-0.6-0.2-0.8-0.3l-0.4-0.1l-0.4-0.2c-0.3-0.2-0.5-0.3-0.8-0.5c-0.2-0.2-0.5-0.4-0.7-0.6
			c-0.5-0.4-0.8-0.9-1.2-1.4c-0.3-0.5-0.6-1-0.8-1.5c-0.2-0.5-0.4-1-0.5-1.5c-0.2-0.5-0.2-1-0.3-1.4c-0.1-0.9-0.1-1.6-0.1-2.1
			C38.9,53,39,52.7,39,52.7z"/>
	</g>
	<polygon class="st2" points="66.3,140.3 49.1,142.2 36,139.2 37.6,122.7 43.9,125.9 64.6,122.1 71.3,94.9 58.5,82.8 54.3,92.3 
		45,97 35.5,94.8 27.6,98.2 25.8,96.5 25.8,69.2 68.1,52.8 82,94.1 	"/>
	<g>
		<path class="st11" d="M66.4,140.1c-5.9,0.8-11.8,1.6-17.7,2.3l-0.1,0l-0.1,0l-12.9-2.3l-0.7-0.1l0.1-0.8c0.5-5.6,1-11.1,1.6-16.7
			l0.2-1.8l1.6,0.8l6.3,3l-0.9-0.1l20.7-4.1l-1.4,1.3c2.1-9.1,4.2-18.2,6.4-27.3l0.6,1.9l-12.8-12l3.2-0.7l-4.2,9.5l-0.3,0.7
			l-0.6,0.3L46,98.5l-0.6,0.3l-0.7-0.2l-9.6-2.3l1.2-0.1l-7.8,3.4l-1.1,0.5l-0.8-0.8l-1.9-1.8l-0.6-0.5l0-0.8
			c0-4.5,0.1-9.1,0.2-13.6L24.5,69l0-1l0.9-0.3c7-2.5,13.9-5,20.9-7.4l10.5-3.6c3.5-1.2,7-2.4,10.5-3.6c-3.4,1.5-6.8,3-10.2,4.4
			l-10.2,4.3c-6.8,2.9-13.7,5.7-20.5,8.5l0.9-1.3l0.2,13.6c0.1,4.5,0.1,9.1,0.2,13.6L27.1,95l1.9,1.7L27,96.4l7.8-3.5l0.6-0.3
			l0.6,0.1l9.6,2.1l-1.3,0.2l9.3-4.7l-0.9,1l4.1-9.5l1.1-2.6l2.1,2l12.8,12.1l0.8,0.8l-0.3,1.1c-2.2,9.1-4.6,18.1-6.9,27.2l-0.3,1.1
			l-1.1,0.2l-20.8,3.4l-0.5,0.1l-0.4-0.2l-6.2-3.3l1.8-1c-0.8,5.5-1.5,11.1-2.3,16.6l-0.7-0.9l12.8,3l-0.2,0
			C54.5,140.9,60.4,140.5,66.4,140.1z"/>
	</g>
	<path class="st12" d="M56.8,70.1c0,0-17.2-5.8-31,2.9c0,0-0.7,7.1,11.2,15.2C36.9,88.2,48.1,84.4,56.8,70.1z"/>
	<path class="st9" d="M85.1,48.1l-0.2,0.2L85.1,48.1C85.1,48.2,85.1,48.2,85.1,48.1z"/>
	<g>
		<path class="st6" d="M66.8,56.3c0,0,0.1-3.9,0.3-7.9c0.1-2,0.2-3.9,0.3-5.4c0-0.7,0.1-1.4,0.1-1.8c0-0.2,0-0.4,0.1-0.5
			c0-0.1,0-0.2,0-0.2s0,0.1,0,0.2c0,0.1,0.1,0.3,0.1,0.5c0.1,0.4,0.4,1,0.6,1.6c0.6,1.4,1.3,3.2,2.1,5c1.6,3.6,3.2,7.2,3.2,7.2
			L66.8,56.3z"/>
	</g>
	<g>
		<path class="st13" d="M71.2,53.4"/>
	</g>
	<path class="st6" d="M69.6,54.2c0,0-0.3,9.7,11,9.1c9.6-0.5,12.1-10.1,10.6-15.7l-2.6-2.1L69.6,54.2"/>
	<path class="st7" d="M90.7,44.8L70.3,58.2C70.3,58.2,94.5,70.8,90.7,44.8z"/>
	<path class="st8" d="M87.4,48.2l-13.3,7.4c-1.7,0.9-1.2,3.5,0.7,3.9c6.1,1.2,15.5,1.4,15.3-9.7C90,48.4,88.6,47.5,87.4,48.2z"/>
	<path class="st7" d="M82.1,54.5c-0.1-0.7-0.6-1.2-1.2-1.2c-0.6,0-1.1,0.6-1,1.3s0.6,1.2,1.2,1.2C81.7,55.8,82.2,55.2,82.1,54.5z"/>
	<path class="st9" d="M65.2,56.9l1-0.4l0-0.2l-1.2,0.2l1.2-0.5c0-0.1,0.1-0.2,0.2-0.3l-1,0.1l1.3-0.3c0.1-0.1,0.1-0.1,0.2-0.2
		l0.1-0.1l-0.9,0.1l1.1-0.3l2.1-1.9l-1.2,1.5l1.9-2.1l-0.7,1.2l1.8-1.7l-1,1.4c0,0,0,0,0,0l1.4-1.5L71,52.6l1.5-1.4l-1.3,1.7
		l1.6-1.8l-0.4,0.7l1.7-1.6l-1,1.3l1.9-2.2l-0.8,1.3l1.7-1.6l-1.4,1.8l0.2-0.1c0.1-0.2,0.3-0.4,0.4-0.5l2-2.2l-0.7,1.1l1.3-1.3
		l-1.4,1.8l0.2-0.1l1.9-2.1l-0.5,0.8l1.7-1.5l-1.3,1.7l1.8-2l-0.4,0.7l2-1.9l-0.9,1.2l1.5-1.7l-0.7,1.1l2.2-2l-0.9,1.2
		C82.9,45,83,45,83,44.9l2.3-2.2l-1,1.3l1.1-1.1l-0.8,1.1c0,0,0,0,0,0l2.3-2.2l-0.6,0.8l0.6-0.6l-0.4,0.5l1.9-1.8L87.8,42l0.4-0.4
		l-0.6,0.8l2.3-2.1l-1.2,1.7l0.5-0.3l0.3,0.1c0,0,0.1,0,0.1,0c0.1,0,0.1,0,0.2,0.1l1.7,0.4l-0.7,0l0.4,0.2l1.5,0.4l-0.5,0l1.6,0.4
		l-0.4,0l1.6,0.5l-1-0.1l0,0l2.7,0.8l-0.9-0.1l1.4,0.4l-0.3,0l1.4,0.4l-0.8,0l0.3,0.1c0,0,0.1-0.1,0.1-0.1c0.1,0,0.1,0,0.2,0.1
		l1.7,0.4l-0.9,0l1.3,0.5l-1.1,0.1l0.8,0.2l-1.6-0.2l-0.7,0l1.1,0.3l-2.4-0.3l-0.2,0l1,0.3l-2.2-0.2l-0.4,0l1.4,0.4l-3.1-0.3l-0.8,0
		l1.1,0.3L91,46.7L90.5,47l1.6,0l-2.2,0.3l-0.1,0.1l0.8-0.1l-1.4,0.4L89,47.9l1.6-0.2l-2.6,0.8l-0.2,0.1l1.6-0.2l-2.6,0.8l-0.5,0.3
		l1.7-0.2L85,50.2l-0.4,0.3l1.7-0.2l-2.8,0.9l-0.5,0.3l1.3-0.2L82,52l-0.5,0.3l1.6-0.2l-2.7,0.8l-0.5,0.3l1.7-0.2l-2.9,0.9l-0.4,0.2
		l2-0.2l-3.4,1L76.7,55l1.9-0.2l-3.1,0.9l1.4-0.2l-2.5,0.8l-0.5,0.3l1.7-0.2l-2.9,0.9l-0.4,0.2l1.8-0.2l-3,0.9l-0.3,0.2l2.2-0.3
		l-2.1,0.6l0.9-0.1l-3,0.9L68.2,60l-1,1.2l0.5-0.9l-0.4,0.2l-1,1.1l0.7-1l-0.1-0.4L66,61.1l0.8-1.2l0-0.1l-0.6,0.7l0.6-0.9l0-0.1
		l-0.9,0.9l0.8-1.2l0-0.1l-0.6,0.7l0.6-0.9l0-0.2l-0.7,0.8l0.7-1l0-0.3l-0.3,0.4l0.3-0.5l0-0.2L66,58.2l0.5-0.7l0-0.1l-0.8,0.8
		l0.5-0.8L65.7,58l0.7-1l-0.1-0.3L65.2,56.9z"/>
	<g>
		<path class="st9" d="M38.2,89.1C38.2,89.1,38.2,89.1,38.2,89.1c-0.1,0.1,0,0,0.1,0c0.2-0.1,0.4-0.3,0.7-0.5c0.6-0.4,1.5-1,2.5-1.7
			c1-0.7,2.2-1.6,3.4-2.6c1.2-1,2.5-2.1,3.7-3.2c1.2-1.1,2.4-2.3,3.4-3.5c1-1.2,1.9-2.3,2.7-3.3c0.7-1,1.3-1.9,1.6-2.5
			c0.4-0.6,0.6-1,0.6-1s-0.1,0.4-0.4,1.1c-0.3,0.7-0.7,1.7-1.3,2.7c-0.6,1.1-1.5,2.3-2.5,3.6c-1,1.2-2.2,2.5-3.4,3.6
			C48,83,46.7,84.1,45.4,85c-1.3,0.9-2.5,1.7-3.6,2.4c-1.1,0.7-2,1.1-2.7,1.4c-0.3,0.2-0.6,0.3-0.8,0.3
			C38.2,89.2,38.1,89.2,38.2,89.1C38.2,89.1,38.2,89.1,38.2,89.1z"/>
	</g>
	<g>
		<path class="st9" d="M36.5,89.1c0,0-0.9-0.3-2.1-1.1c-1.2-0.7-2.7-1.9-4-3.3c-0.3-0.3-0.6-0.7-0.9-1.1c-0.3-0.4-0.5-0.8-0.8-1.1
			c-0.3-0.4-0.5-0.7-0.7-1.1c-0.2-0.3-0.4-0.7-0.5-1c-0.3-0.6-0.5-1.2-0.6-1.6c-0.1-0.4-0.2-0.6-0.2-0.6s0.1,0.2,0.4,0.5
			c0.2,0.3,0.5,0.8,0.9,1.4c0.4,0.6,0.9,1.2,1.4,1.9c0.5,0.7,1.1,1.4,1.7,2c0.6,0.7,1.3,1.3,1.9,1.9c0.6,0.6,1.2,1.2,1.7,1.6
			C35.7,88.5,36.5,89.1,36.5,89.1z"/>
	</g>
	<g>
		<path class="st9" d="M92.6,55.6c0,0-0.1,0.4-0.3,1c-0.1,0.3-0.3,0.7-0.5,1.1c-0.2,0.4-0.5,0.9-0.8,1.3c-0.3,0.5-0.7,1-1.2,1.4
			c-0.2,0.2-0.5,0.5-0.7,0.7c-0.3,0.2-0.6,0.4-0.8,0.6c-0.3,0.2-0.6,0.4-0.9,0.6c-0.3,0.2-0.6,0.4-1,0.5c-0.4,0.1-0.7,0.3-1.1,0.4
			l-0.5,0.2l-0.6,0.1c-0.7,0.2-1.5,0.4-2.2,0.4c-0.7,0.1-1.5,0.2-2.2,0.1c-0.7,0-1.4,0-2-0.1c-0.6-0.1-1.2-0.2-1.8-0.3
			c-0.6-0.1-1.1-0.2-1.5-0.3c-0.4-0.1-0.8-0.2-1.1-0.3c-0.6-0.2-1-0.3-1-0.3s0.4,0,1,0.1c0.7,0.1,1.6,0.2,2.7,0.3
			c0.6,0,1.2,0.1,1.8,0.1c0.6,0,1.3,0,2,0c0.7,0,1.4-0.1,2.1-0.2c0.7-0.1,1.4-0.3,2.1-0.4l0.5-0.1l0.5-0.2c0.3-0.1,0.7-0.3,1-0.4
			c0.6-0.3,1.3-0.6,1.8-1c0.3-0.2,0.6-0.4,0.8-0.6c0.2-0.2,0.5-0.4,0.7-0.6c0.2-0.2,0.4-0.4,0.7-0.6c0.2-0.2,0.4-0.4,0.6-0.6
			c0.3-0.4,0.7-0.8,0.9-1.2c0.3-0.4,0.4-0.7,0.6-1C92.5,56,92.6,55.6,92.6,55.6z"/>
	</g>
	<path class="st2" d="M36.6,31.4c0,0-2.2-2.7-7.1-4.9c0,0-10.3-4.9-10-8.5c0,0-1.2,22.3,1.7,28.6c0,0,0.7,1.2,2.3,1.8
		C23.5,48.5,34.7,35.8,36.6,31.4z"/>
	<path class="st14" d="M27.1,43.8c0,0-2.9,1.1-4,0.4c0,0-2-16.5-0.5-20.2c0,0,5.2,9.4,11.2,10.8C33.7,34.9,31.4,41.8,27.1,43.8z"/>
	<g>
		<path class="st7" d="M28.2,43.2c0.1-0.4,0.3-0.9,0.5-1.3c0.2-0.4,0.3-0.8,0.5-1.2c0.3-0.8,0.7-1.6,1-2.3c0.3-0.7,0.7-1.5,0.9-2.1
			c0.1-0.3,0.2-0.7,0.3-0.9c0-0.1,0-0.2,0-0.3c0-0.1-0.1,0,0,0.2l1.2,1.7c-0.4-0.2-0.7-0.3-1-0.5c-0.3-0.2-0.6-0.3-0.9-0.5
			c-0.6-0.4-1.2-0.8-1.7-1.2c-1.1-0.8-2.1-1.8-3.1-2.9c-0.5-0.5-0.9-1.1-1.3-1.7c-0.4-0.6-0.7-1.2-1.1-1.9c-0.1-0.3-0.3-0.7-0.4-1
			c-0.1-0.3-0.2-0.7-0.3-1c-0.2-0.7-0.3-1.4-0.3-2.2c0.3,0.2,0.6,0.4,0.9,0.6c0.3,0.2,0.6,0.4,0.8,0.6c0.3,0.2,0.5,0.4,0.8,0.6
			c0.3,0.2,0.5,0.4,0.8,0.6l3.1,2.1c0.3,0.2,0.5,0.3,0.8,0.5c0.2,0.2,0.5,0.3,0.8,0.5c0.5,0.4,1,0.7,1.5,1.1l3,2.1l1.1,0.8l0.1,0.9
			c0.1,0.6,0,1.1-0.1,1.5c-0.1,0.4-0.2,0.7-0.4,1c-0.3,0.5-0.6,1-0.9,1.4c-0.6,0.8-1.2,1.4-1.9,2c-0.7,0.6-1.4,1.1-2.2,1.6
			c-0.4,0.2-0.8,0.5-1.2,0.7C29,42.8,28.6,43,28.2,43.2z"/>
	</g>
	<g>
		<path class="st2" d="M128.3,41.2"/>
		<path class="st2" d="M123.4,29.9c0.8-7.2-1.8-13.3,0.5-19.7c0,0-19.5,5.7-25.4,34.8l26.2,2.7C124.7,47.7,122.7,36.3,123.4,29.9z"
			/>
		<path class="st2" d="M127.4,33.7"/>
		<path class="st0" d="M121.8,38l-0.6-24c0,0-7.7,2.6-14.1,18.2C107.2,32.2,118.2,30.2,121.8,38z"/>
		<g>
			<path class="st7" d="M121.8,39.1c-0.5-1.4-1.4-2.5-2.5-3.3c-0.5-0.4-1.1-0.7-1.7-0.9c-0.6-0.2-1.2-0.4-1.9-0.5
				c-0.6-0.1-1.3-0.2-2-0.2c-0.7,0-1.3,0-2,0c-0.7,0-1.4,0.1-2,0.1c-0.7,0.1-1.4,0.1-2,0.2l-1.2,0.2l-0.8-1
				c-0.1-0.1-0.1-0.2-0.2-0.2l-0.1-0.1c-0.1-0.1-0.1-0.2-0.1-0.2c-0.1-0.1-0.1-0.3-0.2-0.4c-0.1-0.3-0.2-0.5-0.2-0.7
				c-0.1-0.4-0.1-0.9-0.1-1.3c0-0.8,0.1-1.5,0.3-2.1c0.3-1.3,0.9-2.3,1.5-3.3c0.6-1,1.2-1.8,1.9-2.7c0.7-0.8,1.4-1.6,2.2-2.3
				c0.8-0.7,1.6-1.4,2.4-2c0.8-0.6,1.7-1.2,2.5-1.7c1.8-1.1,3.6-2,5.6-2.7c-0.3,0.5-0.6,0.9-0.9,1.3c-0.3,0.4-0.6,0.9-0.9,1.3
				c-0.6,0.8-1.2,1.6-1.8,2.4c-1.2,1.6-2.5,3.1-3.6,4.6c-0.6,0.7-1.2,1.5-1.7,2.2c-0.5,0.8-1.1,1.5-1.5,2.2
				c-0.5,0.7-0.8,1.5-1.1,2.1c-0.1,0.3-0.2,0.6-0.2,0.8l0,0.2c0,0,0,0,0,0l0-0.1l0-0.1l0-0.1l-0.1-0.1l-2-0.8c0.8,0,1.6,0,2.3,0
				c0.8,0,1.6,0.1,2.4,0.2c0.8,0.1,1.6,0.3,2.4,0.5c0.8,0.2,1.6,0.5,2.3,0.8c1.5,0.7,2.9,1.7,3.9,3c0.5,0.7,0.9,1.4,1.1,2.2
				C121.9,37.5,121.9,38.3,121.8,39.1z"/>
		</g>
	</g>
	<path class="st1" d="M131.2,63.9c0.7,0.8,1.2,1.3,1.2,1.3l-1.7-2.7l-0.7-1.7c1,1.1,1.9,2,1.9,2l-2.7-4.1l-0.5-1.3l-0.2-0.5
		c1.4,1.7,3,3.3,3,3.3l-3.6-5.6c1.2,1.4,2.3,2.5,2.3,2.5l-3.5-5.3l-0.1-0.4c1.5,2,3.6,4.1,3.6,4.1l-4.8-7.3l0-0.1
		c1.5,2,3.5,3.9,3.5,3.9l-4.1-6.2c1.4,1.6,2.8,3.1,2.8,3.1l-2.5-3.8c1.1,1.3,2.1,2.3,2.1,2.3l-4.7-7.1l-0.4-1.1l-0.4,0.2
		c-0.6-0.8-1.2-1.4-1.2-1.4l0.3,0.9c-0.4-0.5-0.8-0.8-0.8-0.8l0.5,1.5c-0.5-0.7-1-1.2-1-1.2l0.6,1.8c-0.6-0.8-1.2-1.4-1.2-1.4
		l0.7,1.9l-0.1,0.1c-0.6-0.8-1.3-1.5-1.3-1.5l0.7,1.9c-0.6-0.8-1.3-1.5-1.3-1.5l0.7,1.9l0,0c-0.6-0.8-1.2-1.3-1.2-1.3l0.6,1.7
		l-0.1,0.1c-0.6-0.7-1.1-1.3-1.1-1.3l0.6,1.7l-0.2,0.1c-0.5-0.7-1.1-1.2-1.1-1.2l0.5,1.5l-0.1,0c-0.5-0.7-1.1-1.2-1.1-1.2l0.5,1.5
		l-0.2,0.2c-0.6-0.8-1.2-1.3-1.2-1.3l0.6,1.7l-0.2,0.1c-0.6-0.8-1.2-1.4-1.2-1.4l0.6,1.8l-0.2,0.1c-0.6-0.8-1.2-1.4-1.2-1.4l0.6,1.8
		l-0.3,0.2c-0.6-0.8-1.2-1.4-1.2-1.4l0.6,1.8l-0.2,0.1c-0.5-0.7-1.1-1.2-1.1-1.2l0.6,1.6l-0.2,0.1c-0.6-0.8-1.2-1.4-1.2-1.4l0.6,1.8
		l-0.3,0.2c-0.6-0.9-1.3-1.6-1.3-1.6l0.7,2l-0.1,0c-0.6-0.8-1.3-1.5-1.3-1.5l0.7,1.9l0,0c-0.6-0.9-1.4-1.6-1.4-1.6l0.7,2
		c-0.6-0.7-1.1-1.3-1.1-1.3l0.3,0.9c-0.4-0.5-0.7-0.8-0.7-0.8l0.6,1.8l-0.3,0.2c-0.6-0.7-1.1-1.2-1.1-1.2l0.6,1.6l-0.2,0.1
		c-0.4-0.5-0.8-0.8-0.8-0.8l0.4,1.1l-0.1,0.1c-0.5-0.7-1-1.1-1-1.1l0.5,1.5l-0.1,0c-0.6-0.8-1.3-1.5-1.3-1.5l0.7,1.9l-0.2,0.1
		c-0.6-0.8-1.2-1.4-1.2-1.4l0.5,1.5c-0.5-0.6-1-1.1-1-1.1l0.6,1.7l-0.1,0c-0.6-0.8-1.2-1.4-1.2-1.4l0.6,1.6c-0.5-0.7-1-1.2-1-1.2
		l0.4,1.1c-0.4-0.4-0.7-0.7-0.7-0.7l0.5,1.4l-0.1,0.1c-0.6-0.8-1.3-1.5-1.3-1.5l0.4,1.1c-0.4-0.4-0.7-0.7-0.7-0.7l0.2,0.4
		c-0.1-0.1-0.2-0.2-0.2-0.2l0.5,1.5l-0.3,0.2l-0.2,0.2c-0.6-0.3-1-0.5-1-0.5l0.7,0.9c-0.4-0.2-0.7-0.3-0.7-0.3l0.5,0.7l-0.2,0.2
		c-0.5-0.3-0.9-0.4-0.9-0.4l0.7,0.8l-0.3,0.4c-0.5-0.2-0.8-0.4-0.8-0.4l0.6,0.7l-0.4,0.5c-0.5-0.3-0.9-0.4-0.9-0.4l0.7,0.8l-0.2,0.3
		c-0.5-0.3-0.9-0.5-0.9-0.5l0.7,0.8c-0.7-0.4-1.4-0.7-1.4-0.7l1.1,1.3L98,57.6c-0.6-0.3-1.1-0.5-1.1-0.5l0.7,0.9
		c-0.5-0.3-0.9-0.4-0.9-0.4l0.7,0.8c-0.7-0.4-1.2-0.6-1.2-0.6l0.7,0.8c-0.4-0.2-0.7-0.3-0.7-0.3l0.3,0.3c-0.4-0.2-0.7-0.3-0.7-0.3
		l0.8,1c-0.5-0.2-0.8-0.4-0.8-0.4l0.7,0.9l-0.1,0.2c-0.7-0.4-1.3-0.6-1.3-0.6l0.6,0.8c-0.4-0.2-0.6-0.3-0.6-0.3l0.5,0.6
		c-0.4-0.2-0.7-0.3-0.7-0.3l0.1,0.1c-0.2-0.1-0.3-0.1-0.3-0.1l0.9,1l-0.1,0.2c-0.7-0.4-1.3-0.6-1.3-0.6l0.9,1.1l-0.1,0.1
		c-0.6-0.4-1.2-0.6-1.2-0.6l0.6,0.7c-0.5-0.3-1-0.5-1-0.5l0.9,1.1L94.1,63c-0.7-0.4-1.3-0.6-1.3-0.6l0.9,1.1l0,0
		c-0.5-0.3-0.9-0.4-0.9-0.4l0.7,0.8l-0.3,0.4c-0.5-0.2-0.8-0.4-0.8-0.4l0.6,0.7L92.7,65c-0.6-0.3-1-0.5-1-0.5l0.7,0.8
		c-0.7-0.4-1.4-0.7-1.4-0.7l1.1,1.3l-0.3,0.4l0,0.2c-0.6,0-1,0-1,0l1,0.5l0,0.2c-0.7-0.1-1.3-0.1-1.3-0.1l1.2,0.6
		c-0.7-0.1-1.2,0-1.2,0l0.9,0.5c-0.5,0-0.9,0-0.9,0l1.1,0.6l0,0.5c-0.6-0.1-1.1,0-1.1,0l1.1,0.6l0,0.1c-0.6-0.1-1.1,0-1.1,0l0.8,0.4
		c-0.4,0-0.8,0-0.8,0l1.1,0.6l0,0.1c-0.7-0.1-1.2,0-1.2,0l1.2,0.6l0,0.5c-0.7-0.1-1.3-0.1-1.3-0.1l1.3,0.7l0,0.3c-0.5,0-0.9,0-0.9,0
		l0.9,0.5l0,0.1c-0.5,0-0.9,0-0.9,0l0.8,0.5l0,0.4c-0.7-0.1-1.2,0-1.2,0l1.1,0.6l0,0.2c-0.5,0-0.9,0-0.9,0l0.9,0.5l0,0.1
		c-0.8-0.1-1.4-0.1-1.4-0.1l1.3,0.7l0,0.1c-0.7-0.1-1.2,0-1.2,0L91,77l0,0.2c-0.7-0.1-1.3-0.1-1.3-0.1l1.2,0.7l0,0.1
		c-0.8-0.1-1.5-0.1-1.5-0.1l0.7,0.4c-0.2,0-0.3,0-0.3,0l1,0.5l0,0.2c-0.6-0.1-1.1,0-1.1,0l1.1,0.6l0,0.7C90.1,80,89.6,80,89.6,80
		l1.2,0.6l0,0.3c-0.8-0.1-1.5-0.1-1.5-0.1l1.4,0.8l0,0.4C89.8,82,89,82,89,82l1.6,0.8l0,0.5c-0.8-0.1-1.5-0.1-1.5-0.1l1.5,0.8l0,0.3
		c-0.8-0.1-1.4-0.1-1.4-0.1l1.4,0.8l0,0.4c-0.7-0.1-1.4-0.1-1.4-0.1l1.3,0.7l0,0.4c-0.8-0.1-1.5-0.1-1.5-0.1l1.5,0.8l0,0.4
		c-0.9-0.1-1.8-0.1-1.8-0.1l1,0.6c-0.2,0-0.4,0-0.4,0l1.1,0.6l0,0.5c-0.6,0-1.1,0-1.1,0l1,0.6l0,0.3c-0.9-0.1-1.7-0.1-1.7-0.1
		l1.7,0.9l0,0.1c-0.7-0.1-1.2,0-1.2,0l1.2,0.6l0,0.6c-1-0.2-1.9-0.1-1.9-0.1l1.8,1l0,0.2c-0.9-0.1-1.8-0.1-1.8-0.1l1.7,0.9
		c-0.5,0-0.9,0-0.9,0l0.8,0.4c-0.5,0-0.8,0-0.8,0l0.9,0.5l0,0.2c-0.5,0-0.9,0-0.9,0l0.5,0.3c-0.3,0-0.5,0-0.5,0l0.8,0.5l0,0.3
		c-0.5,0-0.8,0-0.8,0l0.5,0.3c-0.3,0-0.5,0-0.5,0l0.8,0.4l0,0.2c-0.4,0-0.8,0-0.8,0l0.4,0.2c-0.5,0-0.8,0-0.8,0l1.1,0.6l0,0.3
		c-0.4,0-0.7,0-0.7,0l0.6,0.4l0,0.2c-0.4,0-0.6,0-0.6,0l0,0c-0.5,0-0.8,0-0.8,0l1.4,0.8l0,0.3c-0.6,0-1,0-1,0l0,0
		c-0.2,0-0.3,0-0.3,0l1.3,0.7l0,0.4c0,0-0.1,0-0.1,0c-0.5-0.2-0.9-0.3-0.9-0.3l0.3,0.3c-0.3,0-0.6,0-0.6,0l1.1,0.6l0.1,0.1l0,0.4
		c-0.8-0.4-1.6-0.7-1.6-0.7l1.3,1.4l-0.4,0.4c-0.5-0.5-0.9-0.8-0.9-0.8l0.5,1.2l-0.3,0.3c-0.4-0.4-0.8-0.7-0.8-0.7l0.3,0.7
		c-0.4-0.4-0.7-0.7-0.7-0.7l0.5,1.3l-0.3,0.3c-0.4-0.5-0.8-0.8-0.8-0.8l0.5,1.1c-0.5-0.5-0.9-0.9-0.9-0.9l0.5,1.2l-0.2,0.2
		c-0.6-0.6-1.1-1.1-1.1-1.1l0.6,1.5l-0.3,0.3c-0.5-0.6-1-1-1-1l0.6,1.4l-0.5,0.5c-0.5-0.6-1-1.1-1-1.1l0.3,0.7
		c-0.2-0.2-0.4-0.4-0.4-0.4l0.5,1.3l-0.1,0.1c-0.6-0.8-1.3-1.3-1.3-1.3l0.7,1.7c-0.5-0.6-1-1-1-1l0.7,1.6l-0.6,0.6
		c-0.6-0.7-1.3-1.3-1.3-1.3l0.7,1.8l-0.4,0.4c-0.5-0.6-1-1.1-1-1.1l0.6,1.5l-0.3,0.3c-0.5-0.6-1-1-1-1l0.6,1.4l0,0
		c-0.6-0.5-1.2-0.9-1.2-0.9l0.8,1.3l-0.2,0.2c-0.5-0.4-1-0.7-1-0.7l0.6,1l-0.1,0.1c-0.6-0.5-1.2-0.8-1.2-0.8l0.8,1.2l-0.8,0.8
		l-0.1,0.3c-0.5-0.1-0.9-0.2-0.9-0.2l0.7,0.6l-0.3,1c-0.8-0.2-1.5-0.3-1.5-0.3l1.3,1l-0.3,0.9c-0.9-0.3-1.6-0.4-1.6-0.4l1.4,1.1
		l-0.2,0.5c-0.6-0.2-1.1-0.2-1.1-0.2l0.9,0.7l-0.2,0.5c-0.8-0.3-1.6-0.4-1.6-0.4l0.9,0.7c-0.2,0-0.2,0-0.2,0l0.7,0.5l-0.1,0.3
		c-0.8-0.3-1.6-0.4-1.6-0.4l1.3,1c-0.4-0.1-0.7-0.1-0.7-0.1l0.7,0.5l-0.2,0.7c-0.3-0.1-0.4-0.1-0.4-0.1l0.4,0.3l0,0.1
		c-0.8-0.3-1.6-0.4-1.6-0.4l1.3,1c-0.6-0.2-1.1-0.2-1.1-0.2l1.1,0.8l-0.1,0.2c-0.9-0.3-1.8-0.4-1.8-0.4l1.1,0.8
		c-0.3-0.1-0.5-0.1-0.5-0.1l0.4,0.3c-0.8-0.2-1.4-0.3-1.4-0.3l1.7,1.3l-0.1,0.3c-0.6-0.1-1-0.2-1-0.2l0.5,0.4c-0.6-0.1-1-0.2-1-0.2
		l1.3,1l-0.1,0.4c-0.4-0.1-0.6-0.1-0.6-0.1l0.5,0.4l0,0.2c-0.9-0.3-1.7-0.4-1.7-0.4l1,0.8c-0.3-0.1-0.5-0.1-0.5-0.1l0.8,0.6
		l-0.1,0.4c-0.8-0.2-1.4-0.3-1.4-0.3l0.5,0.4c-0.2,0-0.3-0.1-0.3-0.1l0.2,0.2c-0.5-0.1-0.9-0.2-0.9-0.2l1.5,1.2l0,0
		c-0.5-0.1-0.9-0.2-0.9-0.2l0.7,0.6l-0.1,0.3c-0.7-0.2-1.3-0.3-1.3-0.3l1.1,0.8l-0.1,0.2c-0.9-0.3-1.7-0.4-1.7-0.4l0.2,0.2
		c-0.1,0-0.2,0-0.2,0l1.4,1.1l-0.1,0.4c-0.7-0.2-1.3-0.3-1.3-0.3l0.8,0.6c-1-0.4-2.1-0.5-2.1-0.5l1.2,0.9c-0.7-0.2-1.4-0.3-1.4-0.3
		l2,1.6l-0.1,0.2c-0.9-0.3-1.8-0.4-1.8-0.4l1.6,1.2l-0.9,2.8l2-0.6c0.4,2.5,1.1,5.3,1.1,5.3l-0.4-5.5l0.7-0.2c0.4,2.4,1,4.8,1,4.8
		l-0.4-5l0,0c0.4,2.3,1,4.6,1,4.6l-0.4-4.8l0.1,0c0.4,2.1,0.9,4.1,0.9,4.1l-0.3-4.3c0.4,2,0.8,3.7,0.8,3.7l-0.3-3.9l0,0
		c0.4,1.8,0.8,3.3,0.8,3.3l-0.3-3.5l0.1,0c0.3,1.7,0.7,3.1,0.7,3.1l-0.2-3.2l0,0c0.3,1.6,0.7,2.9,0.7,2.9l-0.2-3l0.4-0.1l0.1-0.1
		c0.4,1.4,0.8,2.4,0.8,2.4l-0.5-2.9l0.2-0.2c0.5,1.5,0.9,2.7,0.9,2.7l-0.5-2.7c0.4,1.1,0.6,1.9,0.6,1.9l-0.5-2.7l0,0
		c0.6,1.9,1.1,3.4,1.1,3.4l-0.7-4.1l0.1-0.2c0.6,2.2,1.4,4.4,1.4,4.4l-0.9-5.2l0.1-0.1c0.6,2.4,1.5,4.8,1.5,4.8l-0.9-5.5
		c0.6,2.5,1.6,5.1,1.6,5.1l-1-5.9c0.6,2.7,1.9,6.2,1.9,6.2l-0.6-3.3l1,2.5l0.2-1.4c0.3,1.7,0.7,3.1,0.7,3.1l-0.2-3.3
		c0.3,1.3,0.5,2.3,0.5,2.3l-0.4-6.3l0,0c0.4,2.5,1.1,5.3,1.1,5.3l-0.3-4.5c0.4,2.3,1,4.5,1,4.5l-0.2-2.9c0.4,2.1,0.9,3.9,0.9,3.9
		l-0.2-2.9l0.2,0.5c0.4,1.8,0.8,3.4,0.8,3.4l-0.1-2.2l0.6,1.3l0.2-1.4c0.2,1.3,0.4,2.3,0.4,2.3l0-4.6l0,0c0.2,2.2,0.6,4.1,0.6,4.1
		l0-4c0.2,1.4,0.4,2.5,0.4,2.5l0-6.1l0,0.1c0,2.8,0.7,7,0.7,7l0-4.7l0.4,1.2c0.2,2.3,0.6,4.4,0.6,4.4l0-2.5l0.8,2.6l1.1-5.2
		c0,1.3,0.1,2.3,0.1,2.3l1-6.9l0.1-0.3l0,0l0-0.1l0.1-0.1c-0.1,2.3,0,4.6,0,4.6l0.6-4.5c0,1.5,0.1,2.7,0.1,2.7l0.6-4.5
		c0,1.7,0,3.1,0,3.1l0.7-5l0.3-0.5c0,1.9,0,3.5,0,3.5l0.7-4.7l0.2-0.4c0,2,0,3.8,0,3.8l0.6-4.5c0,1.7,0,3.1,0,3.1l0.6-4.6
		c0,1.9,0,3.6,0,3.6l0.7-5l0.2-0.4c-0.1,2.3,0,4.5,0,4.5l0.8-6l0.1-0.2c0.3,2.5,0.8,5,0.8,5l-0.2-6.1l0.1-0.2
		c0.2,2.7,0.9,5.8,0.9,5.8l-0.1-4l0.1,0.4c0.3,2.2,0.7,4.3,0.7,4.3l-0.1-2c0.3,1.7,0.5,3,0.5,3l-0.1-1.9l0.7,2.1l-0.2-4.4
		c0.2,1.5,0.5,2.7,0.5,2.7l-0.1-5c0.5,2.2,1.1,4.2,1.1,4.2l-0.4-4.3c0.5,2.5,1.2,5.1,1.2,5.1l-0.4-3.7c0.5,2.1,1,4,1,4l-0.3-3
		l0.5,0.8c0.3,1.4,0.6,2.4,0.6,2.4l-0.2-1.6l0.4,0.6c0.2,0.9,0.3,1.5,0.3,1.5l0-1.1l0.3,0.4l0.2-1.6c0.1,0.8,0.2,1.3,0.2,1.3l0-2.6
		c0.1,0.7,0.2,1.2,0.2,1.2l-0.1-3.5l0-0.3c0.2,1.6,0.5,2.8,0.5,2.8l-0.1-4.5c0.2,1.2,0.4,2,0.4,2l0-2c0.3,1.2,0.5,2.1,0.5,2.1
		l-0.3-3.4c0.4,2.2,1,4.3,1,4.3l-0.3-3.3l0,0.1c0.4,2.1,0.9,4.1,0.9,4.1l-0.2-2.6l0.1,0.2c0.4,1.9,0.8,3.5,0.8,3.5l-0.2-2.2l1,2
		l0.1-2c0.4,0.9,0.7,1.6,0.7,1.6l-0.6-2.7l0-0.3c0.5,1.4,1,2.4,1,2.4l-0.9-4l0-0.7c0.6,1.5,1.1,2.8,1.1,2.8l-1-4.6l0-0.1
		c0.5,1.5,1,2.6,1,2.6l-1-4.3l0-0.2l0-0.6c0.6,1.7,1.3,3.2,1.3,3.2l-1-4.6c0.5,1.5,1,2.6,1,2.6l-1.2-5.1c0.7,1.9,1.4,3.6,1.4,3.6
		l-1.1-5c0.6,1.6,1.1,2.8,1.1,2.8l-1.1-5c0.5,1.3,0.9,2.2,0.9,2.2l-1.3-5.6l0-0.1c0.7,2,1.5,3.9,1.5,3.9l-1.1-5l0.2,0.2
		c0.7,1.9,1.4,3.6,1.4,3.6l-0.7-2.9l0.3,0.3c1.3,1.8,2.6,3.5,2.6,3.5l-1.2-2.2l2.3,2.1l-1.5-4.5c1.2,1.7,2.3,3.1,2.3,3.1l-3.1-5.9
		c1.6,2.1,3.8,4.3,3.8,4.3l-3.1-4.7l4.4,4.7l-0.5-1.7c0.5,0.6,0.8,1,0.8,1l-1.1-2.1l-0.7-2.7c1.2,1.9,2.6,3.8,2.6,3.8l-3-6.1
		c1.3,2.1,3.1,4.2,3.1,4.2l-2-3.8l3.5,4.3l-0.8-3.8c0.6,0.7,0.9,1.2,0.9,1.2l-1.2-2.3l-0.6-2.8c0.7,0.9,1.2,1.5,1.2,1.5l-1.4-2.6
		l-0.3-1.6c0.5,0.7,0.9,1.1,0.9,1.1l-1.1-2l-0.3-1.3c0.9,1.3,1.7,2.3,1.7,2.3l-2.1-4.2l-0.2-1c0.9,1.2,1.7,2.1,1.7,2.1l-2-3.7
		l-0.3-1.2c1,1.3,1.9,2.4,1.9,2.4l-2.2-4.1l-0.3-1.6c1.5,1.6,3,3,3,3l-3.4-4.6l0-0.1c1.4,1.5,2.9,2.8,2.9,2.8l-3.2-4.3l-0.1-0.6
		c1.4,1.6,2.9,2.9,2.9,2.9l-2.7-3.7c1.9,1.7,4.7,3.4,4.7,3.4l-3.5-3.4l5,3.6l-2.4-4.2c1.3,1.4,2.5,2.5,2.5,2.5l-4.3-5.9l0.8,0.6
		c1.7,2,5.4,4.7,5.4,4.7l-2-2.2l3.4,2.5l-2.9-6.2c1.3,1.6,2.7,3,2.7,3l-3.8-5.8l1.9,1.5c1.5,1.8,3.2,3.6,3.2,3.6l-1.4-2.2l3.3,2.5
		L131.2,63.9z"/>
	<path class="st3" d="M131.2,63.9c0.7,0.8,1.2,1.3,1.2,1.3l-1.7-2.7l-0.7-1.7c1,1.1,1.9,2,1.9,2l-2.7-4.1l-0.5-1.3l-0.2-0.5
		c1.4,1.7,3,3.3,3,3.3l-3.6-5.6c1.2,1.4,2.3,2.5,2.3,2.5l-3.5-5.3l-0.1-0.4c1.5,2,3.6,4.1,3.6,4.1l-4.8-7.3l0-0.1
		c1.5,2,3.5,3.9,3.5,3.9l-4.1-6.2c1.4,1.6,2.8,3.1,2.8,3.1L125,45c1.1,1.3,2.1,2.3,2.1,2.3l-4.7-7.1l-0.4-1.1l-0.4,0.2
		c-0.3-0.5-0.7-0.8-0.9-1.1l6.6,22.3l-6.9-2.3l4.2,5.5l-5.4-1.8l2.9,5.2l-5.4-1.5l5.2,22.5h-2.8l0.8,5.3l-3.9-2.5l0.6,5.7l-3.1-2.8
		l-0.6,19.5l-3.4-3.3l-1.5,6.4L105,113l-1.2,3.6l-1.6-4.2l-8.5,13.3l-1.7,5.9l-2.6-4.9l-2.1,5.8l-4.2-5.4v4.3l-2.3-3.6l-4.9,6.4
		l-5,2.4l-1.3,0.4l-0.3,0.8l2-0.6c0.4,2.5,1.1,5.3,1.1,5.3l-0.4-5.5l0.7-0.2c0.4,2.4,1,4.8,1,4.8l-0.4-5l0,0c0.4,2.3,1,4.6,1,4.6
		l-0.4-4.8l0.1,0c0.4,2.1,0.9,4.1,0.9,4.1l-0.3-4.3c0.4,2,0.8,3.7,0.8,3.7l-0.3-3.9l0,0c0.4,1.8,0.8,3.3,0.8,3.3l-0.3-3.5l0.1,0
		c0.3,1.7,0.7,3.1,0.7,3.1l-0.2-3.2l0,0c0.3,1.6,0.7,2.9,0.7,2.9l-0.2-3l0.4-0.1l0.1-0.1c0.4,1.4,0.8,2.4,0.8,2.4l-0.5-2.9l0.2-0.2
		c0.5,1.5,0.9,2.7,0.9,2.7l-0.5-2.7c0.4,1.1,0.6,1.9,0.6,1.9l-0.5-2.7l0,0c0.6,1.9,1.1,3.4,1.1,3.4l-0.7-4.1l0.1-0.2
		c0.6,2.2,1.4,4.4,1.4,4.4l-0.9-5.2l0.1-0.1c0.6,2.4,1.5,4.8,1.5,4.8l-0.9-5.5c0.6,2.5,1.6,5.1,1.6,5.1l-1-5.9
		c0.6,2.7,1.9,6.2,1.9,6.2l-0.6-3.3l1,2.5l0.2-1.4c0.3,1.7,0.7,3.1,0.7,3.1l-0.2-3.3c0.3,1.3,0.5,2.3,0.5,2.3l-0.4-6.3l0,0
		c0.4,2.5,1.1,5.3,1.1,5.3l-0.3-4.5c0.4,2.3,1,4.5,1,4.5l-0.2-2.9c0.4,2.1,0.9,3.9,0.9,3.9l-0.2-2.9l0.2,0.5
		c0.4,1.8,0.8,3.4,0.8,3.4l-0.1-2.2l0.6,1.3l0.2-1.4c0.2,1.3,0.4,2.3,0.4,2.3l0-4.6l0,0c0.2,2.2,0.6,4.1,0.6,4.1l0-4
		c0.2,1.4,0.4,2.5,0.4,2.5l0-6.1l0,0.1c0,2.8,0.7,7,0.7,7l0-4.7l0.4,1.2c0.2,2.3,0.6,4.4,0.6,4.4l0-2.5l0.8,2.6l1.1-5.2
		c0,1.3,0.1,2.3,0.1,2.3l1-6.9l0.1-0.3l0,0l0-0.1l0.1-0.1c-0.1,2.3,0,4.6,0,4.6l0.6-4.5c0,1.5,0.1,2.7,0.1,2.7l0.6-4.5
		c0,1.7,0,3.1,0,3.1l0.7-5l0.3-0.5c0,1.9,0,3.5,0,3.5l0.7-4.7l0.2-0.4c0,2,0,3.8,0,3.8l0.6-4.5c0,1.7,0,3.1,0,3.1l0.6-4.6
		c0,1.9,0,3.6,0,3.6l0.7-5l0.2-0.4c-0.1,2.3,0,4.5,0,4.5l0.8-6l0.1-0.2c0.3,2.5,0.8,5,0.8,5l-0.2-6.1l0.1-0.2
		c0.2,2.7,0.9,5.8,0.9,5.8l-0.1-4l0.1,0.4c0.3,2.2,0.7,4.3,0.7,4.3l-0.1-2c0.3,1.7,0.5,3,0.5,3l-0.1-1.9l0.7,2.1l-0.2-4.4
		c0.2,1.5,0.5,2.7,0.5,2.7l-0.1-5c0.5,2.2,1.1,4.2,1.1,4.2l-0.4-4.3c0.5,2.5,1.2,5.1,1.2,5.1l-0.4-3.7c0.5,2.1,1,4,1,4l-0.3-3
		l0.5,0.8c0.3,1.4,0.6,2.4,0.6,2.4l-0.2-1.6l0.4,0.6c0.2,0.9,0.3,1.5,0.3,1.5l0-1.1l0.3,0.4l0.2-1.6c0.1,0.8,0.2,1.3,0.2,1.3l0-2.6
		c0.1,0.7,0.2,1.2,0.2,1.2l-0.1-3.5l0-0.3c0.2,1.6,0.5,2.8,0.5,2.8l-0.1-4.5c0.2,1.2,0.4,2,0.4,2l0-2c0.3,1.2,0.5,2.1,0.5,2.1
		l-0.3-3.4c0.4,2.2,1,4.3,1,4.3l-0.3-3.3l0,0.1c0.4,2.1,0.9,4.1,0.9,4.1l-0.2-2.6l0.1,0.2c0.4,1.9,0.8,3.5,0.8,3.5l-0.2-2.2l1,2
		l0.1-2c0.4,0.9,0.7,1.6,0.7,1.6l-0.6-2.7l0-0.3c0.5,1.4,1,2.4,1,2.4l-0.9-4l0-0.7c0.6,1.5,1.1,2.8,1.1,2.8l-1-4.6l0-0.1
		c0.5,1.5,1,2.6,1,2.6l-1-4.3l0-0.2l0-0.6c0.6,1.7,1.3,3.2,1.3,3.2l-1-4.6c0.5,1.5,1,2.6,1,2.6l-1.2-5.1c0.7,1.9,1.4,3.6,1.4,3.6
		l-1.1-5c0.6,1.6,1.1,2.8,1.1,2.8l-1.1-5c0.5,1.3,0.9,2.2,0.9,2.2l-1.3-5.6l0-0.1c0.7,2,1.5,3.9,1.5,3.9l-1.1-5l0.2,0.2
		c0.7,1.9,1.4,3.6,1.4,3.6l-0.7-2.9l0.3,0.3c1.3,1.8,2.6,3.5,2.6,3.5l-1.2-2.2l2.3,2.1l-1.5-4.5c1.2,1.7,2.3,3.1,2.3,3.1l-3.1-5.9
		c1.6,2.1,3.8,4.3,3.8,4.3l-3.1-4.7l4.4,4.7l-0.5-1.7c0.5,0.6,0.8,1,0.8,1l-1.1-2.1l-0.7-2.7c1.2,1.9,2.6,3.8,2.6,3.8l-3-6.1
		c1.3,2.1,3.1,4.2,3.1,4.2l-2-3.8l3.5,4.3l-0.8-3.8c0.6,0.7,0.9,1.2,0.9,1.2l-1.2-2.3l-0.6-2.8c0.7,0.9,1.2,1.5,1.2,1.5l-1.4-2.6
		l-0.3-1.6c0.5,0.7,0.9,1.1,0.9,1.1l-1.1-2l-0.3-1.3c0.9,1.3,1.7,2.3,1.7,2.3l-2.1-4.2l-0.2-1c0.9,1.2,1.7,2.1,1.7,2.1l-2-3.7
		l-0.3-1.2c1,1.3,1.9,2.4,1.9,2.4l-2.2-4.1l-0.3-1.6c1.5,1.6,3,3,3,3l-3.4-4.6l0-0.1c1.4,1.5,2.9,2.8,2.9,2.8l-3.2-4.3l-0.1-0.6
		c1.4,1.6,2.9,2.9,2.9,2.9l-2.7-3.7c1.9,1.7,4.7,3.4,4.7,3.4l-3.5-3.4l5,3.6l-2.4-4.2c1.3,1.4,2.5,2.5,2.5,2.5l-4.3-5.9l0.8,0.6
		c1.7,2,5.4,4.7,5.4,4.7l-2-2.2l3.4,2.5l-2.9-6.2c1.3,1.6,2.7,3,2.7,3l-3.8-5.8l1.9,1.5c1.5,1.8,3.2,3.6,3.2,3.6l-1.4-2.2l3.3,2.5
		L131.2,63.9z"/>
	<path class="st1" d="M95.9,25.8l2.8-2c0,0-1.7,0.6-3.6,1.3l3-2.2c0,0-2.3,0.8-4.6,1.7l2.4-4.3c0,0-1.5,1.4-3.1,3l1.1-2
		c0,0-1.2,1.1-2.6,2.5l-0.4-0.2l1.8-3.2c0,0-1.2,1.1-2.6,2.5l0.3-1.2l1.4-2.4c0,0-1.7,1.5-3.4,3.2l0,0l0.4-1.6c0,0-0.2,0.4-0.6,1.1
		l0.9-3.7c0,0-0.6,1.1-1.4,2.5l0.6-2.5c0,0-0.9,1.5-1.9,3.3l0,0l0.9-3.7c0,0-0.4,0.7-1,1.6l0.3-1.2c0,0-0.6,1.1-1.4,2.5l0-2.7
		c0,0-0.4,1.1-0.8,2.5l-0.2-0.1l0-2.9c0,0-0.3,1-0.8,2.3l0-2.5c0,0-0.3,0.9-0.7,2.1l0-4c0,0-0.7,2.1-1.4,4.3l0,0l-1.1-4
		c0,0,0,0.8-0.1,2l-0.2-0.9c0,0-0.1,1.5-0.1,3.3l-0.2,0l-0.7-2.6c0,0,0,0.5-0.1,1.2l-0.4-1.4c0,0-0.1,1.4-0.1,3.2l-0.2,0l-0.8-3
		c0,0,0,1-0.1,2.3l-0.6-2.3c0,0-0.1,1.2-0.1,2.9l-0.8-2.9c0,0-0.1,1.6-0.1,3.6l0,0l-1-3.8c0,0-0.1,1.7-0.1,3.7l-0.8-3.1
		c0,0-0.1,1.7-0.1,3.7l-0.3,0.1l-0.9-3.3c0,0-0.1,1.2-0.1,2.8l-0.8-2.8c0,0-0.1,1.7-0.1,3.7l-0.2,0.1l-1.2-4.3c0,0-0.1,2.2-0.2,4.6
		l0,0l-0.8-3c0,0-0.1,1.4-0.1,3.2l-0.1,0L67,20c0,0,0.1,1.3,0.3,2.9l0,0l-1.1-2.4c0,0,0.1,1.1,0.3,2.6l-0.2,0.1l-1.1-2.6
		c0,0,0.1,1.2,0.3,2.8l-0.2,0.1l-0.2-1.8c0,0-0.1,0.3-0.2,0.8l-0.2-1.8c0,0-0.2,1.1-0.6,2.5L64,21.4c0,0-0.2,0.7-0.4,1.8l-0.2-2.7
		c0,0-0.3,1.3-0.6,2.9l0,0l-1-4.1c0,0-0.1,0.9-0.2,2.1l-0.7-3c0,0-0.2,2.1-0.3,4.5l-0.2,0l-1.1-4.4c0,0-0.1,1.6-0.3,3.6l-1-4.1
		c0,0-0.2,2.1-0.3,4.3l-0.3-0.1l-1.1-4.7c0,0-0.1,1.8-0.3,3.8l-1.1-4.7c0,0-0.2,1.9-0.3,4.1l-1-4.3c0,0-0.2,2.3-0.3,4.8L53.2,21
		l-1.6-6.6c0,0-0.3,3.5-0.4,6.4l-1.8-3.3c0,0,0.3,1.7,0.7,3.7l-1.3-2.4c0,0,0.3,1.7,0.7,3.7l-1.4-2.6c0,0,0.2,1.1,0.5,2.6l-1.2-2.3
		c0,0,0.2,1.3,0.6,3l-1-1.1c0,0,0.4,0.8,0.9,1.9l-2.4-2.6c0,0,0.5,1.1,1.2,2.5l-1.4-1.6c0,0,0.3,0.7,0.7,1.6l-0.5-0.5
		c0,0,0.2,0.5,0.6,1.4l-2.4-2.7c0,0,0.8,1.7,1.7,3.7l0,0l-2.7-1.6c0,0,0.8,0.9,2,2.1l-0.1,0.1l-3.8-2.2c0,0,1.2,1.4,2.7,2.9l0,0
		l-2.7-1.6c0,0,0.7,0.8,1.7,1.8l-2.8-1c0,0,1,0.8,2.4,1.7l-0.1,0.1l-3.2-1.1c0,0,1,0.7,2.3,1.7l-0.4,0.3l0.5,0.3l-2.2,1.9
		c0,0,1.1-0.5,2.2-1l-1.6,1.4c0,0,1.5-0.7,2.8-1.3l-2,1.7c0,0,1.3-0.6,2.6-1.2l-1.7,1.5c0,0,0.4-0.2,1-0.4l-1,0.9
		c0,0,1.9-0.8,3.2-1.5l-2.2,1.9c0,0,0.7-0.3,1.5-0.7l-0.8,0.7c0,0,1-0.4,2-0.9l-1.5,1.3c0,0,1.4-0.6,2.7-1.2l-1.8,2.3
		c0,0,0.7-0.5,1.5-1.1l-0.8,1.1c0,0,1.3-0.9,2.4-1.7l-1.6,2.1c0,0,1.3-0.9,2.4-1.8l-1.7,2.2c0,0,0.8-0.6,1.7-1.2l-0.9,1.2
		c0,0,0.7-0.5,1.6-1.1l-1.4,1.8c0,0,1.4-1,2.6-1.9l-1.8,2.3c0,0,1.3-0.9,2.4-1.7L49.3,37c0,0,0.6-0.4,1.3-0.9l-0.9,1.1
		c0,0,0.8-0.6,1.8-1.3l-1.2,1.6c0,0,0.8-0.5,1.6-1.2l-1,1.3c0,0,1.1-0.8,2.2-1.6l-0.6,0.8c0,0,0.4-0.3,0.9-0.6l-1.1,1.4
		c0,0,0.8-0.5,1.6-1.2l-1.6,2.1c0,0,1.1-0.7,2.1-1.5l-1.3,1.7c0,0,0.9-0.6,1.9-1.4l-1.3,1.7c0,0,0.8-0.5,1.6-1.2L55,38.7
		c0,0,0.4-0.6,1-1.3c0,0,0,0,0,0l-0.8,2.4c0,0,0.8-1.1,1.6-2.2L55.9,40c0,0,0.6-0.8,1.3-1.8l-0.7,2c0,0,0.3-0.4,0.7-1L57,40
		c0,0,0.3-0.4,0.7-1l-0.4,1.2c0,0,0.3-0.5,0.8-1.1l-0.5,1.4c0,0,0.5-0.7,1.1-1.5l-0.7,1.9c0,0,0.7-0.9,1.4-1.9l0,0l-0.8,2.4
		c0,0,0.8-1,1.5-2.1l0,0l-0.8,2.2c0,0,0.7-0.9,1.4-1.9l0,0l-0.5,1.4c0,0,0.4-0.5,0.9-1.2l0,0l-0.6,1.9c0,0,0.6-0.7,1.2-1.6l-0.7,1.9
		c0,0,0.5-0.7,1.1-1.5l0,2.1c0,0,0.1-0.5,0.3-1.1l0,0.5l0,0.1c0,0,0,0,0,0l0,0.6c0,0,0.1-0.4,0.3-1c0.1-0.2,0.2-0.3,0.4-0.5
		l-0.4,1.2c0,0,0.4-0.5,0.8-1.2l-0.5,1.5c0,0,0.3-0.4,0.7-1l-0.4,1.2c0,0,0.4-0.6,1-1.3l0,0l-0.6,1.7c0,0,0.2-0.3,0.6-0.8l-0.3,0.8
		c0,0,0.4-0.6,0.9-1.3l0.1,0.1L65,42.9c0,0,0.1-0.2,0.3-0.4l0,1c0,0,0.1-0.4,0.3-1l0,1c0,0,0.1-0.4,0.3-1.1l0,0l0.1-0.1l0,1.2
		c0,0,0.2-0.6,0.4-1.4l0.1-0.1l0.4,1.4c0,0,0.1-0.7,0.1-1.6l0.3,1.4c0,0,0.1-0.8,0.1-1.7l0.3,1.3c0,0,0-0.6,0.1-1.4l0.3,1.4
		c0,0,0.1-0.8,0.1-1.8l0.1,0l0.3,1.3c0,0,0-0.7,0.1-1.6l0,0l0.3,1.2c0,0,0-0.6,0.1-1.4l0,0l0.5,1c0,0-0.1-0.5-0.2-1.2l0.2-0.1
		l0.7,1.3c0,0-0.1-0.6-0.3-1.5l0.2-0.1l0.9,1.6c0,0-0.1-0.7-0.3-1.6l0.6,1.1c0,0-0.1-0.6-0.3-1.4l0.8,1.4c0,0-0.1-0.5-0.2-1.2
		l0.6,1.1c0,0-0.2-0.8-0.4-1.8l0,0l0.8,1.4c0,0-0.1-0.7-0.3-1.6l0.1,0l0.8,1.4c0,0-0.1-0.8-0.3-1.7l0.1,0l0.9,1.6
		c0,0-0.2-0.8-0.4-1.8l0.9,1.6c0,0-0.1-0.6-0.3-1.4l0.6,1.1c0,0-0.1-0.3-0.2-0.8l0.5,0.8c0,0-0.1-0.5-0.2-1.1l0.6,1.1
		c0,0-0.2-0.8-0.4-1.8l0.8,1.5c0,0-0.2-1-0.4-2l0,0l1.4,1.9c0,0-0.3-0.8-0.6-1.7l0.9,1.2c0,0-0.1-0.4-0.3-1l0.8,1.1
		c0,0-0.2-0.6-0.5-1.4l0.8,1.1c0,0-0.1-0.2-0.2-0.6l0.2,0.3c0,0-0.2-0.6-0.5-1.4l0.9,1.2c0,0-0.2-0.4-0.4-1l0.6,0.9
		c0,0-0.1-0.3-0.3-0.7l0.5,0.7c0,0-0.3-0.8-0.6-1.8l0,0l1.1,1.4c0,0-0.2-0.5-0.4-1.3l0.9,1.2c0,0-0.3-0.8-0.6-1.8l0,0l1.3,1.8
		c0,0-0.3-1-0.8-2.1l0.1,0l1.4,1.9c0,0-0.2-0.7-0.5-1.5l1.1,1.5c0,0-0.3-0.9-0.7-1.9l1.1,1.5c0,0-0.3-0.8-0.6-1.8l1.3,1.8
		c0,0-0.2-0.6-0.5-1.3l0.5,0.6c0,0-0.3-1-0.7-2l0.1,0l1.4,1.9c0,0-0.3-1-0.8-2.1l1.4,1.9c0,0-0.2-0.7-0.5-1.5l0.8,1.1
		c0,0-0.2-0.5-0.4-1.2l1.2,1.6c0,0-0.2-0.7-0.5-1.5l0.5,0.7c0,0-0.1-0.3-0.2-0.7l0.8,1c0,0-0.3-1-0.7-2.1l0.9,1.2
		c0,0-0.1-0.3-0.3-0.8l1,1.4c0,0-0.5-1.5-1-2.8l0.1,0l1.3,1.7c0,0-0.2-0.5-0.4-1.2l0.7,0.5c0,0-0.4-0.5-0.9-1.2c0,0,0,0,0-0.1
		l0.2-0.1l1.3,1.7c0,0-0.2-0.5-0.4-1.2l0.9,1.2c0,0-0.1-0.3-0.3-0.7l0.3,0.3c0,0-0.2-0.7-0.5-1.5l1,1.4c0,0-0.3-0.8-0.6-1.7l1.4,1
		c0,0-0.4-0.5-0.8-1.1l1.5,1.1c0,0-0.3-0.4-0.7-1l1.2,0.9c0,0-0.7-1-1.5-1.9l0,0l2,1.4c0,0-0.4-0.5-0.9-1.1l0.9,0.6
		c0,0-0.4-0.5-0.9-1.1c0.1,0,0.1-0.1,0.2-0.1l0.1-0.1l1.2,0.8c0,0-0.4-0.5-0.8-1.1l1.1,0.8c0,0-0.3-0.5-0.8-1.1l0.1-0.1l1.4,1
		c0,0-0.5-0.6-1-1.3l0.1,0l1.6,1.1c0,0-0.5-0.7-1.1-1.4l0.1-0.1l1.8,1.2c0,0-0.6-0.7-1.2-1.5l3.1-1.6L95.9,25.8z"/>
	<path class="st1" d="M66,140.6l0.5-0.3l-0.3,0l0.3-0.4c0,0-0.4,0.2-0.6,0.4l0.1-0.6c0,0-0.3,0.4-0.4,0.7c0,0,0,0,0,0l0.1-0.7
		c0,0-0.2,0.2-0.3,0.5l0.1-0.5c0,0-0.3,0.5-0.4,0.7l0.1-0.7c0,0-0.2,0.2-0.3,0.5l0.1-0.5c0,0-0.2,0.2-0.3,0.5l0.1-0.5
		c0,0-0.2,0.2-0.3,0.5l0.1-0.5c0,0-0.2,0.2-0.3,0.5l0.1-0.5c0,0-0.2,0.2-0.3,0.5l0.1-0.5c0,0-0.2,0.2-0.3,0.5l0.1-0.5
		c0,0-0.2,0.4-0.4,0.6l0.1-0.6c0,0-0.1,0.2-0.3,0.4l0.1-0.4c0,0-0.1,0.1-0.2,0.3l0-0.3c0,0-0.1,0.1-0.2,0.3l0-0.2
		c0,0-0.1,0.2-0.3,0.4l0.1-0.6c0,0-0.2,0.3-0.3,0.5l0.1-0.5c0,0-0.4,0.6-0.4,0.8c0,0,0,0,0,0.1l0,0l0.1-0.6c0,0-0.1,0.2-0.3,0.4
		l0.1-0.4c0,0-0.2,0.3-0.4,0.6l-0.1,0l0.1-0.6c0,0-0.2,0.3-0.4,0.6l0,0l0.1-0.6c0,0-0.2,0.2-0.3,0.5l0.1-0.5c0,0-0.2,0.4-0.4,0.6
		l0,0l0.1-0.5c0,0-0.1,0.2-0.2,0.3l0.1-0.5c0,0-0.3,0.4-0.4,0.7l0.1-0.6c0,0-0.1,0.2-0.3,0.4l0.1-0.4c0,0-0.2,0.3-0.3,0.5l0,0
		l0.1-0.6c0,0-0.2,0.3-0.4,0.6l-0.1,0l0.1-0.6c0,0-0.1,0.1-0.2,0.3l0-0.3c0,0-0.2,0.3-0.3,0.6L59,140c0,0-0.2,0.3-0.3,0.5l0,0l0-0.2
		c0,0-0.1,0.1-0.2,0.2l0,0l0.1-0.5c0,0-0.2,0.3-0.3,0.5l0,0l0.1-0.5c0,0-0.2,0.3-0.3,0.5l-0.1,0l0.1-0.5c0,0-0.1,0.2-0.2,0.4
		l0.1-0.4c0,0-0.2,0.3-0.3,0.5l0,0l0.1-0.5c0,0-0.2,0.3-0.3,0.5l0,0l0.1-0.5c0,0-0.1,0.2-0.2,0.3l0-0.3c0,0-0.2,0.2-0.3,0.5l0,0
		l0.1-0.5c0,0-0.2,0.2-0.3,0.5l0.1-0.5c0,0-0.2,0.2-0.3,0.5l0.1-0.5c0,0-0.2,0.3-0.3,0.5l0,0l0.1-0.5c0,0-0.2,0.2-0.3,0.4l0.1-0.4
		c0,0-0.2,0.2-0.3,0.5l-0.1,0l0.1-0.5c0,0-0.2,0.2-0.3,0.5l0.1-0.5c0,0-0.2,0.3-0.3,0.5l0,0l0-0.5c0,0-0.1,0.2-0.1,0.4l0-0.3
		c0,0-0.1,0.2-0.1,0.4l0-0.4c0,0-0.1,0.2-0.1,0.4l0-0.4c0,0-0.1,0.2-0.1,0.4l0-0.3c0,0,0,0.1-0.1,0.2l0-0.3c0,0,0,0.1-0.1,0.3l0-0.2
		c0,0-0.1,0.2-0.1,0.3l0,0l0-0.3c0,0-0.1,0.2-0.1,0.3l0,0l0-0.3c0,0-0.1,0.2-0.1,0.3l0,0l0-0.3c0,0,0,0.1-0.1,0.3l0,0l0-0.3
		c0,0,0,0.1-0.1,0.3l0,0l0-0.4c0,0-0.1,0.2-0.1,0.4l0,0l0-0.4c0,0-0.1,0.2-0.1,0.4l0-0.4c0,0-0.1,0.2-0.1,0.4l0-0.4
		c0,0-0.1,0.2-0.1,0.4l0-0.4c0,0-0.1,0.2-0.1,0.4l0-0.4c0,0-0.1,0.2-0.2,0.5l0,0l0-0.5c0,0-0.1,0.2-0.1,0.4l0-0.3
		c0,0-0.1,0.2-0.1,0.4l0-0.4c0,0-0.1,0.2-0.1,0.4l0-0.2c0,0,0,0.1-0.1,0.2l0-0.4c0,0-0.1,0.2-0.1,0.4l0-0.4c0,0,0,0.1-0.1,0.2l0-0.2
		c0,0-0.1,0.2-0.1,0.4l0,0l0-0.3c0,0-0.1,0.2-0.1,0.3l0,0l0-0.4c0,0-0.1,0.2-0.1,0.4l0,0l-0.1-0.5c0,0-0.1,0.2-0.1,0.4l0-0.3
		c0,0-0.1,0.2-0.1,0.4l0,0l0-0.4c0,0-0.1,0.2-0.1,0.4l0-0.4c0,0-0.1,0.2-0.1,0.4l0-0.4c0,0-0.1,0.2-0.1,0.4l0-0.4c0,0,0,0.1-0.1,0.2
		l0-0.2c0,0-0.1,0.2-0.2,0.5l0,0l0-0.3c0,0,0,0.1-0.1,0.2l0-0.4c0,0-0.1,0.2-0.1,0.4l0-0.4c0,0-0.1,0.2-0.1,0.4l0,0l0-0.4
		c0,0-0.1,0.2-0.1,0.4l-0.1,0l0-0.4c0,0-0.1,0.2-0.1,0.4l0,0l0-0.4c0,0-0.1,0.2-0.1,0.4l-0.1,0l0-0.4c0,0,0,0.1-0.1,0.2l0-0.3
		c0,0-0.1,0.2-0.1,0.4l0-0.4c0,0,0,0.1-0.1,0.2l0-0.2c0,0-0.1,0.2-0.1,0.4l0-0.3c0,0-0.1,0.2-0.1,0.4l-0.1,0l0-0.3
		c0,0-0.1,0.1-0.1,0.3l-0.1,0l-0.2-0.4c0,0,0,0.2,0,0.4l-0.2-0.4c0,0,0,0.1,0,0.3l-0.2-0.4c0,0,0,0.2,0,0.4l-0.2-0.4
		c0,0,0,0.2,0,0.4l-0.2-0.4c0,0,0,0.2,0,0.4l-0.2-0.4c0,0,0,0.2,0,0.4l-0.2-0.4c0,0,0,0.1,0,0.3l-0.2-0.4c0,0,0,0.2,0,0.4l-0.2-0.4
		c0,0,0,0.2,0,0.4l-0.2-0.4c0,0,0,0.2,0,0.5l0,0l-0.2-0.5c0,0,0,0.1,0,0.2l-0.1-0.3c0,0,0,0.2,0,0.4l-0.2-0.4c0,0,0,0.2,0,0.4
		l-0.2-0.4c0,0,0,0.2,0,0.4l-0.2-0.4c0,0,0,0.2,0,0.5l-0.1,0l-0.2-0.6c0,0,0,0.2,0,0.4l-0.2-0.4c0,0,0,0.3,0,0.6l-0.1,0l-0.2-0.6
		c0,0,0,0.3,0,0.5l-0.2-0.5c0,0,0,0.3,0,0.5l0,0l-0.3-0.7c0,0,0,0.4,0,0.6l-0.1,0l-0.3-0.6c0,0,0,0.2,0,0.4l-0.2-0.4
		c0,0,0,0.2,0,0.4l-0.2-0.4c0,0,0,0.3,0,0.6l-0.3-0.6c0,0,0,0.3,0,0.6l-0.3-0.6c0,0,0,0.4,0,0.6l-0.2,0l-0.2-0.7
		c0,0-0.1,0.4-0.1,0.6l-0.2-0.6c0,0-0.1,0.3-0.1,0.6l-0.2-0.7c0,0-0.1,0.4-0.1,0.7l-0.1,0l-0.2-0.6c0,0-0.1,0.3-0.1,0.6l-0.1,0
		l-0.2-0.6c0,0-0.1,0.3-0.1,0.6l0,0l-0.2-0.6c0,0-0.1,0.3-0.1,0.6l0,0l-0.2-0.7c0,0-0.1,0.4-0.1,0.6l-0.1,0l-0.2-0.7
		c0,0-0.1,0.4-0.1,0.6l0,0l-0.2-0.6c0,0-0.1,0.3-0.1,0.6l-0.1,0l-0.2-0.6c0,0,0,0.2-0.1,0.4l-0.1-0.4c0,0-0.1,0.3-0.1,0.5l-0.1,0
		l-0.2-0.6c0,0-0.1,0.3-0.1,0.6l-0.1,0l-0.1-0.5c0,0,0,0.3-0.1,0.5l-0.2,0l-0.1-0.5c0,0,0,0.3-0.1,0.5l-0.2,0l-0.1-0.5
		c0,0,0,0.1-0.1,0.3l-0.1-0.4c0,0-0.1,0.3-0.1,0.5l-0.5-0.1l-0.1-0.4c0,0,0,0.2-0.1,0.4l-0.1,0l-0.3-0.4c0,0,0,0.2,0,0.4l0,0
		l-0.2-0.4c0,0,0,0.2,0,0.4l-0.1,0l-0.3-0.2c0,0,0,0.1,0.1,0.2l-0.3,0l0.3,0.3l-0.4,0.5c0,0,0.3-0.1,0.5-0.2l-0.3,0.4
		c0,0,0.3-0.1,0.5-0.2l-0.3,0.4c0,0,0.3-0.1,0.6-0.2l0,0l-0.3,0.3c0,0,0.2-0.1,0.3-0.1l-0.2,0.3c0,0,0.2-0.1,0.4-0.2l0.1,0.1
		c-0.1,1.4,0.1,4.5,0.1,4.5l0.8-3.6L37,141c-0.1,1.7,0.1,4.8,0.1,4.8l0.8-3.9l0,0c0,1.7,0.1,3.9,0.1,3.9l0.6-2.7
		c0,1.7,0.1,4.1,0.1,4.1l0.5-2.5c0.1,1.6,0.3,3.4,0.3,3.4L40,145c0.1,1.6,0.3,3.4,0.3,3.4l0.3-2.4c0.1,1.4,0.3,2.8,0.3,2.8l0.4-2.6
		c0.1,1.6,0.3,3.4,0.3,3.4l0.3-2.2c0.1,1.5,0.3,3.1,0.3,3.1l0.4-2.8c0.1,1.7,0.4,4,0.4,4l0.5-3.8l0.1,0.1c0.1,1.7,0.4,4.5,0.4,4.5
		l0.4-2.7c0.1,1.6,0.3,3.4,0.3,3.4l0.3-2.3c0.1,1.5,0.3,2.9,0.3,2.9l0.3-2.4c0.1,1.4,0.3,2.8,0.3,2.8l0.4-3c0.1,1.1,0.2,1.9,0.2,1.9
		l0.2-1.7l0.3,2.3c0,0,0.1-1.1,0.2-2.4l0.1,0l0.3,2.2c0,0,0.1-0.8,0.2-1.8l0.1,0.9c0,0,0.1-0.8,0.2-1.8l0,0l0.4,2.9
		c0,0,0.2-1.4,0.3-2.9l0.1,0.4c0,0,0-0.4,0.1-0.9l0.1,0l0.4,3c0,0,0.2-1.7,0.3-3.3l0.4,3c0,0,0.2-1.9,0.4-3.5l0.5,3.4
		c0,0,0.2-1.5,0.3-3l0.3,2.3c0,0,0.2-1.4,0.3-2.8l0.3,2.4c0,0,0.1-1.2,0.3-2.6l0.3,2.6c0,0,0.2-1.3,0.3-2.7l0.3,2.5
		c0,0,0.2-1.7,0.3-3.3l0.4,2.9c0,0,0.3-2.3,0.4-4l0.1,0l0.5,3.8c0,0,0.2-1.9,0.4-3.6l0.1,0.5c0,0,0-0.4,0.1-1l0.5,3.7
		c0,0,0.2-1.4,0.3-2.8l0.3,2.4c0,0,0.3-2.7,0.4-4.4l0,0l0.5,3.8c0,0,0.3-2.6,0.4-4.3l0.1,0l0.5,3.8c0,0,0.3-2.5,0.4-4.2l0.5,3.6
		c0,0,0.3-2.5,0.4-4.2l0,0l0.5,3.5c0,0,0.1-1.2,0.3-2.6l0.3,2.6c0,0,0.2-1.8,0.3-3.4l0.4,1.8c0,0,0.2-1.7,0.3-3l0.6,2.7
		c0,0,0.3-2,0.3-3.3l0,0l0.5,1.7c0,0,0.2-1.2,0.3-2.2l0.1-0.1l0.6,1.9c0,0,0.2-1.5,0.3-2.4l0.2,0.7c0,0,0.1-0.5,0.1-1l0.2-0.1l0.3,1
		C65.8,141.9,65.9,141.1,66,140.6C65.9,140.7,65.9,140.7,66,140.6L66,140.6z"/>
	<path class="st3" d="M38.8,27.3c0,0,1,0.7,2.3,1.7l-0.4,0.3l0.4,0.2l3-0.5l2.7-0.3v-1.8l3.8,0l-1.1-2.6l2.2-0.5l1.3-1.7l1.7,2.2
		l1.9-1.6l1,1.6l2.9-0.1l2.2,1.7l2.5-1.6l3.4,1.6l2.1-2.2l2.5,0.6l2.5-1.7l2,1.1l3.8-1.1l1.8,1.7h4.3l6.5,4.4
		c-0.2-0.3-0.5-0.7-0.8-1.1l3.1-1.6l-0.6-0.3l2.8-2c0,0-1.7,0.6-3.6,1.3l3-2.2c0,0-2.3,0.8-4.6,1.7l2.4-4.3c0,0-1.5,1.4-3.1,3l1.1-2
		c0,0-1.2,1.1-2.6,2.5l-0.4-0.2l1.8-3.2c0,0-1.2,1.1-2.6,2.5l0.3-1.2l1.4-2.4c0,0-1.7,1.5-3.4,3.2l0,0l0.4-1.6c0,0-0.2,0.4-0.6,1.1
		l0.9-3.7c0,0-0.6,1.1-1.4,2.5l0.6-2.5c0,0-0.9,1.5-1.9,3.3l0,0l0.9-3.7c0,0-0.4,0.7-1,1.6l0.3-1.2c0,0-0.6,1.1-1.4,2.5l0-2.7
		c0,0-0.4,1.1-0.8,2.5l-0.2-0.1l0-2.9c0,0-0.3,1-0.8,2.3l0-2.5c0,0-0.3,0.9-0.7,2.1l0-4c0,0-0.7,2.1-1.4,4.3l0,0l-1.1-4
		c0,0,0,0.8-0.1,2l-0.2-0.9c0,0-0.1,1.5-0.1,3.3l-0.2,0l-0.7-2.6c0,0,0,0.5-0.1,1.2l-0.4-1.4c0,0-0.1,1.4-0.1,3.2l-0.2,0l-0.8-3
		c0,0,0,1-0.1,2.3l-0.6-2.3c0,0-0.1,1.2-0.1,2.9l-0.8-2.9c0,0-0.1,1.6-0.1,3.6l0,0l-1-3.8c0,0-0.1,1.7-0.1,3.7l-0.8-3.1
		c0,0-0.1,1.7-0.1,3.7l-0.3,0.1l-0.9-3.3c0,0-0.1,1.2-0.1,2.8l-0.8-2.8c0,0-0.1,1.7-0.1,3.7l-0.2,0.1l-1.2-4.3c0,0-0.1,2.2-0.2,4.6
		l0,0l-0.8-3c0,0-0.1,1.4-0.1,3.2l-0.1,0L67,20c0,0,0.1,1.3,0.3,2.9l0,0l-1.1-2.4c0,0,0.1,1.1,0.3,2.6l-0.2,0.1l-1.1-2.6
		c0,0,0.1,1.2,0.3,2.8l-0.2,0.1l-0.2-1.8c0,0-0.1,0.3-0.2,0.8l-0.2-1.8c0,0-0.2,1.1-0.6,2.5L64,21.4c0,0-0.2,0.7-0.4,1.8l-0.2-2.7
		c0,0-0.3,1.3-0.6,2.9l0,0l-1-4.1c0,0-0.1,0.9-0.2,2.1l-0.7-3c0,0-0.2,2.1-0.3,4.5l-0.2,0l-1.1-4.4c0,0-0.1,1.6-0.3,3.6l-1-4.1
		c0,0-0.2,2.1-0.3,4.3l-0.3-0.1l-1.1-4.7c0,0-0.1,1.8-0.3,3.8l-1.1-4.7c0,0-0.2,1.9-0.3,4.1l-1-4.3c0,0-0.2,2.3-0.3,4.8L53.2,21
		l-1.6-6.6c0,0-0.3,3.5-0.4,6.4l-1.8-3.3c0,0,0.3,1.7,0.7,3.7l-1.3-2.4c0,0,0.3,1.7,0.7,3.7l-1.4-2.6c0,0,0.2,1.1,0.5,2.6l-1.2-2.3
		c0,0,0.2,1.3,0.6,3l-1-1.1c0,0,0.4,0.8,0.9,1.9l-2.4-2.6c0,0,0.5,1.1,1.2,2.5l-1.4-1.6c0,0,0.3,0.7,0.7,1.6l-0.5-0.5
		c0,0,0.2,0.5,0.6,1.4l-2.4-2.7c0,0,0.8,1.7,1.7,3.7l0,0l-2.7-1.6c0,0,0.8,0.9,2,2.1l-0.1,0.1l-3.8-2.2c0,0,1.2,1.4,2.7,2.9l0,0
		l-2.7-1.6c0,0,0.7,0.8,1.7,1.8l-2.8-1c0,0,1,0.8,2.4,1.7l-0.1,0.1L38.8,27.3z"/>
	<path class="st3" d="M66.4,140.2c0,0-0.4,0.2-0.6,0.4l0.1-0.6c0,0-0.3,0.4-0.4,0.7c0,0,0,0,0,0l0.1-0.7c0,0-0.2,0.2-0.3,0.5
		l0.1-0.5c0,0-0.3,0.5-0.4,0.7l0.1-0.6L65,140c-0.1,0.1-0.1,0.2-0.2,0.3l0-0.2l-2.4,2h-2v1.4l-2.3-0.6v1.3h-1.9v0.8l-1.9,0.6
		l-0.8,1.3h-0.9l0,1h-1.3l-0.7,0.6H49l-0.8,1.2l-1-0.7l-0.6,0.7l-1.2-1l-0.9,0.1v-1.8l-1.8,0.2v-0.8l-1.3-1.1v-0.9l-1.4-0.6v-1.5
		l-1.3-0.3v-1.3l-1.8-0.7l-2-1.1l0.2,0.3l-0.4,0.5c0,0,0.3-0.1,0.5-0.2l-0.3,0.4c0,0,0.3-0.1,0.5-0.2l-0.3,0.4c0,0,0.3-0.1,0.6-0.2
		l0,0l-0.3,0.3c0,0,0.2-0.1,0.3-0.1l-0.2,0.3c0,0,0.2-0.1,0.4-0.2l0.1,0.1c-0.1,1.4,0.1,4.5,0.1,4.5l0.8-3.6l0.1,0.1
		c-0.1,1.7,0.1,4.8,0.1,4.8l0.8-3.9l0,0c0,1.7,0.1,3.9,0.1,3.9l0.6-2.7c0,1.7,0.1,4.1,0.1,4.1l0.5-2.5c0.1,1.6,0.3,3.4,0.3,3.4
		l0.4-3.2c0.1,1.6,0.3,3.4,0.3,3.4l0.3-2.4c0.1,1.4,0.3,2.8,0.3,2.8l0.4-2.6c0.1,1.6,0.3,3.4,0.3,3.4l0.3-2.2
		c0.1,1.5,0.3,3.1,0.3,3.1l0.4-2.8c0.1,1.7,0.4,4,0.4,4l0.5-3.8l0.1,0.1c0.1,1.7,0.4,4.5,0.4,4.5l0.4-2.7c0.1,1.6,0.3,3.4,0.3,3.4
		L45,151c0.1,1.5,0.3,2.9,0.3,2.9l0.3-2.4c0.1,1.4,0.3,2.8,0.3,2.8l0.4-3c0.1,1.1,0.2,1.9,0.2,1.9l0.2-1.7l0.3,2.3
		c0,0,0.1-1.1,0.2-2.4l0.1,0l0.3,2.2c0,0,0.1-0.8,0.2-1.8l0.1,0.9c0,0,0.1-0.8,0.2-1.8l0,0l0.4,2.9c0,0,0.2-1.4,0.3-2.9l0.1,0.4
		c0,0,0-0.4,0.1-0.9l0.1,0l0.4,3c0,0,0.2-1.7,0.3-3.3l0.4,3c0,0,0.2-1.9,0.4-3.5l0.5,3.4c0,0,0.2-1.5,0.3-3l0.3,2.3
		c0,0,0.2-1.4,0.3-2.8l0.3,2.4c0,0,0.1-1.2,0.3-2.6l0.3,2.6c0,0,0.2-1.3,0.3-2.7l0.3,2.5c0,0,0.2-1.7,0.3-3.3l0.4,2.9
		c0,0,0.3-2.3,0.4-4l0.1,0l0.5,3.8c0,0,0.2-1.9,0.4-3.6l0.1,0.5c0,0,0-0.4,0.1-1l0.5,3.7c0,0,0.2-1.4,0.3-2.8l0.3,2.4
		c0,0,0.3-2.7,0.4-4.4l0,0l0.5,3.8c0,0,0.3-2.6,0.4-4.3l0.1,0l0.5,3.8c0,0,0.3-2.5,0.4-4.2l0.5,3.6c0,0,0.3-2.5,0.4-4.2l0,0l0.5,3.5
		c0,0,0.1-1.2,0.3-2.6l0.3,2.6c0,0,0.2-1.8,0.3-3.4l0.4,1.8c0,0,0.2-1.7,0.3-3l0.6,2.7c0,0,0.3-2,0.3-3.3l0,0l0.5,1.7
		c0,0,0.2-1.2,0.3-2.2l0.1-0.1l0.6,1.9c0,0,0.2-1.5,0.3-2.4l0.2,0.7c0,0,0.1-0.5,0.1-1l0.2-0.1l0.3,1c0,0,0.1-0.7,0.1-1.2
		c0,0,0,0,0,0l0.1-0.1l0.5-0.3l-0.3,0L66.4,140.2z"/>
	<g>
		<path class="st15" d="M33.1,46.3c0,0,0-0.1,0.1-0.1c0-0.1,0.1-0.2,0.2-0.4c0.2-0.3,0.4-0.7,0.8-1.2c0.7-0.9,1.7-1.7,2.9-2.2
			c1.2-0.5,2.5-0.7,3.6-0.7c0.5,0,1,0.1,1.4,0.2c0.2,0,0.3,0.1,0.4,0.1c0.1,0,0.1,0.1,0.1,0.1s0,0.1-0.1,0.1c0,0.1-0.1,0.2-0.2,0.4
			c-0.2,0.3-0.4,0.7-0.8,1.2c-0.7,0.9-1.7,1.7-2.9,2.2c-1.2,0.5-2.5,0.7-3.6,0.6c-0.5,0-1-0.1-1.4-0.2c-0.2,0-0.3-0.1-0.4-0.1
			C33.1,46.3,33.1,46.3,33.1,46.3z"/>
	</g>
	<g>
		<path class="st16" d="M33.2,46.3c0,0,0.4-0.6,1.2-1.2c0.8-0.6,1.9-1.3,3-1.8c1.2-0.5,2.4-0.9,3.4-1c1-0.2,1.7-0.1,1.7-0.1
			s-0.4,0.6-1.2,1.2c-0.8,0.6-1.9,1.3-3,1.8c-1.2,0.5-2.4,0.9-3.4,1C33.9,46.3,33.2,46.3,33.2,46.3z"/>
	</g>
	<g>
		<path class="st15" d="M81.7,66c0,0,0.1,0.6,0.2,1.5c0.1,1,0.2,2.4,0.1,4c0,1.6-0.1,3.5-0.4,5.5c-0.1,1-0.3,2-0.4,3.1
			c-0.2,1-0.4,2.1-0.6,3.2c-0.2,1-0.5,2.1-0.7,3.1c-0.3,1-0.5,2-0.8,3c-0.6,1.9-1.2,3.7-1.9,5.2c-0.6,1.5-1.3,2.8-1.7,3.6
			c-0.5,0.9-0.8,1.3-0.8,1.3s-0.1-0.6-0.2-1.5c-0.1-1-0.2-2.4-0.1-4c0-1.6,0.1-3.5,0.4-5.5c0.1-1,0.3-2,0.4-3.1
			c0.2-1,0.4-2.1,0.6-3.2c0.2-1,0.5-2.1,0.7-3.1c0.3-1,0.5-2,0.8-3c0.6-1.9,1.2-3.7,1.9-5.2c0.6-1.5,1.3-2.8,1.7-3.6
			C81.4,66.5,81.7,66,81.7,66z"/>
	</g>
	<g>
		<path class="st15" d="M62.7,72.4c0,0,0.5,0.1,1.3,0.4c0.8,0.3,2,0.7,3.3,1.3c1.3,0.6,2.8,1.3,4.3,2.2c0.8,0.4,1.5,0.9,2.3,1.4
			c0.8,0.5,1.5,1.1,2.3,1.6c0.7,0.6,1.5,1.1,2.2,1.7c0.7,0.6,1.4,1.2,2,1.8c1.3,1.2,2.4,2.4,3.4,3.5c0.9,1.1,1.7,2.1,2.1,2.8
			c0.5,0.7,0.7,1.2,0.7,1.2s-0.5-0.1-1.3-0.4c-0.8-0.3-2-0.7-3.3-1.3c-1.3-0.6-2.8-1.3-4.3-2.2c-0.8-0.5-1.5-0.9-2.3-1.4
			c-0.8-0.5-1.5-1.1-2.3-1.6c-0.7-0.6-1.5-1.1-2.2-1.7c-0.7-0.6-1.4-1.2-2-1.8c-1.3-1.2-2.4-2.4-3.4-3.5c-0.9-1.1-1.7-2.1-2.1-2.8
			C62.9,72.9,62.7,72.4,62.7,72.4z"/>
	</g>
	<g>
		<path class="st16" d="M62.7,72.4c0,0,1.7,0.9,4.1,2.3c1.2,0.7,2.6,1.6,4,2.6c0.7,0.5,1.5,1,2.2,1.5c0.7,0.5,1.5,1.1,2.2,1.6
			c0.7,0.6,1.5,1.1,2.2,1.7c0.7,0.6,1.4,1.1,2.1,1.7c1.4,1.1,2.6,2.2,3.6,3.1c2.1,1.9,3.4,3.3,3.4,3.3s-1.7-0.8-4.1-2.3
			c-1.2-0.7-2.6-1.6-4-2.6c-0.7-0.5-1.5-1-2.2-1.5c-0.7-0.5-1.5-1.1-2.2-1.6c-0.7-0.6-1.5-1.1-2.2-1.7c-0.7-0.6-1.4-1.1-2.1-1.7
			c-1.4-1.1-2.6-2.2-3.6-3.1C64,73.8,62.7,72.4,62.7,72.4z"/>
	</g>
	<g>
		<path class="st16" d="M81.7,66c0,0-0.1,2.2-0.5,5.4c-0.2,1.6-0.5,3.5-0.8,5.5c-0.2,1-0.3,2-0.6,3.1c-0.2,1-0.4,2.1-0.6,3.1
			c-0.2,1-0.5,2.1-0.7,3.1c-0.2,1-0.5,2-0.7,3c-0.5,2-1,3.8-1.4,5.3c-0.9,3.1-1.7,5.1-1.7,5.1s0.1-2.2,0.5-5.4
			c0.2-1.6,0.5-3.5,0.8-5.5c0.2-1,0.3-2,0.6-3.1c0.2-1,0.4-2.1,0.6-3.1c0.2-1,0.5-2.1,0.7-3.1c0.2-1,0.5-2,0.7-3
			c0.5-2,1-3.8,1.4-5.3C81,68,81.7,66,81.7,66z"/>
	</g>
</g>
</svg>
