<?xml version="1.0" encoding="utf-8"?>
<!-- Generator: Adobe Illustrator 19.1.0, SVG Export Plug-In . SVG Version: 6.00 Build 0)  -->
<svg version="1.1" xmlns="http://www.w3.org/2000/svg" xmlns:xlink="http://www.w3.org/1999/xlink" x="0px" y="0px"
	 viewBox="0 0 145.1 171" style="enable-background:new 0 0 145.1 171;" xml:space="preserve">
<style type="text/css">
	.st0{fill:#561F1F;}
	.st1{fill:#E2E09A;}
	.st2{fill:#F9F4AA;}
	.st3{fill:#399B46;}
	.st4{fill:#9E352A;}
	.st5{fill:#351C23;stroke:#351C23;stroke-miterlimit:10;}
	.st6{fill:#3F1312;}
	.st7{fill:#365637;}
	.st8{fill:#351C23;}
	.st9{fill:#010101;}
	.st10{fill:#F4EC4C;stroke:#010101;stroke-miterlimit:10;}
	.st11{fill:#2D442F;}
	.st12{fill:#172118;}
	.st13{fill:#1C281D;}
	.st14{fill:#471111;}
	.st15{fill:#F6CBCB;}
</style>
<g id="head">
</g>
<g id="sideburn2">
</g>
<g id="Layer_2">
</g>
<g id="Layer_3">
</g>
<g id="Layer_5">
</g>
<g id="ear">
	<path class="st0" d="M0-135.3"/>
</g>
<g id="teeth">
</g>
<g id="Layer_8">
</g>
<g id="Layer_9">
</g>
<g id="hair">
</g>
<g id="Layer_10">
</g>
<g id="eye2">
</g>
<g id="jaaw">
</g>
<g id="outline">
</g>
<g id="nose">
</g>
<g id="eye1">
</g>
<g id="wrinkles">
</g>
<g id="Layer_4">
</g>
<g id="Layer_7">
</g>
<g id="hair_1_">
</g>
<g id="scars">
</g>
<g id="Layer_19">
	<g>
		<g>
			<path class="st1" d="M119.3,140.9c0,0,4.6-10,2.2-20.1c-0.3-1.3,0.2,16.1-5.6,16.5c-1,0.1-0.6,4.4,1.3,4.7l0,0
				C118.5,142.2,118.5,141.9,119.3,140.9z"/>
			<path class="st2" d="M119.7,138.3c0,0,3.6-12.1,1.8-17.5c-0.4-1.2-2.6,11.7-5.8,16.4c-1.2,1.8,0,4.5,1.3,4.7h0
				C118.3,142.2,119.1,140.4,119.7,138.3z"/>
		</g>
		<g>
			<path class="st1" d="M114.8,137.2c0,0,1.4-0.6,0.6-5.1c-0.1-0.7,0.7,4.6-2.1,4.4c0,0,0,0,0.7,0.8l0,0
				C114.5,137.4,114.4,137.4,114.8,137.2z"/>
			<path class="st2" d="M115.1,136.5c0,0,0.3-2.7,0.3-4.4c0-0.4-2.1,2.8-2.1,4.4c0,0.4,0.5,0.8,0.6,0.8l0,0
				C114.5,137.4,114.9,137,115.1,136.5z"/>
		</g>
		<g>
			<path class="st1" d="M111.8,136.6c0,0,1.4-0.6,0.6-5.1c-0.1-0.7,0.7,4.6-2.1,4.4c0,0,0,0,0.7,0.8l0,0
				C111.6,136.8,111.5,136.8,111.8,136.6z"/>
			<path class="st2" d="M112.1,135.9c0,0,0.3-2.7,0.3-4.4c0-0.4-2.1,2.8-2.1,4.4c0,0.4,0.5,0.8,0.6,0.8l0,0
				C111.6,136.8,111.9,136.4,112.1,135.9z"/>
		</g>
		<g>
			<path class="st1" d="M109,135.7c0,0,1.4-0.6,0.6-5.1c-0.1-0.7,0.7,4.6-2.1,4.4c0,0,0,0,0.7,0.8l0,0
				C108.7,135.9,108.7,135.9,109,135.7z"/>
			<path class="st2" d="M109.3,135c0,0,0.3-2.7,0.3-4.4c0-0.4-2.1,2.8-2.1,4.4c0,0.4,0.5,0.8,0.6,0.8l0,0
				C108.7,135.9,109.1,135.5,109.3,135z"/>
		</g>
		<g>
			<path class="st1" d="M106.1,134.4c0,0,1.4-0.6,0.6-5.1c-0.1-0.7,0.7,4.6-2.1,4.4c0,0,0,0,0.7,0.8l0,0
				C105.9,134.6,105.8,134.6,106.1,134.4z"/>
			<path class="st2" d="M106.4,133.7c0,0,0.3-2.7,0.3-4.4c0-0.4-2.1,2.8-2.1,4.4c0,0.4,0.5,0.8,0.6,0.8h0
				C105.8,134.6,106.2,134.2,106.4,133.7z"/>
		</g>
		<g>
			<path class="st1" d="M102.8,133.3c0,0,1.4-0.6,0.6-5.1c-0.1-0.7,0.7,4.6-2.1,4.4c0,0,0,0,0.7,0.8h0
				C102.5,133.5,102.5,133.4,102.8,133.3z"/>
			<path class="st2" d="M103.1,132.6c0,0,0.3-2.7,0.3-4.4c0-0.4-2.1,2.8-2.1,4.4c0,0.4,0.5,0.8,0.6,0.8l0,0
				C102.5,133.5,102.9,133.1,103.1,132.6z"/>
		</g>
		<g>
			<path class="st1" d="M100.3,132.3c0,0,1.4-0.6,0.6-5.1c-0.1-0.7,0.7,4.6-2.1,4.4c0,0,0,0,0.7,0.8h0
				C100,132.5,99.9,132.5,100.3,132.3z"/>
			<path class="st2" d="M100.6,131.6c0,0,0.3-2.7,0.3-4.4c0-0.4-2.1,2.8-2.1,4.4c0,0.4,0.5,0.8,0.6,0.8l0,0
				C100,132.5,100.3,132.1,100.6,131.6z"/>
		</g>
		<g>
			<path class="st1" d="M97.3,131c0,0,1.4-0.6,0.6-5.1c-0.1-0.7,0.7,4.6-2.1,4.4c0,0,0,0,0.7,0.8h0C97,131.2,96.9,131.1,97.3,131z"
				/>
			<path class="st2" d="M97.6,130.2c0,0,0.3-2.7,0.3-4.4c0-0.4-2.1,2.8-2.1,4.4c0,0.4,0.5,0.8,0.6,0.8l0,0
				C97,131.2,97.4,130.7,97.6,130.2z"/>
		</g>
		<path d="M135.5,87.8"/>
		<path d="M66.1,140.9L34.3,74c0,0-4.6-26.8-11.1-31.9C6.8,29.2,11.5,6.4,11.5,6.4S36.3,4.1,57.5,28c1.1,1.3,3.3,1.2,3.3,1.2
			l20.8,0.5l24.4,11l4.9,23.5l-11.7,41.1l-9.7,3.7l-2.7,39.9"/>
		<polyline class="st3" points="100.5,68 71.3,115.8 82.2,130.8 86.2,148.1 71.3,139.2 41.3,117.7 35.5,108.4 32.3,11.7 47.5,32.2 
			55.1,31.3 80.4,31.5 103.6,41 109.2,63 108,71.3 		"/>
		<path class="st4" d="M123.5,118"/>
		<g>
			<path d="M42,40.3c0,0,0-0.1,0.1-0.3c0.1-0.2,0.2-0.5,0.2-0.9c0.2-0.8,0.2-2-0.2-3.1c-0.1-0.3-0.2-0.6-0.4-0.9
				c-0.2-0.3-0.4-0.5-0.6-0.9c-0.5-0.7-1-1.4-1.5-2.2c-1-1.5-2-3.2-3-4.8c-1.9-3.3-3.6-6.8-4.7-9.5c-0.6-1.3-1-2.5-1.3-3.3
				c-0.3-0.8-0.4-1.3-0.4-1.3s0.4,0.4,0.9,1c0.6,0.6,1.4,1.6,2.2,2.8c1.8,2.3,3.9,5.5,5.9,8.9c1,1.7,1.9,3.4,2.7,5
				c0.4,0.8,0.8,1.6,1.1,2.4c0.2,0.4,0.4,0.8,0.5,1.2c0.1,0.4,0.2,0.9,0.3,1.3c0.2,1.7-0.4,3-0.9,3.7c-0.2,0.4-0.5,0.6-0.7,0.8
				C42.1,40.2,42,40.3,42,40.3z"/>
		</g>
		<g>
			<path class="st1" d="M126.7,105.9c0,0,1,12.6-13.2,19.6c-1.8,0.9,12.7-14.8,3.1-22.7c-0.6-0.5,1.9-0.8,6.5,0.5h0
				C125.9,104.1,125.8,104.4,126.7,105.9z"/>
			<path class="st2" d="M125.2,108.5c0,0-2.9,13.7-11.7,17c-1.9,0.7,10.6-15.8,3.7-22c-2.3-2,2.3-1.3,5.5-0.4l0,0
				C125.5,103.9,125.8,106.2,125.2,108.5z"/>
		</g>
		<path class="st1" d="M116.6,103.9c0,0-2.1,0.9-0.6,7.6c0.2,1.1-1.2-6.8,2.8-6.5c0,0,0,0-1-1.2h0
			C116.9,103.6,117.1,103.7,116.6,103.9z"/>
		<path class="st2" d="M116.1,105c0,0-0.4,4-0.3,6.5c0,0.6,3-4.2,3-6.5c0-0.5-0.8-1.1-1-1.2l0,0C117,103.6,116.4,104.2,116.1,105z"
			/>
		<path class="st1" d="M112,101.4c0,0-2.1,0.9-0.6,7.6c0.2,1.1-1.2-6.8,2.8-6.5c0,0,0,0-1-1.2h0C112.4,101.1,112.5,101.2,112,101.4z
			"/>
		<path class="st2" d="M111.6,102.5c0,0-0.4,4-0.3,6.5c0,0.6,3-4.2,3-6.5c0-0.5-0.8-1.1-1-1.2h0
			C112.4,101.1,111.9,101.7,111.6,102.5z"/>
		<path class="st1" d="M107.8,98.9c0,0-2.1,0.9-0.6,7.6c0.2,1.1-1.2-6.8,2.8-6.5c0,0,0,0-1-1.2h0C108.2,98.6,108.3,98.7,107.8,98.9z
			"/>
		<path class="st2" d="M107.4,100c0,0-0.4,4-0.3,6.5c0,0.6,3-4.2,3-6.5c0-0.5-0.8-1.1-1-1.2l0,0C108.2,98.6,107.7,99.2,107.4,100z"
			/>
		<path class="st5" d="M101.9,69"/>
		<polygon class="st3" points="85.7,148 108.7,154.6 119,153.1 121.3,135 112.5,137 94.2,129.6 89.5,109 108.9,98.8 115.8,104.4 
			123.8,109.4 125.4,109.5 127.2,109.2 129.8,108.8 137,84 100.5,67.8 71.2,115.6 		"/>
		<path class="st6" d="M71.5,55l0.2,0.2l-0.2-0.1C71.5,55.1,71.6,55,71.5,55z"/>
		<path class="st7" d="M102.3,53.8c0,0,4.6-5,4.5-5.8"/>
		<g>
			<path class="st8" d="M87.9,63.7"/>
		</g>
		<path class="st7" d="M102,63.4c0,0-2.2,11.4-17.7,8.1C71.2,68.8,70.3,57,74,50.8l4.1-1.9L102,63.4"/>
		<path class="st9" d="M75.5,47.5L100,67.8C100,67.8,63.2,77,75.5,47.5z"/>
		<path class="st10" d="M79.1,52.2l16.4,11.7c2,1.5,0.7,4.4-2,4.4c-8.8,0.1-21.8-2-18.4-14.8C75.4,51.9,77.7,51.2,79.1,52.2z"/>
		<path class="st9" d="M92.3,64.7c0.3-0.8,1.1-1.3,2-1.1c0.8,0.2,1.3,1,1.1,1.8c-0.3,0.8-1.1,1.3-2,1.1S92,65.5,92.3,64.7z"/>
		<path class="st11" d="M107,68.2l-1.3-0.7l0.1-0.2l1.5,0.5l-1.5-0.8c0-0.1-0.1-0.2-0.2-0.3l1.4,0.4l-1.7-0.7
			c-0.1-0.1-0.2-0.2-0.2-0.2l-0.1-0.1l1.2,0.3l-1.5-0.6l-2.5-2.4l1.3,1.8l-2.1-2.6l0.8,1.4l-2.1-2.2l1.1,1.7c0,0,0,0,0,0l-1.6-1.9
			l0.4,0.7l-1.7-1.8l1.4,2l-1.8-2.2l0.4,0.8l-2-2l1.1,1.6l-2.2-2.7l0.8,1.5l-2-2.1l1.5,2.2l-0.3-0.2c-0.1-0.2-0.4-0.5-0.5-0.6
			l-2.3-2.8l0.7,1.2l-1.6-1.6l1.5,2.2l-0.3-0.2l-2.2-2.6l0.5,0.9l-1.9-2l1.4,2.1l-2-2.4l0.4,0.8l-2.3-2.4l1,1.5L86,51.5l0.7,1.3
			l-2.5-2.6l1,1.5c-0.1-0.1-0.1-0.1-0.2-0.2l-2.8-2.8l1.1,1.6L82,48.9l0.9,1.3c0,0,0,0,0,0l-2.8-2.8l0.7,1L80,47.6l0.4,0.6l-2.3-2.3
			l1,1.4l-0.5-0.5l0.6,0.9L76.6,45l1.4,2l-0.7-0.5l-0.5,0.1c0,0-0.1,0-0.1,0c-0.1,0-0.2,0-0.2,0l-2.4,0l1,0.2l-0.5,0.1l-2.2,0L73,47
			l-2.3,0l0.5,0.1l-2.3,0.1l1.4,0.1l-0.1,0l-3.8,0.1l1.3,0.1l-1.9,0l0.4,0.1l-2.1,0l1.1,0.2l-0.4,0c0-0.1-0.1-0.1-0.2-0.1
			c-0.1,0-0.2,0-0.2,0l-2.4,0l1.2,0.3l-1.9,0.2l1.5,0.3l-1.1,0L64,49l0.9,0.2l-1.6,0l3.4,0.4l0.3,0.1l-1.5,0l3.1,0.3l0.5,0.1l-2,0.1
			l4.2,0.5l1.1,0.3l-1.5,0l3,0.3l0.7,0.5l-2.1-0.4l2.9,0.9l0.2,0.1l-1.1-0.3l1.8,0.8l0.2,0.1l-2.1-0.6l3.5,1.5l0.3,0.2l-2.1-0.6
			l3.4,1.5l0.6,0.4l-2.3-0.6l3.7,1.6l0.6,0.4l-2.2-0.6l3.7,1.6l0.6,0.4l-1.8-0.5l2.9,1.3l0.6,0.4l-2.1-0.6l3.5,1.5l0.6,0.4l-2.3-0.6
			l3.8,1.6l0.5,0.3l-2.7-0.8l4.4,1.9l0.3,0.2l-2.6-0.7l4,1.7l-1.9-0.5l3.3,1.4l0.7,0.5l-2.3-0.7l3.8,1.6l0.5,0.4l-2.4-0.7l3.9,1.7
			l0.4,0.3l-2.9-0.8l2.7,1.2l-1.2-0.3l3.9,1.7l0.6,0.4l1.1,1.5l-0.5-1.1l0.5,0.4l1.2,1.3l-0.7-1.2l0.2-0.4l1,1.2l-0.9-1.5l0-0.1
			l0.7,0.8l-0.6-1l0-0.1l1,1.2l-0.9-1.5l0-0.1l0.7,0.8l-0.6-1l0.1-0.2l0.8,1l-0.7-1.2L105,69l0.4,0.4l-0.3-0.6l0.1-0.2l0.6,0.7
			l-0.5-0.8l0-0.1l0.9,1.1l-0.6-1l0.6,0.7l-0.7-1.2l0.1-0.3L107,68.2z"/>
		<path class="st12" d="M116.8,75.1c0,0,15.2,2.2,21.3,8.8c0,0,2.5,3.6-3.7,10.8C134.4,94.7,118.7,93.1,116.8,75.1z"/>
		<g>
			<path class="st6" d="M131.8,95.4C131.8,95.4,131.8,95.4,131.8,95.4c0.1,0.1,0.1,0.1,0.1,0.1c0,0-0.1,0-0.1,0
				c-0.2,0-0.5,0-0.9-0.1c-0.7-0.2-1.8-0.5-2.9-1.1c-1.2-0.6-2.5-1.3-3.8-2.2c-1.3-0.9-2.6-2.1-3.8-3.4c-1.2-1.3-2.2-2.7-2.9-4.2
				c-0.7-1.5-1.2-2.9-1.5-4.2c-0.3-1.3-0.3-2.4-0.3-3.1c0-0.4,0-0.7,0-0.9c0-0.2,0-0.3,0-0.3s0,0.4,0.1,1.2c0.1,0.7,0.3,1.8,0.7,3
				c0.3,1.2,0.9,2.6,1.7,3.9c0.8,1.4,1.7,2.7,2.9,3.9c1.1,1.2,2.4,2.4,3.6,3.3c1.2,1,2.5,1.8,3.5,2.4c1.1,0.6,2,1.1,2.7,1.4
				c0.3,0.1,0.6,0.2,0.8,0.3C131.9,95.5,131.9,95.5,131.8,95.4C131.8,95.4,131.8,95.4,131.8,95.4z"/>
		</g>
		<g>
			<path class="st7" d="M69.9,59.8c0,0,0.1,0.5,0.5,1.3c0.2,0.4,0.4,0.9,0.7,1.4c0.1,0.3,0.3,0.5,0.5,0.8c0.2,0.3,0.4,0.6,0.6,0.8
				c0.2,0.3,0.5,0.6,0.7,0.9c0.2,0.3,0.5,0.6,0.8,0.9c0.1,0.1,0.3,0.3,0.4,0.4c0.2,0.1,0.3,0.3,0.5,0.4c0.3,0.3,0.7,0.6,1,0.8
				c0.8,0.5,1.5,1,2.3,1.4c0.4,0.2,0.8,0.4,1.2,0.7l1.3,0.5c0.4,0.2,0.9,0.4,1.3,0.5c0.5,0.1,0.9,0.3,1.4,0.4
				c0.5,0.1,0.9,0.3,1.4,0.4c0.5,0.1,0.9,0.2,1.4,0.3c0.9,0.2,1.7,0.4,2.6,0.5c0.8,0.1,1.6,0.2,2.4,0.4c0.7,0.1,1.4,0.2,2,0.2
				c0.6,0.1,1.1,0.1,1.6,0.2c0.9,0.1,1.4,0.2,1.4,0.2s-0.5,0.1-1.4,0.2c-0.4,0.1-1,0.1-1.6,0.2c-0.6,0-1.3,0.2-2.1,0.1
				c-0.8,0-1.6,0-2.4,0c-0.9,0-1.8-0.1-2.7-0.3c-0.5-0.1-1-0.1-1.4-0.2c-0.5-0.1-1-0.2-1.5-0.3c-0.5-0.1-1-0.3-1.5-0.4
				c-0.5-0.1-1-0.3-1.5-0.5l-1.4-0.6c-0.5-0.3-0.9-0.5-1.4-0.7c-0.9-0.4-1.7-1.1-2.5-1.7c-0.4-0.3-0.7-0.7-1-1
				c-0.2-0.2-0.3-0.3-0.5-0.5c-0.1-0.2-0.3-0.4-0.4-0.5c-0.3-0.4-0.6-0.7-0.8-1c-0.2-0.4-0.4-0.7-0.6-1.1c-0.3-0.7-0.6-1.3-0.8-2
				c-0.2-0.6-0.3-1.1-0.4-1.6C69.9,60.3,69.9,59.8,69.9,59.8z"/>
		</g>
		<path class="st3" d="M12.1,7.4c0,0,26.2-2,47.3,25.3L29.1,46c0,0,0.3-0.5-0.3-0.9C3.3,29.8,17.4,12.5,12.1,7.4z"/>
		<path class="st12" d="M30.5,41.9c0,0-2.2-3.3-2.5-3.5C8.4,23.7,16.7,10.5,16.7,10.5s14.6,5.1,31.7,20.7
			C48.4,31.2,31.4,30.7,30.5,41.9z"/>
		<g>
			<path class="st9" d="M30.6,41.3c-0.1-0.9,0.1-1.9,0.3-2.9c0.3-0.9,0.7-1.9,1.3-2.7c1.1-1.7,2.8-3.1,4.6-4
				c0.9-0.5,1.8-0.9,2.8-1.2c1-0.3,1.9-0.6,2.9-0.8c1-0.2,2-0.4,3-0.5c1-0.1,2-0.2,3-0.2l-1.9,3.6l-0.7-0.7
				c-0.3-0.2-0.5-0.5-0.8-0.7c-0.5-0.5-1.1-1-1.7-1.5c-0.6-0.5-1.2-1-1.8-1.4c-0.6-0.5-1.2-0.9-1.8-1.4c-0.6-0.5-1.2-0.9-1.9-1.4
				c-0.6-0.4-1.2-0.9-1.9-1.4c-1.3-0.9-2.5-1.8-3.8-2.7c-1.3-0.9-2.6-1.7-3.9-2.7c-1.3-0.9-2.6-1.8-3.9-2.7
				c-1.3-0.9-2.6-1.8-3.9-2.8c-0.7-0.4-1.3-0.9-1.9-1.4c-0.6-0.5-1.3-1-1.9-1.5c0.8,0.2,1.6,0.4,2.3,0.6c0.8,0.2,1.6,0.4,2.3,0.7
				c1.5,0.5,3,1.1,4.5,1.7c0.7,0.3,1.5,0.6,2.2,0.9c0.7,0.3,1.5,0.6,2.2,1c1.4,0.7,2.9,1.4,4.3,2.2l2.1,1.2c0.7,0.4,1.4,0.9,2.1,1.3
				c0.7,0.4,1.4,0.9,2,1.3c0.7,0.5,1.3,0.9,2,1.4c0.7,0.5,1.3,1,1.9,1.5c0.6,0.5,1.3,1.1,1.9,1.6c0.6,0.6,1.2,1.1,1.8,1.7
				c0.3,0.3,0.6,0.6,0.9,0.9c0.3,0.4,0.5,0.6,0.9,1.1l2.9,3.9l-4.8-0.3c-1.8-0.1-3.5-0.1-5.3,0c-0.9,0.1-1.7,0.2-2.6,0.3
				c-0.4,0.1-0.8,0.2-1.3,0.3c-0.4,0.1-0.8,0.2-1.2,0.3c-0.4,0.1-0.8,0.3-1.2,0.4c-0.4,0.2-0.8,0.4-1.1,0.5
				c-0.8,0.4-1.5,0.9-2.1,1.4c-0.6,0.6-1.3,1.2-1.8,2C31.3,39.5,30.9,40.4,30.6,41.3z"/>
		</g>
		<path class="st11" d="M9.1,61.8c-1.2,0.6-2.1,1-2.1,1l3.2-2.4l1.4-1.7c-1.8,1-3.2,1.7-3.2,1.7l5-3.7l1.1-1.3l0.4-0.5
			c-2.5,1.5-5.2,2.8-5.2,2.8l6.7-5.1c-2.1,1.2-4.1,2.1-4.1,2.1l6.5-4.9l0.3-0.4c-2.8,1.8-6.4,3.5-6.4,3.5l8.9-6.7l0.1-0.1
			c-2.7,1.7-6,3.3-6,3.3l7.5-5.6c-2.4,1.4-4.9,2.6-4.9,2.6l4.6-3.5c-2,1.1-3.6,1.9-3.6,1.9l8.6-6.5l0.9-1.1l0.5,0.4
			c1.1-0.7,2.1-1.2,2.1-1.2l-0.7,0.9c0.7-0.4,1.3-0.7,1.3-0.7l-1.2,1.5c0.9-0.6,1.8-1,1.8-1l-1.4,1.7c1-0.7,2.1-1.2,2.1-1.2
			l-1.5,1.9l0.2,0.1c1.1-0.7,2.3-1.3,2.3-1.3l-1.5,1.9c1.1-0.7,2.3-1.3,2.3-1.3l-1.5,1.9l0,0c1-0.7,2-1.1,2-1.1l-1.3,1.7l0.1,0.1
			c1-0.7,2-1.1,2-1.1l-1.3,1.7l0.2,0.2c1-0.6,1.8-1,1.8-1L36.1,43l0.1,0.1c1-0.6,1.9-1,1.9-1l-1.2,1.5l0.3,0.2c1-0.7,2-1.1,2-1.1
			l-1.3,1.7l0.3,0.2c1.1-0.7,2.1-1.2,2.1-1.2L38.9,45l0.2,0.2c1.1-0.7,2.2-1.2,2.2-1.2l-1.4,1.8l0.3,0.3c1.1-0.7,2.1-1.2,2.1-1.2
			l-1.4,1.7l0.3,0.2c1-0.6,1.9-1,1.9-1l-1.2,1.5l0.3,0.2c1.1-0.7,2.1-1.2,2.1-1.2L42.8,48l0.4,0.3c1.1-0.8,2.3-1.3,2.3-1.3L44,49
			l0.1,0.1c1.1-0.7,2.3-1.3,2.3-1.3l-1.5,1.9l0,0c1.1-0.8,2.4-1.4,2.4-1.4l-1.5,2c1-0.6,1.9-1.1,1.9-1.1L47,50
			c0.7-0.4,1.2-0.7,1.2-0.7l-1.4,1.7l0.3,0.3c1-0.6,1.9-1.1,1.9-1.1l-1.2,1.6l0.3,0.2c0.7-0.4,1.3-0.7,1.3-0.7l-0.8,1.1l0.1,0.1
			c0.9-0.6,1.8-1,1.8-1L49.4,53l0.1,0.1c1.1-0.7,2.3-1.3,2.3-1.3l-1.5,1.9l0.2,0.2c1-0.7,2.1-1.2,2.1-1.2l-1.1,1.5
			c0.9-0.5,1.7-0.9,1.7-0.9l-1.3,1.7l0.1,0.1c1.1-0.7,2.1-1.2,2.1-1.2l-1.3,1.6c0.9-0.6,1.8-1,1.8-1l-0.9,1.1
			c0.7-0.4,1.2-0.6,1.2-0.6l-1.1,1.4l0.1,0.1c1.1-0.7,2.3-1.3,2.3-1.3l-0.9,1.1c0.6-0.4,1.1-0.6,1.1-0.6L56,56
			c0.2-0.1,0.3-0.1,0.3-0.1l-1.2,1.5l0.4,0.3l0.2,0.3c0.9-0.2,1.6-0.3,1.6-0.3L56,58.4c0.7-0.1,1.1-0.2,1.1-0.2l-1,0.6l0.2,0.3
			c0.8-0.2,1.4-0.2,1.4-0.2l-1.2,0.7l0.3,0.5c0.8-0.1,1.3-0.2,1.3-0.2l-1,0.6l0.4,0.6c0.8-0.2,1.4-0.2,1.4-0.2l-1.2,0.7l0.3,0.4
			c0.8-0.2,1.5-0.2,1.5-0.2l-1.2,0.7c1.2-0.3,2.2-0.4,2.2-0.4l-1.9,1.1l0.2,0.3c0.9-0.2,1.7-0.3,1.7-0.3l-1.3,0.8
			c0.8-0.2,1.4-0.2,1.4-0.2l-1.2,0.7c1-0.2,1.9-0.3,1.9-0.3l-1.2,0.7c0.6-0.1,1.1-0.2,1.1-0.2l-0.5,0.3c0.7-0.1,1.1-0.2,1.1-0.2
			l-1.4,0.8c0.7-0.1,1.2-0.2,1.2-0.2l-1.3,0.8l0.2,0.3c1.1-0.2,2-0.4,2-0.4l-1.1,0.7c0.6-0.1,1-0.2,1-0.2L61.7,67
			c0.7-0.1,1.1-0.2,1.1-0.2l-0.2,0.1c0.3,0,0.4-0.1,0.4-0.1l-1.5,0.9l0.1,0.2c1.1-0.3,2-0.4,2-0.4l-1.7,1l0.1,0.1
			c1-0.2,1.8-0.3,1.8-0.3l-1,0.6c0.9-0.2,1.5-0.3,1.5-0.3l-1.7,1l0.2,0.4c1.1-0.2,2-0.4,2-0.4l-1.6,1l0,0c0.8-0.2,1.4-0.2,1.4-0.2
			l-1.2,0.7l0.3,0.5c0.7-0.1,1.3-0.2,1.3-0.2l-1,0.6l0.3,0.5c0.9-0.2,1.6-0.3,1.6-0.3l-1.2,0.7c1.2-0.3,2.2-0.4,2.2-0.4l-1.9,1.1
			l0.3,0.5l0,0.2c0.9,0.1,1.5,0.2,1.5,0.2l-1.6,0.3l0,0.2c1,0.1,1.8,0.3,1.8,0.3l-1.8,0.4c1,0.1,1.7,0.2,1.7,0.2l-1.5,0.3
			c0.8,0.1,1.3,0.2,1.3,0.2L65.2,77l-0.1,0.5c0.9,0.1,1.6,0.2,1.6,0.2l-1.7,0.4l0,0.1c0.9,0.1,1.7,0.2,1.7,0.2l-1.2,0.3
			c0.7,0.1,1.1,0.2,1.1,0.2l-1.7,0.4l0,0.1c1,0.1,1.8,0.3,1.8,0.3l-1.9,0.4l-0.1,0.5c1.1,0.1,2,0.3,2,0.3l-2.1,0.4l0,0.3
			c0.8,0.1,1.3,0.2,1.3,0.2l-1.4,0.3l0,0.1c0.7,0.1,1.3,0.2,1.3,0.2l-1.3,0.3l-0.1,0.4c1,0.1,1.7,0.2,1.7,0.2l-1.8,0.4l0,0.2
			c0.8,0.1,1.3,0.2,1.3,0.2l-1.4,0.3l0,0.1c1.1,0.1,2,0.3,2,0.3l-2.1,0.4l0,0.2c1,0.1,1.7,0.2,1.7,0.2L64,86l0,0.2
			c1,0.1,1.8,0.3,1.8,0.3l-1.9,0.4l0,0.1c1.2,0.1,2.3,0.3,2.3,0.3l-1.2,0.2c0.2,0,0.4,0.1,0.4,0.1L63.7,88l0,0.2
			c0.9,0.1,1.7,0.2,1.7,0.2l-1.7,0.4l-0.1,0.7c1,0.1,1.8,0.3,1.8,0.3l-1.9,0.4l-0.1,0.4c1.2,0.1,2.2,0.3,2.2,0.3l-2.3,0.5l-0.1,0.4
			c1.3,0.1,2.4,0.3,2.4,0.3l-2.5,0.5L63,93c1.2,0.1,2.2,0.3,2.2,0.3l-2.3,0.5l0,0.4c1.2,0.1,2.1,0.3,2.1,0.3l-2.2,0.5l-0.1,0.4
			c1.1,0.1,2,0.3,2,0.3L62.6,96l-0.1,0.5c1.2,0.1,2.2,0.3,2.2,0.3l-2.3,0.5l-0.1,0.4c1.4,0.1,2.7,0.3,2.7,0.3l-1.7,0.3
			c0.4,0.1,0.6,0.1,0.6,0.1l-1.8,0.4l-0.1,0.5c0.9,0.1,1.6,0.2,1.6,0.2L62,100l0,0.3c1.3,0.1,2.5,0.3,2.5,0.3l-2.7,0.6l0,0.1
			c1,0.1,1.8,0.3,1.8,0.3l-1.8,0.4l-0.1,0.6c1.5,0.1,2.8,0.3,2.8,0.3l-2.9,0.6l0,0.2c1.4,0.1,2.7,0.3,2.7,0.3l-2.7,0.6
			c0.8,0.1,1.3,0.2,1.3,0.2l-1.3,0.3c0.7,0.1,1.2,0.2,1.2,0.2l-1.4,0.3l0,0.2c0.8,0.1,1.3,0.2,1.3,0.2l-0.8,0.2
			c0.4,0.1,0.7,0.1,0.7,0.1l-1.3,0.3l-0.1,0.4c0.7,0.1,1.2,0.2,1.2,0.2l-0.8,0.2c0.4,0.1,0.7,0.1,0.7,0.1l-1.2,0.3l0,0.2
			c0.7,0.1,1.1,0.2,1.1,0.2l-0.6,0.1c0.7,0.1,1.2,0.2,1.2,0.2l-1.8,0.4l0,0.3c0.6,0.1,1,0.2,1,0.2l-1,0.2l0,0.2
			c0.6,0.1,0.9,0.1,0.9,0.1l-0.1,0c0.7,0.1,1.2,0.2,1.2,0.2l-2.2,0.5l-0.1,0.4c0.9,0.1,1.5,0.2,1.5,0.2l0,0c0.3,0,0.5,0.1,0.5,0.1
			l-2.1,0.4l-0.1,0.4c0.1,0,0.1,0,0.2,0c0.8-0.1,1.3-0.1,1.3-0.1l-0.5,0.2c0.5,0.1,0.8,0.1,0.8,0.1l-1.8,0.4l-0.2,0.1l-0.1,0.5
			c1.3-0.3,2.5-0.3,2.5-0.3l-2.2,1.1l0.5,0.5c0.8-0.4,1.5-0.7,1.5-0.7l-1,1.2l0.4,0.4c0.7-0.4,1.3-0.6,1.3-0.6l-0.6,0.6
			c0.7-0.3,1.2-0.5,1.2-0.5l-1.1,1.3l0.4,0.4c0.8-0.4,1.4-0.7,1.4-0.7l-1,1.1c0.8-0.4,1.5-0.7,1.5-0.7l-1.1,1.2l0.3,0.3
			c1-0.5,1.9-0.9,1.9-0.9l-1.3,1.5l0.3,0.3c0.9-0.5,1.7-0.8,1.7-0.8l-1.2,1.4l0.6,0.6c0.9-0.5,1.8-0.9,1.8-0.9l-0.6,0.6
			c0.4-0.2,0.7-0.3,0.7-0.3l-1.1,1.3l0.2,0.2c1.1-0.7,2.2-1.1,2.2-1.1l-1.5,1.6c0.9-0.5,1.7-0.8,1.7-0.8l-1.4,1.5l0.7,0.7
			c1.1-0.6,2.2-1.1,2.2-1.1l-1.6,1.8l0.5,0.5c1-0.5,1.8-0.9,1.8-0.9l-1.3,1.4l0.3,0.3c0.9-0.5,1.7-0.8,1.7-0.8l-1.2,1.4l0,0
			c1.1-0.4,2-0.6,2-0.6L72,126l0.2,0.2c0.9-0.3,1.6-0.5,1.6-0.5l-1.2,0.9l0.1,0.1c1.1-0.4,2-0.6,2-0.6l-1.4,1.1l1,1l0.1,0.3
			c0.8,0,1.3,0,1.3,0l-1.2,0.4l0.2,1.2c1.2-0.1,2.2,0,2.2,0l-2.1,0.7l0.2,1.1c1.3-0.1,2.5,0,2.5,0l1.2-9.4l0.1,0.6
			c0.9,0,1.6,0,1.6,0l-1.5,0.5l0.1,0.6c1.3-0.1,2.4,0,2.4,0l-1.5,0.5c0.2,0,0.4,0,0.4,0l-1.1,0.4l0.1,0.4c1.3-0.1,2.4,0,2.4,0
			l-2.2,0.8c0.7,0,1.1,0,1.1,0l-1.1,0.4l0.2,0.9c0.4,0,0.7,0,0.7,0l-0.6,0.2l0,0.1c1.3-0.1,2.4,0,2.4,0l-2.1,0.7c0.9,0,1.7,0,1.7,0
			l-1.7,0.6l0,0.3c1.4-0.1,2.7,0,2.7,0l-1.8,0.6c0.4,0,0.7,0,0.7,0l-0.7,0.2c1.2,0,2.2,0,2.2,0l-2.7,1l0.1,0.3c0.9,0,1.5,0,1.5,0
			l-0.8,0.3c0.9,0,1.6,0,1.6,0l-2.1,0.7l0.1,0.4c0.6,0,0.9,0,0.9,0l-0.9,0.3l0,0.2c1.3-0.1,2.5,0,2.5,0l-1.7,0.6c0.4,0,0.7,0,0.7,0
			l-1.4,0.5l0.1,0.4c1.2,0,2.2,0,2.2,0l-0.9,0.3c0.3,0,0.5,0,0.5,0l-0.4,0.1c0.8,0,1.4,0,1.4,0l-2.5,0.9l0,0c0.7,0,1.3,0,1.3,0
			l-1.2,0.4l0.1,0.4c1.1,0,1.9,0,1.9,0l-1.8,0.6l0,0.2c1.4-0.1,2.6,0,2.6,0l-0.3,0.1c0.2,0,0.3,0,0.3,0l-2.4,0.8l0.1,0.5
			c1.1,0,2,0,2,0l-1.4,0.5c1.5-0.1,3.1,0,3.1,0l-2,0.7c1.1,0,2.1,0,2.1,0l-3.3,1.2l0,0.3c1.4-0.1,2.7,0,2.7,0l-2.6,0.9l0.6,3.3
			l-2.8-1.2c-1.2,2.6-3,5.4-3,5.4l2-5.9l-1-0.4c-1.2,2.5-2.7,4.9-2.7,4.9l1.8-5.3l0,0c-1.2,2.4-2.7,4.7-2.7,4.7l1.8-5.1l-0.2-0.1
			c-1.1,2.2-2.4,4.2-2.4,4.2l1.6-4.5c-1.1,2-2.2,3.8-2.2,3.8l1.4-4.1l0,0c-1,1.9-2,3.4-2,3.4l1.3-3.7l-0.2-0.1
			c-0.9,1.7-1.8,3.1-1.8,3.1l1.2-3.4l0,0c-0.9,1.6-1.7,2.9-1.7,2.9l1.1-3.2l-0.5-0.2l-0.1-0.2c-1,1.4-1.8,2.4-1.8,2.4l1.5-3
			l-0.2-0.3c-1.1,1.5-2,2.7-2,2.7l1.4-2.8c-0.8,1.1-1.4,1.8-1.4,1.8l1.4-2.8l0,0c-1.3,1.9-2.5,3.4-2.5,3.4l2.1-4.2l-0.1-0.2
			c-1.5,2.3-3.2,4.4-3.2,4.4l2.6-5.3l-0.1-0.2c-1.5,2.4-3.5,4.8-3.5,4.8l2.8-5.7c-1.6,2.5-3.7,5.1-3.7,5.1l3-6.1
			c-1.5,2.8-4.3,6.3-4.3,6.3l1.7-3.4l-2.1,2.5l0.1-1.6c-0.9,1.8-1.8,3.2-1.8,3.2l1.2-3.5c-0.8,1.4-1.4,2.4-1.4,2.4l2.3-6.7l0,0
			c-1.2,2.6-3,5.4-3,5.4l1.6-4.8c-1.2,2.4-2.6,4.6-2.6,4.6l1-3.1c-1.1,2.1-2.2,4-2.2,4l1-3l-0.5,0.4c-1,1.9-2,3.5-2,3.5l0.8-2.3
			l-1.3,1.2l0-1.6c-0.6,1.4-1.1,2.4-1.1,2.4l1.1-5l0,0c-0.9,2.3-1.9,4.3-1.9,4.3l1-4.3c-0.6,1.5-1.2,2.6-1.2,2.6l1.5-6.6l-0.1,0.1
			c-0.7,3-2.9,7.4-2.9,7.4l1.2-5l-0.9,1.2c-0.9,2.4-2,4.6-2,4.6l0.6-2.7l-1.9,2.5l-0.3-5.9c-0.4,1.4-0.7,2.5-0.7,2.5l0.4-7.7l0-0.4
			l0,0l0-0.1l-0.1-0.2c-0.5,2.5-1.2,4.9-1.2,4.9l0.3-5c-0.4,1.6-0.8,2.9-0.8,2.9l0.3-5c-0.4,1.9-0.9,3.4-0.9,3.4l0.3-5.5l-0.3-0.6
			c-0.5,2-1,3.8-1,3.8l0.3-5.3l-0.2-0.5c-0.5,2.2-1,4-1,4l0.3-5c-0.4,1.9-0.9,3.4-0.9,3.4l0.3-5.1c-0.5,2.1-1,3.9-1,3.9l0.3-5.6
			l-0.2-0.5c-0.5,2.5-1.2,4.8-1.2,4.8l-3.1,3.6l-0.1-0.3c-1,2.6,1-5.1,1-5.1l-1.7,3.7l-0.1-0.3c-1,2.8,0.7-4.2,0.7-4.2l1.2-4.3
			l-0.3,0.4c-1,2.3-2.2,4.5-2.2,4.5l0.6-2.1c-0.8,1.7-1.6,3.1-1.6,3.1l0.6-2l-1.6,2l1.4-4.7c-0.7,1.6-1.4,2.7-1.4,2.7l-2,4.9
			c4.2-7.5,5.2-7.1-2.6,4.2l1.8-4.5c-1.3,2.5-3.1,5.2-3.1,5.2l1.5-3.8c-1.2,2.1-2.5,4-2.5,4l1.2-3.1l-0.9,0.7
			c-0.8,1.4-1.5,2.4-1.5,2.4l0.7-1.7l-0.7,0.5c-0.5,0.9-0.8,1.5-0.8,1.5l0.3-1.1l-0.5,0.4l0.2-1.7c-0.4,0.8-0.7,1.3-0.7,1.3l0.7-2.8
			c-0.4,0.8-0.7,1.3-0.7,1.3l1-3.8l0-0.3c-0.8,1.7-1.5,2.9-1.5,2.9l1.3-4.9c-0.6,1.2-1,2-1,2l0.6-2.1c-0.7,1.2-1.3,2.1-1.3,2.1
			l1.3-3.5c-1.2,2.3-2.5,4.4-2.5,4.4l1.3-3.5l-0.1,0.1c-1.2,2.2-2.4,4.2-2.4,4.2l1-2.8l-0.2,0.2c-1,1.9-2.1,3.5-2.1,3.5l0.8-2.3
			l-2,1.9l0.4-2.2c-0.8,0.9-1.4,1.6-1.4,1.6l1.6-2.8l0.1-0.4c-1.1,1.3-2,2.3-2,2.3l2.3-4l0.1-0.8c-1.2,1.5-2.3,2.7-2.3,2.7l2.7-4.7
			l0-0.1c-1.2,1.4-2.2,2.5-2.2,2.5l2.5-4.4l0-0.2l0.2-0.7c-1.4,1.7-2.7,3.1-2.7,3.1l2.7-4.7c-1.2,1.4-2.2,2.5-2.2,2.5l3-5.2
			c-1.5,1.9-3,3.5-3,3.5l2.9-5.1c-1.3,1.6-2.4,2.8-2.4,2.8l2.9-5.1c-1,1.3-1.9,2.2-1.9,2.2l3.3-5.7l0-0.1c-1.6,2-3.2,3.8-3.2,3.8
			l3-5.1l-0.4,0.2c-1.5,1.9-3,3.5-3,3.5l1.7-2.9l-0.5,0.2c-2.3,1.7-4.8,3.1-4.8,3.1l2.2-2l-3.8,1.7l3.3-4.5
			c-2.1,1.5-4.2,2.7-4.2,2.7l6.1-5.5c-2.8,1.8-6.7,3.7-6.7,3.7l5.8-4.3l-7.6,3.9l1.2-1.7c-0.9,0.5-1.4,0.9-1.4,0.9L15,98l1.8-2.7
			c-2.3,1.8-4.7,3.4-4.7,3.4l5.9-5.8c-2.5,1.9-5.6,3.8-5.6,3.8l3.9-3.6L10,96.9l2.1-3.8c-1,0.7-1.7,1.1-1.7,1.1l2.3-2.1l1.6-2.9
			c-1.2,0.8-2.1,1.3-2.1,1.3l2.7-2.5l0.9-1.6c-0.9,0.6-1.6,1-1.6,1l2.1-1.9l0.8-1.4c-1.6,1.2-3,2.1-3,2.1l4.1-4l0.6-1
			c-1.7,1.1-3,1.9-3,1.9l3.9-3.4l0.7-1.2c-1.8,1.2-3.3,2.1-3.3,2.1l4.3-3.8l0.9-1.7c-2.5,1.3-5.2,2.5-5.2,2.5l6.1-4.1l0-0.1
			c-2.5,1.3-4.9,2.3-4.9,2.3l5.8-3.9l0.4-0.6c-2.5,1.3-5,2.4-5,2.4l4.9-3.3c-3.2,1.3-7.7,2.5-7.7,2.5l5.9-2.7l-8.2,2.7l4.5-3.9
			c-2.3,1.1-4.3,2-4.3,2l7.9-5.3l-1.3,0.4c-3,1.8-9,3.7-9,3.7l3.4-1.8l-5.6,1.9l5.9-5.9c-2.4,1.4-4.8,2.5-4.8,2.5l7-5.3l-3.2,1.1
			c-2.6,1.6-5.6,3.1-5.6,3.1l2.7-2l-5.4,1.9L9.1,61.8z"/>
		<path class="st13" d="M9.1,61.8c-1.2,0.6-2.1,1-2.1,1l3.2-2.4l1.4-1.7c-1.8,1-3.2,1.7-3.2,1.7l5-3.7l1.1-1.3l0.4-0.5
			c-2.5,1.5-5.2,2.8-5.2,2.8l6.7-5.1c-2.1,1.2-4.1,2.1-4.1,2.1l6.5-4.9l0.3-0.4c-2.8,1.8-6.4,3.5-6.4,3.5l8.9-6.7l0.1-0.1
			c-2.7,1.7-6,3.3-6,3.3l7.5-5.6c-2.4,1.4-4.9,2.6-4.9,2.6l4.6-3.5c-2,1.1-3.6,1.9-3.6,1.9l8.6-6.5l0.9-1.1l0.5,0.4
			c0.6-0.4,1.2-0.7,1.6-1L15.5,59.3l10.6-0.7l-7.6,4.9l8.2-0.6l-5.6,4.9l8.2-0.2L15.9,90.4l4,0.7l-2.6,5.5l6.3-1.7l-2.3,6l5.2-2.3
			l-4.2,21.1l5.8-2.7l0.5,7.3l5.6-3.1l4.3-6l-0.1,6.1l12.4,6.3l0.9,6.7l5.1-4.6l1.5,6.8l7.5-4.7l-1.1,4.6l4.3-3.3l5.5,8.1l6.6,3.8
			l1.7,0.8l0.2,0.9l-2.8-1.2c-1.2,2.6-3,5.4-3,5.4l2-5.9l-1-0.4c-1.2,2.5-2.7,4.9-2.7,4.9l1.8-5.3l0,0c-1.2,2.4-2.7,4.7-2.7,4.7
			l1.8-5.1l-0.2-0.1c-1.1,2.2-2.4,4.2-2.4,4.2l1.6-4.5c-1.1,2-2.2,3.8-2.2,3.8l1.4-4.1l0,0c-1,1.9-2,3.4-2,3.4l1.3-3.7l-0.2-0.1
			c-0.9,1.7-1.8,3.1-1.8,3.1l1.2-3.4l0,0c-0.9,1.6-1.7,2.9-1.7,2.9l1.1-3.2l-0.5-0.2l-0.1-0.2c-1,1.4-1.8,2.4-1.8,2.4l1.5-3
			l-0.2-0.3c-1.1,1.5-2,2.7-2,2.7l1.4-2.8c-0.8,1.1-1.4,1.8-1.4,1.8l1.4-2.8l0,0c-1.3,1.9-2.5,3.4-2.5,3.4l2.1-4.2l-0.1-0.2
			c-1.5,2.3-3.2,4.4-3.2,4.4l2.6-5.3l-0.1-0.2c-1.5,2.4-3.5,4.8-3.5,4.8l2.8-5.7c-1.6,2.5-3.7,5.1-3.7,5.1l3-6.1
			c-1.5,2.8-4.3,6.3-4.3,6.3l1.7-3.4l-2.1,2.5l0.1-1.6c-0.9,1.8-1.8,3.2-1.8,3.2l1.2-3.5c-0.8,1.4-1.4,2.4-1.4,2.4l2.3-6.7l0,0
			c-1.2,2.6-3,5.4-3,5.4l1.6-4.8c-1.2,2.4-2.6,4.6-2.6,4.6l1-3.1c-1.1,2.1-2.2,4-2.2,4l1-3l-0.5,0.4c-1,1.9-2,3.5-2,3.5l0.8-2.3
			l-1.3,1.2l0-1.6c-0.6,1.4-1.1,2.4-1.1,2.4l1.1-5l0,0c-0.9,2.3-1.9,4.3-1.9,4.3l1-4.3c-0.6,1.5-1.2,2.6-1.2,2.6l1.5-6.6l-0.1,0.1
			c-0.7,3-2.9,7.4-2.9,7.4l1.2-5l-0.9,1.2c-0.9,2.4-2,4.6-2,4.6l0.6-2.7l-1.9,2.5l-0.3-5.9c-0.4,1.4-0.7,2.5-0.7,2.5l0.4-7.7l0-0.4
			l0,0l0-0.1l-0.1-0.2c-0.5,2.5-1.2,4.9-1.2,4.9l0.3-5c-0.4,1.6-0.8,2.9-0.8,2.9l0.3-5c-0.4,1.9-0.9,3.4-0.9,3.4l0.3-5.5l-0.3-0.6
			c-0.5,2-1,3.8-1,3.8l0.3-5.3l-0.2-0.5c-0.5,2.2-1,4-1,4l0.3-5c-0.4,1.9-0.9,3.4-0.9,3.4l0.3-5.1c-0.5,2.1-1,3.9-1,3.9l0.3-5.6
			l-0.2-0.5c-0.5,2.5-1.2,4.8-1.2,4.8l-3.1,3.6l-0.1-0.3c-1,2.6,1-5.1,1-5.1l-1.7,3.7l-0.1-0.3c-1,2.8,0.7-4.2,0.7-4.2l1.2-4.3
			l-0.3,0.4c-1,2.3-2.2,4.5-2.2,4.5l0.6-2.1c-0.8,1.7-1.6,3.1-1.6,3.1l0.6-2l-1.6,2l1.4-4.7c-0.7,1.6-1.4,2.7-1.4,2.7l-2,4.9
			c4.2-7.5,5.2-7.1-2.6,4.2l1.8-4.5c-1.3,2.5-3.1,5.2-3.1,5.2l1.5-3.8c-1.2,2.1-2.5,4-2.5,4l1.2-3.1l-0.9,0.7
			c-0.8,1.4-1.5,2.4-1.5,2.4l0.7-1.7l-0.7,0.5c-0.5,0.9-0.8,1.5-0.8,1.5l0.3-1.1l-0.5,0.4l0.2-1.7c-0.4,0.8-0.7,1.3-0.7,1.3l0.7-2.8
			c-0.4,0.8-0.7,1.3-0.7,1.3l1-3.8l0-0.3c-0.8,1.7-1.5,2.9-1.5,2.9L27,121c-0.6,1.2-1,2-1,2l0.6-2.1c-0.7,1.2-1.3,2.1-1.3,2.1
			l1.3-3.5c-1.2,2.3-2.5,4.4-2.5,4.4l1.3-3.5l-0.1,0.1c-1.2,2.2-2.4,4.2-2.4,4.2l1-2.8l-0.2,0.2c-1,1.9-2.1,3.5-2.1,3.5l0.8-2.3
			l-2,1.9l0.4-2.2c-0.8,0.9-1.4,1.6-1.4,1.6l1.6-2.8l0.1-0.4c-1.1,1.3-2,2.3-2,2.3l2.3-4l0.1-0.8c-1.2,1.5-2.3,2.7-2.3,2.7l2.7-4.7
			l0-0.1c-1.2,1.4-2.2,2.5-2.2,2.5l2.5-4.4l0-0.2l0.2-0.7c-1.4,1.7-2.7,3.1-2.7,3.1l2.7-4.7c-1.2,1.4-2.2,2.5-2.2,2.5l3-5.2
			c-1.5,1.9-3,3.5-3,3.5l2.9-5.1c-1.3,1.6-2.4,2.8-2.4,2.8l3-5.1c-1,1.3-1.9,2.2-1.9,2.2l3.3-5.7l0-0.1c-1.6,2-3.2,3.8-3.2,3.8
			l3-5.1l-0.4,0.2c-1.5,1.9-3,3.5-3,3.5l1.7-2.9l-0.5,0.2c-2.3,1.7-4.8,3.1-4.8,3.1l2.2-2l-3.8,1.7l3.3-4.5
			c-2.1,1.5-4.2,2.7-4.2,2.7l6.1-5.5c-2.8,1.8-6.7,3.7-6.7,3.7l5.8-4.3l-7.6,3.9l1.2-1.7c-0.9,0.5-1.4,0.9-1.4,0.9L15,98l1.8-2.7
			c-2.3,1.8-4.7,3.4-4.7,3.4l5.9-5.8c-2.5,1.9-5.6,3.8-5.6,3.8l3.9-3.6L10,96.9l2.1-3.8c-1,0.7-1.7,1.1-1.7,1.1l2.3-2.1l1.6-2.9
			c-1.2,0.8-2.1,1.3-2.1,1.3l2.7-2.5l0.9-1.6c-0.9,0.6-1.6,1-1.6,1l2.1-1.9l0.8-1.4c-1.6,1.2-3,2.1-3,2.1l4.1-4l0.6-1
			c-1.7,1.1-3,1.9-3,1.9l3.9-3.4l0.7-1.2c-1.8,1.2-3.3,2.1-3.3,2.1l4.3-3.8l0.9-1.7c-2.5,1.3-5.2,2.5-5.2,2.5l6.1-4.1l0-0.1
			c-2.5,1.3-4.9,2.3-4.9,2.3l5.8-3.9l0.4-0.6c-2.5,1.3-5,2.4-5,2.4l4.9-3.3c-3.2,1.3-7.7,2.5-7.7,2.5l5.9-2.7l-8.2,2.7l4.5-3.9
			c-2.3,1.1-4.3,2-4.3,2l7.9-5.3l-1.3,0.4c-3,1.8-9,3.7-9,3.7l3.4-1.8l-5.6,1.9l5.9-5.9c-2.4,1.4-4.8,2.5-4.8,2.5l7-5.3l-3.2,1.1
			c-2.6,1.6-5.6,3.1-5.6,3.1l2.7-2l-5.4,1.9L9.1,61.8z"/>
		<path class="st11" d="M101.3,31.6l-1,1.3l0,0c0-1.8,0-3.3,0-3.3l-1.1,2.9c0-1.2,0-2.1,0-2.1l-0.8,2c0-1.6,0-2.8,0-2.8l-0.7,1.8
			c0-0.6,0-0.9,0-0.9l-0.7,1.8l-0.3-0.1c0.7-1.6,1.2-2.9,1.2-2.9l-2.3,2.4l-0.3-0.1c0.7-1.5,1.2-2.7,1.2-2.7l-2.1,2.3l0,0
			c0.7-1.7,1.3-3,1.3-3l-2.4,2.5l-0.1,0c0.5-1.9,0.8-3.4,0.8-3.4l-2,2.9l0,0c0.6-2.6,1.2-5,1.2-5l-2.9,4.3l-0.3-0.1
			c0.5-2.2,0.9-4,0.9-4l-1.9,2.8c0.4-1.7,0.7-3.1,0.7-3.1l-2.2,3.3l-0.3-0.1c0.5-2.2,0.9-4,0.9-4l-2.1,3.1c0.5-2.2,0.9-4,0.9-4
			L84.3,27l-0.1,0c0.5-2.1,0.9-3.9,0.9-3.9l-1.9,2.9c0.4-1.8,0.7-3.1,0.7-3.1l-1.6,2.3c0.3-1.5,0.6-2.5,0.6-2.5l-2,3l-0.3-0.1
			c0.5-1.9,0.8-3.4,0.8-3.4l-0.9,1.4c0.2-0.8,0.3-1.3,0.3-1.3l-1.8,2.6l-0.2-0.1c0.5-2,0.8-3.5,0.8-3.5l-0.6,0.9
			c0.3-1.3,0.5-2.2,0.5-2.2l-2.7,4l-0.1,0c-0.3-2.6-0.6-5-0.6-5l-1.1,4.2c-0.2-1.4-0.3-2.4-0.3-2.4l-0.7,2.7
			c-0.2-1.6-0.3-2.7-0.3-2.7L73,23.9l-0.3,0c-0.2-1.7-0.4-2.9-0.4-2.9l-0.8,2.9c-0.7-1.7-1.2-3-1.2-3l0,1.4c-0.5-1.2-0.8-2-0.8-2
			l0,4.2l0,0c-0.8-2.2-1.6-4-1.6-4l0,2.8c-0.7-1.7-1.2-3-1.2-3l0,4.2c-0.3-0.8-0.5-1.3-0.5-1.3l0,1.9l0,0c-1.8-2.3-3.6-4.4-3.6-4.4
			l1.1,2.9l0,1.4c-1.5-1.8-2.8-3.3-2.8-3.3l1.5,4L62,25.5c-1.5-1.8-2.7-3.3-2.7-3.3l0.9,2.4c-1.7-2.1-3.3-4-3.3-4l2,5.3
			c-2.9-1.6-5.7-3.1-5.7-3.1l3.4,3.2c-2.4-1.3-4.4-2.4-4.4-2.4l3.1,2.9l-0.9,0.1l3.6,2.6c-1.1,0.7-2.1,1.3-2.1,1.3l2.7-0.8l0.1,0.1
			c-1.1,0.7-1.9,1.2-1.9,1.2l2.4-0.8l0.1,0.1c-1,0.6-1.8,1.1-1.8,1.1l2.2-0.7l0.1,0.1c-0.8,0.5-1.4,0.9-1.4,0.9l1.8-0.5
			c-0.8,0.5-1.5,0.9-1.5,0.9l1.9-0.6l0.1,0.1c0.1,0.1,0.1,0.1,0.2,0.2c-0.9,0.5-1.5,1-1.5,1l1.3-0.4c-0.8,0.5-1.5,0.9-1.5,0.9l3.2-1
			l0.1,0c-1.3,0.8-2.6,1.6-2.6,1.6l1.9-0.6c-0.7,0.5-1.3,0.8-1.3,0.8l2.3-0.7c-0.8,0.5-1.5,0.9-1.5,0.9l2.2-0.7
			c-0.7,0.9-1.3,1.7-1.3,1.7l1.8-1.2c-0.6,0.8-1.1,1.4-1.1,1.4l0.4-0.3c-0.3,0.4-0.6,0.7-0.6,0.7l1.6-1c-0.5,0.7-0.9,1.2-0.9,1.2
			l2.3-1.5l0.2,0.2c0,0,0,0-0.1,0.1c-0.9,0.6-1.6,1-1.6,1l1-0.3c-0.5,0.7-1,1.2-1,1.2l2.2-1.5l0.1,0.1c-1.1,1.3-2.2,2.7-2.2,2.7
			l1.8-1.2c-0.4,0.4-0.6,0.7-0.6,0.7l1.5-1c-0.9,1-1.6,2-1.6,2l1.3-0.9c-0.3,0.4-0.5,0.7-0.5,0.7l1-0.6c-0.7,0.8-1.2,1.5-1.2,1.5
			l2.1-1.4c-0.6,0.7-1,1.2-1,1.2l1.5-1c-0.7,0.8-1.2,1.5-1.2,1.5l2.5-1.7c-0.9,1.1-1.6,2.1-1.6,2.1l2.4-1.6l0.1,0.1
			c-0.8,1-1.6,2-1.6,2l0.8-0.5c-0.6,0.7-1,1.3-1,1.3l2.3-1.5c-0.7,0.9-1.4,1.7-1.4,1.7l2-1.3c-0.8,1-1.5,1.9-1.5,1.9l1.9-1.3
			c-0.7,0.8-1.2,1.5-1.2,1.5l2.4-1.6l0.1,0.1c-0.9,1.1-1.6,2.1-1.6,2.1l2.3-1.6l0,0c-0.8,0.9-1.4,1.7-1.4,1.7l1.5-1
			c-0.6,0.7-1,1.2-1,1.2l1.9-1.2l0,0c-0.8,0.9-1.4,1.8-1.4,1.8L75,43c-0.3,0.4-0.6,0.7-0.6,0.7l1.1-0.8c-0.5,0.6-0.8,1-0.8,1
			l1.6-1.1c-0.6,0.8-1.1,1.4-1.1,1.4l0.4-0.2c-0.3,0.3-0.5,0.6-0.5,0.6l1.4-0.9c-0.6,0.8-1.1,1.4-1.1,1.4l1.4-0.9
			c-0.4,0.5-0.7,0.9-0.7,0.9l1.5-1c-0.7,0.9-1.4,1.7-1.4,1.7l2.4-1.6l0,0c-0.6,1.1-1.2,2.1-1.2,2.1l1.6-1.4c-0.6,1-1,1.8-1,1.8
			l1.2-1c-0.4,0.7-0.6,1.1-0.6,1.1l0.9-0.8c-0.3,0.5-0.5,0.8-0.5,0.8l1.1-1c-0.5,0.8-0.8,1.5-0.8,1.5l1.7-1.5c-0.6,1-1,1.8-1,1.8
			l1.6-1.4l0.1,0.1c-0.5,0.9-1,1.7-1,1.7l1.5-1.3l0.1,0.1c-0.5,0.9-0.9,1.6-0.9,1.6l1.4-1.3l0.1,0c-0.6,1-1,1.8-1,1.8l1.1-1
			c-0.4,0.7-0.7,1.2-0.7,1.2l1.5-1.3c-0.5,0.8-0.8,1.5-0.8,1.5l1.2-1c-0.5,0.9-0.9,1.7-0.9,1.7l1.6-1.4l0.2,0.1
			c-0.5,0.8-0.8,1.5-0.8,1.5l1.3-1.2l0.2,0.2c-0.4,0.7-0.7,1.2-0.7,1.2l1-0.9l0,0c-0.2,0.9-0.3,1.6-0.3,1.6l0.8-1.2l0,0
			c-0.2,0.9-0.3,1.7-0.3,1.7l0.8-1.3l0.1,0.1c-0.2,1.1-0.4,2-0.4,2l0.9-1.4c-0.2,0.8-0.3,1.5-0.3,1.5l0.8-1.3
			c-0.2,1-0.4,1.9-0.4,1.9l0.9-1.4c-0.2,1-0.3,1.7-0.3,1.7l0.9-1.4l0.2,0.1c0.1,0.9,0.2,1.7,0.2,1.7l0.4-1.3l0.2,0.1l0,0
			c0.1,0.7,0.1,1.2,0.1,1.2l0.3-1c0.1,0.7,0.1,1.1,0.1,1.1l0.3-1.1c0.2,0.3,0.3,0.6,0.3,0.6l-0.1-1l0.2,0c0.5,0.9,0.9,1.6,0.9,1.6
			l-0.1-0.9c0.3,0.6,0.5,1,0.5,1l-0.3-1.9l0.1,0c0.5,0.9,0.9,1.6,0.9,1.6l-0.2-1.4c0.4,0.7,0.7,1.2,0.7,1.2l-0.2-1.7
			c0.4,0.8,0.8,1.5,0.8,1.5l-0.2-1.4c0.1,0.3,0.3,0.5,0.4,0.7c0.1,0.7,0.1,1.1,0.1,1.1l0.2-0.6c0,0,0,0,0,0l0-0.1l0.1-0.5
			c0.1,0.7,0.1,1.3,0.1,1.3l0.6-2.2l0.1,0.5l0.4-0.5L96,51.9c0,0,0.3-0.1,0.5-0.2c0,0,0,0.3,0,0.2c0-0.1,0.2-0.1,0.2-0.1
			s0.1,0.4,0.1,0.5c0,0.1,0.3-0.2,0.3-0.2c0,0,0.1,0.4,0.1,0.4l0.4-0.3l0,0.4l0.4-0.4l0,0.6l0.3-0.3l0,0.5l0.7-0.4l-0.3,0.5l1-0.4
			l-0.4,0.5l1-0.3l-0.2,0.4l0.7-0.2l-0.3,0.4l0.7-0.2l-0.2,0.4l0.4-0.3l0,0.5l0.2-0.3l0,0.5l0.8-0.3l-0.5,0.4L103,54l-0.3,0.5
			l0.7-0.4l-0.6,1.4l1.2-1.1l0.6,0.9l-0.4-1.1l1.1,0.9l-0.3-0.8l0.4,0.3l-0.2-0.6l1.1,0.7l-0.6-1l1.4,0.7l-0.6-0.7l0.7,0.3l-0.5-0.6
			l1.9,0.9l-0.9-0.9l1,0.5l-0.5-0.9l1.6,0.6l-1-1l2,1l-1.2-1.6l0.9,0.1l-1-0.9l1.5,0.4l-1.5-1.1l2.1,0.2l-1.5-0.8l1.5-0.4l-2,0
			l1.1-0.4l-1.3-0.5l2,0.4l-1.7-1.1l0.7-0.1l-1.4-0.6l1.7-0.2l-2.2-0.5l1.5-0.6l-1.7-0.1l1.4-0.8l-1.6-0.1l1-0.5l-1.5-0.4l1.2-0.1
			l-1.7-0.4l1.2-0.1l-0.6-0.3l-0.9-1l1.3,0.7l-1.1-1.2l1.2,0.5l-1.4-1.5l1.5,0.9l-1.1-1l0.8,0.2l-1-0.9l1.5,0.5l-1.9-1.4l1.6,0.6
			l-1.1-0.8l2.2,0.5l-1-0.4l-1.7-1.7l1.4,0.9l-1-1.2l1.1,0.6l-1.4-1l1.3,0.5l-1.3-0.8l0.9-0.2l-1.8,0c0,0,1.1-0.4,0.7-0.4
			s-2.1,0-2.1,0l1.4-0.4l-1.6,0.1l0.3-0.5l-1,0.3l0.5-0.5l-1.5,0.1l0.6-0.5l-1.5,0c0,0,1.1-0.3,1-0.3c-0.1,0-1.5,0.1-1.5,0.1
			l0.8-0.6l-1.3,0.1l1.4-0.5l-1.6,0.2L101.3,31.6z"/>
		<path class="st14" d="M97.3,50.9"/>
		<g>
			<path class="st7" d="M78.8,75.6c0,0,0.1,0.6,0.3,1.6c0.2,1,0.4,2.5,0.5,4.3c0.3,3.5,0.4,8.2,0.1,12.9c-0.3,4.7-0.9,9.3-1.6,12.8
				c-0.4,1.7-0.7,3.2-1,4.2c-0.3,1-0.5,1.6-0.5,1.6s-0.1-0.6-0.3-1.6c-0.2-1-0.4-2.5-0.5-4.3c-0.3-3.5-0.4-8.2-0.1-12.9
				c0.3-4.7,0.9-9.3,1.6-12.8c0.4-1.7,0.7-3.2,1-4.2C78.5,76.2,78.8,75.6,78.8,75.6z"/>
		</g>
		<g>
			<path class="st7" d="M94.9,85.6c0,0-0.3,0.4-1,1c-0.6,0.6-1.5,1.5-2.7,2.4c-2.3,1.9-5.5,4.1-8.9,6c-3.4,1.9-6.9,3.6-9.7,4.6
				c-1.4,0.5-2.6,0.9-3.4,1.1c-0.8,0.2-1.4,0.3-1.4,0.3s0.3-0.4,1-1c0.6-0.6,1.5-1.5,2.7-2.4c2.3-1.9,5.5-4.1,8.9-6
				c3.4-1.9,6.9-3.6,9.7-4.6c1.4-0.5,2.6-0.9,3.4-1.1C94.4,85.7,94.9,85.6,94.9,85.6z"/>
		</g>
		<g>
			<path class="st15" d="M94.9,85.6c0,0-1.5,1.3-3.9,2.9c-1.2,0.8-2.6,1.8-4.2,2.7c-0.8,0.5-1.6,1-2.4,1.5c-0.8,0.5-1.7,1-2.5,1.5
				c-0.9,0.5-1.7,0.9-2.5,1.4c-0.8,0.5-1.7,0.9-2.5,1.3c-1.6,0.8-3.1,1.6-4.5,2.2c-2.7,1.2-4.5,1.9-4.5,1.9s1.5-1.3,3.9-2.9
				c1.2-0.8,2.6-1.8,4.2-2.7c0.8-0.5,1.6-1,2.4-1.5c0.8-0.5,1.7-1,2.5-1.5c0.9-0.5,1.7-0.9,2.5-1.4c0.8-0.5,1.7-0.9,2.5-1.3
				c1.6-0.8,3.1-1.6,4.5-2.2C93,86.3,94.9,85.6,94.9,85.6z"/>
		</g>
		<g>
			<path class="st15" d="M78.8,75.6c0,0,0.2,2.4,0.2,5.9c0,1.8,0,3.8,0,6c0,1.1,0,2.2-0.1,3.4c-0.1,1.2-0.1,2.3-0.2,3.5
				c-0.1,1.2-0.2,2.3-0.2,3.5c-0.1,1.2-0.2,2.3-0.3,3.4c-0.2,2.2-0.4,4.2-0.6,6c-0.4,3.5-0.9,5.8-0.9,5.8s-0.2-2.4-0.2-5.9
				c0-1.8,0-3.8,0-6c0-1.1,0-2.2,0.1-3.4c0.1-1.2,0.1-2.3,0.2-3.5c0.1-1.2,0.2-2.3,0.2-3.5c0.1-1.2,0.2-2.3,0.3-3.4
				c0.2-2.2,0.4-4.2,0.6-6C78.3,77.9,78.8,75.6,78.8,75.6z"/>
		</g>
		<path class="st13" d="M54.2,26.7l0.9-0.1L52,23.6c0,0,2,1.1,4.4,2.4l-3.4-3.2c0,0,2.8,1.5,5.7,3.1l-2-5.3c0,0,1.6,1.9,3.3,4
			l-0.9-2.4c0,0,1.3,1.5,2.7,3.3l0.7-0.1l-1.5-4c0,0,1.3,1.5,2.8,3.3l0-1.4l-1.1-2.9c0,0,1.8,2.1,3.6,4.4l0,0l0-1.9
			c0,0,0.2,0.5,0.5,1.3l0-4.2c0,0,0.5,1.3,1.2,3l0-2.8c0,0,0.8,1.9,1.6,4l0,0l0-4.2c0,0,0.3,0.8,0.8,2l0-1.4c0,0,0.5,1.3,1.2,3
			l0.8-2.9c0,0,0.2,1.3,0.4,2.9l0.3,0l0.8-3.1c0,0,0.2,1.1,0.3,2.7l0.7-2.7c0,0,0.1,1,0.3,2.4l1.1-4.2c0,0,0.3,2.4,0.6,5l0.1,0
			l2.7-4c0,0-0.2,0.9-0.5,2.2l0.6-0.9c0,0-0.3,1.6-0.8,3.5l0.2,0.1l1.8-2.6c0,0-0.1,0.5-0.3,1.3l0.9-1.4c0,0-0.3,1.5-0.8,3.4
			l0.3,0.1l2-3c0,0-0.2,1.1-0.6,2.5l1.6-2.3c0,0-0.3,1.4-0.7,3.1l1.9-2.9c0,0-0.4,1.8-0.9,3.9l0.1,0l2.5-3.8c0,0-0.4,1.8-0.9,4
			l2.1-3.1c0,0-0.4,1.8-0.9,4l0.3,0.1l2.2-3.3c0,0-0.3,1.3-0.7,3.1l1.9-2.8c0,0-0.4,1.8-0.9,4l0.3,0.1l2.9-4.3c0,0-0.5,2.4-1.2,5
			l0,0l2-2.9c0,0-0.3,1.5-0.8,3.4l0.1,0l2.4-2.5c0,0-0.5,1.3-1.3,3l0,0l2.1-2.3c0,0-0.5,1.2-1.2,2.7l0.3,0.1l2.3-2.4
			c0,0-0.5,1.2-1.2,2.9l0.3,0.1l0.7-1.8c0,0,0,0.4,0,0.9l0.7-1.8c0,0,0,1.2,0,2.8l0.8-2c0,0,0,0.8,0,2.1l1.1-2.9c0,0,0,1.4,0,3.3
			l0,0l1-1.3l-0.6,1.4l1.6-0.2l-1.4,0.5l1.3-0.1l-0.8,0.6c0,0,1.4-0.1,1.5-0.1s-1,0.3-1,0.3l1.5,0l-0.6,0.5l1.5-0.1l-0.5,0.5l1-0.3
			l-0.3,0.5l1.6-0.1l-1.4,0.4c0,0,1.7,0.1,2.1,0c0.3-0.1-0.7,0.4-0.7,0.4l1.8,0l-0.9,0.2l1.3,0.8l-1.3-0.5l1.4,1l-1.1-0.6l1,1.2
			l-1.4-0.9l1.7,1.7l1,0.4l-2.2-0.5l1.1,0.8l-1.6-0.6l1.9,1.4l-1.5-0.5l1,0.9l-0.8-0.2l1.1,1l-1.5-0.9l1.4,1.5l-1.2-0.5l1.1,1.2
			l-1.3-0.7l0.9,1l0.6,0.3l-1.2,0.1l1.7,0.4l-1.2,0.1l1.5,0.4l-1,0.5l1.6,0.1l-1.4,0.8l1.7,0.1l-1.5,0.6l2.2,0.5l-1.7,0.2l1.4,0.6
			l-0.7,0.1l1.7,1.1l-2-0.4l1.3,0.5l-1.1,0.4l2,0l-1.5,0.4l1.5,0.8l-2.1-0.2l1.5,1.1l-1.5-0.4l1,0.9l-0.9-0.1l1.2,1.6l-2-1l1,1
			l-1.6-0.6l0.5,0.9l-1-0.5l0.9,0.9l-1.9-0.9l0.5,0.6l-0.7-0.3l0.6,0.7l-1.4-0.7l0.6,1l-1.1-0.7l0.2,0.6l-0.4-0.3l0.3,0.8l-1.1-0.9
			l0.4,1.1l-0.6-0.7l-1.3,1l0.5-1.2l-0.6,0.2l0.4-0.4l-0.1,0.1l0.4-0.2l-0.1,0.7l0.5-0.6l0.3,0.2l0.2-0.6l0.5,0.7l-0.1-0.8l0.4,0.5
			l0-0.7l0.6,0.6l-0.3-0.9l0.9,0.6L106,53l0.8,0.7l-0.1-0.6l1.1,0.7l-0.3-0.8l0.7,0.5l-0.3-0.9l1.1,0.5l-0.6-1L110,53l-0.8-1.1
			l0.6,0l-0.7-0.8l1.3,0.2l-1.6-1.1l1.8,0.1l-1-0.6l0.8-0.1l-0.9-0.1l0.7-0.6l-1.1-0.5l1.4,0l-1.1-0.7l0.7-0.1l-1.4-0.6l1.3-0.1
			l-1.7-0.6l1.2-0.3l-1.4-0.3l1.1-0.5l-1.5-0.2l1-0.5l-1.4-0.5l0.7-0.2l-1.1-0.2l0.9-0.3l-1.1-1.6l0.8,0.5l-0.8-1.2l1.2,0.8
			l-1.3-1.5l1,0.6l-0.5-0.6l0.8,0.3l-1-1l1.2,0.4l-1.8-1.3l1.1,0.4l-0.5-0.6l1.8,0.5l-2.2-1.8l-0.3-0.3l1,0.3l-0.4-0.6l0.6,0.2
			l-0.8-0.5l0.5,0l-0.7-0.3l0.5,0l-1.2,0l0.5-0.3l-2.3-0.1l0.7-0.2l-0.8,0l0.5-0.4l-1.1,0.2l0.4-0.5l-1.7,0l0.8-0.4l-1.4,0l0.4-0.3
			l-0.8,0.1l0.5-0.5l-1,0l0.4-0.3l-0.7,0.1l0.4-0.6l-0.7,0.6l0-2.5c0,0-0.9,2.1-1,2.1c-0.1,0-0.2-1.6-0.2-1.6l-0.6,1.6l-0.2-2.2
			l-0.7,1.8l0.1-1.4l-0.5,1.5l-0.6-0.4l0.8-1.8l-1.9,1.8l-0.4-0.4l0.9-1.8l-1.9,1.6l0.6-2l-1.7,1.8l0.4-2.8L91.4,31l0.9-4.3
			l-2.5,3.7l-0.5-0.2l1-3.6l-2,3l0.8-3.2l-2,2.8l-0.5-0.3l1-3.6l-2,3.4l0.7-3.9l-2.1,3.1l0.3-3.1L82.7,27l0.6-2.5L82,26.2l0.3-2
			c0,0-1.6,1.7-1.5,1.8c0.1,0-0.4-0.7-0.4-0.7l0.6-1.9l-0.8,1.1l0.3-1.2L79,25.4l-0.7-0.2l0.9-2.6l-1.7,2c0,0,1.4-3.3,1.4-3.1
			c0,0.2-2.4,3.3-2.4,3.3l-0.3-4l-1,3.1l-0.6-1.5l-0.5,1.9l-0.5-2L73,24.4l-0.4-0.1l-0.3-1.9l-0.7,2.3L70.7,22l0.1,1.4l-0.9-2
			l0.1,3.8l-1.6-3.3l0.1,2.5l-1.3-3l0.3,3.7l-0.8-0.7l0,1l-3-3.3l1.1,3.7l-2.7-2.5l1,2.7l-1.4,0l-1.7-2.4l0.9,2.5l-3-3.5l1.6,4.1
			l-4.7-2.6l3.5,2.8l-4.2-1.6l2,1.6l-1.8-0.2L54.2,26.7z"/>
		<g>
			<path class="st12" d="M66.5,140.9l9,3.5l0,0l8.6,2.7l2.1,0.7c0.3,0.1,0.7,0.2,1,0.3l1.1,0.3l4.4,1l17.5,4.3l-0.4,0l9.9-1.4l-1,1
				l1.7-18.4l1.6,1.4l-8.8,2.1l-0.4,0.1l-0.4-0.2c-6.1-2.4-12.2-4.9-18.3-7.3l-0.7-0.3l-0.2-0.7l-4.8-20.6l-0.3-1.1l1-0.5l19.4-10.1
				l0.9-0.5l0.7,0.7l4.5,4.3l-0.2-0.2l10.9,6.9l-0.9-0.2l5.5-0.8l-1,0.9c2.5-8.3,4.9-16.6,7.5-24.9l0.5,1.1
				c-6-2.8-12.1-5.5-18.1-8.4l-9-4.2l-9-4.3l9.2,3.7l9.2,3.8c6.1,2.5,12.3,5.1,18.4,7.6l0.7,0.3l-0.2,0.8
				c-2.2,8.4-4.5,16.7-6.8,25.1l-0.2,0.8l-0.8,0.1l-5.5,0.9l-0.5,0.1L124,111l-11-6.8l-0.1-0.1l-0.1-0.1l-4.6-4.2l1.6,0.2
				l-19.4,10.2l0.8-1.7l4.7,20.6l-0.9-1c6.1,2.5,12.2,5,18.3,7.5l-0.8-0.1l8.8-2l1.8-0.4l-0.2,1.8l-2,18.4l-0.1,0.9l-0.9,0.1
				l-10,1.1l-0.2,0l-0.2,0l-17.3-4.9l-4.3-1.2l-1.1-0.3c-0.4-0.1-0.7-0.3-1.1-0.4l-2.1-0.8l-8.4-3.1l0,0l0,0L66.5,140.9z"/>
		</g>
		<path class="st11" d="M71.9,141.5l-0.7-0.5l0.5,0.2l-0.2-0.5c0,0,0.5,0.4,0.7,0.7l0.1-0.7c0,0,0.3,0.6,0.3,0.8c0,0,0,0,0.1,0
			l0.1-0.7c0,0,0.1,0.3,0.2,0.6l0.1-0.5c0,0,0.3,0.6,0.3,0.9l0.1-0.7c0,0,0.1,0.3,0.2,0.6l0.1-0.5c0,0,0.1,0.3,0.2,0.6l0.1-0.5
			c0,0,0.1,0.3,0.2,0.6l0.1-0.5c0,0,0.1,0.3,0.2,0.6l0.1-0.5c0,0,0.1,0.3,0.2,0.6l0.1-0.5c0,0,0.1,0.3,0.2,0.6l0.1-0.5
			c0,0,0.2,0.5,0.3,0.8l0.1-0.6c0,0,0.1,0.3,0.2,0.6l0.1-0.4c0,0,0.1,0.2,0.2,0.4l0.1-0.4c0,0,0.1,0.2,0.2,0.4l0-0.3
			c0,0,0.1,0.3,0.2,0.5l0.1-0.6c0,0,0.2,0.4,0.3,0.7l0.1-0.6c0,0,0.4,0.8,0.3,1c0,0,0,0,0,0l0,0l0.1-0.7c0,0,0.1,0.3,0.2,0.6
			l0.1-0.4c0,0,0.2,0.4,0.3,0.7l0.1,0l0.1-0.6c0,0,0.2,0.5,0.3,0.8l0.1,0l0.1-0.6c0,0,0.1,0.3,0.2,0.6l0.1-0.5c0,0,0.2,0.5,0.3,0.8
			l0.1,0l0.1-0.6c0,0,0.1,0.2,0.2,0.4l0.1-0.5c0,0,0.3,0.6,0.3,0.8l0.1-0.6c0,0,0.1,0.3,0.2,0.6l0.1-0.4c0,0,0.2,0.4,0.3,0.7l0,0
			l0.1-0.6c0,0,0.2,0.5,0.3,0.8l0.1,0l0.1-0.6c0,0,0.1,0.2,0.2,0.4l0.1-0.3c0,0,0.2,0.4,0.3,0.7l0.1-0.5c0,0,0.2,0.4,0.3,0.6l0,0
			l0-0.3c0,0,0.1,0.1,0.1,0.3l0,0l0.1-0.6c0,0,0.2,0.4,0.3,0.7l0,0l0.1-0.5c0,0,0.2,0.4,0.3,0.7l0.1,0l0.1-0.5c0,0,0.1,0.2,0.2,0.5
			l0.1-0.4c0,0,0.2,0.4,0.3,0.7l0,0l0.1-0.6c0,0,0.2,0.4,0.3,0.7l0,0l0.1-0.5c0,0,0.1,0.2,0.2,0.4l0.1-0.4c0,0,0.1,0.3,0.2,0.6
			l0.1,0l0.1-0.5c0,0,0.1,0.3,0.2,0.6l0.1-0.5c0,0,0.1,0.3,0.2,0.6l0.1-0.5c0,0,0.2,0.3,0.3,0.6l0,0l0.1-0.5c0,0,0.1,0.3,0.2,0.6
			l0.1-0.4c0,0,0.1,0.3,0.2,0.6l0.1,0l0.1-0.5c0,0,0.1,0.3,0.2,0.6l0.1-0.5c0,0,0.2,0.4,0.3,0.6l0,0l0.3-0.5c0,0,0,0.2,0,0.5
			l0.2-0.3c0,0,0,0.2,0,0.5l0.2-0.4c0,0,0,0.2,0,0.4l0.2-0.4c0,0,0,0.2,0,0.5l0.2-0.3c0,0,0,0.1,0,0.3l0.2-0.3c0,0,0,0.1,0,0.3
			l0.1-0.2c0,0,0,0.2,0,0.4l0,0l0.2-0.3c0,0,0,0.2,0,0.4l0,0l0.2-0.3c0,0,0,0.2,0,0.4l0,0l0.2-0.3c0,0,0,0.1,0,0.3l0.1,0l0.2-0.3
			c0,0,0,0.1,0,0.3l0.1,0l0.2-0.3c0,0,0,0.2,0,0.4l0,0l0.2-0.4c0,0,0,0.2,0,0.4l0.2-0.4c0,0,0,0.2,0,0.4l0.3-0.4c0,0,0,0.2,0,0.4
			l0.2-0.4c0,0,0,0.2,0,0.4l0.2-0.4c0,0,0,0.3,0,0.6l0,0l0.3-0.5c0,0,0,0.2,0,0.5l0.2-0.3c0,0,0,0.2,0,0.4l0.3-0.4c0,0,0,0.3,0,0.5
			l0.1-0.2c0,0,0,0.1,0,0.3l0.2-0.3c0,0,0,0.2,0,0.5l0.2-0.3c0,0,0,0.1,0,0.3l0.1-0.2c0,0,0,0.2,0,0.5l0,0l0.2-0.3c0,0,0,0.2,0,0.4
			l0,0l0.3-0.4c0,0,0,0.3,0,0.5l0.1,0l0.3-0.5c0,0,0,0.2,0,0.5l0.2-0.3c0,0,0,0.3,0,0.5l0.1,0l0.3-0.4c0,0,0,0.2,0,0.4l0.2-0.4
			c0,0,0,0.2,0,0.4l0.2-0.4c0,0,0,0.2,0,0.4l0.2-0.4c0,0,0,0.1,0,0.3l0.1-0.2c0,0,0,0.3,0,0.5l0.1,0l0.2-0.3c0,0,0,0.1,0,0.3
			l0.2-0.4c0,0,0,0.2,0,0.5l0.2-0.3c0,0,0,0.3,0,0.5l0,0l0.3-0.4c0,0,0,0.3,0,0.5l0.1,0l0.2-0.4c0,0,0,0.2,0,0.4l0.1,0l0.2-0.4
			c0,0,0,0.2,0,0.4l0.1,0l0.2-0.4c0,0,0,0.1,0,0.3l0.2-0.3c0,0,0,0.2,0,0.5l0.2-0.3c0,0,0,0.1,0,0.2l0.1-0.2c0,0,0,0.2,0,0.5
			l0.2-0.3c0,0,0,0.2,0,0.4l0.1,0l0.2-0.3c0,0,0,0.2,0,0.4l0.2,0.1l0.5-0.4c0,0-0.1,0.2-0.2,0.4l0.5-0.3c0,0-0.1,0.2-0.1,0.3
			l0.5-0.3c0,0-0.1,0.2-0.2,0.4l0.5-0.3c0,0-0.1,0.2-0.1,0.4l0.5-0.3c0,0-0.1,0.2-0.2,0.4l0.5-0.3c0,0-0.1,0.2-0.2,0.4l0.5-0.3
			c0,0,0,0.1-0.1,0.3l0.5-0.3c0,0-0.1,0.2-0.2,0.4l0.5-0.3c0,0-0.1,0.2-0.2,0.4l0.5-0.3c0,0-0.1,0.2-0.2,0.5l0,0l0.6-0.4
			c0,0,0,0.1-0.1,0.3l0.3-0.2c0,0-0.1,0.2-0.2,0.4l0.5-0.3c0,0-0.1,0.2-0.2,0.4l0.5-0.3c0,0-0.1,0.2-0.1,0.4l0.5-0.3
			c0,0-0.1,0.3-0.2,0.5l0.1,0l0.6-0.5c0,0-0.1,0.2-0.1,0.4l0.5-0.3c0,0-0.1,0.3-0.2,0.6l0.1,0l0.6-0.5c0,0-0.1,0.3-0.2,0.5l0.6-0.4
			c0,0-0.1,0.3-0.2,0.5l0,0l0.7-0.6c0,0-0.1,0.4-0.3,0.6l0.1,0l0.7-0.5c0,0-0.1,0.2-0.2,0.4l0.5-0.3c0,0-0.1,0.2-0.1,0.4l0.5-0.3
			c0,0-0.1,0.3-0.2,0.6l0.7-0.5c0,0-0.1,0.3-0.2,0.6l0.7-0.5c0,0-0.1,0.4-0.3,0.6l0.4,0.1l0.6-0.6c0,0-0.1,0.4-0.1,0.7l0.5-0.5
			c0,0,0,0.4-0.1,0.6l0.6-0.6c0,0-0.1,0.4-0.1,0.7l0.1,0l0.5-0.6c0,0-0.1,0.4-0.1,0.7l0.1,0l0.5-0.5c0,0,0,0.3-0.1,0.6l0,0l0.5-0.6
			c0,0,0,0.4-0.1,0.6l0,0l0.6-0.6c0,0-0.1,0.4-0.1,0.7l0.1,0l0.6-0.6c0,0-0.1,0.4-0.1,0.7l0.1,0l0.5-0.5c0,0,0,0.4-0.1,0.6l0.1,0
			l0.5-0.5c0,0,0,0.2-0.1,0.4l0.3-0.4c0,0,0,0.3-0.1,0.6l0.2,0l0.5-0.5c0,0,0,0.3-0.1,0.6l0.2,0l0.5-0.5c0,0,0,0.3-0.1,0.5l0.3,0
			l0.4-0.5c0,0,0,0.3-0.1,0.5l0.3,0.1l0.4-0.4c0,0,0,0.2-0.1,0.3l0.4-0.4c0,0,0,0.3-0.1,0.5l0.8,0.1l0.4-0.4c0,0,0,0.2-0.1,0.4
			l0.1,0l0.6-0.3c0,0-0.1,0.2-0.2,0.4l0,0l0.5-0.3c0,0-0.1,0.2-0.2,0.4l0.1,0l0.6-0.1c0,0-0.1,0.1-0.2,0.2l0.5,0.1l-0.6,0.2l0.4,0.7
			c0,0-0.4-0.3-0.7-0.5l0.4,0.6c0,0-0.4-0.3-0.7-0.5l0.3,0.5c0,0-0.4-0.3-0.7-0.5l0,0l0.3,0.5c0,0-0.2-0.1-0.4-0.3l0.2,0.4
			c0,0-0.3-0.2-0.6-0.4l-0.1,0c-0.5,1.4-2,4.5-2,4.5l0.2-4l-0.2,0.1c-0.6,1.7-2.2,4.8-2.2,4.8l0.4-4.3l0,0c-0.7,1.7-1.8,3.9-1.8,3.9
			l0.3-2.9c-0.7,1.7-1.9,4.1-1.9,4.1l0.3-2.8c-0.9,1.6-2,3.3-2,3.3l0.7-3.4c-0.9,1.6-2,3.3-2,3.3l0.5-2.6c-0.8,1.4-1.6,2.7-1.6,2.7
			l0.6-2.8c-0.9,1.5-1.9,3.2-1.9,3.2l0.5-2.4c-0.8,1.5-1.8,3-1.8,3l0.6-2.9c-0.9,1.7-2.3,3.8-2.3,3.8l0.8-4.1l-0.1,0
			c-0.9,1.7-2.5,4.3-2.5,4.3l0.6-2.9c-0.9,1.6-2,3.3-2,3.3l0.5-2.5c-0.8,1.4-1.7,2.8-1.7,2.8l0.5-2.6c-0.8,1.4-1.6,2.7-1.6,2.7
			l0.7-3.2c-0.6,1-1.1,1.9-1.1,1.9l0.4-1.8l-1.5,2.2c0,0,0.3-1.2,0.6-2.5l-0.1-0.1l-1.4,2.1c0,0,0.2-0.8,0.5-1.9l-0.6,0.8
			c0,0,0.2-0.8,0.5-1.9l0,0l-1.8,2.7c0,0,0.4-1.5,0.8-3l-0.2,0.4c0,0,0.1-0.4,0.2-0.9l-0.1-0.1l-1.9,2.9c0,0,0.4-1.8,0.9-3.4
			l-1.9,2.8c0,0,0.5-2,1-3.7l-2.1,3.2c0,0,0.4-1.6,0.8-3.2l-1.4,2.1c0,0,0.3-1.5,0.8-3l-1.5,2.3c0,0,0.3-1.3,0.7-2.7l-1.6,2.4
			c0,0,0.3-1.4,0.7-2.8l-1.6,2.3c0,0,0.4-1.9,0.9-3.5l-1.8,2.8c0,0,0.6-2.4,1.1-4.2l-0.1-0.1l-2.4,3.6c0,0,0.5-2.1,1-3.8l-0.3,0.5
			c0,0,0.1-0.5,0.3-1.1l-2.3,3.5c0,0,0.3-1.5,0.8-3l-1.5,2.3c0,0,0.7-2.9,1.2-4.7l0,0l-2.4,3.6c0,0,0.6-2.8,1.2-4.5l-0.1-0.1
			l-2.4,3.6c0,0,0.6-2.7,1.2-4.5l-2.3,3.4c0,0,0.6-2.6,1.2-4.4l0,0l-2.2,3.3c0,0,0.3-1.3,0.7-2.7l-1.6,2.4c0,0,0.4-1.9,0.9-3.6
			l-1.4,1.7c0,0,0.4-1.9,0.8-3.2l-2,2.4c0,0,0.5-2.2,0.9-3.5l0,0l-1.5,1.5c0,0,0.2-1.3,0.5-2.3l-0.1-0.1l-1.7,1.7
			c0,0,0.3-1.6,0.6-2.5l-0.7,0.6c0,0,0.1-0.6,0.2-1l-0.2-0.2l-0.9,0.8c0,0,0.1-0.8,0.3-1.2c0,0,0,0,0,0L71.9,141.5z"/>
		<path class="st13" d="M71.5,140.8c0,0,0.5,0.4,0.7,0.7l0.1-0.7c0,0,0.3,0.6,0.3,0.8c0,0,0,0,0.1,0l0.1-0.7c0,0,0.1,0.3,0.2,0.6
			l0.1-0.5c0,0,0.3,0.6,0.3,0.9l0.1-0.6l0.1,0.1c0,0.1,0.1,0.3,0.2,0.4l0-0.2l2.8,3.1l3.1,0.9l-0.6,1.5l3.8,0.5l-0.5,1.3l2.9,0.9
			l-0.3,0.8l2.7,1.4l0.6,1.7l1.4,0.4l-0.4,1l2,0.6l0.8,0.9l2.4,0.7l0.7,1.6l1.8-0.2l0.6,0.9l2.2-0.5l1.4,0.5l0.8-1.8l2.6,1l0.3-0.8
			l2.5-0.5l0.4-0.9l2.5,0.1l0.6-1.5l2.2,0.3l0.6-1.3l3,0.2l3.5-0.2l-0.5,0.1l0.4,0.7c0,0-0.4-0.3-0.7-0.5l0.4,0.6
			c0,0-0.4-0.3-0.7-0.5l0.3,0.5c0,0-0.4-0.3-0.7-0.5l0,0l0.3,0.5c0,0-0.2-0.1-0.4-0.3l0.2,0.4c0,0-0.3-0.2-0.6-0.4l-0.1,0
			c-0.5,1.4-2,4.5-2,4.5l0.2-4l-0.2,0.1c-0.6,1.7-2.2,4.8-2.2,4.8l0.4-4.3l0,0c-0.7,1.7-1.8,3.9-1.8,3.9l0.3-2.9
			c-0.7,1.7-1.9,4.1-1.9,4.1l0.3-2.8c-0.9,1.6-2,3.3-2,3.3l0.7-3.4c-0.9,1.6-2,3.3-2,3.3l0.5-2.6c-0.8,1.4-1.6,2.7-1.6,2.7l0.6-2.8
			c-0.9,1.5-1.9,3.2-1.9,3.2l0.5-2.4c-0.8,1.5-1.8,3-1.8,3l0.6-2.9c-0.9,1.7-2.3,3.8-2.3,3.8l0.8-4.1l-0.1,0
			c-0.9,1.7-2.5,4.3-2.5,4.3l0.6-2.9c-0.9,1.6-2,3.3-2,3.3l0.5-2.5c-0.8,1.4-1.7,2.8-1.7,2.8l0.5-2.6c-0.8,1.4-1.6,2.7-1.6,2.7
			l0.7-3.2c-0.6,1-1.1,1.9-1.1,1.9l0.4-1.8l-1.5,2.2c0,0,0.3-1.2,0.6-2.5l-0.1-0.1l-1.4,2.1c0,0,0.2-0.8,0.5-1.9l-0.6,0.8
			c0,0,0.2-0.8,0.5-1.9l0,0l-1.8,2.7c0,0,0.4-1.5,0.8-3l-0.2,0.4c0,0,0.1-0.4,0.2-0.9l-0.1-0.1l-1.9,2.9c0,0,0.4-1.8,0.9-3.4
			l-1.9,2.8c0,0,0.5-2,1-3.7l-2.1,3.2c0,0,0.4-1.6,0.8-3.2l-1.4,2.1c0,0,0.3-1.5,0.8-3l-1.5,2.3c0,0,0.3-1.3,0.7-2.7l-1.6,2.4
			c0,0,0.3-1.4,0.7-2.8l-1.6,2.3c0,0,0.4-1.9,0.9-3.5l-1.8,2.8c0,0,0.6-2.4,1.1-4.2l-0.1-0.1l-2.4,3.6c0,0,0.5-2.1,1-3.8l-0.3,0.5
			c0,0,0.1-0.5,0.3-1.1l-2.3,3.5c0,0,0.3-1.5,0.8-3l-1.5,2.3c0,0,0.7-2.9,1.2-4.7l0,0l-2.4,3.6c0,0,0.6-2.8,1.2-4.5l-0.1-0.1
			l-2.4,3.6c0,0,0.6-2.7,1.2-4.5l-2.3,3.4c0,0,0.6-2.6,1.2-4.4l0,0l-2.2,3.3c0,0,0.3-1.3,0.7-2.7l-1.6,2.4c0,0,0.4-1.9,0.9-3.6
			l-1.4,1.7c0,0,0.4-1.9,0.8-3.2l-2,2.4c0,0,0.5-2.2,0.9-3.5l0,0l-1.5,1.5c0,0,0.2-1.3,0.5-2.3l-0.1-0.1l-1.7,1.7
			c0,0,0.3-1.6,0.6-2.5l-0.7,0.6c0,0,0.1-0.6,0.2-1l-0.2-0.2l-0.9,0.8c0,0,0.1-0.8,0.3-1.2c0,0,0,0,0,0l-0.1-0.1l-0.7-0.5l0.5,0.2
			L71.5,140.8z"/>
	</g>
</g>
</svg>
