<?xml version="1.0" encoding="utf-8"?>
<!-- Generator: Adobe Illustrator 19.1.0, SVG Export Plug-In . SVG Version: 6.00 Build 0)  -->
<svg version="1.1" xmlns="http://www.w3.org/2000/svg" xmlns:xlink="http://www.w3.org/1999/xlink" x="0px" y="0px"
	 viewBox="0 0 145.1 171" style="enable-background:new 0 0 145.1 171;" xml:space="preserve">
<style type="text/css">
	.st0{fill:#404763;}
	.st1{fill:#561F1F;}
	.st2{fill:#626299;}
	.st3{fill:#F6CBCB;}
	.st4{fill:#101522;}
	.st5{fill:none;}
	.st6{fill:#020203;}
	.st7{fill:#121329;}
	.st8{fill:#E2E09A;}
	.st9{fill:#F9F4AA;}
	.st10{fill:#181E37;}
	.st11{fill:#33394C;}
	.st12{fill:#010101;}
	.st13{fill:#F4EC4C;stroke:#010101;stroke-miterlimit:10;}
	.st14{fill:#0E0E13;}
	.st15{fill:#9E352A;}
</style>
<g id="head">
</g>
<g id="sideburn2">
</g>
<g id="Layer_2">
	<path class="st0" d="M123.4,14.2"/>
	<polygon class="st0" points="118.8,26.8 94.9,17.1 69.7,23.7 45.7,17.1 21.8,26.8 6.1,12.4 9.8,39 17.6,74.8 31.4,89.5 38.5,135.1 
		70.3,158.9 70.3,152.9 70.3,152.9 70.3,152.9 70.3,158.9 105.8,135.1 112.8,89.5 123.1,74.8 135.1,41.4 137.8,11 	"/>
	<path class="st1" d="M91.7,157.8"/>
</g>
<g id="Layer_14">
	<g>
		<path class="st2" d="M84.1,68.9c0,0,0.6,0.5,1.6,1.3c1,0.9,2.3,2.1,3.8,3.7c1.5,1.6,3.2,3.5,5,5.5c0.9,1,1.8,2.1,2.6,3.3
			c0.9,1.1,1.7,2.3,2.6,3.4c0.8,1.2,1.7,2.3,2.5,3.5c0.8,1.2,1.6,2.4,2.3,3.5c1.4,2.3,2.7,4.5,3.7,6.4c1,1.9,1.8,3.6,2.3,4.8
			c0.5,1.2,0.8,1.9,0.8,1.9s-0.6-0.5-1.6-1.3c-1-0.9-2.3-2.1-3.8-3.7c-1.5-1.6-3.2-3.5-5-5.5c-0.9-1-1.8-2.1-2.6-3.3
			c-0.9-1.1-1.7-2.3-2.6-3.4c-0.8-1.2-1.7-2.4-2.5-3.5c-0.8-1.2-1.6-2.4-2.3-3.5c-1.4-2.3-2.7-4.5-3.7-6.4c-1-1.9-1.8-3.6-2.3-4.8
			C84.3,69.6,84.1,68.9,84.1,68.9z"/>
	</g>
	<g>
		<path class="st2" d="M104,62.7c0,0,0.1,0.8,0.1,2.1c0,1.3,0,3.2-0.1,5.5c-0.1,2.3-0.3,4.9-0.7,7.6c-0.2,1.4-0.4,2.8-0.6,4.3
			c-0.2,1.5-0.5,2.9-0.8,4.4c-0.3,1.5-0.6,2.9-0.9,4.4c-0.3,1.4-0.7,2.8-1,4.2c-0.7,2.7-1.5,5.2-2.2,7.4c-0.7,2.1-1.4,3.9-1.9,5.1
			c-0.5,1.2-0.9,1.9-0.9,1.9s-0.1-0.8-0.1-2.1c0-1.3,0-3.2,0.1-5.5c0.1-2.3,0.3-4.9,0.7-7.6c0.2-1.4,0.4-2.8,0.6-4.3
			c0.2-1.5,0.5-2.9,0.8-4.4c0.3-1.5,0.6-2.9,0.9-4.4c0.3-1.4,0.7-2.8,1-4.2c0.7-2.7,1.5-5.2,2.2-7.4c0.7-2.1,1.4-3.9,1.9-5.1
			C103.7,63.4,104,62.7,104,62.7z"/>
	</g>
	<g>
		<path class="st3" d="M104,62.7c0,0-0.2,3-0.8,7.4c-0.3,2.2-0.7,4.8-1.1,7.6c-0.2,1.4-0.5,2.8-0.7,4.2c-0.3,1.4-0.5,2.9-0.8,4.4
			c-0.3,1.5-0.6,2.9-0.9,4.4c-0.3,1.4-0.6,2.8-0.9,4.2c-0.6,2.7-1.2,5.3-1.7,7.4c-1.1,4.3-2,7.2-2,7.2s0.2-3,0.8-7.4
			c0.3-2.2,0.7-4.8,1.1-7.6c0.2-1.4,0.4-2.8,0.7-4.2c0.3-1.4,0.5-2.9,0.8-4.4c0.3-1.5,0.6-2.9,0.9-4.4c0.3-1.4,0.6-2.8,0.9-4.2
			c0.6-2.7,1.2-5.3,1.7-7.4C103.2,65.6,104,62.7,104,62.7z"/>
	</g>
	<g>
		<path class="st3" d="M84.1,68.9c0,0,2,2.1,4.7,5.5c1.4,1.7,2.9,3.7,4.6,5.8c0.8,1.1,1.7,2.2,2.5,3.3c0.8,1.1,1.7,2.3,2.6,3.5
			c0.8,1.2,1.7,2.4,2.5,3.5c0.8,1.2,1.6,2.3,2.4,3.4c1.5,2.2,2.9,4.3,4.1,6.2c2.3,3.6,3.8,6.2,3.8,6.2s-2-2.1-4.7-5.5
			c-1.4-1.7-2.9-3.7-4.6-5.8c-0.8-1.1-1.7-2.2-2.5-3.3c-0.8-1.1-1.7-2.3-2.6-3.5c-0.8-1.2-1.7-2.4-2.5-3.5c-0.8-1.2-1.6-2.3-2.4-3.4
			c-1.5-2.2-2.9-4.3-4.1-6.2C85.5,71.4,84.1,68.9,84.1,68.9z"/>
	</g>
	<g>
		<path class="st2" d="M63.8,32.3c0,0-0.4,0.8-1.1,2.2c-0.7,1.4-1.8,3.3-3.1,5.6c-1.4,2.3-3,4.8-4.9,7.5c-0.9,1.4-1.9,2.7-2.9,4.1
			c-1,1.4-2.1,2.8-3.1,4.2c-1.1,1.4-2.2,2.7-3.3,4.1c-1.1,1.3-2.2,2.6-3.3,3.9c-2.1,2.5-4.2,4.7-6.1,6.6c-1.9,1.9-3.5,3.4-4.6,4.4
			c-1.2,1-1.9,1.6-1.9,1.6s0.4-0.8,1.1-2.2c0.7-1.4,1.8-3.3,3.1-5.6c1.4-2.3,3-4.8,4.9-7.5c0.9-1.3,1.9-2.7,2.9-4.1
			c1-1.4,2.1-2.8,3.1-4.2c1.1-1.4,2.2-2.7,3.3-4.1c1.1-1.3,2.2-2.6,3.3-3.9c2.2-2.5,4.2-4.7,6.1-6.6c1.9-1.9,3.5-3.4,4.6-4.4
			C63.1,32.9,63.8,32.3,63.8,32.3z"/>
	</g>
	<g>
		<path class="st3" d="M63.8,32.3c0,0-1.9,3-4.9,7.2c-1.5,2.1-3.3,4.6-5.2,7.3c-1,1.3-2,2.7-3,4c-1,1.4-2.1,2.8-3.2,4.1
			c-1.1,1.4-2.2,2.7-3.2,4.1c-1.1,1.4-2.1,2.7-3.2,3.9c-2.1,2.5-4,4.9-5.7,6.9c-3.4,4-5.8,6.5-5.8,6.5s1.9-3,4.9-7.3
			c1.5-2.1,3.3-4.6,5.2-7.3c1-1.3,2-2.7,3-4c1-1.4,2.1-2.8,3.2-4.1c1.1-1.4,2.2-2.7,3.2-4.1c1.1-1.4,2.1-2.7,3.2-3.9
			c2.1-2.5,4-4.9,5.7-6.9C61.4,34.9,63.8,32.3,63.8,32.3z"/>
	</g>
</g>
<g id="Layer_3">
	<polygon class="st4" points="45.9,95.3 54.5,105.9 61.2,109.4 71.2,107.6 78.4,109.6 90,105.9 97.9,95.1 99.4,104 98,110.8 
		86.7,132.3 69,135.9 54.5,132.2 46,111.7 44.2,104 	"/>
</g>
<g id="Layer_5">
	<polygon class="st0" points="90.5,145.3 70.3,158.9 50.2,143.8 50.6,133.8 53.8,130.7 55.3,129.7 70.9,132.1 86.5,129.3 
		87.7,130.4 91.7,133.5 	"/>
	<g>
		<path class="st5" d="M55.3,129.5"/>
	</g>
	<g>
		<path class="st6" d="M91.7,133.3c0,2,0,4-0.1,6c-0.1,2-0.1,4-0.2,6l0,0.4l-0.4,0.3c-1.6,1.2-3.3,2.4-4.9,3.6
			c-1.6,1.2-3.3,2.4-4.9,3.5c-1.7,1.2-3.3,2.3-5,3.5l-5,3.4l-0.9,0.6l-0.8-0.6l-5-3.8c-1.7-1.3-3.3-2.6-5-3.9
			c-1.7-1.3-3.3-2.6-4.9-3.9c-1.6-1.3-3.2-2.7-4.8-4l-0.4-0.3l0-0.4c0.2-1.7,0.4-3.3,0.6-5c0.2-1.7,0.4-3.3,0.7-5
			c0.1,1.7,0.2,3.4,0.2,5c0,1.7,0.1,3.3,0.1,5l-0.3-0.7c1.7,1.2,3.5,2.3,5.2,3.5c1.7,1.2,3.5,2.4,5.2,3.6c1.7,1.2,3.4,2.4,5.1,3.7
			l5.1,3.7l-1.7,0l5.1-3.4c1.7-1.1,3.4-2.2,5.1-3.3c1.7-1.1,3.4-2.2,5.1-3.2c1.7-1.1,3.4-2.1,5.2-3.2l-0.4,0.7c0.3-2,0.6-3.9,1-5.9
			C90.9,137.2,91.3,135.2,91.7,133.3z"/>
	</g>
	<g>
		<path class="st5" d="M39,144.1"/>
	</g>
	<g>
		<polygon class="st0" points="98.6,95.4 98.5,95.4 92.9,87.3 85.2,82.3 79.4,54.4 72,54.4 72,107.9 80.2,109.9 90.7,106.1 
			98.5,95.4 98.6,95.4 98.6,95.4 		"/>
		<polygon class="st0" points="64.5,54.4 58.7,82.3 51,87.3 45.4,95.4 45.3,95.4 45.3,95.4 45.3,95.4 45.4,95.4 53.2,106.1 
			63.7,109.9 72,107.9 72,54.4 		"/>
	</g>
</g>
<g id="ear">
	<path class="st1" d="M0-135.3"/>
</g>
<g id="teeth">
</g>
<g id="Layer_8">
	<path class="st7" d="M88.5,91.6c0,0-13.5-7.6-32.8,0c0,0,2.3,7.1,16.4,12.6C72.1,104.3,82.3,101.5,88.5,91.6z"/>
</g>
<g id="Layer_9">
</g>
<g id="hair">
</g>
<g id="Layer_10">
	<g>
		<path d="M79.5,54.4c0.5,1.1,1,2.2,1.4,3.3c0.2,0.6,0.4,1.1,0.6,1.7c0.2,0.6,0.4,1.1,0.6,1.7c0.3,1.1,0.7,2.3,1,3.4l0.5,1.7
			l0.4,1.7c0.6,2.3,1,4.6,1.4,7c0.2,1.2,0.4,2.4,0.5,3.5c0.1,0.6,0.1,1.2,0.2,1.8c0,0.6,0.1,1.2,0.1,1.8l-0.3-0.4l7.5,5.2l0.1,0.1
			l0,0.1c1.8,2.8,3.6,5.5,5.3,8.3c-2-2.6-4-5.2-6-7.9l0.1,0.1l-7.8-4.7l-0.2-0.1l-0.1-0.3c-0.2-0.6-0.4-1.1-0.6-1.7
			c-0.2-0.6-0.4-1.1-0.5-1.7c-0.4-1.1-0.7-2.3-1-3.4c-0.6-2.3-1.1-4.6-1.6-6.9l-0.3-1.7l-0.3-1.8c-0.2-1.2-0.3-2.4-0.5-3.5
			c-0.1-0.6-0.1-1.2-0.2-1.8c0-0.6-0.1-1.2-0.1-1.8C79.5,56.8,79.4,55.6,79.5,54.4z"/>
	</g>
	<g>
		<path d="M64.5,54.4c0,1.2,0,2.4-0.1,3.6c0,0.6-0.1,1.2-0.1,1.8c-0.1,0.6-0.1,1.2-0.2,1.8c-0.1,1.2-0.3,2.4-0.5,3.5l-0.3,1.8
			L63,68.7c-0.4,2.3-0.9,4.7-1.6,6.9c-0.3,1.2-0.6,2.3-1,3.4c-0.2,0.6-0.3,1.1-0.5,1.7c-0.2,0.6-0.4,1.1-0.6,1.7l-0.1,0.3L59,82.9
			l-7.8,4.7l0.1-0.1c-2,2.6-4,5.3-6,7.9c1.7-2.8,3.5-5.6,5.3-8.3l0-0.1l0.1-0.1l7.5-5.2l-0.3,0.4c0-0.6,0.1-1.2,0.1-1.8
			c0-0.6,0.1-1.2,0.2-1.8c0.1-1.2,0.3-2.4,0.5-3.5c0.4-2.4,0.8-4.7,1.4-7l0.4-1.7l0.5-1.7c0.3-1.2,0.6-2.3,1-3.4
			c0.2-0.6,0.4-1.1,0.6-1.7c0.2-0.6,0.4-1.1,0.6-1.7C63.5,56.6,64,55.5,64.5,54.4z"/>
	</g>
</g>
<g id="eye2">
</g>
<g id="jaaw">
</g>
<g id="outline">
</g>
<g id="nose">
</g>
<g id="eye1">
</g>
<g id="wrinkles">
</g>
<g id="Layer_4">
</g>
<g id="Layer_7">
	<g>
		<path class="st8" d="M87,106.7c0,0,2.2,7.7-5.6,13.6c-1,0.7,7.3-10.4-0.8-12.1c-1.4-0.3,1-3,3.9-2.7l0,0
			C86.3,105.7,86.3,105.9,87,106.7z"/>
		<path class="st9" d="M86.5,108.5c0,0-0.1,8.8-5.1,11.8c-1.1,0.7,1.4-8.3-1.1-12.2c-0.9-1.5,1.9-2.9,3.9-2.7h0
			C86.1,105.7,86.5,107,86.5,108.5z"/>
	</g>
	<g>
		<path class="st8" d="M56.9,133.2c0,0-5-6.9,0.2-14.2c0.7-0.9-3.1,11.5,5.3,11.4c1.5,0,0.2,3.1-2.7,3.4h0
			C58,134,57.9,133.8,56.9,133.2z"/>
		<path class="st9" d="M56.8,131.3c0,0-3.2-8.4,0.4-12.4c0.8-0.9,1.8,8.2,5.6,11.4c1.4,1.2-0.7,3.2-2.7,3.4h0
			C58.2,134,57.3,132.8,56.8,131.3z"/>
	</g>
	<g>
		<path class="st8" d="M55.9,107c0,0-2,7.3,5.4,12.9c0.9,0.7-7-9.9,0.7-11.5c1.3-0.3-1-2.9-3.7-2.6h0C56.5,106,56.6,106.2,55.9,107z
			"/>
		<path class="st9" d="M56.4,108.7c0,0,0.1,8.3,4.8,11.2c1,0.6-1.4-7.9,1-11.6c0.9-1.4-1.8-2.8-3.7-2.6h0
			C56.8,106,56.3,107.3,56.4,108.7z"/>
	</g>
	<path class="st8" d="M63.5,134.1c0,0-1.8-1.6,1.2-9.5c0.5-1.3-2.7,8.1,1.2,8.7c0,0,0,0-1.2,1.3l0,0
		C63.8,134.6,63.9,134.6,63.5,134.1z"/>
	<path class="st9" d="M63.3,132.7c0,0,0.5-5,1.2-8.1c0.1-0.7,1.9,5.8,1.3,8.6c-0.1,0.7-1,1.2-1.2,1.3h0
		C63.8,134.6,63.5,133.7,63.3,132.7z"/>
	<path class="st8" d="M66.9,134.2c0,0-1.8-1.6,1.2-9.5c0.5-1.3-2.7,8.1,1.2,8.7c0,0,0,0-1.2,1.3h0C67.2,134.6,67.3,134.6,66.9,134.2
		z"/>
	<path class="st9" d="M66.7,132.8c0,0,0.5-5,1.2-8.1c0.1-0.7,1.9,5.8,1.3,8.6c-0.1,0.7-1,1.2-1.2,1.3l0,0
		C67.2,134.6,66.8,133.8,66.7,132.8z"/>
	<path class="st8" d="M63,107.7c0,0-1.7,1.1,1.1,6.4c0.5,0.8-2.7-5.5,1.2-5.8c0,0,0,0-1.2-0.9h0C63.2,107.4,63.4,107.4,63,107.7z"/>
	<path class="st9" d="M62.8,108.6c0,0,0.5,3.4,1.2,5.5c0.1,0.5,1.9-3.9,1.3-5.8c-0.1-0.5-1-0.8-1.2-0.9h0
		C63.3,107.4,62.9,108,62.8,108.6z"/>
	<path class="st8" d="M67,107.2c0,0-1.7,1.1,1.1,6.4c0.5,0.8-2.7-5.5,1.2-5.8c0,0,0,0-1.2-0.9h0C67.3,106.9,67.4,106.9,67,107.2z"/>
	<path class="st9" d="M66.8,108.1c0,0,0.5,3.4,1.2,5.5c0.1,0.5,1.9-3.9,1.3-5.8c-0.1-0.5-1-0.8-1.2-0.9h0
		C67.3,106.9,66.9,107.4,66.8,108.1z"/>
	<path class="st8" d="M74.4,107.2c0,0,1.7,1.1-1.1,6.4c-0.5,0.8,2.7-5.5-1.2-5.8c0,0,0,0,1.2-0.9h0C74.1,106.9,74,106.9,74.4,107.2z
		"/>
	<path class="st9" d="M74.6,108.1c0,0-0.5,3.4-1.2,5.5c-0.1,0.5-1.9-3.9-1.3-5.8c0.1-0.5,1-0.8,1.2-0.9l0,0
		C74.1,106.9,74.4,107.4,74.6,108.1z"/>
	<path class="st8" d="M79.1,107.2c0,0,1.7,1.1-1.1,6.4c-0.5,0.8,2.7-5.5-1.2-5.8c0,0,0,0,1.2-0.9l0,0
		C78.8,106.9,78.7,106.9,79.1,107.2z"/>
	<path class="st9" d="M79.3,108.1c0,0-0.5,3.4-1.2,5.5c-0.1,0.5-1.9-3.9-1.3-5.8c0.1-0.5,1-0.8,1.2-0.9h0
		C78.8,106.9,79.2,107.4,79.3,108.1z"/>
	<path class="st8" d="M93.4,101c0,0,1.7,1.1-1.1,6.4c-0.5,0.8,2.7-5.5-1.2-5.8c0,0,0,0,1.2-0.9h0C93.1,100.7,93,100.7,93.4,101z"/>
	<path class="st9" d="M93.6,102c0,0-0.5,3.4-1.2,5.5c-0.1,0.5-1.9-3.9-1.3-5.8c0.1-0.5,1-0.8,1.2-0.9h0
		C93.1,100.7,93.5,101.3,93.6,102z"/>
	<path class="st8" d="M96.8,96.6c0,0,1.7,1.1-1.1,6.4c-0.5,0.8,2.7-5.5-1.2-5.8c0,0,0,0,1.2-0.9h0C96.5,96.3,96.4,96.3,96.8,96.6z"
		/>
	<path class="st9" d="M96.9,97.5c0,0-0.5,3.4-1.2,5.5c-0.1,0.5-1.9-3.9-1.3-5.8c0.1-0.5,1-0.8,1.2-0.9h0
		C96.5,96.3,96.8,96.8,96.9,97.5z"/>
	<path class="st8" d="M50.9,101.8c0,0-1.7,1.1,1.1,6.4c0.5,0.8-2.7-5.5,1.2-5.8c0,0,0,0-1.2-0.9h0C51.2,101.5,51.3,101.5,50.9,101.8
		z"/>
	<path class="st9" d="M50.8,102.8c0,0,0.5,3.4,1.2,5.5c0.1,0.5,1.9-3.9,1.3-5.8c-0.1-0.5-1-0.8-1.2-0.9h0
		C51.3,101.5,50.9,102.1,50.8,102.8z"/>
	<path class="st8" d="M47.2,97.6c0,0-1.7,1.1,1.1,6.4c0.5,0.8-2.7-5.5,1.2-5.8c0,0,0,0-1.2-0.9h0C47.5,97.3,47.6,97.3,47.2,97.6z"/>
	<path class="st9" d="M47.1,98.6c0,0,0.5,3.4,1.2,5.5c0.1,0.5,1.9-3.9,1.3-5.8c-0.1-0.5-1-0.8-1.2-0.9h0
		C47.5,97.3,47.2,97.9,47.1,98.6z"/>
	<g>
		<path class="st8" d="M84.2,134.3c0,0,5-6.9-0.2-14.2c-0.7-0.9,3.1,11.5-5.3,11.4c-1.5,0-0.2,3.1,2.7,3.4h0
			C83.2,135.1,83.2,134.9,84.2,134.3z"/>
		<path class="st9" d="M84.3,132.4c0,0,3.2-8.4-0.4-12.4c-0.8-0.9-1.8,8.2-5.6,11.4c-1.4,1.2,0.7,3.2,2.7,3.4l0,0
			C82.9,135.1,83.9,133.9,84.3,132.4z"/>
	</g>
	<path class="st8" d="M73,134.2c0,0,1.8-1.6-1.2-9.5c-0.5-1.3,2.7,8.1-1.2,8.7c0,0,0,0,1.2,1.3h0C72.8,134.6,72.6,134.6,73,134.2z"
		/>
	<path class="st9" d="M73.2,132.8c0,0-0.5-5-1.2-8.1c-0.1-0.7-1.9,5.8-1.3,8.6c0.1,0.7,1,1.2,1.2,1.3h0
		C72.7,134.6,73.1,133.8,73.2,132.8z"/>
	<path class="st8" d="M77.7,133.9c0,0,1.8-1.6-1.2-9.5c-0.5-1.3,2.7,8.1-1.2,8.7c0,0,0,0,1.2,1.3l0,0
		C77.4,134.4,77.2,134.4,77.7,133.9z"/>
	<path class="st9" d="M77.8,132.6c0,0-0.5-5-1.2-8.1c-0.1-0.7-1.9,5.8-1.3,8.6c0.1,0.7,1,1.2,1.2,1.3l0,0
		C77.3,134.4,77.7,133.5,77.8,132.6z"/>
</g>
<g id="hair_1_">
</g>
<g id="scars">
</g>
<g id="Layer_19">
</g>
<g id="Layer_12">
	<path class="st10" d="M139.2,78.9c0.6,0.7,1,1.1,1,1.1l-1.4-2.4l-0.5-1.5c0.8,1,1.5,1.8,1.5,1.8l-2.2-3.7l-0.4-1.2l-0.2-0.5
		c1.1,1.6,2.4,3,2.4,3l-3-5.1c1,1.3,1.9,2.3,1.9,2.3l-2.8-4.9l-0.1-0.4c1.3,1.8,3,3.8,3,3.8l-3.9-6.7l0-0.1c1.2,1.8,2.8,3.6,2.8,3.6
		l-3.3-5.6c1.1,1.5,2.3,2.8,2.3,2.8l-2-3.5c0.9,1.2,1.7,2.1,1.7,2.1l-3.8-6.5l-0.3-1l-0.3,0.2c-0.5-0.7-1-1.3-1-1.3l0.3,0.8
		c-0.3-0.4-0.6-0.8-0.6-0.8l0.4,1.4c-0.4-0.6-0.8-1.1-0.8-1.1l0.5,1.6c-0.5-0.7-1-1.2-1-1.2l0.6,1.7l-0.1,0.1
		c-0.5-0.8-1.1-1.4-1.1-1.4l0.5,1.7c-0.5-0.8-1-1.4-1-1.4l0.6,1.8l0,0c-0.5-0.7-0.9-1.2-0.9-1.2l0.5,1.6l-0.1,0
		c-0.5-0.7-0.9-1.2-0.9-1.2l0.5,1.5l-0.2,0.1c-0.4-0.6-0.9-1.1-0.9-1.1l0.4,1.4l-0.1,0c-0.4-0.6-0.9-1.1-0.9-1.1l0.4,1.4l-0.2,0.1
		c-0.5-0.7-1-1.2-1-1.2l0.5,1.6l-0.2,0.1c-0.5-0.7-1-1.3-1-1.3l0.5,1.6l-0.1,0.1c-0.5-0.7-1-1.3-1-1.3l0.5,1.6l-0.2,0.2
		c-0.5-0.7-1-1.3-1-1.3l0.5,1.6l-0.2,0.1c-0.4-0.6-0.9-1.1-0.9-1.1l0.4,1.4l-0.2,0.1c-0.5-0.7-1-1.3-1-1.3l0.5,1.6l-0.3,0.2
		c-0.5-0.8-1.1-1.4-1.1-1.4l0.6,1.8l0,0c-0.5-0.8-1-1.4-1-1.4l0.5,1.7l0,0c-0.5-0.8-1.1-1.5-1.1-1.5l0.6,1.8
		c-0.5-0.7-0.9-1.1-0.9-1.1l0.3,0.8c-0.3-0.4-0.6-0.7-0.6-0.7l0.5,1.6l-0.2,0.2c-0.4-0.6-0.9-1.1-0.9-1.1l0.5,1.4l-0.2,0.1
		c-0.3-0.4-0.6-0.8-0.6-0.8l0.3,1l-0.1,0.1c-0.4-0.6-0.8-1-0.8-1l0.4,1.3l-0.1,0c-0.5-0.8-1.1-1.4-1.1-1.4l0.6,1.8l-0.1,0.1
		c-0.5-0.7-1-1.3-1-1.3l0.4,1.3c-0.4-0.6-0.8-1-0.8-1l0.5,1.5l0,0c-0.5-0.7-1-1.3-1-1.3l0.5,1.5c-0.4-0.6-0.8-1.1-0.8-1.1l0.3,1
		c-0.3-0.4-0.5-0.7-0.5-0.7l0.4,1.3l-0.1,0c-0.5-0.8-1-1.4-1-1.4l0.3,1c-0.3-0.4-0.5-0.6-0.5-0.6l0.1,0.4c-0.1-0.1-0.1-0.1-0.1-0.1
		l0.4,1.4l-0.2,0.2l-0.1,0.2c-0.5-0.3-0.8-0.5-0.8-0.5l0.6,0.8c-0.3-0.2-0.6-0.3-0.6-0.3l0.4,0.6l-0.1,0.2c-0.4-0.2-0.7-0.4-0.7-0.4
		l0.5,0.7l-0.2,0.4c-0.4-0.2-0.7-0.4-0.7-0.4l0.5,0.7l-0.3,0.5c-0.4-0.2-0.7-0.4-0.7-0.4l0.5,0.7l-0.2,0.3c-0.4-0.3-0.8-0.4-0.8-0.4
		l0.5,0.7c-0.6-0.4-1.1-0.6-1.1-0.6l0.9,1.2l-0.1,0.2c-0.5-0.3-0.9-0.5-0.9-0.5l0.6,0.8c-0.4-0.2-0.7-0.4-0.7-0.4l0.6,0.7
		c-0.5-0.3-1-0.5-1-0.5l0.6,0.7c-0.3-0.2-0.6-0.3-0.6-0.3l0.2,0.3c-0.3-0.2-0.6-0.3-0.6-0.3l0.6,0.9c-0.4-0.2-0.6-0.3-0.6-0.3
		l0.6,0.8l-0.1,0.2c-0.5-0.3-1-0.6-1-0.6l0.5,0.7c-0.3-0.2-0.5-0.3-0.5-0.3l0.4,0.5c-0.3-0.2-0.6-0.3-0.6-0.3l0.1,0.1
		c-0.1-0.1-0.2-0.1-0.2-0.1l0.7,0.9l-0.1,0.2c-0.6-0.4-1-0.6-1-0.6l0.8,1l-0.1,0.1c-0.5-0.3-0.9-0.5-0.9-0.5l0.5,0.7
		c-0.4-0.3-0.8-0.4-0.8-0.4l0.8,1l-0.2,0.3c-0.5-0.3-1-0.6-1-0.6l0.7,1l0,0c-0.4-0.2-0.7-0.4-0.7-0.4l0.5,0.7l-0.2,0.4
		c-0.4-0.2-0.6-0.3-0.6-0.3l0.5,0.6L108,80c-0.4-0.3-0.8-0.4-0.8-0.4l0.6,0.8c-0.6-0.4-1.1-0.6-1.1-0.6l0.9,1.2l-0.2,0.3l0,0.1
		c-0.5,0-0.8,0-0.8,0l0.8,0.5l0,0.1c-0.6-0.1-1,0-1,0l0.9,0.6c-0.5-0.1-0.9,0-0.9,0l0.7,0.5c-0.4,0-0.7,0-0.7,0l0.9,0.6l0,0.4
		c-0.5,0-0.9,0-0.9,0l0.9,0.5l0,0.1c-0.5,0-0.9,0-0.9,0l0.6,0.4c-0.4,0-0.6,0-0.6,0l0.9,0.5l0,0.1c-0.6-0.1-1,0-1,0l1,0.6l0,0.4
		c-0.6-0.1-1.1-0.1-1.1-0.1l1,0.6l0,0.2c-0.4,0-0.7,0-0.7,0l0.7,0.4l0,0.1c-0.4,0-0.7,0-0.7,0l0.7,0.4l0,0.4c-0.5-0.1-0.9,0-0.9,0
		l0.9,0.6l0,0.2c-0.4,0-0.7,0-0.7,0l0.7,0.4l0,0.1c-0.6-0.1-1.1-0.1-1.1-0.1l1.1,0.7l0,0.1c-0.5-0.1-1,0-1,0l0.9,0.6l0,0.2
		c-0.6-0.1-1,0-1,0l1,0.6l0,0.1c-0.7-0.1-1.3-0.1-1.3-0.1l0.6,0.4c-0.1,0-0.2,0-0.2,0l0.8,0.5l0,0.1c-0.5,0-0.9,0-0.9,0l0.9,0.5
		l0,0.6c-0.6-0.1-1,0-1,0l1,0.6l0,0.3c-0.6-0.1-1.2-0.1-1.2-0.1l1.2,0.7l0,0.3c-0.7-0.1-1.3-0.1-1.3-0.1l1.3,0.8l0,0.4
		c-0.7-0.1-1.2-0.1-1.2-0.1l1.2,0.7l0,0.3c-0.6-0.1-1.2-0.1-1.2-0.1l1.1,0.7l0,0.3c-0.6-0.1-1.1-0.1-1.1-0.1l1.1,0.7l0,0.4
		c-0.7-0.1-1.2-0.1-1.2-0.1l1.2,0.7l0,0.4c-0.8-0.1-1.5-0.1-1.5-0.1l0.8,0.5c-0.2,0-0.3,0-0.3,0l0.9,0.6l0,0.4c-0.5,0-0.9,0-0.9,0
		l0.9,0.5l0,0.2c-0.7-0.1-1.4-0.1-1.4-0.1l1.4,0.8l0,0.1c-0.5-0.1-1,0-1,0l0.9,0.6l0,0.5c-0.8-0.1-1.6-0.1-1.6-0.1l1.5,0.9l0,0.2
		c-0.8-0.1-1.5-0.1-1.5-0.1l1.4,0.9c-0.4,0-0.7,0-0.7,0l0.6,0.4c-0.4,0-0.6,0-0.6,0l0.7,0.4l0,0.2c-0.4,0-0.7,0-0.7,0l0.4,0.3
		c-0.2,0-0.4,0-0.4,0l0.7,0.4l0,0.3c-0.4,0-0.7,0-0.7,0l0.4,0.3c-0.2,0-0.4,0-0.4,0l0.6,0.4l0,0.2c-0.4,0-0.6,0-0.6,0l0.3,0.2
		c-0.4,0-0.7,0-0.7,0l0.9,0.5l0,0.2c-0.3,0-0.5,0-0.5,0l0.5,0.3l0,0.2c-0.3,0-0.5,0-0.5,0l0,0c-0.4,0-0.7,0-0.7,0l1.1,0.7l0,0.3
		c-0.5,0-0.8,0-0.8,0l0,0c-0.2,0-0.3,0-0.3,0l1.1,0.6l0,0.4c0,0-0.1,0-0.1,0c-0.4-0.2-0.7-0.3-0.7-0.3l0.2,0.3c-0.3,0-0.5,0-0.5,0
		l0.9,0.6l0.1,0.1l0,0.4c-0.7-0.4-1.3-0.6-1.3-0.6l1,1.2l-0.3,0.4c-0.4-0.5-0.7-0.8-0.7-0.8l0.4,1.1l-0.3,0.3
		c-0.3-0.4-0.6-0.7-0.6-0.7l0.2,0.6c-0.3-0.4-0.6-0.6-0.6-0.6l0.4,1.2l-0.3,0.3c-0.4-0.4-0.7-0.7-0.7-0.7l0.4,1
		c-0.4-0.5-0.7-0.8-0.7-0.8l0.4,1.1l-0.2,0.2c-0.5-0.6-0.9-1-0.9-1l0.5,1.4l-0.2,0.2c-0.4-0.5-0.8-0.9-0.8-0.9l0.5,1.3l-0.4,0.4
		c-0.4-0.6-0.8-1-0.8-1l0.2,0.6c-0.2-0.2-0.3-0.3-0.3-0.3l0.4,1.2l-0.1,0.1c-0.5-0.7-1-1.2-1-1.2l0.6,1.5c-0.4-0.5-0.8-0.9-0.8-0.9
		l0.5,1.4l-0.5,0.5c-0.5-0.7-1-1.2-1-1.2l0.6,1.7l-0.3,0.4c-0.4-0.6-0.8-1-0.8-1l0.5,1.3l-0.2,0.2c-0.4-0.5-0.8-0.9-0.8-0.9l0.5,1.3
		l0,0c-0.5-0.5-1-0.8-1-0.8l0.6,1.2l-0.1,0.2c-0.4-0.4-0.8-0.6-0.8-0.6l0.5,0.9l-0.1,0.1c-0.5-0.5-1-0.8-1-0.8l0.6,1.1l-0.7,0.7
		l-0.1,0.3c-0.4-0.1-0.7-0.2-0.7-0.2l0.6,0.5l-0.3,0.9c-0.6-0.2-1.2-0.3-1.2-0.3l1,0.9l-0.2,0.9c-0.7-0.2-1.3-0.3-1.3-0.3l1.1,1
		l-0.1,0.5c-0.5-0.1-0.9-0.2-0.9-0.2l0.8,0.6l-0.1,0.4c-0.7-0.2-1.3-0.3-1.3-0.3l0.7,0.6c-0.1,0-0.2,0-0.2,0l0.5,0.5l-0.1,0.3
		c-0.7-0.2-1.3-0.3-1.3-0.3l1.1,0.9c-0.4-0.1-0.6-0.1-0.6-0.1l0.6,0.5l-0.2,0.7c-0.2,0-0.4-0.1-0.4-0.1l0.3,0.3l0,0.1
		c-0.7-0.2-1.3-0.3-1.3-0.3l1,0.9c-0.5-0.1-0.9-0.2-0.9-0.2l0.9,0.7L93,133c-0.7-0.3-1.4-0.4-1.4-0.4l0.9,0.8
		c-0.2-0.1-0.4-0.1-0.4-0.1l0.3,0.3c-0.6-0.2-1.2-0.3-1.2-0.3l1.3,1.2l-0.1,0.3c-0.5-0.1-0.8-0.2-0.8-0.2l0.4,0.3
		c-0.5-0.1-0.8-0.2-0.8-0.2l1,0.9l-0.1,0.3c-0.3-0.1-0.5-0.1-0.5-0.1l0.4,0.4l0,0.1c-0.7-0.3-1.4-0.4-1.4-0.4l0.8,0.7
		c-0.2-0.1-0.4-0.1-0.4-0.1l0.7,0.6l-0.1,0.3c-0.6-0.2-1.2-0.3-1.2-0.3l0.4,0.4c-0.2,0-0.3-0.1-0.3-0.1l0.2,0.2
		c-0.4-0.1-0.7-0.2-0.7-0.2l1.2,1.1l0,0c-0.4-0.1-0.7-0.2-0.7-0.2l0.6,0.5l-0.1,0.3c-0.6-0.2-1-0.3-1-0.3l0.9,0.8l0,0.2
		c-0.7-0.3-1.4-0.4-1.4-0.4l0.2,0.1c-0.1,0-0.2,0-0.2,0l1.2,1l-0.1,0.4c-0.6-0.2-1.1-0.3-1.1-0.3l0.7,0.6c-0.8-0.3-1.7-0.5-1.7-0.5
		l1,0.9c-0.6-0.2-1.1-0.3-1.1-0.3l1.6,1.4l-0.1,0.2c-0.7-0.3-1.5-0.4-1.5-0.4l1.3,1.1l-0.7,2.6l1.7-0.5c0.3,2.3,0.9,4.8,0.9,4.8
		l-0.3-5l0.6-0.2c0.3,2.2,0.8,4.4,0.8,4.4l-0.3-4.5l0,0c0.3,2.1,0.8,4.2,0.8,4.2l-0.3-4.4l0.1,0c0.3,1.9,0.7,3.7,0.7,3.7l-0.3-3.9
		c0.3,1.8,0.7,3.4,0.7,3.4l-0.2-3.5l0,0c0.3,1.7,0.6,3,0.6,3l-0.2-3.2l0.1,0c0.3,1.5,0.6,2.8,0.6,2.8l-0.2-2.9l0,0
		c0.3,1.5,0.5,2.6,0.5,2.6l-0.2-2.7l0.3-0.1l0.1-0.1c0.4,1.2,0.7,2.2,0.7,2.2l-0.4-2.6l0.1-0.2c0.4,1.4,0.7,2.5,0.7,2.5l-0.4-2.5
		c0.3,1,0.5,1.7,0.5,1.7l-0.4-2.5l0,0c0.4,1.7,0.9,3.1,0.9,3.1l-0.6-3.7l0.1-0.2c0.5,2,1.2,4,1.2,4l-0.7-4.7l0.1-0.1
		c0.5,2.2,1.2,4.4,1.2,4.4l-0.8-5c0.5,2.3,1.3,4.7,1.3,4.7l-0.8-5.3c0.5,2.5,1.5,5.7,1.5,5.7l-0.5-3l0.8,2.3l0.2-1.3
		c0.3,1.6,0.6,2.8,0.6,2.8l-0.2-3c0.2,1.2,0.4,2.1,0.4,2.1l-0.4-5.8l0,0c0.3,2.3,0.9,4.8,0.9,4.8l-0.3-4.1c0.3,2.1,0.8,4.1,0.8,4.1
		l-0.2-2.6c0.3,1.9,0.7,3.5,0.7,3.5l-0.2-2.6l0.2,0.4c0.3,1.7,0.6,3.1,0.6,3.1l-0.1-2l0.5,1.2l0.2-1.3c0.1,1.2,0.3,2.1,0.3,2.1
		l0-4.2l0,0c0.2,2,0.5,3.8,0.5,3.8l0-3.6c0.2,1.3,0.3,2.3,0.3,2.3l0-5.6l0,0.1c0,2.6,0.6,6.4,0.6,6.4l0-4.2l0.3,1.1
		c0.2,2.1,0.5,4,0.5,4l0-2.3l0.7,2.3l0.9-4.7c0,1.2,0,2.1,0,2.1l0.8-6.3l0.1-0.3l0,0l0,0l0.1-0.1c-0.1,2.1,0,4.2,0,4.2l0.5-4.1
		c0,1.4,0,2.4,0,2.4l0.5-4.1c0,1.6,0,2.9,0,2.9l0.6-4.5l0.2-0.5c0,1.7,0,3.2,0,3.2l0.5-4.3l0.2-0.4c0,1.8,0,3.4,0,3.4l0.5-4.1
		c0,1.6,0,2.9,0,2.9l0.5-4.2c0,1.8,0,3.3,0,3.3l0.6-4.6l0.2-0.4c-0.1,2.1,0,4.1,0,4.1l0.7-5.4l0.1-0.2c0.2,2.2,0.7,4.5,0.7,4.5
		l-0.1-5.6l0.1-0.2c0.2,2.4,0.7,5.3,0.7,5.3l-0.1-3.6l0.1,0.4c0.2,2,0.6,3.9,0.6,3.9l0-1.8c0.2,1.5,0.4,2.7,0.4,2.7l0-1.7l0.6,1.9
		l-0.1-4c0.2,1.4,0.4,2.4,0.4,2.4l-0.1-4.6c0.4,2,0.9,3.8,0.9,3.8l-0.4-3.9c0.4,2.3,1,4.6,1,4.6l-0.3-3.3c0.4,1.9,0.8,3.6,0.8,3.6
		l-0.3-2.7l0.4,0.7c0.3,1.2,0.5,2.2,0.5,2.2l-0.1-1.4l0.3,0.5c0.1,0.8,0.2,1.3,0.2,1.3l0-1l0.2,0.4l0.1-1.4c0.1,0.7,0.2,1.2,0.2,1.2
		l0-2.3c0.1,0.7,0.2,1.1,0.2,1.1l-0.1-3.2l0-0.2c0.2,1.5,0.4,2.6,0.4,2.6l-0.1-4.1c0.2,1.1,0.3,1.8,0.3,1.8l0-1.8
		c0.2,1.1,0.4,1.9,0.4,1.9l-0.2-3.1c0.3,2,0.8,3.9,0.8,3.9l-0.2-3l0,0.1c0.3,1.9,0.8,3.7,0.8,3.7l-0.2-2.4l0.1,0.2
		c0.3,1.7,0.7,3.2,0.7,3.2l-0.1-2l0.8,1.9l0.1-1.8c0.3,0.9,0.5,1.5,0.5,1.5l-0.5-2.5l0-0.3c0.4,1.2,0.8,2.2,0.8,2.2l-0.7-3.6l0-0.6
		c0.5,1.4,0.9,2.5,0.9,2.5l-0.8-4.2l0-0.1c0.4,1.3,0.8,2.3,0.8,2.3l-0.8-3.9l0-0.2l0-0.6c0.5,1.6,1,2.9,1,2.9l-0.8-4.2
		c0.4,1.3,0.8,2.3,0.8,2.3l-0.9-4.7c0.5,1.7,1.1,3.3,1.1,3.3l-0.9-4.6c0.5,1.4,0.9,2.6,0.9,2.6l-0.9-4.6c0.4,1.2,0.7,2,0.7,2l-1-5.1
		l0-0.1c0.6,1.9,1.2,3.5,1.2,3.5l-0.9-4.6l0.2,0.2c0.5,1.7,1.1,3.3,1.1,3.3l-0.5-2.6l0.3,0.3c1,1.7,2.2,3.2,2.2,3.2l-0.9-2l1.8,1.9
		l-1.2-4.1c0.9,1.5,1.9,2.8,1.9,2.8l-2.6-5.4c1.3,1.9,3.1,3.9,3.1,3.9l-2.5-4.3l3.6,4.3l-0.4-1.6c0.4,0.6,0.7,0.9,0.7,0.9l-0.9-1.9
		l-0.6-2.4c1,1.8,2.1,3.4,2.1,3.4l-2.4-5.5c1.1,1.9,2.5,3.9,2.5,3.9l-1.6-3.4l2.8,3.9l-0.6-3.4c0.5,0.7,0.8,1.1,0.8,1.1l-0.9-2.1
		l-0.5-2.5c0.5,0.8,0.9,1.4,0.9,1.4l-1.1-2.4l-0.3-1.5c0.4,0.6,0.7,1,0.7,1l-0.9-1.8l-0.2-1.2c0.7,1.2,1.4,2.1,1.4,2.1l-1.7-3.8
		l-0.2-0.9c0.8,1.1,1.4,1.9,1.4,1.9l-1.7-3.3l-0.2-1.1c0.8,1.2,1.5,2.2,1.5,2.2l-1.8-3.7l-0.3-1.5c1.2,1.4,2.5,2.7,2.5,2.7l-2.7-4.2
		l0-0.1c1.2,1.4,2.3,2.6,2.3,2.6l-2.6-4l-0.1-0.6c1.2,1.4,2.4,2.6,2.4,2.6l-2.2-3.4c1.6,1.5,3.8,3.1,3.8,3.1l-2.8-3.1l4.1,3.3
		l-1.9-3.8c1.1,1.2,2.1,2.2,2.1,2.2l-3.5-5.4l0.6,0.5c1.4,1.8,4.4,4.2,4.4,4.2l-1.6-2l2.8,2.3l-2.4-5.6c1.1,1.5,2.2,2.7,2.2,2.7
		l-3.1-5.3l1.6,1.4c1.2,1.7,2.6,3.3,2.6,3.3l-1.2-2l2.7,2.3L139.2,78.9z"/>
	<path class="st7" d="M139.2,78.9c0.6,0.7,1,1.1,1,1.1l-1.4-2.4l-0.5-1.5c0.8,1,1.5,1.8,1.5,1.8l-2.2-3.7l-0.4-1.2l-0.2-0.5
		c1.1,1.6,2.4,3,2.4,3l-3-5.1c1,1.3,1.9,2.3,1.9,2.3l-2.8-4.9l-0.1-0.4c1.3,1.8,3,3.8,3,3.8l-3.9-6.7l0-0.1c1.2,1.8,2.8,3.6,2.8,3.6
		l-3.3-5.6c1.1,1.5,2.3,2.8,2.3,2.8l-2-3.5c0.9,1.2,1.7,2.1,1.7,2.1l-3.8-6.5l-0.3-1l-0.3,0.2c-0.3-0.4-0.6-0.8-0.8-1l5.4,20.4
		l-5.6-2.1l3.4,5l-4.3-1.7l2.4,4.8l-4.3-1.3l4.3,20.5h-2.3l0.7,4.8l-3.2-2.2l0.5,5.2l-2.5-2.6l-0.5,17.7l-2.8-3l-1.2,5.8l-2.6-3.3
		l-1,3.3l-1.3-3.8l-6.9,12.1l-1.4,5.4l-2.1-4.5l-1.7,5.3l-3.4-4.9v3.9l-1.9-3.3l-4,5.8l-4,2.2l-1,0.4l-0.2,0.7l1.7-0.5
		c0.3,2.3,0.9,4.8,0.9,4.8l-0.3-5l0.6-0.2c0.3,2.2,0.8,4.4,0.8,4.4l-0.3-4.5l0,0c0.3,2.1,0.8,4.2,0.8,4.2l-0.3-4.4l0.1,0
		c0.3,1.9,0.7,3.7,0.7,3.7l-0.3-3.9c0.3,1.8,0.7,3.4,0.7,3.4l-0.2-3.5l0,0c0.3,1.7,0.6,3,0.6,3l-0.2-3.2l0.1,0
		c0.3,1.5,0.6,2.8,0.6,2.8l-0.2-2.9l0,0c0.3,1.5,0.5,2.6,0.5,2.6l-0.2-2.7l0.3-0.1l0.1-0.1c0.4,1.2,0.7,2.2,0.7,2.2l-0.4-2.6
		l0.1-0.2c0.4,1.4,0.7,2.5,0.7,2.5l-0.4-2.5c0.3,1,0.5,1.7,0.5,1.7l-0.4-2.5l0,0c0.4,1.7,0.9,3.1,0.9,3.1l-0.6-3.7l0.1-0.2
		c0.5,2,1.2,4,1.2,4l-0.7-4.7l0.1-0.1c0.5,2.2,1.2,4.4,1.2,4.4l-0.8-5c0.5,2.3,1.3,4.7,1.3,4.7l-0.8-5.3c0.5,2.5,1.5,5.7,1.5,5.7
		l-0.5-3l0.8,2.3l0.2-1.3c0.3,1.6,0.6,2.8,0.6,2.8l-0.2-3c0.2,1.2,0.4,2.1,0.4,2.1l-0.4-5.8l0,0c0.3,2.3,0.9,4.8,0.9,4.8l-0.3-4.1
		c0.3,2.1,0.8,4.1,0.8,4.1l-0.2-2.6c0.3,1.9,0.7,3.5,0.7,3.5l-0.2-2.6l0.2,0.4c0.3,1.7,0.6,3.1,0.6,3.1l-0.1-2l0.5,1.2l0.2-1.3
		c0.1,1.2,0.3,2.1,0.3,2.1l0-4.2l0,0c0.2,2,0.5,3.8,0.5,3.8l0-3.6c0.2,1.3,0.3,2.3,0.3,2.3l0-5.6l0,0.1c0,2.6,0.6,6.4,0.6,6.4l0-4.2
		l0.3,1.1c0.2,2.1,0.5,4,0.5,4l0-2.3l0.7,2.3l0.9-4.7c0,1.2,0,2.1,0,2.1l0.8-6.3l0.1-0.3l0,0l0,0l0.1-0.1c-0.1,2.1,0,4.2,0,4.2
		l0.5-4.1c0,1.4,0,2.4,0,2.4l0.5-4.1c0,1.6,0,2.9,0,2.9l0.6-4.5l0.2-0.5c0,1.7,0,3.2,0,3.2l0.5-4.3l0.2-0.4c0,1.8,0,3.4,0,3.4
		l0.5-4.1c0,1.6,0,2.9,0,2.9l0.5-4.2c0,1.8,0,3.3,0,3.3l0.6-4.6l0.2-0.4c-0.1,2.1,0,4.1,0,4.1l0.7-5.4l0.1-0.2
		c0.2,2.2,0.7,4.5,0.7,4.5l-0.1-5.6l0.1-0.2c0.2,2.4,0.7,5.3,0.7,5.3l-0.1-3.6l0.1,0.4c0.2,2,0.6,3.9,0.6,3.9l0-1.8
		c0.2,1.5,0.4,2.7,0.4,2.7l0-1.7l0.6,1.9l-0.1-4c0.2,1.4,0.4,2.4,0.4,2.4l-0.1-4.6c0.4,2,0.9,3.8,0.9,3.8l-0.4-3.9
		c0.4,2.3,1,4.6,1,4.6l-0.3-3.3c0.4,1.9,0.8,3.6,0.8,3.6l-0.3-2.7l0.4,0.7c0.3,1.2,0.5,2.2,0.5,2.2l-0.1-1.4l0.3,0.5
		c0.1,0.8,0.2,1.3,0.2,1.3l0-1l0.2,0.4l0.1-1.4c0.1,0.7,0.2,1.2,0.2,1.2l0-2.3c0.1,0.7,0.2,1.1,0.2,1.1l-0.1-3.2l0-0.2
		c0.2,1.5,0.4,2.6,0.4,2.6l-0.1-4.1c0.2,1.1,0.3,1.8,0.3,1.8l0-1.8c0.2,1.1,0.4,1.9,0.4,1.9l-0.2-3.1c0.3,2,0.8,3.9,0.8,3.9l-0.2-3
		l0,0.1c0.3,1.9,0.8,3.7,0.8,3.7l-0.2-2.4l0.1,0.2c0.3,1.7,0.7,3.2,0.7,3.2l-0.1-2l0.8,1.9l0.1-1.8c0.3,0.9,0.5,1.5,0.5,1.5
		l-0.5-2.5l0-0.3c0.4,1.2,0.8,2.2,0.8,2.2l-0.7-3.6l0-0.6c0.5,1.4,0.9,2.5,0.9,2.5l-0.8-4.2l0-0.1c0.4,1.3,0.8,2.3,0.8,2.3l-0.8-3.9
		l0-0.2l0-0.6c0.5,1.6,1,2.9,1,2.9l-0.8-4.2c0.4,1.3,0.8,2.3,0.8,2.3l-0.9-4.7c0.5,1.7,1.1,3.3,1.1,3.3l-0.9-4.6
		c0.5,1.4,0.9,2.6,0.9,2.6l-0.9-4.6c0.4,1.2,0.7,2,0.7,2l-1-5.1l0-0.1c0.6,1.9,1.2,3.5,1.2,3.5l-0.9-4.6l0.2,0.2
		c0.5,1.7,1.1,3.3,1.1,3.3l-0.5-2.6l0.3,0.3c1,1.7,2.2,3.2,2.2,3.2l-0.9-2l1.8,1.9l-1.2-4.1c0.9,1.5,1.9,2.8,1.9,2.8l-2.6-5.4
		c1.3,1.9,3.1,3.9,3.1,3.9l-2.5-4.3l3.6,4.3l-0.4-1.6c0.4,0.6,0.7,0.9,0.7,0.9l-0.9-1.9l-0.6-2.4c1,1.8,2.1,3.4,2.1,3.4l-2.4-5.5
		c1.1,1.9,2.5,3.9,2.5,3.9l-1.6-3.4l2.8,3.9l-0.6-3.4c0.5,0.7,0.8,1.1,0.8,1.1l-0.9-2.1l-0.5-2.5c0.5,0.8,0.9,1.4,0.9,1.4l-1.1-2.4
		l-0.3-1.5c0.4,0.6,0.7,1,0.7,1l-0.9-1.8l-0.2-1.2c0.7,1.2,1.4,2.1,1.4,2.1l-1.7-3.8l-0.2-0.9c0.8,1.1,1.4,1.9,1.4,1.9l-1.7-3.3
		l-0.2-1.1c0.8,1.2,1.5,2.2,1.5,2.2l-1.8-3.7l-0.3-1.5c1.2,1.4,2.5,2.7,2.5,2.7l-2.7-4.2l0-0.1c1.2,1.4,2.3,2.6,2.3,2.6l-2.6-4
		l-0.1-0.6c1.2,1.4,2.4,2.6,2.4,2.6l-2.2-3.4c1.6,1.5,3.8,3.1,3.8,3.1l-2.8-3.1l4.1,3.3l-1.9-3.8c1.1,1.2,2.1,2.2,2.1,2.2l-3.5-5.4
		l0.6,0.5c1.4,1.8,4.4,4.2,4.4,4.2l-1.6-2l2.8,2.3l-2.4-5.6c1.1,1.5,2.2,2.7,2.2,2.7l-3.1-5.3l1.6,1.4c1.2,1.7,2.6,3.3,2.6,3.3
		l-1.2-2l2.7,2.3L139.2,78.9z"/>
	<path class="st10" d="M2.5,74.2c-0.6,0.7-1,1.1-1,1.1l1.4-2.4l0.5-1.5c-0.8,1-1.5,1.8-1.5,1.8l2.2-3.7l0.4-1.2l0.2-0.5
		c-1.1,1.6-2.4,3-2.4,3l3-5.1C4.3,67,3.4,68,3.4,68l2.8-4.9l0.1-0.4c-1.3,1.8-3,3.8-3,3.8l3.9-6.7l0-0.1c-1.2,1.8-2.8,3.6-2.8,3.6
		l3.3-5.6c-1.1,1.5-2.3,2.8-2.3,2.8l2-3.5c-0.9,1.2-1.7,2.1-1.7,2.1l3.8-6.5l0.3-1l0.3,0.2c0.5-0.7,1-1.3,1-1.3L11,51.4
		c0.3-0.4,0.6-0.8,0.6-0.8l-0.4,1.4C11.6,51.5,12,51,12,51l-0.5,1.6c0.5-0.7,1-1.2,1-1.2l-0.6,1.7l0.1,0.1c0.5-0.8,1.1-1.4,1.1-1.4
		l-0.5,1.7c0.5-0.8,1-1.4,1-1.4L13,53.9l0,0c0.5-0.7,0.9-1.2,0.9-1.2l-0.5,1.6l0.1,0c0.5-0.7,0.9-1.2,0.9-1.2L14,54.7l0.2,0.1
		c0.4-0.6,0.9-1.1,0.9-1.1l-0.4,1.4l0.1,0c0.4-0.6,0.9-1.1,0.9-1.1L15,55.4l0.2,0.1c0.5-0.7,1-1.2,1-1.2l-0.5,1.6l0.2,0.1
		c0.5-0.7,1-1.3,1-1.3l-0.5,1.6l0.1,0.1c0.5-0.7,1-1.3,1-1.3l-0.5,1.6l0.2,0.2c0.5-0.7,1-1.3,1-1.3l-0.5,1.6l0.2,0.1
		c0.4-0.6,0.9-1.1,0.9-1.1l-0.4,1.4l0.2,0.1c0.5-0.7,1-1.3,1-1.3l-0.5,1.6l0.3,0.2c0.5-0.8,1.1-1.4,1.1-1.4l-0.6,1.8l0,0
		c0.5-0.8,1-1.4,1-1.4l-0.5,1.7l0,0c0.5-0.8,1.1-1.5,1.1-1.5l-0.6,1.8c0.5-0.7,0.9-1.1,0.9-1.1l-0.3,0.8c0.3-0.4,0.6-0.7,0.6-0.7
		l-0.5,1.6l0.2,0.2c0.4-0.6,0.9-1.1,0.9-1.1l-0.5,1.4l0.2,0.1c0.3-0.4,0.6-0.8,0.6-0.8l-0.3,1l0.1,0.1c0.4-0.6,0.8-1,0.8-1L23,61.4
		l0.1,0c0.5-0.8,1.1-1.4,1.1-1.4l-0.6,1.8l0.1,0.1c0.5-0.7,1-1.3,1-1.3L24.2,62c0.4-0.6,0.8-1,0.8-1l-0.5,1.5l0,0
		c0.5-0.7,1-1.3,1-1.3l-0.5,1.5c0.4-0.6,0.8-1.1,0.8-1.1l-0.3,1c0.3-0.4,0.5-0.7,0.5-0.7l-0.4,1.3l0.1,0c0.5-0.8,1-1.4,1-1.4l-0.3,1
		c0.3-0.4,0.5-0.6,0.5-0.6l-0.1,0.4c0.1-0.1,0.1-0.1,0.1-0.1l-0.4,1.4l0.2,0.2l0.1,0.2c0.5-0.3,0.8-0.5,0.8-0.5l-0.6,0.8
		c0.3-0.2,0.6-0.3,0.6-0.3l-0.4,0.6l0.1,0.2c0.4-0.2,0.7-0.4,0.7-0.4l-0.5,0.7l0.2,0.4c0.4-0.2,0.7-0.4,0.7-0.4l-0.5,0.7l0.3,0.5
		c0.4-0.2,0.7-0.4,0.7-0.4l-0.5,0.7l0.2,0.3c0.4-0.3,0.8-0.4,0.8-0.4l-0.5,0.7c0.6-0.4,1.1-0.6,1.1-0.6l-0.9,1.2l0.1,0.2
		c0.5-0.3,0.9-0.5,0.9-0.5l-0.6,0.8c0.4-0.2,0.7-0.4,0.7-0.4l-0.6,0.7c0.5-0.3,1-0.5,1-0.5l-0.6,0.7c0.3-0.2,0.6-0.3,0.6-0.3
		l-0.2,0.3c0.3-0.2,0.6-0.3,0.6-0.3L30.6,70c0.4-0.2,0.6-0.3,0.6-0.3l-0.6,0.8l0.1,0.2c0.5-0.3,1-0.6,1-0.6l-0.5,0.7
		c0.3-0.2,0.5-0.3,0.5-0.3L31.4,71c0.3-0.2,0.6-0.3,0.6-0.3l-0.1,0.1c0.1-0.1,0.2-0.1,0.2-0.1l-0.7,0.9l0.1,0.2c0.6-0.4,1-0.6,1-0.6
		l-0.8,1l0.1,0.1c0.5-0.3,0.9-0.5,0.9-0.5l-0.5,0.7c0.4-0.3,0.8-0.4,0.8-0.4l-0.8,1l0.2,0.3c0.5-0.3,1-0.6,1-0.6l-0.7,1l0,0
		c0.4-0.2,0.7-0.4,0.7-0.4l-0.5,0.7l0.2,0.4c0.4-0.2,0.6-0.3,0.6-0.3l-0.5,0.6l0.2,0.3c0.4-0.3,0.8-0.4,0.8-0.4L34,75.6
		c0.6-0.4,1.1-0.6,1.1-0.6l-0.9,1.2l0.2,0.3l0,0.1c0.5,0,0.8,0,0.8,0L34.5,77l0,0.1c0.6-0.1,1,0,1,0l-0.9,0.6c0.5-0.1,0.9,0,0.9,0
		l-0.7,0.5c0.4,0,0.7,0,0.7,0l-0.9,0.6l0,0.4c0.5,0,0.9,0,0.9,0l-0.9,0.5l0,0.1c0.5,0,0.9,0,0.9,0L35,80c0.4,0,0.6,0,0.6,0l-0.9,0.5
		l0,0.1c0.6-0.1,1,0,1,0l-1,0.6l0,0.4c0.6-0.1,1.1-0.1,1.1-0.1l-1,0.6l0,0.2c0.4,0,0.7,0,0.7,0l-0.7,0.4l0,0.1c0.4,0,0.7,0,0.7,0
		l-0.7,0.4l0,0.4c0.5-0.1,0.9,0,0.9,0L35,84.2l0,0.2c0.4,0,0.7,0,0.7,0L35,84.8l0,0.1c0.6-0.1,1.1-0.1,1.1-0.1l-1.1,0.7l0,0.1
		c0.5-0.1,1,0,1,0l-0.9,0.6l0,0.2c0.6-0.1,1,0,1,0l-1,0.6l0,0.1c0.7-0.1,1.3-0.1,1.3-0.1l-0.6,0.4c0.1,0,0.2,0,0.2,0l-0.8,0.5l0,0.1
		c0.5,0,0.9,0,0.9,0l-0.9,0.5l0,0.6c0.6-0.1,1,0,1,0l-1,0.6l0,0.3c0.6-0.1,1.2-0.1,1.2-0.1l-1.2,0.7l0,0.3c0.7-0.1,1.3-0.1,1.3-0.1
		l-1.3,0.8l0,0.4c0.7-0.1,1.2-0.1,1.2-0.1l-1.2,0.7l0,0.3c0.6-0.1,1.2-0.1,1.2-0.1l-1.1,0.7l0,0.3c0.6-0.1,1.1-0.1,1.1-0.1l-1.1,0.7
		l0,0.4c0.7-0.1,1.2-0.1,1.2-0.1l-1.2,0.7l0,0.4c0.8-0.1,1.5-0.1,1.5-0.1l-0.8,0.5c0.2,0,0.3,0,0.3,0l-0.9,0.6l0,0.4
		c0.5,0,0.9,0,0.9,0l-0.9,0.5l0,0.2c0.7-0.1,1.4-0.1,1.4-0.1l-1.4,0.8l0,0.1c0.5-0.1,1,0,1,0L36,99.3l0,0.5c0.8-0.1,1.6-0.1,1.6-0.1
		l-1.5,0.9l0,0.2c0.8-0.1,1.5-0.1,1.5-0.1l-1.4,0.9c0.4,0,0.7,0,0.7,0l-0.6,0.4c0.4,0,0.6,0,0.6,0l-0.7,0.4l0,0.2c0.4,0,0.7,0,0.7,0
		l-0.4,0.3c0.2,0,0.4,0,0.4,0l-0.7,0.4l0,0.3c0.4,0,0.7,0,0.7,0l-0.4,0.3c0.2,0,0.4,0,0.4,0l-0.6,0.4l0,0.2c0.4,0,0.6,0,0.6,0
		l-0.3,0.2c0.4,0,0.7,0,0.7,0l-0.9,0.5l0,0.2c0.3,0,0.5,0,0.5,0l-0.5,0.3l0,0.2c0.3,0,0.5,0,0.5,0l0,0c0.4,0,0.7,0,0.7,0l-1.1,0.7
		l0,0.3c0.5,0,0.8,0,0.8,0l0,0c0.2,0,0.3,0,0.3,0l-1.1,0.6l0,0.4c0,0,0.1,0,0.1,0c0.4-0.2,0.7-0.3,0.7-0.3l-0.2,0.3
		c0.3,0,0.5,0,0.5,0l-0.9,0.6l-0.1,0.1l0,0.4c0.7-0.4,1.3-0.6,1.3-0.6l-1,1.2l0.3,0.4c0.4-0.5,0.7-0.8,0.7-0.8l-0.4,1.1l0.3,0.3
		c0.3-0.4,0.6-0.7,0.6-0.7l-0.2,0.6c0.3-0.4,0.6-0.6,0.6-0.6l-0.4,1.2l0.3,0.3c0.4-0.4,0.7-0.7,0.7-0.7l-0.4,1
		c0.4-0.5,0.7-0.8,0.7-0.8l-0.4,1.1l0.2,0.2c0.5-0.6,0.9-1,0.9-1l-0.5,1.4l0.2,0.2c0.4-0.5,0.8-0.9,0.8-0.9l-0.5,1.3l0.4,0.4
		c0.4-0.6,0.8-1,0.8-1l-0.2,0.6c0.2-0.2,0.3-0.3,0.3-0.3l-0.4,1.2l0.1,0.1c0.5-0.7,1-1.2,1-1.2l-0.6,1.5c0.4-0.5,0.8-0.9,0.8-0.9
		l-0.5,1.4l0.5,0.5c0.5-0.7,1-1.2,1-1.2l-0.6,1.7l0.3,0.4c0.4-0.6,0.8-1,0.8-1l-0.5,1.3l0.2,0.2c0.4-0.5,0.8-0.9,0.8-0.9l-0.5,1.3
		l0,0c0.5-0.5,1-0.8,1-0.8l-0.6,1.2l0.1,0.2c0.4-0.4,0.8-0.6,0.8-0.6l-0.5,0.9l0.1,0.1c0.5-0.5,1-0.8,1-0.8l-0.6,1.1l0.7,0.7
		l0.1,0.3c0.4-0.1,0.7-0.2,0.7-0.2l-0.6,0.5l0.3,0.9c0.6-0.2,1.2-0.3,1.2-0.3l-1,0.9l0.2,0.9c0.7-0.2,1.3-0.3,1.3-0.3l-1.1,1
		l0.1,0.5c0.5-0.1,0.9-0.2,0.9-0.2l-0.8,0.6l0.1,0.4c0.7-0.2,1.3-0.3,1.3-0.3l-0.7,0.6c0.1,0,0.2,0,0.2,0l-0.5,0.5l0.1,0.3
		c0.7-0.2,1.3-0.3,1.3-0.3l-1.1,0.9c0.4-0.1,0.6-0.1,0.6-0.1l-0.6,0.5l0.2,0.7c0.2,0,0.4-0.1,0.4-0.1l-0.3,0.3l0,0.1
		c0.7-0.2,1.3-0.3,1.3-0.3l-1,0.9c0.5-0.1,0.9-0.2,0.9-0.2l-0.9,0.7l0.1,0.2c0.7-0.3,1.4-0.4,1.4-0.4l-0.9,0.8
		c0.2-0.1,0.4-0.1,0.4-0.1l-0.3,0.3c0.6-0.2,1.2-0.3,1.2-0.3l-1.3,1.2l0.1,0.3c0.5-0.1,0.8-0.2,0.8-0.2l-0.4,0.3
		c0.5-0.1,0.8-0.2,0.8-0.2l-1,0.9l0.1,0.3c0.3-0.1,0.5-0.1,0.5-0.1l-0.4,0.4l0,0.1c0.7-0.3,1.4-0.4,1.4-0.4l-0.8,0.7
		c0.2-0.1,0.4-0.1,0.4-0.1l-0.7,0.6l0.1,0.3c0.6-0.2,1.2-0.3,1.2-0.3l-0.4,0.4c0.2,0,0.3-0.1,0.3-0.1l-0.2,0.2
		c0.4-0.1,0.7-0.2,0.7-0.2l-1.2,1.1l0,0c0.4-0.1,0.7-0.2,0.7-0.2l-0.6,0.5l0.1,0.3c0.6-0.2,1-0.3,1-0.3l-0.9,0.8l0,0.2
		c0.7-0.3,1.4-0.4,1.4-0.4L52,135c0.1,0,0.2,0,0.2,0l-1.2,1l0.1,0.4c0.6-0.2,1.1-0.3,1.1-0.3l-0.7,0.6c0.8-0.3,1.7-0.5,1.7-0.5
		l-1,0.9c0.6-0.2,1.1-0.3,1.1-0.3l-1.6,1.4l0.1,0.2c0.7-0.3,1.5-0.4,1.5-0.4l-1.3,1.1l0.7,2.6l-1.7-0.5c-0.3,2.3-0.9,4.8-0.9,4.8
		l0.3-5l-0.6-0.2c-0.3,2.2-0.8,4.4-0.8,4.4l0.3-4.5l0,0c-0.3,2.1-0.8,4.2-0.8,4.2l0.3-4.4l-0.1,0c-0.3,1.9-0.7,3.7-0.7,3.7l0.3-3.9
		c-0.3,1.8-0.7,3.4-0.7,3.4l0.2-3.5l0,0c-0.3,1.7-0.6,3-0.6,3l0.2-3.2l-0.1,0c-0.3,1.5-0.6,2.8-0.6,2.8l0.2-2.9l0,0
		c-0.3,1.5-0.5,2.6-0.5,2.6l0.2-2.7l-0.3-0.1l-0.1-0.1c-0.4,1.2-0.7,2.2-0.7,2.2l0.4-2.6l-0.1-0.2c-0.4,1.4-0.7,2.5-0.7,2.5l0.4-2.5
		c-0.3,1-0.5,1.7-0.5,1.7l0.4-2.5l0,0c-0.4,1.7-0.9,3.1-0.9,3.1l0.6-3.7l-0.1-0.2c-0.5,2-1.2,4-1.2,4l0.7-4.7l-0.1-0.1
		c-0.5,2.2-1.2,4.4-1.2,4.4l0.8-5c-0.5,2.3-1.3,4.7-1.3,4.7l0.8-5.3c-0.5,2.5-1.5,5.7-1.5,5.7l0.5-3l-0.8,2.3l-0.2-1.3
		c-0.3,1.6-0.6,2.8-0.6,2.8l0.2-3c-0.2,1.2-0.4,2.1-0.4,2.1l0.4-5.8l0,0c-0.3,2.3-0.9,4.8-0.9,4.8l0.3-4.1c-0.3,2.1-0.8,4.1-0.8,4.1
		l0.2-2.6c-0.3,1.9-0.7,3.5-0.7,3.5l0.2-2.6l-0.2,0.4c-0.3,1.7-0.6,3.1-0.6,3.1l0.1-2l-0.5,1.2l-0.2-1.3c-0.1,1.2-0.3,2.1-0.3,2.1
		l0-4.2l0,0c-0.2,2-0.5,3.8-0.5,3.8l0-3.6c-0.2,1.3-0.3,2.3-0.3,2.3l0-5.6l0,0.1c0,2.6-0.6,6.4-0.6,6.4l0-4.2l-0.3,1.1
		c-0.2,2.1-0.5,4-0.5,4l0-2.3l-0.7,2.3l-0.9-4.7c0,1.2,0,2.1,0,2.1l-0.8-6.3l-0.1-0.3l0,0l0,0l-0.1-0.1c0.1,2.1,0,4.2,0,4.2
		l-0.5-4.1c0,1.4,0,2.4,0,2.4l-0.5-4.1c0,1.6,0,2.9,0,2.9l-0.6-4.5l-0.2-0.5c0,1.7,0,3.2,0,3.2l-0.5-4.3l-0.2-0.4c0,1.8,0,3.4,0,3.4
		l-0.5-4.1c0,1.6,0,2.9,0,2.9l-0.5-4.2c0,1.8,0,3.3,0,3.3l-0.6-4.6l-0.2-0.4c0.1,2.1,0,4.1,0,4.1l-0.7-5.4l-0.1-0.2
		c-0.2,2.2-0.7,4.5-0.7,4.5l0.1-5.6l-0.1-0.2c-0.2,2.4-0.7,5.3-0.7,5.3l0.1-3.6l-0.1,0.4c-0.2,2-0.6,3.9-0.6,3.9l0-1.8
		c-0.2,1.5-0.4,2.7-0.4,2.7l0-1.7l-0.6,1.9l0.1-4c-0.2,1.4-0.4,2.4-0.4,2.4l0.1-4.6c-0.4,2-0.9,3.8-0.9,3.8l0.4-3.9
		c-0.4,2.3-1,4.6-1,4.6l0.3-3.3c-0.4,1.9-0.8,3.6-0.8,3.6l0.3-2.7l-0.4,0.7c-0.3,1.2-0.5,2.2-0.5,2.2l0.1-1.4l-0.3,0.5
		c-0.1,0.8-0.2,1.3-0.2,1.3l0-1l-0.2,0.4l-0.1-1.4c-0.1,0.7-0.2,1.2-0.2,1.2l0-2.3c-0.1,0.7-0.2,1.1-0.2,1.1l0.1-3.2l0-0.2
		c-0.2,1.5-0.4,2.6-0.4,2.6l0.1-4.1c-0.2,1.1-0.3,1.8-0.3,1.8l0-1.8c-0.2,1.1-0.4,1.9-0.4,1.9l0.2-3.1c-0.3,2-0.8,3.9-0.8,3.9l0.2-3
		l0,0.1c-0.3,1.9-0.8,3.7-0.8,3.7l0.2-2.4l-0.1,0.2c-0.3,1.7-0.7,3.2-0.7,3.2l0.1-2l-0.8,1.9l-0.1-1.8c-0.3,0.9-0.5,1.5-0.5,1.5
		l0.5-2.5l0-0.3c-0.4,1.2-0.8,2.2-0.8,2.2l0.7-3.6l0-0.6c-0.5,1.4-0.9,2.5-0.9,2.5l0.8-4.2l0-0.1c-0.4,1.3-0.8,2.3-0.8,2.3l0.8-3.9
		l0-0.2l0-0.6c-0.5,1.6-1,2.9-1,2.9l0.8-4.2c-0.4,1.3-0.8,2.3-0.8,2.3l0.9-4.7c-0.5,1.7-1.1,3.3-1.1,3.3l0.9-4.6
		c-0.5,1.4-0.9,2.6-0.9,2.6l0.9-4.6c-0.4,1.2-0.7,2-0.7,2l1-5.1l0-0.1c-0.6,1.9-1.2,3.5-1.2,3.5l0.9-4.6l-0.2,0.2
		c-0.5,1.7-1.1,3.3-1.1,3.3l0.5-2.6l-0.3,0.3c-1,1.7-2.2,3.2-2.2,3.2l0.9-2L12,108l1.2-4.1c-0.9,1.5-1.9,2.8-1.9,2.8l2.6-5.4
		c-1.3,1.9-3.1,3.9-3.1,3.9l2.5-4.3l-3.6,4.3l0.4-1.6c-0.4,0.6-0.7,0.9-0.7,0.9l0.9-1.9l0.6-2.4c-1,1.8-2.1,3.4-2.1,3.4l2.4-5.5
		c-1.1,1.9-2.5,3.9-2.5,3.9l1.6-3.4l-2.8,3.9l0.6-3.4c-0.5,0.7-0.8,1.1-0.8,1.1l0.9-2.1l0.5-2.5C8.3,96.4,7.9,97,7.9,97l1.1-2.4
		l0.3-1.5c-0.4,0.6-0.7,1-0.7,1l0.9-1.8l0.2-1.2c-0.7,1.2-1.4,2.1-1.4,2.1l1.7-3.8l0.2-0.9c-0.8,1.1-1.4,1.9-1.4,1.9l1.7-3.3
		l0.2-1.1c-0.8,1.2-1.5,2.2-1.5,2.2l1.8-3.7l0.3-1.5c-1.2,1.4-2.5,2.7-2.5,2.7l2.7-4.2l0-0.1c-1.2,1.4-2.3,2.6-2.3,2.6l2.6-4
		l0.1-0.6C10.8,80.8,9.6,82,9.6,82l2.2-3.4C10.2,80.2,8,81.8,8,81.8l2.8-3.1L6.7,82l1.9-3.8c-1.1,1.2-2.1,2.2-2.1,2.2l3.5-5.4
		l-0.6,0.5c-1.4,1.8-4.4,4.2-4.4,4.2l1.6-2l-2.8,2.3l2.4-5.6c-1.1,1.5-2.2,2.7-2.2,2.7L7.2,72l-1.6,1.4C4.4,75.1,3,76.7,3,76.7
		l1.2-2L1.5,77L2.5,74.2z"/>
	<path class="st7" d="M2.5,74.2c-0.6,0.7-1,1.1-1,1.1l1.4-2.4l0.5-1.5c-0.8,1-1.5,1.8-1.5,1.8l2.2-3.7l0.4-1.2l0.2-0.5
		c-1.1,1.6-2.4,3-2.4,3l3-5.1c-1,1.3-1.9,2.3-1.9,2.3l2.8-4.9l0.1-0.4c-1.3,1.8-3,3.8-3,3.8l3.9-6.7l0-0.1c-1.2,1.8-2.8,3.6-2.8,3.6
		l3.3-5.6c-1.1,1.5-2.3,2.8-2.3,2.8l2-3.5c-0.9,1.2-1.7,2.1-1.7,2.1l3.8-6.5l0.3-1l0.3,0.2c0.3-0.4,0.6-0.8,0.8-1L5.6,71.2l5.6-2.1
		l-3.4,5l4.3-1.7l-2.4,4.8l4.3-1.3L9.9,96.4h2.3l-0.7,4.8l3.2-2.2l-0.5,5.2l2.5-2.6l0.5,17.7l2.8-3l1.2,5.8l2.6-3.3l1,3.3l1.3-3.8
		l6.9,12.1l1.4,5.4l2.1-4.5l1.7,5.3l3.4-4.9v3.9l1.9-3.3l4,5.8l4,2.2l1,0.4l0.2,0.7l-1.7-0.5c-0.3,2.3-0.9,4.8-0.9,4.8l0.3-5
		l-0.6-0.2c-0.3,2.2-0.8,4.4-0.8,4.4l0.3-4.5l0,0c-0.3,2.1-0.8,4.2-0.8,4.2l0.3-4.4l-0.1,0c-0.3,1.9-0.7,3.7-0.7,3.7l0.3-3.9
		c-0.3,1.8-0.7,3.4-0.7,3.4l0.2-3.5l0,0c-0.3,1.7-0.6,3-0.6,3l0.2-3.2l-0.1,0c-0.3,1.5-0.6,2.8-0.6,2.8l0.2-2.9l0,0
		c-0.3,1.5-0.5,2.6-0.5,2.6l0.2-2.7l-0.3-0.1l-0.1-0.1c-0.4,1.2-0.7,2.2-0.7,2.2l0.4-2.6l-0.1-0.2c-0.4,1.4-0.7,2.5-0.7,2.5l0.4-2.5
		c-0.3,1-0.5,1.7-0.5,1.7l0.4-2.5l0,0c-0.4,1.7-0.9,3.1-0.9,3.1l0.6-3.7l-0.1-0.2c-0.5,2-1.2,4-1.2,4l0.7-4.7l-0.1-0.1
		c-0.5,2.2-1.2,4.4-1.2,4.4l0.8-5c-0.5,2.3-1.3,4.7-1.3,4.7l0.8-5.3c-0.5,2.5-1.5,5.7-1.5,5.7l0.5-3l-0.8,2.3l-0.2-1.3
		c-0.3,1.6-0.6,2.8-0.6,2.8l0.2-3c-0.2,1.2-0.4,2.1-0.4,2.1l0.4-5.8l0,0c-0.3,2.3-0.9,4.8-0.9,4.8l0.3-4.1c-0.3,2.1-0.8,4.1-0.8,4.1
		l0.2-2.6c-0.3,1.9-0.7,3.5-0.7,3.5l0.2-2.6l-0.2,0.4c-0.3,1.7-0.6,3.1-0.6,3.1l0.1-2l-0.5,1.2l-0.2-1.3c-0.1,1.2-0.3,2.1-0.3,2.1
		l0-4.2l0,0c-0.2,2-0.5,3.8-0.5,3.8l0-3.6c-0.2,1.3-0.3,2.3-0.3,2.3l0-5.6l0,0.1c0,2.6-0.6,6.4-0.6,6.4l0-4.2l-0.3,1.1
		c-0.2,2.1-0.5,4-0.5,4l0-2.3l-0.7,2.3l-0.9-4.7c0,1.2,0,2.1,0,2.1l-0.8-6.3l-0.1-0.3l0,0l0,0l-0.1-0.1c0.1,2.1,0,4.2,0,4.2
		l-0.5-4.1c0,1.4,0,2.4,0,2.4l-0.5-4.1c0,1.6,0,2.9,0,2.9l-0.6-4.5l-0.2-0.5c0,1.7,0,3.2,0,3.2l-0.5-4.3l-0.2-0.4c0,1.8,0,3.4,0,3.4
		l-0.5-4.1c0,1.6,0,2.9,0,2.9l-0.5-4.2c0,1.8,0,3.3,0,3.3l-0.6-4.6l-0.2-0.4c0.1,2.1,0,4.1,0,4.1L27,122l-0.1-0.2
		c-0.2,2.2-0.7,4.5-0.7,4.5l0.1-5.6l-0.1-0.2c-0.2,2.4-0.7,5.3-0.7,5.3l0.1-3.6l-0.1,0.4c-0.2,2-0.6,3.9-0.6,3.9l0-1.8
		c-0.2,1.5-0.4,2.7-0.4,2.7l0-1.7l-0.6,1.9l0.1-4c-0.2,1.4-0.4,2.4-0.4,2.4l0.1-4.6c-0.4,2-0.9,3.8-0.9,3.8l0.4-3.9
		c-0.4,2.3-1,4.6-1,4.6l0.3-3.3c-0.4,1.9-0.8,3.6-0.8,3.6l0.3-2.7l-0.4,0.7c-0.3,1.2-0.5,2.2-0.5,2.2l0.1-1.4l-0.3,0.5
		c-0.1,0.8-0.2,1.3-0.2,1.3l0-1l-0.2,0.4l-0.1-1.4c-0.1,0.7-0.2,1.2-0.2,1.2l0-2.3c-0.1,0.7-0.2,1.1-0.2,1.1l0.1-3.2l0-0.2
		c-0.2,1.5-0.4,2.6-0.4,2.6l0.1-4.1c-0.2,1.1-0.3,1.8-0.3,1.8l0-1.8c-0.2,1.1-0.4,1.9-0.4,1.9l0.2-3.1c-0.3,2-0.8,3.9-0.8,3.9l0.2-3
		l0,0.1c-0.3,1.9-0.8,3.7-0.8,3.7l0.2-2.4l-0.1,0.2c-0.3,1.7-0.7,3.2-0.7,3.2l0.1-2l-0.8,1.9l-0.1-1.8c-0.3,0.9-0.5,1.5-0.5,1.5
		l0.5-2.5l0-0.3c-0.4,1.2-0.8,2.2-0.8,2.2l0.7-3.6l0-0.6c-0.5,1.4-0.9,2.5-0.9,2.5l0.8-4.2l0-0.1c-0.4,1.3-0.8,2.3-0.8,2.3l0.8-3.9
		l0-0.2l0-0.6c-0.5,1.6-1,2.9-1,2.9l0.8-4.2c-0.4,1.3-0.8,2.3-0.8,2.3l0.9-4.7c-0.5,1.7-1.1,3.3-1.1,3.3l0.9-4.6
		c-0.5,1.4-0.9,2.6-0.9,2.6l0.9-4.6c-0.4,1.2-0.7,2-0.7,2l1-5.1l0-0.1c-0.6,1.9-1.2,3.5-1.2,3.5l0.9-4.6l-0.2,0.2
		c-0.5,1.7-1.1,3.3-1.1,3.3l0.5-2.6l-0.3,0.3c-1,1.7-2.2,3.2-2.2,3.2l0.9-2L12,108l1.2-4.1c-0.9,1.5-1.9,2.8-1.9,2.8l2.6-5.4
		c-1.3,1.9-3.1,3.9-3.1,3.9l2.5-4.3l-3.6,4.3l0.4-1.6c-0.4,0.6-0.7,0.9-0.7,0.9l0.9-1.9l0.6-2.4c-1,1.8-2.1,3.4-2.1,3.4l2.4-5.5
		c-1.1,1.9-2.5,3.9-2.5,3.9l1.6-3.4l-2.8,3.9l0.6-3.4c-0.5,0.7-0.8,1.1-0.8,1.1l0.9-2.1l0.5-2.5c-0.5,0.8-0.9,1.4-0.9,1.4l1.1-2.4
		l0.3-1.5c-0.4,0.6-0.7,1-0.7,1l0.9-1.8L9.7,91c-0.7,1.2-1.4,2.1-1.4,2.1l1.7-3.8l0.2-0.9c-0.8,1.1-1.4,1.9-1.4,1.9l1.7-3.3l0.2-1.1
		C9.9,87.1,9.2,88,9.2,88l1.8-3.7l0.3-1.5c-1.2,1.4-2.5,2.7-2.5,2.7l2.7-4.2l0-0.1c-1.2,1.4-2.3,2.6-2.3,2.6l2.6-4l0.1-0.6
		C10.8,80.8,9.6,82,9.6,82l2.2-3.4C10.2,80.2,8,81.7,8,81.7l2.8-3.1L6.7,82l1.9-3.8c-1.1,1.2-2.1,2.2-2.1,2.2l3.5-5.4l-0.6,0.5
		c-1.4,1.8-4.4,4.2-4.4,4.2l1.6-2l-2.8,2.3l2.4-5.6c-1.1,1.5-2.2,2.7-2.2,2.7L7.2,72l-1.6,1.4C4.4,75.1,3,76.6,3,76.6l1.2-2L1.5,77
		L2.5,74.2z"/>
</g>
<g id="Layer_11">
	<g>
		<g>
			<path class="st11" d="M77.1,52.1c0,0,0.7-5.4,1.3-10.7c0.3-2.7,0.7-5.4,1-7.4c0.2-1,0.3-1.8,0.4-2.4c0.1-0.3,0.1-0.5,0.2-0.7
				c0.1-0.1,0.1-0.2,0.1-0.2s0,0.3,0,0.9c0,0.6,0.1,1.4,0.3,2.4c0.3,2,0.6,4.7,1.1,7.3c0.8,5.3,1.7,10.6,1.7,10.6L77.1,52.1z"/>
		</g>
		<path class="st11" d="M79.6,50c0,0-2.5,13.2,11.7,15.2c12,1.7,17.3-10.9,16.6-19l-2.7-3.5L79.6,50"/>
		<path class="st12" d="M107.9,42.1L79.6,55.5C79.6,55.5,107,78.7,107.9,42.1z"/>
		<path class="st13" d="M103.1,45.9l-18.2,7c-2.3,0.9-2.3,4.5,0,5.5c7.3,3.2,19,5.6,21.1-9.6C106.3,46.9,104.7,45.3,103.1,45.9z"/>
		<path class="st12" d="M95.1,53.4c0.1-1-0.5-1.8-1.2-1.9c-0.8-0.1-1.5,0.6-1.6,1.5s0.5,1.8,1.2,1.9C94.3,55,95,54.3,95.1,53.4z"/>
		<path class="st7" d="M73.6,52.5l1.4-0.3v-0.3L73.5,52l1.6-0.4c0.1-0.1,0.2-0.2,0.3-0.3l-1.3-0.1l1.7-0.2c0.1-0.1,0.2-0.1,0.3-0.2
			l0.1-0.1L75,50.7l1.5-0.2l3-2.1l-1.8,1.8l2.8-2.4l-1.2,1.4l2.6-1.9l-1.6,1.6c0,0,0,0,0,0l2-1.8L81.7,48l2.1-1.5l-2,2l2.4-2.1
			l-0.7,0.8l2.5-1.8l-1.6,1.6l2.9-2.5l-1.3,1.6l2.5-1.8l-2.1,2.2l0.3-0.1c0.2-0.2,0.5-0.5,0.6-0.6l3-2.6l-1,1.3l1.9-1.4l-2.1,2.2
			l0.3-0.1l2.8-2.5l-0.8,0.9l2.4-1.7l-2,2.1l2.6-2.3l-0.7,0.8l2.9-2.1L95.2,42l2.3-2l-1.1,1.4l3.1-2.2l-1.4,1.5
			c0.1-0.1,0.2-0.1,0.2-0.1l3.4-2.4l-1.5,1.5l1.6-1.2l-1.2,1.3c0,0,0,0,0,0l3.4-2.4l-0.9,0.9l0.9-0.7l-0.6,0.6l2.8-2l-1.4,1.4
			l0.6-0.4l-0.9,0.9l3.3-2.4l-1.9,2l0.7-0.3l0.4,0.3c0,0,0.1,0,0.1,0c0.1,0,0.2,0.1,0.2,0.1l2,1l-0.9-0.1l0.4,0.3l1.8,0.9l-0.6-0.1
			l1.9,1l-0.5-0.1l1.9,1l-1.2-0.4l0,0l3.2,1.7l-1.1-0.4l1.6,0.8l-0.4-0.1l1.7,0.9l-1-0.1l0.3,0.2c0.1-0.1,0.1-0.1,0.2-0.1
			c0.1,0,0.2,0.1,0.2,0.1l2,1l-1.1-0.2l1.5,1.1l-1.4-0.2l0.9,0.5l-2-0.6l-0.8-0.1l1.4,0.7l-3-0.9l-0.3,0l1.2,0.7l-2.7-0.8l-0.5-0.1
			l1.7,0.9l-3.7-1.2l-1-0.1l1.3,0.7l-2.6-0.8l-0.7,0.3l1.9,0.4l-2.8-0.1l-0.2,0.1l1,0.1l-1.8,0.3l-0.2,0.1l2,0.1l-3.5,0.5l-0.3,0.1
			l2,0.1l-3.4,0.5l-0.7,0.3l2.2,0.1l-3.8,0.5L99,48.4l2.1,0.1L97.5,49l-0.7,0.3l1.7,0.1l-2.9,0.4l-0.7,0.3l2,0.1l-3.5,0.5L92.7,51
			l2.2,0.1l-3.8,0.5l-0.5,0.2l2.6,0.2l-4.4,0.6l-0.3,0.1l2.4,0.1l-4,0.6l1.8,0.1L85.2,54l-0.7,0.3l2.2,0.1L82.8,55l-0.6,0.2l2.3,0.1
			l-3.9,0.5l-0.5,0.2l2.8,0.2l-2.8,0.4l1.1,0.1l-4,0.5l-0.7,0.3L75.1,59l0.9-1.2L75.4,58l-1.5,1.2L75,58v-0.6l-1.3,1.1L75,57v-0.1
			l-0.9,0.7l0.9-1.1v-0.1l-1.3,1.1L75,56v-0.1l-0.9,0.7l0.9-1.1v-0.3l-1.1,0.9l1.1-1.2v-0.4l-0.5,0.4l0.5-0.6V54l-0.7,0.6l0.7-0.9
			v-0.2l-1.2,1l0.9-1l-0.7,0.6l1.1-1.2v-0.4L73.6,52.5z"/>
	</g>
	<g>
		<g>
			<path class="st11" d="M60.4,52.7c0,0,0.8-5.3,1.7-10.6c0.4-2.7,0.8-5.3,1.1-7.3c0.1-1,0.2-1.8,0.3-2.4c0.1-0.6,0-0.9,0-0.9
				s0,0.1,0.1,0.2c0.1,0.2,0.1,0.4,0.2,0.7c0.1,0.6,0.3,1.4,0.4,2.4c0.3,2,0.7,4.7,1,7.4c0.7,5.4,1.3,10.7,1.3,10.7L60.4,52.7z"/>
		</g>
		<path class="st11" d="M63.9,50.6c0,0,2.5,13.2-11.7,15.2c-12,1.7-17.3-10.9-16.6-19l2.7-3.5L63.9,50.6"/>
		<path class="st12" d="M35.6,42.8l28.3,13.4C63.9,56.2,36.5,79.3,35.6,42.8z"/>
		<path class="st13" d="M40.4,46.6l18.2,7c2.3,0.9,2.3,4.5,0,5.5c-7.3,3.2-19,5.6-21.1-9.6C37.2,47.5,38.9,46,40.4,46.6z"/>
		<path class="st12" d="M48.4,54c-0.1-1,0.5-1.8,1.2-1.9c0.8-0.1,1.5,0.6,1.6,1.5s-0.5,1.8-1.2,1.9C49.2,55.7,48.5,55,48.4,54z"/>
		<path class="st7" d="M69.9,53.2l-1.4-0.3v-0.3l1.5,0.1l-1.6-0.4c-0.1-0.1-0.2-0.2-0.3-0.3l1.3-0.1l-1.7-0.2
			c-0.1-0.1-0.2-0.1-0.3-0.2l-0.1-0.1l1.1-0.1l-1.5-0.2l-3-2.1l1.8,1.8l-2.8-2.4l1.2,1.4l-2.6-1.9l1.6,1.6c0,0,0,0,0,0l-2-1.8
			l0.6,0.8l-2.1-1.5l2,2l-2.4-2.1L60,48l-2.5-1.8l1.6,1.6l-2.9-2.5l1.3,1.6L55,45.1l2.1,2.2l-0.3-0.1c-0.2-0.2-0.5-0.5-0.6-0.6
			l-3-2.6l1,1.3l-1.9-1.4l2.1,2.2l-0.3-0.1l-2.8-2.5l0.8,0.9l-2.4-1.7l2,2.1l-2.6-2.3l0.7,0.8l-2.9-2.1l1.4,1.4l-2.3-2l1.1,1.4
			L44,39.8l1.4,1.5c-0.1-0.1-0.2-0.1-0.2-0.1l-3.4-2.4l1.5,1.5L41.7,39l1.2,1.3c0,0,0,0,0,0l-3.4-2.4l0.9,0.9l-0.9-0.7l0.6,0.6
			l-2.8-2l1.4,1.4l-0.6-0.4l0.9,0.9l-3.3-2.4l1.9,2l-0.7-0.3l-0.4,0.3c0,0-0.1,0-0.1,0c-0.1,0-0.2,0.1-0.2,0.1l-2,1l0.9-0.1
			l-0.4,0.3l-1.8,0.9l0.6-0.1l-1.9,1l0.5-0.1l-1.9,1l1.2-0.4l0,0L28,43.5l1.1-0.4L27.5,44l0.4-0.1l-1.7,0.9l1-0.1l-0.3,0.2
			c-0.1-0.1-0.1-0.1-0.2-0.1c-0.1,0-0.2,0.1-0.2,0.1l-2,1l1.1-0.2l-1.5,1.1l1.4-0.2l-0.9,0.5l2-0.6l0.8-0.1L26,47.2l3-0.9l0.3,0
			L28,46.9l2.7-0.8l0.5-0.1l-1.7,0.9l3.7-1.2l1-0.1L33,46.2l2.6-0.8l0.7,0.3l-1.9,0.4l2.8-0.1l0.2,0.1l-1,0.1l1.8,0.3l0.2,0.1
			l-2,0.1l3.5,0.5l0.3,0.1l-2,0.1l3.4,0.5l0.7,0.3l-2.2,0.1l3.8,0.5l0.6,0.3l-2.1,0.1l3.7,0.5l0.7,0.3l-1.7,0.1l2.9,0.4l0.7,0.3
			l-2,0.1l3.5,0.5l0.7,0.3l-2.2,0.1l3.8,0.5l0.5,0.2l-2.6,0.2l4.4,0.6l0.3,0.1l-2.4,0.1l4,0.6L55,54.2l3.3,0.5l0.7,0.3l-2.2,0.1
			l3.8,0.5l0.6,0.2L59,56l3.9,0.5l0.5,0.2l-2.8,0.2l2.8,0.4l-1.1,0.1l4,0.5l0.7,0.3l1.5,1.4l-0.9-1.2l0.6,0.2l1.5,1.2l-1.1-1.2v-0.6
			l1.3,1.1l-1.3-1.5v-0.1l0.9,0.7l-0.9-1.1v-0.1l1.3,1.1l-1.3-1.5v-0.1l0.9,0.7l-0.9-1.1v-0.3l1.1,0.9l-1.1-1.2v-0.4l0.5,0.4
			l-0.5-0.6v-0.3l0.7,0.6l-0.7-0.9v-0.2l1.2,1l-0.9-1l0.7,0.6l-1.1-1.2v-0.4L69.9,53.2z"/>
	</g>
	<path class="st10" d="M88.1,147.2l0.6-0.4l-0.4,0l0.3-0.6c0,0-0.4,0.3-0.7,0.5l0.1-0.9c0,0-0.3,0.6-0.5,0.9c0,0,0,0-0.1,0l0.1-0.9
		c0,0-0.2,0.3-0.3,0.6l0.1-0.6c0,0-0.3,0.6-0.5,0.9l0.1-0.9c0,0-0.2,0.3-0.3,0.6l0.1-0.6c0,0-0.2,0.3-0.3,0.6l0.1-0.6
		c0,0-0.2,0.3-0.3,0.6l0.1-0.6c0,0-0.2,0.3-0.3,0.6l0.1-0.6c0,0-0.2,0.3-0.3,0.6l0.1-0.6c0,0-0.2,0.3-0.3,0.6l0.1-0.6
		c0,0-0.3,0.5-0.4,0.8l0.1-0.8c0,0-0.2,0.3-0.3,0.6L85,146c0,0-0.1,0.2-0.2,0.4l0.1-0.5c0,0-0.1,0.2-0.2,0.4l0-0.3
		c0,0-0.2,0.3-0.3,0.6l0.1-0.8c0,0-0.2,0.4-0.4,0.7l0.1-0.7c0,0-0.5,0.9-0.5,1.1c0,0,0,0,0,0.1l0,0l0.1-0.9c0,0-0.2,0.3-0.3,0.6
		l0.1-0.5c0,0-0.3,0.5-0.4,0.8l-0.1,0l0.1-0.8c0,0-0.3,0.5-0.4,0.8l0,0l0.1-0.8c0,0-0.2,0.3-0.3,0.6l0.1-0.6c0,0-0.3,0.5-0.4,0.8
		l-0.1,0l0.1-0.7c0,0-0.1,0.2-0.3,0.5l0.1-0.7c0,0-0.3,0.6-0.5,0.9l0.1-0.8c0,0-0.2,0.3-0.3,0.6l0.1-0.5c0,0-0.2,0.4-0.4,0.8l0,0
		l0.1-0.8c0,0-0.3,0.5-0.4,0.8l-0.1,0l0.1-0.8c0,0-0.1,0.2-0.2,0.4l0-0.4c0,0-0.2,0.4-0.4,0.8l0.1-0.7c0,0-0.2,0.4-0.4,0.7l0,0
		l0-0.3c0,0-0.1,0.1-0.2,0.3l0,0l0.1-0.7c0,0-0.2,0.4-0.4,0.8l0,0l0.1-0.7c0,0-0.2,0.4-0.4,0.7l-0.1,0l0.1-0.7c0,0-0.1,0.2-0.3,0.5
		l0.1-0.5c0,0-0.2,0.4-0.4,0.7l0,0l0.1-0.7c0,0-0.2,0.4-0.4,0.7l0,0l0.1-0.6c0,0-0.1,0.2-0.2,0.5l0.1-0.5c0,0-0.2,0.3-0.3,0.6
		l-0.1,0l0.1-0.6c0,0-0.2,0.3-0.3,0.6l0.1-0.6c0,0-0.2,0.3-0.3,0.6l0.1-0.6c0,0-0.2,0.4-0.3,0.7l0,0l0.1-0.7c0,0-0.2,0.3-0.3,0.6
		l0.1-0.6c0,0-0.2,0.3-0.3,0.6l-0.1,0l0.1-0.7c0,0-0.2,0.3-0.3,0.6l0.1-0.6c0,0-0.2,0.4-0.4,0.7l0,0l-0.1-0.7c0,0-0.1,0.3-0.2,0.6
		l0-0.5c0,0-0.1,0.3-0.2,0.5l0-0.5c0,0-0.1,0.2-0.1,0.5l0-0.6c0,0-0.1,0.3-0.2,0.6l0-0.4c0,0,0,0.1-0.1,0.3l0-0.4
		c0,0-0.1,0.2-0.1,0.4l0-0.2c0,0-0.1,0.2-0.1,0.5l0,0l0-0.5c0,0-0.1,0.2-0.1,0.5l0,0l0-0.5c0,0-0.1,0.2-0.1,0.5l0,0l0-0.4
		c0,0-0.1,0.2-0.1,0.4l0,0l0-0.4c0,0-0.1,0.2-0.1,0.4l0,0l0-0.5c0,0-0.1,0.2-0.1,0.5l0,0l0-0.5c0,0-0.1,0.3-0.2,0.5l0-0.5
		c0,0-0.1,0.2-0.1,0.5l-0.1-0.6c0,0-0.1,0.3-0.2,0.5l0-0.5c0,0-0.1,0.3-0.2,0.5l0-0.5c0,0-0.1,0.3-0.2,0.7l0,0l-0.1-0.7
		c0,0-0.1,0.3-0.2,0.6l0-0.5c0,0-0.1,0.2-0.1,0.5l-0.1-0.6c0,0-0.1,0.3-0.2,0.6l0-0.3c0,0,0,0.1-0.1,0.3l0-0.5c0,0-0.1,0.3-0.2,0.5
		l0-0.5c0,0,0,0.1-0.1,0.3l0-0.3c0,0-0.1,0.3-0.2,0.6l0,0l0-0.5c0,0-0.1,0.2-0.1,0.5l0,0l0-0.6c0,0-0.1,0.3-0.2,0.6l0,0l-0.1-0.7
		c0,0-0.1,0.3-0.2,0.6l0-0.5c0,0-0.1,0.3-0.2,0.6l0,0l-0.1-0.6c0,0-0.1,0.3-0.2,0.5l0-0.5c0,0-0.1,0.3-0.2,0.5l0-0.5
		c0,0-0.1,0.3-0.2,0.5l0-0.5c0,0,0,0.2-0.1,0.3l0-0.3c0,0-0.1,0.3-0.2,0.6l-0.1,0l0-0.4c0,0,0,0.1-0.1,0.3l0-0.6
		c0,0-0.1,0.3-0.2,0.5l0-0.5c0,0-0.1,0.3-0.2,0.6l0,0l-0.1-0.6c0,0-0.1,0.3-0.2,0.6l-0.1,0l0-0.5c0,0-0.1,0.3-0.1,0.5l-0.1,0l0-0.5
		c0,0-0.1,0.3-0.2,0.5l-0.1,0l0-0.5c0,0,0,0.1-0.1,0.3l0-0.4c0,0-0.1,0.3-0.2,0.5l0-0.5c0,0,0,0.1-0.1,0.3l0-0.3
		c0,0-0.1,0.3-0.2,0.6l0-0.4c0,0-0.1,0.2-0.1,0.5l-0.1,0l0-0.4c0,0-0.1,0.2-0.1,0.4l-0.2,0l-0.2-0.6c0,0,0,0.3,0,0.5l-0.2-0.6
		c0,0,0,0.2,0,0.5l-0.2-0.6c0,0,0,0.3,0,0.6l-0.2-0.6c0,0,0,0.2,0,0.5l-0.2-0.6c0,0,0,0.3,0,0.6l-0.2-0.6c0,0,0,0.3,0,0.6l-0.2-0.6
		c0,0,0,0.2,0,0.4l-0.2-0.6c0,0,0,0.3,0,0.6l-0.2-0.6c0,0,0,0.3,0,0.6l-0.2-0.6c0,0,0,0.3,0,0.7l0,0l-0.3-0.7c0,0,0,0.1,0,0.3
		l-0.1-0.4c0,0,0,0.3,0,0.6l-0.2-0.6c0,0,0,0.3,0,0.6l-0.2-0.6c0,0,0,0.2,0,0.5l-0.2-0.6c0,0,0,0.3,0,0.7l-0.1,0l-0.3-0.8
		c0,0,0,0.3,0,0.5l-0.2-0.6c0,0,0,0.4,0,0.8l-0.1,0l-0.3-0.8c0,0,0,0.4,0,0.7l-0.3-0.7c0,0,0,0.4,0,0.7l0,0l-0.3-0.9
		c0,0,0,0.5,0,0.9l-0.1,0l-0.3-0.9c0,0,0,0.3,0,0.6l-0.2-0.6c0,0,0,0.2,0,0.5l-0.2-0.6c0,0,0,0.4,0,0.8l-0.3-0.9c0,0,0,0.5,0,0.8
		l-0.3-0.9c0,0,0,0.5,0,0.9l-0.3-0.1l-0.2-0.9c0,0-0.1,0.5-0.1,0.9l-0.2-0.9c0,0-0.1,0.4-0.1,0.8l-0.2-1c0,0-0.1,0.5-0.1,0.9l-0.1,0
		l-0.2-0.9c0,0-0.1,0.5-0.1,0.8l-0.1,0l-0.2-0.8c0,0-0.1,0.4-0.1,0.8l0,0l-0.2-0.9c0,0-0.1,0.5-0.1,0.8l0,0l-0.2-0.9
		c0,0-0.1,0.5-0.1,0.9l-0.1,0l-0.2-0.9c0,0-0.1,0.5-0.1,0.9l0,0l-0.2-0.9c0,0-0.1,0.4-0.1,0.8l-0.1,0l-0.2-0.8c0,0,0,0.3-0.1,0.6
		l-0.1-0.6c0,0-0.1,0.4-0.1,0.7l-0.1,0l-0.2-0.8c0,0-0.1,0.4-0.1,0.8l-0.2,0l-0.2-0.7c0,0-0.1,0.4-0.1,0.7l-0.2,0l-0.2-0.7
		c0,0-0.1,0.4-0.1,0.7l-0.3-0.1l-0.2-0.7c0,0,0,0.2-0.1,0.4l-0.1-0.6c0,0-0.1,0.4-0.1,0.7l-0.6-0.1l-0.2-0.6c0,0,0,0.3-0.1,0.6
		l-0.1,0l-0.3-0.6c0,0,0,0.3,0,0.5l0,0l-0.3-0.6c0,0,0,0.2,0,0.5l-0.1,0l-0.4-0.3c0,0,0,0.1,0.1,0.3l-0.3-0.1l0.3,0.4l-0.5,0.7
		c0,0,0.3-0.2,0.6-0.3l-0.4,0.6c0,0,0.3-0.2,0.6-0.3l-0.4,0.5c0,0,0.4-0.2,0.6-0.3l0,0l-0.3,0.5c0,0,0.2-0.1,0.4-0.2l-0.3,0.4
		c0,0,0.3-0.1,0.5-0.3l0.1,0.1c-0.1,2,0.1,6.3,0.1,6.3l1-5l0.1,0.2c-0.1,2.3,0.1,6.7,0.1,6.7l0.9-5.4l0,0c0,2.4,0.1,5.4,0.1,5.4
		l0.7-3.7c0,2.4,0.1,5.8,0.1,5.8l0.6-3.5c0.2,2.2,0.4,4.8,0.4,4.8l0.5-4.4c0.2,2.2,0.4,4.8,0.4,4.8l0.4-3.4c0.1,2,0.3,3.9,0.3,3.9
		l0.4-3.6c0.2,2.2,0.4,4.7,0.4,4.7l0.3-3.1c0.2,2.1,0.4,4.4,0.4,4.4l0.4-3.8c0.1,2.4,0.4,5.5,0.4,5.5l0.6-5.3l0.1,0.1
		c0.1,2.4,0.5,6.2,0.5,6.2l0.4-3.8c0.2,2.2,0.4,4.7,0.4,4.7l0.4-3.2c0.2,2,0.3,4.1,0.3,4.1l0.4-3.3c0.1,2,0.3,3.9,0.3,3.9l0.5-4.2
		c0.1,1.5,0.2,2.7,0.2,2.7l0.3-2.3l0.4,3.2c0,0,0.1-1.6,0.3-3.3l0.1-0.1l0.4,3.1c0,0,0.1-1.1,0.2-2.5l0.1,1.2c0,0,0.1-1.1,0.2-2.5
		l0,0l0.5,4c0,0,0.2-2,0.3-4l0.1,0.5c0,0,0-0.5,0.1-1.2l0.1,0l0.5,4.2c0,0,0.2-2.4,0.4-4.5l0.5,4.2c0,0,0.3-2.6,0.4-4.9l0.5,4.7
		c0,0,0.2-2.1,0.4-4.2l0.4,3.1c0,0,0.2-1.9,0.3-3.9l0.4,3.3c0,0,0.2-1.7,0.3-3.6l0.4,3.6c0,0,0.2-1.8,0.3-3.8l0.4,3.4
		c0,0,0.2-2.4,0.4-4.6l0.5,4.1c0,0,0.3-3.1,0.4-5.5l0.1-0.1l0.6,5.3c0,0,0.3-2.7,0.4-5l0.1,0.7c0,0,0.1-0.6,0.1-1.5l0.6,5.1
		c0,0,0.2-2,0.3-4l0.4,3.3c0,0,0.4-3.8,0.5-6.2l0,0l0.6,5.3c0,0,0.3-3.6,0.5-6l0.1-0.1l0.6,5.3c0,0,0.3-3.5,0.5-5.9l0.6,5
		c0,0,0.3-3.5,0.5-5.9l0,0l0.5,4.9c0,0,0.2-1.7,0.3-3.6l0.4,3.6c0,0,0.2-2.5,0.4-4.8l0.4,2.5c0,0,0.3-2.4,0.4-4.2l0.6,3.7
		c0,0,0.3-2.8,0.4-4.6l0,0l0.6,2.4c0,0,0.2-1.7,0.3-3l0.1-0.1l0.7,2.7c0,0,0.3-2,0.3-3.3l0.3,1c0,0,0.1-0.8,0.1-1.3l0.2-0.1l0.3,1.3
		c0,0,0.1-1,0.1-1.6c0,0,0,0,0,0L88.1,147.2z"/>
	<path class="st7" d="M88.6,146.5c0,0-0.4,0.3-0.7,0.5l0.1-0.9c0,0-0.3,0.6-0.5,0.9c0,0,0,0-0.1,0l0.1-0.9c0,0-0.2,0.3-0.3,0.6
		l0.1-0.6c0,0-0.3,0.6-0.5,0.9l0.1-0.8l-0.1,0.1c-0.1,0.1-0.1,0.3-0.2,0.4l0-0.2l-2.8,2.8h-2.3v2l-2.7-0.9v1.8h-2.2v1.1l-2.2,0.8
		l-0.9,1.9h-1l0,1.4h-1.5l-0.8,0.8h-1.8l-0.9,1.7l-1.2-0.9l-0.6,0.9l-1.4-1.4l-1.1,0.2v-2.5l-2.1,0.3v-1.1l-1.5-1.5v-1.2l-1.7-0.9
		v-2.1l-1.5-0.5v-1.9l-2.1-0.9l-2.3-1.6l0.3,0.3l-0.5,0.7c0,0,0.3-0.2,0.6-0.3l-0.4,0.6c0,0,0.3-0.2,0.6-0.3l-0.4,0.5
		c0,0,0.4-0.2,0.6-0.3l0,0l-0.3,0.5c0,0,0.2-0.1,0.4-0.2l-0.3,0.4c0,0,0.3-0.1,0.5-0.3l0.1,0.1c-0.1,2,0.1,6.3,0.1,6.3l1-5l0.1,0.2
		c-0.1,2.3,0.1,6.7,0.1,6.7l0.9-5.4l0,0c0,2.4,0.1,5.4,0.1,5.4l0.7-3.7c0,2.4,0.1,5.8,0.1,5.8l0.6-3.5c0.2,2.2,0.4,4.8,0.4,4.8
		l0.5-4.4c0.2,2.2,0.4,4.8,0.4,4.8l0.4-3.4c0.1,2,0.3,3.9,0.3,3.9l0.4-3.6c0.2,2.2,0.4,4.7,0.4,4.7l0.3-3.1c0.2,2.1,0.4,4.4,0.4,4.4
		l0.4-3.8c0.1,2.4,0.4,5.5,0.4,5.5l0.6-5.3l0.1,0.1c0.1,2.4,0.5,6.2,0.5,6.2l0.4-3.8c0.2,2.2,0.4,4.7,0.4,4.7l0.4-3.2
		c0.2,2,0.3,4.1,0.3,4.1l0.4-3.3c0.1,2,0.3,3.9,0.3,3.9l0.5-4.2c0.1,1.5,0.2,2.7,0.2,2.7l0.3-2.3l0.4,3.2c0,0,0.1-1.6,0.3-3.3
		l0.1-0.1l0.4,3.1c0,0,0.1-1.1,0.2-2.5l0.1,1.2c0,0,0.1-1.1,0.2-2.5l0,0l0.5,4c0,0,0.2-2,0.3-4l0.1,0.5c0,0,0-0.5,0.1-1.2l0.1,0
		l0.5,4.2c0,0,0.2-2.4,0.4-4.5l0.5,4.2c0,0,0.3-2.6,0.4-4.9l0.5,4.7c0,0,0.2-2.1,0.4-4.2l0.4,3.1c0,0,0.2-1.9,0.3-3.9l0.4,3.3
		c0,0,0.2-1.7,0.3-3.6L73,163c0,0,0.2-1.8,0.3-3.8l0.4,3.4c0,0,0.2-2.4,0.4-4.6l0.5,4.1c0,0,0.3-3.1,0.4-5.5l0.1-0.1l0.6,5.3
		c0,0,0.3-2.7,0.4-5l0.1,0.7c0,0,0.1-0.6,0.1-1.5l0.6,5.1c0,0,0.2-2,0.3-4l0.4,3.3c0,0,0.4-3.8,0.5-6.2l0,0l0.6,5.3
		c0,0,0.3-3.6,0.5-6l0.1-0.1l0.6,5.3c0,0,0.3-3.5,0.5-5.9l0.6,5c0,0,0.3-3.5,0.5-5.9l0,0l0.5,4.9c0,0,0.2-1.7,0.3-3.6l0.4,3.6
		c0,0,0.2-2.5,0.4-4.8l0.4,2.5c0,0,0.3-2.4,0.4-4.2l0.6,3.7c0,0,0.3-2.8,0.4-4.6l0,0l0.6,2.4c0,0,0.2-1.7,0.3-3l0.1-0.1l0.7,2.7
		c0,0,0.3-2,0.3-3.3l0.3,1c0,0,0.1-0.8,0.1-1.3l0.2-0.1l0.3,1.3c0,0,0.1-1,0.1-1.6c0,0,0,0,0,0l0.1-0.1l0.6-0.4l-0.4,0L88.6,146.5z"
		/>
</g>
<g id="Layer_15">
	<g>
		<path class="st14" d="M82.3,80.2c0,0-0.3,0-0.9,0.1c-0.6,0-1.4,0-2.4,0.1c-1,0-2.1,0-3.3,0c-1.2,0-2.4-0.1-3.7-0.1
			c-0.6,0-1.3,0-1.9,0c-0.6,0-1.2,0-1.8,0c-0.6,0-1.2,0-1.7,0c-0.5,0-1.1,0-1.5,0c-0.5,0-0.9,0-1.3,0c-0.4,0-0.8,0-1,0.1
			c-0.6,0-0.9,0-0.9,0s0.3-0.2,0.8-0.6c0.2-0.2,0.5-0.4,0.9-0.6c0.4-0.2,0.8-0.4,1.3-0.6c0.5-0.2,1-0.4,1.6-0.6
			c0.6-0.2,1.2-0.3,1.8-0.4c0.6-0.1,1.3-0.2,2-0.2c0.7-0.1,1.3,0,2,0c0.7,0,1.4,0.1,2,0.2c0.7,0.1,1.3,0.2,1.9,0.3
			c1.2,0.3,2.4,0.6,3.3,1c0.9,0.4,1.7,0.8,2.2,1.1C82,79.9,82.3,80.2,82.3,80.2z"/>
	</g>
	<g>
		<path class="st14" d="M82.3,74.9c0,0-1.3,0-3.3-0.2c-1-0.1-2.1-0.1-3.3-0.2c-0.6-0.1-1.2,0-1.8-0.1c-0.6,0-1.3,0-1.9-0.1
			c-0.6,0-1.3,0-1.9,0c-0.6,0-1.2,0-1.8,0c-0.6,0-1.2,0-1.7,0.1c-0.5,0.1-1.1,0-1.5,0.1c-0.5,0.1-0.9,0.1-1.3,0.1
			c-0.4,0.1-0.7,0.1-1,0.1c-0.6,0.1-0.9,0.1-0.9,0.1s0.3-0.2,0.8-0.5c0.3-0.1,0.6-0.3,0.9-0.5c0.4-0.2,0.8-0.3,1.3-0.5
			c0.5-0.2,1-0.3,1.6-0.5c0.6-0.2,1.2-0.3,1.8-0.3c0.6-0.1,1.3-0.2,1.9-0.2c0.7-0.1,1.3,0,2,0c1.3,0,2.7,0.2,3.9,0.4
			c1.2,0.2,2.4,0.5,3.3,0.8C81.2,74.2,82.3,74.9,82.3,74.9z"/>
	</g>
	<g>
		<path class="st14" d="M82.2,69.7c0,0-0.3-0.1-0.9-0.1c-0.6-0.1-1.4-0.2-2.3-0.3c-1-0.1-2.1-0.3-3.3-0.4c-0.6-0.1-1.2-0.1-1.9-0.1
			c-0.6,0-1.3-0.1-1.9-0.1c-0.6,0-1.3,0-1.9,0c-0.6,0-1.3,0-1.9,0.1c-0.6,0.1-1.2,0.1-1.7,0.1c-0.5,0.1-1.1,0.1-1.5,0.2
			c-0.5,0.1-0.9,0.2-1.3,0.2c-0.4,0.1-0.7,0.2-1,0.2c-0.6,0.1-0.9,0.2-0.9,0.2s0.3-0.1,0.8-0.4c0.5-0.3,1.3-0.6,2.2-0.8
			c0.5-0.2,1-0.2,1.6-0.4c0.6-0.1,1.2-0.2,1.8-0.3c0.6-0.1,1.3-0.1,1.9-0.2c0.7,0,1.3,0,2,0c1.3,0.1,2.6,0.2,3.9,0.4
			c1.2,0.2,2.4,0.4,3.3,0.7c1,0.2,1.7,0.5,2.3,0.7C81.9,69.5,82.2,69.7,82.2,69.7z"/>
	</g>
	<g>
		<path class="st14" d="M82.3,64.3c0,0-1.3-0.3-3.2-0.6c-1-0.2-2.1-0.3-3.3-0.4C74.6,63.1,73.3,63,72,63c-0.6,0-1.3,0-1.9,0
			c-0.6,0-1.3,0-1.9,0.1c-0.6,0.1-1.2,0.1-1.7,0.2c-0.5,0.1-1.1,0.1-1.6,0.2c-0.5,0.1-0.9,0.2-1.3,0.3c-0.4,0.1-0.7,0.2-1,0.3
			c-0.5,0.2-0.9,0.2-0.9,0.2s0.3-0.1,0.8-0.3c0.5-0.2,1.3-0.5,2.3-0.7c0.5-0.1,1-0.2,1.6-0.3c0.6-0.1,1.1-0.2,1.8-0.2
			c0.6-0.1,1.2-0.1,1.9-0.1c0.6,0,1.3,0,2,0c1.3,0.1,2.6,0.2,3.8,0.3c1.2,0.1,2.3,0.4,3.3,0.6C81.1,63.9,82.3,64.3,82.3,64.3z"/>
	</g>
</g>
<g id="Layer_13">
	<path class="st10" d="M104.6,20l3.5-2.5c0,0-2.1,0.7-4.5,1.6l3.8-2.7c0,0-2.9,1-5.8,2.1l3.1-5.2c0,0-1.9,1.7-3.9,3.6l1.4-2.4
		c0,0-1.5,1.3-3.3,3l-0.6-0.2l2.3-3.9c0,0-1.5,1.3-3.3,3l0.4-1.5l1.7-2.9c0,0-2.1,1.9-4.3,3.9l0,0l0.5-2c0,0-0.3,0.5-0.8,1.3
		l1.1-4.5c0,0-0.8,1.3-1.8,3l0.7-3c0,0-1.1,1.8-2.4,4l0,0l1.1-4.5c0,0-0.5,0.8-1.2,2l0.4-1.5c0,0-0.8,1.3-1.8,3l0-3.3
		c0,0-0.5,1.3-1.1,3.1l-0.2-0.1l0-3.5c0,0-0.4,1.2-1,2.9l0-3.1c0,0-0.4,1.1-0.9,2.5l0.1-4.8c0,0-0.9,2.5-1.8,5.2l-0.1,0l-1.4-4.9
		c0,0-0.1,1-0.1,2.4L84,8.9c0,0-0.1,1.8-0.2,4l-0.2,0l-0.9-3.2c0,0,0,0.6-0.1,1.4l-0.5-1.7c0,0-0.1,1.7-0.2,3.8l-0.3,0.1l-1-3.6
		c0,0-0.1,1.2-0.1,2.8l-0.8-2.8c0,0-0.1,1.5-0.1,3.5l-1-3.5c0,0-0.1,2-0.2,4.4l-0.1,0l-1.3-4.7c0,0-0.1,2.1-0.2,4.5l-1.1-3.8
		c0,0-0.1,2.1-0.2,4.5l-0.3,0.1l-1.1-4c0,0-0.1,1.5-0.1,3.5l-1-3.5c0,0-0.1,2.1-0.2,4.5l-0.3,0.1l-1.5-5.2c0,0-0.1,2.7-0.2,5.6l0,0
		l-1-3.6c0,0-0.1,1.7-0.2,3.9l-0.1,0l-1.5-3.2c0,0,0.2,1.5,0.4,3.5l0,0l-1.3-2.9c0,0,0.1,1.4,0.4,3.2l-0.3,0.1l-1.4-3.1
		c0,0,0.1,1.4,0.4,3.4L66,17l-0.2-2.1c0,0-0.1,0.4-0.2,1l-0.2-2.1c0,0-0.3,1.3-0.7,3.1l-0.2-2.3c0,0-0.2,0.9-0.5,2.2l-0.3-3.3
		c0,0-0.4,1.5-0.8,3.5l0,0l-1.2-5c0,0-0.1,1.1-0.2,2.6l-0.9-3.6c0,0-0.2,2.6-0.4,5.4l-0.2,0l-1.3-5.4c0,0-0.2,2-0.3,4.4l-1.2-5
		c0,0-0.2,2.5-0.4,5.3l-0.3-0.1l-1.4-5.7c0,0-0.2,2.1-0.3,4.7l-1.4-5.7c0,0-0.2,2.3-0.4,5l-1.3-5.3c0,0-0.2,2.8-0.4,5.8l-0.3-0.1
		l-2-8c0,0-0.4,4.3-0.5,7.8l-2.2-4c0,0,0.4,2.1,0.9,4.5l-1.6-2.9c0,0,0.4,2.1,0.9,4.5L44.5,13c0,0,0.3,1.4,0.6,3.2l-1.6-2.8
		c0,0,0.3,1.6,0.7,3.7L43,15.6c0,0,0.4,1,1.1,2.3l-3-3.2c0,0,0.6,1.3,1.5,3.1l-1.8-1.9c0,0,0.4,0.8,0.9,2l-0.6-0.6
		c0,0,0.3,0.7,0.8,1.7l-3-3.2c0,0,1,2.1,2.1,4.5l-0.1,0l-3.4-1.9c0,0,1.1,1.1,2.5,2.6l-0.2,0.1l-4.8-2.7c0,0,1.6,1.7,3.4,3.6l0,0
		l-3.4-1.9c0,0,0.9,0.9,2.1,2.2l-3.6-1.2c0,0,1.3,0.9,3,2.1l-0.1,0.1l-4-1.3c0,0,1.3,0.9,2.9,2L35,24.1l0.7,0.3l-2.7,2.3
		c0,0,1.3-0.6,2.7-1.2l-2,1.7c0,0,1.9-0.8,3.6-1.6l-2.5,2.1c0,0,1.7-0.7,3.3-1.4l-2.2,1.9c0,0,0.5-0.2,1.2-0.5l-1.2,1
		c0,0,2.4-1,4.1-1.8l-2.8,2.4c0,0,0.8-0.4,1.9-0.8l-1,0.8c0,0,1.2-0.5,2.5-1.1l-1.9,1.6c0,0,1.8-0.8,3.4-1.5L39.7,31
		c0,0,0.9-0.6,1.9-1.3l-1,1.3c0,0,1.6-1.1,3-2.1l-2,2.6c0,0,1.6-1.1,3-2.1L42.4,32c0,0,1-0.7,2.2-1.5L43.4,32c0,0,0.9-0.6,2-1.4
		l-1.7,2.2c0,0,1.8-1.2,3.2-2.3l-2.2,2.8c0,0,1.6-1.1,3-2.1l-1.8,2.3c0,0,0.7-0.5,1.7-1.1l-1.1,1.4c0,0,1.1-0.7,2.2-1.6l-1.6,2
		c0,0,1-0.6,2-1.4l-1.3,1.6c0,0,1.4-0.9,2.7-1.9l-0.7,0.9c0,0,0.5-0.3,1.1-0.8l-1.4,1.7c0,0,1-0.7,2.1-1.4l-2.1,2.6
		c0,0,1.3-0.9,2.6-1.8l-1.6,2c0,0,1.2-0.8,2.4-1.7l-1.6,2c0,0,1-0.6,2-1.4l-0.3,1c0,0,0.5-0.7,1.2-1.6c0,0,0,0,0,0l-1,2.9
		c0,0,1-1.3,2-2.6l-1,2.8c0,0,0.8-1,1.6-2.2L55,37.4c0,0,0.4-0.5,0.9-1.2l-0.3,0.9c0,0,0.4-0.5,0.9-1.2L56,37.4c0,0,0.4-0.5,1-1.3
		l-0.6,1.7c0,0,0.7-0.9,1.4-1.9l-0.8,2.3c0,0,0.9-1.1,1.8-2.4l0,0l-1,2.9c0,0,1-1.2,1.9-2.5l0,0l-1,2.7c0,0,0.9-1.1,1.7-2.3l0,0
		l-0.6,1.7c0,0,0.5-0.6,1.1-1.5l0,0l-0.8,2.3c0,0,0.7-0.9,1.5-1.9l-0.8,2.4c0,0,0.7-0.8,1.4-1.8l0,2.5c0,0,0.2-0.6,0.4-1.3l0,0.6
		l0,0.1c0,0,0,0,0,0l0,0.7c0,0,0.2-0.5,0.4-1.2c0.1-0.2,0.3-0.4,0.5-0.6L63,40.1c0,0,0.5-0.6,1.1-1.4l-0.6,1.8c0,0,0.4-0.5,0.9-1.2
		l-0.5,1.4c0,0,0.5-0.7,1.2-1.6l0,0l-0.7,2c0,0,0.3-0.4,0.7-0.9l-0.3,0.9c0,0,0.5-0.7,1.2-1.6l5.9,1.1l-6.1,0c0,0,0.2-0.2,0.4-0.5
		l0,1.2c0,0,0.2-0.5,0.4-1.2l0,1.2c0,0,0.2-0.5,0.4-1.3l0,0l0.2-0.1l0,1.5c0,0,0.3-0.8,0.6-1.8l0.2-0.1l0.5,1.8c0,0,0.1-0.9,0.1-1.9
		l0.4,1.7c0,0,0.1-0.9,0.1-2.1l0.4,1.6c0,0,0.1-0.7,0.1-1.7l0.4,1.7c0,0,0.1-1,0.1-2.2l0.1-0.1l0.4,1.6c0,0,0.1-0.8,0.1-1.9l0,0
		l0.4,1.5c0,0,0.1-0.8,0.1-1.7l0,0L72,39c0,0-0.1-0.6-0.3-1.4l0.2-0.1l0.9,1.5c0,0-0.2-0.8-0.4-1.8l0.2-0.1l1.1,1.9
		c0,0-0.2-0.9-0.4-2l0.8,1.4c0,0-0.2-0.8-0.4-1.8l1,1.8c0,0-0.1-0.6-0.3-1.4l0.7,1.3c0,0-0.2-1-0.5-2.2l0.1,0l1,1.7
		c0,0-0.2-0.9-0.4-1.9l0.1,0l1,1.8c0,0-0.2-0.9-0.4-2.1l0.1-0.1l1.1,1.9c0,0-0.2-1-0.5-2.2l1.1,2c0,0-0.2-0.8-0.4-1.8l0.8,1.3
		c0,0-0.1-0.4-0.2-1l0.6,1c0,0-0.1-0.6-0.3-1.4l0.8,1.4c0,0-0.2-1-0.5-2.2l1,1.8c0,0-0.2-1.2-0.5-2.5l0,0l1.8,2.3c0,0-0.3-1-0.8-2.1
		l1.1,1.4c0,0-0.2-0.5-0.4-1.2l1,1.3c0,0-0.3-0.8-0.6-1.8l1,1.3c0,0-0.1-0.3-0.3-0.7l0.3,0.3c0,0-0.3-0.8-0.6-1.7l1.2,1.5
		c0,0-0.2-0.5-0.5-1.3l0.8,1.1c0,0-0.1-0.4-0.3-0.9l0.7,0.9c0,0-0.4-1-0.8-2.2l0,0l1.4,1.8c0,0-0.2-0.7-0.6-1.5l1.1,1.4
		c0,0-0.4-1-0.8-2.2l0,0l1.7,2.2c0,0-0.4-1.2-1-2.6l0.1,0l1.8,2.3c0,0-0.3-0.8-0.7-1.9l1.4,1.8c0,0-0.4-1.1-0.9-2.3l1.4,1.8
		c0,0-0.3-1-0.8-2.1l1.7,2.1c0,0-0.2-0.7-0.6-1.6l0.6,0.7c0,0-0.4-1.2-0.9-2.4l0.1,0l1.7,2.3c0,0-0.4-1.2-1-2.6l1.8,2.3
		c0,0-0.3-0.8-0.7-1.8l1.1,1.4c0,0-0.2-0.6-0.6-1.5l1.5,2c0,0-0.3-0.8-0.7-1.9l0.7,0.9c0,0-0.1-0.3-0.3-0.9l1,1.2
		c0,0-0.4-1.2-0.9-2.5l1.1,1.4c0,0-0.1-0.4-0.3-0.9l1.3,1.7c0,0-0.6-1.8-1.3-3.4l0.1-0.1l1.6,2.1c0,0-0.2-0.6-0.5-1.5l0.8,0.6
		c0,0-0.5-0.6-1.2-1.4c0,0,0-0.1,0-0.1l0.2-0.1l1.6,2.1c0,0-0.2-0.6-0.5-1.5l1.1,1.5c0,0-0.1-0.4-0.3-0.9l0.3,0.4
		c0,0-0.3-0.8-0.7-1.8l1.3,1.7c0,0-0.3-0.9-0.8-2.1l1.8,1.2c0,0-0.5-0.6-1.1-1.3l1.9,1.3c0,0-0.4-0.5-0.9-1.2l1.6,1.1
		c0,0-0.9-1.2-1.9-2.3l0.1,0l2.6,1.7c0,0-0.5-0.6-1.1-1.3l1.1,0.7c0,0-0.5-0.6-1.1-1.4c0.1,0,0.2-0.1,0.2-0.1l0.2-0.1l1.5,1
		c0,0-0.5-0.6-1.1-1.3l1.4,1c0,0-0.4-0.6-1-1.3l0.1-0.1l1.8,1.2c0,0-0.6-0.7-1.3-1.6l0.1,0l2,1.3c0,0-0.6-0.8-1.4-1.7l0.1-0.1
		l2.2,1.5c0,0-0.7-0.9-1.5-1.9l3.9-2L104.6,20z"/>
	<path class="st7" d="M32.5,21.8c0,0,1.3,0.9,2.9,2L35,24.1l0.5,0.2l3.8-0.6l3.4-0.3v-2.2l4.8,0L46,18.1l2.8-0.6l1.7-2l2.2,2.7
		l2.4-1.9l1.3,2l3.7-0.1l2.8,2l3.1-1.9l4.3,1.9l2.7-2.6l3.1,0.7l3.1-2.1l2.5,1.4l4.8-1.4l2.3,2.1h5.5l8.3,5.4
		c-0.3-0.3-0.6-0.8-1.1-1.3l3.9-2l-0.8-0.3l3.5-2.5c0,0-2.1,0.7-4.5,1.6l3.8-2.7c0,0-2.9,1-5.8,2.1l3.1-5.2c0,0-1.9,1.7-3.9,3.6
		l1.4-2.4c0,0-1.5,1.3-3.3,3l-0.6-0.2l2.3-3.9c0,0-1.5,1.3-3.3,3l0.4-1.5l1.7-2.9c0,0-2.1,1.9-4.3,3.9l0,0l0.5-2
		c0,0-0.3,0.5-0.8,1.3l1.1-4.5c0,0-0.8,1.3-1.8,3l0.7-3c0,0-1.1,1.8-2.4,4l0,0l1.1-4.5c0,0-0.5,0.8-1.2,2l0.4-1.5c0,0-0.8,1.3-1.8,3
		l0-3.3c0,0-0.5,1.3-1.1,3.1l-0.2-0.1l0-3.5c0,0-0.4,1.2-1,2.9l0-3.1c0,0-0.4,1.1-0.9,2.5l0.1-4.8c0,0-0.9,2.5-1.8,5.2l-0.1,0
		l-1.4-4.9c0,0-0.1,1-0.1,2.4L84,8.9c0,0-0.1,1.8-0.2,4l-0.2,0l-0.9-3.2c0,0,0,0.6-0.1,1.4l-0.5-1.7c0,0-0.1,1.7-0.2,3.8l-0.3,0.1
		l-1-3.6c0,0-0.1,1.2-0.1,2.8l-0.8-2.8c0,0-0.1,1.5-0.1,3.5l-1-3.5c0,0-0.1,2-0.2,4.4l-0.1,0l-1.3-4.7c0,0-0.1,2.1-0.2,4.5l-1.1-3.8
		c0,0-0.1,2.1-0.2,4.5l-0.3,0.1l-1.1-4c0,0-0.1,1.5-0.1,3.5l-1-3.5c0,0-0.1,2.1-0.2,4.5l-0.3,0.1l-1.5-5.2c0,0-0.1,2.7-0.2,5.6l0,0
		l-1-3.6c0,0-0.1,1.7-0.2,3.9l-0.1,0l-1.5-3.2c0,0,0.2,1.5,0.4,3.5l0,0l-1.3-2.9c0,0,0.1,1.4,0.4,3.2l-0.3,0.1l-1.4-3.1
		c0,0,0.1,1.4,0.4,3.4L66,17l-0.2-2.1c0,0-0.1,0.4-0.2,1l-0.2-2.1c0,0-0.3,1.3-0.7,3.1l-0.2-2.3c0,0-0.2,0.9-0.5,2.2l-0.3-3.3
		c0,0-0.4,1.5-0.8,3.5l0,0l-1.2-5c0,0-0.1,1.1-0.2,2.6l-0.9-3.6c0,0-0.2,2.6-0.4,5.4l-0.2,0l-1.3-5.4c0,0-0.2,2-0.3,4.4l-1.2-5
		c0,0-0.2,2.5-0.4,5.3l-0.3-0.1l-1.4-5.7c0,0-0.2,2.1-0.3,4.7l-1.4-5.7c0,0-0.2,2.3-0.4,5l-1.3-5.3c0,0-0.2,2.8-0.4,5.8l-0.3-0.1
		l-2-8c0,0-0.4,4.3-0.5,7.8l-2.2-4c0,0,0.4,2.1,0.9,4.5l-1.6-2.9c0,0,0.4,2.1,0.9,4.5L44.5,13c0,0,0.3,1.4,0.6,3.2l-1.6-2.8
		c0,0,0.3,1.6,0.7,3.7L43,15.6c0,0,0.4,1,1.1,2.3l-3-3.2c0,0,0.6,1.3,1.5,3.1l-1.8-1.9c0,0,0.4,0.8,0.9,2l-0.6-0.6
		c0,0,0.3,0.7,0.8,1.7l-3-3.2c0,0,1,2.1,2.1,4.5l-0.1,0l-3.4-1.9c0,0,1.1,1.1,2.5,2.6l-0.2,0.1l-4.8-2.7c0,0,1.6,1.7,3.4,3.6l0,0
		l-3.4-1.9c0,0,0.9,0.9,2.1,2.2l-3.6-1.2c0,0,1.3,0.9,3,2.1l-0.1,0.1L32.5,21.8z"/>
</g>
<g id="Layer_16">
	<path class="st15" d="M140.9,41.4"/>
	<path class="st0" d="M137.2,35.4c2.8-8.7,1.9-17.7,6.1-24.8c0,0-17.7-7.1-32.1,26.9l20.1,13.4C131.3,50.8,134.7,43,137.2,35.4z"/>
	<path class="st15" d="M142.1,31.3"/>
	<path class="st10" d="M133.3,44.8l6.1-30.7c0,0-8.7-0.6-19.7,15.9C119.6,30,131.7,33.1,133.3,44.8z"/>
	<g>
		<path class="st12" d="M133,46.2c0-0.9-0.2-1.8-0.5-2.7c-0.2-0.9-0.6-1.7-1-2.4c-0.4-0.8-0.9-1.5-1.5-2.1c-0.5-0.6-1.1-1.2-1.8-1.8
			c-0.6-0.5-1.3-1-2-1.5c-0.3-0.2-0.7-0.4-1.1-0.7c-0.4-0.2-0.8-0.4-1.1-0.6c-0.8-0.4-1.6-0.7-2.4-1.1c-0.8-0.3-1.6-0.6-2.4-0.9
			l-1-0.3l-0.3-1.1c-0.1-0.3-0.1-0.4-0.1-0.5c0-0.1,0-0.3-0.1-0.4c0-0.2,0-0.5,0-0.7c0-0.4,0-0.8,0.1-1.2c0.1-0.8,0.4-1.5,0.6-2.2
			c0.6-1.3,1.4-2.4,2.2-3.4c0.9-1,1.8-1.8,2.7-2.5c1-0.8,2-1.4,3-2c1-0.6,2.1-1.1,3.1-1.5c0.5-0.2,1.1-0.4,1.6-0.6
			c0.5-0.2,1.1-0.4,1.6-0.6c2.2-0.7,4.5-1.2,6.8-1.3c-0.4,0.4-0.9,0.7-1.4,1.1c-0.5,0.3-0.9,0.7-1.4,1l-2.7,2l-2.7,1.9
			c-0.9,0.6-1.7,1.3-2.6,1.9c-0.4,0.3-0.8,0.6-1.2,1c-0.4,0.3-0.8,0.6-1.2,1c-0.4,0.3-0.7,0.7-1.1,1c-0.4,0.3-0.7,0.7-1,1.1
			c-0.6,0.7-1.1,1.4-1.5,2.1c-0.2,0.4-0.3,0.7-0.4,1c0,0.2-0.1,0.3-0.1,0.4l0,0.2c0,0,0,0,0,0c0,0,0,0.1-0.1-0.1l-1.4-1.4
			c0.9,0.4,1.8,0.8,2.7,1.3c0.9,0.5,1.7,1,2.5,1.5c0.8,0.6,1.6,1.2,2.4,1.9c0.4,0.3,0.7,0.7,1.1,1c0.3,0.4,0.7,0.7,1,1.1
			c0.6,0.8,1.2,1.6,1.7,2.5c0.5,0.9,0.8,1.8,1.1,2.8c0.3,1,0.4,2,0.3,2.9C133.4,44.3,133.3,45.3,133,46.2z"/>
	</g>
	<path class="st0" d="M9.9,36.3C7.1,27.6,8,18.6,3.8,11.5c0,0,12.4-13.2,26.8,20.7L13.5,49.4C13.5,49.4,12.4,44,9.9,36.3z"/>
	<path class="st15" d="M5,32.3"/>
	<path class="st10" d="M13.5,45.4L7.3,14.7c0,0,8.7-0.6,19.7,15.9C27.1,30.6,15,33.7,13.5,45.4z"/>
	<g>
		<path class="st12" d="M13.8,46.8c-0.3-0.9-0.5-1.9-0.5-2.8c0-1,0.1-2,0.3-2.9c0.2-1,0.6-1.9,1.1-2.8c0.5-0.9,1-1.8,1.7-2.5
			c0.3-0.4,0.7-0.8,1-1.1c0.4-0.4,0.7-0.7,1.1-1c0.7-0.7,1.5-1.3,2.4-1.9c0.8-0.6,1.7-1.1,2.5-1.5c0.9-0.5,1.8-0.9,2.7-1.3l-1.4,1.4
			c-0.1,0.2,0,0.1-0.1,0.1c0,0,0,0,0,0l0-0.2c0-0.1-0.1-0.3-0.1-0.4c-0.1-0.3-0.2-0.7-0.4-1c-0.4-0.7-0.9-1.4-1.5-2.1
			c-0.3-0.4-0.6-0.7-1-1.1c-0.4-0.3-0.7-0.7-1.1-1c-0.4-0.3-0.8-0.7-1.2-1c-0.4-0.3-0.8-0.7-1.2-1c-0.8-0.7-1.7-1.3-2.6-1.9
			l-2.7-1.9l-2.7-2c-0.5-0.3-0.9-0.7-1.4-1c-0.5-0.3-0.9-0.7-1.4-1.1c2.3,0.2,4.6,0.7,6.8,1.3c0.5,0.2,1.1,0.3,1.6,0.6
			c0.5,0.2,1.1,0.4,1.6,0.6c1.1,0.5,2.1,1,3.1,1.5c1,0.6,2,1.2,3,2c1,0.7,1.9,1.6,2.7,2.5c0.8,1,1.6,2.1,2.2,3.4
			c0.3,0.7,0.5,1.4,0.6,2.2c0.1,0.4,0.1,0.8,0.1,1.2c0,0.2,0,0.4,0,0.7c0,0.1,0,0.2-0.1,0.4c0,0.2,0,0.2-0.1,0.5l-0.3,1.1l-1,0.3
			c-0.8,0.3-1.6,0.6-2.4,0.9c-0.8,0.3-1.6,0.7-2.4,1.1c-0.4,0.2-0.8,0.4-1.1,0.6c-0.4,0.2-0.7,0.4-1.1,0.7c-0.7,0.5-1.4,1-2,1.5
			c-0.7,0.5-1.2,1.1-1.8,1.8c-0.6,0.6-1.1,1.3-1.5,2.1c-0.4,0.8-0.8,1.6-1,2.4C14,44.9,13.8,45.8,13.8,46.8z"/>
	</g>
</g>
</svg>
